<svg xmlns="http://www.w3.org/2000/svg" width="90" height="90" viewBox="0 0 90 90">
  <g id="تصميم_التطبيقات" data-name="تصميم التطبيقات" transform="translate(-640 -1356)">
    <g id="Ellipse_162" data-name="Ellipse 162" transform="translate(640 1356)" fill="#fff" stroke="#29abe2" stroke-width="1" stroke-dasharray="3">
      <circle cx="45" cy="45" r="45" stroke="none"/>
      <circle cx="45" cy="45" r="44.5" fill="none"/>
    </g>
    <g id="design-app-3874214" transform="translate(667 1374)">
      <path id="Path_10828" data-name="Path 10828" d="M183.917,126.949H161.133a3.635,3.635,0,0,1-3.634-3.623V77.749a3.634,3.634,0,0,1,3.634-3.634h22.783a3.634,3.634,0,0,1,3.635,3.634v9.19h-2.2v-9.19a1.438,1.438,0,0,0-1.439-1.438H161.134a1.438,1.438,0,0,0-1.438,1.438v45.577a1.438,1.438,0,0,0,1.438,1.427h22.783a1.439,1.439,0,0,0,1.439-1.427V97.677h2.2v25.649a3.635,3.635,0,0,1-3.635,3.623Z" transform="translate(-157.499 -72.924)" fill="#29abe2"/>
      <path id="Path_10829" data-name="Path 10829" d="M234.274,81.372a6.159,6.159,0,0,1-6.16-6.16v-1.1h12.33v1.1a6.17,6.17,0,0,1-6.171,6.16Zm-3.81-5.062a3.975,3.975,0,0,0,7.686,0Z" transform="translate(-219.253 -72.924)" fill="#29abe2"/>
      <path id="Path_10830" data-name="Path 10830" d="M465.332,75.184l-6.917-6.928,2.57-2.57h0a3.635,3.635,0,0,1,5.128,0l1.757,1.812a3.555,3.555,0,0,1,0,5.139Zm-3.81-6.928,3.81,3.821,1.021-1.01a1.472,1.472,0,0,0,.417-1.021,1.449,1.449,0,0,0-.417-1.01l-1.779-1.768a1.439,1.439,0,0,0-2.031,0Z" transform="translate(-420.655 -64.628)" fill="#29abe2"/>
      <path id="Path_10831" data-name="Path 10831" d="M321.736,107.293a2.339,2.339,0,0,1-1.669-.692,2.371,2.371,0,0,1-.67-2l.6-4.183a2.335,2.335,0,0,1,.67-1.34l17.7-17.7L345.3,88.3,327.61,106.009a2.372,2.372,0,0,1-1.328.67l-4.162.593a1.8,1.8,0,0,1-.384.022ZM338.37,84.487l-16.2,16.239-.6,4.183a.186.186,0,0,0,.055.143.153.153,0,0,0,.143,0l4.172-.593L342.192,88.3Z" transform="translate(-299.062 -79.278)" fill="#29abe2"/>
      <path id="Path_10832" data-name="Path 10832" d="M331.48,219.587l1.584-1.521,5.423,5.646-1.584,1.521Z" transform="translate(-309.648 -198.811)" fill="#29abe2"/>
      <path id="Path_10833" data-name="Path 10833" d="M203.828,160.872h-6v-5.995h5.995Zm-3.8-2.2h1.6v-1.6h-1.6Z" transform="translate(-192.772 -143.552)" fill="#29abe2"/>
      <path id="Path_10834" data-name="Path 10834" d="M264.393,160.872h-6.006v-5.995h6.006Zm-3.8-2.2h1.6v-1.6h-1.614Z" transform="translate(-245.727 -143.552)" fill="#29abe2"/>
      <path id="Path_10835" data-name="Path 10835" d="M206.59,447.48h2.536v2.2H206.59Z" transform="translate(-200.43 -399.438)" fill="#29abe2"/>
      <path id="Path_10836" data-name="Path 10836" d="M267.14,447.48h2.536v2.2H267.14Z" transform="translate(-253.382 -399.438)" fill="#29abe2"/>
      <path id="Path_10837" data-name="Path 10837" d="M327.69,447.48h2.536v2.2H327.69Z" transform="translate(-306.334 -399.438)" fill="#29abe2"/>
      <path id="Path_10838" data-name="Path 10838" d="M238.075,356.293h-7.6a2.361,2.361,0,0,1-2.361-2.361V346.5h12.33v7.433a2.371,2.371,0,0,1-2.371,2.361Zm-7.763-7.6v5.237a.165.165,0,0,0,.165.165h7.6a.176.176,0,0,0,.175-.165V348.7Z" transform="translate(-219.255 -311.129)" fill="#29abe2"/>
      <path id="Path_10839" data-name="Path 10839" d="M226.115,290.8h-2.042v-2.2h2.042a.154.154,0,0,0,.154-.1.166.166,0,0,0,0-.186l-5.809-5.8h0a.132.132,0,0,0-.23,0l-5.809,5.8h0a.186.186,0,0,0,0,.186.164.164,0,0,0,.165.1h2v2.2h-2.108a2.361,2.361,0,0,1-1.68-4.03l5.809-5.809h0a2.438,2.438,0,0,1,3.349,0l5.8,5.809h0a2.361,2.361,0,0,1-1.636,4.03Z" transform="translate(-205.253 -253.231)" fill="#29abe2"/>
      <path id="Path_10840" data-name="Path 10840" d="M258.39,385.52h2.2v3.8h-2.2Z" transform="translate(-245.73 -345.253)" fill="#29abe2"/>
    </g>
  </g>
</svg>
