<svg xmlns="http://www.w3.org/2000/svg" xmlns:xlink="http://www.w3.org/1999/xlink" width="345" height="307" viewBox="0 0 345 307">
  <defs>
    <clipPath id="clip-path">
      <rect id="Rectangle_4674" data-name="Rectangle 4674" width="345" height="307" transform="translate(201 281)" fill="#e5f7ff" stroke="#707070" stroke-width="1"/>
    </clipPath>
    <clipPath id="clip-path-2">
      <path id="Intersection_6" data-name="Intersection 6" d="M37.651,37.858a23.343,23.343,0,0,0-3.688-4.52c-1.291-.985-5.246-1.8-5.246-1.8a19.583,19.583,0,0,1-.275,3.7c-.344,1.779-1.68,3.306-1.8,2.359a24.838,24.838,0,0,1-.282-4.963c.153-1.757.13-4.833.13-4.833L27,24.45s-11.568-7.315-15.921-9.621S2.725,9.972,2.725,9.972L0,9.758S.129,4.933,1.794,2.978A16.172,16.172,0,0,1,5.062,0a29.09,29.09,0,0,1,6.621,2.039c2.283,1.237,19.768,19.7,20.234,21.754a18.819,18.819,0,0,0,2.734,5.986c.931,1.229,3.925,4.872,4.123,6.383.147,1.119-.146,2.088-.6,2.088C38.016,38.25,37.837,38.131,37.651,37.858Zm-8.857-6.7c.168.038,4.062.848,5.406,1.879a23.271,23.271,0,0,1,3.765,4.581c.137.206.221.237.221.237a2.428,2.428,0,0,0,.206-1.657c-.16-1.222-2.482-4.192-3.6-5.62l-.451-.58a19.194,19.194,0,0,1-2.794-6.109c-.39-1.7-17.631-20.189-20.051-21.5A27.565,27.565,0,0,0,5.138.412,16.708,16.708,0,0,0,2.084,3.23C.779,4.757.465,8.277.4,9.415l2.36.191a.361.361,0,0,1,.175.054c.038,0,4.039,2.565,8.323,4.841s15.837,9.56,15.951,9.636a.375.375,0,0,1,.176.382l-.52,3.336c0,.069,0,3.055-.122,4.81A24.115,24.115,0,0,0,27,37.392a4.573,4.573,0,0,0,1.069-2.222,18.931,18.931,0,0,0,.267-3.612.4.4,0,0,1,.137-.305.36.36,0,0,1,.244-.1Z" fill="none"/>
    </clipPath>
    <clipPath id="clip-path-3">
      <path id="Intersection_7" data-name="Intersection 7" d="M49.823,52.459c-1.687-.993-.427-3.238-.427-3.238S47.5,45.494,44.3,44.876,24.045,28.162,24.045,28.162L6.651,26.154,0,13l14.966-2.176s-.511.069,9.8-3.215c0,0,8.414-3.207,8.926-3.276S43.073,1.864,45.02.91,51.61-.319,56.4.429,77.983,2.4,77.983,2.4s-3.146,3.749-3.336,6.17S74.6,18.624,74.6,18.624L61.467,17.609,77.38,34.2a16.37,16.37,0,0,1,4.643,2.329c1.573,1.351-3.382,4.6-6.826,7.322s-10.843,7.017-16.035,8.4a24.2,24.2,0,0,1-6,.993A6.318,6.318,0,0,1,49.823,52.459ZM15.081,11.218.642,13.31,6.857,25.795l17.356,2,.091.084c4.719,4.459,17.562,16.127,20.074,16.608,3.345.641,5.276,4.39,5.345,4.581l.091.184-.1.175c-.039.085-1.053,1.94.29,2.726s3.33,1.275,9.048-.252c5.268-1.4,12.621-5.734,15.9-8.315.565-.443,1.161-.893,1.764-1.351,2.29-1.757,5.184-3.932,5.215-5.032a.406.406,0,0,0-.168-.352,16.1,16.1,0,0,0-4.512-2.29h-.092l-.069-.069L60.49,17.174l13.744,1.062c0-1.642-.115-7.537.053-9.675.153-1.985,2.062-4.65,2.963-5.811C73.975,2.506,60.528,1.483,56.359.833c-4.5-.71-9.163-.519-11.149.443A106.5,106.5,0,0,1,33.758,4.735c-.428.076-5.643,2.031-8.835,3.253-8.75,2.795-9.644,3.146-9.736,3.192l-.16-.344ZM74.6,18.624Z" fill="none"/>
    </clipPath>
    <clipPath id="clip-path-4">
      <path id="Intersection_8" data-name="Intersection 8" d="M2.184,16.915A82.751,82.751,0,0,0,0,8.371S5.452,2.27,7.162.827s4.23-.955,4.483,1.13,4.9,10.95,5.008,13.012-4.428-2.009-4.428-2.009L9.773,17.969,4.246,16.8s.061,4.3-1.451,4.7a1.151,1.151,0,0,1-.289.043C1.455,21.54,2.5,19.286,2.184,16.915Zm.336,4.276Zm.183-.023c.84-.206,1.183-2.657,1.16-4.329v-.473l5.712,1.207,2.543-5.2.374.344c1.634,1.466,3.39,2.619,3.817,2.489v-.183C16.257,14,14.875,10.875,13.66,8.149,12.5,5.538,11.37,3.072,11.278,2.041A1.755,1.755,0,0,0,10.133.575a2.764,2.764,0,0,0-2.719.573C5.887,2.43,1.306,7.523.458,8.493a76.642,76.642,0,0,1,2.13,8.4,11.555,11.555,0,0,1-.069,2.894,3.743,3.743,0,0,0,0,1.392A.462.462,0,0,0,2.7,21.168Z" fill="none"/>
    </clipPath>
    <clipPath id="clip-path-5">
      <path id="Intersection_9" data-name="Intersection 9" d="M5.344,14.3A48.034,48.034,0,0,1,0,12.066s6.307-6.032,6.971-6.3.4-2.474.229-3.5S9.04-.747,11.614.292s.977,2.122.977,2.122A63.465,63.465,0,0,1,15.21,9c.656,2.337,1.291,12.316,1.634,14.867.034.254-.032.368-.183.368C15.3,24.23,7.132,14.846,5.344,14.3ZM8.33,1a1.656,1.656,0,0,0-.763,1.214c.29,2.183.313,3.6-.466,3.9C6.673,6.323,3.543,9.21.664,11.958a43.2,43.2,0,0,0,4.773,1.978c.9.275,2.794,2.108,5.81,5.093a44.327,44.327,0,0,0,5.193,4.734c-.115-.9-.26-2.543-.428-4.413A96.419,96.419,0,0,0,14.828,9.1a62.51,62.51,0,0,0-2.6-6.528l-.137-.3.267-.183c.092-.061.344-.29.321-.52s-.168-.5-1.222-.931A3.051,3.051,0,0,0,8.33,1Z" fill="none"/>
    </clipPath>
    <clipPath id="clip-path-6">
      <path id="Intersection_10" data-name="Intersection 10" d="M6.231,23.594c-.726-.244-2.772-7.773-2.772-7.773a10.3,10.3,0,0,0-2.4-1.069C.359,14.676,0,13.332,0,13.332L2.123,9.758a17.882,17.882,0,0,0-.7-2.68C1.138,6.276,2.665.84,2.665.84L11.56,0s-1.023,5.338-.954,5.849,2.97,2.726,2.97,2.726l.305.992c.306,1,1.963.436,1.963.436A19.643,19.643,0,0,1,16.768,7.8c.695-1.473,2.864-2.115,3.818-.16s-1.428,4.872-1.428,4.872.359,4.116-.557,4.933-8.659,6.353-9.316,6.788a.912.912,0,0,1-.508.125A9.576,9.576,0,0,1,6.231,23.594ZM2.978,1.2c-.7,2.466-1.337,5.3-1.184,5.742A18.668,18.668,0,0,1,2.558,9.69v.137L.42,13.385c.137.435.428.962.68.985a10.292,10.292,0,0,1,2.55,1.122l.13.077.046.153c.924,3.413,2.145,7.17,2.58,7.536a3.62,3.62,0,0,1,.458.176c.6.229,1.833.717,2.184.481.634-.427,8.4-5.971,9.277-6.765.542-.473.58-2.978.427-4.582v-.153l.1-.122s2.222-2.756,1.382-4.467a1.528,1.528,0,0,0-1.428-1.008,1.962,1.962,0,0,0-1.672,1.161c-.649,1.436-.9,2.161-.909,2.169l-.053.175-.183.061a2.767,2.767,0,0,1-1.871,0,1.145,1.145,0,0,1-.581-.695l-.267-.878C11.324,7.284,10.316,6.337,10.255,5.9A54.2,54.2,0,0,1,11.118.435Z" fill="none"/>
    </clipPath>
  </defs>
  <g id="خدمات_تطوير_تطبيقات_الموبايل_" data-name="خدمات تطوير تطبيقات الموبايل " transform="translate(-201 -281)" clip-path="url(#clip-path)">
    <g id="Mobile_apps-bro" data-name="Mobile apps-bro" transform="translate(180.433 244.946)">
      <g id="freepik--background-simple--inject-74" transform="translate(44.971 49.12)">
        <path id="Path_18735" data-name="Path 18735" d="M311.331,130c-4.581-3.749-9.5-7.178-14.1-10.95-21.7-17.806-34.063-44.18-58.909-58.367C211.907,45.6,177.654,45.276,150.6,59.7c-30.092,16.035-40.286,51.083-64.651,73.753C48.2,168.577,35.2,208.084,52.536,242.581,65.1,267.6,98.159,282.951,122.669,292.4c30.451,11.751,61.085,34.46,94.064,37.308,28.137,2.421,56.5-11.148,69.736-36.957,7.506-14.66,21.189-24.144,32.5-35.506,29.779-29.909,28.779-86.878,1.84-118.238a72.853,72.853,0,0,0-9.483-9.01Z" transform="translate(-44.971 -49.12)" fill="#e5f6ff"/>
      </g>
      <g id="freepik--Device--inject-74" transform="translate(76.967 87.957)">
        <path id="Path_18736" data-name="Path 18736" d="M219.318,301.179l-93.056,7.712c-2.68.221-5.345-2.008-5.941-4.986L80.738,109.2c-.6-2.97-1.825-8.56,8.987-9.079l94.117-7.277c2.672-.221,5.345,2.008,5.941,4.978l40.179,195.045C230.565,295.483,227.618,300.973,219.318,301.179Z" transform="translate(-79.98 -91.678)" fill="#263238"/>
        <path id="Path_18737" data-name="Path 18737" d="M125.86,309.256a6.468,6.468,0,0,1-5.948-5.307L80.329,109.24c-.367-1.779-.893-4.375.718-6.444,1.458-1.871,4.276-2.886,8.621-3.054l94.109-7.277c2.856-.237,5.7,2.138,6.345,5.284L230.3,292.755a5.946,5.946,0,0,1-1.428,4.65c-1.184,1.512-3.932,3.978-9.567,4.123l-93.048,7.7A3.372,3.372,0,0,1,125.86,309.256ZM184.173,93.167h-.336L89.72,100.444c-4.062.191-6.773,1.138-8.071,2.795-1.39,1.8-.924,4.085-.588,5.757l39.6,194.816c.565,2.787,3.054,4.872,5.536,4.681l93.056-7.72h0c5.345-.13,7.918-2.451,8.995-3.818a5.284,5.284,0,0,0,1.283-4.024l-40.156-195.1a5.7,5.7,0,0,0-5.2-4.7Z" transform="translate(-79.944 -91.646)" fill="#263238"/>
        <path id="Path_18738" data-name="Path 18738" d="M227.128,297.553l-93.056,7.7c-2.672.221-5.345-2.008-5.941-4.978L88.549,105.523c-.6-2.97,1.077-5.559,3.757-5.78l93.056-7.7c2.68-.229,5.345,2,5.941,4.978l39.583,194.747C231.488,294.743,229.808,297.331,227.128,297.553Z" transform="translate(-80.666 -91.609)" fill="#407bff"/>
        <path id="Path_18739" data-name="Path 18739" d="M133.677,305.585a6.476,6.476,0,0,1-5.956-5.3L88.138,105.531a5.582,5.582,0,0,1,.886-4.467,4.413,4.413,0,0,1,3.215-1.771l93.056-7.7c2.856-.244,5.7,2.13,6.345,5.284L231.215,291.65a5.566,5.566,0,0,1-.886,4.475,4.391,4.391,0,0,1-3.215,1.764l-93.04,7.7ZM185.691,92.329h-.336L92.3,100.041a3.65,3.65,0,0,0-2.665,1.466,4.826,4.826,0,0,0-.764,3.818l39.6,194.839c.565,2.779,3.054,4.879,5.536,4.673l93.056-7.7h0a3.673,3.673,0,0,0,2.665-1.466,4.811,4.811,0,0,0,.764-3.864L190.906,97.093a5.733,5.733,0,0,0-5.215-4.734Z" transform="translate(-80.63 -91.571)" fill="#263238"/>
        <path id="Path_18740" data-name="Path 18740" d="M152.666,108.753l-12.79,1.046a1.626,1.626,0,0,1-1.6-1.352h0a1.222,1.222,0,0,1,1.008-1.55l12.79-1.061a1.642,1.642,0,0,1,1.611,1.352h0a1.229,1.229,0,0,1-1.016,1.565Z" transform="translate(-84.905 -92.785)" fill="#263238"/>
        <path id="Path_18741" data-name="Path 18741" d="M222.5,280.493l-89.765,7.43-35.506-174.7,21.273-1.764,2.84,2.008a4.94,4.94,0,0,0,3.222.909l37.537-3.054a3.9,3.9,0,0,0,2.818-1.527l1.733-2.291L187,105.82Z" transform="translate(-81.416 -92.784)" fill="#fff"/>
        <path id="Path_18742" data-name="Path 18742" d="M132.7,288.266a.374.374,0,0,1-.374-.305l-35.513-174.7a.367.367,0,0,1,.069-.305.351.351,0,0,1,.267-.153l21.281-1.764a.374.374,0,0,1,.252.069l2.84,2.008a4.582,4.582,0,0,0,2.97.878l37.537-3.115a3.5,3.5,0,0,0,2.543-1.39l1.733-2.291a.4.4,0,0,1,.275-.145l20.334-1.687a.389.389,0,0,1,.4.305l35.506,174.7a.367.367,0,0,1-.069.305.382.382,0,0,1-.275.145ZM97.653,113.532l35.353,173.948,89.032-7.376-35.353-173.94L166.833,107.8l-1.626,2.153a4.268,4.268,0,0,1-3.092,1.687l-37.537,3.108a5.3,5.3,0,0,1-3.474-1.016l-2.726-1.924Z" transform="translate(-81.379 -92.745)" fill="#263238"/>
        <path id="Path_18743" data-name="Path 18743" d="M189.068,306.231a2.535,2.535,0,0,0-2.5-2.092,1.909,1.909,0,0,0-1.581,2.436,2.527,2.527,0,0,0,2.5,2.092,1.909,1.909,0,0,0,1.581-2.436Z" transform="translate(-88.878 -109.665)" fill="#263238"/>
        <path id="Path_18744" data-name="Path 18744" d="M128.668,157.842l-12.208.972a4.15,4.15,0,0,1-4.112-3.441l-2.76-13.608c-.418-2.051.748-3.888,2.6-3.995L124.4,136.75a4.17,4.17,0,0,1,4.112,3.451l2.76,13.549C131.662,155.9,130.524,157.687,128.668,157.842Z" transform="translate(-82.461 -94.468)" fill="#407bff"/>
        <path id="Path_18745" data-name="Path 18745" d="M152.1,155.894l-12.208.972a4.15,4.15,0,0,1-4.112-3.451l-2.76-13.549c-.418-2.061.748-3.888,2.6-4l12.208-.972a4.15,4.15,0,0,1,4.112,3.451l2.76,13.549C155.107,153.95,153.941,155.738,152.1,155.894Z" transform="translate(-78.602 -94.775)" fill="#407bff"/>
        <path id="Path_18746" data-name="Path 18746" d="M175.473,153.957l-12.208.972a4.16,4.16,0,0,1-4.112-3.451l-2.76-13.549c-.418-2.061.748-3.888,2.6-4l12.208-.972a4.15,4.15,0,0,1,4.112,3.441l2.76,13.559C178.534,152,177.417,153.8,175.473,153.957Z" transform="translate(-74.754 -95.093)" fill="#407bff"/>
        <path id="Path_18747" data-name="Path 18747" d="M134.109,184.6l-12.208.972a4.17,4.17,0,0,1-4.121-3.451l-2.751-13.549c-.418-2.061.748-3.888,2.6-4l12.218-.972a4.16,4.16,0,0,1,4.112,3.451l2.751,13.549C137.123,182.642,135.966,184.44,134.109,184.6Z" transform="translate(-81.565 -90.05)" fill="#407bff"/>
        <path id="Path_18748" data-name="Path 18748" d="M157.528,182.651l-12.208.972a4.16,4.16,0,0,1-4.121-3.451l-2.751-13.549c-.418-2.051.748-3.888,2.6-4l12.218-.972a4.16,4.16,0,0,1,4.112,3.451l2.751,13.549C160.542,180.707,159.385,182.5,157.528,182.651Z" transform="translate(-77.708 -90.37)" fill="#407bff"/>
        <path id="Path_18749" data-name="Path 18749" d="M139.583,211.353l-12.208.972a4.16,4.16,0,0,1-4.112-3.451l-2.751-13.549c-.418-2.061.739-3.888,2.6-4l12.208-.972a4.16,4.16,0,0,1,4.121,3.451l2.751,13.549C142.557,209.409,141.391,211.2,139.583,211.353Z" transform="translate(-80.662 -85.646)" fill="#407bff"/>
        <path id="Path_18750" data-name="Path 18750" d="M162.952,209.417l-12.208.972a4.16,4.16,0,0,1-4.112-3.451l-2.751-13.549c-.418-2.061.739-3.888,2.6-4l12.208-.972a4.16,4.16,0,0,1,4.121,3.451l2.751,13.549A3.123,3.123,0,0,1,162.952,209.417Z" transform="translate(-76.814 -85.965)" fill="#407bff"/>
        <path id="Path_18751" data-name="Path 18751" d="M186.38,207.447l-12.208.972a4.16,4.16,0,0,1-4.112-3.451l-2.751-13.549c-.418-2.051.739-3.888,2.6-4l12.208-.972a4.17,4.17,0,0,1,4.121,3.451l2.751,13.549C189.4,205.5,188.255,207.321,186.38,207.447Z" transform="translate(-72.958 -86.289)" fill="#407bff"/>
        <path id="Path_18752" data-name="Path 18752" d="M144.984,238.116l-12.208.972a4.15,4.15,0,0,1-4.112-3.441l-2.76-13.559c-.418-2.051.748-3.888,2.6-3.995l12.208-1.021a4.17,4.17,0,0,1,4.112,3.451l2.76,13.549C148.007,236.172,146.841,237.961,144.984,238.116Z" transform="translate(-79.775 -81.247)" fill="#407bff"/>
        <path id="Path_18753" data-name="Path 18753" d="M168.4,236.165l-12.208.972a4.15,4.15,0,0,1-4.112-3.451l-2.76-13.481c-.418-2.061.748-3.888,2.6-4l12.208-.972a4.15,4.15,0,0,1,4.112,3.451l2.76,13.549A3.094,3.094,0,0,1,168.4,236.165Z" transform="translate(-75.918 -81.551)" fill="#407bff"/>
        <path id="Path_18754" data-name="Path 18754" d="M191.817,234.233l-12.208.972a4.16,4.16,0,0,1-4.112-3.451l-2.722-13.511c-.418-2.061.748-3.888,2.6-4l12.208-.972a4.15,4.15,0,0,1,4.112,3.441l2.76,13.608A3.133,3.133,0,0,1,191.817,234.233Z" transform="translate(-72.057 -81.874)" fill="#407bff"/>
        <path id="Path_18755" data-name="Path 18755" d="M150.434,264.877l-12.208.972A4.17,4.17,0,0,1,134.1,262.4l-2.751-13.549c-.418-2.061.748-3.888,2.6-4l12.218-.972a4.16,4.16,0,0,1,4.112,3.451l2.751,13.549C153.438,262.923,152.281,264.721,150.434,264.877Z" transform="translate(-78.876 -76.836)" fill="#407bff"/>
        <path id="Path_18756" data-name="Path 18756" d="M173.845,262.939l-12.208.972a4.16,4.16,0,0,1-4.121-3.441l-2.751-13.608c-.418-2.051.748-3.888,2.6-4l12.208-.972a4.16,4.16,0,0,1,4.112,3.451l2.751,13.549C176.858,260.995,175.74,262.783,173.845,262.939Z" transform="translate(-75.024 -77.163)" fill="#407bff"/>
        <path id="Path_18757" data-name="Path 18757" d="M197.264,261l-12.208.972a4.16,4.16,0,0,1-4.121-3.451l-2.751-13.549c-.418-2.061.748-3.888,2.6-4L193,239.991a4.16,4.16,0,0,1,4.16,3.451l2.7,13.511C200.277,259.052,199.1,260.84,197.264,261Z" transform="translate(-71.168 -77.475)" fill="#407bff"/>
        <path id="Path_18758" data-name="Path 18758" d="M162.787,185.2c-2.856,0-5.612-2.428-6.254-5.6l-4.4-21.624a5.826,5.826,0,0,1,.924-4.681,4.528,4.528,0,0,1,3.314-1.825l19.486-1.619c3-.244,5.994,2.291,6.666,5.582l4.4,21.624a5.849,5.849,0,0,1-.916,4.681,4.581,4.581,0,0,1-3.322,1.825L163.2,185.182Zm13.485-35.17h-.4l-19.486,1.619a4.36,4.36,0,0,0-3.176,1.749,5.612,5.612,0,0,0-.886,4.528l4.39,21.624c.657,3.23,3.558,5.658,6.467,5.429l19.486-1.619a4.391,4.391,0,0,0,3.184-1.749,5.666,5.666,0,0,0,.886-4.528l-4.4-21.624C181.685,152.387,179.043,150.028,176.271,150.028Z" transform="translate(-69.486 -89.68)" fill="#263238"/>
        <path id="Path_18759" data-name="Path 18759" d="M164.009,182.94a5.935,5.935,0,0,1-5.444-4.864l-3.749-18.448a5.085,5.085,0,0,1,.8-4.077,3.993,3.993,0,0,1,2.909-1.6l16.623-1.374c2.611-.221,5.223,1.955,5.811,4.849l3.749,18.448a5.085,5.085,0,0,1-.809,4.077,3.994,3.994,0,0,1-2.909,1.6l-16.638,1.374A2.827,2.827,0,0,1,164.009,182.94Zm11.507-30a2.471,2.471,0,0,0-.336,0l-16.623,1.374a3.612,3.612,0,0,0-2.6,1.458,4.7,4.7,0,0,0-.764,3.772l3.749,18.448c.55,2.711,2.955,4.734,5.4,4.543l16.623-1.374a3.6,3.6,0,0,0,2.634-1.451,4.7,4.7,0,0,0,.764-3.772L180.6,157.49a5.575,5.575,0,0,0-5.085-4.551Z" transform="translate(-69.716 -89.912)" fill="#263238"/>
        <path id="Path_18760" data-name="Path 18760" d="M165.621,179.934a4.734,4.734,0,0,1-4.345-3.864l-2.894-14.263a4.062,4.062,0,0,1,.641-3.26,3.222,3.222,0,0,1,2.352-1.29l12.843-1.069a4.649,4.649,0,0,1,4.635,3.856l2.9,14.263a4.062,4.062,0,0,1-.649,3.26,3.207,3.207,0,0,1-2.344,1.29l-12.851,1.069Zm8.9-23.182h-.252l-12.843,1.061a2.665,2.665,0,0,0-1.939,1.069,3.482,3.482,0,0,0-.542,2.8l2.9,14.263a4.08,4.08,0,0,0,4.024,3.4l12.851-1.061a2.665,2.665,0,0,0,1.932-1.069,3.482,3.482,0,0,0,.542-2.8L178.3,160.15a4.146,4.146,0,0,0-3.78-3.4Z" transform="translate(-70.022 -90.22)" fill="#263238"/>
        <path id="Path_18761" data-name="Path 18761" d="M176.838,176.236l-9.59.764a3.268,3.268,0,0,1-3.238-2.711l-2.161-10.644a2.447,2.447,0,0,1,2.039-3.146l9.6-.764a3.268,3.268,0,0,1,3.23,2.711l2.161,10.644A2.464,2.464,0,0,1,176.838,176.236Z" transform="translate(-70.32 -90.523)" fill="#263238"/>
      </g>
      <g id="freepik--Character--inject-74" transform="translate(181.258 122.832)">
        <path id="Path_18762" data-name="Path 18762" d="M231.209,178.542s-35.063-8.147-37.033-8.537-10.079-2.81-11.98-2.734-8.7.993-10,1.688-.863,1.329-.176,1.237l7.147-.962,3.749,2.1s-2.291,2.291-2.436,3.818c-.321,3.818-.237,4.711.611,4.581s.962-4.459.962-4.459l.641-.435.6,3.215s.832,1.115,1.3-.145a6.767,6.767,0,0,0-.321-2.932l1.252-1.031s.313,2.665.916,2.993.939,0,.87-.5-.367-2.5-.367-2.5l2.214-1.344s35.636,15,39.346,15.539a21.266,21.266,0,0,0,7.559-.489Z" transform="translate(-171.016 -132.888)" fill="#fff"/>
        <path id="Path_18763" data-name="Path 18763" d="M230.781,188.589a16.737,16.737,0,0,1-2.367-.16c-3.627-.535-36.216-14.218-39.263-15.493l-1.833,1.115c.084.55.275,1.848.328,2.245a.909.909,0,0,1-.359.9,1.016,1.016,0,0,1-1.069,0c-.55-.3-.863-1.626-1.016-2.6l-.535.443a5.964,5.964,0,0,1,.237,2.924,1.15,1.15,0,0,1-.832.84c-.588.092-1.069-.527-1.122-.6a.512.512,0,0,1-.069-.16l-.489-2.6c-.069,2.085-.351,4.474-1.283,4.581a.916.916,0,0,1-.764-.221c-.512-.489-.512-1.619-.244-4.788.107-1.283,1.527-2.947,2.2-3.673l-3.207-1.794-7.025.939a.916.916,0,0,1-1.054-.527c-.084-.283-.076-.84,1.008-1.428,1.413-.764,8.4-1.649,10.163-1.726,1.4-.061,5.941,1.138,9.239,2.016,1.229.328,2.291.6,2.84.764,1.947.428,36.651,8.491,37.033,8.575a.374.374,0,0,1,.252.191l4.849,9.064a.382.382,0,0,1,0,.328.359.359,0,0,1-.252.214A22.365,22.365,0,0,1,230.781,188.589Zm-41.66-16.462a.328.328,0,0,1,.145,0c.359.145,35.636,14.981,39.255,15.516a20.739,20.739,0,0,0,6.933-.367l-4.528-8.476c-2.642-.611-34.994-8.117-36.857-8.529-.565-.122-1.588-.4-2.871-.764-3.054-.817-7.712-2.046-9.018-1.993-1.894.084-8.621.985-9.835,1.642-.5.267-.626.481-.634.527s.046,0,.13,0h.092l7.155-.954a.366.366,0,0,1,.237.046l3.749,2.1a.382.382,0,0,1,.191.283.39.39,0,0,1-.115.321c-.611.6-2.23,2.413-2.329,3.551-.115,1.443-.321,3.856,0,4.177a.29.29,0,0,0,.168,0c.275-.2.588-2.123.634-4.093a.4.4,0,0,1,.168-.305l.634-.435a.412.412,0,0,1,.367-.038.4.4,0,0,1,.229.283l.58,3.115c.122.137.267.252.351.237s.122-.076.229-.344a6.04,6.04,0,0,0-.328-2.688.389.389,0,0,1,.122-.4l1.252-1.038a.4.4,0,0,1,.382-.061.389.389,0,0,1,.237.313,6.072,6.072,0,0,0,.764,2.711.282.282,0,0,0,.267,0,.188.188,0,0,0,0-.168c-.069-.512-.367-2.482-.367-2.482a.367.367,0,0,1,.183-.382l2.214-1.352a.367.367,0,0,1,.214.053Z" transform="translate(-170.985 -132.849)" fill="#263238"/>
        <path id="Path_18764" data-name="Path 18764" d="M348.692,201.757s-2.382,3.818-1.764,4.093,3.1-2.726,3.1-2.726l-1.222,3.818s-.084.764,1.329-.176,1.077-3.421,1.077-3.421l.153,4.024s-.954,1.481.367,1.306,1.489-3.283,1.367-4.23a7.414,7.414,0,0,0-1.565-3.054C350.815,200.513,348.921,200.765,348.692,201.757Z" transform="translate(-185.952 -135.747)" fill="#fff"/>
        <path id="Path_18765" data-name="Path 18765" d="M351.483,209.029a.84.84,0,0,1-.764-.351,1.458,1.458,0,0,1,.214-1.443v-.764a2.328,2.328,0,0,1-.6.588c-.764.527-1.275.664-1.626.451a.649.649,0,0,1-.3-.626l.687-2.153c-1.68,1.764-2.169,1.527-2.352,1.443a.55.55,0,0,1-.29-.359c-.221-.764,1.206-3.184,1.871-4.23a1.7,1.7,0,0,1,1.352-1.077,2.191,2.191,0,0,1,2.138.611,7.735,7.735,0,0,1,1.642,3.253,8.629,8.629,0,0,1-.137,2.535c-.344,1.626-1.031,2.054-1.527,2.123A1.442,1.442,0,0,1,351.483,209.029Zm-.115-.764a1.009,1.009,0,0,0,.26,0c.382-.053.71-.611.9-1.527a8.041,8.041,0,0,0,.13-2.291,7.208,7.208,0,0,0-1.481-2.879,1.428,1.428,0,0,0-1.382-.344.993.993,0,0,0-.764.58.267.267,0,0,1-.046.107,17.68,17.68,0,0,0-1.787,3.474,15.738,15.738,0,0,0,2.5-2.558.389.389,0,0,1,.481-.092.382.382,0,0,1,.183.451l-1.145,3.589a3.488,3.488,0,0,0,.664-.374,2.84,2.84,0,0,0,.947-2.291v-.8a.384.384,0,0,1,.764-.061,6.109,6.109,0,0,1,.038.863l.115,3.192a.352.352,0,0,1-.061.229,1.436,1.436,0,0,0-.267.718Zm-4.238-2.665Zm1.481-3.879Z" transform="translate(-185.918 -135.712)" fill="#263238"/>
        <path id="Path_18766" data-name="Path 18766" d="M319.534,167.138a29.076,29.076,0,0,1,6.62,2.039c2.283,1.237,19.769,19.7,20.234,21.754a18.83,18.83,0,0,0,2.734,5.986c.932,1.229,3.925,4.872,4.123,6.383s-.4,2.749-1.122,1.7a23.342,23.342,0,0,0-3.688-4.52c-1.29-.985-5.246-1.8-5.246-1.8a19.6,19.6,0,0,1-.275,3.7c-.344,1.779-1.68,3.306-1.8,2.359a24.814,24.814,0,0,1-.283-4.963c.153-1.756.13-4.833.13-4.833l.512-3.344s-11.568-7.315-15.92-9.621-8.353-4.856-8.353-4.856l-2.726-.214s.13-4.826,1.794-6.78a16.164,16.164,0,0,1,3.268-2.978Z" transform="translate(-183.198 -132.877)" fill="#fff"/>
        <path id="Path_18767" data-name="Path 18767" d="M352.614,205.739a1.031,1.031,0,0,1-.84-.565,23.123,23.123,0,0,0-3.6-4.429,16.4,16.4,0,0,0-4.627-1.626,19.361,19.361,0,0,1-.29,3.291c-.26,1.359-1.161,2.986-1.97,2.955a.626.626,0,0,1-.588-.618,25.81,25.81,0,0,1-.282-5.055c.153-1.71.13-4.765.13-4.8l.481-3.154c-1.6-1.008-11.721-7.368-15.691-9.476s-7.682-4.444-8.292-4.818l-2.634-.206a.382.382,0,0,1-.351-.389c0-.2.153-4.986,1.878-7.025a16.64,16.64,0,0,1,3.36-3.054.374.374,0,0,1,.275-.053A27.417,27.417,0,0,1,326.3,168.8c2.314,1.252,19.906,19.708,20.425,22.006a18.737,18.737,0,0,0,2.657,5.841l.45.573c1.726,2.214,3.581,4.681,3.757,5.994.13,1-.038,2.207-.725,2.466a.618.618,0,0,1-.252.061Zm-9.461-7.483h.076c.168.038,4.062.848,5.406,1.878a23.285,23.285,0,0,1,3.764,4.581c.137.206.221.237.221.237a2.428,2.428,0,0,0,.206-1.657c-.16-1.222-2.482-4.192-3.6-5.62l-.451-.58a19.2,19.2,0,0,1-2.795-6.109c-.389-1.7-17.631-20.189-20.051-21.5a27.55,27.55,0,0,0-6.361-1.97,16.708,16.708,0,0,0-3.054,2.818c-1.306,1.527-1.619,5.047-1.687,6.185l2.359.191a.366.366,0,0,1,.176.053c.038,0,4.039,2.566,8.323,4.841s15.836,9.56,15.951,9.636a.374.374,0,0,1,.176.382l-.519,3.337c0,.069,0,3.054-.122,4.81a24.134,24.134,0,0,0,.26,4.726,4.581,4.581,0,0,0,1.069-2.222,18.929,18.929,0,0,0,.267-3.612.4.4,0,0,1,.137-.305.359.359,0,0,1,.244-.1Z" transform="translate(-183.163 -132.841)" fill="#263238"/>
        <g id="Group_7243" data-name="Group 7243" transform="translate(131.274 34.261)" clip-path="url(#clip-path-2)">
          <path id="Path_18768" data-name="Path 18768" d="M346.389,190.931c-.466-2.054-17.951-20.517-20.234-21.754a29.076,29.076,0,0,0-6.62-2.039,16.164,16.164,0,0,0-3.268,2.978c-1.665,1.955-1.794,6.78-1.794,6.78l2.726.214s.519.336,1.374.855l2.008-5.78s19.448,14.584,21.38,16.287,4.032,4.673,5.589,6.559a10.69,10.69,0,0,0,.985,1.031,19.526,19.526,0,0,1-2.146-5.131Z" transform="translate(-314.472 -167.138)" fill="#407bff"/>
          <path id="Path_18769" data-name="Path 18769" d="M346.389,190.931c-.466-2.054-17.951-20.517-20.234-21.754a29.076,29.076,0,0,0-6.62-2.039,16.164,16.164,0,0,0-3.268,2.978c-1.665,1.955-1.794,6.78-1.794,6.78l2.726.214s.519.336,1.374.855l2.008-5.78s19.448,14.584,21.38,16.287,4.032,4.673,5.589,6.559a10.69,10.69,0,0,0,.985,1.031,19.526,19.526,0,0,1-2.146-5.131Z" transform="translate(-314.472 -167.138)" fill="#fff" opacity="0.5"/>
        </g>
        <path id="Path_18772" data-name="Path 18772" d="M289.721,220.2l.764,9.72s-3.612,32.07,3.6,41.317,30.474,33.482,30.474,33.482l3.658-4.345s-12.981-25.2-15.4-28.756-6.36-12.981-6.36-12.981,8.048-33.437,8.613-36.4.267-11.011.16-11.767-9.125,3.719-14.462,5.589S289.721,220.2,289.721,220.2Z" transform="translate(-181.079 -136.558)" fill="#263238"/>
        <path id="Path_18773" data-name="Path 18773" d="M324.478,305.062a.366.366,0,0,1-.275-.122c-.237-.237-23.365-24.358-30.5-33.505s-3.818-40.278-3.673-41.591l-.764-9.659a.4.4,0,0,1,.237-.382c.061,0,5.734-2.291,11.018-4.169,2.245-.764,5.192-2.054,7.781-3.176,5.116-2.2,6.467-2.726,6.964-2.451a.565.565,0,0,1,.229.344c.1.764.42,8.834-.16,11.889-.55,2.886-7.979,33.75-8.6,36.292.458,1.092,4.07,9.583,6.277,12.836,2.39,3.512,14.9,27.763,15.424,28.794a.382.382,0,0,1-.046.42l-3.657,4.345a.39.39,0,0,1-.283.137Zm-34.36-84.656.7,9.453c-.038.389-3.512,32.07,3.512,41.1,6.674,8.56,27.435,30.306,30.153,33.146l3.222-3.818c-1.306-2.527-13.019-25.2-15.271-28.5-2.4-3.52-6.238-12.69-6.4-13.08a.42.42,0,0,1,0-.237c.084-.336,8.056-33.459,8.613-36.376.519-2.711.3-9.8.183-11.385a56.858,56.858,0,0,0-6.154,2.443c-2.6,1.122-5.559,2.4-7.834,3.192-4.658,1.619-9.59,3.589-10.759,4.055Z" transform="translate(-181.041 -136.52)" fill="#263238"/>
        <path id="Path_18774" data-name="Path 18774" d="M302.726,222.337s-2.512,2.84-1.84,3.52l.664.68s-14.1,18.448-15.951,23.319-5.49,16.524-5.414,17.1,2.459,2.558,4,2.543,49.158,3.253,49.158,3.253l1.092-4.765L299.848,257s20.792-30.321,21.762-33.146-.267-12.095-.443-13.423-1.97-3.2-3.482-3-14.508,9.453-14.508,9.453" transform="translate(-180.28 -136.306)" fill="#263238"/>
        <path id="Path_18775" data-name="Path 18775" d="M333.314,273.1h0c-.473,0-47.44-3.253-49.12-3.253h0c-1.634,0-4.253-2.016-4.368-2.879s3.818-12.9,5.444-17.279c1.749-4.581,14-20.784,15.8-23.151l-.435-.443c-.764-.809.8-2.879,1.825-4.039a.382.382,0,0,1,.542,0,.367.367,0,0,1,0,.535c-1.1,1.245-2,2.711-1.848,3.008l.664.672a.389.389,0,0,1,0,.5c-.137.183-14.088,18.455-15.9,23.22-1.878,4.948-5.345,16.149-5.391,16.936.122.4,2.291,2.184,3.6,2.184h0c1.657,0,44.325,2.924,48.868,3.23l.939-4.108-34.254-10.866a.389.389,0,0,1-.244-.244.351.351,0,0,1,.046-.336c7.178-10.476,20.96-30.856,21.716-33.055.87-2.55-.137-10.782-.466-13.248a3.452,3.452,0,0,0-1.122-1.84,2.535,2.535,0,0,0-1.932-.832c-1.031.137-9.354,5.826-14.355,9.384a.382.382,0,0,1-.535-.092.374.374,0,0,1,.092-.527c1.336-.954,13.133-9.316,14.7-9.522a3.291,3.291,0,0,1,2.55,1.023,4.23,4.23,0,0,1,1.359,2.291c.428,3.207,1.336,10.957.428,13.591S303.024,252.978,300.4,256.8l34.1,10.82a.382.382,0,0,1,.26.451l-1.1,4.765A.374.374,0,0,1,333.314,273.1Z" transform="translate(-180.249 -136.275)" fill="#263238"/>
        <path id="Path_18776" data-name="Path 18776" d="M289.849,244.328a.351.351,0,0,1-.206-.069.382.382,0,0,1-.107-.527l12.148-18.081c.229-.557,2.6-5.834,9.858-7.277a.382.382,0,0,1,.443.305.366.366,0,0,1-.3.443c-7.1,1.413-9.285,6.8-9.308,6.872l-.038.076L290.17,244.183a.389.389,0,0,1-.321.145Z" transform="translate(-181.07 -137.238)" fill="#fff"/>
        <path id="Path_18777" data-name="Path 18777" d="M304.7,220.633a.379.379,0,0,1-.229-.687c.4-.29,9.7-7.048,15.18-5.849a.382.382,0,0,1,.29.458.374.374,0,0,1-.451.29c-5.131-1.122-14.508,5.65-14.569,5.711A.351.351,0,0,1,304.7,220.633Z" transform="translate(-182.334 -136.862)" fill="#fff"/>
        <path id="Path_18778" data-name="Path 18778" d="M292.778,266.87a.4.4,0,0,1-.252-.092.389.389,0,0,1-.038-.542l15.584-18.2a.382.382,0,0,1,.58.5l-15.584,18.2A.374.374,0,0,1,292.778,266.87Z" transform="translate(-181.319 -139.751)" fill="#fff"/>
        <path id="Path_18779" data-name="Path 18779" d="M304.274,262.893h-.092l-5.078-1.214a.382.382,0,0,1-.283-.458.374.374,0,0,1,.458-.283l5.078,1.214a.384.384,0,1,1-.084.764Z" transform="translate(-181.865 -140.86)" fill="#fff"/>
        <path id="Path_18780" data-name="Path 18780" d="M259.529,172.123c-10.308,3.283-9.8,3.215-9.8,3.215l-14.966,2.176,6.651,13.156,17.394,2.008s17.058,16.1,20.257,16.714,5.093,4.345,5.093,4.345-1.26,2.245.428,3.238,4.146,1.176,9.338-.206,12.591-5.673,16.035-8.4,8.4-5.971,6.826-7.323a16.386,16.386,0,0,0-4.642-2.329l-15.913-16.592,13.133,1.016s-.145-7.636.046-10.056,3.337-6.17,3.337-6.17-16.8-1.222-21.586-1.97-9.43-.473-11.377.481-10.82,3.352-11.331,3.421S259.529,172.123,259.529,172.123Z" transform="translate(-176.414 -132.654)" fill="#407bff"/>
        <path id="Path_18781" data-name="Path 18781" d="M287.895,218.1a6.872,6.872,0,0,1-3.551-.84c-1.527-.87-1.13-2.611-.672-3.558-.4-.718-2.13-3.482-4.726-3.978-3.184-.611-18.86-15.309-20.364-16.722l-17.509-2.016-6.941-13.813,15.493-2.245h0c.764-.367,3.054-1.092,9.713-3.222,1.436-.55,8.476-3.222,9-3.291a108.139,108.139,0,0,0,11.217-3.39c2.123-1.038,6.872-1.252,11.6-.512s21.38,1.955,21.555,1.962l.764.053-.481.573s-3.054,3.65-3.253,5.956-.038,9.926-.038,10.018v.42l-12.561-.97L312.3,198.329a16.089,16.089,0,0,1,4.688,2.367,1.168,1.168,0,0,1,.428.954c-.046,1.466-2.7,3.482-5.513,5.62-.6.451-1.2.9-1.756,1.344-3.329,2.619-10.8,7.017-16.18,8.453A24.435,24.435,0,0,1,287.895,218.1Zm-46.326-27.824,17.356,2,.092.084c4.719,4.459,17.562,16.127,20.074,16.608,3.344.641,5.276,4.391,5.345,4.581l.092.183-.1.176c-.038.084-1.054,1.939.29,2.726s3.329,1.275,9.048-.252c5.269-1.4,12.622-5.734,15.9-8.315.565-.443,1.161-.893,1.764-1.352,2.291-1.756,5.185-3.932,5.215-5.032a.4.4,0,0,0-.168-.351,16.081,16.081,0,0,0-4.513-2.291h-.092l-.069-.069-16.6-17.318,13.744,1.061c0-1.642-.115-7.536.053-9.674.153-1.985,2.062-4.65,2.963-5.811-3.276-.244-16.722-1.268-20.891-1.917-4.5-.71-9.163-.519-11.148.443a106.5,106.5,0,0,1-11.453,3.459c-.428.076-5.643,2.031-8.834,3.253h0c-8.75,2.795-9.644,3.146-9.735,3.192l-.16-.344h0l.053.382-14.439,2.092Z" transform="translate(-176.36 -132.616)" fill="#263238"/>
        <g id="Group_7244" data-name="Group 7244" transform="translate(58.353 31.862)" clip-path="url(#clip-path-3)">
          <path id="Path_18782" data-name="Path 18782" d="M294.205,164.945c-4.78-.764-9.43-.473-11.377.481s-10.82,3.352-11.331,3.421a7.523,7.523,0,0,0-.993.321l1.726,4.925,4.734-1.4s9.728-2.153,14.072-2.153S312.187,172,312.187,172l.527-.122a20.021,20.021,0,0,1,3.054-4.925S298.985,165.693,294.205,164.945Z" transform="translate(-237.808 -164.516)" fill="#407bff"/>
          <path id="Path_18783" data-name="Path 18783" d="M294.205,164.945c-4.78-.764-9.43-.473-11.377.481s-10.82,3.352-11.331,3.421a7.523,7.523,0,0,0-.993.321l1.726,4.925,4.734-1.4s9.728-2.153,14.072-2.153S312.187,172,312.187,172l.527-.122a20.021,20.021,0,0,1,3.054-4.925S298.985,165.693,294.205,164.945Z" transform="translate(-237.808 -164.516)" fill="#fff" opacity="0.5"/>
          <path id="Path_18784" data-name="Path 18784" d="M320.431,202.679a16.386,16.386,0,0,0-4.642-2.329L300.8,184.659l-3.971-1.321-14,2.291,24.556,9.361c-.443.092-1.413.313-3.428.817-5.093,1.275-20.868,0-20.868,0s11.957,4.833,18.066,7.124,8.4,1.787,4.841,3.566-7.9,2.8-19.853,1.779c-3.123-.26-6.009-.5-8.582-.687,2.352,1.871,4.3,3.222,5.185,3.4,3.207.611,5.093,4.345,5.093,4.345s-1.26,2.245.428,3.238,4.146,1.176,9.338-.206,12.591-5.673,16.035-8.4S322,204,320.431,202.679Z" transform="translate(-238.409 -166.118)" fill="#407bff"/>
          <path id="Path_18785" data-name="Path 18785" d="M320.431,202.679a16.386,16.386,0,0,0-4.642-2.329L300.8,184.659l-3.971-1.321-14,2.291,24.556,9.361c-.443.092-1.413.313-3.428.817-5.093,1.275-20.868,0-20.868,0s11.957,4.833,18.066,7.124,8.4,1.787,4.841,3.566-7.9,2.8-19.853,1.779c-3.123-.26-6.009-.5-8.582-.687,2.352,1.871,4.3,3.222,5.185,3.4,3.207.611,5.093,4.345,5.093,4.345s-1.26,2.245.428,3.238,4.146,1.176,9.338-.206,12.591-5.673,16.035-8.4S322,204,320.431,202.679Z" transform="translate(-238.409 -166.118)" fill="#fff" opacity="0.5"/>
        </g>
        <path id="Path_18788" data-name="Path 18788" d="M273.367,186.042l6.361,8.911,1.665-1.512-4.642-5.7" transform="translate(-179.699 -134.486)" fill="#fff"/>
        <path id="Path_18789" data-name="Path 18789" d="M279.692,195.3h-.038a.359.359,0,0,1-.275-.16l-6.361-8.911a.382.382,0,0,1,.092-.534.4.4,0,0,1,.534.092l6.109,8.56,1.077-.977-4.406-5.414a.382.382,0,1,1,.588-.489l4.635,5.7a.374.374,0,0,1-.038.519l-1.657,1.527A.382.382,0,0,1,279.692,195.3Z" transform="translate(-179.664 -134.451)" fill="#263238"/>
        <path id="Path_18790" data-name="Path 18790" d="M259.707,194.835a.366.366,0,0,1-.2-.053l-14-8.529a.382.382,0,1,1,.4-.649l10.919,6.628-6.483-6.109a.384.384,0,1,1,.527-.557l9.163,8.605a.374.374,0,0,1,.038.512A.359.359,0,0,1,259.707,194.835Z" transform="translate(-177.31 -134.437)" fill="#263238"/>
        <path id="Path_18791" data-name="Path 18791" d="M300.861,183.919h-.069l-11.347-2.046a.388.388,0,0,1,.137-.764l11.347,2.046a.382.382,0,0,1,.305.443.389.389,0,0,1-.374.321Z" transform="translate(-181.041 -134.066)" fill="#263238"/>
        <path id="Path_18792" data-name="Path 18792" d="M288.154,184.521a.382.382,0,1,1,0-.764l11.453-.519a.374.374,0,0,1,.4.359.382.382,0,0,1-.367.4l-11.415.527Z" transform="translate(-180.926 -134.247)" fill="#263238"/>
        <path id="Path_18793" data-name="Path 18793" d="M312.978,201.708c.565-.046,1.13-.1,1.687-.176" transform="translate(-183.071 -135.805)" fill="#fff"/>
        <path id="Path_18794" data-name="Path 18794" d="M312.942,202.053a.382.382,0,0,1,0-.764c.557-.046,1.115-.107,1.665-.183a.389.389,0,0,1,.435.328.382.382,0,0,1-.328.428c-.565.076-1.138.137-1.71.183Z" transform="translate(-183.036 -135.768)" fill="#263238"/>
        <path id="Path_18795" data-name="Path 18795" d="M307.7,201.975a72.593,72.593,0,0,1-17.837-2.573.382.382,0,0,1-.26-.473.389.389,0,0,1,.473-.26c.1,0,10.026,2.924,19.341,2.543a.374.374,0,0,1,.4.367.382.382,0,0,1-.367.4C308.872,201.967,308.284,201.975,307.7,201.975Z" transform="translate(-181.08 -135.56)" fill="#263238"/>
        <path id="Path_18796" data-name="Path 18796" d="M262.692,174.213a82.76,82.76,0,0,1,2.184,8.544c.336,2.558-.9,4.978.611,4.581s1.451-4.7,1.451-4.7l5.528,1.168,2.451-5.009s4.536,4.07,4.429,2.008-4.757-10.927-5.009-13.011-2.772-2.573-4.482-1.13S262.692,174.213,262.692,174.213Z" transform="translate(-178.791 -132.767)" fill="#fff"/>
        <path id="Path_18797" data-name="Path 18797" d="M265.172,187.741a.763.763,0,0,1-.557-.191c-.42-.367-.344-1.077-.229-2.062a11.24,11.24,0,0,0,.069-2.711,83.9,83.9,0,0,0-2.169-8.491l-.061-.206.137-.16c.229-.244,5.467-6.109,7.185-7.575a3.543,3.543,0,0,1,3.482-.71,2.535,2.535,0,0,1,1.626,2.085,41.227,41.227,0,0,0,2.291,5.879c1.367,3.092,2.657,6,2.711,7.17a.848.848,0,0,1-.435.909c-.916.428-3.054-1.245-4.245-2.291l-2.367,4.826-5.345-1.138c0,1.3-.26,4.238-1.741,4.581a1.6,1.6,0,0,1-.351.084Zm-.053-.764a.458.458,0,0,0,.237,0c.84-.206,1.184-2.657,1.161-4.329v-.473l5.711,1.206,2.543-5.2.374.344c1.634,1.466,3.39,2.619,3.818,2.489v-.183c-.053-1.023-1.435-4.146-2.65-6.872-1.161-2.611-2.291-5.078-2.382-6.109a1.756,1.756,0,0,0-1.145-1.466,2.764,2.764,0,0,0-2.718.573c-1.527,1.283-6.108,6.376-6.956,7.346a76.586,76.586,0,0,1,2.13,8.4,11.538,11.538,0,0,1-.069,2.894,3.757,3.757,0,0,0,0,1.4Z" transform="translate(-178.751 -132.734)" fill="#263238"/>
        <g id="Group_7245" data-name="Group 7245" transform="translate(83.902 33.075)" clip-path="url(#clip-path-4)">
          <path id="Path_18798" data-name="Path 18798" d="M274.939,167.8c-.275-2.039-2.772-2.573-4.482-1.13a9.031,9.031,0,0,0-.687.634l2.421,6.872,4.673-1.39a29.88,29.88,0,0,1-1.924-4.986Z" transform="translate(-263.295 -165.843)" fill="#407bff"/>
          <path id="Path_18799" data-name="Path 18799" d="M274.939,167.8c-.275-2.039-2.772-2.573-4.482-1.13a9.031,9.031,0,0,0-.687.634l2.421,6.872,4.673-1.39a29.88,29.88,0,0,1-1.924-4.986Z" transform="translate(-263.295 -165.843)" fill="#fff" opacity="0.5"/>
        </g>
        <path id="Path_18802" data-name="Path 18802" d="M254.981,171.482a48.109,48.109,0,0,0,5.345,2.237c1.985.6,11.843,12.11,11.5,9.56s-.977-12.53-1.634-14.867a63.432,63.432,0,0,0-2.619-6.582s1.6-1.084-.977-2.123-4.581.954-4.413,1.978.435,3.23-.229,3.5S254.981,171.482,254.981,171.482Z" transform="translate(-178.134 -132.22)" fill="#fff"/>
        <path id="Path_18803" data-name="Path 18803" d="M271.584,183.991c-.764,0-2.161-1.283-5.948-5.032-2.207-2.191-4.711-4.673-5.5-4.91a47.369,47.369,0,0,1-5.345-2.291l-.489-.237.4-.382c1.489-1.428,6.4-6.109,7.078-6.383.107-.076.328-.534,0-3.054a2.291,2.291,0,0,1,1.054-1.924,3.818,3.818,0,0,1,3.879-.466c1.077.443,1.634.954,1.7,1.565a1.283,1.283,0,0,1-.4,1.016,57.076,57.076,0,0,1,2.52,6.383,95.617,95.617,0,0,1,1.214,10.385c.176,1.97.321,3.673.435,4.528a.707.707,0,0,1-.3.764A.557.557,0,0,1,271.584,183.991Zm-16-12.652a43.186,43.186,0,0,0,4.772,1.978c.9.275,2.795,2.107,5.811,5.093a44.337,44.337,0,0,0,5.192,4.734c-.115-.9-.26-2.543-.428-4.413a96.566,96.566,0,0,0-1.184-10.247,62.419,62.419,0,0,0-2.6-6.528l-.137-.3.267-.183c.092-.061.344-.29.321-.519s-.168-.5-1.222-.932a3.054,3.054,0,0,0-3.131.359,1.657,1.657,0,0,0-.764,1.214c.29,2.184.313,3.6-.466,3.9-.428.206-3.558,3.092-6.437,5.841Z" transform="translate(-178.077 -132.183)" fill="#263238"/>
        <g id="Group_7246" data-name="Group 7246" transform="translate(76.847 27.197)" clip-path="url(#clip-path-5)">
          <path id="Path_18804" data-name="Path 18804" d="M270.311,168.413a63.425,63.425,0,0,0-2.619-6.582s1.6-1.084-.977-2.123-4.581.954-4.413,1.978.435,3.23-.229,3.5a65.483,65.483,0,0,0-5.269,4.7l-.229,1.4,14.47,2.375a41.435,41.435,0,0,0-.733-5.246Z" transform="translate(-255.117 -159.417)" fill="#407bff"/>
          <path id="Path_18805" data-name="Path 18805" d="M270.311,168.413a63.425,63.425,0,0,0-2.619-6.582s1.6-1.084-.977-2.123-4.581.954-4.413,1.978.435,3.23-.229,3.5a65.483,65.483,0,0,0-5.269,4.7l-.229,1.4,14.47,2.375a41.435,41.435,0,0,0-.733-5.246Z" transform="translate(-255.117 -159.417)" fill="#fff" opacity="0.5"/>
        </g>
        <path id="Path_18808" data-name="Path 18808" d="M248.09,148.536a16.539,16.539,0,0,1-5.467-2.046c-2.107-1.451-1.3-4.505.947-5.849s4.94-3.26,7.88-3.306,3.887,3.123,5.971,3.192,7.636-2.413,10.766.122,2.741,11.453,1.6,13.3-3.36,6-3.36,6-1.794-.458-3.222-.764-.5-1.145-2.008-.764-3.054.764-4.375-.283-1.68-2.2-2.5-3.131-2.291-2.986-2.054-3.711a15.064,15.064,0,0,0,.336-2.65Z" transform="translate(-176.978 -130.34)" fill="#263238"/>
        <path id="Path_18809" data-name="Path 18809" d="M266.558,160.359l-.29-.076s-1.787-.451-3.215-.764a1.634,1.634,0,0,1-1.176-.764l-.069-.1a1.382,1.382,0,0,0-.588.084c-1.573.389-3.2.764-4.7-.351a7.254,7.254,0,0,1-1.817-2.138,8.032,8.032,0,0,0-.764-1.046s-2.535-2.909-2.13-4.085a11.093,11.093,0,0,0,.3-2.153l-4.177-.084a16.485,16.485,0,0,1-5.627-2.107,3.108,3.108,0,0,1-1.382-2.749,4.719,4.719,0,0,1,2.359-3.741l.9-.55c2.115-1.3,4.505-2.764,7.162-2.81a5.331,5.331,0,0,1,3.818,1.886c.764.687,1.367,1.275,2.169,1.306a12.493,12.493,0,0,0,2.421-.382c2.619-.565,6.208-1.336,8.575.588,3.222,2.619,2.947,11.713,1.687,13.8-1.115,1.855-3.329,5.941-3.352,5.986Zm-4.826-2.474a.848.848,0,0,1,.764.443c.107.168.206.321.7.435,1.084.244,2.382.565,2.947.71.512-.939,2.291-4.154,3.23-5.75,1.107-1.84,1.306-10.514-1.527-12.82-2.085-1.687-5.467-.962-7.933-.428a13.118,13.118,0,0,1-2.6.4,4.011,4.011,0,0,1-2.665-1.527,4.678,4.678,0,0,0-3.238-1.687h-.053c-2.451,0-4.749,1.451-6.78,2.7l-.909.557a3.94,3.94,0,0,0-1.985,3.115,2.344,2.344,0,0,0,1.054,2.092,16.035,16.035,0,0,0,5.291,1.978l4.887.092v.4a14.114,14.114,0,0,1-.359,2.749c-.137.389.848,2.046,1.985,3.337a10.108,10.108,0,0,1,.809,1.145,6.659,6.659,0,0,0,1.634,1.939c1.206.916,2.581.573,4.047.214A3.055,3.055,0,0,1,261.733,157.885Z" transform="translate(-176.938 -130.305)" fill="#263238"/>
        <path id="Path_18810" data-name="Path 18810" d="M269.353,152.052a.374.374,0,0,1-.26-.107c-3.054-2.947-10.69-3.665-10.774-3.673a.389.389,0,0,1-.351-.42.4.4,0,0,1,.42-.344c.321,0,7.964.764,11.232,3.887a.374.374,0,0,1,0,.534A.366.366,0,0,1,269.353,152.052Z" transform="translate(-178.389 -131.206)" fill="#fff"/>
        <path id="Path_18811" data-name="Path 18811" d="M270.042,155.375a.351.351,0,0,1-.252-.1,11.843,11.843,0,0,0-1.527-1.13.389.389,0,0,1,.4-.657,12.707,12.707,0,0,1,1.657,1.214.382.382,0,0,1-.252.672Z" transform="translate(-179.253 -131.713)" fill="#fff"/>
        <path id="Path_18812" data-name="Path 18812" d="M265.166,152.748a.481.481,0,0,1-.145,0,25.435,25.435,0,0,0-6.727-1.588.382.382,0,0,1-.359-.4.374.374,0,0,1,.412-.351,25.579,25.579,0,0,1,6.956,1.634.388.388,0,0,1-.137.764Z" transform="translate(-178.386 -131.453)" fill="#fff"/>
        <path id="Path_18813" data-name="Path 18813" d="M269.174,149.3a.366.366,0,0,1-.305-.16,7.315,7.315,0,0,0-2.054-1.718.382.382,0,1,1,.389-.657,7.56,7.56,0,0,1,2.291,1.94.374.374,0,0,1-.092.527A.366.366,0,0,1,269.174,149.3Z" transform="translate(-179.126 -131.138)" fill="#fff"/>
        <path id="Path_18814" data-name="Path 18814" d="M247.809,147.228a2.879,2.879,0,0,1-1.581-.458,1.833,1.833,0,0,1-.954-1.481c-.084-1.527,1.886-3.154,2.115-3.329a.382.382,0,0,1,.535.061.4.4,0,0,1-.061.542c-.527.412-1.878,1.7-1.825,2.688a1.084,1.084,0,0,0,.6.87c.985.618,1.955.305,3.558-.229a22.74,22.74,0,0,1,7.575-1.344,15.538,15.538,0,0,1,6.254,1.145.382.382,0,0,1,.2.5.389.389,0,0,1-.5.206,14.6,14.6,0,0,0-5.94-1.084,21.93,21.93,0,0,0-7.345,1.306,8.7,8.7,0,0,1-2.627.611Z" transform="translate(-177.308 -130.727)" fill="#fff"/>
        <path id="Path_18815" data-name="Path 18815" d="M246.954,148.365s-1.527,5.437-1.245,6.238a17.9,17.9,0,0,1,.7,2.68l-2.123,3.573s.359,1.344,1.061,1.42a10.269,10.269,0,0,1,2.4,1.069s2.046,7.529,2.772,7.773,2.4,1.069,3.054.634,8.4-5.971,9.316-6.788.557-4.933.557-4.933,2.382-2.917,1.428-4.872-3.123-1.313-3.818.16a19.674,19.674,0,0,0-.924,2.207s-1.657.565-1.962-.435l-.305-.993s-2.9-2.214-2.97-2.726.954-5.849.954-5.849Z" transform="translate(-177.224 -131.208)" fill="#fff"/>
        <path id="Path_18816" data-name="Path 18816" d="M253.017,172.225a6.8,6.8,0,0,1-2.176-.6l-.481-.191c-.6-.206-1.611-2.856-2.978-7.88a8.719,8.719,0,0,0-2.115-.939c-.939-.107-1.336-1.527-1.382-1.7l-.038-.153,2.13-3.6a17.384,17.384,0,0,0-.664-2.466c-.328-.855.863-5.177,1.237-6.475l.076-.252,9.667-.916-.1.5c-.412,2.153-.977,5.345-.947,5.734a19.217,19.217,0,0,0,2.818,2.466l.1.076.344,1.115a.374.374,0,0,0,.191.237,1.848,1.848,0,0,0,1.115,0c.115-.305.382-.985.863-2.046a2.711,2.711,0,0,1,2.359-1.611,2.359,2.359,0,0,1,2.123,1.436c.947,1.932-.916,4.581-1.374,5.162.076.97.267,4.245-.7,5.093s-8.712,6.383-9.354,6.826A1.267,1.267,0,0,1,253.017,172.225Zm-8.346-11.354c.137.435.428.962.68.985a10.286,10.286,0,0,1,2.55,1.122l.13.076.046.153c.924,3.413,2.146,7.17,2.581,7.536a3.618,3.618,0,0,1,.458.176c.6.229,1.833.718,2.184.481.634-.428,8.4-5.971,9.277-6.765.542-.473.58-2.978.428-4.581V159.9l.1-.122s2.222-2.756,1.382-4.467a1.527,1.527,0,0,0-1.428-1.008,1.962,1.962,0,0,0-1.672,1.161c-.649,1.436-.9,2.161-.909,2.169l-.053.176-.183.061a2.772,2.772,0,0,1-1.871,0,1.145,1.145,0,0,1-.58-.695l-.267-.878c-1.947-1.527-2.955-2.474-3.016-2.909a54.226,54.226,0,0,1,.863-5.467l-8.14.764c-.695,2.466-1.336,5.3-1.184,5.742a18.734,18.734,0,0,1,.764,2.749v.137Z" transform="translate(-177.187 -131.168)" fill="#263238"/>
        <g id="Group_7247" data-name="Group 7247" transform="translate(67.065 16.317)" clip-path="url(#clip-path-6)">
          <path id="Path_18817" data-name="Path 18817" d="M265.516,155.161c-.954-1.947-3.123-1.313-3.818.16a19.675,19.675,0,0,0-.924,2.207s-1.657.565-1.962-.435l-.305-.993s-2.9-2.214-2.97-2.726.954-5.849.954-5.849l-2.634.252c-1.176,2.963-2.191,6.208-1.588,7.422,1.214,2.428,2.436,3.642,2.436,5.345s.97,3.161,1.214,4.62c.191,1.168-1.794,5.139-2.6,6.674a1.214,1.214,0,0,0,.863-.084c.634-.428,8.4-5.971,9.316-6.788s.557-4.933.557-4.933S266.471,157.115,265.516,155.161Z" transform="translate(-244.953 -147.525)" fill="#407bff"/>
          <path id="Path_18818" data-name="Path 18818" d="M265.516,155.161c-.954-1.947-3.123-1.313-3.818.16a19.675,19.675,0,0,0-.924,2.207s-1.657.565-1.962-.435l-.305-.993s-2.9-2.214-2.97-2.726.954-5.849.954-5.849l-2.634.252c-1.176,2.963-2.191,6.208-1.588,7.422,1.214,2.428,2.436,3.642,2.436,5.345s.97,3.161,1.214,4.62c.191,1.168-1.794,5.139-2.6,6.674a1.214,1.214,0,0,0,.863-.084c.634-.428,8.4-5.971,9.316-6.788s.557-4.933.557-4.933S266.471,157.115,265.516,155.161Z" transform="translate(-244.953 -147.525)" fill="#fff" opacity="0.5"/>
        </g>
        <path id="Path_18821" data-name="Path 18821" d="M184.771,169.776s-3.222,1.817-4.52,2.512-3.192.764-2.566,1.527,4.093-.542,4.093-.542,3.986,0,5.513-.221a2.611,2.611,0,0,0,2.031-1.657" transform="translate(-171.544 -133.102)" fill="#fff"/>
        <path id="Path_18822" data-name="Path 18822" d="M178.481,174.428a1.413,1.413,0,0,1-1.138-.382.764.764,0,0,1-.176-.71c.137-.466.764-.657,1.527-.893a9.1,9.1,0,0,0,1.374-.527c1.275-.687,4.475-2.489,4.505-2.512a.389.389,0,0,1,.527.145.382.382,0,0,1-.145.519c-.038,0-3.245,1.833-4.528,2.52a9.369,9.369,0,0,1-1.527.58,4.964,4.964,0,0,0-.962.374h0c.237.3,1.978,0,3.657-.664a.359.359,0,0,1,.13,0c.046,0,3.978,0,5.475-.214a2.222,2.222,0,0,0,1.718-1.4.384.384,0,0,1,.725.252,3.008,3.008,0,0,1-2.344,1.909c-1.443.191-4.94.221-5.5.221a10.934,10.934,0,0,1-3.321.786Z" transform="translate(-171.509 -133.066)" fill="#263238"/>
        <path id="Path_18823" data-name="Path 18823" d="M327.29,313.091l-.367,7.368-4.673,9.674c-.305.618.252,1.894,1.71,1.313s4.543-3.5,6.284-4.887,4.36-4.818,5.941-5.994,3.352-3.719,3.276-4.291-8.514-7.529-8.514-7.529Z" transform="translate(-183.854 -144.931)" fill="#407bff"/>
        <path id="Path_18824" data-name="Path 18824" d="M323.239,331.938a1.443,1.443,0,0,1-1.367-2.008c.283-.588,4.23-8.766,4.642-9.606l.359-7.292a.366.366,0,0,1,.084-.229l3.657-4.337a.389.389,0,0,1,.542-.046c8.552,7.055,8.628,7.59,8.651,7.773.107.764-1.878,3.49-3.428,4.642a26.841,26.841,0,0,0-2.909,2.924,31.176,31.176,0,0,1-3.054,3.054c-.5.4-1.092.909-1.733,1.458a23.527,23.527,0,0,1-4.642,3.482A2.2,2.2,0,0,1,323.239,331.938Zm4.391-18.738-.359,7.239a.312.312,0,0,1-.038.145l-4.673,9.682a.687.687,0,0,0,.145.695c.229.252.6.283,1.084.092a24.907,24.907,0,0,0,4.429-3.344c.649-.557,1.252-1.084,1.756-1.481a30.344,30.344,0,0,0,2.932-2.978,25.965,25.965,0,0,1,3.016-3.054,11.056,11.056,0,0,0,3.123-3.9c-.5-.7-5.07-4.581-8.086-7.078Zm-.764,7.223ZM339.083,316.369Z" transform="translate(-183.818 -144.895)" fill="#263238"/>
        <path id="Path_18825" data-name="Path 18825" d="M336.223,321.167c1.573-1.176,3.352-3.719,3.276-4.291a4.789,4.789,0,0,0-.993-1.069c-1.145,1.26-3.436,3.78-5.475,5.979-2.291,2.489-8.231,8.1-10.423,10.163a1.313,1.313,0,0,0,1.39.1c1.466-.58,4.543-3.5,6.284-4.887S334.643,322.381,336.223,321.167Z" transform="translate(-183.891 -145.532)" fill="#263238"/>
        <path id="Path_18826" data-name="Path 18826" d="M323.291,332.532a1.474,1.474,0,0,1-.954-.328.4.4,0,0,1-.145-.283.42.42,0,0,1,.122-.29c2.375-2.237,8.132-7.7,10.4-10.14,2.039-2.184,4.307-4.681,5.475-5.979a.367.367,0,0,1,.267-.122.382.382,0,0,1,.275.1c1,.932,1.092,1.122,1.115,1.306.107.764-1.878,3.49-3.428,4.642a26.839,26.839,0,0,0-2.909,2.924,31.19,31.19,0,0,1-3.054,3.054c-.5.4-1.092.909-1.733,1.458a23.528,23.528,0,0,1-4.642,3.482A2.291,2.291,0,0,1,323.291,332.532Zm0-.764a1.13,1.13,0,0,0,.55-.122,24.9,24.9,0,0,0,4.429-3.344c.649-.557,1.252-1.084,1.756-1.481a30.334,30.334,0,0,0,2.932-2.978,25.963,25.963,0,0,1,3.016-3.054,11.308,11.308,0,0,0,3.123-3.894,7.64,7.64,0,0,0-.588-.618c-1.229,1.359-3.329,3.657-5.223,5.7-2.161,2.352-7.422,7.361-10.01,9.8ZM339.112,317Z" transform="translate(-183.855 -145.496)" fill="#263238"/>
        <path id="Path_18827" data-name="Path 18827" d="M338.291,278.289l4.062,4.467,6.376,13.034s1.588.366,2.291-.115-.5-16.684-.825-19.143.107-3.482-.916-3.925-9.888.939-9.888.939Z" transform="translate(-185.226 -141.847)" fill="#407bff"/>
        <path id="Path_18828" data-name="Path 18828" d="M349.857,296.249a6.022,6.022,0,0,1-1.26-.145.374.374,0,0,1-.26-.206L342,282.917l-3.993-4.406a.374.374,0,0,1-.092-.344l1.1-4.772a.366.366,0,0,1,.313-.29c1.527-.229,9.025-1.374,10.094-.909.916.4.947,1.145.985,2.291a14.489,14.489,0,0,0,.153,1.932c0,.183,1.779,18.753.664,19.517a2.428,2.428,0,0,1-1.367.313Zm-.916-.855a3.405,3.405,0,0,0,1.764-.053c.45-1.39-.542-15.905-.932-18.822a19.008,19.008,0,0,1-.153-2c-.053-1.168-.1-1.436-.527-1.619-.565-.244-5.192.275-9.43.924l-.993,4.322,3.932,4.314.061.092ZM350.681,295.394Z" transform="translate(-185.193 -141.81)" fill="#263238"/>
        <path id="Path_18829" data-name="Path 18829" d="M350.181,272.582a3.857,3.857,0,0,0-1.206-.084c.5,4.505,1.779,15.844,2.1,18.257a29.275,29.275,0,0,1,.107,5.124,1.626,1.626,0,0,0,.764-.229c.7-.473-.5-16.684-.825-19.143S351.2,273.025,350.181,272.582Z" transform="translate(-186.135 -141.844)" fill="#263238"/>
        <path id="Path_18830" data-name="Path 18830" d="M351.129,296.224a.4.4,0,0,1-.267-.107.389.389,0,0,1-.115-.3,28.448,28.448,0,0,0-.107-5.047c-.321-2.413-1.573-13.576-2.092-18.265a.359.359,0,0,1,.084-.29.42.42,0,0,1,.283-.137,3.4,3.4,0,0,1,1.367.115h0c.916.4.947,1.145.985,2.291a14.485,14.485,0,0,0,.153,1.932c0,.183,1.779,18.753.664,19.517a2.062,2.062,0,0,1-.916.29Zm-1.764-23.38c.55,4.894,1.733,15.493,2.046,17.829a27.292,27.292,0,0,1,.137,4.688h.061c.45-1.39-.542-15.905-.932-18.822a19.009,19.009,0,0,1-.153-2c-.053-1.168-.1-1.435-.527-1.619h0A1.984,1.984,0,0,0,349.365,272.843Z" transform="translate(-186.098 -141.808)" fill="#263238"/>
      </g>
      <g id="freepik--Stars--inject-74" transform="translate(56.491 59.196)">
        <path id="Path_18831" data-name="Path 18831" d="M82.382,216.881A.382.382,0,0,1,82,216.5v-6.773a.389.389,0,0,1,.382-.382.382.382,0,0,1,.382.382V216.5A.382.382,0,0,1,82.382,216.881Z" transform="translate(-59.643 -72.834)" fill="#263238"/>
        <path id="Path_18832" data-name="Path 18832" d="M85.457,213.814H78.685a.382.382,0,1,1,0-.764h6.773a.382.382,0,0,1,.382.382A.389.389,0,0,1,85.457,213.814Z" transform="translate(-59.328 -73.15)" fill="#263238"/>
        <path id="Path_18833" data-name="Path 18833" d="M288.655,124.982a.382.382,0,0,1-.382-.382v-6.773a.382.382,0,1,1,.764,0V124.6A.382.382,0,0,1,288.655,124.982Z" transform="translate(-77.201 -65.012)" fill="#263238"/>
        <path id="Path_18834" data-name="Path 18834" d="M291.73,121.907h-6.773a.382.382,0,0,1,0-.764h6.773a.389.389,0,0,1,.382.382A.382.382,0,0,1,291.73,121.907Z" transform="translate(-76.886 -65.327)" fill="#263238"/>
        <path id="Path_18835" data-name="Path 18835" d="M276.929,318.119a.389.389,0,0,1-.382-.382v-6.773a.382.382,0,0,1,.764,0v6.773A.382.382,0,0,1,276.929,318.119Z" transform="translate(-76.203 -81.452)" fill="#263238"/>
        <path id="Path_18836" data-name="Path 18836" d="M280,315.068h-6.773a.382.382,0,1,1,0-.764H280a.382.382,0,1,1,0,.764Z" transform="translate(-75.888 -81.768)" fill="#263238"/>
        <path id="Path_18837" data-name="Path 18837" d="M183.495,67.67a.382.382,0,0,1-.382-.382V60.515a.382.382,0,1,1,.764,0v6.773A.382.382,0,0,1,183.495,67.67Z" transform="translate(-68.25 -60.133)" fill="#263238"/>
        <path id="Path_18838" data-name="Path 18838" d="M186.57,64.6H179.8a.382.382,0,0,1,0-.764h6.773a.382.382,0,0,1,.382.382.389.389,0,0,1-.382.382Z" transform="translate(-67.935 -60.449)" fill="#263238"/>
        <path id="Path_18839" data-name="Path 18839" d="M61.642,271.314a.382.382,0,0,1-.382-.382v-6.773a.382.382,0,0,1,.764,0v6.773A.382.382,0,0,1,61.642,271.314Z" transform="translate(-57.878 -77.468)" fill="#263238"/>
        <path id="Path_18840" data-name="Path 18840" d="M64.717,268.247H57.945a.382.382,0,1,1,0-.764h6.773a.382.382,0,0,1,.382.382.389.389,0,0,1-.382.382Z" transform="translate(-57.563 -77.783)" fill="#263238"/>
        <path id="Path_18841" data-name="Path 18841" d="M278.7,96.6a5.979,5.979,0,1,1,5.979-5.979A5.979,5.979,0,0,1,278.7,96.6Zm0-11.194a5.215,5.215,0,1,0,5.215,5.215A5.215,5.215,0,0,0,278.7,85.409Z" transform="translate(-75.877 -62.22)" fill="#263238"/>
        <path id="Path_18842" data-name="Path 18842" d="M68.031,227.169A5.979,5.979,0,1,1,74,221.19a5.979,5.979,0,0,1-5.971,5.979Zm0-11.194a5.215,5.215,0,1,0,5.208,5.215,5.215,5.215,0,0,0-5.208-5.215Z" transform="translate(-57.944 -73.334)" fill="#263238"/>
        <path id="Path_18843" data-name="Path 18843" d="M311.654,155.279a1.657,1.657,0,1,1,1.649-1.657A1.657,1.657,0,0,1,311.654,155.279Zm0-2.55a.893.893,0,1,0,.886.893.893.893,0,0,0-.886-.893Z" transform="translate(-79.049 -67.95)" fill="#263238"/>
        <path id="Path_18844" data-name="Path 18844" d="M264.365,324.562a1.657,1.657,0,1,1,1.649-1.649,1.657,1.657,0,0,1-1.649,1.649Zm0-2.543a.893.893,0,1,0,.886.893.893.893,0,0,0-.886-.893Z" transform="translate(-75.024 -82.359)" fill="#263238"/>
        <path id="Path_18845" data-name="Path 18845" d="M340.849,246.418a1.657,1.657,0,1,1,1.649-1.657,1.657,1.657,0,0,1-1.649,1.657Zm0-2.543a.893.893,0,1,0,.886.886A.893.893,0,0,0,340.849,243.875Z" transform="translate(-81.534 -75.708)" fill="#263238"/>
        <path id="Path_18846" data-name="Path 18846" d="M263.807,226.037a1.657,1.657,0,1,1,1.657-1.657A1.657,1.657,0,0,1,263.807,226.037Zm0-2.543a.893.893,0,1,0,.893.886.893.893,0,0,0-.893-.886Z" transform="translate(-74.977 -73.973)" fill="#263238"/>
        <path id="Path_18847" data-name="Path 18847" d="M166.951,74.189a1.657,1.657,0,1,1,1.657-1.657,1.657,1.657,0,0,1-1.657,1.657Zm0-2.543a.893.893,0,1,0,.893.886A.893.893,0,0,0,166.951,71.646Z" transform="translate(-66.733 -61.048)" fill="#263238"/>
      </g>
    </g>
  </g>
</svg>
