<svg xmlns="http://www.w3.org/2000/svg" xmlns:xlink="http://www.w3.org/1999/xlink" width="90" height="90" viewBox="0 0 90 90">
  <defs>
    <clipPath id="clip-path">
      <rect id="Rectangle_3707" data-name="Rectangle 3707" width="46.165" height="54.574" fill="#29abe2"/>
    </clipPath>
  </defs>
  <g id="الدعم_المؤسسى" data-name="الدعم المؤسسى" transform="translate(-638 -1810)">
    <g id="Ellipse_165" data-name="Ellipse 165" transform="translate(638 1810)" fill="#fff" stroke="#29abe2" stroke-width="1" stroke-dasharray="3">
      <circle cx="45" cy="45" r="45" stroke="none"/>
      <circle cx="45" cy="45" r="44.5" fill="none"/>
    </g>
    <g id="Group_5610" data-name="Group 5610" transform="translate(660 1828)">
      <g id="Group_5609" data-name="Group 5609" clip-path="url(#clip-path)">
        <path id="Path_10849" data-name="Path 10849" d="M246.738,154.864v-1.275a10.316,10.316,0,1,0-20.633,0v1.275a3.039,3.039,0,0,0-2.428,2.973v3.338a3.038,3.038,0,0,0,3.034,3.034h2.428A1.215,1.215,0,0,0,230.353,163v-6.979a1.215,1.215,0,0,0-1.214-1.214h-1.821V153.59a9.043,9.043,0,0,1,1.471-4.952l.286.286a1.815,1.815,0,0,0,1.293.536h.01a1.775,1.775,0,0,0,1.271-.537,6.67,6.67,0,0,1,9.544,0,1.777,1.777,0,0,0,1.271.536h.01a1.817,1.817,0,0,0,1.293-.536l.286-.286a9.042,9.042,0,0,1,1.471,4.951V154.8H243.7a1.215,1.215,0,0,0-1.214,1.214V163a1.215,1.215,0,0,0,1.214,1.214h1.821v1.214a1.823,1.823,0,0,1-1.821,1.821h-4.641a2.127,2.127,0,0,0-2.034-1.517h-1.214a2.124,2.124,0,1,0,0,4.248h1.214a2.127,2.127,0,0,0,2.034-1.517H243.7a3.038,3.038,0,0,0,3.034-3.034v-1.275a3.039,3.039,0,0,0,2.428-2.973v-3.338a3.039,3.039,0,0,0-2.428-2.973Z" transform="translate(-203.876 -126.257)" fill="#29abe2"/>
        <rect id="Rectangle_3706" data-name="Rectangle 3706" width="5.499" height="1.708" transform="translate(14.302 49.075)" fill="#29abe2"/>
        <path id="Path_10850" data-name="Path 10850" d="M32.386,45.664H1.709V7.892H32.393V10.16c0,.572-.023,1.144-.026,1.716,0,.325-.108.809.1,1.09.377.505,1.491.526,1.664-.2a3.988,3.988,0,0,0-.019-.934v-7.4A4.433,4.433,0,0,0,29.682,0H4.433A4.433,4.433,0,0,0,0,4.433V50.141a4.433,4.433,0,0,0,4.433,4.433H29.676a4.438,4.438,0,0,0,4.438-4.432l-.007-.017s.007-1.972.007-4.461M4.432,1.708H29.669A2.729,2.729,0,0,1,32.4,4.432V6.185H1.709V4.432h0A2.724,2.724,0,0,1,4.432,1.708M29.676,52.866H4.433a2.724,2.724,0,0,1-2.724-2.724V47.366h30.7v2.775h0a2.725,2.725,0,0,1-2.731,2.724" fill="#29abe2"/>
      </g>
    </g>
  </g>
</svg>
