<svg xmlns="http://www.w3.org/2000/svg" width="90" height="90" viewBox="0 0 90 90">
  <g id="IOT_App" data-name="IOT App" transform="translate(-255 -1810)">
    <g id="Ellipse_166" data-name="Ellipse 166" transform="translate(255 1810)" fill="#fff" stroke="#29abe2" stroke-width="1" stroke-dasharray="3">
      <circle cx="45" cy="45" r="45" stroke="none"/>
      <circle cx="45" cy="45" r="44.5" fill="none"/>
    </g>
    <g id="iOT_Apps" data-name="iOT Apps" transform="translate(280 1826)">
      <path id="Path_10851" data-name="Path 10851" d="M446.25,358.75h1.929v1.929H446.25Z" transform="translate(-415.391 -321.141)" fill="#29abe2"/>
      <path id="Path_10852" data-name="Path 10852" d="M416.952,300.279a7.7,7.7,0,0,1,6.853,0l.862-1.725h0a9.63,9.63,0,0,0-8.576,0Z" transform="translate(-388.555 -266.683)" fill="#29abe2"/>
      <path id="Path_10853" data-name="Path 10853" d="M433.59,328.912l.862,1.726h0a3.36,3.36,0,0,1,3,0l.862-1.726h0a5.307,5.307,0,0,0-4.719,0Z" transform="translate(-404.127 -294.099)" fill="#29abe2"/>
      <path id="Path_10854" data-name="Path 10854" d="M446.25,192.5h1.929v1.929H446.25Z" transform="translate(-415.391 -173.213)" fill="#29abe2"/>
      <path id="Path_10855" data-name="Path 10855" d="M446.25,227.5h1.929v1.929H446.25Z" transform="translate(-415.391 -204.356)" fill="#29abe2"/>
      <path id="Path_10856" data-name="Path 10856" d="M171.049,71.5h22.2v2.893a.964.964,0,0,0,.964.964h7.715a.964.964,0,0,0,.964-.964V63.783h.119a3.742,3.742,0,0,0,3.739-3.739V48.235a3.742,3.742,0,0,0-3.739-3.738h-.119V33.889a.964.964,0,0,0-.964-.964h-2.893V22.3a4.809,4.809,0,0,0-4.8-4.8H171.049a4.809,4.809,0,0,0-4.8,4.8v44.4a4.809,4.809,0,0,0,4.8,4.8Zm29.913,1.929h-5.786V63.783h5.786Zm2.047-27a1.812,1.812,0,0,1,1.81,1.81v11.81a1.812,1.812,0,0,1-1.81,1.81h-9.881a1.812,1.812,0,0,1-1.81-1.81V48.235a1.812,1.812,0,0,1,1.81-1.81Zm-2.047-11.572V44.5h-5.786V34.854ZM168.175,22.3a2.878,2.878,0,0,1,2.874-2.874h23.181a2.878,2.878,0,0,1,2.874,2.874v.019h-28.93Zm0,1.947H197.1v8.679h-2.893a.964.964,0,0,0-.964.964V44.5h-.119a3.742,3.742,0,0,0-3.738,3.738v2.047H186.5a.964.964,0,0,0-.964.964v7.715a.964.964,0,0,0,.964.964h2.893v.119a3.689,3.689,0,0,0,.488,1.81h-21.7ZM189.39,52.211V58h-1.929V52.211ZM168.175,63.783h25.072v5.786h-22.2a2.878,2.878,0,0,1-2.874-2.874Z" transform="translate(-166.246 -17.495)" fill="#29abe2"/>
      <path id="Path_10857" data-name="Path 10857" d="M297.5,455h3.857v1.929H297.5Z" transform="translate(-283.035 -406.784)" fill="#29abe2"/>
      <path id="Path_10858" data-name="Path 10858" d="M291.643,200.02a2.893,2.893,0,1,0,2.046.847A2.893,2.893,0,0,0,291.643,200.02Zm0,3.857a.964.964,0,1,1,.682-.282A.964.964,0,0,1,291.643,203.877Z" transform="translate(-275.25 -179.904)" fill="#29abe2"/>
      <path id="Path_10859" data-name="Path 10859" d="M266.739,131.461l.993,1.654h0a8.389,8.389,0,0,1,8.65,0l.993-1.654h0a10.318,10.318,0,0,0-10.637,0Z" transform="translate(-255.664 -117.588)" fill="#29abe2"/>
      <path id="Path_10860" data-name="Path 10860" d="M283.89,166.036l1.07,1.6h0a4.243,4.243,0,0,1,4.716,0l1.07-1.6h0a6.171,6.171,0,0,0-6.856,0Z" transform="translate(-270.925 -148.741)" fill="#29abe2"/>
      <path id="Path_10861" data-name="Path 10861" d="M262.88,99.92l.957-1.674h0a14.629,14.629,0,0,0-14.457,0l.957,1.674h0a12.7,12.7,0,0,1,12.544,0Z" transform="translate(-240.218 -87.646)" fill="#29abe2"/>
      <path id="Path_10862" data-name="Path 10862" d="M209.929,315h-7.715a.964.964,0,0,0-.964.964v7.715a.964.964,0,0,0,.964.964h7.715a.964.964,0,0,0,.964-.964v-7.715a.964.964,0,0,0-.964-.964Zm-.964,7.715h-5.786v-5.786h5.786Z" transform="translate(-197.392 -282.213)" fill="#29abe2"/>
    </g>
  </g>
</svg>
