<svg xmlns="http://www.w3.org/2000/svg" xmlns:xlink="http://www.w3.org/1999/xlink" width="80" height="184" viewBox="0 0 80 184">
  <defs>
    <clipPath id="clip-path">
      <rect id="Rectangle_4678" data-name="Rectangle 4678" width="80" height="184" transform="translate(1246 804)" fill="#fff"/>
    </clipPath>
    <clipPath id="clip-path-2">
      <rect id="Rectangle_4677" data-name="Rectangle 4677" width="170" height="211" transform="translate(121.007 3004.009)" fill="#fff"/>
    </clipPath>
    <linearGradient id="linear-gradient" x1="0.506" y1="-0.957" x2="0.476" y2="7.34" gradientUnits="objectBoundingBox">
      <stop offset="0" stop-color="#4dc7ed"/>
      <stop offset="0.24" stop-color="#4097cf"/>
      <stop offset="0.47" stop-color="#356fb6"/>
      <stop offset="0.68" stop-color="#2d52a4"/>
      <stop offset="0.87" stop-color="#294099"/>
      <stop offset="1" stop-color="#273a95"/>
    </linearGradient>
    <linearGradient id="linear-gradient-2" x1="0.507" y1="-1.188" x2="0.475" y2="7.103" xlink:href="#linear-gradient"/>
    <linearGradient id="linear-gradient-3" x1="0.538" y1="-8.156" x2="0.389" y2="25.69" xlink:href="#linear-gradient"/>
    <linearGradient id="linear-gradient-4" x1="0.533" y1="-7.111" x2="0.385" y2="26.735" xlink:href="#linear-gradient"/>
    <linearGradient id="linear-gradient-5" x1="0.5" y1="-0.32" x2="0.47" y2="6.104" xlink:href="#linear-gradient"/>
  </defs>
  <g id="Logo-Side" transform="translate(-1246 -804)" clip-path="url(#clip-path)">
    <g id="Mask_Group_49" data-name="Mask Group 49" transform="translate(1043.993 -2208.009)" clip-path="url(#clip-path-2)">
      <g id="Icon" transform="translate(143.024 3017.693)">
        <path id="Path_18848" data-name="Path 18848" d="M644.871,389.049l-5.568,5.574-17.641-17.642a1.152,1.152,0,0,0-1.612,0L551.3,445.748l-5.483-5.464a1.146,1.146,0,0,1,0-1.612l74.354-74.334a1.139,1.139,0,0,1,1.612,0l23.086,23.106a1.126,1.126,0,0,1,0,1.605Z" transform="translate(-544.926 -364.004)" fill="url(#linear-gradient)"/>
        <path id="Path_18849" data-name="Path 18849" d="M639.72,413.323l-5.425,5.425-12.56-12.559a1.132,1.132,0,0,0-1.605.039s-3.049,2.881-3.328,3.159l-65.679,65.678-5.5-5.509a1.146,1.146,0,0,1,0-1.605l74.36-74.367a1.159,1.159,0,0,1,1.606,0l18.127,18.127A1.165,1.165,0,0,1,639.72,413.323Z" transform="translate(-544.857 -374.32)" fill="url(#linear-gradient-2)"/>
        <rect id="Rectangle_4675" data-name="Rectangle 4675" width="20.302" height="20.438" rx="0.48" transform="translate(118.915 81.11) rotate(45)" fill="url(#linear-gradient-3)"/>
        <rect id="Rectangle_4676" data-name="Rectangle 4676" width="20.302" height="20.438" rx="0.48" transform="translate(97.591 60.079) rotate(45)" fill="url(#linear-gradient-4)"/>
        <path id="Path_18850" data-name="Path 18850" d="M619.287,538.943l-15.333,15.42a1.416,1.416,0,0,1-.233.142l-.945.939a1.043,1.043,0,0,1-1.5,0L544.95,499.12a1.133,1.133,0,0,1,0-1.6l74.755-74.7a1.14,1.14,0,0,1,1.612,0l12.948,12.948a1.146,1.146,0,0,1,0,1.618l-61.186,61.179,29.01,29.01,2.858-2.944Z" transform="translate(-544.62 -384.624)" fill="url(#linear-gradient-5)"/>
        <path id="Path_18851" data-name="Path 18851" d="M671.661,560.342,661,571.005a2.59,2.59,0,0,1-3.7,0l-46.716-46.729a2.589,2.589,0,0,1,0-3.69l10.734-10.637c.078-.077.11-.136.188-.22L642.632,488.6s.065,0,.078-.046l1.774-1.774a1.062,1.062,0,0,1,1.508,0l34.746,34.752a1.048,1.048,0,0,1,0,1.5L667.88,535.884a.1.1,0,0,0-.078.045l-5.552,5.777-14.372-14.372,4.9-5.064-7.529-7.536-7.73,7.769,34.163,34.17a2.589,2.589,0,0,1-.026,3.671Z" transform="translate(-567.605 -407.184)" fill="url(#linear-gradient-5)"/>
      </g>
    </g>
  </g>
</svg>
