<svg xmlns="http://www.w3.org/2000/svg" width="90" height="90" viewBox="0 0 90 90">
  <g id="التخطيط_الاستراتيجى_للتطبيقات" data-name="التخطيط الاستراتيجى للتطبيقات" transform="translate(-1021 -1356)">
    <g id="Ellipse_161" data-name="Ellipse 161" transform="translate(1021 1356)" fill="#fff" stroke="#29abe2" stroke-width="1" stroke-dasharray="3">
      <circle cx="45" cy="45" r="45" stroke="none"/>
      <circle cx="45" cy="45" r="44.5" fill="none"/>
    </g>
    <g id="Group_5611" data-name="Group 5611" transform="translate(1048 1372)">
      <g id="mobile-product-page-846526" transform="translate(6.127 8.503)">
        <path id="Path_10785" data-name="Path 10785" d="M194.6,127.4h23.492v23.491H194.6Zm22.055,1.437H196.037v20.618h20.618Z" transform="translate(-194.6 -127.4)" fill="#29abe2"/>
        <path id="Path_10786" data-name="Path 10786" d="M196,324.8h20.584v2.206H196Z" transform="translate(-195.281 -298.351)" fill="#29abe2" fill-rule="evenodd"/>
        <path id="Path_10786_-_Outline" data-name="Path 10786 - Outline" d="M194.6,323.4h22.021v3.642H194.6Zm20.584,1.437H196.037v.769h19.147Z" transform="translate(-194.6 -297.67)" fill="#29abe2"/>
        <path id="Path_10787" data-name="Path 10787" d="M196,369.6h12.5v2.206H196Z" transform="translate(-195.281 -337.27)" fill="#29abe2" fill-rule="evenodd"/>
        <path id="Path_10787_-_Outline" data-name="Path 10787 - Outline" d="M194.6,368.2h13.935v3.642H194.6Zm12.5,1.437H196.037v.769H207.1Z" transform="translate(-194.6 -336.588)" fill="#29abe2"/>
        <path id="Path_10788" data-name="Path 10788" d="M197.523,413h17.644a3.083,3.083,0,0,1,2.924,2.924,2.927,2.927,0,0,1-2.924,2.924H197.523a3.083,3.083,0,0,1-2.924-2.924A2.927,2.927,0,0,1,197.523,413Zm17.644,4.411a1.489,1.489,0,0,0,1.487-1.487,1.663,1.663,0,0,0-1.487-1.487H197.523a1.489,1.489,0,0,0-1.487,1.487,1.663,1.663,0,0,0,1.487,1.487Z" transform="translate(-194.599 -375.507)" fill="#29abe2"/>
      </g>
      <path id="Path_10863" data-name="Path 10863" d="M231.739,35H206.507a5.262,5.262,0,0,0-5.257,5.257V88.619a5.262,5.262,0,0,0,5.257,5.257h25.232A5.263,5.263,0,0,0,237,88.619V40.257A5.262,5.262,0,0,0,231.739,35Zm3.154,53.619a3.157,3.157,0,0,1-3.154,3.154H206.507a3.157,3.157,0,0,1-3.154-3.154V40.257a3.157,3.157,0,0,1,3.154-3.154h25.232a3.157,3.157,0,0,1,3.154,3.154Z" transform="translate(-201.25 -35)" fill="#29abe2"/>
    </g>
  </g>
</svg>
