<svg xmlns="http://www.w3.org/2000/svg" width="90" height="90" viewBox="0 0 90 90">
  <g id="الدعم_والصيانة" data-name="الدعم والصيانة" transform="translate(-1021 -1810)">
    <g id="Ellipse_164" data-name="Ellipse 164" transform="translate(1021 1810)" fill="#fff" stroke="#29abe2" stroke-width="1" stroke-dasharray="3">
      <circle cx="45" cy="45" r="45" stroke="none"/>
      <circle cx="45" cy="45" r="44.5" fill="none"/>
    </g>
    <g id="app-development-2795567" transform="translate(1045 1828)">
      <path id="Path_10843" data-name="Path 10843" d="M187.48,147.281a3.123,3.123,0,0,0,.6-1.833V129.112l13.933,13.951A4.287,4.287,0,1,0,208.073,137L188.7,117.6a8.975,8.975,0,0,0-.624-6.732V97.2a3.139,3.139,0,0,0-3.136-3.136H155.261a3.144,3.144,0,0,0-3.144,3.136v48.244a3.119,3.119,0,0,0,.6,1.833c.3.4.834,1.233,1.2,1.233,8.431,0,31.778.128,31.778.128A2.158,2.158,0,0,0,187.48,147.281Zm.708-28.335,18.959,18.982a2.967,2.967,0,0,1,0,4.21,3.045,3.045,0,0,1-4.21,0L183.985,123.16A9.108,9.108,0,0,0,188,119.313c.066-.122.131-.245.19-.368Zm-1.341-.259a7.716,7.716,0,0,1-13.071.836h3.566a2.055,2.055,0,0,0,2.053-2.052v-4.892a2.055,2.055,0,0,0-2.053-2.052h-3.566a7.719,7.719,0,0,1,13.07,8.16Zm-14.8-7.165a.655.655,0,0,0,.56.315h4.734a.743.743,0,0,1,.743.742v4.892a.743.743,0,0,1-.743.742h-4.734a.656.656,0,0,0-.582.957,9.067,9.067,0,0,0,10.629,4.514l1,1v18.856a.626.626,0,0,1-.638.612H157.173a.633.633,0,0,1-.637-.612V99.117a.632.632,0,0,1,.637-.611h5.581a.624.624,0,0,1,.57.353l.881,1.837a1.945,1.945,0,0,0,1.763,1.1h8.255a1.95,1.95,0,0,0,1.762-1.1l.884-1.847a.625.625,0,0,1,.577-.349h5.573a.625.625,0,0,1,.638.611v7.622a9.646,9.646,0,0,0-3.608-.747,9.019,9.019,0,0,0-8.024,4.887.652.652,0,0,0,.021.642Zm14.72,33.927a1.832,1.832,0,0,1-1.809,1.833H155.244a1.835,1.835,0,0,1-1.817-1.833V97.206a1.832,1.832,0,0,1,1.834-1.825h29.683a1.828,1.828,0,0,1,1.825,1.825v11.77a8.415,8.415,0,0,0-1.8-1.509V99.119a1.937,1.937,0,0,0-1.949-1.921h-5.573a1.923,1.923,0,0,0-1.762,1.1l-.884,1.847a.625.625,0,0,1-.577.349H165.97a.631.631,0,0,1-.579-.353L164.51,98.3a1.938,1.938,0,0,0-1.755-1.1h-5.581a1.936,1.936,0,0,0-1.947,1.921v44.427a1.937,1.937,0,0,0,1.947,1.922H183.02a1.938,1.938,0,0,0,1.948-1.922V126l1.8,1.8Z" transform="translate(-152.116 -94.068)" fill="#29abe2"/>
      <path id="Path_10844" data-name="Path 10844" d="M500.2,392.065a2.322,2.322,0,0,0,0-3.288,2.379,2.379,0,0,0-3.288,0,2.325,2.325,0,1,0,3.288,3.288Zm-2.362-2.362a1.015,1.015,0,0,1,1.436,1.436,1.039,1.039,0,0,1-1.436,0A1.013,1.013,0,0,1,497.841,389.7Z" transform="translate(-446.183 -345.002)" fill="#29abe2"/>
      <path id="Path_10845" data-name="Path 10845" d="M208.492,173.18h-5.7a1.608,1.608,0,0,0-1.606,1.606v5.705a1.608,1.608,0,0,0,1.606,1.606h5.705a1.608,1.608,0,0,0,1.606-1.606v-5.705A1.609,1.609,0,0,0,208.492,173.18Zm.3,7.311a.3.3,0,0,1-.3.3h-5.7a.3.3,0,0,1-.3-.3v-5.705a.293.293,0,0,1,.3-.3h5.705a.293.293,0,0,1,.3.3Z" transform="translate(-194.393 -161.58)" fill="#29abe2"/>
      <path id="Path_10846" data-name="Path 10846" d="M208.492,260.85h-5.7a1.607,1.607,0,0,0-1.606,1.605v5.706a1.608,1.608,0,0,0,1.606,1.605h5.705a1.607,1.607,0,0,0,1.606-1.605v-5.706A1.608,1.608,0,0,0,208.492,260.85Zm.3,7.312a.3.3,0,0,1-.3.295h-5.7a.3.3,0,0,1-.3-.295v-5.706a.292.292,0,0,1,.3-.295h5.705a.292.292,0,0,1,.3.295Z" transform="translate(-194.393 -236.396)" fill="#29abe2"/>
      <path id="Path_10847" data-name="Path 10847" d="M208.492,348.52h-5.7a1.608,1.608,0,0,0-1.606,1.606v5.705a1.608,1.608,0,0,0,1.606,1.606h5.705a1.608,1.608,0,0,0,1.606-1.606v-5.705A1.609,1.609,0,0,0,208.492,348.52Zm.3,7.311a.3.3,0,0,1-.3.3h-5.7a.3.3,0,0,1-.3-.3v-5.705a.293.293,0,0,1,.3-.3h5.705a.293.293,0,0,1,.3.3Z" transform="translate(-194.393 -311.211)" fill="#29abe2"/>
    </g>
  </g>
</svg>
