<svg xmlns="http://www.w3.org/2000/svg" xmlns:xlink="http://www.w3.org/1999/xlink" width="493.322" height="500" viewBox="0 0 493.322 500">
  <defs>
    <clipPath id="clip-path">
      <rect id="Rectangle_3654" data-name="Rectangle 3654" width="431.327" height="432.462" fill="none"/>
    </clipPath>
    <clipPath id="clip-path-2">
      <path id="Path_10246" data-name="Path 10246" d="M0-682.665H53.907v53.907H0Z" transform="translate(0 682.665)" fill="#29abe2"/>
    </clipPath>
    <clipPath id="clip-path-3">
      <path id="Path_10284" data-name="Path 10284" d="M0-682.665H46.479v46.479H0Z" transform="translate(0 682.665)" fill="#29abe2"/>
    </clipPath>
  </defs>
  <g id="خطوات_تصميم_واجهة_وتجربة_المستخدم" data-name="خطوات تصميم واجهة وتجربة المستخدم" transform="translate(906 2510)">
    <g id="Group_5506" data-name="Group 5506" transform="translate(-872.962 -2474.265)" clip-path="url(#clip-path)">
      <path id="Path_10218" data-name="Path 10218" d="M429.757,215.7c0,118.851-96.348,215.2-215.2,215.2C-70.894,419.558-70.813,11.792,214.563.5,333.409.5,429.757,96.846,429.757,215.7Z" transform="translate(0.535 0.535)" fill="none" stroke="#51c8ed" stroke-linecap="round" stroke-miterlimit="10" stroke-width="1" stroke-dasharray="5.027 5.027"/>
    </g>
    <g id="Group_7254" data-name="Group 7254" transform="translate(-906 -2510)">
      <line id="Line_199" data-name="Line 199" x2="474.124" transform="translate(12.104 252.504)" fill="none" stroke="#29abe2" stroke-width="1" opacity="0.24"/>
      <g id="Group_5511" data-name="Group 5511" transform="translate(349.75 45.91)">
        <circle id="Ellipse_150" data-name="Ellipse 150" cx="35.893" cy="35.893" r="35.893" fill="#fff"/>
        <g id="Prototype" transform="translate(11.686 15.86)">
          <path id="Path_10219" data-name="Path 10219" d="M50.981,15.277H32.648a2.394,2.394,0,0,0-2.391,2.391V44.05H27.671V17.667a2.394,2.394,0,0,0-2.391-2.391H6.948a2.394,2.394,0,0,0-2.391,2.391V52.9a2.394,2.394,0,0,0,2.391,2.391H25.28A2.394,2.394,0,0,0,27.671,52.9v-7.41h2.587V52.9a2.394,2.394,0,0,0,2.391,2.391H50.981A2.394,2.394,0,0,0,53.372,52.9V17.667a2.394,2.394,0,0,0-2.391-2.391ZM20.136,16.714l-.526,1.83a.622.622,0,0,1-.595.448h-5.8a.622.622,0,0,1-.595-.448l-.526-1.83ZM25.279,53.85H6.948a.955.955,0,0,1-.954-.953V51.573h20.24V52.9a.955.955,0,0,1-.954.953Zm.954-3.715H5.994V17.667a.955.955,0,0,1,.954-.954H10.6l.64,2.227a2.064,2.064,0,0,0,1.976,1.488h5.805a2.064,2.064,0,0,0,1.976-1.488l.641-2.227H25.28a.955.955,0,0,1,.954.954V44.05H19.059a3.034,3.034,0,1,0,0,1.437h7.175Zm-8.519-5.369a1.6,1.6,0,1,1-1.6-1.6,1.6,1.6,0,0,1,1.6,1.6ZM45.84,16.713l-.526,1.83a.621.621,0,0,1-.595.448H38.912a.622.622,0,0,1-.595-.448l-.525-1.829ZM40.148,47.592a.718.718,0,0,0,1.016,0l2.316-2.316a.718.718,0,0,0,0-1.016l-2.316-2.316a.719.719,0,0,0-1.016,1.016l1.09,1.09H31.694V17.667a.955.955,0,0,1,.954-.954H36.3l.641,2.227a2.064,2.064,0,0,0,1.976,1.488h5.805a2.065,2.065,0,0,0,1.976-1.488l.64-2.227h3.648a.955.955,0,0,1,.954.954V50.135H31.694V45.487h9.544l-1.09,1.089A.719.719,0,0,0,40.148,47.592ZM50.981,53.85H32.648a.955.955,0,0,1-.954-.954V51.573h20.24V52.9a.955.955,0,0,1-.954.953Z" transform="translate(-4.557 -15.276)" fill="#29abe2"/>
          <path id="Path_10220" data-name="Path 10220" d="M14.457,40.176H28.594a.718.718,0,0,0,.719-.718V34.226a.718.718,0,0,0-.719-.719H14.457a.718.718,0,0,0-.719.719v5.232A.718.718,0,0,0,14.457,40.176Zm.719-5.232h12.7v3.795h-12.7Zm39.838,13.7V34.226a.719.719,0,0,0-.719-.719H40.157a.718.718,0,0,0-.719.719V48.643a.718.718,0,0,0,.719.719H54.295A.719.719,0,0,0,55.013,48.643Zm-1.437-.719h-12.7V34.944h12.7Zm-24.264.719a.718.718,0,0,0-.719-.719H14.457a.719.719,0,0,0,0,1.437H28.594a.718.718,0,0,0,.719-.719ZM14.457,44.769H28.594a.719.719,0,1,0,0-1.437H14.457a.719.719,0,0,0,0,1.437Z" transform="translate(-9.968 -26.021)" fill="#29abe2"/>
        </g>
      </g>
      <g id="Group_5510" data-name="Group 5510" transform="translate(217.028)">
        <g id="Group_5520" data-name="Group 5520">
          <circle id="Ellipse_159" data-name="Ellipse 159" cx="35.893" cy="35.893" r="35.893" fill="#fff"/>
          <g id="edit" transform="translate(11.686 11.686)">
            <path id="Path_10221" data-name="Path 10221" d="M52.964,64H10.69A2.693,2.693,0,0,0,8,66.69V95.9a2.693,2.693,0,0,0,2.69,2.69H25.427l-1.1,3.843H21.066a.769.769,0,0,0-.769.769V105.5a.769.769,0,0,0,.769.769H42.587a.769.769,0,0,0,.769-.769V103.2a.769.769,0,0,0-.769-.769H39.324l-1.1-3.843H52.964a2.693,2.693,0,0,0,2.69-2.69V66.69A2.693,2.693,0,0,0,52.964,64ZM41.819,103.968v.769H21.835v-.769Zm-15.89-1.537,1.1-3.843h9.6l1.1,3.843ZM54.116,95.9a1.154,1.154,0,0,1-1.153,1.153H10.69A1.154,1.154,0,0,1,9.537,95.9V93.976H54.116Zm0-3.459H9.537V66.69a1.154,1.154,0,0,1,1.153-1.153H52.964a1.154,1.154,0,0,1,1.153,1.153Z" transform="translate(-8 -58.62)" fill="#29abe2"/>
            <path id="Path_10222" data-name="Path 10222" d="M40.769,116.612h3.074a.769.769,0,0,0,.769-.769v-3.074a.769.769,0,0,0-.769-.769H40.769a.769.769,0,0,0-.769.769v3.074A.769.769,0,0,0,40.769,116.612Zm.769-3.074h1.537v1.537H41.537Zm-.769,8.455h3.074a.769.769,0,0,0,.769-.769v-3.074a.769.769,0,0,0-.769-.769H40.769a.769.769,0,0,0-.769.769v3.074A.769.769,0,0,0,40.769,121.992Zm.769-3.074h1.537v1.537H41.537Zm-.769,8.455h3.074a.769.769,0,0,0,.769-.769v-3.074a.769.769,0,0,0-.769-.769H40.769a.769.769,0,0,0-.769.769V126.6A.769.769,0,0,0,40.769,127.372Zm.769-3.074h1.537v1.537H41.537Zm-.769,8.455h3.074a.769.769,0,0,0,.769-.769v-3.074a.769.769,0,0,0-.769-.769H40.769a.769.769,0,0,0-.769.769v3.074A.769.769,0,0,0,40.769,132.752Zm.769-3.074h1.537v1.537H41.537Zm36.125-13.066h3.074a.769.769,0,0,0,.769-.769v-3.074a.769.769,0,0,0-.769-.769H77.662a.769.769,0,0,0-.769.769v3.074A.769.769,0,0,0,77.662,116.612Zm.769-3.074h1.537v1.537H78.43Zm-.769,8.455h3.074a.769.769,0,0,0,.769-.769v-3.074a.769.769,0,0,0-.769-.769H77.662a.769.769,0,0,0-.769.769v3.074A.769.769,0,0,0,77.662,121.992Zm.769-3.074h1.537v1.537H78.43Zm-.769,8.455h3.074a.769.769,0,0,0,.769-.769v-3.074a.769.769,0,0,0-.769-.769H77.662a.769.769,0,0,0-.769.769V126.6A.769.769,0,0,0,77.662,127.372Zm.769-3.074h1.537v1.537H78.43Zm-.769,8.455h3.074a.769.769,0,0,0,.769-.769v-3.074a.769.769,0,0,0-.769-.769H77.662a.769.769,0,0,0-.769.769v3.074A.769.769,0,0,0,77.662,132.752Zm.769-3.074h1.537v1.537H78.43Zm-26.127-2.5L50.842,130.1a.769.769,0,0,0,.687,1.112h7.686A.769.769,0,0,0,59.9,130.1l-2.1-4.191a6.144,6.144,0,1,0-5.5,1.267Zm5.668,2.5h-5.2l1.154-2.308a6.111,6.111,0,0,0,2.584-.612Zm-3.233-3.933.633-1.266.452.9A4.579,4.579,0,0,1,54.739,125.745Zm-.9-9.134a4.609,4.609,0,0,1,3.258,7.872l-1.034-2.067a.769.769,0,0,0-1.375,0l-1.672,3.343a4.611,4.611,0,0,1,.822-9.149Z" transform="translate(-36.926 -102.008)" fill="#29abe2"/>
            <path id="Path_10223" data-name="Path 10223" d="M140.122,33.384l8.85,2.6a.767.767,0,0,0,.954-.521l2.6-8.85a.769.769,0,0,0-.521-.954l-8.85-2.6a.769.769,0,0,0-.954.521l-2.6,8.85a.769.769,0,0,0,.521.954Zm3.336-8.633,7.375,2.166-2.166,7.375-7.375-2.166ZM128.425,10.993,131.5,12.53a.768.768,0,0,0,.344.081H150.29a2.306,2.306,0,1,0,0-4.612H131.844a.768.768,0,0,0-.344.081l-3.074,1.537a.769.769,0,0,0,0,1.375Zm22.633-.687a.769.769,0,0,1-.769.769H134.149V9.537H150.29A.769.769,0,0,1,151.059,10.306Zm-19.034-.769h.587v1.537h-.587l-1.537-.769Z" transform="translate(-116.471 -8)" fill="#29abe2"/>
          </g>
        </g>
      </g>
      <g id="Group_5512" data-name="Group 5512" transform="translate(421.536 166.11)">
        <circle id="Ellipse_151" data-name="Ellipse 151" cx="35.893" cy="35.893" r="35.893" transform="translate(0)" fill="#fff"/>
        <g id="sketch_wirefram" data-name="sketch wirefram" transform="translate(9.182 9.182)">
          <g id="Group_5508" data-name="Group 5508" transform="translate(0 0)" clip-path="url(#clip-path-2)">
            <path id="Path_10224" data-name="Path 10224" d="M-66.506-58.513h-3.108a3.4,3.4,0,0,1-3.4-3.4,3.4,3.4,0,0,1,3.4-3.4h3.108a3.4,3.4,0,0,1,3.4,3.4A3.4,3.4,0,0,1-66.506-58.513Zm-3.108-5a1.6,1.6,0,0,0-1.6,1.6,1.6,1.6,0,0,0,1.6,1.6h3.108a1.6,1.6,0,0,0,1.6-1.6,1.6,1.6,0,0,0-1.6-1.6Z" transform="translate(73.167 71.031)" fill="#29abe2"/>
            <path id="Path_10225" data-name="Path 10225" d="M-66.506-58.513h-3.108a3.4,3.4,0,0,1-3.4-3.4,3.4,3.4,0,0,1,3.4-3.4h3.108a3.4,3.4,0,0,1,3.4,3.4A3.4,3.4,0,0,1-66.506-58.513Zm-3.108-5a1.6,1.6,0,0,0-1.6,1.6,1.6,1.6,0,0,0,1.6,1.6h3.108a1.6,1.6,0,0,0,1.6-1.6,1.6,1.6,0,0,0-1.6-1.6Z" transform="translate(73.167 79.949)" fill="#29abe2"/>
            <path id="Path_10226" data-name="Path 10226" d="M-66.506-58.513h-3.108a3.4,3.4,0,0,1-3.4-3.4,3.4,3.4,0,0,1,3.4-3.4h3.108a3.4,3.4,0,0,1,3.4,3.4A3.4,3.4,0,0,1-66.506-58.513Zm-3.108-5a1.6,1.6,0,0,0-1.6,1.6,1.6,1.6,0,0,0,1.6,1.6h3.108a1.6,1.6,0,0,0,1.6-1.6,1.6,1.6,0,0,0-1.6-1.6Z" transform="translate(73.167 88.868)" fill="#29abe2"/>
            <path id="Path_10227" data-name="Path 10227" d="M-66.506-58.513h-3.108a3.4,3.4,0,0,1-3.4-3.4,3.4,3.4,0,0,1,3.4-3.4h3.108a3.4,3.4,0,0,1,3.4,3.4A3.4,3.4,0,0,1-66.506-58.513Zm-3.108-5a1.6,1.6,0,0,0-1.6,1.6,1.6,1.6,0,0,0,1.6,1.6h3.108a1.6,1.6,0,0,0,1.6-1.6,1.6,1.6,0,0,0-1.6-1.6Z" transform="translate(73.167 97.786)" fill="#29abe2"/>
            <path id="Path_10228" data-name="Path 10228" d="M-66.506-58.513h-3.108a3.4,3.4,0,0,1-3.4-3.4,3.4,3.4,0,0,1,3.4-3.4h3.108a3.4,3.4,0,0,1,3.4,3.4A3.4,3.4,0,0,1-66.506-58.513Zm-3.108-5a1.6,1.6,0,0,0-1.6,1.6,1.6,1.6,0,0,0,1.6,1.6h3.108a1.6,1.6,0,0,0,1.6-1.6,1.6,1.6,0,0,0-1.6-1.6Z" transform="translate(73.167 106.704)" fill="#29abe2"/>
            <path id="Path_10229" data-name="Path 10229" d="M-48.913-454.9a4.967,4.967,0,0,1-3.536-1.465,4.967,4.967,0,0,1-1.465-3.536v-28.956A5.506,5.506,0,0,1-53-491.908l1.633-2.467a2.931,2.931,0,0,1,2.45-1.316,2.931,2.931,0,0,1,2.45,1.316l1.633,2.466a5.506,5.506,0,0,1,.917,3.048V-459.9a4.967,4.967,0,0,1-1.465,3.536A4.967,4.967,0,0,1-48.913-454.9Zm0-38.985a1.119,1.119,0,0,0-.948.509l-1.633,2.467a3.709,3.709,0,0,0-.618,2.053V-459.9a3.2,3.2,0,0,0,3.2,3.2,3.2,3.2,0,0,0,3.2-3.2v-28.956a3.71,3.71,0,0,0-.618-2.053l-1.633-2.466A1.119,1.119,0,0,0-48.913-493.89Z" transform="translate(97.668 502.31)" fill="#29abe2"/>
            <path id="Path_10230" data-name="Path 10230" d="M-48.913-70.158a4.967,4.967,0,0,1-3.536-1.465,4.967,4.967,0,0,1-1.465-3.536v-1.9a.9.9,0,0,1,.9-.9h8.2a.9.9,0,0,1,.9.9v1.9a4.967,4.967,0,0,1-1.465,3.536A4.967,4.967,0,0,1-48.913-70.158Zm-3.2-6v1a3.2,3.2,0,0,0,3.2,3.2,3.2,3.2,0,0,0,3.2-3.2v-1Z" transform="translate(97.668 117.563)" fill="#29abe2"/>
            <path id="Path_10231" data-name="Path 10231" d="M-27.3-13.56a2.931,2.931,0,0,1,2.45,1.316l1.633,2.466a5.523,5.523,0,0,1,.908,2.769.9.9,0,0,1-.247.666.9.9,0,0,1-.652.28h-8.181a.9.9,0,0,1-.653-.28.9.9,0,0,1-.247-.666,5.524,5.524,0,0,1,.908-2.768l1.633-2.466A2.931,2.931,0,0,1-27.3-13.56Zm3.02,5.7a3.717,3.717,0,0,0-.44-.92l-1.632-2.466a1.119,1.119,0,0,0-.948-.509,1.119,1.119,0,0,0-.948.509l-1.633,2.466a3.692,3.692,0,0,0-.439.919Z" transform="translate(76.053 20.179)" fill="#29abe2"/>
            <path id="Path_10232" data-name="Path 10232" d="M-1.1,12.87a.9.9,0,0,1-.9-.9V-1.1A.9.9,0,0,1-1.1-2a.9.9,0,0,1,.9.9V11.97A.9.9,0,0,1-1.1,12.87Z" transform="translate(49.854 23.605)" fill="#29abe2"/>
            <path id="Path_10233" data-name="Path 10233" transform="translate(48.755 18.294)" fill="#29abe2"/>
            <path id="Path_10234" data-name="Path 10234" d="M-189.141-87.4h-14.45a2.575,2.575,0,0,1-2.573-2.572v-4.133a2.575,2.575,0,0,1,2.573-2.573h14.45a2.575,2.575,0,0,1,2.572,2.573v4.133A2.575,2.575,0,0,1-189.141-87.4Zm-14.45-7.477a.772.772,0,0,0-.771.771v4.133a.772.772,0,0,0,.771.771h14.45a.772.772,0,0,0,.771-.771v-4.133a.772.772,0,0,0-.771-.771Z" transform="translate(221.245 103.3)" fill="#29abe2"/>
            <path id="Path_10235" data-name="Path 10235" d="M-1.1-63.771a.9.9,0,0,1-.9-.9v-3.1a3.257,3.257,0,0,1,3.253-3.253H14.769a3.257,3.257,0,0,1,3.253,3.253V-65.8a.9.9,0,0,1-.9.9.9.9,0,0,1-.9-.9V-67.77a1.453,1.453,0,0,0-1.451-1.451H1.253A1.453,1.453,0,0,0-.2-67.77v3.1A.9.9,0,0,1-1.1-63.771Z" transform="translate(16.868 90.993)" fill="#29abe2"/>
            <path id="Path_10236" data-name="Path 10236" d="M-1.1,5.677a.9.9,0,0,1-.9-.9V-1.1A.9.9,0,0,1-1.1-2a.9.9,0,0,1,.9.9V4.776A.9.9,0,0,1-1.1,5.677Z" transform="translate(25.978 16.095)" fill="#29abe2"/>
            <path id="Path_10237" data-name="Path 10237" d="M-107.223-70.726h-7.427a2.575,2.575,0,0,1-2.573-2.572V-76a2.575,2.575,0,0,1,2.573-2.573h7.427A2.575,2.575,0,0,1-104.65-76v2.7A2.575,2.575,0,0,1-107.223-70.726Zm-7.427-6.047a.772.772,0,0,0-.771.771v2.7a.772.772,0,0,0,.771.771h7.427a.772.772,0,0,0,.771-.771V-76a.772.772,0,0,0-.771-.771Z" transform="translate(130.43 103.996)" fill="#29abe2"/>
            <path id="Path_10238" data-name="Path 10238" d="M-92.845-49.759a4.677,4.677,0,0,1,4.672,4.672,4.677,4.677,0,0,1-4.672,4.672,4.677,4.677,0,0,1-4.672-4.672A4.677,4.677,0,0,1-92.845-49.759Zm0,7.543a2.874,2.874,0,0,0,2.871-2.871,2.874,2.874,0,0,0-2.871-2.871,2.874,2.874,0,0,0-2.871,2.871A2.874,2.874,0,0,0-92.845-42.216Z" transform="translate(126.834 74.372)" fill="#29abe2"/>
            <path id="Path_10239" data-name="Path 10239" d="M-1.1,6.916a.9.9,0,0,1-.9-.9V-1.1A.9.9,0,0,1-1.1-2a.9.9,0,0,1,.9.9V6.015A.9.9,0,0,1-1.1,6.916Z" transform="translate(16.817 33.468)" fill="#29abe2"/>
            <path id="Path_10240" data-name="Path 10240" d="M-1.1,6.916a.9.9,0,0,1-.9-.9V-1.1A.9.9,0,0,1-1.1-2a.9.9,0,0,1,.9.9V6.015A.9.9,0,0,1-1.1,6.916Z" transform="translate(24.475 33.468)" fill="#29abe2"/>
            <path id="Path_10241" data-name="Path 10241" d="M-57.157-31.181a3.209,3.209,0,0,1,3.205,3.205,3.209,3.209,0,0,1-3.205,3.205,3.209,3.209,0,0,1-3.205-3.205A3.209,3.209,0,0,1-57.157-31.181Zm0,4.609a1.405,1.405,0,0,0,1.4-1.4,1.405,1.405,0,0,0-1.4-1.4,1.405,1.405,0,0,0-1.4,1.4A1.405,1.405,0,0,0-57.157-26.573Z" transform="translate(72.875 70.267)" fill="#29abe2"/>
            <path id="Path_10242" data-name="Path 10242" d="M-57.157-31.181a3.209,3.209,0,0,1,3.205,3.205,3.209,3.209,0,0,1-3.205,3.205,3.209,3.209,0,0,1-3.205-3.205A3.209,3.209,0,0,1-57.157-31.181Zm0,4.609a1.405,1.405,0,0,0,1.4-1.4,1.405,1.405,0,0,0-1.4-1.4,1.405,1.405,0,0,0-1.4,1.4A1.405,1.405,0,0,0-57.157-26.573Z" transform="translate(80.533 70.267)" fill="#29abe2"/>
            <path id="Path_10243" data-name="Path 10243" d="M-57.158-31.181a3.209,3.209,0,0,1,3.205,3.205,3.209,3.209,0,0,1-3.205,3.205,3.209,3.209,0,0,1-3.2-3.205A3.209,3.209,0,0,1-57.158-31.181Zm0,4.609a1.405,1.405,0,0,0,1.4-1.4,1.405,1.405,0,0,0-1.4-1.4,1.405,1.405,0,0,0-1.4,1.4A1.405,1.405,0,0,0-57.158-26.573Z" transform="translate(91.146 70.267)" fill="#29abe2"/>
            <path id="Path_10244" data-name="Path 10244" d="M-1.1,6.732a.9.9,0,0,1-.9-.9V-1.1A.9.9,0,0,1-1.1-2a.9.9,0,0,1,.9.9v6.93A.9.9,0,0,1-1.1,6.732Z" transform="translate(35.088 34.156)" fill="#29abe2"/>
            <path id="Path_10245" data-name="Path 10245" d="M-414.513-2h29.549A4.268,4.268,0,0,1-380.7,2.263V46.076a4.268,4.268,0,0,1-4.263,4.263h-29.549a4.268,4.268,0,0,1-4.263-4.263v-1.57a.9.9,0,0,1,.9-.9h1.689a1.6,1.6,0,0,0,1.6-1.6,1.6,1.6,0,0,0-1.6-1.6h-1.689a.9.9,0,0,1-.9-.9V35.588a.9.9,0,0,1,.9-.9h1.689a1.6,1.6,0,0,0,1.6-1.6,1.6,1.6,0,0,0-1.6-1.6h-1.689a.9.9,0,0,1-.9-.9V26.669a.9.9,0,0,1,.9-.9h1.689a1.6,1.6,0,0,0,1.6-1.6,1.6,1.6,0,0,0-1.6-1.6h-1.689a.9.9,0,0,1-.9-.9V17.751a.9.9,0,0,1,.9-.9h1.689a1.6,1.6,0,0,0,1.6-1.6,1.6,1.6,0,0,0-1.6-1.6h-1.689a.9.9,0,0,1-.9-.9V8.833a.9.9,0,0,1,.9-.9h1.689a1.6,1.6,0,0,0,1.6-1.6,1.6,1.6,0,0,0-1.6-1.6h-1.689a.9.9,0,0,1-.9-.9V2.263A4.268,4.268,0,0,1-414.513-2Zm29.549,50.538a2.465,2.465,0,0,0,2.462-2.462V2.263A2.465,2.465,0,0,0-384.964-.2h-29.549a2.465,2.465,0,0,0-2.462,2.462v.669h.788a3.4,3.4,0,0,1,3.4,3.4,3.4,3.4,0,0,1-3.4,3.4h-.788v2.117h.788a3.4,3.4,0,0,1,3.4,3.4,3.4,3.4,0,0,1-3.4,3.4h-.788v2.117h.788a3.4,3.4,0,0,1,3.4,3.4,3.4,3.4,0,0,1-3.4,3.4h-.788v2.117h.788a3.4,3.4,0,0,1,3.4,3.4,3.4,3.4,0,0,1-3.4,3.4h-.788v2.117h.788a3.4,3.4,0,0,1,3.4,3.4,3.4,3.4,0,0,1-3.4,3.4h-.788v.669a2.465,2.465,0,0,0,2.462,2.462Z" transform="translate(422.847 2.784)" fill="#29abe2"/>
          </g>
        </g>
      </g>
      <g id="Group_5513" data-name="Group 5513" transform="translate(412.354 291.319)">
        <circle id="Ellipse_152" data-name="Ellipse 152" cx="35.893" cy="35.893" r="35.893" transform="translate(0 0)" fill="#fff"/>
        <g id="design_review" data-name="design review" transform="translate(13.356 10.017)">
          <path id="Path_10247" data-name="Path 10247" d="M47.855,18.438H46.7V8.589A4.6,4.6,0,0,0,42.114,4H17.865a4.6,4.6,0,0,0-4.589,4.589v9.849H12.124a4.6,4.6,0,0,0-4.589,4.589v9.418a4.6,4.6,0,0,0,4.589,4.589h1.152V50.809A4.6,4.6,0,0,0,17.865,55.4H42.114A4.6,4.6,0,0,0,46.7,50.809V37.034h1.152a4.6,4.6,0,0,0,4.589-4.589V23.028a4.6,4.6,0,0,0-4.589-4.589Zm-9.4-12.6L37.241,11.53a2.392,2.392,0,0,1-2.328,1.886H25.065a2.392,2.392,0,0,1-2.328-1.886L21.525,5.836ZM15.112,8.589a2.756,2.756,0,0,1,2.753-2.753h1.783l1.292,6.076a4.237,4.237,0,0,0,4.124,3.34h9.85a4.237,4.237,0,0,0,4.124-3.34l1.292-6.076h1.783a2.756,2.756,0,0,1,2.753,2.753v9.849H15.112Zm29.756,42.22a2.756,2.756,0,0,1-2.753,2.753H17.865a2.756,2.756,0,0,1-2.753-2.753V37.034H22.92a2.5,2.5,0,0,1,2.117,1.188l3.632,5.953a.918.918,0,0,0,1.568,0l3.623-5.95a2.5,2.5,0,0,1,2.12-1.19h8.888Zm5.741-18.364A2.756,2.756,0,0,1,47.855,35.2H35.978a4.346,4.346,0,0,0-3.687,2.071l-2.84,4.664L26.6,37.266A4.345,4.345,0,0,0,22.92,35.2h-10.8a2.756,2.756,0,0,1-2.753-2.753V23.028a2.756,2.756,0,0,1,2.753-2.753H47.855a2.756,2.756,0,0,1,2.753,2.753Z" transform="translate(-7.535 -4)" fill="#29abe2"/>
          <path id="Path_10248" data-name="Path 10248" d="M21.119,26.945H18.784l-.72-2.22a1.419,1.419,0,0,0-2.7,0l-.721,2.221H12.309a1.419,1.419,0,0,0-.835,2.566l1.889,1.372-.721,2.221a1.427,1.427,0,0,0,2.184,1.586l1.888-1.372c.553.325,2.059,1.741,2.722,1.645a1.429,1.429,0,0,0,1.349-1.859l-.72-2.221,1.891-1.372a1.427,1.427,0,0,0-.835-2.567Zm-2.377,2.632a1.413,1.413,0,0,0-.517,1.586l.419,1.289-1.1-.8c-.993-.762-1.983.239-2.764.8l.42-1.29a1.416,1.416,0,0,0-.518-1.583l-1.1-.8h1.356A1.417,1.417,0,0,0,16.3,27.8l.419-1.289.419,1.29a1.417,1.417,0,0,0,1.35.979h1.356ZM34.67,26.945H32.335l-.721-2.221a1.419,1.419,0,0,0-2.7,0l-.721,2.221H25.86a1.419,1.419,0,0,0-.834,2.566l1.889,1.372-.722,2.221a1.427,1.427,0,0,0,2.184,1.586l1.889-1.372c.553.325,2.059,1.741,2.722,1.645a1.429,1.429,0,0,0,1.349-1.859l-.721-2.221L35.5,29.513a1.427,1.427,0,0,0-.833-2.567Zm-2.378,2.632a1.413,1.413,0,0,0-.516,1.586l.419,1.289-1.1-.8c-.994-.76-1.981.239-2.763.8l.418-1.29a1.413,1.413,0,0,0-.515-1.586l-1.1-.8H28.5a1.417,1.417,0,0,0,1.349-.98l.42-1.288.419,1.289a1.416,1.416,0,0,0,1.349.979h1.353ZM48.22,26.945H45.885l-.721-2.22a1.419,1.419,0,0,0-2.7,0l-.721,2.221H39.409a1.419,1.419,0,0,0-.833,2.566l1.888,1.372L39.742,33.1a1.427,1.427,0,0,0,2.184,1.588l1.888-1.372L45.7,34.693a1.427,1.427,0,0,0,2.184-1.587l-.722-2.221,1.89-1.372a1.427,1.427,0,0,0-.835-2.567Zm-2.377,2.632a1.413,1.413,0,0,0-.517,1.586l.419,1.29c-.787-.562-1.767-1.558-2.764-.8l-1.1.8.419-1.288a1.413,1.413,0,0,0-.515-1.586l-1.1-.8h1.356A1.416,1.416,0,0,0,43.4,27.8l.419-1.289.419,1.289a1.417,1.417,0,0,0,1.349.979h1.356Z" transform="translate(-7.811 -5.622)" fill="#29abe2"/>
        </g>
      </g>
      <g id="Group_5514" data-name="Group 5514" transform="translate(351.419 377.296)">
        <circle id="Ellipse_153" data-name="Ellipse 153" cx="35.893" cy="35.893" r="35.893" fill="#fff"/>
        <g id="UI" transform="translate(11.686 10.017)">
          <circle id="Ellipse_147" data-name="Ellipse 147" cx="0.762" cy="0.762" r="0.762" transform="translate(11.593 16.04)" fill="#29abe2"/>
          <path id="Path_10249" data-name="Path 10249" d="M143.584,159.871h-4.1a.76.76,0,1,1,0-1.52h4.1a.76.76,0,1,1,0,1.52Zm0,2.861h-7.653a.76.76,0,1,1,0-1.52h7.653a.76.76,0,1,1,0,1.52Z" transform="translate(-123.586 -142.309)" fill="#29abe2"/>
          <path id="Path_10250" data-name="Path 10250" d="M107.394,49.084H95.283a2.655,2.655,0,0,1-2.652-2.652V34.321a2.655,2.655,0,0,1,2.652-2.652.76.76,0,1,1,0,1.52,1.134,1.134,0,0,0-1.132,1.132V46.432a1.134,1.134,0,0,0,1.132,1.132h12.111a1.134,1.134,0,0,0,1.132-1.132V34.321a1.134,1.134,0,0,0-1.132-1.132H99.028a.76.76,0,1,1,0-1.52h8.366a2.655,2.655,0,0,1,2.652,2.652V46.432A2.655,2.655,0,0,1,107.394,49.084ZM102.853,25.82H99.824a.76.76,0,1,1,0-1.52h3.029a.76.76,0,0,1,0,1.52Z" transform="translate(-85.355 -21.838)" fill="#29abe2"/>
          <ellipse id="Ellipse_148" data-name="Ellipse 148" cx="0.748" cy="0.748" rx="0.748" ry="0.748" transform="translate(26.421 3.222)" fill="#29abe2"/>
          <path id="Path_10251" data-name="Path 10251" d="M289.809,308.571a.759.759,0,0,1-.657-.378,3.647,3.647,0,0,1-.493-1.834v-.1a.76.76,0,1,1,1.52,0v.1a2.125,2.125,0,0,0,.287,1.069.76.76,0,0,1-.656,1.142Z" transform="translate(-261.523 -274.55)" fill="#29abe2"/>
          <path id="Path_10252" data-name="Path 10252" d="M67.766,40.893l-5.429-5.429H63.3a2.381,2.381,0,1,0,0-4.762h-.745v-.436a.76.76,0,1,0-1.52,0V30.7H56.593a2.4,2.4,0,0,0-1.716.732,2.292,2.292,0,0,0-.668,1.655v.849H52.017a.76.76,0,0,0-.756.839.779.779,0,0,0,0,.079V47.729a2.624,2.624,0,0,1-2.621,2.621H24.95a2.624,2.624,0,0,1-2.621-2.621V4.14A2.624,2.624,0,0,1,24.95,1.52h2.958l.343,1.79a3.569,3.569,0,0,0,3.5,2.894H41.835a3.569,3.569,0,0,0,3.5-2.894l.343-1.79h2.958A2.624,2.624,0,0,1,51.257,4.14V19.676a.76.76,0,1,0,1.52,0V4.14A4.145,4.145,0,0,0,48.636,0H24.95a4.145,4.145,0,0,0-4.14,4.14V47.729a4.145,4.145,0,0,0,4.14,4.14H48.636a4.145,4.145,0,0,0,4.14-4.14V35.459h1.432V39.8a2.381,2.381,0,1,0,4.761,0v-.965L64.4,44.26l.008.008a2.466,2.466,0,0,0,1.7.682,2.348,2.348,0,0,0,1.652-.681l.009-.009a2.381,2.381,0,0,0,0-3.367ZM44.131,1.52l-.288,1.5a2.048,2.048,0,0,1-2.008,1.661H31.752a2.048,2.048,0,0,1-2.008-1.661l-.288-1.5ZM66.7,43.181a.9.9,0,0,1-1.227,0l-6.721-6.721a.76.76,0,0,0-1.3.537v2.8a.861.861,0,1,1-1.722,0V33.068a.777.777,0,0,1,.232-.567.917.917,0,0,1,.627-.278H63.3a.861.861,0,1,1,0,1.722H60.5a.76.76,0,0,0-.537,1.3l6.726,6.726a.861.861,0,0,1,0,1.213Z" transform="translate(-20.81 0)" fill="#29abe2"/>
          <path id="Path_10253" data-name="Path 10253" d="M123.111,213.851a.76.76,0,0,1-.76-.76V211.47a.76.76,0,1,1,1.52,0v1.621A.76.76,0,0,1,123.111,213.851Zm13.093-1.443a.76.76,0,0,1-.76-.76v-1.621a.76.76,0,1,1,1.52,0v1.621A.76.76,0,0,1,136.2,212.408Zm-12.714-3.657a.76.76,0,0,1-.659-1.137,3.654,3.654,0,0,1,1.447-1.408.76.76,0,1,1,.718,1.339,2.137,2.137,0,0,0-.846.823A.759.759,0,0,1,123.49,208.751Zm11.342-1.027a.755.755,0,0,1-.4-.114,2.124,2.124,0,0,0-1.119-.317h-.022a.76.76,0,0,1,0-1.52h.022a3.642,3.642,0,0,1,1.918.544.76.76,0,0,1-.4,1.406Zm-5.085-.431h-1.621a.76.76,0,1,1,0-1.52h1.621a.76.76,0,1,1,0,1.52Zm-11.711,24.383a.76.76,0,0,1-.76-.76V218.759a.76.76,0,0,1,1.52,0v12.158A.76.76,0,0,1,118.036,231.677Zm-9.517,0h-.008a4.852,4.852,0,0,1-2.649-.76,4.31,4.31,0,0,1-2.258-3.791v-8.366a.76.76,0,1,1,1.52,0v8.366a2.8,2.8,0,0,0,1.557,2.511,3.356,3.356,0,0,0,1.833.521,3.7,3.7,0,0,0,1.666-.378,2.893,2.893,0,0,0,1.873-2.662v-8.357a.76.76,0,0,1,1.52,0v8.357a4.391,4.391,0,0,1-2.709,4.02A5.158,5.158,0,0,1,108.519,231.677Z" transform="translate(-95.216 -184.927)" fill="#29abe2"/>
        </g>
      </g>
      <g id="Group_5517" data-name="Group 5517" transform="translate(9.182 291.319)">
        <circle id="Ellipse_156" data-name="Ellipse 156" cx="35.893" cy="35.893" r="35.893" fill="#fff"/>
        <g id="DS_referance" data-name="DS referance" transform="translate(13.356 16.694)">
          <path id="Path_10254" data-name="Path 10254" d="M42.288,6H4.622A3.626,3.626,0,0,0,1,9.622V32.8a3.626,3.626,0,0,0,3.622,3.622H19.109v2.9H16.936a2.173,2.173,0,0,0,0,4.346H29.974a2.173,2.173,0,0,0,0-4.346H27.8v-2.9H36.73l3,3a2.77,2.77,0,0,0,4.3-3.446A3.608,3.608,0,0,0,45.91,32.8V9.622A3.626,3.626,0,0,0,42.288,6ZM4.622,7.449H42.288A2.173,2.173,0,0,1,44.328,8.9H2.582a2.173,2.173,0,0,1,2.04-1.449ZM30.7,41.493a.724.724,0,0,1-.724.724H16.936a.724.724,0,0,1,0-1.449H29.974A.724.724,0,0,1,30.7,41.493ZM26.353,39.32H20.558v-2.9h5.795ZM4.622,34.974A2.173,2.173,0,0,1,2.449,32.8v-.724h21.8A8.62,8.62,0,0,0,33.7,33.4l1.577,1.578Zm25.353-16.66a7.244,7.244,0,1,1-7.244,7.244,7.244,7.244,0,0,1,7.244-7.244Zm11.714,20.47a1.321,1.321,0,0,1-.937-.388L35,32.64a8.751,8.751,0,0,0,1.9-1.846l5.729,5.73a1.325,1.325,0,0,1-.937,2.261ZM43,34.852l-5.311-5.31a8.644,8.644,0,0,0-1.987-10.5h.789V17.59H33.437a8.641,8.641,0,0,0-6.926,0H18.385v1.449h5.859a8.765,8.765,0,0,0-1.315,1.449H18.385v1.449h3.7a8.616,8.616,0,0,0,.846,8.692H2.449V10.346H44.461V30.628H40.84v1.449h3.622V32.8A2.164,2.164,0,0,1,43,34.852Z" transform="translate(-1 -6)" fill="#29abe2"/>
          <path id="Path_10255" data-name="Path 10255" d="M10.964,14.122,4.445,18.468l.8,1.205,1.047-.7v5.166a.724.724,0,0,0,.724.724h2.9a.724.724,0,0,0,.724-.724v-2.9h1.449v2.9a.724.724,0,0,0,.724.724h2.9a.724.724,0,0,0,.724-.724V18.975l1.047.7.8-1.205-6.519-4.346A.724.724,0,0,0,10.964,14.122Zm4.024,9.295H13.539v-2.9a.724.724,0,0,0-.724-.724h-2.9a.724.724,0,0,0-.724.724v2.9H7.744V18.009l3.622-2.416,3.622,2.414Zm28.974-5.795v-2.9A.724.724,0,0,0,43.238,14H20.059a.724.724,0,0,0-.724.724v2.9a.724.724,0,0,0,.724.724H43.238A.724.724,0,0,0,43.962,17.622ZM20.783,15.449H39.616V16.9H20.783ZM42.514,16.9H41.065V15.449h1.449Zm-3.622,2.9v0Zm.724,2.9v0ZM30.924,33.558a5.795,5.795,0,1,0-5.795-5.795,5.795,5.795,0,0,0,5.795,5.795Zm0-10.141a4.346,4.346,0,1,1-4.346,4.346,4.346,4.346,0,0,1,4.346-4.346Z" transform="translate(-1.95 -8.205)" fill="#29abe2"/>
        </g>
      </g>
      <g id="Group_5515" data-name="Group 5515" transform="translate(217.028 428.214)">
        <circle id="Ellipse_154" data-name="Ellipse 154" cx="35.893" cy="35.893" r="35.893" transform="translate(0 0)" fill="#fff"/>
        <g id="animation" transform="translate(13.356 13.356)">
          <path id="Path_10256" data-name="Path 10256" d="M12.136,76.957h9.893V75.638H15.918l2.056-4.661H24.94V69.658H3.3A1.981,1.981,0,0,1,1.319,67.68V41.3A1.981,1.981,0,0,1,3.3,39.319H14.7V38H3.3A3.3,3.3,0,0,0,0,41.3V67.68a3.3,3.3,0,0,0,3.3,3.3H16.532l-2.056,4.661H10.817V79.6h6.668V78.276H12.136Z" transform="translate(0 -34.658)" fill="#29abe2"/>
          <path id="Path_10257" data-name="Path 10257" d="M55,98.195a1.979,1.979,0,1,0-1.979,1.979A1.981,1.981,0,0,0,55,98.195Zm-2.638,0a.66.66,0,1,1,.66.66A.66.66,0,0,1,52.363,98.195ZM33.5,93.49h1.319v1.319H33.5ZM68.148,81.354a4.177,4.177,0,1,0-4.177-4.177A4.182,4.182,0,0,0,68.148,81.354Zm0-7.035a2.858,2.858,0,1,1-2.858,2.858A2.861,2.861,0,0,1,68.148,74.319Z" transform="translate(-30.554 -66.58)" fill="#29abe2"/>
          <path id="Path_10258" data-name="Path 10258" d="M99.555,38h-11.4v1.319h11.4a1.981,1.981,0,0,1,1.979,1.979v20.27H63.5v1.319h38.034V67.68a1.981,1.981,0,0,1-1.979,1.979H84.175v1.319h.7l2.638,5.98h3.2v1.319h-14V79.6H92.036V75.638H88.377l-2.056-4.661H99.555a3.3,3.3,0,0,0,3.3-3.3V41.3A3.3,3.3,0,0,0,99.555,38Z" transform="translate(-57.916 -34.658)" fill="#29abe2"/>
          <path id="Path_10259" data-name="Path 10259" d="M184.815,13.631A6.815,6.815,0,1,0,178,6.815,6.823,6.823,0,0,0,184.815,13.631Zm0-12.312a5.5,5.5,0,1,1-5.5,5.5A5.5,5.5,0,0,1,184.815,1.319Z" transform="translate(-162.347)" fill="#29abe2"/>
          <path id="Path_10260" data-name="Path 10260" d="M64.7,30.564v8.255l6.254-4.128Zm1.319,2.451,2.54,1.676-2.54,1.676ZM81.892,57.424h4.4v1.319h-4.4Zm-2.638,0h1.319v1.319H79.254ZM67.382,68.856H68.7v1.319H67.382ZM51.89,48.113l-.9-.963q-.5.466-.965.964l.962.9Q51.424,48.55,51.89,48.113Zm.96-.836a10.268,10.268,0,0,1,6.274-2.6h.1c2.892,0,5.534,1.391,7.853,4.136a18.506,18.506,0,0,1,2.683,4.253l.169.406H70.97l.129-.493c.017-.066,1.77-6.6,6.709-10.37l-.8-1.049a21.733,21.733,0,0,0-6.712,9.62,20.178,20.178,0,0,0-2.183-3.189c-2.55-3.03-5.623-4.632-8.885-4.632h-.119a11.539,11.539,0,0,0-7.088,2.9Zm-2.71,2.7-1.017-.84c-.535.648-.831,1.085-.843,1.1l1.094.737S49.65,50.57,50.14,49.977Z" transform="translate(-44.034 -27.876)" fill="#29abe2"/>
        </g>
      </g>
      <g id="Group_5516" data-name="Group 5516" transform="translate(68.447 377.296)">
        <circle id="Ellipse_155" data-name="Ellipse 155" cx="35.893" cy="35.893" r="35.893" transform="translate(0 0)" fill="#fff"/>
        <g id="graphic_interface" data-name="graphic interface" transform="translate(12.521 12.521)">
          <g id="Group_5509" data-name="Group 5509" transform="translate(0 0)" clip-path="url(#clip-path-3)">
            <path id="Path_10261" data-name="Path 10261" d="M7.946-60.594H.763A1.514,1.514,0,0,1-.75-62.107v-3.6a1.542,1.542,0,0,1,1.54-1.54H7.919a1.542,1.542,0,0,1,1.54,1.54v3.6A1.514,1.514,0,0,1,7.946-60.594ZM.79-66.023a.317.317,0,0,0-.317.317v3.6a.29.29,0,0,0,.29.29H7.946a.29.29,0,0,0,.29-.29v-3.6a.317.317,0,0,0-.317-.317Z" transform="translate(16.775 86.531)" fill="#29abe2"/>
            <path id="Path_10262" data-name="Path 10262" d="M-141.874-222.711h-6.848a.612.612,0,0,1-.465-.215l-3.507-4.109a.612.612,0,0,1-.067-.7l6.931-12.2a.612.612,0,0,1,.532-.309.612.612,0,0,1,.532.309l6.931,12.2a.612.612,0,0,1-.067.7l-3.507,4.109A.612.612,0,0,1-141.874-222.711Zm-6.566-1.223h6.284l3.046-3.569-6.188-10.888-6.188,10.888Z" transform="translate(166.427 243.219)" fill="#29abe2"/>
            <path id="Path_10263" data-name="Path 10263" d="M-.138,9.725A.612.612,0,0,1-.75,9.114V-.138A.612.612,0,0,1-.138-.75a.612.612,0,0,1,.612.612V9.114A.612.612,0,0,1-.138,9.725Z" transform="translate(21.268 3.988)" fill="#29abe2"/>
            <path id="Path_10264" data-name="Path 10264" d="M-43.615-23.27a2.147,2.147,0,0,1,2.144,2.145,2.147,2.147,0,0,1-2.144,2.145,2.147,2.147,0,0,1-2.144-2.145A2.147,2.147,0,0,1-43.615-23.27Zm0,3.067a.922.922,0,0,0,.921-.922.922.922,0,0,0-.921-.922.922.922,0,0,0-.921.922A.922.922,0,0,0-43.615-20.2Z" transform="translate(64.745 35.76)" fill="#29abe2"/>
            <path id="Path_10265" data-name="Path 10265" d="M11.328.473H-.138A.612.612,0,0,1-.75-.138.612.612,0,0,1-.138-.75H11.328a.612.612,0,0,1,.612.612A.612.612,0,0,1,11.328.473Z" transform="translate(22.786 2.335)" fill="#29abe2"/>
            <path id="Path_10266" data-name="Path 10266" d="M11.328.473H-.138A.612.612,0,0,1-.75-.138.612.612,0,0,1-.138-.75H11.328a.612.612,0,0,1,.612.612A.612.612,0,0,1,11.328.473Z" transform="translate(8.283 2.335)" fill="#29abe2"/>
            <path id="Path_10267" data-name="Path 10267" d="M292.076-668.042h-2.857a.612.612,0,0,1-.612-.612v-2.856a.612.612,0,0,1,.612-.612h2.857a.612.612,0,0,1,.612.612v2.856A.612.612,0,0,1,292.076-668.042Zm-2.246-1.223h1.634V-670.9H289.83Z" transform="translate(-269.517 672.279)" fill="#29abe2"/>
            <path id="Path_10268" data-name="Path 10268" d="M-43.177-23.019a2.13,2.13,0,0,1,2.128,2.128,2.13,2.13,0,0,1-2.128,2.128,2.13,2.13,0,0,1-2.128-2.128A2.13,2.13,0,0,1-43.177-23.019Zm0,3.032a.906.906,0,0,0,.905-.9.906.906,0,0,0-.905-.9.906.906,0,0,0-.905.9A.906.906,0,0,0-43.177-19.987Z" transform="translate(49.805 23.089)" fill="#29abe2"/>
            <path id="Path_10269" data-name="Path 10269" d="M-43.176-23.019a2.13,2.13,0,0,1,2.128,2.128,2.13,2.13,0,0,1-2.128,2.128A2.13,2.13,0,0,1-45.3-20.892,2.13,2.13,0,0,1-43.176-23.019Zm0,3.032a.906.906,0,0,0,.905-.9.906.906,0,0,0-.905-.9.906.906,0,0,0-.905.9A.906.906,0,0,0-43.176-19.987Z" transform="translate(78.807 23.089)" fill="#29abe2"/>
            <path id="Path_10270" data-name="Path 10270" d="M-290.3-336.008h-19.054a2.757,2.757,0,0,1-2.756-2.752v-20.3a2.757,2.757,0,0,1,2.756-2.752h16.528a.612.612,0,0,1,.612.612.612.612,0,0,1-.612.612h-16.528a1.533,1.533,0,0,0-1.533,1.529v20.3a1.533,1.533,0,0,0,1.533,1.529H-290.3a.612.612,0,0,1,.612.612A.612.612,0,0,1-290.3-336.008Z" transform="translate(312.172 367.555)" fill="#29abe2"/>
            <path id="Path_10271" data-name="Path 10271" d="M18.621,20.1a.612.612,0,0,1-.612-.612V2A1.533,1.533,0,0,0,16.477.473H-.138A.612.612,0,0,1-.75-.138.612.612,0,0,1-.138-.75H16.477A2.757,2.757,0,0,1,19.233,2V19.49A.612.612,0,0,1,18.621,20.1Z" transform="translate(22.968 6.491)" fill="#29abe2"/>
            <path id="Path_10272" data-name="Path 10272" d="M40.782.473H-.138A.612.612,0,0,1-.75-.138.612.612,0,0,1-.138-.75H40.782a.612.612,0,0,1,.612.612A.612.612,0,0,1,40.782.473Z" transform="translate(0.807 25.453)" fill="#29abe2"/>
            <path id="Path_10273" data-name="Path 10273" d="M-119.863-33.79h-8.747a.612.612,0,0,1-.612-.612,3.118,3.118,0,0,1,3.115-3.115h6.244a.612.612,0,0,1,.612.612.612.612,0,0,1-.612.612h-6.244a1.9,1.9,0,0,0-1.79,1.28h8.034a.612.612,0,0,1,.612.612A.612.612,0,0,1-119.863-33.79Z" transform="translate(141.731 73.48)" fill="#29abe2"/>
            <path id="Path_10274" data-name="Path 10274" d="M-.138-76.723a.615.615,0,0,1-.064,0A.612.612,0,0,1-.747-77.4l.588-5.64a.612.612,0,0,1,.608-.548H4.631a.612.612,0,0,1,.612.612.612.612,0,0,1-.612.612H1L.47-77.271A.612.612,0,0,1-.138-76.723Z" transform="translate(17.249 113.909)" fill="#29abe2"/>
            <path id="Path_10275" data-name="Path 10275" d="M-235.783,18.12h-21.993a1.576,1.576,0,0,1-1.574-1.574V.824A1.576,1.576,0,0,1-257.777-.75h16.644a.612.612,0,0,1,.612.612.612.612,0,0,1-.612.612h-16.644a.351.351,0,0,0-.351.351V16.546a.351.351,0,0,0,.351.351h21.993a.351.351,0,0,0,.351-.351V.824a.351.351,0,0,0-.351-.351h-2a.612.612,0,0,1-.612-.612.612.612,0,0,1,.612-.612h2A1.576,1.576,0,0,1-234.209.824V16.546A1.576,1.576,0,0,1-235.783,18.12Z" transform="translate(280.607 28.29)" fill="#29abe2"/>
            <path id="Path_10276" data-name="Path 10276" d="M-.138,18.12a.612.612,0,0,1-.612-.612V-.138A.612.612,0,0,1-.138-.75a.612.612,0,0,1,.612.612V17.508A.612.612,0,0,1-.138,18.12Z" transform="translate(27.031 28.29)" fill="#29abe2"/>
            <path id="Path_10277" data-name="Path 10277" d="M-.138,2.245A.612.612,0,0,1-.75,1.634V-.138A.612.612,0,0,1-.138-.75a.612.612,0,0,1,.612.612V1.634A.612.612,0,0,1-.138,2.245Z" transform="translate(24.463 41.182)" fill="#29abe2"/>
            <path id="Path_10278" data-name="Path 10278" d="M-9-18.638A.681.681,0,0,0-9-20a.681.681,0,0,0,0,1.362" transform="translate(33.326 57.672)" fill="#29abe2"/>
            <path id="Path_10279" data-name="Path 10279" d="M-9-18.638A.681.681,0,0,0-9-20a.681.681,0,0,0,0,1.362" transform="translate(33.326 54.916)" fill="#29abe2"/>
            <path id="Path_10280" data-name="Path 10280" d="M-.138-23.783a.612.612,0,0,1-.612-.612v-1.772a.612.612,0,0,1,.612-.612.612.612,0,0,1,.612.612v1.772A.612.612,0,0,1-.138-23.783Z" transform="translate(24.463 57.3)" fill="#29abe2"/>
            <path id="Path_10281" data-name="Path 10281" d="M-148.35-27.3a1.052,1.052,0,0,1,.75.312l1.039,1.043a1.052,1.052,0,0,1,.309.75,1.052,1.052,0,0,1-.312.748l-9.057,9.06a.612.612,0,0,1-.433.179.612.612,0,0,1-.433-.18l-1.671-1.677a.612.612,0,0,1,0-.864l9.058-9.062A1.053,1.053,0,0,1-148.35-27.3Zm.808,2.1-.808-.811-8.509,8.513.808.811Z" transform="translate(192.285 50.561)" fill="#29abe2"/>
            <path id="Path_10282" data-name="Path 10282" d="M-28.654-9.052a.612.612,0,0,1-.433-.18L-29.3-9.45a.612.612,0,0,1-.178-.44,5.2,5.2,0,0,1,1.277-2.97.612.612,0,0,1,.439-.2.612.612,0,0,1,.449.18l1.671,1.677a.612.612,0,0,1,.178.449.612.612,0,0,1-.2.438,5.2,5.2,0,0,1-2.975,1.267Zm.971-2.465a3.862,3.862,0,0,0-.522,1.187,3.858,3.858,0,0,0,1.189-.518Z" transform="translate(62.313 45.518)" fill="#29abe2"/>
            <path id="Path_10283" data-name="Path 10283" d="M-.138-13.041a.61.61,0,0,1-.433-.179.612.612,0,0,1,0-.865l.988-.987a.612.612,0,0,1,.865,0,.612.612,0,0,1,0,.865l-.988.987A.61.61,0,0,1-.138-13.041Z" transform="translate(44.913 38.18)" fill="#29abe2"/>
          </g>
        </g>
      </g>
      <g id="Group_5518" data-name="Group 5518" transform="translate(0 166.11)">
        <circle id="Ellipse_157" data-name="Ellipse 157" cx="35.893" cy="35.893" r="35.893" fill="#fff"/>
        <g id="analyses" transform="translate(15.025 10.851)">
          <path id="Path_10285" data-name="Path 10285" d="M92.923,10.533V54.706H89.132m-1.516,0h-32.6V15.839m0-1.516V10.533M53.5,7.5H94.439v3.033H53.5ZM75.486,54.706v1.516a1.516,1.516,0,1,1-3.033,0V54.706M59.944,16.6H88v3.791H59.944Zm29.188-3.032h1.516m-4.549,0h1.516" transform="translate(-53.5 -7.5)" fill="none" stroke="#29abe2" stroke-miterlimit="22.926" stroke-width="1" fill-rule="evenodd"/>
          <ellipse id="Ellipse_149" data-name="Ellipse 149" cx="6.823" cy="6.823" rx="6.823" ry="6.823" transform="translate(20.849 16.679)" fill="none" stroke="#29abe2" stroke-miterlimit="22.926" stroke-width="1"/>
          <path id="Path_10286" data-name="Path 10286" d="M126.91,192.268l4.825,4.825h6.823m-6.823,6.823v-6.823m-2.275,19.914H109.749m2.274,0V211.7h3.033v5.307m9.1,0v-9.856h3.033v9.856m-9.1,0v-7.581h3.033v7.581m-8.339-22.946h9.1m-12.13,6.065h1.516m-1.516-3.033h1.516m-1.516-3.033h1.516m1.516,6.065h9.1m-9.1-3.033h9.1m13.647,11.954h3.791m-6.823,6.065h1.516m-1.516-3.032h1.516m-1.516-3.033h1.516m1.516,6.065h3.791m-3.791-3.032h3.791" transform="translate(-104.063 -173.591)" fill="none" stroke="#29abe2" stroke-miterlimit="22.926" stroke-width="1" fill-rule="evenodd"/>
        </g>
      </g>
      <g id="Group_5519" data-name="Group 5519" transform="translate(71.786 45.91)">
        <circle id="Ellipse_158" data-name="Ellipse 158" cx="35.893" cy="35.893" r="35.893" transform="translate(0 0)" fill="#fff"/>
        <g id="interface_arcticutre" data-name="interface arcticutre" transform="translate(15.025 15.025)">
          <path id="Path_10287" data-name="Path 10287" d="M38.741,41.939H4.2a3.167,3.167,0,0,1-3.2-3.2V4.2A3.167,3.167,0,0,1,4.2,1H38.741a3.167,3.167,0,0,1,3.2,3.2V38.741A3.167,3.167,0,0,1,38.741,41.939ZM4.2,2.279A1.885,1.885,0,0,0,2.279,4.2V38.741A1.885,1.885,0,0,0,4.2,40.66H38.741a1.885,1.885,0,0,0,1.919-1.919V4.2a1.885,1.885,0,0,0-1.919-1.919Z" transform="translate(-1 -1)" fill="#29abe2"/>
          <path id="Path_10288" data-name="Path 10288" d="M41.3,11.033H1.64a.64.64,0,1,1,0-1.279H41.3a.64.64,0,0,1,0,1.279ZM6.245,8.666A1.983,1.983,0,1,1,8.228,6.683,1.993,1.993,0,0,1,6.245,8.666Zm0-2.687a.7.7,0,1,0,.7.7A.71.71,0,0,0,6.245,5.979Zm5.5,2.687A1.983,1.983,0,1,1,13.73,6.683,1.993,1.993,0,0,1,11.747,8.666Zm0-2.687a.7.7,0,1,0,.7.7A.71.71,0,0,0,11.747,5.979Zm26.674,16.7H4.582a.6.6,0,0,1-.64-.64V13.719a.6.6,0,0,1,.64-.64H38.421a.6.6,0,0,1,.64.64v8.316A.6.6,0,0,1,38.421,22.675ZM5.222,21.4h32.56V14.359H5.222Z" transform="translate(-1 -2.333)" fill="#29abe2"/>
          <path id="Path_10289" data-name="Path 10289" d="M40.032,27.412H39.9L6.129,19.1a.628.628,0,0,1,.32-1.215L40.224,26.2a.607.607,0,0,1,.448.768A.635.635,0,0,1,40.032,27.412Z" transform="translate(-2.675 -7.071)" fill="#29abe2"/>
          <path id="Path_10290" data-name="Path 10290" d="M6.233,27.388a.673.673,0,0,1-.64-.512.658.658,0,0,1,.448-.768l33.775-8.316a.628.628,0,0,1,.32,1.215L6.361,27.324C6.361,27.388,6.3,27.388,6.233,27.388Zm9.339,10.3H6.233a.6.6,0,0,1-.64-.64V30.2a.6.6,0,0,1,.64-.64h9.339a.6.6,0,0,1,.64.64v6.845A.6.6,0,0,1,15.572,37.687Zm-8.7-1.279h8.06V30.842H6.872Z" transform="translate(-2.651 -7.047)" fill="#29abe2"/>
          <path id="Path_10291" data-name="Path 10291" d="M15.524,44.333a.909.909,0,0,1-.384-.128L5.865,37.361a.64.64,0,0,1,.768-1.023l9.275,6.845a.688.688,0,0,1,.128.9.582.582,0,0,1-.512.256Z" transform="translate(-2.667 -13.693)" fill="#29abe2"/>
          <path id="Path_10292" data-name="Path 10292" d="M6.249,44.324a.582.582,0,0,1-.512-.256.677.677,0,0,1,.128-.9l9.275-6.845a.64.64,0,1,1,.768,1.023L6.633,44.2A.909.909,0,0,1,6.249,44.324Zm21.557,0H18.467a.6.6,0,0,1-.64-.64V36.84a.6.6,0,0,1,.64-.64h9.339a.6.6,0,0,1,.64.64v6.845a.6.6,0,0,1-.64.64Zm-8.7-1.279h8.06V37.479h-8.06Z" transform="translate(-2.667 -13.683)" fill="#29abe2"/>
          <path id="Path_10293" data-name="Path 10293" d="M34.688,44.333a.909.909,0,0,1-.384-.128l-9.339-6.845a.64.64,0,0,1,.768-1.023l9.339,6.845a.688.688,0,0,1,.128.9A.582.582,0,0,1,34.688,44.333Z" transform="translate(-9.549 -13.693)" fill="#29abe2"/>
          <path id="Path_10294" data-name="Path 10294" d="M25.349,44.324a.582.582,0,0,1-.512-.256.688.688,0,0,1,.128-.9L34.3,36.328a.64.64,0,1,1,.768,1.023L25.733,44.2A.909.909,0,0,1,25.349,44.324Zm21.621,0H37.631a.6.6,0,0,1-.64-.64V36.84a.6.6,0,0,1,.64-.64H46.97a.6.6,0,0,1,.64.64v6.845A.6.6,0,0,1,46.97,44.324Zm-8.7-1.279h8.06V37.479H38.27Z" transform="translate(-9.549 -13.683)" fill="#29abe2"/>
          <path id="Path_10295" data-name="Path 10295" d="M53.824,44.333a.909.909,0,0,1-.384-.128l-9.275-6.845a.64.64,0,0,1,.768-1.023l9.275,6.845a.688.688,0,0,1,.128.9A.582.582,0,0,1,53.824,44.333Z" transform="translate(-16.467 -13.693)" fill="#29abe2"/>
          <path id="Path_10296" data-name="Path 10296" d="M30.739,44.333a.582.582,0,0,1-.512-.256.688.688,0,0,1,.128-.9l9.275-6.845a.64.64,0,0,1,.768,1.023l-9.275,6.845A.909.909,0,0,1,30.739,44.333ZM15.515,47.979H6.24a.64.64,0,1,1,0-1.279h9.275a.64.64,0,1,1,0,1.279Zm12.282,0H18.457a.64.64,0,1,1,0-1.279H27.8a.64.64,0,1,1,0,1.279Zm12.218,0H30.739a.64.64,0,1,1,0-1.279h9.275a.64.64,0,1,1,0,1.279Zm-1.983,3.646H32.722a.64.64,0,1,1,0-1.279h5.309a.64.64,0,1,1,0,1.279Zm-12.282,0H20.5a.64.64,0,1,1,0-1.279H25.75a.64.64,0,1,1,0,1.279Zm-12.218,0H8.223a.64.64,0,1,1,0-1.279h5.309a.64.64,0,1,1,0,1.279Z" transform="translate(-2.657 -13.693)" fill="#29abe2"/>
        </g>
      </g>
    </g>
  </g>
</svg>
