<svg id="exist" xmlns="http://www.w3.org/2000/svg" width="16" height="16" viewBox="0 0 16 16">
  <path id="Path_18739" data-name="Path 18739" d="M8,15a7,7,0,1,0-4.95-2.05A7,7,0,0,0,8,15Zm0,1a8,8,0,1,0-5.657-2.343A8,8,0,0,0,8,16Z" fill="#fff" fill-rule="evenodd"/>
  <path id="Path_18740" data-name="Path 18740" d="M8.93,6.578l-2.29.287-.082.38.45.083c.294.07.352.176.288.469l-.738,3.468c-.194.9.105,1.319.808,1.319a2.071,2.071,0,0,0,1.465-.6l.088-.416a1.108,1.108,0,0,1-.686.246c-.275,0-.375-.193-.3-.533Z" fill="#fff"/>
  <path id="Path_18741" data-name="Path 18741" d="M8,5.5a1,1,0,1,0-1-1A1,1,0,0,0,8,5.5Z" fill="#fff"/>
</svg>
