<svg width="24" height="24" viewBox="0 0 24 24" fill="none" xmlns="http://www.w3.org/2000/svg">
<path d="M9.56719 20.8724C8.57115 20.1422 7.79644 19.749 5.91502 20.086C5.63834 20.1422 5.14032 20.3107 5.08498 19.8052C4.97431 19.412 4.97431 18.7942 4.69763 18.738C2.98221 18.5133 2.37352 18.1763 2.09684 17.8393C1.98617 17.727 1.93083 17.4461 2.15217 17.39C5.08498 16.8283 6.46838 13.9637 6.74506 13.4021C7.07708 12.5595 6.52372 12.054 5.47233 11.717C4.97431 11.5485 4.14427 11.3239 4.14427 10.7622C4.14427 10.4813 4.42095 10.3128 4.69763 10.2005C4.91897 10.1443 5.14032 10.0882 5.36166 10.2005C6.02569 10.4813 6.63439 10.5937 6.9664 10.3128C6.9664 8.7963 6.57905 6.8866 7.18775 5.3139C7.90711 3.5727 9.67787 2 12.5 2C15.3221 2 17.0929 3.5727 17.8123 5.3139C18.4209 6.8866 18.0336 8.7963 18.0336 10.3128C18.3656 10.5937 18.9743 10.4813 19.6383 10.2005C19.8597 10.0882 20.081 10.1443 20.3024 10.2005C20.5791 10.3128 20.8557 10.4813 20.8557 10.7622C20.8557 11.3239 20.0257 11.5485 19.5277 11.717C18.4763 12.054 17.9229 12.5595 18.2549 13.4021C18.5316 13.9637 19.915 16.8283 22.8478 17.39C23.0692 17.4461 23.0138 17.727 22.9032 17.8393C22.6265 18.1763 22.0178 18.5133 20.3024 18.738C20.0257 18.7942 20.0257 19.412 19.915 19.8052C19.8597 20.3107 19.3617 20.1422 19.085 20.086C17.2036 19.749 16.4289 20.1422 15.4328 20.8724C14.6177 21.5886 13.578 21.9868 12.5 21.9957C11.3379 22.0519 10.3972 21.5464 9.56719 20.8724Z" fill="#29ABE2"/>
</svg>
