<svg width="24" height="24" viewBox="0 0 24 24" fill="none" xmlns="http://www.w3.org/2000/svg">
<path d="M2.33418 8.72994H6.53691V22.2525H2.33418V8.72994ZM4.4367 2C4.91874 2 5.38994 2.14297 5.79071 2.41082C6.19147 2.67867 6.50379 3.05937 6.68815 3.50475C6.87251 3.95014 6.92062 4.4402 6.82642 4.91294C6.73221 5.38567 6.4999 5.81985 6.15889 6.16053C5.81788 6.50122 5.38348 6.73311 4.91066 6.82687C4.43783 6.92063 3.94782 6.87204 3.50261 6.68726C3.0574 6.50247 2.677 6.18979 2.40953 5.78878C2.14206 5.38776 1.99954 4.91642 2 4.43438C2.00062 3.78853 2.25761 3.16934 2.71451 2.71287C3.17142 2.2564 3.79085 2 4.4367 2Z" fill="#29ABE2"/>
<path d="M9.17188 8.73349H13.2006V10.59H13.2563C13.8179 9.52716 15.1871 8.40627 17.2316 8.40627C21.4877 8.39699 22.2767 11.198 22.2767 14.8299V22.256H18.074V15.6769C18.074 14.1105 18.0461 12.0938 15.8902 12.0938C13.7343 12.0938 13.3676 13.8018 13.3676 15.5748V22.256H9.17188V8.73349Z" fill="#29ABE2"/>
</svg>
