<svg width="24" height="24" viewBox="0 0 24 24" fill="none" xmlns="http://www.w3.org/2000/svg">
<path fill-rule="evenodd" clip-rule="evenodd" d="M7.52718 3.12858C5.0979 3.12858 3.12858 5.0979 3.12858 7.52718V16.4726C3.12858 18.9019 5.0979 20.8712 7.52718 20.8712H16.4726C18.9019 20.8712 20.8712 18.9019 20.8712 16.4726V7.52718C20.8712 5.0979 18.9019 3.12858 16.4726 3.12858H7.52718ZM2 7.52718C2 4.4746 4.4746 2 7.52718 2H16.4726C19.5252 2 21.9998 4.4746 21.9998 7.52718V16.4726C21.9998 19.5252 19.5252 21.9998 16.4726 21.9998H7.52718C4.4746 21.9998 2 19.5252 2 16.4726V7.52718Z" fill="#29ABE2"/>
<path fill-rule="evenodd" clip-rule="evenodd" d="M11.9992 8.1442C9.87445 8.1442 8.15202 9.86664 8.15202 11.9914C8.15202 14.1161 9.87445 15.8385 11.9992 15.8385C14.1239 15.8385 15.8464 14.1161 15.8464 11.9914C15.8464 9.86664 14.1239 8.1442 11.9992 8.1442ZM7.02344 11.9914C7.02344 9.24334 9.25116 7.01562 11.9992 7.01562C14.7472 7.01562 16.9749 9.24334 16.9749 11.9914C16.9749 14.7394 14.7472 16.9671 11.9992 16.9671C9.25116 16.9671 7.02344 14.7394 7.02344 11.9914Z" fill="#29ABE2"/>
<path fill-rule="evenodd" clip-rule="evenodd" d="M17.5764 6.62858C17.6851 6.62858 17.7731 6.54053 17.7731 6.43191C17.7731 6.32329 17.6851 6.23524 17.5764 6.23524C17.4678 6.23524 17.3798 6.32329 17.3798 6.43191C17.3798 6.54053 17.4678 6.62858 17.5764 6.62858ZM16.6445 6.43191C16.6445 5.91723 17.0618 5.5 17.5764 5.5C18.0911 5.5 18.5084 5.91723 18.5084 6.43191C18.5084 6.94659 18.0911 7.36382 17.5764 7.36382C17.0618 7.36382 16.6445 6.94659 16.6445 6.43191Z" fill="#29ABE2"/>
</svg>
