<svg width="24" height="24" viewBox="0 0 24 24" fill="none" xmlns="http://www.w3.org/2000/svg">
<path d="M23.0176 5.09299C22.2588 5.59632 21.3679 5.86358 20.4574 5.86105C21.4308 5.28758 22.1597 4.37648 22.5055 3.30087C21.6986 3.98303 20.6817 4.36718 19.6253 4.38894C18.9288 3.67557 18.0197 3.20733 17.0345 3.05448C16.0493 2.90163 15.041 3.07243 14.1611 3.54124C13.2812 4.01005 12.5771 4.75158 12.1544 5.65455C11.7317 6.55752 11.6132 7.57323 11.8168 8.54924C10.0242 8.4546 8.27161 7.98402 6.67274 7.16804C5.07387 6.35207 3.66449 5.20895 2.53611 3.8129C1.98395 4.81204 1.82228 5.98055 2.08242 7.09207C2.34256 8.2036 3.006 9.179 3.94421 9.82933C3.23614 9.83933 2.53529 9.68602 1.89606 9.3813C1.91328 10.4123 2.27578 11.4077 2.92557 12.2084C3.57537 13.009 4.47492 13.5686 5.48032 13.7976C4.81106 13.9724 4.11104 13.9943 3.43217 13.8616C3.72502 14.775 4.29557 15.5742 5.06428 16.1479C5.83299 16.7215 6.76154 17.041 7.72047 17.0618C5.6952 18.2904 3.36875 18.933 1 18.918C2.98384 20.2131 5.28819 20.9323 7.65653 20.9954C10.0249 21.0586 12.3643 20.4633 14.4143 19.2757C16.4644 18.0881 18.1446 16.3549 19.268 14.269C20.3915 12.1831 20.914 9.8264 20.7774 7.46116C21.622 6.77046 22.3748 5.97462 23.0176 5.09299Z" fill="#29ABE2"/>
</svg>
