<svg width="24" height="24" viewBox="0 0 24 24" fill="none" xmlns="http://www.w3.org/2000/svg">
<path d="M20.4 0H3.6C1.61177 0 0 1.61177 0 3.6V20.4C0 22.3882 1.61177 24 3.6 24H20.4C22.3882 24 24 22.3882 24 20.4V3.6C24 1.61177 22.3882 0 20.4 0Z" fill="black"/>
<path d="M20.4 0H3.6C1.61177 0 0 1.61177 0 3.6V20.4C0 22.3882 1.61177 24 3.6 24H20.4C22.3882 24 24 22.3882 24 20.4V3.6C24 1.61177 22.3882 0 20.4 0Z" fill="url(#paint0_radial_21_150)"/>
<path d="M20.4 0H3.6C1.61177 0 0 1.61177 0 3.6V20.4C0 22.3882 1.61177 24 3.6 24H20.4C22.3882 24 24 22.3882 24 20.4V3.6C24 1.61177 22.3882 0 20.4 0Z" fill="url(#paint1_linear_21_150)"/>
<path fill-rule="evenodd" clip-rule="evenodd" d="M8.5782 5.21498C6.71967 5.21498 5.21303 6.72162 5.21303 8.58015V15.4239C5.21303 17.2824 6.71967 18.7891 8.5782 18.7891H15.4219C17.2805 18.7891 18.7871 17.2824 18.7871 15.4239V8.58015C18.7871 6.72162 17.2805 5.21498 15.4219 5.21498H8.5782ZM4.34961 8.58015C4.34961 6.24477 6.24281 4.35156 8.5782 4.35156H15.4219C17.7573 4.35156 19.6505 6.24477 19.6505 8.58015V15.4239C19.6505 17.7593 17.7573 19.6525 15.4219 19.6525H8.5782C6.24281 19.6525 4.34961 17.7593 4.34961 15.4239V8.58015Z" fill="white"/>
<path fill-rule="evenodd" clip-rule="evenodd" d="M12.0001 9.05873C10.3745 9.05873 9.05678 10.3765 9.05678 12.002C9.05678 13.6276 10.3745 14.9453 12.0001 14.9453C13.6256 14.9453 14.9434 13.6276 14.9434 12.002C14.9434 10.3765 13.6256 9.05873 12.0001 9.05873ZM8.19336 12.002C8.19336 9.89964 9.89768 8.19531 12.0001 8.19531C14.1025 8.19531 15.8068 9.89964 15.8068 12.002C15.8068 14.1044 14.1025 15.8087 12.0001 15.8087C9.89768 15.8087 8.19336 14.1044 8.19336 12.002Z" fill="white"/>
<path fill-rule="evenodd" clip-rule="evenodd" d="M16.2657 7.88686C16.3488 7.88686 16.4162 7.8195 16.4162 7.7364C16.4162 7.6533 16.3488 7.58594 16.2657 7.58594C16.1826 7.58594 16.1152 7.6533 16.1152 7.7364C16.1152 7.8195 16.1826 7.88686 16.2657 7.88686ZM15.5527 7.7364C15.5527 7.34264 15.8719 7.02344 16.2657 7.02344C16.6595 7.02344 16.9787 7.34264 16.9787 7.7364C16.9787 8.13016 16.6595 8.44936 16.2657 8.44936C15.8719 8.44936 15.5527 8.13016 15.5527 7.7364Z" fill="white"/>
<defs>
<radialGradient id="paint0_radial_21_150" cx="0" cy="0" r="1" gradientUnits="userSpaceOnUse" gradientTransform="translate(9.6 24) scale(24)">
<stop offset="0.1" stop-color="#FFDD55"/>
<stop offset="0.5" stop-color="#FF543E"/>
<stop offset="1" stop-color="#C837AB"/>
</radialGradient>
<linearGradient id="paint1_linear_21_150" x1="0" y1="0" x2="4.8" y2="24" gradientUnits="userSpaceOnUse">
<stop offset="0.1" stop-color="#3771C8"/>
<stop offset="0.5" stop-color="#6600FF" stop-opacity="0"/>
</linearGradient>
</defs>
</svg>
