<svg width="24" height="24" viewBox="0 0 24 24" fill="none" xmlns="http://www.w3.org/2000/svg">
<path d="M20.4 0H3.6C1.61177 0 0 1.61177 0 3.6V20.4C0 22.3882 1.61177 24 3.6 24H20.4C22.3882 24 24 22.3882 24 20.4V3.6C24 1.61177 22.3882 0 20.4 0Z" fill="#0076B2"/>
<path d="M3.55281 8.99394H7.1154V20.4568H3.55281V8.99394ZM5.33509 3.28906C5.7437 3.28906 6.14313 3.41026 6.48286 3.63731C6.82258 3.86436 7.08733 4.18707 7.2436 4.56462C7.39988 4.94217 7.44067 5.35758 7.36081 5.75832C7.28095 6.15905 7.08403 6.52709 6.79496 6.81589C6.50589 7.10468 6.13766 7.30125 5.73685 7.38073C5.33604 7.46021 4.92067 7.41902 4.54327 7.26238C4.16587 7.10574 3.84341 6.84069 3.61668 6.50075C3.38996 6.16081 3.26914 5.76127 3.26953 5.35265C3.27005 4.80517 3.4879 4.2803 3.87521 3.89335C4.26253 3.50641 4.78761 3.28906 5.33509 3.28906Z" fill="white"/>
<path d="M9.34961 8.99614H12.7647V10.5699H12.8119C13.2879 9.66893 14.4486 8.71877 16.1817 8.71877C19.7895 8.7109 20.4584 11.0853 20.4584 14.164V20.459H16.8958V14.882C16.8958 13.5541 16.8722 11.8446 15.0446 11.8446C13.2171 11.8446 12.9063 13.2925 12.9063 14.7954V20.459H9.34961V8.99614Z" fill="white"/>
</svg>
