<svg width="24" height="24" viewBox="0 0 24 24" fill="none" xmlns="http://www.w3.org/2000/svg">
<path d="M20.4 0H3.6C1.61177 0 0 1.61177 0 3.6V20.4C0 22.3882 1.61177 24 3.6 24H20.4C22.3882 24 24 22.3882 24 20.4V3.6C24 1.61177 22.3882 0 20.4 0Z" fill="#FFFC00"/>
<path d="M9.51563 19.4062C8.67188 18.7969 8.01563 18.4687 6.42188 18.75C6.1875 18.7969 5.76563 18.9375 5.71875 18.5156C5.625 18.1875 5.625 17.6719 5.39063 17.625C3.9375 17.4375 3.42188 17.1562 3.1875 16.875C3.09375 16.7812 3.04687 16.5469 3.23438 16.5C5.71875 16.0312 6.89063 13.6406 7.125 13.1719C7.40625 12.4687 6.9375 12.0469 6.04688 11.7656C5.625 11.625 4.92188 11.4375 4.92188 10.9687C4.92188 10.7344 5.15625 10.5937 5.39063 10.5C5.57813 10.4531 5.76563 10.4062 5.95313 10.5C6.51563 10.7344 7.03125 10.8281 7.3125 10.5937C7.3125 9.32812 6.98438 7.73437 7.5 6.42187C8.10938 4.96875 9.60938 3.65625 12 3.65625C14.3906 3.65625 15.8906 4.96875 16.5 6.42187C17.0156 7.73437 16.6875 9.32812 16.6875 10.5937C16.9688 10.8281 17.4844 10.7344 18.0469 10.5C18.2344 10.4062 18.4219 10.4531 18.6094 10.5C18.8438 10.5937 19.0781 10.7344 19.0781 10.9687C19.0781 11.4375 18.375 11.625 17.9531 11.7656C17.0625 12.0469 16.5938 12.4687 16.875 13.1719C17.1094 13.6406 18.2813 16.0312 20.7656 16.5C20.9531 16.5469 20.9063 16.7812 20.8125 16.875C20.5781 17.1562 20.0625 17.4375 18.6094 17.625C18.375 17.6719 18.375 18.1875 18.2813 18.5156C18.2344 18.9375 17.8125 18.7969 17.5781 18.75C15.9844 18.4687 15.3281 18.7969 14.4844 19.4062C13.7939 20.004 12.9132 20.3363 12 20.3437C11.0156 20.3906 10.2188 19.9687 9.51563 19.4062Z" fill="white"/>
<path fill-rule="evenodd" clip-rule="evenodd" d="M7.57739 6.44982C7.32594 7.09041 7.27885 7.80345 7.29633 8.52018C7.30434 8.84866 7.32582 9.17603 7.34687 9.49679C7.34878 9.5259 7.35068 9.55495 7.35258 9.58395C7.37526 9.93161 7.39596 10.2711 7.39596 10.5906V10.6293L7.36619 10.6541C7.20124 10.7916 6.9756 10.8263 6.73076 10.8018C6.48493 10.7772 6.20689 10.6919 5.92202 10.5732L5.91938 10.5721L5.91684 10.5708C5.76229 10.4935 5.60679 10.5283 5.41691 10.5757C5.30466 10.621 5.1996 10.6748 5.12327 10.741C5.04708 10.807 5.00534 10.8797 5.00534 10.9656C5.00534 11.1514 5.14341 11.2943 5.36612 11.4142C5.5507 11.5136 5.77108 11.5852 5.96464 11.6482C6.00194 11.6603 6.03825 11.6721 6.07312 11.6837C6.52211 11.8256 6.88045 12.0071 7.08928 12.2539C7.19508 12.3789 7.26267 12.521 7.28323 12.6814C7.30372 12.8411 7.27684 13.0137 7.20255 13.1994L7.20127 13.2026L7.19973 13.2057C7.19714 13.2109 7.19443 13.2163 7.19161 13.2219C6.94042 13.7249 5.75207 16.1046 3.25308 16.5776C3.22534 16.585 3.21163 16.5972 3.20381 16.6087C3.19493 16.6217 3.18893 16.6408 3.18893 16.6667C3.18893 16.7216 3.2158 16.7824 3.24673 16.8133L3.24938 16.816L3.25178 16.8188C3.46412 17.0736 3.95022 17.3524 5.40193 17.5397L5.40477 17.5401L5.40757 17.5407C5.49832 17.5588 5.55908 17.6219 5.6001 17.6935C5.64064 17.7642 5.66771 17.8528 5.68872 17.9429C5.70687 18.0206 5.72167 18.105 5.73598 18.1866C5.73836 18.2002 5.74072 18.2137 5.74309 18.227C5.75997 18.3225 5.77691 18.4123 5.79903 18.4897L5.80094 18.4964L5.80171 18.5033C5.81185 18.5946 5.84074 18.6441 5.8719 18.6725C5.90376 18.7015 5.9484 18.718 6.00759 18.7229C6.06723 18.7279 6.13509 18.7206 6.20578 18.7079C6.24985 18.6999 6.28895 18.6912 6.32723 18.6827C6.35355 18.6768 6.37947 18.671 6.40636 18.6657L6.40821 18.6653C7.21218 18.5234 7.78758 18.5338 8.27173 18.6609C8.75573 18.788 9.14086 19.0298 9.56479 19.336L9.56644 19.3372L9.56803 19.3384C10.2635 19.8948 11.0409 20.3034 11.9968 20.2579L11.9984 20.2578L12 20.2578C12.8936 20.2505 13.7553 19.9253 14.4309 19.3405L14.4337 19.3381L14.4366 19.336C14.8606 19.0298 15.2457 18.788 15.7297 18.6609C16.2139 18.5338 16.7893 18.5234 17.5932 18.6653L17.5951 18.6656C17.622 18.671 17.6479 18.6768 17.6742 18.6827C17.7125 18.6912 17.7516 18.6999 17.7956 18.7079C17.8663 18.7206 17.9342 18.7279 17.9938 18.7229C18.053 18.718 18.0977 18.7015 18.1295 18.6725C18.1607 18.6441 18.1896 18.5946 18.1997 18.5033L18.2005 18.4964L18.2024 18.4897C18.2245 18.4123 18.2415 18.3225 18.2583 18.227C18.2607 18.2137 18.2631 18.2002 18.2655 18.1866C18.2798 18.105 18.2946 18.0206 18.3127 17.9429C18.3337 17.8528 18.3608 17.7642 18.4013 17.6935C18.4423 17.6219 18.5031 17.5588 18.5939 17.5407L18.5967 17.5401L18.5995 17.5397C20.0512 17.3524 20.5373 17.0736 20.7496 16.8188L20.7521 16.816L20.7547 16.8133C20.7856 16.7824 20.8125 16.7216 20.8125 16.6667C20.8125 16.6408 20.8065 16.6217 20.7976 16.6087C20.7898 16.5972 20.7761 16.585 20.7484 16.5776C18.2494 16.1046 17.061 13.7249 16.8098 13.2219C16.807 13.2163 16.8043 13.2109 16.8017 13.2057L16.8002 13.2026L16.7989 13.1994C16.7246 13.0137 16.6977 12.8411 16.7182 12.6814C16.7388 12.521 16.8064 12.3789 16.9122 12.2539C17.121 12.0071 17.4793 11.8256 17.9283 11.6837C17.9632 11.6721 17.9995 11.6603 18.0368 11.6482C18.2304 11.5852 18.4507 11.5136 18.6353 11.4142C18.858 11.2943 18.9961 11.1514 18.9961 10.9656C18.9961 10.8797 18.9544 10.807 18.8782 10.741C18.8018 10.6748 18.6968 10.621 18.5845 10.5757C18.3946 10.5283 18.2391 10.4935 18.0846 10.5708L18.082 10.5721L18.0794 10.5732C17.7945 10.6919 17.5165 10.7772 17.2707 10.8018C17.0258 10.8263 16.8002 10.7916 16.6352 10.6541L16.6055 10.6293V10.5906C16.6055 10.2711 16.6262 9.93161 16.6489 9.58395C16.6507 9.55497 16.6527 9.52593 16.6546 9.49684C16.6756 9.17606 16.6971 8.84867 16.7051 8.52018C16.7226 7.80345 16.6755 7.0904 16.424 6.44981C15.8268 5.02653 14.3562 3.73581 12.0007 3.73581C9.64523 3.73581 8.17463 5.02654 7.57739 6.44982ZM7.42441 6.38668C8.04615 4.90406 9.57543 3.57031 12.0007 3.57031C14.426 3.57031 15.9553 4.90406 16.577 6.38668L16.5778 6.38842C16.8416 7.0601 16.8882 7.79987 16.8705 8.52422C16.8625 8.85627 16.8407 9.18696 16.8197 9.50715C16.8178 9.53643 16.8159 9.56563 16.814 9.59473C16.7923 9.92778 16.7727 10.2482 16.7711 10.5497C16.8863 10.6294 17.0487 10.6577 17.2542 10.6371C17.4764 10.6149 17.7366 10.5366 18.0132 10.4215C18.2274 10.3157 18.4405 10.3691 18.6203 10.4141L18.6356 10.4179L18.6408 10.42C18.761 10.4681 18.8883 10.5307 18.9866 10.6159C19.0861 10.7022 19.1616 10.817 19.1616 10.9656C19.1616 11.2485 18.9481 11.4337 18.7138 11.5599C18.5147 11.6671 18.2771 11.7442 18.084 11.8069C18.0476 11.8187 18.0127 11.83 17.98 11.8409L17.9788 11.8414C17.5374 11.9807 17.2163 12.1507 17.0385 12.3608C16.9509 12.4643 16.8984 12.5771 16.8824 12.7024C16.8663 12.8275 16.886 12.9703 16.9513 13.1348L16.9559 13.144C17.2053 13.6431 18.3624 15.959 20.7817 16.4155L20.7841 16.4159L20.7864 16.4165C20.851 16.4327 20.9013 16.467 20.9343 16.5153C20.9664 16.5624 20.978 16.6164 20.978 16.6667C20.978 16.7628 20.9358 16.8644 20.8745 16.9275C20.6174 17.2339 20.0718 17.5163 18.624 17.7034C18.5983 17.7094 18.5719 17.7286 18.5449 17.7758C18.5166 17.8251 18.4939 17.8947 18.4739 17.9805C18.4569 18.0534 18.443 18.1326 18.4286 18.2145C18.4262 18.2282 18.4238 18.242 18.4213 18.2559C18.4049 18.3485 18.3872 18.4436 18.3634 18.5286C18.3493 18.6448 18.3081 18.7336 18.241 18.7948C18.1733 18.8565 18.089 18.8811 18.0076 18.8879C17.9266 18.8946 17.8421 18.8844 17.7663 18.8707C17.7213 18.8626 17.6731 18.852 17.6308 18.8426C17.6057 18.8371 17.5826 18.832 17.5636 18.8281C16.7743 18.6889 16.2249 18.702 15.7717 18.821C15.3193 18.9398 14.9551 19.1659 14.5365 19.468C13.832 20.0767 12.9341 20.4153 12.003 20.4233C10.9917 20.4709 10.1763 20.0367 9.46626 19.469C9.04712 19.1663 8.68261 18.9399 8.22971 18.821C7.77652 18.702 7.22717 18.6889 6.43787 18.8281C6.4188 18.832 6.39576 18.8371 6.37065 18.8426C6.32832 18.852 6.2801 18.8626 6.2351 18.8707C6.15931 18.8844 6.07483 18.8946 5.99384 18.8879C5.91241 18.8811 5.82814 18.8565 5.76039 18.7948C5.69329 18.7336 5.65216 18.6448 5.63804 18.5286C5.61423 18.4436 5.59651 18.3485 5.58012 18.2559C5.57767 18.242 5.57525 18.2282 5.57285 18.2145C5.55847 18.1326 5.54457 18.0534 5.52756 17.9805C5.50755 17.8947 5.48482 17.8251 5.45651 17.7758C5.42949 17.7286 5.40313 17.7094 5.37743 17.7034C3.92962 17.5163 3.38405 17.2339 3.1269 16.9275C3.06559 16.8644 3.02344 16.7628 3.02344 16.6667C3.02344 16.6164 3.03502 16.5624 3.06715 16.5153C3.10016 16.467 3.15041 16.4327 3.21502 16.4165L3.21737 16.4159L3.21975 16.4155C5.63898 15.959 6.79617 13.6431 7.04553 13.144L7.05014 13.1348C7.11547 12.9703 7.13511 12.8275 7.11908 12.7024C7.10302 12.5771 7.0505 12.4643 6.96294 12.3608C6.78514 12.1507 6.46403 11.9807 6.02267 11.8413L6.02142 11.8409C5.98872 11.83 5.95387 11.8187 5.91744 11.8069C5.72436 11.7442 5.48674 11.6671 5.28766 11.5599C5.05333 11.4337 4.83984 11.2485 4.83984 10.9656C4.83984 10.817 4.91529 10.7022 5.01488 10.6159C5.11316 10.5307 5.24042 10.4681 5.36061 10.42L5.36582 10.4179L5.38113 10.4141C5.56096 10.3691 5.77405 10.3157 5.98819 10.4215C6.26487 10.5366 6.52499 10.6149 6.74723 10.6371C6.9527 10.6577 7.11513 10.6294 7.23036 10.5497C7.2287 10.2482 7.20917 9.92778 7.18743 9.59473C7.18553 9.56564 7.18362 9.53646 7.1817 9.50719C7.16069 9.18699 7.13898 8.85628 7.13088 8.52422C7.11322 7.79987 7.15982 7.06011 7.4237 6.38843L7.42441 6.38668Z" fill="black"/>
</svg>
