<svg width="24" height="24" viewBox="0 0 24 24" fill="none" xmlns="http://www.w3.org/2000/svg">
<path d="M20.4 0H3.6C1.61177 0 0 1.61177 0 3.6V20.4C0 22.3882 1.61177 24 3.6 24H20.4C22.3882 24 24 22.3882 24 20.4V3.6C24 1.61177 22.3882 0 20.4 0Z" fill="#1DA1F2"/>
<path d="M20.4844 7.1266C19.9287 7.49521 19.2762 7.69095 18.6094 7.6891C19.3223 7.26911 19.8561 6.60184 20.1094 5.8141C19.5184 6.31369 18.7737 6.59503 18 6.61097C17.4899 6.08852 16.8241 5.74559 16.1026 5.63365C15.381 5.52171 14.6426 5.6468 13.9982 5.99014C13.3538 6.33348 12.8381 6.87655 12.5285 7.53786C12.2189 8.19917 12.1322 8.94305 12.2813 9.65785C10.9684 9.58854 9.68488 9.2439 8.51392 8.6463C7.34296 8.04871 6.31077 7.21152 5.48438 6.1891C5.07999 6.92083 4.96159 7.77662 5.15211 8.59066C5.34263 9.40471 5.82851 10.1191 6.51563 10.5953C5.99706 10.6027 5.48377 10.4904 5.01563 10.2672C5.02823 11.0223 5.29372 11.7513 5.76961 12.3377C6.2455 12.9241 6.9043 13.3339 7.64063 13.5016C7.15048 13.6296 6.63781 13.6456 6.14063 13.5485C6.3551 14.2174 6.77296 14.8027 7.33593 15.2229C7.89891 15.643 8.57895 15.877 9.28125 15.8922C7.798 16.792 6.09417 17.2626 4.35938 17.2516C5.81228 18.2001 7.49992 18.7268 9.23442 18.7731C10.9689 18.8193 12.6822 18.3833 14.1836 17.5136C15.685 16.6438 16.9156 15.3745 17.7384 13.8469C18.5611 12.3192 18.9438 10.5932 18.8438 8.86097C19.4623 8.35513 20.0136 7.77228 20.4844 7.1266Z" fill="white"/>
</svg>
