<svg xmlns="http://www.w3.org/2000/svg" xmlns:xlink="http://www.w3.org/1999/xlink" width="22" height="16" viewBox="0 0 22 16">
  <defs>
    <clipPath id="clip-path">
      <rect id="Rectangle_4782" data-name="Rectangle 4782" width="22" height="16" rx="2" transform="translate(9838 7366)" fill="#fff"/>
    </clipPath>
    <clipPath id="clip-path-2">
      <path id="green" d="M0,16H24V0H0Z" fill="#249f58"/>
    </clipPath>
    <clipPath id="clip-path-3">
      <path id="Path_19234" data-name="Path 19234" d="M-10.914,18.1h-.022a1.407,1.407,0,0,1-.691-.21,1.591,1.591,0,0,1-.7.21l-.022,0,0,.109a1.927,1.927,0,0,0,.066.384,1.875,1.875,0,0,0,.648.98,1.878,1.878,0,0,0,.649-.981,1.931,1.931,0,0,0,.066-.384q0-.053,0-.107Z" fill="#fff" stroke="#c09300" stroke-width="0.024"/>
    </clipPath>
  </defs>
  <g id="Egy_Flag" data-name="Egy Flag" transform="translate(-9838 -7366)" clip-path="url(#clip-path)">
    <g id="Mask_Group_51" data-name="Mask Group 51" transform="translate(9837 7366)" clip-path="url(#clip-path-2)">
      <g id="Flag_of_Egypt">
        <path id="Path_19209" data-name="Path 19209" d="M0,0H24V16H0Z"/>
        <path id="Path_19210" data-name="Path 19210" d="M0,0H24V10.667H0Z" fill="#fff"/>
        <path id="Path_19211" data-name="Path 19211" d="M0,0H24V5.333H0Z" fill="#ce1126"/>
        <g id="Group_7474" data-name="Group 7474" transform="translate(9.177 2.598)">
          <path id="Path_19212" data-name="Path 19212" d="M2.844,5.466l1.826,1.7-.13-3.079c-.019-.467-.425-.36-.719-.191a1.1,1.1,0,0,1-1,.065,1.1,1.1,0,0,1-1-.065c-.295-.168-.7-.275-.719.191L.975,7.161Z" fill="#fff" stroke="#c09300" stroke-linejoin="round" stroke-width="0.034"/>
          <path id="C" d="M1.315,3.975l-.126,3-.214.191L1.1,4.082a.642.642,0,0,1,.21-.107Zm.257.214L1.465,6.695l-.214.219.13-2.893c.042.042.168.145.191.168Zm.233.191L1.721,6.47l-.172.168.107-2.384c.042.042.126.1.149.126Zm.253.107L1.974,6.269l-.168.137.084-1.983a.612.612,0,0,0,.168.065Zm.233,0L2.23,5.972l-.172.168.065-1.633a.443.443,0,0,0,.168-.019Z" fill="#c09300"/>
          <path id="Path_19213" data-name="Path 19213" d="M1.315-3.975l-.126-3L.975-7.161,1.1-4.082a.642.642,0,0,0,.21.107Zm.257-.214L1.465-6.695l-.214-.219.13,2.893c.042-.042.168-.145.191-.168Zm.233-.191L1.721-6.47l-.172-.168.107,2.384c.042-.042.126-.1.149-.126Zm.253-.107L1.974-6.269l-.168-.137.084,1.983a.612.612,0,0,1,.168-.065Zm.233,0L2.23-5.972,2.058-6.14l.065,1.633a.443.443,0,0,1,.168.019Z" transform="translate(5.646) rotate(180)" fill="#c09300" stroke="#c09300" stroke-width="0.006"/>
          <path id="Path_19214" data-name="Path 19214" d="M2.907,5.8,3.163,6.97l-.084.084-.088-.065-.145-1.04.061,1.04L2.823,7.1l-.084-.107L2.8,5.949l-.145,1.04-.088.065L2.482,6.97,2.739,5.8h.168Z" fill="#c09300" stroke="#c09300" stroke-width="0.029"/>
          <g id="D">
            <path id="Path_19215" data-name="Path 19215" d="M2.249,5.291,1.74,7.1l.7.107.3-1.358-.49-.555Z" fill="#fff" stroke="#c09300" stroke-linejoin="round" stroke-width="0.032"/>
            <g id="Group_7467" data-name="Group 7467">
              <path id="Path_19216" data-name="Path 19216" d="M2.081,5.907l.061.149.331-.316" fill="none" stroke="#c09300" stroke-linejoin="round" stroke-width="0.034"/>
              <path id="Path_19217" data-name="Path 19217" d="M2.31,5.533l.069.649.21-.275m-.084.107.115.4m.045-.146-.232.353m.073.352-.074-.352L2.366,6.26l-.156.211-.068-.243-.218.224.111.407.153-.252.084.256.157-.244m-.54.436.141-.2.092.306.126-.214.084.256" fill="none" stroke="#c09300" stroke-linejoin="round" stroke-width="0.034"/>
            </g>
          </g>
          <g id="Group_7469" data-name="Group 7469" transform="translate(5.646) rotate(180)">
            <path id="Path_19218" data-name="Path 19218" d="M2.249-5.291,1.74-7.1l.7-.107.3,1.358-.49.555Z" fill="#fff" stroke="#c09300" stroke-linejoin="round" stroke-width="0.032"/>
            <g id="Group_7468" data-name="Group 7468">
              <path id="Path_19219" data-name="Path 19219" d="M2.081-5.907l.061-.149.331.316" fill="none" stroke="#c09300" stroke-linejoin="round" stroke-width="0.034"/>
              <path id="Path_19220" data-name="Path 19220" d="M2.31-5.533l.069-.649.21.275m-.084-.107.115-.4m.045.146-.232-.353m.073-.352-.074.352-.065.358L2.21-6.471l-.068.243-.218-.224.111-.407.153.252.084-.256.157.244m-.54-.436.141.2.092-.306.126.214L2.333-7.2" fill="none" stroke="#c09300" stroke-linejoin="round" stroke-width="0.034"/>
            </g>
          </g>
          <g id="Group_7471" data-name="Group 7471">
            <path id="Path_19221" data-name="Path 19221" d="M2.823,7.9a5.635,5.635,0,0,0,1.339-.126c.126-.023.126-.088.126-.172.126-.042.061-.191.149-.191-.088.023-.107-.149-.214-.126,0-.149-.149-.168-.275-.126a4.239,4.239,0,0,1-1.125.1,5.258,5.258,0,0,1-1.125-.1c-.126-.042-.275-.023-.275.126-.107-.023-.126.149-.214.126.088,0,.023.149.149.191,0,.084,0,.149.13.172A5.578,5.578,0,0,0,2.823,7.9Z" fill="#fff" stroke="#c09300" stroke-linejoin="round" stroke-width="0.063"/>
            <g id="Group_7470" data-name="Group 7470">
              <path id="Path_19222" data-name="Path 19222" d="M2.1,7.1a2.145,2.145,0,0,0,.513.023c.084,0,.145.145-.023.168a2.014,2.014,0,0,1-.509-.023c-.107-.019-.34-.061-.49-.1-.149-.065-.042-.191.042-.172A2.809,2.809,0,0,0,2.1,7.1Zm1.446,0a2.122,2.122,0,0,1-.509.023c-.088,0-.149.145.019.168a2.014,2.014,0,0,0,.509-.023c.107-.019.341-.061.49-.1C4.2,7.1,4.1,6.97,4.013,6.989a2.808,2.808,0,0,1-.467.107Z" fill="#fff" stroke="#c09300" stroke-linejoin="round" stroke-width="0.034"/>
              <path id="Path_19223" data-name="Path 19223" d="M1.572,7.012a.147.147,0,0,0-.149.21c.019-.042.107-.042.126-.084.023-.065-.019-.065.023-.126Zm.509.391c0-.084.084-.074.084-.158,0-.042-.023-.107-.065-.107a.091.091,0,0,0-.084.084C2,7.307,2.081,7.319,2.081,7.4Zm.606-.242c.126,0,.114.168.052.253,0-.061-.107-.084-.107-.126C2.632,7.223,2.728,7.223,2.686,7.161Zm1.387-.149a.147.147,0,0,1,.149.21c-.019-.042-.107-.042-.126-.084-.023-.065.019-.065-.023-.126ZM3.565,7.4c0-.084-.084-.074-.084-.158,0-.042.023-.107.065-.107a.091.091,0,0,1,.084.084c.019.084-.065.1-.065.181Zm-.606-.242c-.126,0-.114.168-.052.253,0-.061.107-.084.107-.126,0-.065-.1-.065-.055-.126Z" fill="#fff" stroke="#c09300" stroke-linejoin="round" stroke-width="0.034"/>
            </g>
            <path id="Path_19224" data-name="Path 19224" d="M1.614,7.054A.208.208,0,0,1,1.74,7.1l-.126-.042Zm.21.065a.471.471,0,0,1,.149.042l-.149-.042Zm.765.084a.355.355,0,0,0-.149.019L2.589,7.2Zm-.233,0a.169.169,0,0,0-.149,0h.149Zm1.676-.149a.217.217,0,0,0-.126.042Zm-.21.065a.472.472,0,0,0-.149.042l.149-.042ZM3.056,7.2a.355.355,0,0,1,.149.019L3.056,7.2Zm.233,0a.169.169,0,0,1,.149,0H3.289Z" fill="#fff" stroke="#c09300" stroke-linejoin="round" stroke-width="0.024"/>
          </g>
          <path id="Path_19225" data-name="Path 19225" d="M1.579,7.391a.021.021,0,0,1-.018-.027c0-.016.017-.026.03-.021s.022.017.022.022-.007.02-.011.02l0,0a.022.022,0,0,1-.018,0Zm1.465.1a.031.031,0,0,1-.014-.019.035.035,0,0,1,.025-.027.048.048,0,0,1,.022.012.022.022,0,0,1,0,.032.041.041,0,0,1-.029,0Zm.01.066a.021.021,0,0,1-.016-.022c0-.013,0-.015.014-.022l.01-.005.009,0c.013.006.018.012.019.02a.026.026,0,0,1-.017.024.018.018,0,0,1-.019,0ZM1.7,7.271a.068.068,0,0,0-.029.012c-.017,0-.037.015-.054,0s-.038,0-.041.019a.029.029,0,0,0,.043.016c.011-.014.041-.023.044,0-.012.018-.011.043-.021.063a.085.085,0,0,1-.013.034.068.068,0,0,0-.036.007.057.057,0,0,0-.043.023.124.124,0,0,0-.024.05c0,.019.025.025.042.026l.053.017c.029.006.056.017.085.023s.087.019.129.03l.013,0c.018,0,.027-.016.028-.03.009-.031.015-.062.024-.093.006-.012.013-.04-.011-.034a.1.1,0,0,1-.043.022c-.023,0-.01.025,0,.035a.063.063,0,0,1-.013.047c-.014.009-.031,0-.046,0s-.046-.008-.032-.028.006-.032.012-.047a.215.215,0,0,0,.012-.052c-.01-.021-.026.007-.039.009s-.043.009-.025.025,0,.032,0,.047-.022.025-.039.021-.04-.013-.026-.032.009-.03.012-.046l.018-.055a.154.154,0,0,1,.017-.047c0-.018.013-.034.012-.052S1.7,7.271,1.7,7.271Zm-.1.193h.006c.007,0,.007.008,0,.014l-.008,0c-.012,0-.016,0-.017-.008s0-.005.009-.009ZM1.573,7.6c-.013-.012-.011-.022.008-.036s.013-.006.023,0,.015.022,0,.033a.021.021,0,0,1-.017.007A.019.019,0,0,1,1.573,7.6Zm.081.025a.023.023,0,0,1-.017-.029c0-.012.005-.013.022-.013s.023,0,.023.02,0,.012-.005.016a.029.029,0,0,1-.023.006Zm2.376,0a.015.015,0,0,1-.007-.014c0-.011.006-.019.02-.025s.026-.007.032,0,.009.023,0,.033-.007.006-.021.006S4.037,7.63,4.03,7.625Zm-2.268.031a.02.02,0,0,1-.015-.022c0-.009,0-.01.007-.015a.036.036,0,0,1,.015-.007.017.017,0,0,1,.015,0c.015.01.018.021.009.03a.027.027,0,0,1-.032.009Zm.585.026s-.007,0-.007-.008a.168.168,0,0,1,.006-.044.257.257,0,0,1,.005-.042c0-.025,0-.05.011-.075a.14.14,0,0,1,.005-.037c0-.019,0-.039.006-.058s.008-.026.015-.015a.244.244,0,0,0,.038.04c.012.007,0,.017-.007.02a.025.025,0,0,0-.013.027.332.332,0,0,0-.006.033c0,.017,0,.033,0,.05a.262.262,0,0,0,0,.05c0,.011,0,.02,0,.031a.045.045,0,0,1-.011.031.025.025,0,0,1-.028,0Zm.792-.261a.373.373,0,0,0-.036.033c-.016.012.013.019.017.029a.249.249,0,0,1,.005.048.122.122,0,0,1,.006.046c0,.017-.023.013-.032.023s-.018.018-.028.027a.111.111,0,0,0-.009.043c0,.012-.008.025,0,.036l0,0s.009,0,.013,0a.115.115,0,0,0,.04,0,.773.773,0,0,1,.1-.008c.02,0,.039-.006.059-.006s.023-.014.023-.026,0-.038-.008-.056a.315.315,0,0,1-.007-.057.016.016,0,0,0-.028-.009c-.009.009-.024.011-.031.023s.017.016.021.028a.139.139,0,0,1,0,.039c0,.016-.014.017-.025.018s-.034.009-.043-.008a.147.147,0,0,1-.006-.04c0-.024-.006-.047-.008-.071s-.006-.058-.008-.088c0-.012,0-.032-.019-.028Zm-.017.22H3.13v.02l-.011,0-.011,0-.005,0c-.006,0,0-.01,0-.018a.013.013,0,0,1,.013,0Zm-.8-.247c-.01,0-.023.018-.033.018s-.02.025,0,.032a.117.117,0,0,1,0,.023c0,.021-.01.038-.007.059s-.008.046-.009.069-.007.049-.011.073-.019.014-.033.008,0-.019,0-.028-.012-.028-.029-.031a.022.022,0,0,1-.023-.03c.008-.009.028-.007.04-.008s.025-.03.012-.042-.032-.024-.038-.042a.063.063,0,0,0-.032-.057.069.069,0,0,0-.062.047L2.058,7.5c-.019,0-.046.038-.02.05s.059.014.039.034a.042.042,0,0,1-.051.014c-.019,0-.041-.009-.04-.032a.23.23,0,0,0-.012-.06c0-.022-.029-.017-.031,0a.036.036,0,0,0,0,.054.075.075,0,0,1-.008.06c-.005.023-.031.024-.049.032s-.043,0-.031.017a.119.119,0,0,0,.065.008.071.071,0,0,0,.052-.037c.015-.015.04-.007.059-.008s.042.014.062.005.033-.04.041-.014a.032.032,0,0,0,.04.033c.023,0,.015.016.014.03a.057.057,0,0,0,.038.048.05.05,0,0,0,.022,0c.02-.006.041-.015.048-.037a.507.507,0,0,0,.014-.057.717.717,0,0,0,.012-.091c.007-.028.005-.057.011-.085s.006-.042.008-.063-.007-.013-.013-.011ZM2.142,7.5s.006.005.007.014a.02.02,0,0,0,.012.019s0,.006,0,.01a.033.033,0,0,1-.018,0,.043.043,0,0,1-.033-.012l-.005,0,.008-.005.015-.013C2.133,7.507,2.138,7.5,2.142,7.5ZM3.9,7.294a.223.223,0,0,0-.044.007c-.028,0-.042.027-.015.042.016.041.041-.008.067,0s.042.049.048.08a.406.406,0,0,0,.02.09c.026.029-.019.046-.038.024s-.051-.039-.071-.015-.025.042-.045.052-.036-.03-.053-.047S3.725,7.5,3.7,7.489c-.011-.023-.005-.063-.029-.078-.02.008-.056.045-.026.063s-.013.037-.027.055a.137.137,0,0,0-.026.079c-.034.019-.04-.021-.044-.046s-.028-.021-.045-.01-.038.034-.056.053a.5.5,0,0,0,0,.054c.006.022.032.011.048.01s.037.017.016.033-.059.009-.055.037a.229.229,0,0,0,.044,0,.079.079,0,0,0,.063-.061c0-.028.044-.023.067-.029s.061-.01.068.025c.019.02.06.042.081.015a.064.064,0,0,0,.03-.06c0-.021.034-.022.043-.01s.057.016.078,0,.027-.045.059-.046c.048-.014.1-.022.143-.04s-.006-.032-.015-.046c-.029-.014-.054.044-.086.015S4.01,7.451,4,7.423a.2.2,0,0,0-.031-.107A.083.083,0,0,0,3.9,7.294Zm-.182.253a.029.029,0,0,1,.013,0,.035.035,0,0,1,.02.026c0,.006,0,.006-.01.01l-.013,0s-.017-.01-.017-.013a.062.062,0,0,0,0-.012c0-.009,0-.008,0-.014s0-.006.008-.006Zm.174.009a.019.019,0,0,1,.02.01c0,.009,0,.015-.011.021l-.012,0-.01-.006c-.007,0-.008-.007-.008-.013s.009-.016.021-.017Zm-.238,0s.006,0,.009,0a.021.021,0,0,1,.008.016.06.06,0,0,1,0,.017c0,.006,0,.006-.015.006s-.019,0-.018-.018,0-.013.006-.018a.021.021,0,0,1,.011-.007ZM3.51,7.6a.015.015,0,0,1,.012.012c0,.008,0,.012-.007.016a.036.036,0,0,1-.023,0l0-.005s0,0,0-.007l0,0a.023.023,0,0,1,0-.008A.014.014,0,0,1,3.51,7.6Zm.247.032a.017.017,0,0,1,.012,0,.009.009,0,0,1,0,.015.057.057,0,0,1-.03,0,.005.005,0,0,1,0-.006s0-.006.007-.009a.039.039,0,0,1,.016,0ZM3.3,7.756s-.006,0,0-.006a.038.038,0,0,1,.022-.014.092.092,0,0,0,.037-.03c0-.009.011-.014.011-.023a.153.153,0,0,0,0-.038.047.047,0,0,0-.022-.026c-.007-.005-.018-.007-.02-.016s.007-.016.01-.024.011-.023.017-.034.018,0,.021.007a.086.086,0,0,1,.012.024.074.074,0,0,1,.018.031.057.057,0,0,1,.01.026c0,.011.006.021.006.032a.116.116,0,0,1-.005.045c0,.008-.011.013-.016.02a.093.093,0,0,1-.029.02c-.008,0-.012.011-.022.009a.232.232,0,0,1-.041,0s0,0,0,0Zm-.183.012c-.006-.007-.008-.009-.008-.016s0-.009.008-.016.017-.012.038,0,.026.011.028,0,.013-.013.023-.013a.022.022,0,0,1,.016.005c.007.005.007.006.007.018s0,.013-.008.02a.017.017,0,0,1-.018.006.02.02,0,0,1-.021-.016c0-.007,0-.008-.005,0a.01.01,0,0,1-.006,0,.06.06,0,0,0-.021.013.02.02,0,0,1-.014,0,.018.018,0,0,1-.018-.008Zm-.529-.237a.042.042,0,0,0-.039.032c0,.02.021.04.01.061.007.027-.02.037-.039.022a.385.385,0,0,0-.034-.077c-.021-.006-.031.028-.046.04.007.02.029.038.032.063a.064.064,0,0,1-.031.064c-.018.017-.043.011-.066.015s.02.022.033.023a.092.092,0,0,0,.077-.022c.021-.01.019-.045.043-.049.042,0,.084.006.127.008.023.005.058,0,.073.014a.071.071,0,0,0,.049.059c.013,0,.027-.013.041-.016s.018-.04.033-.052c.044,0,.088,0,.132,0,.008,0,.011-.012.017-.017s0-.034,0-.051,0-.049-.014-.068-.041.014-.063.016a.074.074,0,0,0-.047.062c-.015.024-.038,0-.03-.024a.131.131,0,0,0,0-.027c-.014-.016-.037-.011-.056-.013s-.054,0-.081,0a.386.386,0,0,1-.072,0c-.028,0-.024-.028-.028-.047A.027.027,0,0,0,2.588,7.531Zm.053.1.027,0c.011,0,.024,0,.035,0s.052,0,.078.006a.026.026,0,0,1,.017.009V7.7c0,.007,0,.016,0,.021l-.007,0a.029.029,0,0,1-.018-.013.185.185,0,0,1,0-.028s0-.006,0-.008a.033.033,0,0,0-.019-.007l-.068,0a.285.285,0,0,1-.057,0c-.007,0-.016,0-.021-.009s0-.016.009-.019a.061.061,0,0,1,.027-.005Zm.3.007s.006,0,.008.009l0,.013s0,0,0,.006-.026,0-.031,0,0-.012,0-.015a.042.042,0,0,1,.021-.012Z" fill="#c09300"/>
          <g id="Group_7472" data-name="Group 7472" transform="translate(-9.177 -2.598)">
            <path id="Path_19226" data-name="Path 19226" d="M12.328,6.749c.018,0-.024-.1-.024-.1.047.048.225.06.225.06-.107-.047-.213-.4-.2-.686s-.041-.4-.083-.438a.672.672,0,0,0-.338-.107c-.064,0-.053.048-.053.048a.434.434,0,0,0-.29-.006c-.05.033-.061.2-.024.171.089-.071.166-.006.22.071a.711.711,0,0,1-.024.485,1.632,1.632,0,0,1-.266.473.625.625,0,0,0,.254-.094l-.036.147a.909.909,0,0,0,.2-.136L12,6.754a1.088,1.088,0,0,1,.107-.112A.386.386,0,0,0,12.328,6.749Z" fill="#fff" stroke="#c09300" stroke-width="0.032"/>
            <path id="Path_19227" data-name="Path 19227" d="M11.9,6.069a1.583,1.583,0,0,1-.171.563m.266-.574a2.179,2.179,0,0,1-.1.585m.184-.568a4.263,4.263,0,0,0,.029.568M12.18,6.1a1.577,1.577,0,0,0,.124.555" fill="none" stroke="#c09300" stroke-width="0.034"/>
            <path id="Path_19228" data-name="Path 19228" d="M11.789,5.856a.211.211,0,0,0-.028-.089c-.053-.077-.131-.142-.22-.071,0,0,.03-.094.1-.1s.164.038.265.209c0,0-.074-.017-.092,0-.033.029-.02.049-.02.049Zm-.257-.276a.1.1,0,0,1,.033-.055.434.434,0,0,1,.29.006s-.01-.051.053-.048a.672.672,0,0,1,.338.107.211.211,0,0,1,.04.064h0c-.026-.037-.1-.034-.118-.032a.479.479,0,0,0-.084.011.169.169,0,0,0-.06.021c-.011.009-.021.044-.039.044s-.026-.007-.033-.016-.015-.028-.024-.027c-.029.005-.076-.018-.136-.065a.182.182,0,0,0-.16-.053.123.123,0,0,0-.1.049Z" fill="#c09300" stroke="#c09300" stroke-width="0.009"/>
            <circle id="Ellipse_366" data-name="Ellipse 366" cx="0.031" cy="0.031" r="0.031" transform="translate(11.937 5.587)" fill="#fff"/>
          </g>
          <path id="Path_19229" data-name="Path 19229" d="M2.822,6.128a2.029,2.029,0,0,0,.8-1.65.339.339,0,0,1-.068.007,1.291,1.291,0,0,1-.72-.237,1.481,1.481,0,0,1-.735.237.331.331,0,0,1-.068-.007,2.026,2.026,0,0,0,.795,1.65Z" fill="#fff" stroke="#c09300" stroke-width="0.031"/>
          <path id="Path_19230" data-name="Path 19230" d="M3.549,4.55H3.526a1.422,1.422,0,0,1-.7-.212,1.609,1.609,0,0,1-.709.212l-.023,0c0,.037,0,.076,0,.11a1.95,1.95,0,0,0,.066.388,1.9,1.9,0,0,0,.655.991,1.9,1.9,0,0,0,.656-.992,1.951,1.951,0,0,0,.067-.388c0-.037,0-.081,0-.108Z" fill="none" stroke="#c09300" stroke-width="0.024"/>
          <g id="Group_7473" data-name="Group 7473" transform="translate(14.455 -13.546)" clip-path="url(#clip-path-3)">
            <path id="Path_19231" data-name="Path 19231" d="M-12.362,17.875h.487V19.59h-.487Z" fill="#c09300"/>
            <path id="Path_19232" data-name="Path 19232" d="M-11.875,17.875h.487V19.59h-.487Z" fill="#fff" fill-rule="evenodd"/>
            <path id="Path_19233" data-name="Path 19233" d="M-11.388,17.875h.487V19.59h-.487Z" fill="#c09300" fill-rule="evenodd"/>
          </g>
        </g>
      </g>
    </g>
  </g>
</svg>
