<svg xmlns="http://www.w3.org/2000/svg" xmlns:xlink="http://www.w3.org/1999/xlink" width="22" height="16" viewBox="0 0 22 16">
  <defs>
    <clipPath id="clip-path">
      <rect id="Rectangle_4781" data-name="Rectangle 4781" width="22" height="16" rx="2" transform="translate(9838 7366)" fill="#fff"/>
    </clipPath>
  </defs>
  <g id="Ksa_Flag" data-name="Ksa Flag" transform="translate(-9838 -7366)" clip-path="url(#clip-path)">
    <g id="Flag_of_Saudi_Arabia" transform="translate(9837 7366)">
      <path id="green" d="M0,16H24V0H0Z" fill="#249f58"/>
      <g id="white" transform="translate(4.071 4.732)">
        <g id="shahada">
          <g id="Group_7403" data-name="Group 7403" transform="translate(13.916 0.08)">
            <path id="Path_19145" data-name="Path 19145" d="M.595.929C.593.558.449-.443.412-.779S.339-1.419.348-1.49s.115.1.171.109c.029-.006.016-.11-.037-.2C.446-1.64.325-1.865.251-2,.216-2.059.209-2.1.192-2.1a.792.792,0,0,0-.136.293.282.282,0,0,1,.067.178c.006.1.056.79.12,1.316C.291.08.4.934.4,1.465a1.57,1.57,0,0,1-.041.407c-.059.108-.152.206-.5.408-.387.227-.9.415-1.126.541-.138.079-.092.089.028.055A8.619,8.619,0,0,0-.193,2.6a1.149,1.149,0,0,0,.606-.612A2.216,2.216,0,0,0,.595.929" transform="translate(1.347 2.103)" fill="#fff"/>
          </g>
          <g id="Group_7404" data-name="Group 7404" transform="translate(14.62 0.085)">
            <path id="Path_19146" data-name="Path 19146" d="M.012.063A1.491,1.491,0,0,1,.356.052C.313.115.015.254.014.279A.773.773,0,0,0,.282.22a.5.5,0,0,0,.1-.094C.451.045.535-.107.514-.126A1.564,1.564,0,0,0,.1-.131c-.03,0-.106.14-.119.175s0,.031.035.019" transform="translate(0.027 0.143)" fill="#fff"/>
          </g>
          <g id="Group_7405" data-name="Group 7405" transform="translate(14.756 1.44)">
            <path id="Path_19147" data-name="Path 19147" d="M.126.322A1.042,1.042,0,0,0,.12-.288.794.794,0,0,0-.261-.73l-.023.221a.8.8,0,0,1,.305.317A.774.774,0,0,1,.07.383C.06.439.1.408.126.322" transform="translate(0.284 0.73)" fill="#fff"/>
          </g>
          <g id="Group_7406" data-name="Group 7406" transform="translate(12.878 2.655)">
            <path id="Path_19148" data-name="Path 19148" d="M.113.29a.939.939,0,0,0-.005-.55.714.714,0,0,0-.343-.4l-.021.2a.717.717,0,0,1,.275.285A.7.7,0,0,1,.063.345C.054.4.09.367.113.29" transform="translate(0.256 0.657)" fill="#fff"/>
          </g>
          <g id="Group_7407" data-name="Group 7407" transform="translate(6.295 0.077)">
            <path id="Path_19149" data-name="Path 19149" d="M.089.157A.736.736,0,0,1,.136.7C.126.756.164.726.188.645A.992.992,0,0,0,.182.065a.753.753,0,0,0-.362-.42L-.2-.144a.755.755,0,0,1,.29.3" transform="translate(0.201 0.355)" fill="#fff"/>
          </g>
          <g id="Group_7408" data-name="Group 7408" transform="translate(1.808 0.11)">
            <path id="Path_19150" data-name="Path 19150" d="M.086.168A.668.668,0,0,1,.052.723C.032.776.08.751.12.672A.905.905,0,0,0,.207.088.752.752,0,0,0-.136-.381l-.058.209a.774.774,0,0,1,.28.34" transform="translate(0.194 0.381)" fill="#fff"/>
          </g>
          <g id="Group_7409" data-name="Group 7409" transform="translate(0 0.042)">
            <path id="Path_19151" data-name="Path 19151" d="M1.021,1.2A1.325,1.325,0,0,0,1.169.773,2.041,2.041,0,0,0,1.191.259c.239-.1.523-.259.619-.271a.344.344,0,0,0,.406.435c.024.254.045.477.057.609.026.271.022.612.021.672s.042.048.086-.084A3.409,3.409,0,0,0,2.436.671C2.43.594,2.422.49,2.411.372c.2-.095.238-.277.315-.355.069.241.448.274.565.222.145-.064.193-.18.23-.447a.4.4,0,0,0-.111-.4c0,.032-.1.347-.1.347s.09.1.095.142a.4.4,0,0,1-.358.028c-.13-.042-.17-.12-.162-.172s.056-.1.058-.164-.029-.045-.081.011a1.231,1.231,0,0,0-.158.229.5.5,0,0,1-.323.255c-.028-.292-.06-.6-.081-.8-.011-.1-.122-.992-.13-1.092s-.02-.189-.018-.237.026-.023.063.017.1.11.113.1c.038-.019,0-.134-.05-.238a4.577,4.577,0,0,0-.254-.53.988.988,0,0,0-.139.293.347.347,0,0,1,.065.219c0,.039.025.4.06.749.03.3.07.594.074.628.028.233.061.561.093.883C2,.03,1.949-.091,1.953-.16s.04-.165.023-.185a2.564,2.564,0,0,0-.537.222c-.082.035-.175.073-.273.109C1.14-.234,1.107-.443,1.093-.6l0-.018a.6.6,0,0,0,.421-.2,1.067,1.067,0,0,0,.158-.536,2.306,2.306,0,0,0-.176-.622A1.151,1.151,0,0,1,1.438-2.2c0-.037.08.042.132.058.035.007.023-.069-.02-.122a2.915,2.915,0,0,0-.29-.379,3.057,3.057,0,0,0-.109.312.219.219,0,0,1,.082.154,2.645,2.645,0,0,0,.111.5,4.727,4.727,0,0,1,.185.536.868.868,0,0,1-.477.158c-.033-.272-.075-.588-.1-.812a1.946,1.946,0,0,1-.008-.227c0-.038.029-.033.066.006s.1.1.108.092,0-.1-.048-.2A4.872,4.872,0,0,0,.78-2.672a.944.944,0,0,0-.116.286.348.348,0,0,1,.07.217c0,.111.058.652.1,1.13a.518.518,0,0,1-.281-.48,5.389,5.389,0,0,0-.078-.728.778.778,0,0,0-.187-.37c-.02.048-.109.343-.109.343A2.081,2.081,0,0,1,.3-1.656.665.665,0,0,1,0-1a.567.567,0,0,1-.8-.16c-.1-.26.125-.913.122-1.067S-.7-2.4-.769-2.376a.931.931,0,0,0-.309.416,5.672,5.672,0,0,0-.228.745c-.064.2-.167.41-.326.4s-.245-.157-.294-.367a1.663,1.663,0,0,1-.006-.559c.033-.178-.044-.142-.091.138a1.458,1.458,0,0,0,.044.736c.1.288.277.4.43.359s.288-.4.335-.557.259-.876.38-.911c.017.081-.093.34-.129.644s.047.712.433.783A.706.706,0,0,0,.213-.905a1.355,1.355,0,0,0,.15-.448.815.815,0,0,0,.48.7l.032.009c.019.191.05.44.078.7C.894.077.833.093.773.108A.6.6,0,0,0,.746.036C.652-.167.5-.354.279-.341A.576.576,0,0,0-.172.182C-.165.327-.085.446.2.476A1.324,1.324,0,0,0,.623.444.6.6,0,0,1,.658.618a3.152,3.152,0,0,1-1.422.736c-.569.055-.743-.243-.749-.543A1.221,1.221,0,0,1-1.283.2,1.562,1.562,0,0,0-.961-.126l.055.033a.247.247,0,0,1,.1.1C-.8-.014-.739-.119-.762-.17A.894.894,0,0,0-.886-.252c.065-.162.064-.324-.02-.359s-.217.071-.27.139a.18.18,0,0,0-.038.109.138.138,0,0,0,.07.117c.05.034.1.065.141.093a3.854,3.854,0,0,1-.6.435c-.007-.017-.033,0-.068.043l-.049.03c-.144.088-.488.281-.555.328s-.025.039,0,.028c.048-.026.111-.057.181-.091l.329-.159a1.679,1.679,0,0,0-.1.2c-.135.32-.354.982.119,1.381a1.688,1.688,0,0,0,1.878-.16,2.709,2.709,0,0,0,.886-.68M-1.085-.38c-.022-.017-.025-.039-.007-.054a.192.192,0,0,1,.087-.045c.072-.013.1.069.071.2-.054-.033-.11-.068-.151-.1M.4.16C.067.162.052.1.058.064A.169.169,0,0,1,.3-.01.593.593,0,0,1,.471.157L.4.16M-.611,1.89c-.621.17-1.227-.093-1.264-.613a1.529,1.529,0,0,1,.21-.865c.089-.044.173-.087.243-.125a1.3,1.3,0,0,0-.194.91c.072.337.365.541.861.475A3.219,3.219,0,0,0,.587.962.787.787,0,0,0,.734.725.722.722,0,0,0,.8.542,1.087,1.087,0,0,0,.808.4C.866.378.924.359.982.338c.02.213.034.423.035.6A3.715,3.715,0,0,1-.611,1.89" transform="translate(2.311 2.708)" fill="#fff"/>
          </g>
          <g id="Group_7410" data-name="Group 7410" transform="translate(12.058 0.08)">
            <path id="Path_19152" data-name="Path 19152" d="M.156.979C.135.631.084,0,.056-.319.031-.6-.018-.993-.055-1.336a1.837,1.837,0,0,1-.009-.217c0-.038.039-.023.077.016s.1.088.109.082c.037-.019-.007-.115-.06-.217a4.673,4.673,0,0,0-.3-.544,1,1,0,0,0-.121.3A.346.346,0,0,1-.283-1.7c.005.139.075.778.126,1.294.035.359.081.945.114,1.387,0,0,.031.42.035.467.02.271.01.613.008.672s.041.049.088-.083a2.835,2.835,0,0,0,.078-.708Z" transform="translate(0.354 2.216)" fill="#fff"/>
          </g>
          <g id="Group_7411" data-name="Group 7411" transform="translate(10.551 1.382)">
            <path id="Path_19153" data-name="Path 19153" d="M.077.207C.014.226-.086.159-.079.018A1.378,1.378,0,0,1,0-.3c.029-.1.029-.2,0-.148A2.413,2.413,0,0,0-.171.087C-.192.254-.138.361-.064.4.027.444.093.371.138.264S.172.041.143.069.108.2.077.207" transform="translate(0.175 0.469)" fill="#fff"/>
          </g>
          <g id="Group_7412" data-name="Group 7412" transform="translate(9.691 2.428)">
            <path id="Path_19154" data-name="Path 19154" d="M.06.044C.094-.046.1-.134.076-.086a2.176,2.176,0,0,0-.2.462c-.032.145.007.243.069.281C.021.7.084.644.132.553S.181.359.152.382.112.493.084.5C.026.512-.056.446-.038.322A1.229,1.229,0,0,1,.06.044" transform="translate(0.136 0.099)" fill="#fff"/>
          </g>
          <g id="Group_7413" data-name="Group 7413" transform="translate(6.905 4.313)">
            <path id="Path_19155" data-name="Path 19155" d="M.1.046C.153-.045.181-.14.142-.092a2.516,2.516,0,0,0-.32.468C-.244.529-.223.643-.164.7S-.007.707.065.616s.1-.2.059-.183S.056.547.024.548c-.066,0-.142-.084-.1-.216A1.418,1.418,0,0,1,.1.046" transform="translate(0.219 0.105)" fill="#fff"/>
          </g>
          <g id="Group_7414" data-name="Group 7414" transform="translate(11.646 1.113)">
            <path id="Path_19156" data-name="Path 19156" d="M.077.208C.012.224-.084.151-.068.011a1.39,1.39,0,0,1,.1-.318c.035-.1.041-.2.014-.147a2.455,2.455,0,0,0-.211.53C-.2.241-.148.351-.077.391.012.441.082.372.133.267S.182.046.15.073.108.2.077.208" transform="translate(0.174 0.47)" fill="#fff"/>
          </g>
          <g id="Group_7415" data-name="Group 7415" transform="translate(11.779 2.655)">
            <path id="Path_19157" data-name="Path 19157" d="M.03.264C.118.314.189.245.24.14S.288-.081.256-.054.215.072.183.08C.118.1.022.024.038-.117a1.384,1.384,0,0,1,.1-.318c.035-.1.041-.2.014-.147a2.447,2.447,0,0,0-.211.529C-.089.113-.041.223.03.264" transform="translate(0.067 0.597)" fill="#fff"/>
          </g>
          <g id="Group_7416" data-name="Group 7416" transform="translate(12.758 1.114)">
            <path id="Path_19158" data-name="Path 19158" d="M.077.06C.12-.064.127-.185.093-.118A2.962,2.962,0,0,0-.163.523c-.038.2.02.333.106.382C.05.966.135.882.2.755S.255.488.217.521.167.674.128.683C.05.7-.066.615-.046.445A1.684,1.684,0,0,1,.077.06" transform="translate(0.174 0.137)" fill="#fff"/>
          </g>
          <g id="Group_7417" data-name="Group 7417" transform="translate(3.562 3.212)">
            <path id="Path_19159" data-name="Path 19159" d="M.121.075c.07-.151.1-.3.044-.222A3.808,3.808,0,0,0-.24.63c-.074.247-.019.421.083.493.127.089.245-.007.339-.16S.289.632.237.669.154.856.1.864C0,.88-.131.756-.084.544A2.169,2.169,0,0,1,.121.075" transform="translate(0.275 0.169)" fill="#fff"/>
          </g>
          <g id="Group_7418" data-name="Group 7418" transform="translate(13.722 4.179)">
            <path id="Path_19160" data-name="Path 19160" d="M0,.238c.053-.044.519-.294.6-.345,0,0,.088-.143.061-.158s-.2.139-.3.144S.116-.2.111-.259A.312.312,0,0,1,.3-.382c.046,0,.039.1.054.115S.429-.339.436-.375s0-.183-.083-.162A.8.8,0,0,0,0-.178C-.026-.1.1-.033.188,0A.453.453,0,0,0,.07.082.355.355,0,0,0,0,.238" transform="translate(0.006 0.539)" fill="#fff"/>
          </g>
          <g id="Group_7419" data-name="Group 7419" transform="translate(12.136 4.49)">
            <path id="Path_19161" data-name="Path 19161" d="M0,.238c.053-.044.519-.294.6-.345,0,0,.088-.143.061-.158s-.2.139-.3.144S.116-.2.111-.259A.311.311,0,0,1,.3-.382c.046,0,.039.1.054.114S.429-.339.436-.375s0-.183-.083-.162A.8.8,0,0,0,0-.178C-.026-.1.1-.033.188,0A.454.454,0,0,0,.07.082.355.355,0,0,0,0,.238" transform="translate(0.006 0.539)" fill="#fff"/>
          </g>
          <g id="Group_7420" data-name="Group 7420" transform="translate(8.43 0.081)">
            <path id="Path_19162" data-name="Path 19162" d="M.044.213c.042.048.315.4.529.614s.581.572.85.814c.052.047.107.1.164.151.068.522.147,1.186.18,1.46s.037.612.038.671.043.047.084-.086a3.414,3.414,0,0,0,.032-.95c-.018-.189-.06-.544-.1-.871.159.157.309.313.411.43a2.261,2.261,0,0,1,.438.606c.068.163.061.293.088.318s.05-.173.021-.362c-.048-.307-.114-.437-.508-.876-.15-.168-.327-.343-.5-.507L1.75,1.486C1.737,1.384,1.6.5,1.592.4S1.568.21,1.569.162s.025-.023.064.016.1.107.116.1c.037-.019,0-.134-.056-.236a4.569,4.569,0,0,0-.267-.524.989.989,0,0,0-.131.3.347.347,0,0,1,.071.217c0,.039.036.4.079.748.038.3.086.593.09.626v0c-.178-.163-.336-.3-.431-.388A6.617,6.617,0,0,1,.368.264c0-.023.034-.009.1,0S.605.3.594.267a.231.231,0,0,0-.1-.1C.427.127.255.019.126-.057S-.066-.2-.093-.179a1.5,1.5,0,0,0,.006.3.255.255,0,0,1,.13.089" transform="translate(0.099 0.482)" fill="#fff"/>
          </g>
          <g id="Group_7421" data-name="Group 7421" transform="translate(8.863 0.048)">
            <path id="Path_19163" data-name="Path 19163" d="M.019.079A1.76,1.76,0,0,1,.413.093C.375.119.119.249.068.279S0,.328.03.325A1.942,1.942,0,0,0,.348.238,1.2,1.2,0,0,0,.6-.031c.049-.064.049-.1.037-.112A1.349,1.349,0,0,0,.1-.16.821.821,0,0,0-.039.06c-.013.033,0,.031.057.019" transform="translate(0.043 0.179)" fill="#fff"/>
          </g>
          <g id="Group_7422" data-name="Group 7422" transform="translate(10.266 0.077)">
            <path id="Path_19164" data-name="Path 19164" d="M.015.064A1.418,1.418,0,0,1,.333.075C.3.1.1.2.055.225S0,.265.024.262A1.531,1.531,0,0,0,.281.192a.969.969,0,0,0,.2-.217c.04-.051.04-.077.03-.091a1.08,1.08,0,0,0-.43-.013A.659.659,0,0,0-.031.048c-.01.026,0,.025.046.015" transform="translate(0.034 0.144)" fill="#fff"/>
          </g>
          <g id="Group_7423" data-name="Group 7423" transform="translate(11.398 0.063)">
            <path id="Path_19165" data-name="Path 19165" d="M.015.064A1.417,1.417,0,0,1,.332.075C.3.1.1.2.055.225S0,.265.024.262A1.657,1.657,0,0,0,.291.192C.351.164.423.026.462-.025S.5-.1.492-.116A.977.977,0,0,0,.083-.129.664.664,0,0,0-.031.048c-.01.026,0,.025.046.015" transform="translate(0.034 0.144)" fill="#fff"/>
          </g>
          <g id="Group_7424" data-name="Group 7424" transform="translate(10.372 0.817)">
            <path id="Path_19166" data-name="Path 19166" d="M.113,0C.046.107.13.192.161.277.12.315.056.281.035.248-.01.18,0,.041-.048.02A.687.687,0,0,0-.071.1a.367.367,0,0,1,.03.157A.1.1,0,0,1-.125.339c-.118,0-.06-.171-.105-.27-.009.024-.016.05-.027.073A.389.389,0,0,1-.242.224,1.051,1.051,0,0,0-.236.346c.01.05.037.083.08.086A.137.137,0,0,0-.015.309C0,.369.116.434.174.361.249.265.189.182.15.092.122.025.13-.019.113,0" transform="translate(0.256 0.004)" fill="#fff"/>
          </g>
          <g id="Group_7425" data-name="Group 7425" transform="translate(7.433 0.255)">
            <path id="Path_19167" data-name="Path 19167" d="M0,.088A.079.079,0,0,0,.067.165a.119.119,0,0,0,.127-.1C.2.117.3.178.354.118.424.038.376-.036.347-.115.326-.174.335-.212.319-.195c-.063.088.006.165.028.24C.31.076.257.044.24.014.2-.046.224-.165.179-.185a.6.6,0,0,0-.023.067A.315.315,0,0,1,.175.019.085.085,0,0,1,.1.087C0,.084.055-.063.021-.15.012-.13,0-.107-.006-.089A.316.316,0,0,1,0-.017c0,.036,0,.074,0,.1" transform="translate(0.006 0.199)" fill="#fff"/>
          </g>
          <g id="Group_7426" data-name="Group 7426" transform="translate(8.462 4.31)">
            <path id="Path_19168" data-name="Path 19168" d="M.421.1A.176.176,0,0,0,.451,0C.445-.037.4-.177.324-.212s-.14.039-.178.141H.12A.324.324,0,0,0,.1.007C.09.066.073.1-.028.2A3.223,3.223,0,0,1-.569.546C-.748.633-.877.708-.925.731s-.034.031.014.017.285-.091.38-.13A2.3,2.3,0,0,0-.181.423.66.66,0,0,0,.1.133C.121.069.126.043.126.043A.6.6,0,0,0,.283.1c.1.023.127.015.138,0M.288-.1a.146.146,0,0,1,.079.094A.562.562,0,0,1,.184-.051.084.084,0,0,1,.288-.1" transform="translate(0.954 0.221)" fill="#fff"/>
          </g>
          <g id="Group_7427" data-name="Group 7427" transform="translate(2.76 2.068)">
            <path id="Path_19169" data-name="Path 19169" d="M1.846.815C1.709.8,1.362.743,1.277.542a2.05,2.05,0,0,1,.81-.358,5.446,5.446,0,0,0,.956-.359.266.266,0,0,1,.074-.006c.021-.06.124-.269.13-.312-.115.007-.823.059-1.137.075S1.19-.406.988-.408a3.564,3.564,0,0,1,.838-.411l.152-.052a.488.488,0,0,1,.066.178.339.339,0,0,0,.04-.212c.245-.078.371-.1.425-.119a.929.929,0,0,0,.1-.356A.948.948,0,0,0,2.361-1.6a.573.573,0,0,0-.443-.146c-.207.051-.248.43-.2.511.015.025.052.071.095.126a4.578,4.578,0,0,0-.448.2,2.225,2.225,0,0,0-.757.514L.578-.38C.57-.364.506-.1.5-.07c.064,0,.546,0,.881-.012S2.006-.1,2.121-.1a3.14,3.14,0,0,0-.744.3.58.58,0,0,0-.211.5A1.192,1.192,0,0,1,.636.292C.426.006.469-.287.385-.671A2.572,2.572,0,0,0-.163-1.845,1.733,1.733,0,0,0-.225-1.5s.2.452.308.74A3.4,3.4,0,0,1,.27-.124,3.106,3.106,0,0,1-.739.683c-.4.217-.749.24-.873.086a.259.259,0,0,1-.05-.106L-1.5.586A4.827,4.827,0,0,0-.355-.1.706.706,0,0,0-.291-.8a4.062,4.062,0,0,1-.253-.452c-.009-.034.1.014.157.017.03,0,.015-.042-.049-.106s-.25-.215-.326-.279c-.019-.016-.033-.01-.037.007-.015.066-.045.206-.057.276l.008.035a.113.113,0,0,1,.059.064,2.84,2.84,0,0,0,.176.377,2.6,2.6,0,0,1,.255.482A5.329,5.329,0,0,1-1.628.341a2.284,2.284,0,0,1,.165-.37.447.447,0,0,0,.058-.084c.057-.1.062-.231.028-.2s-.051.132-.085.139c-.069.014-.166-.067-.142-.214A1.478,1.478,0,0,1-1.48-.723c.043-.107.054-.212.022-.155a2.6,2.6,0,0,0-.251.549c-.042.173,0,.291.076.337a.114.114,0,0,0,.078.019,2.185,2.185,0,0,0-.157.351c-.229.1-.452.194-.637.26-.663.237-1.136.377-1.467.481l-.013.006C-3.8,1.048-3.807.981-3.833,1s-.051.132-.084.139c-.069.014-.166-.066-.142-.214a1.484,1.484,0,0,1,.124-.33c.042-.106.054-.212.022-.155a2.6,2.6,0,0,0-.251.549c-.042.173,0,.291.075.337.091.057.168-.013.228-.121l.021-.045a.557.557,0,0,0,.108-.016c.152-.034.53-.089,1.051-.157A2.952,2.952,0,0,0-1.772.713c0,.028,0,.057,0,.087.014.353.246.453.562.387A3.164,3.164,0,0,0-.222.654,2.109,2.109,0,0,0,.237.22a1.142,1.142,0,0,0,.1-.4A1.386,1.386,0,0,0,.579.6a1.6,1.6,0,0,0,1.3.575c0-.086-.032-.356-.032-.356M1.8-1.375c.1-.117.325-.04.492.107a3.257,3.257,0,0,0-.329.1A1.133,1.133,0,0,1,1.8-1.375" transform="translate(4.18 1.845)" fill="#fff"/>
          </g>
          <g id="Group_7428" data-name="Group 7428" transform="translate(4.645 0.039)">
            <path id="Path_19170" data-name="Path 19170" d="M0,.276A3.863,3.863,0,0,0,.351.1,1.979,1.979,0,0,0,.723-.172.453.453,0,0,0,.79-.247c.047.019.079.039.1.047s.07.028.1-.057A.209.209,0,0,0,.926-.464.53.53,0,0,0,.759-.623C.712-.64.69-.535.7-.538H.729l.006,0a.291.291,0,0,0-.12.17C.61-.327.617-.3.71-.274l.037.011a1.733,1.733,0,0,1-.32.253C.288.085.091.2.034.239S-.017.284,0,.276M.842-.4.847-.443a.477.477,0,0,1,.109.175c-.03,0-.067-.025-.132-.053A.56.56,0,0,0,.842-.4M.655-.4A.117.117,0,0,1,.732-.471c.053-.021.076.038.081.111L.8-.331.75-.347C.7-.362.665-.371.655-.4" transform="translate(0.011 0.625)" fill="#fff"/>
          </g>
          <g id="Group_7429" data-name="Group 7429" transform="translate(7.425 1.316)">
            <path id="Path_19171" data-name="Path 19171" d="M.217.313C.294.263.5.111.623.011A1.775,1.775,0,0,0,.869-.245c.042.027.08.051.115.071a.25.25,0,0,1,.1.1c.013-.019.071-.125.048-.176A1.615,1.615,0,0,0,.946-.369c.043-.1.1-.265.018-.324s-.2.033-.253.14c-.047.089-.053.164.037.226L.82-.278A4.7,4.7,0,0,1,.443.068C.3.191.156.312.132.341L.125.352C.092.263.1.207.077.237-.026.4.1.53.151.662.087.719-.011.666-.043.616-.113.511-.09.3-.171.265A1.046,1.046,0,0,0-.206.387.563.563,0,0,1-.16.629.15.15,0,0,1-.289.756C-.47.761-.381.493-.45.341-.465.378-.475.418-.492.453A.583.583,0,0,1-.47.58,1.772,1.772,0,0,0-.46.766C-.445.843-.4.894-.337.9A.21.21,0,0,0-.12.711C-.1.8.082.9.17.791.287.642.193.515.134.375L.127.357C.135.36.166.347.217.313M.745-.523C.79-.606.884-.613.913-.569A.191.191,0,0,1,.9-.4C.82-.448.746-.5.745-.523" transform="translate(0.492 0.709)" fill="#fff"/>
          </g>
          <g id="Group_7430" data-name="Group 7430" transform="translate(4.769)">
            <path id="Path_19172" data-name="Path 19172" d="M.128.554C-.031.543-.117.4-.166.187A1.663,1.663,0,0,1-.171-.373c.013-.071-.062-.034-.091.138A1.46,1.46,0,0,0-.218.5c.1.288.277.4.43.359S.5.465.547.3.807-.514.927-.55C.944-.469.834-.267.8.037s.026.7.412.773A.705.705,0,0,0,1.952.457,1.353,1.353,0,0,0,2.1.009a.815.815,0,0,0,.48.7A.552.552,0,0,0,3.21.588,1.073,1.073,0,0,0,3.379.052,2.288,2.288,0,0,0,3.192-.57a1.147,1.147,0,0,1-.057-.216c0-.037.08.042.132.058.035.007.023-.069-.02-.122a2.929,2.929,0,0,0-.29-.379,3.076,3.076,0,0,0-.109.312.219.219,0,0,1,.082.154,2.809,2.809,0,0,0,.121.5,4.4,4.4,0,0,1,.175.536.648.648,0,0,1-.594.076A.518.518,0,0,1,2.3-.157a5.386,5.386,0,0,0-.078-.728.776.776,0,0,0-.187-.37c-.02.048-.108.343-.108.343a2.086,2.086,0,0,1,.116.618.665.665,0,0,1-.3.656A.543.543,0,0,1,.964.2c-.1-.26.125-.845.122-1S1.055-.972.991-.947a.93.93,0,0,0-.309.416A5.08,5.08,0,0,0,.454.156c-.064.2-.167.41-.326.4" transform="translate(0.29 1.255)" fill="#fff"/>
          </g>
          <g id="Group_7431" data-name="Group 7431" transform="translate(0.377 0.089)">
            <path id="Path_19173" data-name="Path 19173" d="M.058.251a.733.733,0,0,0,.4-.2C.505.009.528-.05.5-.028A.632.632,0,0,1-.049.146c.008-.034.087-.089.2-.167A.7.7,0,0,0,.336-.175l.013,0c.086.019.186.057.216.026a.166.166,0,0,0,0-.215.675.675,0,0,0-.243-.19C.232-.6.214-.523.2-.495S.2-.447.215-.446a.346.346,0,0,0-.058.135.1.1,0,0,0,.01.069A.114.114,0,0,0,.22-.2l.04.012A1.2,1.2,0,0,1,.07-.053.453.453,0,0,0-.121.153c-.028.082-.017.112.179.1M.4-.327.412-.369V-.4c.062.045.161.131.155.182C.528-.222.453-.238.382-.256A.438.438,0,0,0,.4-.327M.22-.314C.175-.35.219-.386.26-.41s.083-.005.11.074A.321.321,0,0,1,.331-.27.542.542,0,0,1,.22-.314" transform="translate(0.132 0.567)" fill="#fff"/>
          </g>
          <g id="Group_7432" data-name="Group 7432" transform="translate(1.085 2.987)">
            <path id="Path_19174" data-name="Path 19174" d="M.021.04A.322.322,0,0,0-.045.257c.011.01.187.069.215.082L.182.291c.084.075.177.451.2.452S.43.7.45.6.486.37.5.257.549.1.611.084.719.152.735.206A.922.922,0,0,0,.788.037C.778,0,.681-.125.6-.083S.473.14.457.252A1.293,1.293,0,0,1,.409.526,1.008,1.008,0,0,0,.244.162C.155.054.051.014.021.04" transform="translate(0.048 0.091)" fill="#fff"/>
          </g>
          <g id="Group_7433" data-name="Group 7433" transform="translate(0.331 2.422)">
            <path id="Path_19175" data-name="Path 19175" d="M.022.154A1.918,1.918,0,0,0,.34.068,1.2,1.2,0,0,0,.592-.2C.641-.265.641-.3.628-.314A1.346,1.346,0,0,0,.095-.33a.817.817,0,0,0-.141.22c-.013.033,0,.031.057.019A1.746,1.746,0,0,1,.4-.078C.367-.051.111.078.06.109S0,.158.022.154" transform="translate(0.051 0.35)" fill="#fff"/>
          </g>
          <g id="Group_7434" data-name="Group 7434" transform="translate(9.584 0.063)">
            <path id="Path_19176" data-name="Path 19176" d="M1.834,1.156A1.712,1.712,0,0,0,1.377.223C1.255.068,1.082-.134.9-.34.9-.411.89-.475.886-.531.862-.815.781-1.4.746-1.739a2.011,2.011,0,0,1-.008-.227C.74-2,.767-2,.805-1.96s.1.1.108.092,0-.1-.048-.2A4.552,4.552,0,0,0,.583-2.6a.937.937,0,0,0-.116.286.347.347,0,0,1,.07.217c0,.139.089.959.137,1.476l0,.029C.4-.9.148-1.173.043-1.285l-.06-.065c-.017-.138-.033-.27-.044-.379a1.86,1.86,0,0,1-.008-.227c0-.038.029-.033.066.006s.1.1.108.092,0-.1-.048-.2A4.627,4.627,0,0,0-.234-2.6a1.084,1.084,0,0,0-.12.305.348.348,0,0,1,.07.218c0,.059.017.238.038.464A3.65,3.65,0,0,1-.615-2.1c0-.022.034-.009.1,0s.136.032.125,0a.234.234,0,0,0-.1-.1c-.067-.042-.24-.15-.368-.226s-.192-.14-.219-.122a1.515,1.515,0,0,0,.006.3.2.2,0,0,1,.13.078c.038.051.284.4.479.629.056.067.144.171.246.291.02.215.041.437.058.622C-.114-.2.028.917.03,1.28a.884.884,0,0,1-.539.238A.411.411,0,0,1-.94,1.3c-.027-.051-.053-.1-.078-.148a.3.3,0,0,0-.323-.141l-.02.005-.035.017a.805.805,0,0,0-.266.242,6.2,6.2,0,0,0-.364.625c-.118.2-.208.338-.415.305a.466.466,0,0,1-.324-.3,1.2,1.2,0,0,0,.432-.545A2.48,2.48,0,0,0-2.165.3c-.011-.371-.181-1.245-.225-1.579s-.109-.61-.1-.681.117.093.173.106c.029-.006.013-.11-.041-.2-.037-.06-.154-.33-.231-.461-.036-.062-.045-.1-.062-.1a.788.788,0,0,0-.129.3.282.282,0,0,1,.072.177c.008.1.1.808.172,1.332a15.867,15.867,0,0,1,.2,1.644,1.15,1.15,0,0,1-.041.367,1.3,1.3,0,0,1-.46.449c-.049-.317,0-.574-.042-.6-.052.006-.06.153-.066.336a2.12,2.12,0,0,0,.017.326,11.918,11.918,0,0,1-1.138.62c-.141.074-.09.091.029.054a7.345,7.345,0,0,0,1.124-.393l.038-.021a1.133,1.133,0,0,0,.066.176c.118.245.286.39.468.376.153-.012.264-.176.361-.371a2.722,2.722,0,0,1,.426-.714.71.71,0,0,1,.19-.122.266.266,0,0,1,.213.03.226.226,0,0,1,.081.1.894.894,0,0,0,.185.294.593.593,0,0,0,.654.035.616.616,0,0,0,.358-.424A2.934,2.934,0,0,0,.177.452C.159.136.109-.188.08-.531.071-.641.053-.794.032-.96c.2.232.41.468.537.6.044.045.09.094.137.146C.744.3.781.951.8,1.224s.007.613,0,.672.031.049.078-.083A3.367,3.367,0,0,0,.972.865C.964.683.945.35.926.034c.156.186.3.373.4.5a2.7,2.7,0,0,1,.384.659c.055.167.061.216.072.246s.058-.092.051-.283" transform="translate(4.152 2.618)" fill="#fff"/>
          </g>
        </g>
        <path id="sword" d="M21.126,11.329a.176.176,0,0,0-.319,0H20.09a.641.641,0,0,1,.022-.237h1.48l.041.069a.739.739,0,0,0,.139.169Zm.98-.688H20.328a.416.416,0,0,0,.189-.388.22.22,0,0,0-.214-.17h-.056c-.135.013-.233.11-.218.217l.005.041.007.063a.64.64,0,0,1-.022.236H6.875a1.131,1.131,0,0,0,.935.458L19.8,11.092a.416.416,0,0,0-.19.389.234.234,0,0,0,.27.17c.135-.013.232-.11.218-.217l-.005-.041h.7a.173.173,0,0,0,.33,0h.717v0a.938.938,0,0,0,.541.167.321.321,0,0,0,.343-.294v-.085a.587.587,0,0,0-.627-.538" transform="translate(-6.875 -4.029)" fill="#fff"/>
      </g>
    </g>
  </g>
</svg>
