<svg xmlns="http://www.w3.org/2000/svg" xmlns:xlink="http://www.w3.org/1999/xlink" width="80" height="80" viewBox="0 0 80 80">
  <defs>
    <linearGradient id="linear-gradient" x1="0.538" y1="-8.156" x2="0.389" y2="25.69" gradientUnits="objectBoundingBox">
      <stop offset="0" stop-color="#4dc7ed"/>
      <stop offset="0.24" stop-color="#4097cf"/>
      <stop offset="0.47" stop-color="#356fb6"/>
      <stop offset="0.68" stop-color="#2d52a4"/>
      <stop offset="0.87" stop-color="#294099"/>
      <stop offset="1" stop-color="#273a95"/>
    </linearGradient>
    <linearGradient id="linear-gradient-5" x1="0.506" y1="-0.957" x2="0.476" y2="7.34" xlink:href="#linear-gradient"/>
    <linearGradient id="linear-gradient-6" x1="0.507" y1="-1.188" x2="0.475" y2="7.103" xlink:href="#linear-gradient"/>
    <linearGradient id="linear-gradient-8" x1="0.533" y1="-7.111" x2="0.385" y2="26.735" xlink:href="#linear-gradient"/>
    <linearGradient id="linear-gradient-9" x1="0.508" y1="-0.871" x2="0.475" y2="4.218" xlink:href="#linear-gradient"/>
    <linearGradient id="linear-gradient-10" x1="0.512" y1="-1.845" x2="0.47" y2="6.104" xlink:href="#linear-gradient"/>
  </defs>
  <g id="سوشيال_ميديا" data-name="سوشيال ميديا" transform="translate(1781 5603)">
    <rect id="Rectangle_4744" data-name="Rectangle 4744" width="80" height="80" transform="translate(-1781 -5603)" fill="#fff" opacity="0"/>
    <g id="سوشيال_ميديا-2" data-name="سوشيال ميديا" transform="translate(-2542.636 -9085.146)">
      <g id="Group_5787" data-name="Group 5787" transform="translate(815.254 3503.535)">
        <rect id="Rectangle_3907" data-name="Rectangle 3907" width="24.945" height="1.423" rx="0.48" transform="translate(1.007 22.554) rotate(45)" fill="url(#linear-gradient)"/>
        <rect id="Rectangle_3908" data-name="Rectangle 3908" width="24.945" height="1.423" rx="0.48" transform="translate(0 23.561) rotate(-45)" fill="url(#linear-gradient)"/>
        <rect id="Rectangle_3906" data-name="Rectangle 3906" width="9.007" height="9.067" rx="0.48" transform="translate(17.813 33.956) rotate(45)" fill="url(#linear-gradient)"/>
        <rect id="Rectangle_3905" data-name="Rectangle 3905" width="9.007" height="9.067" rx="0.48" transform="translate(18.506 0) rotate(45)" fill="url(#linear-gradient)"/>
      </g>
      <g id="Icon" transform="translate(763.682 3484.183)">
        <path id="Path_5753" data-name="Path 5753" d="M589.578,375.115l-2.47,2.473-7.826-7.826a.511.511,0,0,0-.715,0l-30.5,30.507-2.432-2.424a.508.508,0,0,1,0-.715l32.986-32.977a.505.505,0,0,1,.715,0l10.242,10.25a.5.5,0,0,1,0,.712Z" transform="translate(-545.239 -364.004)" fill="url(#linear-gradient-5)"/>
        <path id="Path_5754" data-name="Path 5754" d="M587.184,402.161l-2.407,2.407L579.206,399a.5.5,0,0,0-.712.017s-1.353,1.278-1.476,1.4L547.88,429.552l-2.441-2.444a.508.508,0,0,1,0-.712L578.427,393.4a.514.514,0,0,1,.712,0l8.042,8.042A.517.517,0,0,1,587.184,402.161Z" transform="translate(-545.1 -384.858)" fill="url(#linear-gradient-6)"/>
        <rect id="Rectangle_2223" data-name="Rectangle 2223" width="9.007" height="9.067" rx="0.48" transform="translate(52.755 35.983) rotate(45)" fill="url(#linear-gradient)"/>
        <rect id="Rectangle_2224" data-name="Rectangle 2224" width="9.007" height="9.067" rx="0.48" transform="translate(43.295 26.653) rotate(45)" fill="url(#linear-gradient-8)"/>
        <path id="Path_5755" data-name="Path 5755" d="M578.536,473.4l-7.594,7.594a.619.619,0,0,1-.1.063l-.419.416a.462.462,0,0,1-.666,0l-24.987-24.987a.5.5,0,0,1,0-.709l33.164-33.141a.506.506,0,0,1,.715,0l5.744,5.744a.508.508,0,0,1,0,.718l-27.144,27.141,12.87,12.87,2.059-2.059Z" transform="translate(-544.62 -405.688)" fill="url(#linear-gradient-9)"/>
        <path id="Path_5756" data-name="Path 5756" d="M637.247,519.239l-4.73,4.73a1.149,1.149,0,0,1-1.643,0l-20.725-20.731a1.149,1.149,0,0,1,0-1.637l4.762-4.719c.034-.034.049-.06.083-.1l9.374-9.374s.029,0,.034-.02l.787-.787a.471.471,0,0,1,.669,0l15.414,15.417a.465.465,0,0,1,0,.666l-5.7,5.7a.046.046,0,0,0-.034.02l-3.271,3.3-6.376-6.376,2.984-2.984-3.34-3.343-3.429,3.447,15.156,15.159a1.149,1.149,0,0,1-.011,1.629Z" transform="translate(-591.084 -451.293)" fill="url(#linear-gradient-10)"/>
      </g>
    </g>
  </g>
</svg>
