<svg width="40" height="40" viewBox="0 0 40 40" fill="none" xmlns="http://www.w3.org/2000/svg">
<rect width="40" height="40" fill="white"/>
<path d="M19.9799 7C22.6992 6.99931 25.3402 7.91033 27.4807 9.58745C29.6212 11.2646 31.1376 13.6109 31.7876 16.2514C33.6805 16.5098 35.4277 17.409 36.7381 18.7993C38.1944 20.3391 39.004 22.3792 39 24.4985C38.9976 26.7173 38.1151 28.8446 36.5461 30.4135C34.9772 31.9824 32.8499 32.8649 30.6311 32.8674H10.8502C8.36189 32.8572 5.96881 31.9095 4.14824 30.2132C2.32766 28.517 1.21338 26.1968 1.02762 23.7153C0.84185 21.2339 1.59825 18.7737 3.14597 16.8253C4.69368 14.8768 6.91898 13.5834 9.37806 13.2028C10.4359 11.3213 11.9755 9.75508 13.8386 8.66502C15.7017 7.57496 17.8213 7.0003 19.9799 7ZM30.6311 31.3457C32.4041 31.3523 34.11 30.6687 35.3878 29.4397C36.6656 28.2106 37.415 26.5326 37.4774 24.7608C37.5397 22.9889 36.9102 21.2623 35.722 19.9465C34.5338 18.6306 32.8802 17.8287 31.1112 17.7106L30.5299 17.6703L30.4173 17.0989C29.9897 14.9353 28.9002 12.9581 27.2997 11.4407C25.6992 9.92334 23.6666 8.94084 21.4833 8.62912C19.3 8.31739 17.0737 8.69184 15.1125 9.70068C13.1513 10.7095 11.5521 12.3029 10.536 14.2604L10.3473 14.6225L9.94181 14.6659C7.82796 14.915 5.88845 15.9602 4.51799 17.5888C3.14753 19.2174 2.4491 21.307 2.56485 23.4323C2.6806 25.5576 3.60182 27.559 5.14104 29.0291C6.68026 30.4993 8.7218 31.3277 10.8502 31.3457H30.6311Z" fill="#000" stroke="#000"/>
<path d="M16.937 27.5401L11.6113 22.2144L13.7568 20.069L16.937 23.2339L24.8189 15.3672L26.9644 17.5127L16.937 27.5401Z" fill="#000"/>
</svg>
