<svg xmlns="http://www.w3.org/2000/svg" width="22" height="16" viewBox="0 0 22 16">
  <path id="تطوير_وتخصيص_برمجيات" data-name="تطوير وتخصيص برمجيات" d="M2,5H21V4H3A2.006,2.006,0,0,0,1,6V18a2.006,2.006,0,0,0,2,2H7V19H2Zm10,7H10v1.78a2.964,2.964,0,0,0,0,4.44V20h2V18.22a2.964,2.964,0,0,0,0-4.44Zm-1,5.5A1.5,1.5,0,1,1,12.5,16,1.5,1.5,0,0,1,11,17.5ZM22,8H16a1.075,1.075,0,0,0-1,1V19a1.075,1.075,0,0,0,1,1h6a1.075,1.075,0,0,0,1-1V9A1.075,1.075,0,0,0,22,8Zm0,11H16V9h6Z" transform="translate(-1 -4)"/>
</svg>
