<svg xmlns="http://www.w3.org/2000/svg" width="25.497" height="19.122" viewBox="0 0 25.497 19.122">
  <g id="تصميم_جرافيكي" data-name="تصميم جرافيكي" transform="translate(-3.555)">
    <path id="Path_13700" data-name="Path 13700" d="M339.684,78.121a.334.334,0,0,1-.235-.088.358.358,0,0,1,0-.47l4.112-4.112a.332.332,0,1,1,.47.47l-4.112,4.112A.334.334,0,0,1,339.684,78.121Z" transform="translate(-323.616 -69.515)"/>
    <path id="Path_13701" data-name="Path 13701" d="M236.755,202.551a1.382,1.382,0,0,1-.969-.411l-.734-.734a1.382,1.382,0,0,1-.411-.969,1.332,1.332,0,0,1,.411-.969l2.82-2.82a.332.332,0,0,1,.47.47l-2.82,2.82a.688.688,0,0,0-.206.5.766.766,0,0,0,.206.5l.734.734a.71.71,0,0,0,1.028,0l2.82-2.82a.332.332,0,0,1,.47.47l-2.82,2.82a1.507,1.507,0,0,1-1,.411Z" transform="translate(-224.388 -186.25)"/>
    <path id="Path_13702" data-name="Path 13702" d="M381.124,120.707a.333.333,0,0,1-.235-.088.358.358,0,0,1,0-.47l4.142-4.142a.332.332,0,1,1,.47.47l-4.142,4.112c-.088.059-.147.117-.235.117Z" transform="translate(-362.882 -109.839)"/>
    <path id="Path_13703" data-name="Path 13703" d="M420.01,59.562h-.088a.36.36,0,0,1-.235-.411l.734-2.526-2.526.734a.335.335,0,1,1-.176-.646l3.084-.91a.337.337,0,0,1,.411.411l-.881,3.113a.343.343,0,0,1-.323.235Z" transform="translate(-397.627 -52.865)"/>
    <path id="Path_13704" data-name="Path 13704" d="M419.45,77.053h-.088a3.545,3.545,0,0,1-1.527-.91,3.662,3.662,0,0,1-.91-1.527.335.335,0,1,1,.646-.176,2.777,2.777,0,0,0,.734,1.234,2.67,2.67,0,0,0,1.234.734.36.36,0,0,1,.235.411.39.39,0,0,1-.323.235Z" transform="translate(-397.096 -70.297)"/>
    <path id="Path_13705" data-name="Path 13705" d="M266.847,229.65a.333.333,0,0,1-.235-.088l-2.2-2.2a.332.332,0,1,1,.47-.47l2.2,2.2a.358.358,0,0,1,0,.47A.334.334,0,0,1,266.847,229.65Z" transform="translate(-252.512 -214.905)"/>
    <path id="Path_13706" data-name="Path 13706" d="M301.459,160.1a.333.333,0,0,1-.235-.088l-7.7-7.7a.332.332,0,0,1,.47-.47l7.7,7.666a.358.358,0,0,1,0,.47.268.268,0,0,1-.235.117Z" transform="translate(-280.104 -143.801)"/>
    <path id="Path_13707" data-name="Path 13707" d="M213.674,74.379a2.51,2.51,0,0,1-1.792-.734c-.91-.91-1.292-4.171-1.322-4.553a.409.409,0,0,1,.088-.264.3.3,0,0,1,.264-.088c.382.029,3.613.411,4.553,1.322a2.542,2.542,0,0,1,.734,2,.324.324,0,0,1-.646-.059,1.8,1.8,0,0,0-.529-1.469c-.558-.558-2.614-.94-3.73-1.087.147,1.116.529,3.172,1.087,3.73a1.861,1.861,0,0,0,2.643,0,.332.332,0,1,1,.47.47,2.628,2.628,0,0,1-1.821.734Z" transform="translate(-201.572 -65.127)"/>
    <path id="Path_13708" data-name="Path 13708" d="M130.273,19.12H109.125a2.169,2.169,0,0,1-2.174-2.174V2.172A2.15,2.15,0,0,1,109.125,0h21.148a2.169,2.169,0,0,1,2.174,2.174V16.946a2.15,2.15,0,0,1-2.174,2.173ZM109.125.674A1.517,1.517,0,0,0,107.6,2.2V16.975a1.517,1.517,0,0,0,1.527,1.527h21.148a1.517,1.517,0,0,0,1.527-1.527V2.172A1.517,1.517,0,0,0,130.273.644H109.125Z" transform="translate(-103.396 0.002)"/>
  </g>
</svg>
