<svg xmlns="http://www.w3.org/2000/svg" width="22" height="24.289" viewBox="0 0 22 24.289">
  <g id="التسويق_الإلكتروني" data-name="التسويق الإلكتروني" transform="translate(-2.813)">
    <path id="Path_13748" data-name="Path 13748" d="M121.35,3.75s0,0,0-.007a.532.532,0,0,0-.006-.059c0-.013,0-.026,0-.038a.414.414,0,0,0-.015-.046c-.005-.015-.009-.031-.015-.046s-.012-.022-.018-.034a.527.527,0,0,0-.03-.051l0-.006c-.007-.009-.015-.016-.022-.025a.58.58,0,0,0-.111-.1.42.42,0,0,0-.042-.023c-.014-.007-.028-.015-.043-.021s-.03-.01-.045-.014-.031-.009-.046-.012a.446.446,0,0,0-.052-.005c-.012,0-.024,0-.036,0h-.008a.485.485,0,0,0-.054.005c-.015,0-.029,0-.043.005s-.028.009-.041.013a.427.427,0,0,0-.051.017c-.011,0-.022.012-.033.018a.471.471,0,0,0-.052.03l-.007,0L112.63,9.085h-8.423a4.854,4.854,0,0,0-1.585,9.444V25.2a2.345,2.345,0,1,0,4.691,0V18.8h5.316l7.941,5.734,0,0a.48.48,0,0,0,.122.061l.028.009a.477.477,0,0,0,.131.02h0a.5.5,0,0,0,.107-.013l.027-.008a.476.476,0,0,0,.074-.027l.032-.017a.5.5,0,0,0,.059-.039.286.286,0,0,0,.029-.024.5.5,0,0,0,.056-.06.2.2,0,0,0,.014-.015l0-.006a.459.459,0,0,0,.03-.051c.006-.011.013-.022.018-.034a.467.467,0,0,0,.015-.046c0-.015.011-.031.015-.046s0-.025,0-.038a.461.461,0,0,0,.006-.059s0,0,0-.007Zm-8.07,6.078,7.087-5.117V23.173l-7.087-5.117Zm-12.947,4.115a3.878,3.878,0,0,1,3.874-3.874h8.09v7.748h-8.09a3.878,3.878,0,0,1-3.874-3.874Zm6,11.26a1.362,1.362,0,1,1-2.725,0V18.757a4.87,4.87,0,0,0,.6.041h2.123Z" transform="translate(-96.537 -3.258)"/>
  </g>
</svg>
