<svg xmlns="http://www.w3.org/2000/svg" width="12.396" height="22" viewBox="0 0 12.396 22">
  <g id="تصميم_تطبيقات_موبايل" data-name="تصميم تطبيقات موبايل" transform="translate(-6.957)">
    <path id="Path_13474" data-name="Path 13474" d="M202.605,0h-8.659a1.867,1.867,0,0,0-1.868,1.868V20.132A1.867,1.867,0,0,0,193.946,22h8.659a1.867,1.867,0,0,0,1.868-1.868V1.868A1.9,1.9,0,0,0,202.605,0Zm-8.659.725h8.659a1.135,1.135,0,0,1,1.143,1.143V2.9H192.781V1.868A1.14,1.14,0,0,1,193.946.725Zm9.8,2.879V18.154H192.781V3.6Zm-1.143,17.67h-8.659a1.135,1.135,0,0,1-1.143-1.143V18.857H203.77v1.275a1.183,1.183,0,0,1-1.165,1.143Z" transform="translate(-185.121 0)"/>
    <path id="Path_13478" data-name="Path 13478" d="M257.129,194.426a1,1,0,0,0,.588.7,3.018,3.018,0,0,0,.936.109,3.859,3.859,0,0,0,.936-.109,1.035,1.035,0,0,0,.588-.7,2.982,2.982,0,0,0,.087-.784,2.717,2.717,0,0,0-.087-.762.971.971,0,0,0-.588-.7,3.017,3.017,0,0,0-.936-.109,3.859,3.859,0,0,0-.936.109,1.035,1.035,0,0,0-.588.7,2.983,2.983,0,0,0-.087.784C257.063,193.926,257.085,194.187,257.129,194.426Z" transform="translate(-247.983 -186.113)"/>
    <path id="Path_13479" data-name="Path 13479" d="M357.929,194.426a1,1,0,0,0,.588.7,3.017,3.017,0,0,0,.936.109,3.859,3.859,0,0,0,.936-.109,1.035,1.035,0,0,0,.588-.7,2.982,2.982,0,0,0,.087-.784,2.717,2.717,0,0,0-.087-.762.971.971,0,0,0-.588-.7,3.018,3.018,0,0,0-.936-.109,3.859,3.859,0,0,0-.936.109,1.035,1.035,0,0,0-.588.7,2.983,2.983,0,0,0-.087.784A2.923,2.923,0,0,0,357.929,194.426Z" transform="translate(-343.813 -186.113)"/>
    <path id="Path_13480" data-name="Path 13480" d="M258.653,286.978a2.616,2.616,0,0,1,.827.109.777.777,0,0,1,.414.522v.022a3.748,3.748,0,0,1,0,1.393v.022a.7.7,0,0,1-.414.5,3.363,3.363,0,0,1-1.7,0,.769.769,0,0,1-.414-.5,3.413,3.413,0,0,1-.087-.718,3.3,3.3,0,0,1,.065-.7v-.022a.7.7,0,0,1,.414-.5,2.681,2.681,0,0,1,.892-.131m0-.261a3.86,3.86,0,0,0-.936.109,1.035,1.035,0,0,0-.588.7,3.572,3.572,0,0,0,0,1.567,1,1,0,0,0,.588.7,3.017,3.017,0,0,0,.936.109,3.859,3.859,0,0,0,.936-.109,1.035,1.035,0,0,0,.588-.7,2.983,2.983,0,0,0,.087-.784,2.718,2.718,0,0,0-.087-.762.971.971,0,0,0-.588-.7,3.2,3.2,0,0,0-.936-.131Z" transform="translate(-247.983 -273.856)"/>
    <path id="Path_13481" data-name="Path 13481" d="M357.929,289.626a1,1,0,0,0,.588.7,3.017,3.017,0,0,0,.936.109,3.859,3.859,0,0,0,.936-.109,1.035,1.035,0,0,0,.588-.7,2.981,2.981,0,0,0,.087-.784,2.717,2.717,0,0,0-.087-.762.971.971,0,0,0-.588-.7,3.018,3.018,0,0,0-.936-.109,3.858,3.858,0,0,0-.936.109,1.035,1.035,0,0,0-.588.7,2.983,2.983,0,0,0-.087.784A2.924,2.924,0,0,0,357.929,289.626Z" transform="translate(-343.813 -274.415)"/>
  </g>
</svg>
