<svg xmlns="http://www.w3.org/2000/svg" width="22" height="20.441" viewBox="0 0 22 20.441">
  <g id="تصميم_واجهة_المستخدم" data-name="تصميم واجهة المستخدم" transform="translate(-78.084 -36.749)">
    <path id="Path_13589" data-name="Path 13589" d="M204.4,119.269H187.033a2.319,2.319,0,0,1-2.316-2.317V103.835a.582.582,0,0,1,.582-.582h20.834a.582.582,0,0,1,.582.582v13.116a2.319,2.319,0,0,1-2.316,2.317Zm-18.519-14.849v12.533a1.153,1.153,0,0,0,1.151,1.152H204.4a1.153,1.153,0,0,0,1.151-1.152V104.418Z" transform="translate(-106.633 -62.078)"/>
    <path id="Path_13590" data-name="Path 13590" d="M206.141,42.339a.582.582,0,0,1-.582-.582V39.064a1.153,1.153,0,0,0-1.151-1.15H187.039a1.153,1.153,0,0,0-1.151,1.152v2.693a.582.582,0,1,1-1.165,0V39.066a2.319,2.319,0,0,1,2.316-2.317h17.368a2.319,2.319,0,0,1,2.316,2.317v2.693a.582.582,0,0,1-.582.58Z" transform="translate(-106.639)"/>
    <path id="Path_13595" data-name="Path 13595" d="M273.1,146.172a3.841,3.841,0,0,1-3.834-3.838V138.89a.825.825,0,0,1,1.649,0v3.445a2.186,2.186,0,1,0,4.371,0V138.89a.825.825,0,0,1,1.649,0v3.445a3.841,3.841,0,0,1-3.835,3.838Z" transform="translate(-187.278 -92.936)"/>
    <path id="Path_13596" data-name="Path 13596" d="M3.982,6.32.19,1.049A.563.563,0,0,1,0,.57.614.614,0,0,1,.3.13.888.888,0,0,1,.892.009.793.793,0,0,1,1.4.282L5.2,5.553h0a.563.563,0,0,1-.141.887.878.878,0,0,1-1.074-.116Z" transform="matrix(0.799, 0.602, -0.602, 0.799, 93.442, 44.496)"/>
  </g>
</svg>
