<svg xmlns="http://www.w3.org/2000/svg" width="22" height="18.833" viewBox="0 0 22 18.833">
  <g id="تصميم_مواقع" data-name="تصميم مواقع" transform="translate(-0.957)">
    <path id="Path_13580" data-name="Path 13580" d="M107.147,59.046a.7.7,0,0,0,.693-.7V56.306a.7.7,0,0,0-.7-.7H88.415a.7.7,0,0,0-.7.7v2.039a.7.7,0,0,0,.692.7h18.741Zm-1.39,10.018h-4.911a.468.468,0,0,1-.468-.468V63.768a.468.468,0,0,1,.468-.468h4.911a.468.468,0,0,1,.468.468V68.6A.468.468,0,0,1,105.757,69.063Zm-4.443-.937h3.975V64.236h-3.975Zm-10.983,0h6.882V64.236H90.331Zm7.35.937H89.863A.468.468,0,0,1,89.4,68.6V63.768a.468.468,0,0,1,.468-.468h7.818a.468.468,0,0,1,.468.468V68.6A.468.468,0,0,1,97.681,69.063Zm10.6-9.549.012.012a1.635,1.635,0,0,1,.483,1.158V71.862a1.642,1.642,0,0,1-1.639,1.638H88.415a1.642,1.642,0,0,1-1.639-1.638V60.684a1.633,1.633,0,0,1,.481-1.156l.014-.014-.014-.014a1.634,1.634,0,0,1-.481-1.157V56.305a1.642,1.642,0,0,1,1.638-1.638h18.723a1.645,1.645,0,0,1,1.639,1.638v2.039A1.634,1.634,0,0,1,108.3,59.5l-.014.014Zm-19.876.467a.7.7,0,0,0-.693.7V71.862a.7.7,0,0,0,.7.7h18.723a.7.7,0,0,0,.7-.7V60.684a.7.7,0,0,0-.693-.7H88.406Z" transform="translate(-85.82 -54.667)"/>
  </g>
</svg>
