<svg width="40" height="40" viewBox="0 0 40 40" fill="none" xmlns="http://www.w3.org/2000/svg">
<mask id="mask0_103_87" style="mask-type:alpha" maskUnits="userSpaceOnUse" x="0" y="0" width="40" height="40">
<rect width="40" height="40" fill="#D9D9D9"/>
</mask>
<g mask="url(#mask0_103_87)">
<path d="M26.3835 12.6908L20.4748 18.6015C20.4491 18.6203 20.4215 18.6365 20.3924 18.6497L20.0688 18.9773C20.0348 19.0118 19.9943 19.0391 19.9496 19.0578C19.9049 19.0765 19.857 19.0861 19.8086 19.0861C19.7602 19.0861 19.7122 19.0765 19.6675 19.0578C19.6229 19.0391 19.5823 19.0118 19.5483 18.9773L0.110061 -0.460942C0.0393875 -0.535592 0 -0.634484 0 -0.737282C0 -0.84008 0.0393875 -0.938971 0.110061 -1.01362L25.9112 -26.8167C25.9861 -26.8892 26.0863 -26.9297 26.1905 -26.9297C26.2948 -26.9297 26.3949 -26.8892 26.4699 -26.8167L30.9315 -22.3551C31.004 -22.2802 31.0445 -22.18 31.0445 -22.0758C31.0445 -21.9715 31.004 -21.8714 30.9315 -21.7964L9.8091 -0.673974L19.8196 9.33054L21.4274 7.72274L26.3835 12.6908Z" fill="url(#paint0_linear_103_87)"/>
<path d="M35.9219 12.8717L32.232 16.5616C32.1484 16.6462 32.0489 16.7134 31.9392 16.7592C31.8295 16.805 31.7118 16.8286 31.5929 16.8286C31.474 16.8286 31.3563 16.805 31.2466 16.7592C31.1369 16.7134 31.0373 16.6462 30.9538 16.5616L14.8195 0.421357C14.7353 0.338006 14.6685 0.23878 14.6228 0.129426C14.5772 0.0200719 14.5537 -0.0972434 14.5537 -0.215735C14.5537 -0.334227 14.5772 -0.451542 14.6228 -0.560896C14.6685 -0.670251 14.7353 -0.76947 14.8195 -0.852821L18.5235 -4.52463C18.5516 -4.55076 18.5617 -4.57286 18.5898 -4.601L25.8852 -11.8964C25.8852 -11.8964 25.9053 -11.8964 25.9113 -11.9125L26.5142 -12.5154C26.5481 -12.5501 26.5886 -12.5776 26.6333 -12.5965C26.678 -12.6153 26.726 -12.625 26.7745 -12.625C26.823 -12.625 26.871 -12.6153 26.9157 -12.5965C26.9604 -12.5776 27.0009 -12.5501 27.0348 -12.5154L39.045 -0.521214C39.0797 -0.487331 39.1073 -0.446851 39.1261 -0.402155C39.1449 -0.35746 39.1546 -0.309448 39.1546 -0.26095C39.1546 -0.212451 39.1449 -0.164445 39.1261 -0.11975C39.1073 -0.075054 39.0797 -0.0345742 39.045 -0.000690912L34.6095 4.43482C34.6095 4.43482 34.5934 4.43482 34.5834 4.45089L32.027 7.01734L27.0649 2.05126L29.3882 -0.272008L26.7896 -2.87262L24.1186 -0.201665L35.9219 11.5935C36.0069 11.6768 36.0745 11.7762 36.1207 11.886C36.1668 11.9957 36.1906 12.1136 36.1906 12.2326C36.1906 12.3517 36.1668 12.4695 36.1207 12.5793C36.0745 12.689 36.0069 12.7885 35.9219 12.8717Z" fill="url(#paint1_linear_103_87)"/>
</g>
<defs>
<linearGradient id="paint0_linear_103_87" x1="15.764" y1="-67.0217" x2="14.741" y2="167.132" gradientUnits="userSpaceOnUse">
<stop stop-color="#4FC8EE"/>
<stop offset="0.24" stop-color="#4197D0"/>
<stop offset="0.47" stop-color="#356FB7"/>
<stop offset="0.68" stop-color="#2D52A5"/>
<stop offset="0.87" stop-color="#28409A"/>
<stop offset="1" stop-color="#263A96"/>
</linearGradient>
<linearGradient id="paint1_linear_103_87" x1="27.1473" y1="-66.9775" x2="26.1244" y2="167.178" gradientUnits="userSpaceOnUse">
<stop stop-color="#4FC8EE"/>
<stop offset="0.24" stop-color="#4197D0"/>
<stop offset="0.47" stop-color="#356FB7"/>
<stop offset="0.68" stop-color="#2D52A5"/>
<stop offset="0.87" stop-color="#28409A"/>
<stop offset="1" stop-color="#263A96"/>
</linearGradient>
</defs>
</svg>
