<svg id="الكفاءة_والخبرة" data-name="الكفاءة والخبرة" xmlns="http://www.w3.org/2000/svg" width="42" height="42" viewBox="0 0 42 42">
  <path id="Path_6396" data-name="Path 6396" d="M45.25,51H42.865c-.57-2.76-.907-6-4.65-7.673C40.195,41.82,40,39.908,40,38.25a4.5,4.5,0,1,0-9,0c0,1.785-.18,3.578,1.778,5.078-1.417.622-.24.675-2.055-.8a9.2,9.2,0,0,0-2.685-1.5c2.385-1.7,2.25-3.982,2.25-5.775a5.25,5.25,0,0,0-10.5,0c0,1.665-.255,4.02,2.25,5.782a9.067,9.067,0,0,0-3.93,2.73,6.12,6.12,0,0,0-.818-.435C19.2,41.813,19,39.9,19,38.25a4.5,4.5,0,0,0-9,0c0,1.785-.18,3.585,1.785,5.085C8.027,45,7.682,48.345,7.135,51H4.75a.75.75,0,0,0,0,1.5h40.5a.75.75,0,0,0,0-1.5ZM32.5,39.75v-1.5a3,3,0,1,1,6,0v1.5a3,3,0,1,1-6,0Zm-11.25-3v-1.5a3.75,3.75,0,0,1,7.5,0v1.5a3.75,3.75,0,0,1-7.5,0Zm-9.75,3v-1.5a3,3,0,0,1,6,0v1.5a3,3,0,1,1-6,0ZM9.115,48.833A5.46,5.46,0,0,1,17.162,45c-1.028,1.725-1.2,3.353-1.77,6H11.71l.54-2.07a.771.771,0,1,0-1.5-.36L10.165,51h-1.5ZM30.925,51l-.75-3.165a.75.75,0,1,0-1.455.368l.66,2.8H20.665l.585-2.85a.765.765,0,0,0-1.5-.3L19.135,51h-2.2a38.729,38.729,0,0,1,.862-3.818A7.613,7.613,0,0,1,31.2,45.2c1.162,1.62,1.275,3,1.868,5.8Zm8.91,0-.585-2.43a.75.75,0,0,0-1.455.36L38.29,51H34.608c-.638-3-.818-4.425-1.77-6a5.445,5.445,0,0,1,8.047,3.855L41.327,51Z" transform="translate(-4 -10.5)" fill="#234192"/>
  <path id="Path_6397" data-name="Path 6397" d="M40.75,4H9.25A5.25,5.25,0,0,0,4,9.25v4.5A5.25,5.25,0,0,0,9.25,19h2.535l2.047,4.087a.75.75,0,0,0,1.335,0L17.215,19h5.82l1.3,2.587a.75.75,0,0,0,1.335,0L26.965,19h5.82l2.048,4.087a.75.75,0,0,0,1.335,0L38.215,19H40.75A5.25,5.25,0,0,0,46,13.75V9.25A5.25,5.25,0,0,0,40.75,4Zm3.75,9.75a3.75,3.75,0,0,1-3.75,3.75h-3c-.615,0-.585.24-2.25,3.57-1.7-3.4-1.642-3.57-2.25-3.57-7.5,0-7.14-.142-7.417.412L25,19.57l-.833-1.658c-.278-.562-.045-.412-7.417-.412-.615,0-.585.24-2.25,3.57-1.7-3.4-1.643-3.57-2.25-3.57h-3A3.75,3.75,0,0,1,5.5,13.75V9.25A3.75,3.75,0,0,1,9.25,5.5h31.5A3.75,3.75,0,0,1,44.5,9.25Z" transform="translate(-4 -4)" fill="#234192"/>
  <path id="Path_6398" data-name="Path 6398" d="M19.811,10.924,18.146,10.6l-.825-1.5a.75.75,0,0,0-1.313,0l-.825,1.5c-1.77.345-2.055.3-2.25.825s.18.75,1.32,1.988c-.225,1.792-.36,2.055.1,2.377s.75.06,2.3-.638c1.68.75,1.627.75,1.852.75a.75.75,0,0,0,.75-.84l-.187-1.635,1.155-1.245a.75.75,0,0,0-.405-1.26Zm-2.2,3c-1.065-.5-.855-.488-1.89,0,.135-1.14.21-.937-.585-1.8,1.147-.225.975-.113,1.5-1.117.555,1,.375.892,1.5,1.117-.72.847-.667.645-.525,1.815ZM28.819,9.679a2.25,2.25,0,0,0-1.6.66,2.25,2.25,0,1,0-3.187,3.172l2.678,2.678a.75.75,0,0,0,1.057,0l2.655-2.648a2.25,2.25,0,0,0-1.6-3.863Zm.54,2.8L27.221,14.6l-2.13-2.145a.75.75,0,0,1,.517-1.275c.368,0,.465.15,1.08.75a.75.75,0,0,0,1.057,0l.533-.533a.764.764,0,0,1,1.08,1.08Zm11.452-.8-1.665-.323-.825-1.5a.75.75,0,0,0-1.312,0l-.825,1.5c-1.77.345-2.055.3-2.25.825s.18.75,1.32,1.988c-.225,1.792-.36,2.055.1,2.377s.787.06,2.295-.638c1.68.75,1.627.75,1.853.75a.75.75,0,0,0,.75-.84l-.187-1.635,1.155-1.245a.75.75,0,0,0-.4-1.26Zm-2.2,3c-1.065-.495-.855-.487-1.89,0,.135-1.14.21-.937-.585-1.8,1.147-.225.975-.113,1.5-1.117.555,1,.375.892,1.5,1.117-.72.847-.667.645-.525,1.815Z" transform="translate(-6.221 -5.179)" fill="#234192"/>
</svg>
