<svg xmlns="http://www.w3.org/2000/svg" xmlns:xlink="http://www.w3.org/1999/xlink" width="450.342" height="405.774" viewBox="0 0 450.342 405.774">
  <defs>
    <clipPath id="clip-path">
      <rect id="Rectangle_2519" data-name="Rectangle 2519" width="450.342" height="405.774" fill="none"/>
    </clipPath>
  </defs>
  <g id="Group_1" data-name="Group 1" transform="translate(0 0.001)">
    <rect id="Rectangle_2518" data-name="Rectangle 2518" width="6.285" height="91.92" transform="translate(363.183 301.24)" fill="#1d3b4c"/>
    <g id="Group_5185" data-name="Group 5185" transform="translate(0 -0.001)">
      <g id="Group_5184" data-name="Group 5184" transform="translate(0 0)" clip-path="url(#clip-path)">
        <path id="Path_6399" data-name="Path 6399" d="M882.787,979.986H820.333a5.208,5.208,0,0,0-5.208,5.209.91.91,0,0,0,.91.911h71.049a.911.911,0,0,0,.911-.911,5.209,5.209,0,0,0-5.209-5.209" transform="translate(-484.696 -582.727)" fill="#1d3b4c"/>
        <path id="Path_6400" data-name="Path 6400" d="M895.406,969.876h-7.651a4.1,4.1,0,1,0,0,8.2h7.65a4.1,4.1,0,0,0,0-8.2" transform="translate(-525.447 -576.715)" fill="#1d3b4c"/>
        <path id="Path_6401" data-name="Path 6401" d="M795.665,646.958l4.3-17.889A29.02,29.02,0,0,1,826.9,606.936l54.428-2.2,1.68-5.541-56.328,2.277a34.511,34.511,0,0,0-32.038,26.32L790.078,646.8c1.547.066,3.433.118,5.587.157" transform="translate(-469.803 -356.298)" fill="#1d3b4c"/>
        <path id="Path_6402" data-name="Path 6402" d="M848.8,539.049s-74.778,1.28-82.574,0-11.17,8.494-8.843,13.614,8.726,7.1,18.151,7.563,87.849,2.676,90.06.582c1.806-1.711,25.58-82.99,34.231-112.714a11.221,11.221,0,0,0-21.517-6.379Z" transform="translate(-449.929 -257.917)" fill="#273587"/>
        <path id="Path_6403" data-name="Path 6403" d="M147.218,576.319H384.592a5.315,5.315,0,0,0,0-10.631H147.218a5.315,5.315,0,0,0,0,10.631" transform="translate(-84.38 -336.374)" fill="#1d3b4c"/>
        <path id="Path_6404" data-name="Path 6404" d="M720.453,755.083h7.566l-16.3-163.169h-7.566Z" transform="translate(-418.708 -351.968)" fill="#1d3b4c"/>
        <path id="Path_6405" data-name="Path 6405" d="M574.68,755.083h-7.566l16.3-163.169h7.566Z" transform="translate(-337.222 -351.968)" fill="#1d3b4c"/>
        <path id="Path_6406" data-name="Path 6406" d="M284.467,755.083h7.566l-16.3-163.169h-7.566Z" transform="translate(-159.459 -351.968)" fill="#1d3b4c"/>
        <path id="Path_6407" data-name="Path 6407" d="M138.693,755.083h-7.566l16.3-163.169h7.566Z" transform="translate(-77.972 -351.968)" fill="#1d3b4c"/>
        <path id="Path_6408" data-name="Path 6408" d="M420.825,452.538h54.139a3.53,3.53,0,0,1,3.266,2.191l16.67,40.657h29.847a1.51,1.51,0,1,1,0,3.02H439.8a5.931,5.931,0,0,1-5.41-3.5L417.6,457.514a3.53,3.53,0,0,1,3.22-4.976" transform="translate(-248.133 -269.091)" fill="#acafaf"/>
        <path id="Path_6409" data-name="Path 6409" d="M497.8,505.166a2.979,2.979,0,1,0,2.234-3.885,3.185,3.185,0,0,0-2.234,3.885" transform="translate(-295.963 -298.045)" fill="#f7f7f7"/>
        <path id="Path_6410" data-name="Path 6410" d="M138.019,501.167c1.167-2.946,1.878-5.994.78-8.975-1.739-4.723-5.072-5.119-10.1-6.995-4.322-1.611-7.518-1.741-10.059-.411-2.462,1.288-3.915,3.672-5.338,6.854l4.28,1.913c2.129-4.76,3.411-6.225,9.48-3.964,4.521,1.685,6.821,3.074,7.458,4.506.468,1.053.212,2.651-.855,5.343Z" transform="translate(-67.37 -287.728)" fill="#1a3141"/>
        <path id="Path_6411" data-name="Path 6411" d="M806.447,14.157a42.562,42.562,0,0,0,5.221-.86,24.658,24.658,0,0,1,5.925-.851c3.129.2,8.259,1.663,10.441,5.412,2.719,4.671,9.776,2.9,4,22.934C825.5,63.471,813.27,58.118,813.046,57.66s-8.151-17.237-8.151-17.237-5.756,7.628-5.687,7.317-13.852-31.314,7.24-33.583" transform="translate(-472.589 -7.393)" fill="#0e0b2f"/>
        <path id="Path_6412" data-name="Path 6412" d="M621.033,149.612c.083-1.493,6.862.071,7.744-1.11s-7.424-4.726-7.245-6.009c.33-2.363,9.336,3.324,9.556,2.247s-8.777-7.4-7-8.671,8.646,7.529,9.4,6.478-7.122-7.61-5.909-10.092c.649-1.327,12.036,12.916,14.052,12.88s1.107-7.9,2.861-8.293-.1,15.191.651,16.045,15.986,20.447,22.332,25.18c1.84-2.02,13.222-12.061,14.908-13.994,2.811,4.473,7.171,6.994,10.213,11.269-6.05,6.229-23.842,20.37-26.3,20.451-7.487.248-23.547-30.062-26.99-35.535s-6.7-5.505-9.546-7.961-8.809-1.393-8.726-2.885" transform="translate(-369.283 -78.709)" fill="#f48c7f"/>
        <path id="Path_6413" data-name="Path 6413" d="M765.513,195.8s21.358-14.6,26.1-23.353-12.685-21.18-20.643-17.39c-8.821,4.2-20.162,25.622-20.162,25.622Z" transform="translate(-446.454 -91.784)" fill="#4e7be4"/>
        <path id="Path_6414" data-name="Path 6414" d="M736.175,930.675s.754,13.571.758,13.6c.277,1.723,1.369,5.98,1.369,7.546,0,5.884-25.7-4.995-19.942-7.6.522-.236,3.253-2.021,3.424-4.024.265-3.086.935-9.328.935-9.328Z" transform="translate(-426.657 -553.405)" fill="#f7a491"/>
        <path id="Path_6415" data-name="Path 6415" d="M688.461,964.308s6.044,2.913,9.135,3.363,7.165-3.339,9.351-2.316c2.406,1.126,2.163,12.219,2.163,12.219s-32.212,1.934-41.311-1.053c-3.6-1.183,8.324-8.021,20.661-12.214" transform="translate(-396.704 -573.404)" fill="#407bff"/>
        <path id="Path_6416" data-name="Path 6416" d="M875.866,933.888s.754,13.571.759,13.6c.277,1.723,1.369,5.98,1.369,7.546,0,5.884-25.7-4.995-19.942-7.6.522-.236,4.063-3.354,4.234-5.357.264-3.086.125-8,.125-8Z" transform="translate(-509.721 -555.316)" fill="#f7a491"/>
        <path id="Path_6417" data-name="Path 6417" d="M826.905,966.8a91.26,91.26,0,0,0,9.125,2.25c3.091.45,7.165-3.339,9.351-2.315,2.406,1.126,2.5,11.266,2.5,11.266s-34.437,2.543-42.534.155c-3.638-1.073,9.218-7.164,21.555-11.356" transform="translate(-478.511 -574.743)" fill="#407bff"/>
        <path id="Path_6418" data-name="Path 6418" d="M753.286,450.627,742.419,455.4l-22.858,111.19.926,83.356,18.324.434s8.523-72.915,8.523-78.566S786.81,472.93,786.81,472.93Z" transform="translate(-427.871 -267.955)" fill="#485156"/>
        <path id="Path_6419" data-name="Path 6419" d="M823.445,453.2s8.006,85.668,8.006,100.109,6.49,95.263,6.49,95.263l18.368-.108s1.325-24.635,3.294-60.878c.308-5.676-.4-17.129,0-23.005,2.857-42.264,6.128-113.431,4.538-115.107-12.028-12.676-40.7,3.725-40.7,3.725" transform="translate(-489.644 -264.414)" fill="#65696b"/>
        <path id="Path_6420" data-name="Path 6420" d="M803.379,148.491s14.4,1.527,17.933,3.728c3.984,2.479,6.057,12.811,6.057,12.811s-2.274,53.741-1.223,66.305c.813,9.72,1.4,61.448,1.4,61.448s-49.68,1.017-68.037-4.594c0,0,6.08-34.814,5.44-42.266s.246-75.791,1.365-80.654c1.015-4.412,2.882-12.346,11.28-14.983s25.785-1.794,25.785-1.794" transform="translate(-451.625 -88.22)" fill="#407bff"/>
        <path id="Path_6421" data-name="Path 6421" d="M834.924,112.044l4.67,17.721s-8.516,10.664-15.49,9.392c-5.852-1.068-5.021-8.587-5.021-8.587s2.243-10.446.871-15.458,14.97-3.067,14.97-3.067" transform="translate(-487.025 -66.403)" fill="#f7a491"/>
        <path id="Path_6422" data-name="Path 6422" d="M821.171,115.111c-1.372-5.013,14.97-3.067,14.97-3.067l.387,1.47A8.21,8.21,0,0,1,835,116.17a22.718,22.718,0,0,1-13.563,6.753,24.392,24.392,0,0,0-.268-7.813" transform="translate(-488.243 -66.403)" fill="#f47458"/>
        <path id="Path_6423" data-name="Path 6423" d="M129.2,899.284s-4.7,4.587-4.807,6.27-.417,19.716,1.5,21.4,7.555,2.877,5.743,4.77c-1.37,1.431-11.906,1.125-18.889.741-2.038-.112-4.6-16.377-5.4-18.767-1.172-3.472-4.024-11.292-2.958-13.712.52-1.179,3-3.6,6.506-5.864,3.683-2.379,7.207-7.675,7.207-7.675Z" transform="translate(-61.935 -527.106)" fill="#f48c7f"/>
        <path id="Path_6424" data-name="Path 6424" d="M277.614,944.09S273.407,955.973,273.4,956c-.313,1.883-1.544,6.534-1.544,8.246,0,6.429,29-5.458,22.5-8.307a6.865,6.865,0,0,1-2.627-4.506c-.3-3.372,2.443-7.6,2.443-7.6Z" transform="translate(-161.654 -561.23)" fill="#f7a491"/>
        <path id="Path_6425" data-name="Path 6425" d="M327.76,398.6s2.114,21.3,2.114,21.62c0,34.46,6.831,101.772,5.532,108.251-3.169,15.8-37.278,96.414-37.278,96.414l-18.435-2.2,24.023-96.515-8.84-38.848-12.509-76.79Z" transform="translate(-166.313 -237.02)" fill="#20272a"/>
        <path id="Path_6426" data-name="Path 6426" d="M173.759,421.9l-3.5,20.191-9.464,83.1L124.755,606.4s5.069,11.817,12.549,13.477L194.668,536.5,230.3,429.8l-1.251-23.7Z" transform="translate(-74.183 -241.479)" fill="#263238"/>
        <path id="Path_6427" data-name="Path 6427" d="M107.693,905.1s10.833,30.5,15.074,31.975c1.126.391,6.529,1.383,7.548,3.772a10.333,10.333,0,0,1,0,3.124h-22.58s-2.856-13.44-3.985-19.345c0,0-5.978-14.428-5.313-15.739s9.257-3.788,9.257-3.788" transform="translate(-58.502 -538.196)" fill="#131e1e"/>
        <path id="Path_6428" data-name="Path 6428" d="M267.789,984.039l3.321-10.489s6.974,2.95,10.46,2.459a105.69,105.69,0,0,0,10.294-2.459c13.917,4.581,25.319,6.8,23.245,10.489Z" transform="translate(-159.235 -578.9)" fill="#131e1e"/>
        <path id="Path_6429" data-name="Path 6429" d="M596.363,260.446l-1.9,1.147a14.488,14.488,0,0,1-2.322,1.65c-.476.112-13.473-.174-13.473-.174s-.047,4.324.037,4.324,6.834,5.5,6.834,5.5l1.44.658,8.855-2.644,8.085-1.013s5.735-.665,5.735-.805a37.2,37.2,0,0,0-.392-4.9c-.224-.224-3.469-3.553-3.469-3.553s-2.49-.559-2.574-.559-2.491-.476-2.575-.5-3.86.559-3.86.559Z" transform="translate(-344.083 -154.352)" fill="#f48c7f"/>
        <path id="Path_6430" data-name="Path 6430" d="M627.656,269.8a21.728,21.728,0,0,0-4.028.9c-1.4.559-12.477,8.952-12.477,8.952s-1.483.811-2.266.168a1.782,1.782,0,0,1-.727-1.4s-1.315.727-2.21.223a1.5,1.5,0,0,1-.755-1.762,2.523,2.523,0,0,1-2.042-.28c-.755-.643-.364-2.294-.364-2.294s-2.378,1.454-3.3.475-.531-2.014.392-2.8,6.406-4.42,7.05-4.839,2.461-2.35,3.021-2.6,1.93-1.007,1.93-1.007,2.294.252,2.434.336.783,1.679,1.93,2.1a2.93,2.93,0,0,0,2.546-.336,2.126,2.126,0,0,0,.028-.867,19.775,19.775,0,0,1-1.091-2.546c-.2-.979-.448-1.259-.811-1.482s-2.35-.811-3.329-1.2-5.092.756-5.092.756l-1.958.839s.364-1.45,1.595-1.676,2.769-.562,3.637-.646a38.12,38.12,0,0,1,3.8.587,14.928,14.928,0,0,1,3.693.587c1.035.392,7.3,0,7.693-.056,0,0,2.714,7.357.7,9.875" transform="translate(-356.158 -153.89)" fill="#f8a492"/>
        <path id="Path_6431" data-name="Path 6431" d="M664.24,227.829c2.636-.06,33.073-.317,44.507-.412a12.606,12.606,0,0,0,7.69-2.7L741.872,204.7l15.437,16.187-31.068,21.474c-2.112,1.525-13.967,2.848-16.559,2.586-12.009-1.216-42.542-7.333-45.6-6.915Z" transform="translate(-394.883 -121.722)" fill="#f8a492"/>
        <path id="Path_6432" data-name="Path 6432" d="M475.145,234.416c-2.637-.059-34.7-.525-46.133-.62a12.607,12.607,0,0,1-7.69-2.7l-25.435-20.013L384.749,223.92l31.575,22.809a10.63,10.63,0,0,0,7.3,1.961c12.009-1.215,44.9-4.433,47.961-4.016Z" transform="translate(-228.783 -125.516)" fill="#f48c7f"/>
        <path id="Path_6433" data-name="Path 6433" d="M811.486,185.609s21.291-22.4,28.993-28.049,17.468-.883,17.96,8.891c.718,14.24-27.512,39.724-27.512,39.724Z" transform="translate(-482.532 -92.25)" fill="#6192ff"/>
        <path id="Path_6434" data-name="Path 6434" d="M368.544,185.617s-21.291-22.4-28.993-28.049-23.193-.849-21.965,8.86c1.253,9.9,36.037,34.973,36.037,34.973Z" transform="translate(-188.804 -92.258)" fill="#9ba3a7"/>
        <path id="Path_6435" data-name="Path 6435" d="M291.1,174.823c.5,3.43,14.229,113.149,14.229,113.149-40.418,13.543-76.5.521-76.5.521s6.293-78.757,4.6-87.67c-.55-2.9-.579-13.951,0-24.864.572-10.745,1.8-21.316,3.742-21.875a69.8,69.8,0,0,1,14.214-2.979c5.231-.543,25.552-.858,29.188.364A46.3,46.3,0,0,1,291.1,174.823" transform="translate(-136.068 -89.566)" fill="#aebabf"/>
        <path id="Path_6436" data-name="Path 6436" d="M293.978,102.827l-3.176,19.42s11.627,24.711,18.575,22.631c5.83-1.746,2.243-22.969,2.243-22.969s-3.178-11.4-2.225-17.1-15.418-1.981-15.418-1.981" transform="translate(-172.919 -60.434)" fill="#f7a491"/>
        <path id="Path_6437" data-name="Path 6437" d="M313.667,104.808c.953-5.7-15.418-1.981-15.418-1.981l-.264,1.671a9.22,9.22,0,0,0,1.775,2.808,21.979,21.979,0,0,0,14.314,6.213,29.848,29.848,0,0,1-.407-8.71" transform="translate(-177.19 -60.434)" fill="#f47458"/>
        <path id="Path_6438" data-name="Path 6438" d="M290.153,25.042c-.462-.161-3.708,22.944,2.452,29.3s18.162,8.438,22.467,3.431c4.762-5.538,4.522-30.37-5.055-36.91s-19.864,4.178-19.864,4.178" transform="translate(-171.78 -11.149)" fill="#f7a491"/>
        <path id="Path_6439" data-name="Path 6439" d="M275.036,4.99c-3.361.381-7.929,2.162-12.648,9.654-5.8,9.211-1.517,19.417,5.236,24.424s6.632,10.741,6.632,10.741l1.095-2.942a16.094,16.094,0,0,0,.846-7.047,13.33,13.33,0,0,0-1.092-4.237c-1.624-3.344,3.488-5.565,4.922-8.347,1.1-2.142,1.157-7.043,2.9-10.583l2.076-2.7s4.792-3.576,9.48-2.567S293.409-9.545,275.036,4.99" transform="translate(-154.405 0.001)" fill="#1d3b4c"/>
        <path id="Path_6440" data-name="Path 6440" d="M300.1,69.918c.049,2.819-1.287,5.127-2.984,5.155s-3.112-2.235-3.161-5.054,1.287-5.127,2.984-5.154,3.112,2.235,3.161,5.054" transform="translate(-174.791 -38.57)" fill="#f7a491"/>
        <path id="Path_6441" data-name="Path 6441" d="M338.854,90.442l-10.177,1.036s.628,3.841,5.117,3.515c5.473-.4,5.061-4.551,5.061-4.551" transform="translate(-195.441 -53.779)" fill="#f7f7f7"/>
        <path id="Path_6442" data-name="Path 6442" d="M134.887,311a2.722,2.722,0,0,1-.011-.634c.672-6.825,6.339-64.136,7.293-66.572.861-2.2,26.277-38.548,26.277-38.548l12.492,17.018-24.442,32.6c-.548,2.072-9.367,40.759-9.367,40.759s-1.807,7.052-2.617,11.276c.369,1.017.732,1.979,1.053,2.767A25.462,25.462,0,0,0,148.2,313.9a29,29,0,0,1,3.122,5.52c.259,1,.725,3.064.989,4.312s.626,2.7.687,3.38a6.539,6.539,0,0,0,.79,1.816A1.091,1.091,0,0,1,152.5,330.5c-.889-.3-1.58-1.444-2.006-2.161-1.2-2.022-1.844-5.713-2.143-5.518s-1.774,5.531-2.177,6.136a1.537,1.537,0,0,1-2.774-.6c-.091-.48-.321-.454-.543-.269a1.958,1.958,0,0,1-1.621.5c-1.379-.165-1.135-1.569-1.628-1.351a1.811,1.811,0,0,1-2.734-1.414c.016-.271-.106-.426-.393-.374-.938.169-2.429.34-2.448-2.815s1.444-6.7,1.008-10.457c-.027-.236-.1-.815-.153-1.179" transform="translate(-79.699 -122.042)" fill="#f8a492"/>
        <path id="Path_6443" data-name="Path 6443" d="M169.945,200.776l21.71,14.576s12.236-18.208,18.8-24.69c8.228-8.121-3-33-8.3-31.589-11.858,3.148-32.215,41.7-32.215,41.7" transform="translate(-101.054 -94.555)" fill="#c6cbce"/>
        <path id="Path_6444" data-name="Path 6444" d="M821.519,36.431a11.223,11.223,0,0,0-15.071,8.291,85.232,85.232,0,0,0-1.408,10.745c-.632,9.811,3.992,19.6,8.437,19.8s17.023-5.6,18.113-19.521c.673-8.594-3.249-16.6-10.071-19.312" transform="translate(-478.664 -21.199)" fill="#f7a491"/>
        <path id="Path_6445" data-name="Path 6445" d="M862.407,82.026c-.1,2.166,1.25,3.987,3.016,4.066s3.278-1.612,3.378-3.778-1.25-3.986-3.015-4.066-3.279,1.612-3.379,3.778" transform="translate(-512.808 -46.526)" fill="#f7a491"/>
        <path id="Path_6446" data-name="Path 6446" d="M833.893,48.317s-5.459.141-6.643-3.611S820.787,32.253,811.4,33.3s9.282-5.541,9.981-5.387,9.091,1.949,9.091,1.949,5.284,6.742,5.387,7.377.558,7.411.558,7.411Z" transform="translate(-480.915 -16.596)" fill="#0e0b2f"/>
        <path id="Path_6447" data-name="Path 6447" d="M825.425,106.927l-9.814-.282a4.293,4.293,0,0,0,4.426,3.995c5.258.3,5.388-3.712,5.388-3.712" transform="translate(-484.985 -63.414)" fill="#f7f7f7"/>
        <path id="Path_6448" data-name="Path 6448" d="M138.373,582.147c-4.015,7.71,3.094,13.417,3.094,13.417a37.452,37.452,0,0,0,14.4,3.814c12.766-30.865,16.868-51.261,16.741-52.5s-3.059-3.254-4.409-2.864c-14.866,11.729-29.821,38.129-29.821,38.129" transform="translate(-81.55 -323.459)" fill="#1a3141"/>
        <path id="Path_6449" data-name="Path 6449" d="M86.644,508.678c-34.224-12.127-59.081-24.141-59.081-24.141C7.484,508.218,0,529.617,0,529.617c21.6,14.5,59.917,30.608,59.917,30.608.568-7.76,26.727-51.547,26.727-51.547" transform="translate(0 -288.119)" fill="#1d3b4c"/>
        <path id="Path_6450" data-name="Path 6450" d="M105.834,510.113c-6.024-4.464-22.94,24.264-22.94,24.264a253.839,253.839,0,0,1-58.036-28.759c9.673-18.146,15.421-22.072,18.4-23.486,4.427,0,20.165,8.637,31.6,13.525,15.742,6.727,31.8,11.728,30.975,14.455" transform="translate(-14.781 -286.689)" fill="#1a3141"/>
        <path id="Path_6451" data-name="Path 6451" d="M92.626,572.341a29.466,29.466,0,0,1-3.089,6.152,80.675,80.675,0,0,1-8.9-4.753,27.447,27.447,0,0,1,3.113-5.8,53.189,53.189,0,0,1,8.873,4.4" transform="translate(-47.951 -337.711)" fill="#f7f7f7"/>
      </g>
    </g>
  </g>
</svg>
