<svg id="حلول_مبتكرة" data-name="حلول مبتكرة" xmlns="http://www.w3.org/2000/svg" width="42" height="42" viewBox="0 0 42 42">
  <path id="Path_6383" data-name="Path 6383" d="M41.2,0H28.172a.82.82,0,0,0-.58,1.4l3.07,3.07L20.33,14.8,10.788,5.26a.821.821,0,0,0-1.16,0L.267,14.621a.82.82,0,1,0,1.16,1.16L10.208,7,21.636,18.428a.82.82,0,0,0,1.16-1.16L21.49,15.962,31.822,5.63,36.4,10.211l-8.326,8.326a.82.82,0,1,0,1.16,1.16l8.326-8.326,3.062,3.062a.82.82,0,0,0,1.4-.58V.82A.82.82,0,0,0,41.2,0Zm-.82,11.872L30.152,1.641H40.384ZM27.206,20.567a.82.82,0,1,0,.24.58A.823.823,0,0,0,27.206,20.567Z" transform="translate(-0.024)" fill="#234192"/>
  <path id="Path_6384" data-name="Path 6384" d="M15.811,185.115l-4.446-4.446,1.324-1.324a.82.82,0,1,0-1.16-1.16L.263,189.451a.82.82,0,1,0,1.16,1.16l8.782-8.782,4.446,4.446a.82.82,0,1,0,1.16-1.16Zm5.248,8.33h-.038a.82.82,0,1,0,0,1.641h.032a.82.82,0,0,0,.006-1.641Z" transform="translate(-0.02 -163.348)" fill="#234192"/>
  <path id="Path_6385" data-name="Path 6385" d="M41.18,266.3H39.741V262.62a.82.82,0,0,0-.622-.8l-3.813-.95-1.367-3.3,2.024-3.367a.82.82,0,0,0-.123-1l-3.179-3.179a.821.821,0,0,0-1-.123l-3.367,2.024-3.3-1.367-.95-3.813a.82.82,0,0,0-.8-.622h-4.5a.82.82,0,0,0-.8.622l-.95,3.813-3.3,1.367L10.341,249.9a.82.82,0,0,0-1,.123L6.16,253.207a.82.82,0,0,0-.123,1l2.024,3.367-1.367,3.3-3.813.95a.82.82,0,0,0-.622.8V266.3H.82a.82.82,0,1,0,0,1.641H41.18a.82.82,0,1,0,0-1.641Zm-3.08,0H29.717a8.839,8.839,0,0,0-5.565-9.683.82.82,0,0,0-.584,1.533,7.2,7.2,0,0,1,4.482,8.15H13.95a7.2,7.2,0,0,1,4.509-8.16.82.82,0,0,0-.578-1.535,8.839,8.839,0,0,0-5.6,9.7H3.9v-3.035l3.592-.895a.82.82,0,0,0,.56-.482l1.683-4.062a.82.82,0,0,0-.055-.737l-1.907-3.172,2.273-2.273,3.172,1.907a.82.82,0,0,0,.737.055l4.062-1.683a.82.82,0,0,0,.482-.56l.895-3.592h3.213l.895,3.592a.82.82,0,0,0,.482.56l4.062,1.683a.82.82,0,0,0,.737-.055l3.172-1.907,2.273,2.273-1.907,3.172a.82.82,0,0,0-.055.737l1.683,4.062a.82.82,0,0,0,.56.482l3.592.895Z" transform="translate(0 -225.937)" fill="#234192"/>
</svg>
