<svg xmlns="http://www.w3.org/2000/svg" xmlns:xlink="http://www.w3.org/1999/xlink" width="42" height="42" viewBox="0 0 42 42">
  <defs>
    <clipPath id="clip-path">
      <path id="Path_6395" data-name="Path 6395" d="M0-682.665H42v42H0Z" transform="translate(0 682.665)" fill="#234192"/>
    </clipPath>
  </defs>
  <g id="الجـــــــــــودة" transform="translate(0 -0.002)">
    <g id="Group_5183" data-name="Group 5183" transform="translate(0 0.002)" clip-path="url(#clip-path)">
      <path id="Path_6388" data-name="Path 6388" d="M20.786-361.77a.788.788,0,0,1-.723-.474.788.788,0,0,1,.408-1.036l2.763-1.2a8.356,8.356,0,0,0,5.025-7.665v-17.206l-.186.05a15.459,15.459,0,0,1-8.5-.152,15.457,15.457,0,0,1-6.541-3.974,15.373,15.373,0,0,1-4.118,3.006,15.42,15.42,0,0,1-5.647,1.588A15.406,15.406,0,0,1-2-389.3l-.187-.05v17.206a8.39,8.39,0,0,0,.169,1.679.788.788,0,0,1-.614.929.788.788,0,0,1-.929-.614,9.968,9.968,0,0,1-.2-1.995v-18.231A.788.788,0,0,1-3.456-391a.788.788,0,0,1,.682-.137l1.177.313a13.83,13.83,0,0,0,4.735.42,13.83,13.83,0,0,0,9.3-4.7.788.788,0,0,1,.593-.269.788.788,0,0,1,.593.269,13.812,13.812,0,0,0,14.039,4.282l1.176-.313a.787.787,0,0,1,.683.137.787.787,0,0,1,.308.624v18.231a9.931,9.931,0,0,1-5.972,9.11l-2.763,1.2A.785.785,0,0,1,20.786-361.77Z" transform="translate(12.309 395.435)" fill="#234192"/>
      <path id="Path_6389" data-name="Path 6389" d="M8.719,6.875H8.656A3.222,3.222,0,0,1,5.5,3.652a.585.585,0,0,0-.352-.535L-.276.76A.788.788,0,0,1,.352-.685L5.774,1.673a2.16,2.16,0,0,1,1.3,1.979A1.647,1.647,0,0,0,8.692,5.3h.027a1.648,1.648,0,0,0,1.648-1.648,2.161,2.161,0,0,1,1.3-1.979L13.9.7a.788.788,0,0,1,.628,1.444l-2.241.975a.586.586,0,0,0-.349.535A3.223,3.223,0,0,1,8.719,6.875Z" transform="translate(16.626 32.435)" fill="#234192"/>
      <path id="Path_6392" data-name="Path 6392" d="M-103.14-227.13h0a3.341,3.341,0,0,1-2.622-1.285l-4.233-5.46a3.3,3.3,0,0,1-.67-2.45,3.3,3.3,0,0,1,1.259-2.206,3.288,3.288,0,0,1,2.032-.7,3.3,3.3,0,0,1,2.625,1.286l1.174,1.515,3.126-5.534a3.326,3.326,0,0,1,2.892-1.687,3.322,3.322,0,0,1,1.63.429A3.323,3.323,0,0,1-94.67-238.7l-5.58,9.881A3.324,3.324,0,0,1-103.14-227.13Zm-4.235-10.523a1.726,1.726,0,0,0-1.067.366,1.733,1.733,0,0,0-.662,1.159,1.732,1.732,0,0,0,.352,1.288l4.233,5.46a1.755,1.755,0,0,0,1.378.675h0a1.746,1.746,0,0,0,1.518-.886l5.58-9.881a1.746,1.746,0,0,0-.661-2.376,1.743,1.743,0,0,0-.855-.226,1.749,1.749,0,0,0-1.521.887l-3.708,6.566a.787.787,0,0,1-.629.4.787.787,0,0,1-.68-.3l-1.9-2.451A1.734,1.734,0,0,0-107.375-237.653Z" transform="translate(128.15 255.012)" fill="#234192"/>
      <path id="Path_6393" data-name="Path 6393" d="M-245.371-71.144a2.708,2.708,0,0,1,2.509,1.676l.181.438c.18-.006.358-.006.538,0l.181-.438a2.708,2.708,0,0,1,2.509-1.676,2.7,2.7,0,0,1,1.038.207,2.7,2.7,0,0,1,1.469,1.469,2.7,2.7,0,0,1,0,2.078l-.181.438q.2.183.38.38l.438-.181a2.7,2.7,0,0,1,1.038-.207h0a2.708,2.708,0,0,1,2.509,1.676,2.7,2.7,0,0,1,0,2.078,2.7,2.7,0,0,1-1.469,1.469l-.438.181q.009.269,0,.538l.438.181a2.7,2.7,0,0,1,1.469,1.469,2.7,2.7,0,0,1,0,2.078,2.708,2.708,0,0,1-2.509,1.676,2.7,2.7,0,0,1-1.038-.207l-.438-.181q-.183.2-.38.38l.181.438a2.7,2.7,0,0,1,0,2.078,2.7,2.7,0,0,1-1.469,1.469,2.7,2.7,0,0,1-1.038.207,2.708,2.708,0,0,1-2.509-1.676l-.181-.438c-.179.006-.358.006-.538,0l-.181.438a2.708,2.708,0,0,1-2.509,1.676,2.7,2.7,0,0,1-1.038-.207,2.7,2.7,0,0,1-1.469-1.469,2.7,2.7,0,0,1,0-2.078l.181-.438q-.2-.183-.38-.38l-.438.181a2.7,2.7,0,0,1-1.038.207,2.708,2.708,0,0,1-2.509-1.676,2.7,2.7,0,0,1,0-2.078,2.7,2.7,0,0,1,1.469-1.469l.438-.181q-.009-.269,0-.538l-.438-.181a2.718,2.718,0,0,1-1.469-3.547,2.708,2.708,0,0,1,2.509-1.676,2.7,2.7,0,0,1,1.038.207l.438.181q.183-.2.38-.38l-.181-.438a2.7,2.7,0,0,1,0-2.078,2.7,2.7,0,0,1,1.469-1.469A2.7,2.7,0,0,1-245.371-71.144Zm2.18,3.728a.788.788,0,0,1-.727-.486l-.4-.963a1.137,1.137,0,0,0-1.054-.7,1.132,1.132,0,0,0-.435.087,1.132,1.132,0,0,0-.617.617,1.132,1.132,0,0,0,0,.872l.4.963a.787.787,0,0,1-.237.917,6.137,6.137,0,0,0-.976.976.788.788,0,0,1-.918.237l-.963-.4a1.132,1.132,0,0,0-.435-.087,1.137,1.137,0,0,0-1.054.7,1.141,1.141,0,0,0,.617,1.489l.963.4a.788.788,0,0,1,.481.817,6.134,6.134,0,0,0,0,1.38.787.787,0,0,1-.481.816l-.963.4a1.133,1.133,0,0,0-.617.617,1.133,1.133,0,0,0,0,.872,1.137,1.137,0,0,0,1.054.7,1.133,1.133,0,0,0,.435-.087l.963-.4a.787.787,0,0,1,.917.237,6.142,6.142,0,0,0,.976.976.788.788,0,0,1,.237.918l-.4.963a1.132,1.132,0,0,0,0,.872,1.132,1.132,0,0,0,.617.617,1.132,1.132,0,0,0,.435.087,1.137,1.137,0,0,0,1.054-.7l.4-.963a.788.788,0,0,1,.817-.481,6.157,6.157,0,0,0,1.38,0,.787.787,0,0,1,.816.481l.4.963a1.137,1.137,0,0,0,1.054.7,1.132,1.132,0,0,0,.435-.087,1.133,1.133,0,0,0,.617-.617,1.132,1.132,0,0,0,0-.872l-.4-.963a.788.788,0,0,1,.237-.917,6.136,6.136,0,0,0,.976-.976.787.787,0,0,1,.918-.237l.963.4a1.133,1.133,0,0,0,.435.087,1.137,1.137,0,0,0,1.054-.7,1.132,1.132,0,0,0,0-.872,1.132,1.132,0,0,0-.617-.617l-.963-.4a.787.787,0,0,1-.481-.817,6.138,6.138,0,0,0,0-1.38.787.787,0,0,1,.481-.816l.963-.4a1.133,1.133,0,0,0,.617-.617,1.132,1.132,0,0,0,0-.872,1.137,1.137,0,0,0-1.054-.7h0a1.132,1.132,0,0,0-.435.087l-.963.4a.787.787,0,0,1-.917-.237,6.14,6.14,0,0,0-.976-.975.788.788,0,0,1-.237-.918l.4-.963a1.132,1.132,0,0,0,0-.872,1.132,1.132,0,0,0-.617-.617,1.133,1.133,0,0,0-.436-.087,1.137,1.137,0,0,0-1.054.7l-.4.963a.787.787,0,0,1-.817.481,6.155,6.155,0,0,0-1.38,0A.791.791,0,0,1-243.191-67.416Z" transform="translate(252.126 93.37)" fill="#234192"/>
      <path id="Path_6394" data-name="Path 6394" d="M-49.341-97.934a4.029,4.029,0,0,1-4.025-4.025,4.029,4.029,0,0,1,4.025-4.025,4.029,4.029,0,0,1,4.025,4.025A4.029,4.029,0,0,1-49.341-97.934Zm0-6.474a2.452,2.452,0,0,0-2.45,2.45,2.452,2.452,0,0,0,2.45,2.45,2.452,2.452,0,0,0,2.45-2.45A2.452,2.452,0,0,0-49.341-104.408Z" transform="translate(59.055 134.042)" fill="#234192"/>
    </g>
  </g>
</svg>
