<svg id="حلول_قابلة_للتوسع" data-name="حلول قابلة للتوسع" xmlns="http://www.w3.org/2000/svg" width="41.862" height="42.5" viewBox="0 0 41.862 42.5">
  <path id="Path_6386" data-name="Path 6386" d="M33.659,0H8.542A4.89,4.89,0,0,0,3.658,4.884V29.943a4.89,4.89,0,0,0,4.884,4.884h7.675v-1.4H8.542a3.493,3.493,0,0,1-3.489-3.489V18.14H9.534a.751.751,0,0,0,.639-1.035,2.791,2.791,0,1,1,5.11,0,.724.724,0,0,0,.639,1.035H20.4v4.186a4.084,4.084,0,0,0-.7-.058,4.186,4.186,0,0,0-1.674,8.024l.558-1.278a2.791,2.791,0,0,1,1.116-5.35,2.757,2.757,0,0,1,1.116.236.7.7,0,0,0,.977-.639V18.14h3.548a4.084,4.084,0,0,0-.059.7,4.2,4.2,0,0,0,3.349,4.1l.279-1.367a2.8,2.8,0,0,1-2.233-2.736,2.757,2.757,0,0,1,.236-1.116.7.7,0,0,0-.639-.977H21.8V13.2a4.085,4.085,0,0,0,.7.059,4.186,4.186,0,1,0,0-8.372,4.084,4.084,0,0,0-.7.059V1.4H33.659a3.493,3.493,0,0,1,3.489,3.488V16.745H32.667a.7.7,0,0,0-.639.977,2.757,2.757,0,0,1,.236,1.116h1.4a4.084,4.084,0,0,0-.059-.7h4.246a.7.7,0,0,0,.7-.7V4.884A4.89,4.89,0,0,0,33.659,0ZM22.5,6.279a2.791,2.791,0,1,1,0,5.582,2.757,2.757,0,0,1-1.116-.236.7.7,0,0,0-.977.639v4.423H16.86a4.074,4.074,0,0,0,.054-.64v-.058a4.186,4.186,0,0,0-8.372,0v.058a4.074,4.074,0,0,0,.054.64H5.053V4.884A3.493,3.493,0,0,1,8.542,1.4H20.4V5.876a.7.7,0,0,0,.977.639A2.757,2.757,0,0,1,22.5,6.279Z" transform="translate(-3.658)" fill="#234192"/>
  <path id="Path_6387" data-name="Path 6387" d="M186.336,233.831l-5.866-4.039-2.253-6.019a.7.7,0,0,0-.936-.395l-4.535,2.006a.7.7,0,0,0-.37.887c.075.2.146.343.22.5a5.33,5.33,0,0,1,.228.524,2.792,2.792,0,1,1-5.4.839.7.7,0,0,0-.943-.689l-4.848,1.826a.7.7,0,0,0-.407.9l1.74,4.649a3.935,3.935,0,0,0-.677.187,4.2,4.2,0,1,0,3.576,7.557l1.247,3.332a.7.7,0,0,0,.9.409h0l6.913-2.6a3.746,3.746,0,0,0,2.21,1.973l.441-1.326a2.352,2.352,0,0,1-1.334-1.14l2.1-.792a4.869,4.869,0,0,0,4.594,3.238v-1.4a3.51,3.51,0,0,1-3.488-3.489.7.7,0,0,0-.2-.493l-2.429-2.43a1.035,1.035,0,0,1-.1-1.346,1.016,1.016,0,0,1,.75-.409,1,1,0,0,1,.8.3l4.871,4.871.987-.987-1.441-1.441a4.867,4.867,0,0,0-.062-3.262l-1.307-3.492,4.216,2.9a2.1,2.1,0,0,1,.892,1.715V245.7h1.4v-9.012a3.5,3.5,0,0,0-1.492-2.861Zm-5.011,2.224a3.5,3.5,0,0,1,.2,1.607l-2.265-2.264a2.425,2.425,0,1,0-3.472,3.385l.043.043,2.207,2.207-9.86,3.714-1.33-3.553a.7.7,0,0,0-1.141-.254,2.791,2.791,0,1,1-2.922-4.632,2.687,2.687,0,0,1,.69-.156,2.477,2.477,0,0,1,.437-.015.7.7,0,0,0,.69-.941l-1.822-4.866,3.322-1.251a4.187,4.187,0,1,0,8.028-2.273q-.081-.218-.178-.429l3.209-1.421Z" transform="translate(-145.966 -203.843)" fill="#234192"/>
</svg>
