<svg xmlns="http://www.w3.org/2000/svg" xmlns:xlink="http://www.w3.org/1999/xlink" width="71" height="879" viewBox="0 0 71 879">
  <defs>
    <clipPath id="clip-path">
      <rect id="Rectangle_4711" data-name="Rectangle 4711" width="71" height="879" transform="translate(217.124)" fill="#fff"/>
    </clipPath>
    <clipPath id="clip-path-2">
      <rect id="Rectangle_2282" data-name="Rectangle 2282" width="279.721" height="933.64" fill="none"/>
    </clipPath>
    <clipPath id="clip-path-4">
      <rect id="Rectangle_2275" data-name="Rectangle 2275" width="143.048" height="365.396" fill="none"/>
    </clipPath>
    <clipPath id="clip-path-5">
      <rect id="Rectangle_2276" data-name="Rectangle 2276" width="143.048" height="365.395" fill="none"/>
    </clipPath>
  </defs>
  <g id="استـــشارات_البرمجــــيات_وتطـــويـــرها" data-name="استـــشارات البرمجــــيات وتطـــويـــرها" transform="translate(-217.124)" opacity="0.48">
    <g id="Mask_Group_68" data-name="Mask Group 68" clip-path="url(#clip-path)">
      <g id="Group_5164" data-name="Group 5164" clip-path="url(#clip-path-2)">
        <g id="Group_5163" data-name="Group 5163">
          <g id="Group_5162" data-name="Group 5162" clip-path="url(#clip-path-2)">
            <g id="Group_5146" data-name="Group 5146" transform="translate(0 568.243)" opacity="0.29">
              <g id="Group_5145" data-name="Group 5145">
                <g id="Group_5144" data-name="Group 5144" clip-path="url(#clip-path-4)">
                  <path id="Path_5768" data-name="Path 5768" d="M133.787,262.518l8.34-8.338a2.47,2.47,0,0,0,0-3.488L36.915,145.478a2.469,2.469,0,0,0-3.49,0l-32.7,32.7a2.464,2.464,0,0,0,0,3.488l8.489,8.489,25.573-25.573a.972.972,0,0,1,.539-.21.74.74,0,0,1,.53.21ZM35.17,146.467a.75.75,0,0,1,.534.221L140.918,251.9a.756.756,0,0,1,0,1.069l-7.129,7.129L37.064,163.374a2.429,2.429,0,0,0-1.738-.712H35.3a2.491,2.491,0,0,0-1.726.712L9.212,187.738l-7.279-7.279a.754.754,0,0,1,0-1.069l32.7-32.7a.75.75,0,0,1,.534-.221" transform="translate(0 -144.756)" fill="#22b6eb"/>
                  <path id="Path_5769" data-name="Path 5769" d="M130.931,246.877l8.4-8.4a2.491,2.491,0,0,0,.712-1.726,2.43,2.43,0,0,0-.712-1.762L34.088,129.749a2.5,2.5,0,0,0-3.49,0L4.97,155.377a2.522,2.522,0,0,0-.739,1.743,2.431,2.431,0,0,0,.708,1.774l8.278,8.278L31.6,148.794a.761.761,0,0,1,1.069.06c.019.017,4.32,4.08,4.708,4.467ZM32.343,130.748a.754.754,0,0,1,.534.21L138.119,236.2a.788.788,0,0,1,0,1.069l-7.188,7.188L38.582,152.109c-.393-.392-4.722-4.482-4.722-4.482a2.462,2.462,0,0,0-3.473-.043l-17.17,17.169-7.069-7.069a.79.79,0,0,1,.031-1.1l25.63-25.628a.754.754,0,0,1,.534-.21" transform="translate(3.007 -102.228)" fill="#22b6eb"/>
                  <path id="Path_5770" data-name="Path 5770" d="M133.787,230.257l8.34-8.338a2.471,2.471,0,0,0,0-3.488L36.915,113.219a2.469,2.469,0,0,0-3.49,0l-32.7,32.7a2.464,2.464,0,0,0,0,3.488L9.212,157.9l25.573-25.573a.784.784,0,0,1,1.069,0ZM35.17,114.208a.749.749,0,0,1,.534.221L140.918,219.641a.758.758,0,0,1,0,1.069l-7.13,7.129L37.064,131.115a2.5,2.5,0,0,0-3.488,0L9.212,155.479,1.933,148.2a.758.758,0,0,1,0-1.069l32.7-32.7a.749.749,0,0,1,.534-.221" transform="translate(0 -57.31)" fill="#22b6eb"/>
                  <path id="Path_5771" data-name="Path 5771" d="M130.931,214.617l8.4-8.4a2.491,2.491,0,0,0,.712-1.726,2.43,2.43,0,0,0-.712-1.762L34.088,97.489a2.5,2.5,0,0,0-3.49,0L4.97,123.117a2.549,2.549,0,0,0-.739,1.786,2.427,2.427,0,0,0,.708,1.731l8.278,8.278,18.38-18.38a.762.762,0,0,1,1.069.062c.019.017,4.32,4.08,4.708,4.467ZM32.343,98.488a.754.754,0,0,1,.534.21L138.119,203.941a.788.788,0,0,1,0,1.069l-7.188,7.188L38.582,119.849c-.393-.392-4.722-4.482-4.722-4.482a2.47,2.47,0,0,0-3.473-.046l-17.17,17.172-7.069-7.069a.727.727,0,0,1-.207-.52.815.815,0,0,1,.238-.577L31.809,98.7a.754.754,0,0,1,.534-.21" transform="translate(3.007 -14.781)" fill="#22b6eb"/>
                  <path id="Path_5772" data-name="Path 5772" d="M133.787,198l8.34-8.338a2.474,2.474,0,0,0,0-3.488L36.915,80.959a2.469,2.469,0,0,0-3.49,0l-32.7,32.7a2.464,2.464,0,0,0,0,3.488l8.489,8.489,25.573-25.573a.784.784,0,0,1,1.069,0ZM35.17,81.948a.75.75,0,0,1,.534.221L140.918,187.381a.756.756,0,0,1,0,1.069l-7.129,7.129L37.064,98.855a2.5,2.5,0,0,0-3.488,0L9.212,123.219,1.933,115.94a.758.758,0,0,1,0-1.069l32.7-32.7a.75.75,0,0,1,.534-.221" transform="translate(0 30.137)" fill="#22b6eb"/>
                  <path id="Path_5773" data-name="Path 5773" d="M130.931,182.357l8.4-8.4a2.491,2.491,0,0,0,.712-1.726,2.43,2.43,0,0,0-.712-1.762L34.088,65.227a2.507,2.507,0,0,0-3.49,0L4.97,90.857a2.549,2.549,0,0,0-.739,1.786,2.427,2.427,0,0,0,.708,1.731l8.278,8.278L31.6,84.272a.761.761,0,0,1,1.069.06c.017.017,4.32,4.082,4.708,4.468ZM32.343,66.228a.751.751,0,0,1,.534.21L138.119,171.681a.788.788,0,0,1,0,1.069l-7.188,7.188L38.582,87.589c-.393-.392-4.722-4.484-4.722-4.484a2.47,2.47,0,0,0-3.473-.045l-17.17,17.172L6.149,93.164a.727.727,0,0,1-.207-.52.815.815,0,0,1,.238-.576l25.63-25.632a.76.76,0,0,1,.534-.209" transform="translate(3.007 72.666)" fill="#22b6eb"/>
                  <path id="Path_5774" data-name="Path 5774" d="M133.787,165.737l8.34-8.338a2.474,2.474,0,0,0,0-3.488L36.915,48.7a2.472,2.472,0,0,0-3.49,0L.724,81.4a2.464,2.464,0,0,0,0,3.488l8.489,8.489L34.785,67.8a.784.784,0,0,1,1.069,0ZM35.172,49.688a.755.755,0,0,1,.534.221L140.918,155.12a.756.756,0,0,1,0,1.069l-7.129,7.129L37.064,66.593a2.5,2.5,0,0,0-3.488,0L9.212,90.958,1.933,83.679a.758.758,0,0,1,0-1.069l32.7-32.7a.751.751,0,0,1,.535-.221" transform="translate(0 117.585)" fill="#22b6eb"/>
                  <path id="Path_5775" data-name="Path 5775" d="M130.93,150.1l8.4-8.4a2.491,2.491,0,0,0,.712-1.726,2.43,2.43,0,0,0-.712-1.762L34.087,32.967a2.5,2.5,0,0,0-3.488,0L4.969,58.595a2.513,2.513,0,0,0-.737,1.745,2.42,2.42,0,0,0,.708,1.774l8.276,8.278L31.6,52.012a.761.761,0,0,1,1.069.06c.017.017,4.316,4.078,4.706,4.467ZM32.351,33.968a.737.737,0,0,1,.527.209L138.119,139.421a.742.742,0,0,1,.21.537.768.768,0,0,1-.21.532l-7.188,7.188L38.583,55.329c-.393-.392-4.723-4.484-4.723-4.484a2.462,2.462,0,0,0-3.471-.043L13.217,67.973,6.15,60.9a.737.737,0,0,1-.209-.534.82.82,0,0,1,.238-.565l25.63-25.63a.778.778,0,0,1,.542-.209" transform="translate(3.008 160.114)" fill="#22b6eb"/>
                  <path id="Path_5776" data-name="Path 5776" d="M133.786,133.478l8.34-8.338a2.474,2.474,0,0,0,0-3.488L36.914,16.438a2.469,2.469,0,0,0-3.49,0l-32.7,32.7a2.47,2.47,0,0,0,0,3.488l8.489,8.489L34.784,35.544a.784.784,0,0,1,1.069,0ZM35.171,17.427a.752.752,0,0,1,.534.221L140.916,122.861a.756.756,0,0,1,0,1.069l-7.129,7.129L37.063,34.334a2.5,2.5,0,0,0-3.488,0L9.211,58.7,1.932,51.421a.758.758,0,0,1,0-1.069l32.7-32.7a.758.758,0,0,1,.535-.222" transform="translate(0.001 205.031)" fill="#22b6eb"/>
                  <path id="Path_5777" data-name="Path 5777" d="M130.931,117.84l8.4-8.4a2.472,2.472,0,0,0,.712-1.745,2.434,2.434,0,0,0-.712-1.741L34.088.71a2.5,2.5,0,0,0-3.49,0L4.97,26.338a2.526,2.526,0,0,0-.739,1.747,2.43,2.43,0,0,0,.708,1.772l8.278,8.28L31.6,19.755a.763.763,0,0,1,1.069.06c.019.019,4.318,4.078,4.706,4.467ZM32.343,1.71a.752.752,0,0,1,.534.209L138.119,107.163a.748.748,0,0,1,.21.53.762.762,0,0,1-.21.537l-7.188,7.19L38.582,23.072c-.392-.392-4.722-4.484-4.722-4.484a2.466,2.466,0,0,0-3.473-.043L13.217,35.717l-7.069-7.07a.722.722,0,0,1-.207-.532.828.828,0,0,1,.238-.568L31.809,1.919a.752.752,0,0,1,.534-.209" transform="translate(3.007 247.557)" fill="#22b6eb"/>
                </g>
              </g>
            </g>
            <g id="Group_5149" data-name="Group 5149" transform="translate(0 291.128)" opacity="0.29">
              <g id="Group_5148" data-name="Group 5148">
                <g id="Group_5147" data-name="Group 5147" clip-path="url(#clip-path-5)">
                  <path id="Path_5778" data-name="Path 5778" d="M133.787,424.507l8.34-8.338a2.474,2.474,0,0,0,0-3.488L36.915,307.468a2.472,2.472,0,0,0-3.49,0L.724,340.171a2.464,2.464,0,0,0,0,3.488l8.489,8.489,25.573-25.575a.635.635,0,0,1,.539-.21.74.74,0,0,1,.53.21ZM35.17,308.457a.75.75,0,0,1,.534.221L140.918,413.891a.756.756,0,0,1,0,1.069l-7.129,7.128L37.064,325.364a2.429,2.429,0,0,0-1.738-.712H35.3a2.491,2.491,0,0,0-1.726.712L9.212,349.729,1.933,342.45a.758.758,0,0,1,0-1.069l32.7-32.7a.75.75,0,0,1,.534-.221" transform="translate(0 -306.748)" fill="#22b6eb"/>
                  <path id="Path_5779" data-name="Path 5779" d="M130.931,408.868l8.4-8.4a2.475,2.475,0,0,0,.712-1.745,2.434,2.434,0,0,0-.712-1.742L34.088,291.737a2.5,2.5,0,0,0-3.49,0L4.97,317.366a2.522,2.522,0,0,0-.739,1.745,2.433,2.433,0,0,0,.708,1.774l8.278,8.278,18.38-18.38a.761.761,0,0,1,1.069.06c.019.017,4.318,4.078,4.706,4.467ZM32.343,292.737a.754.754,0,0,1,.534.21L138.119,398.191a.748.748,0,0,1,.21.53.758.758,0,0,1-.21.536l-7.188,7.192L38.582,314.1c-.392-.392-4.722-4.484-4.722-4.484a2.464,2.464,0,0,0-3.473-.043l-17.17,17.17-7.069-7.069a.792.792,0,0,1,.031-1.1l25.63-25.628a.754.754,0,0,1,.534-.21" transform="translate(3.007 -264.219)" fill="#22b6eb"/>
                  <path id="Path_5780" data-name="Path 5780" d="M133.787,392.247l8.34-8.338a2.475,2.475,0,0,0,0-3.488L36.915,275.208a2.472,2.472,0,0,0-3.49,0L.724,307.911a2.464,2.464,0,0,0,0,3.488l8.489,8.487,25.573-25.573a.768.768,0,0,1,.532-.21.607.607,0,0,1,.537.21ZM35.17,276.2a.75.75,0,0,1,.534.221L140.918,381.631a.756.756,0,0,1,0,1.069l-7.129,7.129L37.064,293.1a2.429,2.429,0,0,0-1.738-.712H35.3a2.491,2.491,0,0,0-1.726.712L9.212,317.467,1.933,310.19a.752.752,0,0,1-.222-.535.741.741,0,0,1,.222-.532l32.7-32.705a.75.75,0,0,1,.534-.221" transform="translate(0 -219.3)" fill="#22b6eb"/>
                  <path id="Path_5781" data-name="Path 5781" d="M130.931,376.608l8.4-8.4a2.476,2.476,0,0,0,.712-1.748,2.433,2.433,0,0,0-.712-1.74L34.088,259.477a2.5,2.5,0,0,0-3.49,0L4.97,285.106a2.522,2.522,0,0,0-.739,1.743,2.431,2.431,0,0,0,.708,1.774l8.278,8.28,18.38-18.38a.763.763,0,0,1,1.069.06c.019.017,4.32,4.08,4.708,4.467ZM32.343,260.476a.754.754,0,0,1,.534.211L138.119,365.931a.747.747,0,0,1,.21.529.759.759,0,0,1-.21.537l-7.188,7.192L38.582,281.838c-.393-.392-4.722-4.482-4.722-4.482a2.464,2.464,0,0,0-3.473-.043l-17.17,17.17-7.069-7.07a.727.727,0,0,1-.207-.532.827.827,0,0,1,.238-.566l25.63-25.628a.754.754,0,0,1,.534-.211" transform="translate(3.007 -176.772)" fill="#22b6eb"/>
                  <path id="Path_5782" data-name="Path 5782" d="M133.787,359.988l8.34-8.338a2.47,2.47,0,0,0,0-3.488L36.915,242.948a2.469,2.469,0,0,0-3.49,0l-32.7,32.7a2.464,2.464,0,0,0,0,3.488l8.489,8.489,25.573-25.573a.815.815,0,0,1,.539-.21.74.74,0,0,1,.53.21ZM35.17,243.937a.749.749,0,0,1,.534.221L140.918,349.371a.756.756,0,0,1,0,1.069l-7.129,7.129L37.064,260.844a2.429,2.429,0,0,0-1.738-.712H35.3a2.491,2.491,0,0,0-1.726.712L9.212,285.208l-7.279-7.279a.754.754,0,0,1,0-1.069l32.7-32.7a.749.749,0,0,1,.534-.221" transform="translate(0 -131.853)" fill="#22b6eb"/>
                  <path id="Path_5783" data-name="Path 5783" d="M130.931,344.347l8.4-8.4a2.491,2.491,0,0,0,.712-1.726,2.43,2.43,0,0,0-.712-1.762L34.088,227.219a2.5,2.5,0,0,0-3.49,0L4.97,252.847a2.521,2.521,0,0,0-.739,1.743,2.431,2.431,0,0,0,.708,1.774l8.278,8.278L31.6,246.264a.763.763,0,0,1,1.069.06c.019.017,4.32,4.08,4.708,4.467ZM32.343,228.218a.754.754,0,0,1,.534.21L138.119,333.671a.788.788,0,0,1,0,1.069l-7.188,7.188L38.582,249.579c-.393-.392-4.722-4.482-4.722-4.482a2.464,2.464,0,0,0-3.473-.043l-17.17,17.169-7.069-7.069a.79.79,0,0,1,.031-1.1l25.63-25.628a.754.754,0,0,1,.534-.21" transform="translate(3.007 -89.325)" fill="#22b6eb"/>
                  <path id="Path_5784" data-name="Path 5784" d="M133.787,327.728l8.34-8.34a2.468,2.468,0,0,0,0-3.486L36.915,210.688a2.469,2.469,0,0,0-3.49,0l-32.7,32.7a2.464,2.464,0,0,0,0,3.488l8.489,8.489,25.573-25.573c.135-.133.344-.286.539-.21a.74.74,0,0,1,.53.21ZM35.17,211.677a.75.75,0,0,1,.534.221L140.918,317.111a.756.756,0,0,1,0,1.067l-7.13,7.13L37.064,228.584a2.429,2.429,0,0,0-1.738-.712H35.3a2.491,2.491,0,0,0-1.726.712L9.212,252.948l-7.279-7.279a.754.754,0,0,1,0-1.069l32.7-32.7a.75.75,0,0,1,.534-.221" transform="translate(0 -44.406)" fill="#22b6eb"/>
                  <path id="Path_5785" data-name="Path 5785" d="M130.931,312.088l8.4-8.4a2.491,2.491,0,0,0,.712-1.726,2.43,2.43,0,0,0-.712-1.762L34.088,194.96a2.5,2.5,0,0,0-3.49,0L4.97,220.588a2.549,2.549,0,0,0-.739,1.786,2.427,2.427,0,0,0,.708,1.731l8.278,8.278L31.6,214a.762.762,0,0,1,1.069.062c.019.017,4.32,4.08,4.708,4.467ZM32.343,195.959a.754.754,0,0,1,.534.21L138.119,301.412a.788.788,0,0,1,0,1.069l-7.188,7.188L38.582,217.32c-.393-.392-4.722-4.482-4.722-4.482a2.47,2.47,0,0,0-3.473-.046l-17.17,17.172L6.149,222.9a.727.727,0,0,1-.207-.52.815.815,0,0,1,.238-.577l25.63-25.63a.754.754,0,0,1,.534-.21" transform="translate(3.007 -1.881)" fill="#22b6eb"/>
                  <path id="Path_5786" data-name="Path 5786" d="M133.787,295.468l8.34-8.338a2.471,2.471,0,0,0,0-3.488L36.915,178.43a2.469,2.469,0,0,0-3.49,0l-32.7,32.7a2.464,2.464,0,0,0,0,3.488l8.489,8.489,25.573-25.573a.784.784,0,0,1,1.069,0ZM35.17,179.419a.749.749,0,0,1,.534.221L140.918,284.852a.758.758,0,0,1,0,1.069l-7.13,7.129L37.064,196.326a2.5,2.5,0,0,0-3.488,0L9.212,220.69l-7.279-7.279a.758.758,0,0,1,0-1.069l32.7-32.7a.749.749,0,0,1,.534-.221" transform="translate(0 43.037)" fill="#22b6eb"/>
                  <path id="Path_5787" data-name="Path 5787" d="M130.931,279.828l8.4-8.4a2.491,2.491,0,0,0,.712-1.726,2.43,2.43,0,0,0-.712-1.762L34.088,162.7a2.5,2.5,0,0,0-3.49,0L4.97,188.328a2.549,2.549,0,0,0-.739,1.786,2.427,2.427,0,0,0,.708,1.731l8.278,8.278,18.38-18.38a.765.765,0,0,1,1.069.06c.017.017,4.32,4.082,4.708,4.468ZM32.343,163.7a.754.754,0,0,1,.534.21L138.119,269.152a.788.788,0,0,1,0,1.069l-7.188,7.188L38.582,185.06c-.393-.392-4.722-4.484-4.722-4.484a2.472,2.472,0,0,0-3.473-.044L13.217,197.7l-7.069-7.069a.727.727,0,0,1-.207-.52.815.815,0,0,1,.238-.576l25.63-25.63a.754.754,0,0,1,.534-.21" transform="translate(3.007 85.567)" fill="#22b6eb"/>
                </g>
              </g>
            </g>
            <g id="Group_5152" data-name="Group 5152" transform="translate(0 14.011)" opacity="0.29">
              <g id="Group_5151" data-name="Group 5151">
                <g id="Group_5150" data-name="Group 5150" clip-path="url(#clip-path-5)">
                  <path id="Path_5788" data-name="Path 5788" d="M133.787,586.5l8.34-8.338a2.474,2.474,0,0,0,0-3.488L36.915,469.458a2.469,2.469,0,0,0-3.49,0l-32.7,32.7a2.464,2.464,0,0,0,0,3.488l8.489,8.489,25.573-25.573a.785.785,0,0,1,1.069,0ZM35.17,470.447a.749.749,0,0,1,.534.221L140.918,575.88a.756.756,0,0,1,0,1.069l-7.129,7.129L37.064,487.354a2.5,2.5,0,0,0-3.488,0L9.212,511.718l-7.279-7.279a.758.758,0,0,1,0-1.069l32.7-32.7a.749.749,0,0,1,.534-.221" transform="translate(0 -468.736)" fill="#22b6eb"/>
                  <path id="Path_5789" data-name="Path 5789" d="M130.931,570.856l8.4-8.4a2.492,2.492,0,0,0,.712-1.726,2.429,2.429,0,0,0-.712-1.762L34.088,453.726a2.507,2.507,0,0,0-3.49,0L4.97,479.356a2.549,2.549,0,0,0-.739,1.786,2.427,2.427,0,0,0,.708,1.731l8.278,8.278,18.38-18.38a.762.762,0,0,1,1.069.06c.017.017,4.32,4.082,4.708,4.468ZM32.343,454.727a.751.751,0,0,1,.534.21L138.119,560.18a.788.788,0,0,1,0,1.069l-7.188,7.189L38.582,476.088c-.393-.392-4.722-4.484-4.722-4.484a2.47,2.47,0,0,0-3.473-.044l-17.17,17.172-7.069-7.069a.727.727,0,0,1-.207-.52.815.815,0,0,1,.238-.576l25.63-25.632a.76.76,0,0,1,.534-.209" transform="translate(3.007 -426.207)" fill="#22b6eb"/>
                  <path id="Path_5790" data-name="Path 5790" d="M133.787,554.236l8.34-8.338a2.474,2.474,0,0,0,0-3.488L36.915,437.2a2.472,2.472,0,0,0-3.49,0L.724,469.9a2.464,2.464,0,0,0,0,3.488l8.489,8.489L34.785,456.3a.785.785,0,0,1,1.069,0ZM35.172,438.187a.755.755,0,0,1,.534.221L140.918,543.619a.756.756,0,0,1,0,1.069l-7.129,7.129L37.064,455.092a2.5,2.5,0,0,0-3.488,0L9.212,479.457l-7.279-7.279a.758.758,0,0,1,0-1.069l32.7-32.7a.751.751,0,0,1,.535-.221" transform="translate(0 -381.289)" fill="#22b6eb"/>
                  <path id="Path_5791" data-name="Path 5791" d="M130.93,538.6l8.4-8.4a2.491,2.491,0,0,0,.712-1.726,2.43,2.43,0,0,0-.712-1.762L34.087,421.466a2.5,2.5,0,0,0-3.488,0l-25.63,25.63a2.513,2.513,0,0,0-.737,1.745,2.42,2.42,0,0,0,.708,1.774l8.276,8.278L31.6,440.512a.761.761,0,0,1,1.069.06c.017.017,4.316,4.078,4.706,4.467ZM32.351,422.467a.737.737,0,0,1,.527.209L138.119,527.92a.788.788,0,0,1,0,1.069l-7.188,7.188L38.583,443.829c-.393-.392-4.723-4.484-4.723-4.484a2.462,2.462,0,0,0-3.471-.043l-17.172,17.17L6.15,449.4a.788.788,0,0,1,.029-1.1l25.63-25.63a.778.778,0,0,1,.542-.209" transform="translate(3.008 -338.761)" fill="#22b6eb"/>
                  <path id="Path_5792" data-name="Path 5792" d="M133.787,521.977l8.34-8.338a2.474,2.474,0,0,0,0-3.488L36.915,404.938a2.469,2.469,0,0,0-3.49,0l-32.7,32.7a2.464,2.464,0,0,0,0,3.488l8.489,8.489,25.573-25.575c.135-.133.344-.281.539-.21a.74.74,0,0,1,.53.21ZM35.172,405.926a.753.753,0,0,1,.534.221L140.918,511.36a.756.756,0,0,1,0,1.069l-7.129,7.129L37.064,422.833a2.429,2.429,0,0,0-1.738-.712H35.3a2.491,2.491,0,0,0-1.726.712L9.212,447.2,1.933,439.92a.758.758,0,0,1,0-1.069l32.7-32.7a.758.758,0,0,1,.535-.222" transform="translate(0 -293.843)" fill="#22b6eb"/>
                  <path id="Path_5793" data-name="Path 5793" d="M130.931,506.339l8.4-8.4a2.473,2.473,0,0,0,.712-1.743,2.438,2.438,0,0,0-.712-1.743L34.088,389.208a2.5,2.5,0,0,0-3.49,0L4.97,414.836a2.523,2.523,0,0,0-.739,1.747,2.43,2.43,0,0,0,.708,1.772l8.278,8.28L31.6,408.254a.762.762,0,0,1,1.069.062c.019.015,4.318,4.077,4.706,4.467ZM32.343,390.209a.752.752,0,0,1,.534.209L138.119,495.662a.748.748,0,0,1,.21.53.758.758,0,0,1-.21.535l-7.188,7.192L38.582,411.571c-.392-.392-4.722-4.484-4.722-4.484a2.466,2.466,0,0,0-3.473-.043l-17.17,17.17-7.069-7.069a.792.792,0,0,1,.031-1.1l25.63-25.628a.752.752,0,0,1,.534-.209" transform="translate(3.007 -251.317)" fill="#22b6eb"/>
                  <path id="Path_5794" data-name="Path 5794" d="M133.787,489.719l8.34-8.338a2.474,2.474,0,0,0,0-3.488L36.915,372.679a2.472,2.472,0,0,0-3.49,0L.724,405.382a2.464,2.464,0,0,0,0,3.488l8.489,8.487,25.573-25.573a.768.768,0,0,1,.532-.21c.111-.067.354.026.537.21ZM35.17,373.668a.749.749,0,0,1,.534.221L140.918,479.1a.756.756,0,0,1,0,1.069l-7.129,7.128L37.064,390.575a2.429,2.429,0,0,0-1.738-.712H35.3a2.491,2.491,0,0,0-1.726.712L9.212,414.938l-7.279-7.277a.752.752,0,0,1-.222-.536.741.741,0,0,1,.222-.532l32.7-32.705a.749.749,0,0,1,.534-.221" transform="translate(0 -206.398)" fill="#22b6eb"/>
                  <path id="Path_5795" data-name="Path 5795" d="M130.931,474.079l8.4-8.4a2.475,2.475,0,0,0,.712-1.748,2.433,2.433,0,0,0-.712-1.74L34.088,356.949a2.5,2.5,0,0,0-3.49,0L4.97,382.577a2.557,2.557,0,0,0-.739,1.791,2.423,2.423,0,0,0,.708,1.726l8.278,8.28,18.38-18.38a.762.762,0,0,1,1.069.06c.019.017,4.32,4.08,4.708,4.467ZM32.343,357.948a.754.754,0,0,1,.534.21L138.119,463.4a.747.747,0,0,1,.21.529.759.759,0,0,1-.21.537l-7.188,7.192L38.582,379.309c-.393-.392-4.722-4.482-4.722-4.482a2.464,2.464,0,0,0-3.473-.043l-17.17,17.17-7.069-7.072a.717.717,0,0,1-.207-.517.826.826,0,0,1,.238-.58l25.63-25.628a.754.754,0,0,1,.534-.21" transform="translate(3.007 -163.87)" fill="#22b6eb"/>
                  <path id="Path_5796" data-name="Path 5796" d="M133.787,457.459l8.34-8.338a2.47,2.47,0,0,0,0-3.488L36.915,340.419a2.472,2.472,0,0,0-3.49,0L.724,373.122a2.462,2.462,0,0,0,0,3.486L9.212,385.1l25.573-25.573a.694.694,0,0,1,.539-.21.74.74,0,0,1,.53.21ZM35.17,341.408a.75.75,0,0,1,.534.221L140.918,446.842a.756.756,0,0,1,0,1.069l-7.129,7.128L37.064,358.315a2.429,2.429,0,0,0-1.738-.712H35.3a2.491,2.491,0,0,0-1.726.712L9.212,382.679,1.933,375.4a.75.75,0,0,1,0-1.066l32.7-32.705a.75.75,0,0,1,.534-.221" transform="translate(0 -118.951)" fill="#22b6eb"/>
                  <path id="Path_5797" data-name="Path 5797" d="M130.931,441.818l8.4-8.4a2.486,2.486,0,0,0,.712-1.75,2.436,2.436,0,0,0-.712-1.738L34.088,324.69a2.5,2.5,0,0,0-3.49,0L4.97,350.318a2.522,2.522,0,0,0-.739,1.743,2.431,2.431,0,0,0,.708,1.774l8.278,8.28,18.38-18.38a.761.761,0,0,1,1.069.06c.019.017,4.32,4.08,4.708,4.467ZM32.343,325.689a.754.754,0,0,1,.534.21L138.119,431.143a.741.741,0,0,1,.21.527.771.771,0,0,1-.21.541l-7.188,7.188L38.582,347.05c-.393-.392-4.722-4.482-4.722-4.482a2.464,2.464,0,0,0-3.473-.043L13.217,359.7l-7.069-7.07a.79.79,0,0,1,.031-1.1L31.809,325.9a.754.754,0,0,1,.534-.21" transform="translate(3.007 -76.424)" fill="#22b6eb"/>
                </g>
              </g>
            </g>
            <g id="Group_5155" data-name="Group 5155" transform="translate(136.673 554.233)" opacity="0.29">
              <g id="Group_5154" data-name="Group 5154">
                <g id="Group_5153" data-name="Group 5153" clip-path="url(#clip-path-4)">
                  <path id="Path_5798" data-name="Path 5798" d="M89.07,270.707,187,172.772a.78.78,0,0,1,1.066,0l25.578,25.573,8.489-8.489a2.47,2.47,0,0,0,0-3.488l-32.7-32.7a2.47,2.47,0,0,0-3.488,0L80.732,258.881a2.468,2.468,0,0,0,0,3.488Zm98.465-99.856a2.439,2.439,0,0,0-1.74.712L89.07,268.288l-7.128-7.128a.75.75,0,0,1-.221-.535.739.739,0,0,1,.221-.532L187.153,154.877a.758.758,0,0,1,1.069,0l32.7,32.7a.759.759,0,0,1,0,1.069l-7.279,7.279-24.367-24.364a2.468,2.468,0,0,0-1.743-.712Z" transform="translate(-79.809 -152.945)" fill="#22b6eb"/>
                  <path id="Path_5799" data-name="Path 5799" d="M89,255.069l93.557-93.559c.388-.387,4.687-4.448,4.687-4.448a.769.769,0,0,1,1.086-.077l18.38,18.378,8.28-8.278a2.431,2.431,0,0,0,.708-1.774,2.516,2.516,0,0,0-.741-1.741l-25.628-25.63a2.471,2.471,0,0,0-1.743-.712h0a2.449,2.449,0,0,0-1.74.712L80.6,243.183a2.443,2.443,0,0,0-.712,1.762,2.5,2.5,0,0,0,.712,1.726Zm97.053-99.233s-4.314,4.077-4.7,4.465L89,252.65l-7.19-7.188a.788.788,0,0,1,0-1.069L187.057,139.15a.75.75,0,0,1,.53-.21h0a.751.751,0,0,1,.534.21l25.628,25.63a.786.786,0,0,1,.032,1.1l-7.07,7.069-17.17-17.169a2.469,2.469,0,0,0-3.486.06" transform="translate(-79.893 -110.421)" fill="#22b6eb"/>
                  <path id="Path_5800" data-name="Path 5800" d="M89.07,238.446,187,140.513a.78.78,0,0,1,1.066,0l25.578,25.573,8.489-8.489a2.471,2.471,0,0,0,0-3.488l-32.7-32.7a2.47,2.47,0,0,0-3.488,0L80.732,226.62a2.47,2.47,0,0,0,0,3.49Zm98.465-99.854a2.439,2.439,0,0,0-1.74.712L89.07,236.027,81.941,228.9a.758.758,0,0,1,0-1.069L187.153,122.618a.758.758,0,0,1,1.069,0l32.7,32.7a.759.759,0,0,1,0,1.069l-7.279,7.279L189.281,139.3a2.467,2.467,0,0,0-1.743-.712Z" transform="translate(-79.809 -65.499)" fill="#22b6eb"/>
                  <path id="Path_5801" data-name="Path 5801" d="M89,222.809l93.557-93.558c.388-.387,4.687-4.448,4.687-4.448a.766.766,0,0,1,1.086-.077l18.38,18.378,8.28-8.278a2.42,2.42,0,0,0,.708-1.731,2.544,2.544,0,0,0-.741-1.786l-25.628-25.628a2.471,2.471,0,0,0-1.743-.712h0a2.449,2.449,0,0,0-1.74.712L80.6,210.923a2.443,2.443,0,0,0-.712,1.762,2.5,2.5,0,0,0,.712,1.726Zm97.053-99.233s-4.314,4.077-4.7,4.465L89,220.39l-7.19-7.188a.788.788,0,0,1,0-1.069L187.057,106.89a.75.75,0,0,1,.53-.21h0a.751.751,0,0,1,.534.21l25.628,25.63a.81.81,0,0,1,.24.577.727.727,0,0,1-.207.52l-7.07,7.069-17.17-17.17a2.469,2.469,0,0,0-3.486.062" transform="translate(-79.893 -22.973)" fill="#22b6eb"/>
                  <path id="Path_5802" data-name="Path 5802" d="M89.07,206.186,187,108.253a.78.78,0,0,1,1.066,0l25.578,25.573,8.489-8.489a2.471,2.471,0,0,0,0-3.488l-32.7-32.7a2.47,2.47,0,0,0-3.488,0L80.732,194.36a2.468,2.468,0,0,0,0,3.488Zm98.465-99.854a2.439,2.439,0,0,0-1.74.712L89.07,203.767l-7.128-7.128a.758.758,0,0,1,0-1.069L187.153,90.358a.758.758,0,0,1,1.069,0l32.7,32.7a.76.76,0,0,1,0,1.069l-7.279,7.279-24.367-24.364a2.467,2.467,0,0,0-1.743-.712Z" transform="translate(-79.809 21.949)" fill="#22b6eb"/>
                  <path id="Path_5803" data-name="Path 5803" d="M89,190.548,182.561,96.99c.388-.387,4.687-4.45,4.687-4.45a.766.766,0,0,1,1.086-.075l18.38,18.378,8.28-8.278a2.42,2.42,0,0,0,.708-1.731,2.551,2.551,0,0,0-.741-1.788L189.334,73.418a2.5,2.5,0,0,0-3.486,0L80.6,178.662a2.443,2.443,0,0,0-.712,1.762,2.5,2.5,0,0,0,.712,1.726Zm97.053-99.236s-4.314,4.08-4.7,4.468L89,188.129l-7.19-7.188a.788.788,0,0,1,0-1.069L187.057,74.628a.785.785,0,0,1,1.069,0l25.626,25.63a.817.817,0,0,1,.24.578.727.727,0,0,1-.207.52l-7.07,7.069-17.17-17.17a2.477,2.477,0,0,0-3.486.058" transform="translate(-79.893 64.475)" fill="#22b6eb"/>
                  <path id="Path_5804" data-name="Path 5804" d="M89.07,173.925,187,75.991a.856.856,0,0,1,.539-.21.764.764,0,0,1,.529.21l25.577,25.575,8.489-8.489a2.471,2.471,0,0,0,0-3.488l-32.7-32.7a2.476,2.476,0,0,0-3.488,0L80.732,162.1a2.468,2.468,0,0,0,0,3.488ZM187.535,74.07a2.436,2.436,0,0,0-1.74.712L89.07,171.506l-7.128-7.129a.758.758,0,0,1,0-1.069L187.153,58.095a.759.759,0,0,1,1.069,0l32.7,32.7a.759.759,0,0,1,0,1.069l-7.279,7.279L189.281,74.781a2.479,2.479,0,0,0-1.721-.712Z" transform="translate(-79.809 109.397)" fill="#22b6eb"/>
                  <path id="Path_5805" data-name="Path 5805" d="M89,158.287l93.557-93.558c.392-.39,4.687-4.45,4.687-4.45a.768.768,0,0,1,1.086-.077l18.38,18.38,8.28-8.278a2.433,2.433,0,0,0,.708-1.774,2.517,2.517,0,0,0-.741-1.743l-25.628-25.63a2.5,2.5,0,0,0-3.486,0L80.6,146.4a2.444,2.444,0,0,0-.712,1.762,2.5,2.5,0,0,0,.712,1.726Zm97.053-99.235s-4.314,4.077-4.706,4.468L89,155.869l-7.19-7.188a.768.768,0,0,1-.21-.532.749.749,0,0,1,.21-.537L187.057,42.367a.787.787,0,0,1,1.069,0L213.752,68a.821.821,0,0,1,.24.565.729.729,0,0,1-.207.534l-7.07,7.069-17.17-17.17a2.472,2.472,0,0,0-3.486.06" transform="translate(-79.893 151.923)" fill="#22b6eb"/>
                  <path id="Path_5806" data-name="Path 5806" d="M89.07,141.668,187,43.733a.78.78,0,0,1,1.066,0l25.578,25.575,8.489-8.489a2.471,2.471,0,0,0,0-3.488l-32.7-32.7a2.47,2.47,0,0,0-3.488,0L80.732,129.842a2.468,2.468,0,0,0,0,3.488Zm98.465-99.856a2.438,2.438,0,0,0-1.74.712L89.07,139.249l-7.128-7.129a.758.758,0,0,1,0-1.069L187.153,25.838a.758.758,0,0,1,1.069,0l32.7,32.7a.759.759,0,0,1,0,1.069l-7.279,7.279L189.281,42.524a2.467,2.467,0,0,0-1.743-.712Z" transform="translate(-79.809 196.84)" fill="#22b6eb"/>
                  <path id="Path_5807" data-name="Path 5807" d="M89,126.032l93.557-93.558c.392-.39,4.687-4.45,4.687-4.45a.768.768,0,0,1,1.086-.077l18.38,18.38,8.28-8.278a2.433,2.433,0,0,0,.708-1.774,2.517,2.517,0,0,0-.741-1.743L189.334,8.9a2.471,2.471,0,0,0-1.743-.712h0a2.449,2.449,0,0,0-1.74.712L80.6,114.146a2.441,2.441,0,0,0-.712,1.741,2.489,2.489,0,0,0,.712,1.747ZM186.058,26.8s-4.314,4.077-4.706,4.468L89,123.613l-7.19-7.19a.762.762,0,0,1-.21-.537.748.748,0,0,1,.21-.53L187.057,10.111a.75.75,0,0,1,.53-.21h0a.751.751,0,0,1,.534.21l25.628,25.63a.821.821,0,0,1,.239.565.729.729,0,0,1-.207.534l-7.07,7.069-17.17-17.17a2.473,2.473,0,0,0-3.486.06" transform="translate(-79.893 239.364)" fill="#22b6eb"/>
                </g>
              </g>
            </g>
            <g id="Group_5158" data-name="Group 5158" transform="translate(136.673 277.115)" opacity="0.29">
              <g id="Group_5157" data-name="Group 5157">
                <g id="Group_5156" data-name="Group 5156" clip-path="url(#clip-path-4)">
                  <path id="Path_5808" data-name="Path 5808" d="M89.07,432.7,187,334.762a.78.78,0,0,1,1.066,0l25.578,25.575,8.489-8.489a2.471,2.471,0,0,0,0-3.488l-32.7-32.7a2.47,2.47,0,0,0-3.488,0L80.732,420.871a2.468,2.468,0,0,0,0,3.488Zm98.465-99.855a2.438,2.438,0,0,0-1.74.712L89.07,430.278l-7.128-7.129a.758.758,0,0,1,0-1.069L187.153,316.867a.755.755,0,0,1,1.069,0l32.7,32.7a.76.76,0,0,1,0,1.069l-7.279,7.279-24.367-24.366a2.468,2.468,0,0,0-1.743-.712Z" transform="translate(-79.809 -314.935)" fill="#22b6eb"/>
                  <path id="Path_5809" data-name="Path 5809" d="M89,417.06,182.561,323.5c.392-.39,4.687-4.45,4.687-4.45a.768.768,0,0,1,1.086-.077l18.38,18.38,8.28-8.278a2.434,2.434,0,0,0,.708-1.774,2.517,2.517,0,0,0-.741-1.743l-25.628-25.63a2.471,2.471,0,0,0-1.743-.712h0a2.449,2.449,0,0,0-1.74.712L80.6,405.174a2.441,2.441,0,0,0-.712,1.741,2.489,2.489,0,0,0,.712,1.747Zm97.053-99.235s-4.314,4.077-4.706,4.468L89,414.641l-7.19-7.19a.762.762,0,0,1-.21-.537.748.748,0,0,1,.21-.53L187.057,301.139a.75.75,0,0,1,.53-.21h0a.751.751,0,0,1,.534.21l25.628,25.63a.788.788,0,0,1,.033,1.1l-7.07,7.069-17.17-17.17a2.472,2.472,0,0,0-3.486.06" transform="translate(-79.893 -272.41)" fill="#22b6eb"/>
                  <path id="Path_5810" data-name="Path 5810" d="M89.07,400.437,187,302.5a.78.78,0,0,1,1.066,0l25.578,25.573,8.489-8.487a2.472,2.472,0,0,0,0-3.49l-32.7-32.7a2.47,2.47,0,0,0-3.488,0L80.732,388.611a2.468,2.468,0,0,0,0,3.488Zm98.465-99.856a2.439,2.439,0,0,0-1.74.712L89.07,398.018l-7.128-7.129a.758.758,0,0,1,0-1.069L187.153,284.607a.755.755,0,0,1,1.069,0l32.7,32.7a.76.76,0,0,1,0,1.069l-7.279,7.277-24.367-24.364a2.468,2.468,0,0,0-1.743-.712Z" transform="translate(-79.809 -227.488)" fill="#22b6eb"/>
                  <path id="Path_5811" data-name="Path 5811" d="M89,384.8l93.557-93.56c.388-.387,4.687-4.448,4.687-4.448a.768.768,0,0,1,1.086-.077l18.38,18.38,8.28-8.28a2.43,2.43,0,0,0,.708-1.774,2.516,2.516,0,0,0-.741-1.742l-25.628-25.63a2.471,2.471,0,0,0-1.743-.712h0a2.449,2.449,0,0,0-1.74.712L80.6,372.914a2.433,2.433,0,0,0-.712,1.738,2.49,2.49,0,0,0,.712,1.75Zm97.053-99.235s-4.314,4.077-4.7,4.465L89,382.381l-7.19-7.19a.763.763,0,0,1-.21-.539.741.741,0,0,1,.21-.527L187.057,268.879a.75.75,0,0,1,.53-.21h0a.751.751,0,0,1,.534.21l25.628,25.63a.821.821,0,0,1,.239.565.727.727,0,0,1-.207.532l-7.07,7.07-17.17-17.17a2.473,2.473,0,0,0-3.486.06" transform="translate(-79.893 -184.962)" fill="#22b6eb"/>
                  <path id="Path_5812" data-name="Path 5812" d="M89.07,368.177,187,270.242a.78.78,0,0,1,1.066,0l25.578,25.573,8.489-8.489a2.47,2.47,0,0,0,0-3.488l-32.7-32.7a2.47,2.47,0,0,0-3.488,0L80.732,356.351a2.468,2.468,0,0,0,0,3.488Zm98.465-99.856a2.439,2.439,0,0,0-1.74.712L89.07,365.758l-7.128-7.129a.75.75,0,0,1-.221-.535.74.74,0,0,1,.221-.532L187.153,252.347a.758.758,0,0,1,1.069,0l32.7,32.7a.759.759,0,0,1,0,1.069l-7.279,7.279-24.367-24.364a2.468,2.468,0,0,0-1.743-.712Z" transform="translate(-79.809 -140.04)" fill="#22b6eb"/>
                  <path id="Path_5813" data-name="Path 5813" d="M89,352.539l93.557-93.558c.388-.387,4.687-4.448,4.687-4.448a.768.768,0,0,1,1.086-.077l18.38,18.378,8.28-8.278a2.431,2.431,0,0,0,.708-1.774,2.516,2.516,0,0,0-.741-1.742l-25.628-25.63a2.471,2.471,0,0,0-1.743-.712h0a2.449,2.449,0,0,0-1.74.712L80.6,340.653a2.443,2.443,0,0,0-.712,1.762,2.5,2.5,0,0,0,.712,1.726Zm97.053-99.233s-4.314,4.077-4.7,4.465L89,350.12l-7.19-7.188a.788.788,0,0,1,0-1.069L187.057,236.62a.75.75,0,0,1,.53-.21h0a.751.751,0,0,1,.534.21l25.628,25.63a.786.786,0,0,1,.032,1.1l-7.07,7.069-17.17-17.169a2.47,2.47,0,0,0-3.486.06" transform="translate(-79.893 -97.516)" fill="#22b6eb"/>
                  <path id="Path_5814" data-name="Path 5814" d="M89.07,335.918,187,237.983a.78.78,0,0,1,1.066,0l25.578,25.573,8.489-8.489a2.47,2.47,0,0,0,0-3.488l-32.7-32.7a2.47,2.47,0,0,0-3.488,0L80.732,324.092a2.468,2.468,0,0,0,0,3.488Zm98.465-99.856a2.438,2.438,0,0,0-1.74.712L89.07,333.5l-7.128-7.13a.754.754,0,0,1,0-1.066L187.153,220.088a.758.758,0,0,1,1.069,0l32.7,32.7a.759.759,0,0,1,0,1.069l-7.279,7.279-24.367-24.364a2.467,2.467,0,0,0-1.743-.712Z" transform="translate(-79.809 -52.596)" fill="#22b6eb"/>
                  <path id="Path_5815" data-name="Path 5815" d="M89,320.28l93.557-93.558c.388-.387,4.687-4.448,4.687-4.448a.768.768,0,0,1,1.086-.077l18.38,18.378,8.28-8.278a2.42,2.42,0,0,0,.708-1.731,2.544,2.544,0,0,0-.741-1.786l-25.628-25.628a2.471,2.471,0,0,0-1.743-.712h0a2.449,2.449,0,0,0-1.74.712L80.6,308.394a2.443,2.443,0,0,0-.712,1.762,2.5,2.5,0,0,0,.712,1.726Zm97.053-99.233s-4.314,4.077-4.7,4.465L89,317.861l-7.19-7.188a.788.788,0,0,1,0-1.069L187.057,204.361a.75.75,0,0,1,.53-.21h0a.751.751,0,0,1,.534.21l25.628,25.63a.81.81,0,0,1,.24.576.727.727,0,0,1-.207.52l-7.07,7.069-17.17-17.17a2.469,2.469,0,0,0-3.486.062" transform="translate(-79.893 -10.071)" fill="#22b6eb"/>
                  <path id="Path_5816" data-name="Path 5816" d="M89.07,303.657,187,205.724a.78.78,0,0,1,1.066,0L213.649,231.3l8.489-8.489a2.471,2.471,0,0,0,0-3.488l-32.7-32.7a2.47,2.47,0,0,0-3.488,0L80.732,291.831a2.47,2.47,0,0,0,0,3.49ZM187.535,203.8a2.439,2.439,0,0,0-1.74.712L89.07,301.238l-7.128-7.128a.758.758,0,0,1,0-1.069L187.153,187.829a.758.758,0,0,1,1.069,0l32.7,32.7a.759.759,0,0,1,0,1.069l-7.279,7.279-24.367-24.364a2.468,2.468,0,0,0-1.743-.712Z" transform="translate(-79.809 34.851)" fill="#22b6eb"/>
                  <path id="Path_5817" data-name="Path 5817" d="M89,288.02l93.557-93.558c.388-.387,4.687-4.45,4.687-4.45a.766.766,0,0,1,1.086-.075l18.38,18.378,8.28-8.278a2.42,2.42,0,0,0,.708-1.731,2.551,2.551,0,0,0-.741-1.788l-25.628-25.626a2.471,2.471,0,0,0-1.743-.712h0a2.442,2.442,0,0,0-1.74.712L80.6,276.134a2.444,2.444,0,0,0-.712,1.762,2.5,2.5,0,0,0,.712,1.726Zm97.053-99.236s-4.314,4.08-4.7,4.468L89,285.6l-7.19-7.188a.788.788,0,0,1,0-1.069L187.057,172.1a.75.75,0,0,1,.53-.21h0a.751.751,0,0,1,.534.21l25.628,25.628a.817.817,0,0,1,.24.578.727.727,0,0,1-.207.52l-7.07,7.069-17.17-17.17a2.475,2.475,0,0,0-3.486.058" transform="translate(-79.893 77.376)" fill="#22b6eb"/>
                </g>
              </g>
            </g>
            <g id="Group_5161" data-name="Group 5161" transform="translate(136.673 0)" opacity="0.29">
              <g id="Group_5160" data-name="Group 5160">
                <g id="Group_5159" data-name="Group 5159" clip-path="url(#clip-path-5)">
                  <path id="Path_5818" data-name="Path 5818" d="M89.07,594.685,187,496.752a.78.78,0,0,1,1.066,0l25.578,25.573,8.489-8.488a2.471,2.471,0,0,0,0-3.488l-32.7-32.7a2.47,2.47,0,0,0-3.488,0L80.732,582.859a2.468,2.468,0,0,0,0,3.488Zm98.465-99.854a2.439,2.439,0,0,0-1.74.712L89.07,592.266l-7.128-7.129a.758.758,0,0,1,0-1.069L187.153,478.856a.758.758,0,0,1,1.069,0l32.7,32.7a.76.76,0,0,1,0,1.069l-7.279,7.279-24.367-24.364a2.468,2.468,0,0,0-1.743-.712Z" transform="translate(-79.809 -476.925)" fill="#22b6eb"/>
                  <path id="Path_5819" data-name="Path 5819" d="M89,579.047l93.557-93.559c.388-.387,4.687-4.45,4.687-4.45a.764.764,0,0,1,1.086-.075l18.38,18.378,8.28-8.278a2.42,2.42,0,0,0,.708-1.731,2.551,2.551,0,0,0-.741-1.788l-25.628-25.628a2.5,2.5,0,0,0-3.486,0L80.6,567.161a2.444,2.444,0,0,0-.712,1.762,2.5,2.5,0,0,0,.712,1.726Zm97.053-99.236s-4.314,4.08-4.7,4.468L89,576.628l-7.19-7.188a.788.788,0,0,1,0-1.069L187.057,463.127a.785.785,0,0,1,1.069,0l25.626,25.63a.816.816,0,0,1,.24.578.727.727,0,0,1-.207.52l-7.07,7.069-17.17-17.17a2.475,2.475,0,0,0-3.486.058" transform="translate(-79.893 -434.399)" fill="#22b6eb"/>
                  <path id="Path_5820" data-name="Path 5820" d="M89.07,562.424,187,464.49a.729.729,0,0,1,.539-.21.763.763,0,0,1,.529.21l25.577,25.575,8.489-8.489a2.471,2.471,0,0,0,0-3.488l-32.7-32.7a2.476,2.476,0,0,0-3.488,0L80.732,550.6a2.468,2.468,0,0,0,0,3.488Zm98.465-99.856a2.436,2.436,0,0,0-1.74.712L89.07,560.005l-7.128-7.129a.758.758,0,0,1,0-1.069L187.153,446.594a.758.758,0,0,1,1.069,0l32.7,32.7a.76.76,0,0,1,0,1.069l-7.279,7.279L189.281,463.28a2.479,2.479,0,0,0-1.721-.712Z" transform="translate(-79.809 -389.477)" fill="#22b6eb"/>
                  <path id="Path_5821" data-name="Path 5821" d="M89,546.787l93.557-93.559c.392-.39,4.687-4.45,4.687-4.45a.768.768,0,0,1,1.086-.077l18.38,18.38,8.28-8.278a2.433,2.433,0,0,0,.708-1.774,2.517,2.517,0,0,0-.741-1.743l-25.628-25.63a2.5,2.5,0,0,0-3.486,0L80.6,534.9a2.444,2.444,0,0,0-.712,1.762,2.5,2.5,0,0,0,.712,1.726Zm97.053-99.235s-4.314,4.077-4.706,4.468L89,544.368l-7.19-7.188a.788.788,0,0,1,0-1.069L187.057,430.866a.785.785,0,0,1,1.069,0l25.626,25.63a.788.788,0,0,1,.032,1.1l-7.07,7.069-17.17-17.17a2.474,2.474,0,0,0-3.486.06" transform="translate(-79.893 -346.951)" fill="#22b6eb"/>
                  <path id="Path_5822" data-name="Path 5822" d="M89.07,530.167,187,432.232a.78.78,0,0,1,1.066,0l25.578,25.575,8.489-8.489a2.471,2.471,0,0,0,0-3.488l-32.7-32.7a2.47,2.47,0,0,0-3.488,0L80.732,518.341a2.468,2.468,0,0,0,0,3.488Zm98.465-99.856a2.439,2.439,0,0,0-1.74.712L89.07,527.748l-7.128-7.128a.758.758,0,0,1,0-1.069L187.153,414.337a.758.758,0,0,1,1.069,0l32.7,32.7a.76.76,0,0,1,0,1.069l-7.279,7.279-24.367-24.366a2.468,2.468,0,0,0-1.743-.712Z" transform="translate(-79.809 -302.034)" fill="#22b6eb"/>
                  <path id="Path_5823" data-name="Path 5823" d="M89,514.531l93.557-93.558c.392-.39,4.687-4.45,4.687-4.45a.769.769,0,0,1,1.086-.077l18.38,18.38,8.28-8.278a2.433,2.433,0,0,0,.708-1.774,2.517,2.517,0,0,0-.741-1.743L189.334,397.4a2.471,2.471,0,0,0-1.743-.712h0a2.449,2.449,0,0,0-1.74.712L80.6,502.645a2.441,2.441,0,0,0-.712,1.742,2.489,2.489,0,0,0,.712,1.747ZM186.058,415.3s-4.314,4.077-4.706,4.468L89,512.112l-7.19-7.19a.762.762,0,0,1-.21-.537.748.748,0,0,1,.21-.53L187.057,398.61a.75.75,0,0,1,.53-.211h0a.751.751,0,0,1,.534.211l25.628,25.63a.788.788,0,0,1,.033,1.1l-7.07,7.069-17.17-17.17a2.473,2.473,0,0,0-3.486.06" transform="translate(-79.893 -259.509)" fill="#22b6eb"/>
                  <path id="Path_5824" data-name="Path 5824" d="M89.07,497.908,187,399.973a.78.78,0,0,1,1.066,0l25.578,25.573,8.489-8.487a2.472,2.472,0,0,0,0-3.49l-32.7-32.7a2.47,2.47,0,0,0-3.488,0L80.732,486.082a2.468,2.468,0,0,0,0,3.488Zm98.465-99.856a2.439,2.439,0,0,0-1.74.712L89.07,495.489l-7.128-7.129a.758.758,0,0,1,0-1.069L187.153,382.078a.755.755,0,0,1,1.069,0l32.7,32.7a.76.76,0,0,1,0,1.069l-7.279,7.277-24.367-24.364a2.468,2.468,0,0,0-1.743-.712Z" transform="translate(-79.809 -214.588)" fill="#22b6eb"/>
                  <path id="Path_5825" data-name="Path 5825" d="M89,482.271l93.557-93.56c.388-.387,4.687-4.448,4.687-4.448a.768.768,0,0,1,1.086-.077l18.38,18.38,8.28-8.28a2.422,2.422,0,0,0,.708-1.726,2.537,2.537,0,0,0-.741-1.789l-25.628-25.63a2.471,2.471,0,0,0-1.743-.712h0a2.449,2.449,0,0,0-1.74.712L80.6,470.385a2.433,2.433,0,0,0-.712,1.738,2.49,2.49,0,0,0,.712,1.75Zm97.053-99.235s-4.314,4.077-4.7,4.465L89,479.852l-7.19-7.19a.764.764,0,0,1-.21-.539.741.741,0,0,1,.21-.527L187.057,366.35a.75.75,0,0,1,.53-.21h0a.751.751,0,0,1,.534.21l25.628,25.63a.814.814,0,0,1,.239.578.716.716,0,0,1-.207.517v0l-7.07,7.07-17.17-17.17a2.472,2.472,0,0,0-3.486.06" transform="translate(-79.893 -172.062)" fill="#22b6eb"/>
                  <path id="Path_5826" data-name="Path 5826" d="M89.07,465.648,187,367.713a.78.78,0,0,1,1.066,0l25.578,25.573,8.489-8.489a2.47,2.47,0,0,0,0-3.488l-32.7-32.7a2.47,2.47,0,0,0-3.488,0L80.732,453.822a2.468,2.468,0,0,0,0,3.488Zm98.465-99.856a2.439,2.439,0,0,0-1.74.712L89.07,463.229,81.941,456.1a.75.75,0,0,1-.221-.535.739.739,0,0,1,.221-.532L187.153,349.818a.755.755,0,0,1,1.069,0l32.7,32.7a.758.758,0,0,1,0,1.068l-7.279,7.279L189.281,366.5a2.468,2.468,0,0,0-1.743-.712Z" transform="translate(-79.809 -127.14)" fill="#22b6eb"/>
                  <path id="Path_5827" data-name="Path 5827" d="M89,450.01l93.557-93.558c.388-.387,4.687-4.448,4.687-4.448a.768.768,0,0,1,1.086-.077l18.38,18.38,8.28-8.28a2.431,2.431,0,0,0,.708-1.774,2.516,2.516,0,0,0-.741-1.742l-25.628-25.63a2.471,2.471,0,0,0-1.743-.712h0a2.449,2.449,0,0,0-1.74.712L80.6,438.126a2.439,2.439,0,0,0-.712,1.736,2.493,2.493,0,0,0,.712,1.75Zm97.053-99.233s-4.314,4.077-4.7,4.465L89,447.591l-7.19-7.188a.767.767,0,0,1-.21-.54.735.735,0,0,1,.21-.525L187.057,334.091a.75.75,0,0,1,.53-.21h0a.751.751,0,0,1,.534.21l25.628,25.63a.786.786,0,0,1,.033,1.1l-7.07,7.07-17.17-17.17a2.472,2.472,0,0,0-3.486.06" transform="translate(-79.893 -84.616)" fill="#22b6eb"/>
                </g>
              </g>
            </g>
          </g>
        </g>
      </g>
    </g>
  </g>
</svg>
