<svg xmlns="http://www.w3.org/2000/svg" width="69.538" height="69.375" viewBox="0 0 69.538 69.375">
  <g id="virus-covid19-corona-hand-drug" transform="translate(-2.2 -2.176)">
    <path id="Path_7630" data-name="Path 7630" d="M28.625,55.351,26.876,53.6,14.046,40.773,12.134,38.86,3.2,47.782l16.491,16.5Z" transform="translate(0.166 6.1)" fill="#29abe2"/>
    <path id="Path_7631" data-name="Path 7631" d="M39,31.665a4.665,4.665,0,1,0,9.33,0V27H39Z" transform="translate(6.119 4.128)" fill="#29abe2"/>
    <path id="Path_7632" data-name="Path 7632" d="M25.172,21.768l3.3,3.3a4.665,4.665,0,0,0,6.6-6.6l-3.3-3.3Z" transform="translate(3.82 2.161)" fill="#29abe2"/>
    <path id="Path_7633" data-name="Path 7633" d="M48.538,10.47a4.665,4.665,0,1,0,6.6,6.6l3.3-3.3-6.6-6.6Z" transform="translate(7.478 0.831)" fill="#29abe2"/>
    <path id="Path_7634" data-name="Path 7634" d="M67.768,36.231a4.72,4.72,0,0,0-6.38-1.714L49.679,41.281a4.567,4.567,0,0,0-1.458-2.6,4.713,4.713,0,0,0-3.114-1.166H35.591a1.155,1.155,0,0,1-.828-.338l-.28-.292a5.817,5.817,0,0,0-4.117-1.7s-9.319.012-9.552.023a5.948,5.948,0,0,0-3.545,1.679l-3.056,3.067-1.085-1.1a1.176,1.176,0,0,0-1.656,0L2.538,47.777a1.2,1.2,0,0,0-.338.828,1.227,1.227,0,0,0,.338.828l16.491,16.5a1.2,1.2,0,0,0,.828.338,1.227,1.227,0,0,0,.828-.338L29.619,57a1.176,1.176,0,0,0,0-1.656l-.933-.921.245-.245a1.155,1.155,0,0,1,.828-.338H45.038a5.715,5.715,0,0,0,2.916-.781l18.1-10.45A4.687,4.687,0,0,0,67.768,36.231ZM19.858,63.464,5.011,48.605,12.3,41.328,27.147,56.174Zm45.03-22.882L46.775,51.043a3.431,3.431,0,0,1-1.738.467H29.759a3.447,3.447,0,0,0-2.473,1.026l-.245.245L15.857,41.6l3.067-3.056a3.424,3.424,0,0,1,2.1-1c.128-.012,9.342-.023,9.342-.023a3.421,3.421,0,0,1,2.461,1.026l.292.28a3.448,3.448,0,0,0,2.473,1.026h9.517a2.356,2.356,0,0,1,1.563.583,2.23,2.23,0,0,1,.77,1.493A2.082,2.082,0,0,1,47.288,43a2.172,2.172,0,0,1-.525.828,2.313,2.313,0,0,1-1.644.688H37.445a1.166,1.166,0,1,0,0,2.333h7.674a4.665,4.665,0,0,0,3.3-1.365,4.561,4.561,0,0,0,.91-1.306l13.226-7.627a2.322,2.322,0,0,1,2.228-.047,2.158,2.158,0,0,1,.956.9,2.273,2.273,0,0,1,.315,1.166A2.3,2.3,0,0,1,64.888,40.581Z" transform="translate(0 5.277)" fill="#273587"/>
    <path id="Path_7635" data-name="Path 7635" d="M43.831,18A5.831,5.831,0,0,0,38,23.831v9.33a5.831,5.831,0,0,0,11.663,0v-9.33A5.831,5.831,0,0,0,43.831,18Zm3.5,15.162a3.5,3.5,0,0,1-7,0v-3.5h7Zm0-5.831h-7v-3.5a3.5,3.5,0,1,1,7,0Z" transform="translate(5.953 2.631)" fill="#273587"/>
    <path id="Path_7636" data-name="Path 7636" d="M36.719,18.473l-6.589-6.589a5.831,5.831,0,1,0-8.246,8.246l6.59,6.589a5.831,5.831,0,1,0,8.246-8.246Zm-13.191,0a3.5,3.5,0,1,1,4.945-4.945L30.946,16,26,20.946Zm11.546,6.6a3.5,3.5,0,0,1-4.945,0L27.657,22.6,32.6,17.657l2.473,2.473a3.5,3.5,0,0,1,0,4.945Z" transform="translate(2.989 1.33)" fill="#273587"/>
    <path id="Path_7637" data-name="Path 7637" d="M62.719,3.883a5.831,5.831,0,0,0-8.246,0l-6.589,6.589a5.831,5.831,0,1,0,8.246,8.246l6.589-6.589A5.831,5.831,0,0,0,62.719,3.883ZM54.473,17.074a3.5,3.5,0,0,1-4.945-4.945L52,9.657,56.945,14.6Zm6.6-6.6L58.6,12.945,53.657,8l2.473-2.473a3.5,3.5,0,0,1,4.945,4.945Z" transform="translate(7.312 0)" fill="#273587"/>
  </g>
</svg>
