<svg xmlns="http://www.w3.org/2000/svg" width="71.798" height="53.332" viewBox="0 0 71.798 53.332">
  <g id="banknote" transform="translate(0 -65.84)">
    <path id="Path_7638" data-name="Path 7638" d="M75.31,218.057H10.244A2.244,2.244,0,0,1,8,215.813V184.4a2.244,2.244,0,0,1,2.244-2.244H75.31a2.244,2.244,0,0,1,2.244,2.244v31.411A2.244,2.244,0,0,1,75.31,218.057Z" transform="translate(-6.878 -100.007)" fill="#51c8ed"/>
    <g id="Group_5313" data-name="Group 5313" transform="translate(11.218 82.151)">
      <path id="Path_7639" data-name="Path 7639" d="M448.975,184.4v31.411a2.243,2.243,0,0,1-2.244,2.244H440a2.243,2.243,0,0,0,2.244-2.244V184.4A2.243,2.243,0,0,0,440,182.158h6.731A2.243,2.243,0,0,1,448.975,184.4Z" transform="translate(-389.517 -182.158)" fill="#fff"/>
      <circle id="Ellipse_82" data-name="Ellipse 82" cx="2.244" cy="2.244" r="2.244" transform="translate(0 15.706)" fill="#fff"/>
      <circle id="Ellipse_83" data-name="Ellipse 83" cx="2.244" cy="2.244" r="2.244" transform="translate(44.874 15.706)" fill="#fff"/>
    </g>
    <path id="Path_7640" data-name="Path 7640" d="M24,128.906l60.572-8.664a2.244,2.244,0,0,1,2.533,1.944l.84,6.72H24Z" transform="translate(-20.634 -46.754)" fill="#51c8ed"/>
    <path id="Path_7641" data-name="Path 7641" d="M429.944,128.9h-6.731l-.84-6.72a2.233,2.233,0,0,0-.593-1.259l4.792-.686a2.245,2.245,0,0,1,2.533,1.945Z" transform="translate(-362.634 -46.752)" fill="#fff"/>
    <path id="Path_7642" data-name="Path 7642" d="M24,89.028,77.886,73.916a2.244,2.244,0,0,1,2.76,1.622l1.3,5.188Z" transform="translate(-20.634 -6.877)" fill="#51c8ed"/>
    <path id="Path_7643" data-name="Path 7643" d="M381.96,80.729l-6.769.97-1.259-5.037a2.234,2.234,0,0,0-.982-1.355L377.9,73.92a2.243,2.243,0,0,1,2.76,1.621Z" transform="translate(-320.651 -6.88)" fill="#fff"/>
    <circle id="Ellipse_84" data-name="Ellipse 84" cx="13.462" cy="13.462" r="13.462" transform="translate(22.437 86.639)" fill="#fff"/>
    <path id="Path_7644" data-name="Path 7644" d="M228.487,242.645a2.246,2.246,0,0,1,2.244,2.244,1.122,1.122,0,1,0,2.244,0,4.5,4.5,0,0,0-3.366-4.345V239.28a1.122,1.122,0,0,0-2.244,0v1.264a4.488,4.488,0,0,0,1.122,8.833,2.244,2.244,0,1,1-2.244,2.244,1.122,1.122,0,1,0-2.244,0,4.5,4.5,0,0,0,3.366,4.345v1.264a1.122,1.122,0,0,0,2.244,0v-1.264a4.488,4.488,0,0,0-1.122-8.833,2.244,2.244,0,1,1,0-4.487Z" transform="translate(-192.589 -148.154)" fill="#273587"/>
    <path id="Path_7645" data-name="Path 7645" d="M166.584,206.158a14.584,14.584,0,1,0,14.584,14.584,14.6,14.6,0,0,0-14.584-14.584Zm0,26.924a12.34,12.34,0,1,1,12.34-12.34A12.354,12.354,0,0,1,166.584,233.082Z" transform="translate(-130.685 -120.641)" fill="#273587"/>
    <path id="Path_7646" data-name="Path 7646" d="M68.3,81.029l-.717-5.737a3.364,3.364,0,0,0-3.8-2.916l-1.624.232L61.1,68.39a3.364,3.364,0,0,0-4.151-2.43L3.2,81.034A3.37,3.37,0,0,0,0,84.395v31.411a3.369,3.369,0,0,0,3.366,3.366H68.432a3.369,3.369,0,0,0,3.366-3.366V84.395a3.37,3.37,0,0,0-3.5-3.366ZM64.091,74.6a1.121,1.121,0,0,1,1.266.972l.682,5.459H19.13Zm-6.547-6.476a1.121,1.121,0,0,1,1.38.811l1,3.994-39.829,5.7Zm12.011,47.684a1.123,1.123,0,0,1-1.122,1.122H3.366a1.123,1.123,0,0,1-1.122-1.122V84.395a1.123,1.123,0,0,1,1.119-1.122H68.432a1.123,1.123,0,0,1,1.122,1.122Z" fill="#273587"/>
    <path id="Path_7647" data-name="Path 7647" d="M93.7,209.523a2.246,2.246,0,0,1-2.244-2.244,1.122,1.122,0,0,0-1.122-1.122H75.752a1.122,1.122,0,1,0,0,2.244h13.6a4.5,4.5,0,0,0,3.223,3.223v18.233a4.5,4.5,0,0,0-3.223,3.223h-13.6a1.122,1.122,0,1,0,0,2.244H90.336a1.122,1.122,0,0,0,1.122-1.122A2.246,2.246,0,0,1,93.7,231.96a1.122,1.122,0,0,0,1.122-1.122V210.645a1.122,1.122,0,0,0-1.122-1.122Zm-42.63,23.559h-13.6a4.5,4.5,0,0,0-3.223-3.223V211.625a4.5,4.5,0,0,0,3.223-3.223h13.6a1.122,1.122,0,0,0,0-2.244H36.487a1.122,1.122,0,0,0-1.122,1.122,2.246,2.246,0,0,1-2.244,2.244A1.122,1.122,0,0,0,32,210.645v20.193a1.122,1.122,0,0,0,1.122,1.122,2.246,2.246,0,0,1,2.244,2.244,1.122,1.122,0,0,0,1.122,1.122H51.071a1.122,1.122,0,1,0,0-2.244Z" transform="translate(-27.513 -120.641)" fill="#273587"/>
    <path id="Path_7648" data-name="Path 7648" d="M72,289.523a3.366,3.366,0,1,0,3.366-3.366A3.369,3.369,0,0,0,72,289.523Zm4.487,0a1.122,1.122,0,1,1-1.122-1.122A1.123,1.123,0,0,1,76.487,289.523Zm47.117,0a3.366,3.366,0,1,0-3.366,3.366A3.369,3.369,0,0,0,123.6,289.523Zm-4.487,0a1.122,1.122,0,1,1,1.122,1.122A1.123,1.123,0,0,1,119.117,289.523Z" transform="translate(-61.903 -189.423)" fill="#273587"/>
  </g>
</svg>
