<svg xmlns="http://www.w3.org/2000/svg" width="62" height="62" viewBox="0 0 62 62">
  <g id="Layer_14" data-name="Layer 14" transform="translate(-1 -1)">
    <path id="Union_6" data-name="Union 6" d="M-9623-11632v-44h24v44Z" transform="translate(9659 11678)" fill="#29abe2"/>
    <rect id="Rectangle_3286" data-name="Rectangle 3286" width="6" height="6" transform="translate(40 36)" fill="#fff"/>
    <path id="Union_5" data-name="Union 5" d="M-9623-11642v-34h24v34Z" transform="translate(9635 11700)" fill="#29abe2"/>
    <rect id="Rectangle_3288" data-name="Rectangle 3288" width="6" height="6" transform="translate(50 36)" fill="#fff"/>
    <rect id="Rectangle_3289" data-name="Rectangle 3289" width="6" height="6" transform="translate(50 26)" fill="#fff"/>
    <rect id="Rectangle_3290" data-name="Rectangle 3290" width="6" height="6" transform="translate(50 16)" fill="#fff"/>
    <rect id="Rectangle_3291" data-name="Rectangle 3291" width="6" height="6" transform="translate(50 6)" fill="#fff"/>
    <rect id="Rectangle_3292" data-name="Rectangle 3292" width="6" height="6" transform="translate(40 6)" fill="#fff"/>
    <rect id="Rectangle_3293" data-name="Rectangle 3293" width="6" height="6" transform="translate(40 16)" fill="#fff"/>
    <rect id="Rectangle_3294" data-name="Rectangle 3294" width="6" height="6" transform="translate(40 26)" fill="#fff"/>
    <rect id="Rectangle_3295" data-name="Rectangle 3295" width="6" height="6" transform="translate(26 40)" fill="#fff"/>
    <rect id="Rectangle_3296" data-name="Rectangle 3296" width="6" height="6" transform="translate(16 40)" fill="#fff"/>
    <rect id="Rectangle_3297" data-name="Rectangle 3297" width="6" height="6" transform="translate(16 30)" fill="#fff"/>
    <rect id="Rectangle_3298" data-name="Rectangle 3298" width="6" height="6" transform="translate(26 30)" fill="#fff"/>
    <path id="Path_9113" data-name="Path 9113" d="M44,58V54a4,4,0,0,1,4-4h0a4,4,0,0,1,4,4v4Z" fill="#29abe2"/>
    <path id="Path_9114" data-name="Path 9114" d="M20,58V54a4,4,0,0,1,4-4h0a4,4,0,0,1,4,4v4Z" fill="#fff"/>
    <rect id="Rectangle_3300" data-name="Rectangle 3300" width="60" height="4" transform="translate(2 58)" fill="#29abe2"/>
    <path id="Path_9115" data-name="Path 9115" d="M12.625,20c-.927,1.6,1.542,2.973,0,4H36V20Z" fill="#29abe2"/>
    <rect id="Rectangle_3301" data-name="Rectangle 3301" width="60" height="4" transform="translate(2 58)" fill="none" stroke="#273587" stroke-linejoin="round" stroke-width="2"/>
    <path id="Path_9117" data-name="Path 9117" d="M60,58V2H36V58" fill="none" stroke="#273587" stroke-linejoin="round" stroke-width="2"/>
    <rect id="Rectangle_3302" data-name="Rectangle 3302" width="6" height="6" transform="translate(40 6)" fill="none" stroke="#273587" stroke-linejoin="round" stroke-width="2"/>
    <rect id="Rectangle_3303" data-name="Rectangle 3303" width="6" height="6" transform="translate(50 6)" fill="none" stroke="#273587" stroke-linejoin="round" stroke-width="2"/>
    <rect id="Rectangle_3304" data-name="Rectangle 3304" width="6" height="6" transform="translate(40 16)" fill="none" stroke="#273587" stroke-linejoin="round" stroke-width="2"/>
    <rect id="Rectangle_3305" data-name="Rectangle 3305" width="6" height="6" transform="translate(50 16)" fill="none" stroke="#273587" stroke-linejoin="round" stroke-width="2"/>
    <rect id="Rectangle_3306" data-name="Rectangle 3306" width="6" height="6" transform="translate(40 26)" fill="none" stroke="#273587" stroke-linejoin="round" stroke-width="2"/>
    <rect id="Rectangle_3307" data-name="Rectangle 3307" width="6" height="6" transform="translate(50 26)" fill="none" stroke="#273587" stroke-linejoin="round" stroke-width="2"/>
    <rect id="Rectangle_3308" data-name="Rectangle 3308" width="6" height="6" transform="translate(16 30)" fill="none" stroke="#273587" stroke-linejoin="round" stroke-width="2"/>
    <rect id="Rectangle_3309" data-name="Rectangle 3309" width="6" height="6" transform="translate(26 30)" fill="none" stroke="#273587" stroke-linejoin="round" stroke-width="2"/>
    <rect id="Rectangle_3310" data-name="Rectangle 3310" width="6" height="6" transform="translate(16 40)" fill="none" stroke="#273587" stroke-linejoin="round" stroke-width="2"/>
    <rect id="Rectangle_3311" data-name="Rectangle 3311" width="6" height="6" transform="translate(26 40)" fill="none" stroke="#273587" stroke-linejoin="round" stroke-width="2"/>
    <rect id="Rectangle_3312" data-name="Rectangle 3312" width="6" height="6" transform="translate(40 36)" fill="none" stroke="#273587" stroke-linejoin="round" stroke-width="2"/>
    <rect id="Rectangle_3313" data-name="Rectangle 3313" width="6" height="6" transform="translate(50 36)" fill="none" stroke="#273587" stroke-linejoin="round" stroke-width="2"/>
    <line id="Line_109" data-name="Line 109" x2="24" transform="translate(36 46)" fill="none" stroke="#273587" stroke-linejoin="round" stroke-width="2"/>
    <path id="Path_9118" data-name="Path 9118" d="M44,58V54a4,4,0,0,1,4-4h0a4,4,0,0,1,4,4v4" fill="none" stroke="#273587" stroke-linejoin="round" stroke-width="2"/>
    <path id="Path_9119" data-name="Path 9119" d="M20,58V54a4,4,0,0,1,4-4h0a4,4,0,0,1,4,4v4" fill="none" stroke="#273587" stroke-linejoin="round" stroke-width="2"/>
    <line id="Line_110" data-name="Line 110" x1="0.5" y2="38.5" transform="translate(12 19.5)" fill="none" stroke="#273587" stroke-linejoin="round" stroke-width="2"/>
    <line id="Line_111" data-name="Line 111" x1="24" transform="translate(12 20)" fill="none" stroke="#273587" stroke-linejoin="round" stroke-width="2"/>
    <line id="Line_114" data-name="Line 114" x1="24.5" transform="translate(11.5 24)" fill="none" stroke="#273587" stroke-linejoin="round" stroke-width="2"/>
  </g>
</svg>
