<svg xmlns="http://www.w3.org/2000/svg" width="53.584" height="53.584" viewBox="0 0 53.584 53.584">
  <g id="Group_7096" data-name="Group 7096" transform="translate(-217 -7100.767)">
    <rect id="Rectangle_2937" data-name="Rectangle 2937" width="14" height="19" rx="2" transform="translate(237 7133)" fill="#29abe2"/>
    <path id="Path_7608" data-name="Path 7608" d="M5,0H44a5,5,0,0,1,5,5V9a5,5,0,0,1-5,5H5A5,5,0,0,1,0,9V5C0,2.239,5,0,5,0Z" transform="translate(219 7114)" fill="#29abe2"/>
    <path id="shop_1_" d="M52.579,18.754,47.556,12.06a4.969,4.969,0,0,0-.67-.708v-8A3.35,3.35,0,0,0,43.537,0H10.047A3.349,3.349,0,0,0,6.7,3.349v8a4.931,4.931,0,0,0-.67.7l-5.022,6.7A5.046,5.046,0,0,0,0,21.768v1.674a5.03,5.03,0,0,0,5.023,5.023h0V50.235a3.35,3.35,0,0,0,3.349,3.349H45.211a3.35,3.35,0,0,0,3.349-3.349V28.466h0a5.03,5.03,0,0,0,5.023-5.023V21.768A5.046,5.046,0,0,0,52.579,18.754ZM43.537,3.349v6.7H10.047v-6.7ZM17.068,25.117H10.054l6.7-11.721h3.665ZM22.16,13.4h3.794V25.117H18.811Zm5.469,0h3.794l3.349,11.721H27.629Zm5.534,0h3.665l6.7,11.721H36.512ZM3.349,23.443V21.768a1.67,1.67,0,0,1,.335-1l5.023-6.7a1.673,1.673,0,0,1,1.34-.67h4.776l-6.7,11.721h-3.1A1.674,1.674,0,0,1,3.349,23.443ZM33.49,50.235H20.931V33.49H33.49Zm11.721,0H35.164V33.49a1.675,1.675,0,0,0-1.674-1.674H20.931a1.674,1.674,0,0,0-1.674,1.674V50.235H8.372V28.466H45.211Zm5.023-26.792a1.673,1.673,0,0,1-1.674,1.674h-3.1L38.758,13.4h4.779a1.67,1.67,0,0,1,1.338.67l5.023,6.7a1.661,1.661,0,0,1,.337,1Z" transform="translate(217 7100.767)" fill="#273587"/>
  </g>
</svg>
