<svg xmlns="http://www.w3.org/2000/svg" width="49.283" height="54.081" viewBox="0 0 49.283 54.081">
  <g id="Layer_2" transform="translate(-62.354 -43.5)">
    <g id="Group_5310" data-name="Group 5310" transform="translate(62.353 43.5)">
      <path id="Path_7607" data-name="Path 7607" d="M15.1,52.464,11.327,20.984l1.45-1.306V14.746l-10.154.726v3.337l2.031,2.176L1.027,53.624Z" fill="#29abe2"/>
      <path id="Path_7606" data-name="Path 7606" d="M48.409,35.436V29.6H43.6v5.837l-1.2-.6L38.28,30.027H32.959v6.009l-3.948-6.009H23.86l-.516,6.009L18.194,29.6H12.529l1.116,8.669L41.2,39.984Z" fill="#29abe2"/>
      <path id="Path_7605" data-name="Path 7605" d="M0,0H36V19.319H2.531Z" transform="translate(12.993 34.221)" fill="#29abe2"/>
      <path id="Path_7564" data-name="Path 7564" d="M222.942,373.345a.89.89,0,0,0,.891-.891v-4.094a.89.89,0,0,0-.891-.891h-8.4a.89.89,0,0,0-.891.891v4.094a.89.89,0,0,0,.891.891Z" transform="translate(-194.398 -326.246)" fill="#fff"/>
      <path id="Path_7565" data-name="Path 7565" d="M325.142,373.345a.89.89,0,0,0,.891-.891v-4.094a.89.89,0,0,0-.891-.891h-8.4a.89.89,0,0,0-.891.891v4.094a.89.89,0,0,0,.891.891Z" transform="translate(-283.593 -326.246)" fill="#fff"/>
      <path id="Path_7566" data-name="Path 7566" d="M115.02,55.711a5.882,5.882,0,0,0,4.758.84,9.737,9.737,0,1,0,2.3-10.228,5.877,5.877,0,0,0-8.523,1.1,4.681,4.681,0,1,0,1.465,8.29Zm-5.649-3.788a2.9,2.9,0,0,1,4.164-2.609.89.89,0,0,0,1.176-.383,4.1,4.1,0,0,1,6.729-.747.89.89,0,0,0,.676.31h.009a.893.893,0,0,0,.678-.323,7.949,7.949,0,1,1-.613,9.281.207.207,0,0,0-.013-.023,7.887,7.887,0,0,1-.621-1.223l0-.008c-.023-.056-.043-.113-.065-.169s-.032-.085-.047-.127-.033-.094-.048-.141-.037-.112-.053-.168c-.013-.039-.024-.08-.037-.121-.02-.07-.039-.141-.059-.213a7.993,7.993,0,0,1-.008-4.031.891.891,0,1,0-1.725-.448,9.785,9.785,0,0,0-.181,4.046,4.085,4.085,0,0,1-3.529-.751c-.048-.038-.1-.078-.144-.118l-.065-.056a4.093,4.093,0,0,1-1.134-1.7.891.891,0,1,0-1.682.588,5.871,5.871,0,0,0,.909,1.663,2.877,2.877,0,0,1-1.416.369A2.907,2.907,0,0,1,109.371,51.923Z" transform="translate(-101.834 -43.5)" fill="#29abe2"/>
      <path id="Path_7568" data-name="Path 7568" d="M75.74,340.486a.868.868,0,0,0,.111.135.8.8,0,0,0,.135.111.9.9,0,0,0,.154.083,1,1,0,0,0,.167.051.9.9,0,0,0,.8-.244.868.868,0,0,0,.111-.135.891.891,0,0,0,.081-.154.841.841,0,0,0,.051-.167.891.891,0,0,0,.018-.174.911.911,0,0,0-.018-.174.855.855,0,0,0-.051-.165.846.846,0,0,0-.081-.154.878.878,0,0,0-.111-.136.891.891,0,0,0-1.26,0,.878.878,0,0,0-.111.136.846.846,0,0,0-.081.154.856.856,0,0,0-.051.165.911.911,0,0,0-.018.174.891.891,0,0,0,.018.174.841.841,0,0,0,.051.167A.891.891,0,0,0,75.74,340.486Z" transform="translate(-73.906 -301.486)" fill="#273587"/>
      <rect id="Rectangle_2936" data-name="Rectangle 2936" width="10" height="6" transform="translate(2.993 14.54)" fill="#fff"/>
      <path id="Path_7567" data-name="Path 7567" d="M63.629,184.012l-1.27,11.074a.891.891,0,0,0,.884.993h47.5a.89.89,0,0,0,.891-.891V171.832a.89.89,0,0,0-.891-.891H105.4a.89.89,0,0,0-.891.891v3.591l-2.957-4.111a.891.891,0,0,0-.723-.37H95.5a.89.89,0,0,0-.891.891v3.591l-2.957-4.111a.891.891,0,0,0-.723-.37H85.609a.89.89,0,0,0-.891.891v3.59l-2.956-4.11a.891.891,0,0,0-.723-.37h-6a.891.891,0,1,0,0,1.781h5.541l4.3,5.983a.89.89,0,0,0,1.614-.519v-5.464h3.975l4.3,5.984a.891.891,0,0,0,1.614-.52v-5.464h3.975l4.3,5.984a.891.891,0,0,0,1.614-.52v-5.464h3.568V194.3H78.174L75.586,171.73s0,0,0-.006l-1.042-9.079a.022.022,0,0,1,.006-.019.022.022,0,0,1,.018-.008,1.809,1.809,0,0,0,1.807-1.806v-3.562a.89.89,0,0,0-.891-.891H65.141a.89.89,0,0,0-.891.891v3.562a1.808,1.808,0,0,0,1.807,1.806.023.023,0,0,1,.019.008.022.022,0,0,1,.006.019l-2.453,21.366a.891.891,0,0,0,1.77.2l2.452-21.366a1.807,1.807,0,0,0-1.794-2.013.024.024,0,0,1-.024-.024v-2.671h8.56v2.671a.024.024,0,0,1-.025.024,1.807,1.807,0,0,0-1.794,2.013L76.382,194.3H64.243L65.4,184.213a.891.891,0,1,0-1.77-.2Z" transform="translate(-62.353 -141.999)" fill="#273587"/>
    </g>
  </g>
</svg>
