<svg id="_7172873_computer_technology_business_digital_monitor_icon" data-name="7172873_computer_technology_business_digital_monitor_icon" xmlns="http://www.w3.org/2000/svg" width="70.855" height="70.855" viewBox="0 0 70.855 70.855">
  <rect id="Rectangle_2934" data-name="Rectangle 2934" width="68.78" height="41.517" rx="20.758" transform="translate(1.038 15.846)" fill="#fff"/>
  <path id="Path_7591" data-name="Path 7591" d="M64.282,150.593H6.574A6.582,6.582,0,0,1,0,144.019V113.574A6.582,6.582,0,0,1,6.574,107H64.282a6.582,6.582,0,0,1,6.574,6.574v30.446A6.582,6.582,0,0,1,64.282,150.593ZM6.574,109.076a4.5,4.5,0,0,0-4.5,4.5v30.446a4.5,4.5,0,0,0,4.5,4.5H64.282a4.5,4.5,0,0,0,4.5-4.5V113.574a4.5,4.5,0,0,0-4.5-4.5Z" transform="translate(0 -92.192)" fill="#273587"/>
  <path id="Path_7592" data-name="Path 7592" d="M7.5,354.5H76.28v2.768a5.536,5.536,0,0,1-5.536,5.536H13.036A5.536,5.536,0,0,1,7.5,357.268Z" transform="translate(-6.462 -305.441)" fill="#29abe2"/>
  <path id="Path_7593" data-name="Path 7593" d="M64.282,357.379H6.574A6.582,6.582,0,0,1,0,350.806v-2.768A1.038,1.038,0,0,1,1.038,347h68.78a1.038,1.038,0,0,1,1.038,1.038v2.768A6.582,6.582,0,0,1,64.282,357.379Zm-62.206-8.3v1.73a4.5,4.5,0,0,0,4.5,4.5H64.282a4.5,4.5,0,0,0,4.5-4.5v-1.73Z" transform="translate(0 -298.979)" fill="#273587"/>
  <path id="Path_7594" data-name="Path 7594" d="M126.669,470.036h-42.9a2.768,2.768,0,1,1,0-5.536h42.9a2.768,2.768,0,1,1,0,5.536Z" transform="translate(-69.79 -400.218)" fill="#51c8ed"/>
  <path id="Path_7595" data-name="Path 7595" d="M120.206,464.611h-42.9a3.806,3.806,0,1,1,0-7.611h42.9a3.806,3.806,0,1,1,0,7.611Zm-42.9-5.536a1.73,1.73,0,1,0,0,3.46h42.9a1.73,1.73,0,0,0,0-3.46Z" transform="translate(-63.328 -393.756)" fill="#273587"/>
  <path id="Path_7596" data-name="Path 7596" d="M176.446,421.419H146l2.768-6.919h24.91Z" transform="translate(-125.795 -357.138)" fill="#fff"/>
  <path id="Path_7597" data-name="Path 7597" d="M169.946,416H139.5a1.037,1.037,0,0,1-.969-1.424l2.768-6.919a1.038,1.038,0,0,1,.969-.652h24.91a1.038,1.038,0,0,1,.969.652l2.768,6.919a1.037,1.037,0,0,1-.969,1.424Zm-28.912-2.076h27.379l-1.937-4.844h-23.5Z" transform="translate(-119.296 -350.675)" fill="#273587"/>
  <path id="Path_7598" data-name="Path 7598" d="M83.768,81H89.3a2.768,2.768,0,0,1,2.768,2.768v21.45H81V83.768A2.768,2.768,0,0,1,83.768,81Z" transform="translate(-69.79 -69.79)" fill="#51c8ed"/>
  <path id="Path_7599" data-name="Path 7599" d="M85.609,99.794H74.538A1.038,1.038,0,0,1,73.5,98.756V77.306A3.811,3.811,0,0,1,77.306,73.5h5.536a3.811,3.811,0,0,1,3.806,3.806v21.45A1.038,1.038,0,0,1,85.609,99.794ZM75.576,97.718h9V77.306a1.733,1.733,0,0,0-1.73-1.73H77.306a1.733,1.733,0,0,0-1.73,1.73Z" transform="translate(-63.328 -63.328)" fill="#273587"/>
  <path id="Path_7600" data-name="Path 7600" d="M218.768,36H224.3a2.768,2.768,0,0,1,2.768,2.768V66.446H216V38.768A2.768,2.768,0,0,1,218.768,36Z" transform="translate(-186.108 -31.018)" fill="#51c8ed"/>
  <path id="Path_7601" data-name="Path 7601" d="M220.609,61.022H209.538a1.038,1.038,0,0,1-1.038-1.038V32.306a3.811,3.811,0,0,1,3.806-3.806h5.536a3.811,3.811,0,0,1,3.806,3.806V59.984A1.038,1.038,0,0,1,220.609,61.022Zm-10.033-2.076h9V32.306a1.733,1.733,0,0,0-1.73-1.73h-5.536a1.733,1.733,0,0,0-1.73,1.73Z" transform="translate(-179.646 -24.556)" fill="#273587"/>
  <path id="Path_7602" data-name="Path 7602" d="M353.768,7.5H359.3a2.768,2.768,0,0,1,2.768,2.768V41.89H351V10.268A2.768,2.768,0,0,1,353.768,7.5Z" transform="translate(-302.425 -6.462)" fill="#51c8ed"/>
  <path id="Path_7603" data-name="Path 7603" d="M355.609,36.466H344.538a1.038,1.038,0,0,1-1.038-1.038V3.806A3.811,3.811,0,0,1,347.306,0h5.536a3.811,3.811,0,0,1,3.806,3.806V35.428A1.038,1.038,0,0,1,355.609,36.466ZM345.576,34.39h9V3.806a1.733,1.733,0,0,0-1.73-1.73h-5.536a1.733,1.733,0,0,0-1.73,1.73Z" transform="translate(-295.963)" fill="#273587"/>
  <rect id="Rectangle_2935" data-name="Rectangle 2935" width="56" height="6" rx="3" transform="translate(7.428 35.428)" fill="#29abe2"/>
  <path id="Path_7604" data-name="Path 7604" d="M103.51,256.111H50.922A2.425,2.425,0,0,1,48.5,253.69v-2.768a2.425,2.425,0,0,1,2.422-2.422H103.51a2.425,2.425,0,0,1,2.422,2.422v2.768a2.425,2.425,0,0,1-2.422,2.422Zm-52.588-5.536a.346.346,0,0,0-.346.346v2.768a.346.346,0,0,0,.346.346H103.51a.346.346,0,0,0,.346-.346v-2.768a.346.346,0,0,0-.346-.346Z" transform="translate(-41.788 -214.11)" fill="#273587"/>
</svg>
