<svg xmlns="http://www.w3.org/2000/svg" width="93.977" height="51.709" viewBox="0 0 93.977 51.709">
  <g id="virus-covid19-corona-bus-car" transform="translate(-2 -27.985)">
    <path id="Path_7579" data-name="Path 7579" d="M88.333,38.4A24.993,24.993,0,0,0,68.784,29H6.133A3.142,3.142,0,0,0,3,32.133V66.591a3.142,3.142,0,0,0,3.133,3.133H90.712a3.142,3.142,0,0,0,3.133-3.133V54.061A24.94,24.94,0,0,0,88.333,38.4Z" transform="translate(0.566 0.575)" fill="#29abe2"/>
    <path id="Path_7580" data-name="Path 7580" d="M3,35V50.663H93.845A24.94,24.94,0,0,0,88.333,35Z" transform="translate(0.566 3.972)" fill="#51c8ed"/>
    <path id="Path_7581" data-name="Path 7581" d="M50.133,35A3.133,3.133,0,0,0,47,38.133v9.4a3.133,3.133,0,0,0,3.133,3.133h18.8A24.94,24.94,0,0,0,63.416,35Z" transform="translate(25.483 3.972)" fill="#fff"/>
    <rect id="Rectangle_2932" data-name="Rectangle 2932" width="12.53" height="15.663" rx="2" transform="translate(31.759 38.972)" fill="#fff"/>
    <path id="Path_7582" data-name="Path 7582" d="M24.928,47.53v-9.4A3.133,3.133,0,0,0,21.8,35H3V50.663H21.8A3.133,3.133,0,0,0,24.928,47.53Z" transform="translate(0.566 3.972)" fill="#fff"/>
    <rect id="Rectangle_2933" data-name="Rectangle 2933" width="12.53" height="15.663" rx="2" transform="translate(50.555 38.972)" fill="#fff"/>
    <circle id="Ellipse_77" data-name="Ellipse 77" cx="7.831" cy="7.831" r="7.831" transform="translate(14.53 62.467)" fill="#fff"/>
    <circle id="Ellipse_78" data-name="Ellipse 78" cx="7.831" cy="7.831" r="7.831" transform="translate(67.784 62.467)" fill="#fff"/>
    <path id="Path_7588" data-name="Path 7588" d="M90.15,38.064a1.112,1.112,0,0,0-.157-.219A26.58,26.58,0,0,0,69.35,28.008h-18.8c-3.429-.031-7.428-.028-12.077-.008-12.467.054-27.112.254-31.779.008a4.713,4.713,0,0,0-4.7,4.7V67.166a4.713,4.713,0,0,0,4.7,4.7H13.1a9.387,9.387,0,0,0,18.513,0h34.74a9.387,9.387,0,0,0,18.513,0h6.406a4.713,4.713,0,0,0,4.7-4.7V54.635A26.458,26.458,0,0,0,90.15,38.064ZM88.1,40.539a23.4,23.4,0,0,1,4.668,12.53H75.615A1.566,1.566,0,0,1,74.049,51.5V42.1a1.566,1.566,0,0,1,1.566-1.566Zm-82.966,0H22.362A1.566,1.566,0,0,1,23.928,42.1v9.4a1.566,1.566,0,0,1-1.566,1.566H5.133ZM22.362,76.563A6.265,6.265,0,1,1,28.627,70.3,6.265,6.265,0,0,1,22.362,76.563Zm53.254,0A6.265,6.265,0,1,1,81.881,70.3,6.265,6.265,0,0,1,75.615,76.563Zm17.229-9.4a1.566,1.566,0,0,1-1.566,1.566H84.872a9.387,9.387,0,0,0-18.513,0H31.618a9.387,9.387,0,0,0-18.513,0H6.7a1.566,1.566,0,0,1-1.566-1.566V56.2H22.362a4.713,4.713,0,0,0,4.7-4.7V42.1a4.713,4.713,0,0,0-4.7-4.7H5.133v-4.7A1.566,1.566,0,0,1,6.7,31.141H69.35a23.388,23.388,0,0,1,15.913,6.265H75.615a4.713,4.713,0,0,0-4.7,4.7v9.4a4.713,4.713,0,0,0,4.7,4.7H92.845Z" fill="#273587"/>
    <path id="Path_7589" data-name="Path 7589" d="M30.964,34H24.7A4.7,4.7,0,0,0,20,38.7v9.4a4.7,4.7,0,0,0,4.7,4.7h6.265a4.7,4.7,0,0,0,4.7-4.7V38.7A4.7,4.7,0,0,0,30.964,34ZM32.53,48.1a1.566,1.566,0,0,1-1.566,1.566H24.7A1.566,1.566,0,0,1,23.133,48.1V38.7A1.566,1.566,0,0,1,24.7,37.133h6.265A1.566,1.566,0,0,1,32.53,38.7Z" transform="translate(10.193 3.406)" fill="#273587"/>
    <path id="Path_7590" data-name="Path 7590" d="M42.964,34H36.7A4.7,4.7,0,0,0,32,38.7v9.4a4.7,4.7,0,0,0,4.7,4.7h6.265a4.7,4.7,0,0,0,4.7-4.7V38.7A4.7,4.7,0,0,0,42.964,34ZM44.53,48.1a1.566,1.566,0,0,1-1.566,1.566H36.7A1.566,1.566,0,0,1,35.133,48.1V38.7A1.566,1.566,0,0,1,36.7,37.133h6.265A1.566,1.566,0,0,1,44.53,38.7Z" transform="translate(16.989 3.406)" fill="#273587"/>
  </g>
</svg>
