<svg xmlns="http://www.w3.org/2000/svg" width="84.474" height="77.701" viewBox="0 0 84.474 77.701">
  <g id="_5027878_announcement_loudspeaker_marketing_megaphone_speaker_icon" data-name="5027878_announcement_loudspeaker_marketing_megaphone_speaker_icon" transform="matrix(0.966, -0.259, 0.259, 0.966, -0.143, 18.414)">
    <g id="Group_5312" data-name="Group 5312" transform="translate(0.148 0)">
      <path id="Path_7570" data-name="Path 7570" d="M24.662,43.424,19.954,27.49H9.01l5.583,18.9a5.239,5.239,0,0,0,5.034,3.757h0A5.245,5.245,0,0,0,24.662,43.424Z" transform="translate(2.677 10.154)" fill="#29abe2"/>
      <path id="Path_7571" data-name="Path 7571" d="M11.171,14.99a9.281,9.281,0,1,0,0,18.562H28V14.99Z" transform="translate(-0.776 4.092)" fill="#fff"/>
      <path id="Path_7572" data-name="Path 7572" d="M45.63,57.388,19.48,39.42V20.858L45.63,2.89Z" transform="translate(7.754 -1.776)" fill="#29abe2"/>
      <path id="Path_7573" data-name="Path 7573" d="M41.922,14.68a5.113,5.113,0,0,0-.832.045V34.089a5.023,5.023,0,0,0,.832.045,9.727,9.727,0,1,0,0-19.453Z" transform="translate(18.235 3.942)" fill="#51c8ed"/>
      <rect id="Rectangle_2931" data-name="Rectangle 2931" width="5.94" height="54.498" transform="translate(53.385 1.114)" fill="#fff"/>
      <g id="Group_5311" data-name="Group 5311">
        <path id="Path_7574" data-name="Path 7574" d="M29.016,10.153a1.145,1.145,0,0,0,.624-.193,1.122,1.122,0,0,0,.475-.713,1.124,1.124,0,0,0-1.737-1.129,1.2,1.2,0,0,0-.46.713,1.124,1.124,0,0,0,1.1,1.322Z" transform="translate(11.836 0.673)" fill="#273587"/>
        <path id="Path_7575" data-name="Path 7575" d="M72.136,30.5a10.865,10.865,0,0,0-10.558-10.84V3.254A1.122,1.122,0,0,0,60.465,2.14h-5.94a.055.055,0,0,0-.045.015c-.03,0-.059.015-.1.015a1.145,1.145,0,0,0-.431.148c-.015.015-.045.015-.074.03L43.788,9.268a1.115,1.115,0,0,0-.282,1.544,1.149,1.149,0,0,0,1.544.3L53.4,5.377V55.643L29.473,39.19V21.8L40.165,14.45a1.118,1.118,0,0,0,.3-1.544,1.133,1.133,0,0,0-1.544-.282L28.033,20.093h-16.5a10.395,10.395,0,1,0,0,20.79h.445L17.326,59a6.384,6.384,0,0,0,6.1,4.559,6.369,6.369,0,0,0,6.1-8.167L25.256,40.883h2.762L53.886,58.658a.876.876,0,0,0,.119.059c.045.015.074.045.119.059a1.577,1.577,0,0,0,.282.059c.03,0,.059.015.1.015h5.94a1.122,1.122,0,0,0,1.114-1.114V41.328A10.844,10.844,0,0,0,72.136,30.5Zm-68.754,0a8.182,8.182,0,0,1,8.167-8.167H27.261V38.67H11.535A8.169,8.169,0,0,1,3.382,30.5ZM27.409,56.03a4.133,4.133,0,1,1-7.93,2.331L14.312,40.883h8.628Zm31.942.609H55.638V4.367h3.712V56.638Zm2.227-17.523V21.875a8.625,8.625,0,0,1,0,17.241Z" transform="translate(-1.14 -2.14)" fill="#273587"/>
      </g>
    </g>
  </g>
</svg>
