<svg xmlns="http://www.w3.org/2000/svg" xmlns:xlink="http://www.w3.org/1999/xlink" width="350" height="300" viewBox="0 0 350 300">
  <defs>
    <clipPath id="clip-path">
      <rect id="Rectangle_4697" data-name="Rectangle 4697" width="350" height="300" transform="translate(206 285)" fill="#fff" stroke="#707070" stroke-width="1"/>
    </clipPath>
  </defs>
  <g id="Hero-التصميم_الجرافيكي" data-name="Hero-التصميم الجرافيكي" transform="translate(-206 -285)" clip-path="url(#clip-path)">
    <g id="Designer_life-cuate" data-name="Designer life-cuate" transform="translate(203.443 232.78)">
      <g id="freepik--Shadows--inject-30">
        <ellipse id="Ellipse_319" data-name="Ellipse 319" cx="33.099" cy="6.354" rx="33.099" ry="6.354" transform="translate(31.245 334.609)" fill="#a0bdff"/>
        <ellipse id="Ellipse_320" data-name="Ellipse 320" cx="119.936" cy="11.758" rx="119.936" ry="11.758" transform="translate(66.938 328.704)" fill="#a0bdff"/>
      </g>
      <g id="freepik--Character--inject-30">
        <path id="Path_18738" data-name="Path 18738" d="M177.65,242.51l1.936,11.594,13.089,70.721h2.115L185.267,254.1l-1.405-11.594Z" fill="#c7c7c7"/>
        <path id="Path_18739" data-name="Path 18739" d="M183.862,242.51H177.65l1.936,11.594h5.681Z" fill="#a6a6a6"/>
        <path id="Path_18740" data-name="Path 18740" d="M136.523,324.824h2.115l13.1-70.721,1.929-11.594h-6.2L146.046,254.1Z" fill="#c7c7c7"/>
        <path id="Path_18741" data-name="Path 18741" d="M147.459,242.51,146.046,254.1h5.688l1.929-11.594Z" fill="#a6a6a6"/>
        <path id="Path_18742" data-name="Path 18742" d="M97.249,324.824h2.108l13.1-70.721,1.936-11.594h-6.212L106.772,254.1Z" fill="#c7c7c7"/>
        <path id="Path_18743" data-name="Path 18743" d="M106.772,254.1h5.681l1.936-11.594h-6.212Z" fill="#a6a6a6"/>
        <path id="Path_18744" data-name="Path 18744" d="M100.6,247.959h95.956V237.846H160.629l-12.072-85.192h-44.3Z" fill="#c7c7c7"/>
        <path id="Path_18745" data-name="Path 18745" d="M106.189,237.846h90.365v10.114H105.823Z" fill="#dbdbdb"/>
        <path id="Path_18746" data-name="Path 18746" d="M100.6,247.959h5.225l3.409-95.306h-4.978Z" fill="#dbdbdb"/>
        <path id="Path_18747" data-name="Path 18747" d="M191.621,338.294c-1.861.179-52.669-11.923-54.268-13.567-.2-.187.8-4.806,2.242-11.1V313.5c.919-3.992,15.7-36.283,15.7-36.283l32.927,9.187-14.95,29.96s6.2,4.485,11.511,8.723h0a76.552,76.552,0,0,1,6.727,5.711C193.123,332.793,193.489,338.13,191.621,338.294Z" fill="#eb9481"/>
        <path id="Path_18748" data-name="Path 18748" d="M191.621,338.294c-1.861.179-52.669-11.923-54.276-13.567-.194-.187.807-4.8,2.242-11.1v-.12c.336-1.495,2.616-6.914,5.33-13.134,5.419,1.495,24.847,6.727,31.9,8.888l-3.543,7.1s6.2,4.485,11.511,8.723h0a76.56,76.56,0,0,1,6.727,5.711C193.123,332.8,193.489,338.137,191.621,338.294Z" fill="#ebebeb"/>
        <path id="Path_18749" data-name="Path 18749" d="M191.792,338.533c-1.921.172-52.766-12.072-54.41-13.761-.628-.643.5-8.663,3.282-17.192l32.755,7.961s16.736,13.246,18.344,15.294S193.706,338.369,191.792,338.533Z" fill="#407bff"/>
        <path id="Path_18750" data-name="Path 18750" d="M191.553,336.328c-8.477-2.242-42.861-10.585-51.405-12.177-.075,0-.082.037,0,.06,8.35,2.422,42.8,10.465,51.383,12.259C191.7,336.508,191.733,336.373,191.553,336.328Z" fill="#263238"/>
        <path id="Path_18751" data-name="Path 18751" d="M188.945,328.218a7.027,7.027,0,0,0-5.6.86,6.817,6.817,0,0,0-2.99,4.089.053.053,0,0,0,.1,0,8.148,8.148,0,0,1,8.477-4.859.06.06,0,0,0,.007-.09Z" fill="#263238"/>
        <path id="Path_18752" data-name="Path 18752" d="M175.9,317.035c-3.4-.867-7.647-.613-10.465,1.667-.1.09,0,.239.135.209a48.945,48.945,0,0,1,10.263-1.443.219.219,0,0,0,.067-.434Z" fill="#263238"/>
        <path id="Path_18753" data-name="Path 18753" d="M178.285,318.695c-3.394-.867-7.639-.613-10.465,1.667-.1.09,0,.239.135.209a48.947,48.947,0,0,1,10.263-1.443.219.219,0,1,0,.067-.434Z" fill="#263238"/>
        <path id="Path_18754" data-name="Path 18754" d="M180.677,320.362c-3.4-.875-7.647-.62-10.465,1.659-.1.09,0,.239.135.217A47.983,47.983,0,0,1,180.61,320.8a.224.224,0,0,0,.067-.434Z" fill="#263238"/>
        <path id="Path_18755" data-name="Path 18755" d="M183.062,322.021c-3.4-.867-7.647-.62-10.465,1.659-.112.09,0,.239.127.217a48.05,48.05,0,0,1,10.263-1.443.224.224,0,0,0,.075-.434Z" fill="#263238"/>
        <path id="Path_18756" data-name="Path 18756" d="M144.267,316.579c-3.835-.9-5.232,5.046-1.42,5.98S148.1,317.491,144.267,316.579Z" fill="#263238"/>
        <path id="Path_18757" data-name="Path 18757" d="M181.784,308.82c-1.383-1.846-3.894-.972-5.322.262a18.388,18.388,0,0,0-5.2,7.976.09.09,0,0,0,.082.12.426.426,0,0,0,.546.426c2.833-1.1,5.98-1.914,8.409-3.85C181.716,312.625,183.084,310.57,181.784,308.82Zm-5.935,6.242c-1.383.576-2.781,1.076-4.141,1.7,1.024-1.547,1.966-3.139,3.139-4.59a20.759,20.759,0,0,1,1.8-2c1.017-.942,5.046-2.99,4.485.8C180.834,313.059,177.493,314.382,175.848,315.062Z" fill="#263238"/>
        <path id="Path_18758" data-name="Path 18758" d="M162.483,316.28c2.863,1.174,6.129,1.061,9.157,1.316a.426.426,0,0,0,.4-.561c.052,0,.09-.082.045-.142a18.359,18.359,0,0,0-7.243-6.182c-1.712-.748-4.365-.912-5.173,1.256C158.91,314.008,160.816,315.6,162.483,316.28Zm-1.592-2.437c-1.6-3.483,2.848-2.661,4.081-2.033a19.433,19.433,0,0,1,2.295,1.405c1.54,1.061,2.893,2.317,4.313,3.521-1.495-.217-2.99-.3-4.485-.456-1.742-.194-5.322-.516-6.2-2.437Z" fill="#263238"/>
        <path id="Path_18759" data-name="Path 18759" d="M176.245,312.453l-34.968-9.359s30.73-63.732,28.248-67.275c-1.241-1.749-34.011-3.229-44.177-12.386-13.2-11.893-3.6-29.152-3.6-29.152h36.627s-.665,7.647.747,8.843c.919.792,44.439,5.763,48.8,20.631C213.261,241.987,176.245,312.453,176.245,312.453Z" fill="#37474f"/>
        <path id="Path_18760" data-name="Path 18760" d="M176.858,307.326a22.427,22.427,0,0,0-2.87-1.084c-1.017-.351-2.026-.7-3.05-1.039-2.011-.658-4.029-1.286-6.055-1.869-4.1-1.181-8.222-2.34-12.311-3.409-2.145-.561-6.727-1.772-7.034-1.734-.142,0-.172.254-.045.3,3.977,1.443,8.021,2.691,12.057,3.947s8.08,2.489,12.169,3.543c1.136.292,2.242.553,3.416.83a26.04,26.04,0,0,0,3.618.8C176.872,307.617,176.985,307.393,176.858,307.326Z" fill="#263238"/>
        <path id="Path_18761" data-name="Path 18761" d="M175.878,233.009a5.82,5.82,0,0,0-2.736-.942l-15.78-3.132c-4.919-.979-9.867-1.869-14.763-2.99-4.051-.912-8.17-2.093-11.631-4.41a17.125,17.125,0,0,1-6.884-9.62,30.453,30.453,0,0,1-.568-12.109c.12-.979.329-1.958.546-2.923,0-.075-.1-.1-.12,0-1.562,7.475-1.943,16.183,3.506,22.335,2.654,2.99,6.369,4.821,10.181,6.047a118.963,118.963,0,0,0,13.238,2.99l15.78,3.117c2.534.5,5.105.9,7.61,1.495a2.631,2.631,0,0,1,1.36.65,1.973,1.973,0,0,1,.172,1.839c-.292,1.241-.665,2.467-1.061,3.678-3.177,9.77-25.475,56.062-26.08,57.124-.06.112.112.2.179.1,5.105-8.507,21.722-44.244,25.206-53.468a59.67,59.67,0,0,0,2.295-7.2A2.59,2.59,0,0,0,175.878,233.009Z" fill="#263238"/>
        <path id="Path_18762" data-name="Path 18762" d="M187.3,290.028,164.128,252.8c3.737-8.97,6.137-15.839,5.367-16.923-.605-.852-8.649-1.645-17.94-3.282l-23.733-38.309h30.61s-.665,7.647.747,8.843c.919.8,44.439,5.763,48.8,20.631C211.3,235.3,197.728,267.731,187.3,290.028Z" fill="#263238"/>
        <path id="Path_18763" data-name="Path 18763" d="M243.938,342.069c-1.794.546-53.992-1.2-55.89-2.489-.232-.142-.172-4.866,0-11.332v-.1c.1-4.089-.112-39.116-.112-39.116l32.681.7,1.017,34.512s6.959,3.147,13.014,6.257h0a71.082,71.082,0,0,1,7.714,4.261C244.312,336.373,245.732,341.538,243.938,342.069Z" fill="#eb9481"/>
        <path id="Path_18764" data-name="Path 18764" d="M243.938,342.069c-1.794.546-53.992-1.2-55.89-2.5-.232-.135-.172-4.859,0-11.317V313.761l33.293.747.284,9.717s6.959,3.154,13.014,6.257h0a71.662,71.662,0,0,1,7.714,4.261C244.3,336.373,245.732,341.538,243.938,342.069Z" fill="#ebebeb"/>
        <path id="Path_18765" data-name="Path 18765" d="M244.147,342.278c-1.846.546-54.111-1.331-56.062-2.661-.747-.5-1.241-8.589-.2-17.469l33.69,1.248s19.039,9.65,21.02,11.34S245.993,341.733,244.147,342.278Z" fill="#407bff"/>
        <path id="Path_18766" data-name="Path 18766" d="M243.474,340.156c-8.753-.523-44.1-1.831-52.8-1.689-.067,0-.067.045,0,.052,8.663.747,44.028,1.734,52.8,1.787C243.684,340.305,243.684,340.17,243.474,340.156Z" fill="#263238"/>
        <path id="Path_18767" data-name="Path 18767" d="M239.3,332.733a7.049,7.049,0,0,0-5.315,1.951,6.825,6.825,0,0,0-2.13,4.6c0,.052.1.06.112,0a8.133,8.133,0,0,1,7.333-6.451.06.06,0,0,0,0-.1Z" fill="#263238"/>
        <path id="Path_18768" data-name="Path 18768" d="M224.294,324.368c-3.5-.172-7.61.919-9.9,3.737-.082.112.067.232.179.187a48.3,48.3,0,0,1,9.762-3.461.233.233,0,1,0-.045-.463Z" fill="#263238"/>
        <path id="Path_18769" data-name="Path 18769" d="M226.962,325.52c-3.5-.172-7.61.919-9.889,3.737-.09.112.06.232.172.187a48.452,48.452,0,0,1,9.762-3.461.233.233,0,0,0-.045-.463Z" fill="#263238"/>
        <path id="Path_18770" data-name="Path 18770" d="M229.638,326.656c-3.506-.172-7.617.919-9.9,3.737-.09.112.067.239.172.187a48.042,48.042,0,0,1,9.77-3.453.237.237,0,0,0-.045-.471Z" fill="#263238"/>
        <path id="Path_18771" data-name="Path 18771" d="M232.307,327.829c-3.506-.179-7.617.912-9.9,3.737-.09.1.067.232.172.179a48.5,48.5,0,0,1,9.77-3.453.233.233,0,1,0-.045-.463Z" fill="#263238"/>
        <path id="Path_18772" data-name="Path 18772" d="M193.205,330.221c-3.939-.127-4.149,5.98-.2,6.115S197.145,330.393,193.205,330.221Z" fill="#263238"/>
        <path id="Path_18773" data-name="Path 18773" d="M228.42,315.152c-1.719-1.54-4.007-.179-5.158,1.308a18.374,18.374,0,0,0-3.5,8.85.09.09,0,0,0,.1.1.426.426,0,0,0,.62.306c2.556-1.637,5.494-3.072,7.475-5.442C229.115,318.889,230.049,316.6,228.42,315.152Zm-4.567,7.3c-1.241.837-2.512,1.607-3.737,2.489a55.149,55.149,0,0,1,2.168-5.128,20,20,0,0,1,1.36-2.317c.807-1.129,4.35-3.939,4.567-.112C228.338,319.487,225.325,321.423,223.853,322.447Z" fill="#263238"/>
        <path id="Path_18774" data-name="Path 18774" d="M211,326.3c3.035.576,6.219-.179,9.232-.538a.426.426,0,0,0,.284-.605.09.09,0,0,0,0-.149,18.47,18.47,0,0,0-8.335-4.62c-1.831-.419-4.485,0-4.814,2.242C207.056,324.787,209.224,325.961,211,326.3Zm-2.048-2.078c-2.242-3.087,2.242-3.169,3.6-2.8a20.414,20.414,0,0,1,2.527.919A55.068,55.068,0,0,1,220,324.936c-1.495.082-2.99.3-4.448.434C213.784,325.542,210.2,325.908,208.948,324.226Z" fill="#263238"/>
        <path id="Path_18775" data-name="Path 18775" d="M223.606,319.33l-36.852-1.084s2.34-62.79-.441-66.587c-3.737-5.038-57.557-6.526-68.665-22.926-9.949-14.733-.583-34.886-.583-34.886H157.9a84.066,84.066,0,0,1-4.164,12.707s48.879,10.532,62.207,26.02C224.929,243.056,223.606,319.33,223.606,319.33Z" fill="#37474f"/>
        <path id="Path_18776" data-name="Path 18776" d="M161,204.007a19.77,19.77,0,0,0-3.491,1c-1.181.411-2.355.89-3.491,1.405a66.3,66.3,0,0,0-6.57,3.461c-.06.037,0,.127.067.1,2.242-1.084,4.552-2.048,6.862-2.99l3.341-1.323a35.779,35.779,0,0,0,3.371-1.375C161.227,204.238,161.16,203.977,161,204.007Z" fill="#263238"/>
        <path id="Path_18777" data-name="Path 18777" d="M158.85,193.863c-.523,1.846-.987,3.737-1.577,5.539-.269.837-.531,1.7-.875,2.5-.292.688-.747,1.495-1.495,1.6-.934.15-1.174-.65-1.076-1.413s.351-1.7.546-2.527c.224-.964.449-1.921.658-2.893.1-.478.2-.964.3-1.443a11.359,11.359,0,0,1,.217-1.316s0,.045.052.037h0s.06,0,.06-.045a.188.188,0,0,0-.045-.142.067.067,0,0,0-.082,0c-.179.09-.2.329-.262.508-.164.463-.329.934-.486,1.405-.284.882-.561,1.764-.807,2.654s-.5,1.787-.747,2.676a4.238,4.238,0,0,0-.247,2.063,1.577,1.577,0,0,0,1.428,1.233c0,.06-.075.12-.1.179-.082.179-.15.374-.224.561s-.149.381-.209.576a2.146,2.146,0,0,0-.06.284v.321a.157.157,0,0,0,.284.112c.052-.09.127-.164.187-.254a1.434,1.434,0,0,0,.142-.306c.067-.187.127-.366.179-.561s.12-.374.157-.561,0-.232.045-.344a2.056,2.056,0,0,0,1.084-.374,3.648,3.648,0,0,0,1.166-1.667,18.338,18.338,0,0,0,.747-2.355,34.824,34.824,0,0,0,1.368-5.98.172.172,0,0,0-.321-.075Z" fill="#263238"/>
        <path id="Path_18778" data-name="Path 18778" d="M134.452,197.7c-.194.919-.329,1.846-.576,2.758s-.5,1.779-.822,2.646a9.419,9.419,0,0,1-1.211,2.362,8.828,8.828,0,0,1-1.861,1.794,15.256,15.256,0,0,1-4.448,2.3,21.389,21.389,0,0,1-2.444.643c-.434.082-.875.142-1.308.187a2.788,2.788,0,0,0-1.054.209.217.217,0,0,0,0,.366,3.737,3.737,0,0,0,1.936.12,14.079,14.079,0,0,0,2.078-.307,15.047,15.047,0,0,0,3.954-1.495,12.347,12.347,0,0,0,3.341-2.579,9.277,9.277,0,0,0,1.861-3.775,19.01,19.01,0,0,0,.747-5.18.1.1,0,0,0-.194-.052Z" fill="#263238"/>
        <path id="Path_18779" data-name="Path 18779" d="M193.317,275.968q-.277-8.7-.927-17.394c-.1-1.428-.2-2.855-.336-4.283a13.491,13.491,0,0,0-.62-3.267,6.42,6.42,0,0,0-4.724-3.962c-2.564-.747-5.232-1.2-7.826-1.7s-5.345-.979-8.021-1.435c-5.427-.919-10.869-1.787-16.266-2.855a131.46,131.46,0,0,1-15.914-4.111c-4.777-1.6-9.665-3.543-13.455-7-8.088-7.475-8.036-19.517-6.727-29.578.187-1.42.4-2.84.62-4.253,0-.075-.1-.1-.112,0-.83,5.666-1.764,11.362-1.368,17.1a27.957,27.957,0,0,0,4.2,13.4c2.691,4.119,6.772,6.847,11.212,8.8a90.554,90.554,0,0,0,15.152,4.859c10.7,2.571,21.677,3.857,32.441,6.032q2,.4,3.984.852a16.593,16.593,0,0,1,3.581,1.069c2.422,1.174,2.99,3.6,3.259,6.077.538,5.771.845,11.571,1.091,17.357.493,11.668.591,23.382.224,35.058-.045,1.443-.1,2.878-.157,4.321,0,.127.194.12.2,0C193.512,299.357,193.706,287.666,193.317,275.968Z" fill="#263238"/>
        <path id="Path_18780" data-name="Path 18780" d="M222.006,314.853a22.163,22.163,0,0,0-3.05-.351c-1.069-.09-2.145-.187-3.214-.262-2.108-.142-4.223-.262-6.331-.329-4.253-.142-8.514-.262-12.767-.292-2.242,0-6.982-.067-7.251.045-.127.052-.1.284,0,.3,4.216.426,8.439.643,12.663.867s8.439.441,12.67.463h3.506a25.582,25.582,0,0,0,3.738-.112C222.1,315.129,222.156,314.883,222.006,314.853Z" fill="#263238"/>
        <path id="Path_18781" data-name="Path 18781" d="M156.974,159.426c3.685,15.757,4.657,27.164,9.127,30.109,3.61,2.37,8.678,4.036,13.888,5.2a129.239,129.239,0,0,0,16.893,2.414c1.749.15,3.207.239,4.238.314,2.556.164,6.727-16.714,4.926-18.77-.419-.471-2.1-.837-4.485-1.136-7.953-1-23.613-1.233-24.548-2.123s-7.475-11.661-13.208-21.722C158.394,144.072,154.657,149.41,156.974,159.426Z" fill="#eb9481"/>
        <path id="Path_18782" data-name="Path 18782" d="M196.023,195.754a61.207,61.207,0,0,0,7.6,2.8c2.063.516,8.051,1.846,8.85-.374.546-1.495-2.885-2.713-5.292-3.61-1.271-.478-2.855-1.727-2.519-2.541.591-1.428,3.857-.135,6.017,1.017,4.179,2.242,9.777,6.294,12.2,4.134.919-.822-.232-2.242-1.891-3.551,2.669,1.54,5.487,2.773,6.541,1.906a1.375,1.375,0,0,0,.239-1.876,1.816,1.816,0,0,0,2-.389c.815-.912.351-2.205-.628-3.513a1,1,0,0,0,.747-.531c1.689-2.8-7.565-10.308-10.689-10.928a68.97,68.97,0,0,0-18.874-.68C196.853,180.617,196.016,195.747,196.023,195.754Z" fill="#eb9481"/>
        <path id="Path_18783" data-name="Path 18783" d="M209.119,186.754a14.95,14.95,0,0,1,6.174,2.123c2.183,1.383,3.947,3.311,5.98,4.9a.053.053,0,1,1-.067.082c-.957-.822-2-1.547-2.99-2.332s-1.921-1.562-2.938-2.242a14.741,14.741,0,0,0-6.159-2.474S209.1,186.754,209.119,186.754Z" fill="#263238"/>
        <path id="Path_18784" data-name="Path 18784" d="M210.674,182.823a37.3,37.3,0,0,1,7.169,2.19A24.137,24.137,0,0,1,224.249,190q1.764,1.689,3.431,3.453c.045.052,0,.135-.067.09q-2.99-2.915-6.1-5.644a19.434,19.434,0,0,0-6.608-3.827c-1.39-.478-2.811-.837-4.238-1.2C210.644,182.86,210.652,182.815,210.674,182.823Z" fill="#263238"/>
        <path id="Path_18785" data-name="Path 18785" d="M213.111,179.347a19.3,19.3,0,0,1,6.5,1.9,33,33,0,0,1,6.488,5.188c1.069,1.054,2.093,2.138,3.1,3.244.037.045-.037.12-.082.075a76.992,76.992,0,0,0-7.363-6.772,15.309,15.309,0,0,0-4.066-2.437,27.658,27.658,0,0,0-4.582-1.144S213.1,179.347,213.111,179.347Z" fill="#263238"/>
        <path id="Path_18786" data-name="Path 18786" d="M192.764,197.795l7.385-20.84s-21.334-.9-22.709-1.787-8.424-13.836-13.739-22.537c-4.2-6.832-9.4-6.339-7.026,7.423,2.512,14.5,4.6,25.923,8.222,29.25C171.02,194.932,192.764,197.795,192.764,197.795Z" fill="#407bff"/>
        <g id="Group_7246" data-name="Group 7246" opacity="0.1">
          <path id="Path_18787" data-name="Path 18787" d="M159.964,148.677l-2.242-.045a2.2,2.2,0,0,1,2.243.045Z"/>
          <path id="Path_18788" data-name="Path 18788" d="M164.322,153.693l-8.26-.149a12.781,12.781,0,0,1,.247-2.347l6.473.112a15.845,15.845,0,0,1,.9,1.331Z"/>
          <path id="Path_18789" data-name="Path 18789" d="M167.29,158.686l-10.884-.217c-.12-.845-.2-1.63-.262-2.362l9.717.179Z"/>
          <path id="Path_18790" data-name="Path 18790" d="M170.2,163.7l-12.962-.239c-.135-.747-.277-1.562-.419-2.362l11.96.217Z"/>
          <path id="Path_18791" data-name="Path 18791" d="M173.128,168.665l-14.995-.277c-.142-.747-.284-1.562-.434-2.362l14.031.262C172.216,167.118,172.672,167.91,173.128,168.665Z"/>
          <path id="Path_18792" data-name="Path 18792" d="M176.215,173.658l-17.118-.314c-.157-.747-.314-1.555-.471-2.362l16.071.292C175.273,172.216,175.789,173.023,176.215,173.658Z"/>
          <path id="Path_18793" data-name="Path 18793" d="M200.15,176.955l-.747,2.063L160.2,178.27c-.187-.747-.374-1.547-.561-2.362l31.709.576h0C196.068,176.783,200.15,176.955,200.15,176.955Z"/>
          <path id="Path_18794" data-name="Path 18794" d="M198.505,181.589l-.822,2.332-36.059-.658c-.247-.747-.493-1.495-.747-2.362Z"/>
          <path id="Path_18795" data-name="Path 18795" d="M196.771,186.493l-.83,2.34-31.978-.583a13.978,13.978,0,0,1-1.323-2.385Z"/>
          <path id="Path_18796" data-name="Path 18796" d="M195.029,191.4l-.822,2.34-21.438-.4a33.033,33.033,0,0,1-5.666-2.459Z"/>
          <path id="Path_18797" data-name="Path 18797" d="M193.295,196.3l-.531,1.495s-4.276-.568-9.575-1.682Z"/>
        </g>
        <path id="Path_18798" data-name="Path 18798" d="M192.361,186.926c.591-1.637,1.159-3.274,1.712-4.926s1-3.446,1.622-5.128c0-.075-.09-.1-.112,0-.6,1.682-1.375,3.3-2.011,4.971s-1.226,3.237-1.816,4.874c-1.181,3.289-2.385,6.593-3.334,9.957,0,.1.127.164.172.067C190,193.519,191.18,190.208,192.361,186.926Z" fill="#263238"/>
        <path id="Path_18799" data-name="Path 18799" d="M175.774,194.282c-4.485-1.293-8.686-2.99-10.884-4.971-3.633-3.334-5.726-14.748-8.222-29.257-1.936-11.011,1.054-13.545,4.448-10.555Z" fill="#263238"/>
        <path id="Path_18800" data-name="Path 18800" d="M162.311,203.11c-1.263.942-49.761-.419-49.955-.747-.523-.957,14.367-44.723,35.573-57.669,3.737-2.242,9.217-.389,11.549,1.592,1.166.987,4.388,8.3,4.634,14.2S163.1,202.512,162.311,203.11Z" fill="#407bff"/>
        <g id="Group_7247" data-name="Group 7247" opacity="0.1">
          <path id="Path_18801" data-name="Path 18801" d="M160.966,148.7l-18.037-.329c.949-.83,1.921-1.6,2.9-2.3l13.7.247A9.47,9.47,0,0,1,160.966,148.7Z"/>
          <path id="Path_18802" data-name="Path 18802" d="M162.857,153.67l-24.817-.456q1.069-1.2,2.183-2.31l21.834.4C162.341,152.048,162.61,152.848,162.857,153.67Z"/>
          <path id="Path_18803" data-name="Path 18803" d="M163.956,158.626l-29.9-.546c.6-.792,1.211-1.57,1.824-2.325l27.657.508C163.7,157.049,163.851,157.841,163.956,158.626Z"/>
          <path id="Path_18804" data-name="Path 18804" d="M164.143,163.56l-33.54-.605c.516-.785,1.046-1.562,1.585-2.325l31.955.576C164.15,161.833,164.15,162.625,164.143,163.56Z"/>
          <path id="Path_18805" data-name="Path 18805" d="M164.113,166.146c0,.747,0,1.495-.037,2.355l-36.545-.665c.463-.785.934-1.562,1.42-2.332Z"/>
          <path id="Path_18806" data-name="Path 18806" d="M164.016,171.079q0,1.144-.067,2.355l-39.206-.747c.426-.747.852-1.555,1.3-2.332Z"/>
          <path id="Path_18807" data-name="Path 18807" d="M163.866,176.013c0,.747-.045,1.562-.067,2.355l-41.606-.747c.381-.747.747-1.547,1.181-2.332Z"/>
          <path id="Path_18808" data-name="Path 18808" d="M163.7,180.946l-.09,2.355-43.788-.8c.359-.747.747-1.547,1.1-2.332Z"/>
          <path id="Path_18809" data-name="Path 18809" d="M163.515,185.88c0,.8-.06,1.585-.1,2.355l-45.769-.837c.329-.747.673-1.54,1.024-2.332Z"/>
          <path id="Path_18810" data-name="Path 18810" d="M163.3,190.813c-.037.807-.075,1.592-.12,2.347l-47.533-.86c.292-.747.605-1.495.934-2.34Z"/>
          <path id="Path_18811" data-name="Path 18811" d="M163.036,195.747c-.045.837-.1,1.63-.15,2.355l-49.066-.9c.254-.747.538-1.495.845-2.34Z"/>
          <path id="Path_18812" data-name="Path 18812" d="M162.692,200.68a13.1,13.1,0,0,1-.329,2.347l-50.015-.919a19.184,19.184,0,0,1,.62-2.34Z"/>
        </g>
        <path id="Path_18813" data-name="Path 18813" d="M163.784,129.608c0,2.915,2.071,5.277,4.627,5.277s4.627-2.362,4.627-5.277-2.071-5.232-4.627-5.232S163.784,126.693,163.784,129.608Z" fill="#407bff"/>
        <ellipse id="Ellipse_321" data-name="Ellipse 321" cx="5.15" cy="5.868" rx="5.15" ry="5.868" transform="translate(162.281 123.927)" fill="#c7c7c7"/>
        <path id="Path_18814" data-name="Path 18814" d="M158.469,153.349c-2.811.5-7.318-4.007-8.97-7.542-.112-.239,1.405-9.583,1.495-11.467,0-.389,11.646,3.543,11.646,3.543a29.9,29.9,0,0,0-1.555,7.168C161.078,145.321,161.19,152.87,158.469,153.349Z" fill="#eb9481"/>
        <path id="Path_18815" data-name="Path 18815" d="M161.123,145.822v.127h-.06a6.65,6.65,0,0,1-1.159,0c-6.414-.516-8.125-8.529-8.551-11.6,1.981.389,11.28,3.536,11.28,3.536a29.9,29.9,0,0,0-1.547,7.131v.262a2.877,2.877,0,0,0,.037.546Z" fill="#263238"/>
        <path id="Path_18816" data-name="Path 18816" d="M152.713,119.5c-2.168,3.812-2.654,16.116-.336,19.435,3.364,4.769,10.188,6.683,14.569,2.34,4.253-4.208,4.6-20.257,1.891-23.382C164.845,113.261,155.913,113.874,152.713,119.5Z" fill="#eb9481"/>
        <path id="Path_18827" data-name="Path 18827" d="M151.891,128.569c2.855,0,3.468-5.158,3.468-5.158s4.911-.747,5.659-4.44c0,0,4.62,2.99,8.3,1.734s3.207-5.845,2.8-6.727c-.934-2.033-4,.531-4,.531a17.9,17.9,0,0,0-9.822-2.37c-4.261.381-6.443,4.365-6.443,4.365s-2.287.463-3.042,2.056S150.075,128.569,151.891,128.569Z" fill="#263238"/>
        <path id="Path_18828" data-name="Path 18828" d="M154.2,123.449c3.79.546,6.331-1.951,6.914-5.576a.037.037,0,0,1,.075,0c-.142,3.379-3.341,7.116-7.026,5.741A.085.085,0,0,1,154.2,123.449Z" fill="#263238"/>
        <path id="Path_18829" data-name="Path 18829" d="M151.958,116.452c.045,0,.067.06,0,.075a7.4,7.4,0,0,0-3.042,1.8,4.561,4.561,0,0,0-.411,4.022c.493,2.063,1.495,4.747,3.356,5.98a.1.1,0,0,1-.112.164c-2.19-1.323-3.438-4.806-3.737-7.228C147.743,118.538,149.447,117.013,151.958,116.452Z" fill="#263238"/>
        <path id="Path_18830" data-name="Path 18830" d="M165.2,120.018a5.232,5.232,0,0,0,5.793-.09c2.018-1.5,1.637-4.014.807-6.1-.045-.1.1-.217.157-.112,1.151,1.839,1.2,4.627-.456,6.2a5.54,5.54,0,0,1-6.466.351C164.853,120.167,165.017,119.913,165.2,120.018Z" fill="#263238"/>
        <path id="Path_18831" data-name="Path 18831" d="M160.607,132.95a3.551,3.551,0,1,1,4.291-3.633h0a3.558,3.558,0,0,1-3.439,3.737,3.461,3.461,0,0,1-.852-.1Zm1.375-6.481a3.154,3.154,0,0,0-.747-.067,3.087,3.087,0,1,0,.747.067Z" fill="#455a64"/>
        <path id="Path_18832" data-name="Path 18832" d="M168.725,133.66c-1.331-.284-2.242-1.9-2.071-3.737a4.231,4.231,0,0,1,.972-2.4,2.242,2.242,0,0,1,3.775.344,4.3,4.3,0,0,1,.516,2.541c-.179,1.951-1.5,3.431-2.99,3.3Zm1.024-6.533h-.179a1.891,1.891,0,0,0-1.585.747,3.737,3.737,0,0,0-.86,2.13c-.157,1.689.68,3.154,1.876,3.259s2.287-1.174,2.444-2.855a3.8,3.8,0,0,0-.456-2.242,1.943,1.943,0,0,0-1.241-1.039Z" fill="#455a64"/>
        <path id="Path_18833" data-name="Path 18833" d="M164.741,129.735l-.292-.419c.583-.4,1.876-.9,2.654.112l-.374.284C166.049,128.846,164.793,129.7,164.741,129.735Z" fill="#455a64"/>
        <path id="Path_18834" data-name="Path 18834" d="M148.9,129.182l-.4-.254c.12-.187,1.2-1.824,2.242-1.9s7.281,1.114,7.55,1.166l-.09.463c-1.8-.336-6.653-1.211-7.43-1.151S149.193,128.734,148.9,129.182Z" fill="#455a64"/>
        <path id="Path_18835" data-name="Path 18835" d="M153.08,129.706s-1.906-4.388-3.842-3.782-1.046,6.578.845,7.752a2.115,2.115,0,0,0,2.99-.546Z" fill="#eb9481"/>
        <path id="Path_18836" data-name="Path 18836" d="M149.537,127.627s-.052,0,0,.052a5.361,5.361,0,0,1,2.048,3.842,1.174,1.174,0,0,0-1.652-.665.045.045,0,1,0,0,.09,1.293,1.293,0,0,1,1.316.748,5.98,5.98,0,0,1,.441,1.271c.045.142.292.127.269-.037h0C152.362,131.058,151.465,128.211,149.537,127.627Z" fill="#263238"/>
        <path id="Path_18837" data-name="Path 18837" d="M150.3,126.521s-.359-6.361,1.54-9.852c2.115-3.887,10.465-6.4,16.28-2.145,0,0-9.261-2.923-13.769,2.452-1.9,2.242-1.929,9.717-1.929,9.717Z" fill="#c7c7c7"/>
        <ellipse id="Ellipse_322" data-name="Ellipse 322" cx="5.15" cy="5.868" rx="5.15" ry="5.868" transform="translate(145.926 123.927)" fill="#c7c7c7"/>
        <path id="Path_18838" data-name="Path 18838" d="M154.732,129.608c0,2.915-2.071,5.277-4.627,5.277s-4.627-2.362-4.627-5.277,2.071-5.232,4.627-5.232S154.732,126.693,154.732,129.608Z" fill="#407bff"/>
        <path id="Path_18839" data-name="Path 18839" d="M230.49,169.442c.4.486.747,1.009.493,1.2h0c-.232.179-.688-.232-1.084-.747Z" fill="#263238"/>
        <path id="Path_18840" data-name="Path 18840" d="M230.311,164.195c.419.508.486,4.1.306,5.4a.643.643,0,0,1-.591.5c-1.3-.082-4.836-.837-5.232-1.345-.284-.344-.927-1.891-1.7-3.4-1.009-1.981-18.059-23.793-18.127-24.137s.493-.9.83-1.174,1-.747,1.323-.6,18.456,21.049,20.182,22.425C228.637,162.954,230.027,163.851,230.311,164.195Z" fill="#37474f"/>
        <path id="Path_18841" data-name="Path 18841" d="M230.318,164.195a.59.59,0,0,1,.09.194,17.387,17.387,0,0,1-2.713,2.848,11.34,11.34,0,0,1-2.7,1.7.59.59,0,0,1-.232-.157,2.325,2.325,0,0,1-.164-.247,13.391,13.391,0,0,0,5.464-4.545,1.86,1.86,0,0,1,.254.209Z" fill="#a6a6a6"/>
        <rect id="Rectangle_4698" data-name="Rectangle 4698" width="1.48" height="9.045" rx="0.546" transform="translate(219.281 157.585) rotate(-39.47)" fill="#263238"/>
        <rect id="Rectangle_4699" data-name="Rectangle 4699" width="0.86" height="5.741" rx="0.321" transform="translate(221.358 159.661) rotate(-39.47)" fill="#a6a6a6"/>
        <rect id="Rectangle_4700" data-name="Rectangle 4700" width="0.86" height="0.254" transform="matrix(0.772, -0.636, 0.636, 0.772, 223.658, 162.433)" fill="#263238"/>
        <path id="Path_18842" data-name="Path 18842" d="M142.869,156.294c4.62,12.947,13.986,26.125,21.767,27.4s27.814-7.37,33.944-10.286c2.362-1.121-5.561-21.408-8.08-20.182-4.268,2.078-22.784,12.707-24.279,12.289-.934-.254-9.1-6.443-15.974-12.917C141.277,144.177,141.426,152.265,142.869,156.294Z" fill="#eb9481"/>
        <path id="Path_18843" data-name="Path 18843" d="M224.114,149.626c.329,2.586-6.122,2.863-6.122,2.863a4.851,4.851,0,0,1,2.242,2.37c.747,1.846-1.869,3.782-1.869,3.782a5.935,5.935,0,0,1,1.988,2.878c.508,1.839-1.824,4.164-1.824,4.164a5.232,5.232,0,0,1,.157,3.633c-1.159,3.139-6.159,4.179-9.329,4.874s-12.827-.306-14.681-.314l-4.634-20.324s13.343-7.161,17.192-7.475C210.495,145.866,223.613,145.672,224.114,149.626Z" fill="#eb9481"/>
        <path id="Path_18844" data-name="Path 18844" d="M217.932,152.422a43.78,43.78,0,0,0-10.652,0,.06.06,0,1,0,0,.12c3.483-.336,7.139.247,10.629.052a.09.09,0,0,0,.022-.172Z" fill="#263238"/>
        <path id="Path_18845" data-name="Path 18845" d="M218.269,158.387a9.344,9.344,0,0,0-2.414.164c-.852.112-1.7.247-2.549.389-1.689.284-3.379.613-5.053.987-.075,0-.067.135,0,.127,1.689-.284,3.386-.546,5.083-.747.852-.112,1.7-.209,2.549-.3a11.3,11.3,0,0,0,2.4-.374.127.127,0,0,0-.015-.247Z" fill="#263238"/>
        <path id="Path_18846" data-name="Path 18846" d="M218.478,165.69a6.51,6.51,0,0,0-2.168.262q-1.151.224-2.31.426c-1.54.277-3.08.553-4.627.747-.082,0-.067.135,0,.12,1.577-.217,3.154-.411,4.732-.643l2.317-.359a6.055,6.055,0,0,0,2.063-.5.045.045,0,0,0-.007-.052Z" fill="#263238"/>
        <path id="Path_18847" data-name="Path 18847" d="M184.534,155.322l9.179,22.118s-23.023,9.015-30.132,6.9-16.916-16.445-20.1-24.981-2.362-15.75,8.514-6.137,13.851,11.668,14.539,11.541S184.534,155.322,184.534,155.322Z" fill="#407bff"/>
        <g id="Group_7248" data-name="Group 7248" opacity="0.1">
          <path id="Path_18848" data-name="Path 18848" d="M152.272,153.476l-10.353-.187a8.776,8.776,0,0,1,0-2.355l7.408.135q1.211.882,2.654,2.16Z"/>
          <path id="Path_18849" data-name="Path 18849" d="M155.277,156.115q1.495,1.323,2.788,2.4l-14.987-.269c-.269-.815-.5-1.607-.7-2.37Z"/>
          <path id="Path_18850" data-name="Path 18850" d="M186.074,159.03l-8.178-.15,4.261-2.28,2.93.052Z"/>
          <path id="Path_18851" data-name="Path 18851" d="M161.212,161.153c1.316,1.076,2.325,1.861,3.095,2.414l-19.136-.351c-.4-.822-.747-1.615-1.1-2.377Z"/>
          <path id="Path_18852" data-name="Path 18852" d="M188.137,164l-19.285-.351c1.181-.605,2.706-1.413,4.35-2.28l13.948.254Z"/>
          <path id="Path_18853" data-name="Path 18853" d="M190.2,168.979l-42.263-.747c-.493-.8-.957-1.6-1.4-2.385l42.675.747Z"/>
          <path id="Path_18854" data-name="Path 18854" d="M192.263,173.95l-40.993-.747c-.576-.747-1.129-1.577-1.667-2.385l41.673.747Z"/>
          <path id="Path_18855" data-name="Path 18855" d="M193.714,177.448s-1.495.576-3.737,1.4l-34.594-.628c-.7-.747-1.383-1.555-2.063-2.392l40.058.747Z"/>
          <path id="Path_18856" data-name="Path 18856" d="M182.613,181.29c-2.609.807-5.412,1.6-8.1,2.242l-13.313-.247a21.3,21.3,0,0,1-3.207-2.414Z"/>
        </g>
        <path id="Path_18857" data-name="Path 18857" d="M193.467,177.433c-3.476,1.278-6.952,2.519-10.51,3.558s-12.655,3.326-16.393,3.461a9.321,9.321,0,0,1-4.926-1.428,19.727,19.727,0,0,1-4.059-3.282c-1.271-1.271-2.474-2.609-3.663-3.954-1.36-1.495-2.669-3.1-3.977-4.679s-2.751-3.326-4.007-5.068c-.045-.06-.142,0-.1.06,1.1,1.555,2.145,3.139,3.274,4.672.463.628.942,1.248,1.428,1.861-.254-.187-.508-.381-.747-.561-.972-.673-1.973-1.316-2.908-2.041-.067-.052-.142.045-.075.09.957.68,1.839,1.45,2.728,2.2.441.366.882.747,1.331,1.076l.643.478.09.067.994,1.233c1.2,1.495,2.422,2.893,3.685,4.283a23.322,23.322,0,0,0,3.909,3.573,10.51,10.51,0,0,0,4.717,2.048c3.491.4,12.9-1.921,16.572-2.99a95.471,95.471,0,0,0,12.132-4.261C193.826,177.725,193.721,177.336,193.467,177.433Z" fill="#263238"/>
        <path id="Path_18858" data-name="Path 18858" d="M169.771,163.111a15.891,15.891,0,0,1-2.99,1.405,2.355,2.355,0,0,1-1.607-.65c-.493-.389-.987-.792-1.495-1.174l-1.876-1.428-.09-.127c-.09-.135-.187-.269-.284-.4l-.605-.747c-.4-.493-.822-.972-1.233-1.458-.052-.052-.135,0-.082.09.411.5.792,1.032,1.174,1.562l.366.523-.3-.224c-.493-.374-2.056-1.495-2.99-2.242-.067-.052-.142,0-.067.09.875.68,2.811,2.377,3.349,2.833,1.046.9,2.1,1.779,3.177,2.639.815.643,1.689,1.495,2.818,1.218a13.687,13.687,0,0,0,2.826-1.719C169.973,163.178,169.854,163.074,169.771,163.111Z" fill="#263238"/>
        <path id="Path_18859" data-name="Path 18859" d="M185.6,167.992q-.964-2.422-1.981-4.821c-.7-1.644-1.495-3.252-2.183-4.919,0-.067-.135,0-.1.052.673,1.652,1.166,3.386,1.787,5.053s1.226,3.244,1.869,4.851c1.3,3.244,2.586,6.526,4.1,9.673a.1.1,0,0,0,.172-.067C188.2,174.5,186.874,171.236,185.6,167.992Z" fill="#263238"/>
      </g>
      <g id="freepik--Table--inject-30">
        <rect id="Rectangle_4701" data-name="Rectangle 4701" width="268.007" height="9.531" transform="translate(52.87 194.498)" fill="#37474f"/>
        <rect id="Rectangle_4702" data-name="Rectangle 4702" width="268.007" height="3.723" transform="translate(52.87 200.306)" fill="#455a64"/>
        <path id="Path_18860" data-name="Path 18860" d="M62.483,337.756h-3.85L69.846,204.029h9.83Z" fill="#455a64"/>
        <path id="Path_18861" data-name="Path 18861" d="M79.676,204.029l-1.151,8.948H69.1l.747-8.948Z" fill="#263238"/>
        <path id="Path_18862" data-name="Path 18862" d="M311.265,337.756h3.85L303.9,204.029h-9.83Z" fill="#455a64"/>
        <path id="Path_18863" data-name="Path 18863" d="M294.072,204.029l1.151,8.948h9.426l-.747-8.948Z" fill="#263238"/>
      </g>
      <g id="freepik--Device--inject-30">
        <path id="Path_18864" data-name="Path 18864" d="M277.179,194.5H210.607l16.168-44.424h66.572Z" fill="#263238"/>
        <path id="Path_18865" data-name="Path 18865" d="M279.534,194.5H212.969l16.168-44.424H295.7Z" fill="#37474f"/>
        <path id="Path_18866" data-name="Path 18866" d="M295.709,150.075,279.534,194.5H252.609l36.867-44.424Z" fill="#263238"/>
        <path id="Path_18867" data-name="Path 18867" d="M291.4,194.5h-8.1l-7.273-12.6h8.1Z" fill="#455a64"/>
        <path id="Path_18868" data-name="Path 18868" d="M276.02,181.9v12.6h7.273Z" fill="#37474f"/>
        <path id="Path_18869" data-name="Path 18869" d="M245.949,194.5h-8.1l-7.266-12.6h8.1Z" fill="#455a64"/>
        <path id="Path_18870" data-name="Path 18870" d="M230.58,181.9v12.6h7.266Z" fill="#263238"/>
      </g>
      <g id="freepik--Lamp--inject-30">
        <path id="Path_18871" data-name="Path 18871" d="M71.214,189.9l-1.345-.172,6.922-52.684,25.146-13.8.65,1.189-24.54,13.47Z" fill="#263238"/>
        <path id="Path_18872" data-name="Path 18872" d="M75.5,137.472a1.914,1.914,0,1,0,1.914-1.914,1.914,1.914,0,0,0-1.914,1.914Z" fill="#407bff"/>
        <path id="Path_18873" data-name="Path 18873" d="M100.075,123.838a1.914,1.914,0,1,0,1.914-1.914A1.914,1.914,0,0,0,100.075,123.838Z" fill="#407bff"/>
        <path id="Path_18874" data-name="Path 18874" d="M114.853,125.594l-8.992,10.039-4.149-5.128-2.527-3.125,6.742-7.52,3.379,2.168Z" fill="#407bff"/>
        <path id="Path_18875" data-name="Path 18875" d="M114.853,125.594l-8.992,10.039-4.149-5.128,7.595-8.477Z" opacity="0.1"/>
        <path id="Path_18876" data-name="Path 18876" d="M127.889,130.55l-15.682,17.5-10.413-13.29,11.751-13.111Z" fill="#407bff"/>
        <path id="Path_18877" data-name="Path 18877" d="M82.852,194.5H59.65l1.42-7.288H81.432Z" fill="#407bff"/>
      </g>
      <g id="freepik--Coffee--inject-30">
        <path id="Path_18878" data-name="Path 18878" d="M217.334,173.711,215.682,194.5H204.246l-1.652-20.788Z" fill="#407bff"/>
        <rect id="Rectangle_4703" data-name="Rectangle 4703" width="16.811" height="3.027" transform="translate(201.51 171.834)" fill="#455a64"/>
        <path id="Path_18879" data-name="Path 18879" d="M217.17,171.834H202.661l.852-3.409h12.8Z" fill="#37474f"/>
        <path id="Path_18880" data-name="Path 18880" d="M213.933,184.288c0,2.7-1.779,4.889-3.969,4.889s-3.969-2.19-3.969-4.889,1.809-4.889,3.969-4.889S213.933,181.589,213.933,184.288Z" fill="#fff"/>
      </g>
      <g id="freepik--Camera--inject-30">
        <path id="Path_18881" data-name="Path 18881" d="M105.173,235.656c-4.889,0-8.761-1.495-11.519-4.4-5.868-6.212-5.232-17.192-4.9-23.105.052-.994.1-1.846.1-2.444a23.82,23.82,0,0,0-1.734-8.133,32.015,32.015,0,0,1-1.57-5.7,16.04,16.04,0,0,1,2.392-10.009c1.189-1.719,3.782-1.39,3.894-1.375l-.2,1.495.1-.747-.1.747c-.493-.067-1.914-.06-2.467.747a14.9,14.9,0,0,0-2.145,8.97,31.4,31.4,0,0,0,1.5,5.442,25.378,25.378,0,0,1,1.816,8.619c0,.635-.052,1.495-.112,2.527-.321,5.681-.927,16.251,4.485,22,2.467,2.609,5.98,3.924,10.465,3.924a10.573,10.573,0,0,0,8-3.05c5.105-5.232,4.784-16.445,4.575-23.808-.067-2.28-.12-4.246,0-5.7a30.543,30.543,0,0,1,1.734-7.557c1.174-3.61,2.19-6.727.748-10.719a2.31,2.31,0,0,0-2.414-1.458l-.187-1.495a3.782,3.782,0,0,1,4.007,2.437c1.6,4.485.463,7.976-.748,11.683a29,29,0,0,0-1.659,7.2c-.1,1.383-.045,3.311,0,5.554.217,7.639.553,19.181-5,24.9A12.168,12.168,0,0,1,105.173,235.656Z" fill="#a6a6a6"/>
        <rect id="Rectangle_4704" data-name="Rectangle 4704" width="26.82" height="16.295" transform="translate(91.09 178.203)" fill="#263238"/>
        <rect id="Rectangle_4705" data-name="Rectangle 4705" width="4.724" height="0.703" transform="translate(94.102 177.5)" fill="#263238"/>
        <rect id="Rectangle_4706" data-name="Rectangle 4706" width="2.983" height="0.703" transform="translate(94.977 176.813)" fill="#263238"/>
        <path id="Path_18882" data-name="Path 18882" d="M112.767,178.2h-7.131l.747-2.2h5.636Z" fill="#263238"/>
        <rect id="Rectangle_4707" data-name="Rectangle 4707" width="3.603" height="1.316" transform="translate(107.4 176.887)" fill="#fff"/>
        <path id="Path_18883" data-name="Path 18883" d="M90.4,180.363v1.3l.688.232v.553l-1.114-.381V179.96l1.114-.381v.553Z" fill="#263238"/>
        <path id="Path_18884" data-name="Path 18884" d="M118.6,180.363v1.3l-.688.232v.553l1.121-.381V179.96l-1.121-.381v.553Z" fill="#263238"/>
        <path id="Path_18885" data-name="Path 18885" d="M98.826,180.8a45.836,45.836,0,0,1,0,11.683,45.836,45.836,0,0,1,0-11.683Z" fill="#455a64"/>
        <path id="Path_18886" data-name="Path 18886" d="M109.2,193.295a6.653,6.653,0,1,1,6.653-6.653,6.653,6.653,0,0,1-6.653,6.653Zm0-12.924a6.272,6.272,0,1,0,4.439,1.834,6.279,6.279,0,0,0-4.439-1.834Z" fill="#37474f"/>
        <path id="Path_18887" data-name="Path 18887" d="M114.322,186.642a5.12,5.12,0,1,1-5.12-5.113A5.12,5.12,0,0,1,114.322,186.642Z" fill="#455a64"/>
        <circle id="Ellipse_323" data-name="Ellipse 323" cx="0.538" cy="0.538" r="0.538" transform="translate(115.742 179.04)" fill="#407bff"/>
      </g>
      <g id="freepik--Tools--inject-30">
        <path id="Path_18888" data-name="Path 18888" d="M265.7,124.428l-14.815,14.711a2.571,2.571,0,0,1-3.618-3.648l14.808-14.711Z" fill="#ebebeb"/>
        <path id="Path_18889" data-name="Path 18889" d="M265.7,124.428l-4.216,4.186-2.8-4.47,3.386-3.364Z" fill="#c7c7c7"/>
        <path id="Path_18890" data-name="Path 18890" d="M246.285,140.081h0a.65.65,0,0,1,0-.919l3.349-3.326.919.927-3.349,3.326a.65.65,0,0,1-.919-.007Z" fill="#ebebeb"/>
        <path id="Path_18891" data-name="Path 18891" d="M250.553,136.792l-3.349,3.334a.643.643,0,0,1-.919,0,.65.65,0,0,1,0-.919l.568-.561,2.781-2.766Z" fill="#ebebeb"/>
        <rect id="Rectangle_4708" data-name="Rectangle 4708" width="7.692" height="3.625" transform="translate(261.363 119.712) rotate(45.2)" fill="#407bff"/>
        <path id="Path_18892" data-name="Path 18892" d="M264.419,125.7l-3.625-3.648,3.065-3.042a2.571,2.571,0,0,1,3.633,0h0a2.564,2.564,0,0,1,0,3.633Z" fill="#407bff"/>
        <path id="Path_18893" data-name="Path 18893" d="M256.391,133.675l-5.5,5.464a2.549,2.549,0,0,1-3.11.381l-.568.568a.643.643,0,0,1-.919,0,.65.65,0,0,1,0-.919l.568-.561a2.564,2.564,0,0,1,.4-3.11l1.861-1.846Z" fill="#407bff"/>
        <path id="Path_18894" data-name="Path 18894" d="M246.5,146.382c-1.861,0-1.226-3.678,0-4.9C247.765,142.772,248.363,146.382,246.5,146.382Z" fill="#407bff"/>
        <path id="Path_18895" data-name="Path 18895" d="M218.231,137.061H186.956V96.913h23.217l8.058,7.647Z" fill="#dbdbdb"/>
        <rect id="Rectangle_4709" data-name="Rectangle 4709" width="31.275" height="11.751" transform="translate(186.956 125.31)" fill="#ebebeb"/>
        <path id="Path_18896" data-name="Path 18896" d="M186.956,125.31l9.889-9.478,8.97,9.478Z" fill="#407bff"/>
        <path id="Path_18897" data-name="Path 18897" d="M199.664,125.31l11.743-14.845,6.825,8.619v6.227Z" fill="#407bff"/>
        <path id="Path_18898" data-name="Path 18898" d="M197.2,109.583a3.506,3.506,0,1,1-3.506-3.506A3.506,3.506,0,0,1,197.2,109.583Z" fill="#fff"/>
        <path id="Path_18899" data-name="Path 18899" d="M210.173,96.913l8.058,7.647h-8.058Z" fill="#ebebeb"/>
        <path id="Path_18900" data-name="Path 18900" d="M194.222,132.486a.217.217,0,0,1,.269.135,1.689,1.689,0,0,0,3.3-.508v-3.939a.217.217,0,0,1,.434,0v3.939a2.13,2.13,0,0,1-4.156.65A.232.232,0,0,1,194.222,132.486Z" fill="#a6a6a6"/>
        <path id="Path_18901" data-name="Path 18901" d="M199.925,128.173a.224.224,0,0,1,.217-.217h1.772a1.794,1.794,0,0,1,0,3.581h-1.547V134a.224.224,0,0,1-.224.217.217.217,0,0,1-.217-.217Zm1.988,2.945a1.375,1.375,0,0,0,1.353-1.368,1.36,1.36,0,0,0-1.353-1.353h-1.547v2.721Z" fill="#a6a6a6"/>
        <path id="Path_18902" data-name="Path 18902" d="M208.088,131.41a.217.217,0,0,1-.224-.217.224.224,0,0,1,.224-.224h1.958a.232.232,0,0,1,.2.224v2.19a.314.314,0,0,1-.082.164,3.282,3.282,0,0,1-2.026.688,3.184,3.184,0,0,1,0-6.369,3.274,3.274,0,0,1,2.033.71.232.232,0,0,1,0,.306.239.239,0,0,1-.314.037,2.749,2.749,0,1,0-1.749,4.874,2.818,2.818,0,0,0,1.659-.538V131.41Z" fill="#a6a6a6"/>
        <rect id="Rectangle_4710" data-name="Rectangle 4710" width="13.575" height="42.689" transform="translate(103.737 52.22)" fill="#c7c7c7"/>
        <rect id="Rectangle_4711" data-name="Rectangle 4711" width="10.562" height="5.905" transform="translate(105.247 53.573)" fill="#407bff"/>
        <rect id="Rectangle_4712" data-name="Rectangle 4712" width="10.562" height="5.905" transform="translate(105.247 60.734)" fill="#407bff"/>
        <rect id="Rectangle_4713" data-name="Rectangle 4713" width="10.562" height="5.905" transform="translate(105.247 67.888)" fill="#407bff"/>
        <rect id="Rectangle_4714" data-name="Rectangle 4714" width="10.562" height="5.905" transform="translate(105.247 75.041)" fill="#407bff"/>
        <rect id="Rectangle_4715" data-name="Rectangle 4715" width="10.562" height="5.905" transform="translate(105.247 82.202)" fill="#407bff"/>
        <rect id="Rectangle_4716" data-name="Rectangle 4716" width="10.562" height="5.905" transform="translate(105.247 53.573)" opacity="0.3"/>
        <rect id="Rectangle_4717" data-name="Rectangle 4717" width="10.562" height="5.905" transform="translate(105.247 60.734)" opacity="0.1"/>
        <rect id="Rectangle_4718" data-name="Rectangle 4718" width="10.562" height="5.905" transform="translate(105.247 75.041)" fill="#fff" opacity="0.2"/>
        <rect id="Rectangle_4719" data-name="Rectangle 4719" width="10.562" height="5.905" transform="translate(105.247 82.202)" fill="#fff" opacity="0.4"/>
        <path id="Path_18903" data-name="Path 18903" d="M111.377,92.248a1.241,1.241,0,1,1-.363-.885A1.248,1.248,0,0,1,111.377,92.248Z" fill="#263238"/>
        <rect id="Rectangle_4720" data-name="Rectangle 4720" width="13.575" height="42.69" transform="translate(134.018 59.561) rotate(45)" fill="#dbdbdb"/>
        <rect id="Rectangle_4721" data-name="Rectangle 4721" width="10.562" height="5.905" transform="translate(134.126 61.577) rotate(45)" fill="#407bff"/>
        <rect id="Rectangle_4722" data-name="Rectangle 4722" width="10.562" height="5.905" transform="translate(129.069 66.637) rotate(45)" fill="#407bff"/>
        <rect id="Rectangle_4723" data-name="Rectangle 4723" width="10.562" height="5.905" transform="translate(124.006 71.698) rotate(45)" fill="#407bff"/>
        <rect id="Rectangle_4724" data-name="Rectangle 4724" width="10.562" height="5.905" transform="translate(118.949 76.758) rotate(45)" fill="#407bff"/>
        <rect id="Rectangle_4725" data-name="Rectangle 4725" width="10.562" height="5.905" transform="translate(113.886 81.819) rotate(45)" fill="#407bff"/>
        <rect id="Rectangle_4726" data-name="Rectangle 4726" width="10.562" height="5.905" transform="translate(134.126 61.577) rotate(45)" opacity="0.3"/>
        <rect id="Rectangle_4727" data-name="Rectangle 4727" width="10.562" height="5.905" transform="translate(129.069 66.637) rotate(45)" opacity="0.1"/>
        <rect id="Rectangle_4728" data-name="Rectangle 4728" width="10.562" height="5.905" transform="translate(118.949 76.758) rotate(45)" fill="#fff" opacity="0.2"/>
        <rect id="Rectangle_4729" data-name="Rectangle 4729" width="10.562" height="5.905" transform="translate(113.886 81.819) rotate(45)" fill="#fff" opacity="0.4"/>
        <path id="Path_18904" data-name="Path 18904" d="M111.115,93.258a1.248,1.248,0,1,1,0-1.764,1.248,1.248,0,0,1,0,1.764Z" fill="#263238"/>
        <rect id="Rectangle_4730" data-name="Rectangle 4730" width="13.575" height="42.689" transform="translate(150.239 86.156) rotate(90)" fill="#ebebeb"/>
        <rect id="Rectangle_4731" data-name="Rectangle 4731" width="10.562" height="5.905" transform="translate(148.879 87.666) rotate(90)" fill="#407bff"/>
        <rect id="Rectangle_4732" data-name="Rectangle 4732" width="10.562" height="5.905" transform="translate(141.725 87.666) rotate(90)" fill="#407bff"/>
        <rect id="Rectangle_4733" data-name="Rectangle 4733" width="10.562" height="5.905" transform="translate(134.564 87.674) rotate(90)" fill="#407bff"/>
        <rect id="Rectangle_4734" data-name="Rectangle 4734" width="10.562" height="5.905" transform="translate(127.411 87.666) rotate(90)" fill="#407bff"/>
        <rect id="Rectangle_4735" data-name="Rectangle 4735" width="10.562" height="5.905" transform="translate(120.257 87.666) rotate(90)" fill="#407bff"/>
        <rect id="Rectangle_4736" data-name="Rectangle 4736" width="10.562" height="5.905" transform="translate(148.879 87.666) rotate(90)" opacity="0.3"/>
        <rect id="Rectangle_4737" data-name="Rectangle 4737" width="10.562" height="5.905" transform="translate(141.725 87.666) rotate(90)" opacity="0.1"/>
        <rect id="Rectangle_4738" data-name="Rectangle 4738" width="10.562" height="5.905" transform="translate(127.411 87.666) rotate(90)" fill="#fff" opacity="0.2"/>
        <rect id="Rectangle_4739" data-name="Rectangle 4739" width="10.562" height="5.905" transform="translate(120.257 87.666) rotate(90)" fill="#fff" opacity="0.4"/>
        <path id="Path_18905" data-name="Path 18905" d="M110.211,93.8a1.248,1.248,0,1,1,1.248-1.248,1.248,1.248,0,0,1-1.248,1.248Z" fill="#263238"/>
      </g>
    </g>
  </g>
</svg>
