<svg xmlns="http://www.w3.org/2000/svg" width="16" height="16" viewBox="0 0 16 16">
  <path id="correct" d="M7.75-.25h0a8,8,0,0,1,3.061,15.391A8,8,0,1,1,7.75-.25Zm0,15.088a6.622,6.622,0,0,0,2.724-.423,7.231,7.231,0,0,0,3.354-2.667,6.861,6.861,0,0,0,1.188-4,7.241,7.241,0,0,0-2.051-5.27A7.3,7.3,0,0,0,7.749.235a6.975,6.975,0,0,0-3.965,1.4,7.272,7.272,0,0,0-2.692,3.35,6.911,6.911,0,0,0-.5,4.156,6.762,6.762,0,0,0,2,3.625,6.8,6.8,0,0,0,3.6,2.072A8.493,8.493,0,0,0,7.75,14.838ZM7.75.129A7.52,7.52,0,0,1,10.605.71a8.1,8.1,0,0,1,3.459,2.879A7.4,7.4,0,0,1,15.128,7.75,7.387,7.387,0,0,1,7.75,15.129h0a7.355,7.355,0,0,1-4.1-1.244,7.427,7.427,0,0,1-2.729-3.1A6.481,6.481,0,0,1,.512,6.31,7.356,7.356,0,0,1,2.532,2.532a7.606,7.606,0,0,1,3.7-2.3A8.2,8.2,0,0,1,7.75.129Zm0,14.516a6.894,6.894,0,1,0-3.83-1.162,6.858,6.858,0,0,0,3.83,1.162Zm3.413-9.309h.013a.553.553,0,0,1,.369.953L6.993,10.632a.553.553,0,0,1-.763,0L3.955,8.46a.553.553,0,0,1,.369-.952h.014a.55.55,0,0,1,.38.151L6.612,9.468l4.169-3.98a.553.553,0,0,1,.382-.153Z" transform="translate(0.251 0.25)" fill="#fff"/>
</svg>
