<svg width="20" height="20" viewBox="0 0 20 20" fill="none" xmlns="http://www.w3.org/2000/svg">
<path d="M16.9984 9.1274C16.9753 9.71052 16.8881 10.2893 16.7384 10.8534C16.6008 11.3929 16.374 11.9056 16.0674 12.3704C15.7733 12.8102 15.3845 13.1785 14.9294 13.4484C14.4227 13.7328 13.8483 13.8745 13.2674 13.8584C12.8487 13.8663 12.4351 13.765 12.0674 13.5644C11.7223 13.3706 11.4404 13.0813 11.2554 12.7314C11.011 13.0794 10.6841 13.3615 10.3041 13.5524C9.924 13.7433 9.50257 13.8371 9.07743 13.8254C8.69978 13.831 8.32697 13.74 7.99442 13.5609C7.66188 13.3819 7.38064 13.1208 7.17743 12.8024C6.94525 12.4414 6.78467 12.0391 6.70443 11.6174C6.60416 11.1087 6.58191 10.5878 6.63843 10.0724C6.70857 9.42291 6.86703 8.78603 7.10943 8.1794C7.31747 7.65139 7.61144 7.16144 7.97943 6.7294C8.31037 6.34021 8.71869 6.02418 9.17843 5.8014C9.63288 5.58545 10.1303 5.47503 10.6334 5.4784C10.9251 5.47496 11.2165 5.49974 11.5034 5.5524C11.7345 5.59661 11.9606 5.6636 12.1784 5.7524C12.3735 5.83594 12.5608 5.93632 12.7384 6.0524C12.9094 6.1624 13.0804 6.2764 13.2514 6.3924L12.8284 11.2544C12.7991 11.4433 12.8035 11.636 12.8414 11.8234C12.8694 11.953 12.9292 12.0736 13.0154 12.1744C13.0909 12.26 13.1885 12.3233 13.2974 12.3574C13.4655 12.411 13.6444 12.4213 13.8175 12.3872C13.9906 12.3531 14.1522 12.2757 14.2874 12.1624C14.5088 11.9762 14.6896 11.7464 14.8184 11.4874C14.979 11.1651 15.0989 10.8242 15.1754 10.4724C15.2659 10.0567 15.3181 9.63361 15.3314 9.2084C15.3813 8.41551 15.3139 7.61961 15.1314 6.8464C14.9765 6.18105 14.6782 5.55754 14.2574 5.0194C13.8391 4.50496 13.3011 4.10085 12.6904 3.8424C11.9663 3.54877 11.1895 3.4075 10.4084 3.4274C9.62815 3.41445 8.85552 3.58287 8.15143 3.9194C7.48975 4.2468 6.9057 4.71186 6.43843 5.2834C5.94288 5.89421 5.56145 6.58931 5.31243 7.3354C5.03476 8.16115 4.87519 9.02199 4.83843 9.8924C4.78409 10.7694 4.86606 11.6495 5.08143 12.5014C5.25443 13.1885 5.58018 13.8277 6.03443 14.3714C6.47026 14.875 7.02557 15.2612 7.64943 15.4944C8.36336 15.7539 9.11891 15.88 9.87843 15.8664C10.369 15.8608 10.858 15.8079 11.3384 15.7084C11.5794 15.6604 11.8084 15.6024 12.0264 15.5384C12.2279 15.4798 12.4256 15.409 12.6184 15.3264L12.9244 16.7024C12.716 16.8355 12.4937 16.9455 12.2614 17.0304C12.0055 17.1227 11.744 17.1985 11.4784 17.2574C10.9413 17.3771 10.3928 17.4385 9.84243 17.4404C8.82753 17.4581 7.81754 17.2956 6.85943 16.9604C6.03027 16.665 5.28431 16.1745 4.68443 15.5304C4.07585 14.8527 3.62957 14.0453 3.37943 13.1694C3.07854 12.1045 2.95522 10.9974 3.01443 9.8924C3.05279 8.81715 3.26451 7.75515 3.64143 6.7474C3.98281 5.82618 4.49551 4.97791 5.15243 4.2474C5.79894 3.54467 6.58459 2.98412 7.45943 2.6014C8.40043 2.19137 9.41808 1.98682 10.4444 2.0014C11.4337 1.98234 12.4171 2.15836 13.3384 2.5194C14.1366 2.83909 14.8509 3.33753 15.4264 3.9764C15.9977 4.62805 16.4205 5.39613 16.6654 6.2274C16.9408 7.16805 17.0534 8.14882 16.9984 9.1274ZM8.71343 10.0724C8.63152 10.621 8.69 11.1815 8.88343 11.7014C8.94975 11.8682 9.0659 12.0105 9.21603 12.1089C9.36617 12.2074 9.543 12.2571 9.72243 12.2514C9.82029 12.249 9.91716 12.2311 10.0094 12.1984C10.1305 12.154 10.2421 12.0872 10.3384 12.0014C10.47 11.8839 10.5833 11.7474 10.6744 11.5964C10.8047 11.3814 10.9085 11.1514 10.9834 10.9114L11.3134 7.1334C11.1462 7.08828 10.9737 7.06542 10.8004 7.0654C10.5035 7.05957 10.2099 7.12834 9.94643 7.2654C9.70168 7.40414 9.49545 7.60178 9.34643 7.8404C9.16573 8.13318 9.03084 8.45186 8.94643 8.7854C8.83424 9.20704 8.75665 9.63713 8.71443 10.0714L8.71343 10.0724Z" fill="white"/>
</svg>
