<svg id="Linkedin" xmlns="http://www.w3.org/2000/svg" width="21.297" height="20.351" viewBox="0 0 21.297 20.351">
  <path id="Icon_zocial-linkedin" data-name="Icon zocial-linkedin" d="M-.18,2.58A2.214,2.214,0,0,1,.539.884,2.64,2.64,0,0,1,2.41.216,2.561,2.561,0,0,1,4.24.874a2.319,2.319,0,0,1,.719,1.768,2.165,2.165,0,0,1-.7,1.645,2.644,2.644,0,0,1-1.891.678H2.349a2.516,2.516,0,0,1-1.83-.678A2.278,2.278,0,0,1-.18,2.58ZM.087,20.567V6.835H4.651V20.567H.087Zm7.092,0h4.564V12.9a2.959,2.959,0,0,1,.164-1.11,2.981,2.981,0,0,1,.874-1.182,2.234,2.234,0,0,1,1.47-.483q2.3,0,2.3,3.1v7.339h4.564V12.694a6.616,6.616,0,0,0-1.439-4.615,4.909,4.909,0,0,0-3.8-1.573,4.665,4.665,0,0,0-4.132,2.282v.041h-.021l.021-.041V6.835H7.179q.041.658.041,4.091t-.041,9.641Z" transform="translate(0.18 -0.216)" fill="#29abe2"/>
</svg>
