<svg width="20" height="20" viewBox="0 0 20 20" fill="none" xmlns="http://www.w3.org/2000/svg">
<path d="M9.62598 1C8.13413 1 6.70339 1.59263 5.6485 2.64752C4.59361 3.70242 4.00098 5.13316 4.00098 6.625C4.00098 12.25 9.62598 19 9.62598 19C9.62598 19 15.251 12.25 15.251 6.625C15.251 5.13316 14.6583 3.70242 13.6035 2.64752C12.5486 1.59263 11.1178 1 9.62598 1ZM9.62598 10.0703C8.94456 10.0703 8.27844 9.86825 7.71186 9.48967C7.14528 9.1111 6.70369 8.57301 6.44292 7.94346C6.18216 7.31392 6.11393 6.62118 6.24687 5.95285C6.3798 5.28453 6.70794 4.67063 7.18977 4.1888C7.67161 3.70696 8.28551 3.37883 8.95383 3.24589C9.62216 3.11295 10.3149 3.18118 10.9444 3.44195C11.574 3.70271 12.1121 4.14431 12.4906 4.71089C12.8692 5.27747 13.0713 5.94358 13.0713 6.625C13.0705 7.53827 12.7072 8.41387 12.0612 9.05938C11.4151 9.7049 10.5392 10.0675 9.62598 10.0675V10.0703ZM7.44629 6.625C7.44629 6.1939 7.57413 5.77248 7.81363 5.41403C8.05314 5.05558 8.39356 4.77621 8.79185 4.61123C9.19013 4.44626 9.6284 4.40309 10.0512 4.48719C10.474 4.5713 10.8624 4.77889 11.1672 5.08373C11.4721 5.38856 11.6797 5.77695 11.7638 6.19976C11.8479 6.62258 11.8047 7.06084 11.6397 7.45913C11.4748 7.85742 11.1954 8.19784 10.8369 8.43734C10.4785 8.67685 10.0571 8.80469 9.62598 8.80469C9.04789 8.80469 8.49348 8.57504 8.08471 8.16627C7.67593 7.7575 7.44629 7.20309 7.44629 6.625Z" fill="white"/>
</svg>
