<svg width="20" height="20" viewBox="0 0 20 20" fill="none" xmlns="http://www.w3.org/2000/svg">
<path d="M15.25 1H5.125C4.82687 1.00079 4.54119 1.11957 4.33038 1.33038C4.11957 1.54119 4.00079 1.82687 4 2.125V17.872C4.00079 18.1701 4.11957 18.4558 4.33038 18.6666C4.54119 18.8774 4.82687 18.9962 5.125 18.997H15.25C15.5478 18.9957 15.833 18.8767 16.0433 18.6659C16.2537 18.4552 16.3722 18.1698 16.373 17.872V2.125C16.3722 1.82722 16.2537 1.54183 16.0433 1.33108C15.833 1.12033 15.5478 1.00132 15.25 1ZM10.187 18.188C10.0139 18.188 9.84477 18.1367 9.70088 18.0405C9.55698 17.9444 9.44483 17.8077 9.3786 17.6478C9.31238 17.488 9.29505 17.312 9.32881 17.1423C9.36257 16.9726 9.44591 16.8167 9.56828 16.6943C9.69065 16.5719 9.84656 16.4886 10.0163 16.4548C10.186 16.4211 10.362 16.4384 10.5218 16.5046C10.6817 16.5708 10.8184 16.683 10.9145 16.8269C11.0107 16.9708 11.062 17.1399 11.062 17.313C11.062 17.5451 10.9698 17.7676 10.8057 17.9317C10.6416 18.0958 10.4191 18.188 10.187 18.188ZM15.249 15.625H5.125V3.25H15.25L15.249 15.625Z" fill="white"/>
</svg>
