<svg xmlns="http://www.w3.org/2000/svg" xmlns:xlink="http://www.w3.org/1999/xlink" width="95.836" height="69.997" viewBox="0 0 95.836 69.997">
  <defs>
    <linearGradient id="linear-gradient" x1="0.553" y1="-11.068" x2="0.385" y2="24.991" gradientUnits="objectBoundingBox">
      <stop offset="0" stop-color="#4fc8ee"/>
      <stop offset="0.24" stop-color="#4197d0"/>
      <stop offset="0.47" stop-color="#356fb7"/>
      <stop offset="0.68" stop-color="#2d52a5"/>
      <stop offset="0.87" stop-color="#28409a"/>
      <stop offset="1" stop-color="#263a96"/>
    </linearGradient>
    <linearGradient id="linear-gradient-2" x1="0.553" y1="-11.073" x2="0.385" y2="24.986" xlink:href="#linear-gradient"/>
    <linearGradient id="linear-gradient-3" x1="0.503" y1="-2.599" x2="0.496" y2="4.789" xlink:href="#linear-gradient"/>
    <linearGradient id="linear-gradient-4" x1="0.552" y1="-10.831" x2="0.384" y2="25.228" xlink:href="#linear-gradient"/>
    <linearGradient id="linear-gradient-5" x1="0.551" y1="-10.836" x2="0.384" y2="25.223" xlink:href="#linear-gradient"/>
    <linearGradient id="linear-gradient-6" x1="0.506" y1="-0.957" x2="0.476" y2="7.339" xlink:href="#linear-gradient"/>
    <linearGradient id="linear-gradient-7" x1="0.507" y1="-1.188" x2="0.475" y2="7.103" xlink:href="#linear-gradient"/>
    <linearGradient id="linear-gradient-8" x1="0.538" y1="-8.164" x2="0.389" y2="25.713" xlink:href="#linear-gradient"/>
    <linearGradient id="linear-gradient-9" x1="0.534" y1="-7.118" x2="0.385" y2="26.759" xlink:href="#linear-gradient"/>
    <linearGradient id="linear-gradient-10" x1="0.508" y1="-0.871" x2="0.475" y2="4.217" xlink:href="#linear-gradient"/>
    <linearGradient id="linear-gradient-11" x1="0.512" y1="-1.845" x2="0.47" y2="6.105" xlink:href="#linear-gradient"/>
  </defs>
  <g id="B" transform="translate(-235.085 -237.558)">
    <g id="Name" transform="translate(235.085 277.274)">
      <path id="Path_18708" data-name="Path 18708" d="M309.621,481.294a1.988,1.988,0,0,0,1.523-.667,2.468,2.468,0,0,0,.025-3.244,1.926,1.926,0,0,0-1.462-.643,2.109,2.109,0,0,0-1.557.677,2.2,2.2,0,0,0-.663,1.581,2.265,2.265,0,0,0,.635,1.625A2.007,2.007,0,0,0,309.621,481.294Z" transform="translate(-295.233 -475.976)" fill="url(#linear-gradient)"/>
      <path id="Path_18709" data-name="Path 18709" d="M279.031,481.293a1.988,1.988,0,0,0,1.523-.667,2.464,2.464,0,0,0,.024-3.244,1.919,1.919,0,0,0-1.461-.643,2.106,2.106,0,0,0-1.557.677A2.2,2.2,0,0,0,276.9,479a2.264,2.264,0,0,0,.635,1.625A2.005,2.005,0,0,0,279.031,481.293Z" transform="translate(-269.82 -475.975)" fill="url(#linear-gradient-2)"/>
      <path id="Path_18710" data-name="Path 18710" d="M318.061,521.054a12.537,12.537,0,0,0-6.643,2.6,10.674,10.674,0,0,0-3.554,5.954c-.107.452-.723,5.145-.433,5.147l14.367.029,2.2-3.762H311.136c-.015,0,.408-1.484.454-1.613,1.158-3.277,4.688-4.908,7.91-4.759a8.206,8.206,0,0,1,5.673,2.329c1.34,1.43,1.848,3.035,2.021,6.959.091,1.8-.846,2.662-2.818,2.589H290.583a8.278,8.278,0,0,0-.1-3.161,7.557,7.557,0,0,0-5.873-5.77,8.716,8.716,0,0,0-8.141,3.067,8.472,8.472,0,0,0-1.376,2.6,20.5,20.5,0,0,0-.579,3.265h-16.5V522.654h-3.444v2.539c0-.122-.733-.528-.846-.606a15.748,15.748,0,0,0-2.671-1.454,12.12,12.12,0,0,0-3.6-.911,11.553,11.553,0,0,0-3.248.181,9.582,9.582,0,0,0-3.6,1.378,15.592,15.592,0,0,0-2.642,2.226,10.421,10.421,0,0,0-2.718,5.306,10.667,10.667,0,0,0-.154,1.941,8.2,8.2,0,0,0,.191,2.031q.953,3.385,5.478,4.993l18.943-.029h13.983c2.369,0,3.762.357,3.93-1.5.41-2.458.416-5.4,2.679-6.97a4.81,4.81,0,0,1,4.245-.269,3.6,3.6,0,0,1,1.985,1.714,6.005,6.005,0,0,1,.372,4,1.762,1.762,0,0,1-.78,1.146,2.021,2.021,0,0,1-1.5.212l-5.153-2.975-.382,3.512,5.575,3.644a1.662,1.662,0,0,0,1.894-.047,10.645,10.645,0,0,0,.819-.7,12.4,12.4,0,0,0,.88-.885c.134-.149.264-.3.391-.454.047-.057.284-.437.339-.437h39.894c.9,0,1.635-2.589,1.753-3.216a18.736,18.736,0,0,0-.647-9.239,9.967,9.967,0,0,0-7.206-6.3A13.867,13.867,0,0,0,318.061,521.054Zm-63.549,14.8c-.032.438-.215.677-.538.711H241.531a3.016,3.016,0,0,1-2.847-2.239c-.905-2.759.66-6.13,3.062-7.6a9.418,9.418,0,0,1,8.78-.289C254.331,528.284,254.808,531.994,254.512,535.85Z" transform="translate(-235.085 -512.753)" fill="url(#linear-gradient-3)"/>
      <path id="Path_18711" data-name="Path 18711" d="M733.694,476.783a2,2,0,0,0,1.523-.669,2.454,2.454,0,0,0,.029-3.243,1.925,1.925,0,0,0-1.467-.643,2.124,2.124,0,0,0-1.557.677,2.2,2.2,0,0,0-.663,1.581,2.285,2.285,0,0,0,.635,1.623A2.012,2.012,0,0,0,733.694,476.783Z" transform="translate(-647.533 -472.228)" fill="url(#linear-gradient-4)"/>
      <path id="Path_18712" data-name="Path 18712" d="M703.129,476.783a2,2,0,0,0,1.523-.668,2.459,2.459,0,0,0,.029-3.243,1.917,1.917,0,0,0-1.462-.643,2.128,2.128,0,0,0-1.562.677,2.2,2.2,0,0,0-.658,1.586,2.268,2.268,0,0,0,.64,1.623A1.99,1.99,0,0,0,703.129,476.783Z" transform="translate(-622.145 -472.229)" fill="url(#linear-gradient-5)"/>
    </g>
    <g id="Icon" transform="translate(263.548 237.558)">
      <path id="Path_18713" data-name="Path 18713" d="M433.111,244.837l-1.62,1.62-5.13-5.13a.338.338,0,0,0-.467,0l-19.995,20-1.589-1.589a.338.338,0,0,1,0-.467l21.614-21.619a.338.338,0,0,1,.467,0l6.719,6.719A.339.339,0,0,1,433.111,244.837Z" transform="translate(-404.056 -237.558)" fill="url(#linear-gradient-6)"/>
      <path id="Path_18714" data-name="Path 18714" d="M431.432,275.916l-1.576,1.576-3.652-3.651a.339.339,0,0,0-.469.012s-.885.838-.966.917l-19.091,19.1-1.6-1.6a.338.338,0,0,1,0-.469l21.616-21.619a.338.338,0,0,1,.469,0l5.263,5.265A.338.338,0,0,1,431.432,275.916Z" transform="translate(-403.861 -264.578)" fill="url(#linear-gradient-7)"/>
      <rect id="Rectangle_4634" data-name="Rectangle 4634" width="5.902" height="5.942" rx="0.48" transform="translate(34.564 23.579) rotate(45)" fill="url(#linear-gradient-8)"/>
      <rect id="Rectangle_4635" data-name="Rectangle 4635" width="5.902" height="5.942" rx="0.48" transform="translate(28.364 17.462) rotate(45)" fill="url(#linear-gradient-9)"/>
      <path id="Path_18715" data-name="Path 18715" d="M425.48,335.943l-4.976,4.977a.391.391,0,0,1-.069.041l-.272.276a.308.308,0,0,1-.438,0l-16.369-16.369a.339.339,0,0,1,0-.465l21.728-21.729a.339.339,0,0,1,.471,0l3.757,3.757a.338.338,0,0,1,0,.47l-17.788,17.788,8.43,8.425,1.354-1.354Z" transform="translate(-403.262 -291.574)" fill="url(#linear-gradient-10)"/>
      <path id="Path_18716" data-name="Path 18716" d="M493.672,395.246l-3.107,3.107a.757.757,0,0,1-1.076,0L475.9,384.761a.755.755,0,0,1,0-1.073l3.119-3.092c.024-.022.032-.041.056-.064l6.144-6.144a.024.024,0,0,0,.022-.014l.508-.508a.306.306,0,0,1,.438,0l10.114,10.1a.306.306,0,0,1,0,.438l-3.735,3.735a.028.028,0,0,0-.022.014l-2.153,2.161-4.179-4.182,1.956-1.957-2.188-2.19-2.249,2.249,9.94,9.933a.753.753,0,0,1,0,1.076Z" transform="translate(-463.422 -350.721)" fill="url(#linear-gradient-11)"/>
    </g>
  </g>
</svg>
