<svg width="20" height="21" viewBox="0 0 20 21" fill="none" xmlns="http://www.w3.org/2000/svg">
<path d="M6.61859 1.82516C5.92522 3.38238 5.54536 5.06094 5.50072 6.76497C5.45607 8.469 5.74751 10.1651 6.35839 11.7565C6.96927 13.3479 7.88763 14.8034 9.06103 16.0399C10.2344 17.2764 11.6399 18.2696 13.1972 18.9629C13.3359 19.0247 13.4915 19.0377 13.6386 18.9997C13.7856 18.9617 13.9155 18.875 14.007 18.7538L15.8035 16.3685C15.8985 16.2428 15.9462 16.0877 15.9383 15.9303C15.9304 15.773 15.8673 15.6234 15.7602 15.5079L13.4439 13.0036C13.3451 12.8967 13.2141 12.8248 13.0708 12.7989C12.9275 12.7729 12.7797 12.7943 12.6496 12.8597L10.6925 13.8445C9.12063 12.0201 8.23224 9.70582 8.17966 7.29824L10.293 6.72052C10.4335 6.68212 10.5576 6.59907 10.6467 6.4839C10.7359 6.36873 10.7851 6.22769 10.787 6.08208L10.8336 2.6708C10.8359 2.51326 10.7827 2.35994 10.6833 2.23771C10.5838 2.11547 10.4446 2.03211 10.2899 2.00224L7.36043 1.43328C7.21065 1.40457 7.05556 1.42775 6.92071 1.49898C6.78586 1.57021 6.67931 1.68526 6.61859 1.82516Z" fill="white"/>
</svg>
