<svg xmlns="http://www.w3.org/2000/svg" width="26.257" height="24.609" viewBox="0 0 26.257 24.609">
  <g id="Snap" transform="translate(0 -0.5)">
    <g id="Component_50_16" data-name="Component 50 – 16" transform="translate(0 0.5)">
      <path id="Path_8970" data-name="Path 8970" d="M25.1,17.513l-1.137-.441A4.927,4.927,0,0,1,20.9,12.808h2.28a1.538,1.538,0,0,0,0-3.077h-2.3L20.942,9A7.841,7.841,0,1,0,5.315,9l.067.731h-2.3a1.538,1.538,0,1,0,0,3.077H5.428l-.138.638A4.9,4.9,0,0,1,2.3,17.071l-1.052.412a1.582,1.582,0,0,0-1.115.9,1.659,1.659,0,0,0,.158,1.573c.621.95,2.016,1.3,3.177,1.524.294,1.281.973,1.849,2.019,1.689,2.293-.352,2.447-.173,3.273.422A13.9,13.9,0,0,0,10.413,24.6a7.114,7.114,0,0,0,2.689.509,7.561,7.561,0,0,0,3.033-.617c.183-.105.387-.243.612-.4a4.141,4.141,0,0,1,3.689-1.012,1.888,1.888,0,0,0,1.537-.152,2.043,2.043,0,0,0,.809-1.453c1.217-.243,2.834-.591,3.344-1.819a1.609,1.609,0,0,0-.044-1.366,1.512,1.512,0,0,0-.983-.78Zm0,0" transform="translate(0 -0.5)" fill="#29abe2"/>
    </g>
  </g>
</svg>
