<svg xmlns="http://www.w3.org/2000/svg" width="25.587" height="20.796" viewBox="0 0 25.587 20.796">
  <g id="Twitter" style="isolation: isolate">
    <path id="Icon_simple-twitter" data-name="Icon simple-twitter" d="M25.537,5.845a10.661,10.661,0,0,1-3.012.826,5.286,5.286,0,0,0,2.306-2.9A10.835,10.835,0,0,1,21.5,5.031a5.244,5.244,0,0,0-9.073,3.58,5.367,5.367,0,0,0,.135,1.2A14.855,14.855,0,0,1,1.748,4.344a5.14,5.14,0,0,0-.71,2.639A5.246,5.246,0,0,0,3.371,11.35,5.228,5.228,0,0,1,1,10.693v.065A5.248,5.248,0,0,0,5.2,15.9a5.293,5.293,0,0,1-2.358.091,5.263,5.263,0,0,0,4.908,3.643,10.52,10.52,0,0,1-6.505,2.244A11.133,11.133,0,0,1,0,21.81a14.92,14.92,0,0,0,8.056,2.355A14.816,14.816,0,0,0,22.98,9.255c0-.223,0-.448-.016-.672a10.592,10.592,0,0,0,2.623-2.716l-.05-.021Z" transform="translate(0 -3.369)" fill="#29abe2"/>
  </g>
</svg>
