<svg xmlns="http://www.w3.org/2000/svg" width="16" height="16" viewBox="0 0 16 16">
  <g id="X" transform="translate(-52.75 0.25)">
    <path id="Path_18736" data-name="Path 18736" d="M74.607,16.093a.317.317,0,0,1,0,.448L72.3,18.85l2.309,2.309a.317.317,0,1,1-.448.448L71.85,19.3l-2.309,2.309a.317.317,0,0,1-.448-.448L71.4,18.85l-2.309-2.309a.317.317,0,0,1,.448-.448L71.85,18.4l2.309-2.309A.317.317,0,0,1,74.607,16.093Z" transform="translate(-10.941 -10.941)" fill="#fff" fill-rule="evenodd"/>
    <path id="Path_18736_-_Outline" data-name="Path 18736 - Outline" d="M69.309,15.75a.555.555,0,0,1,.4.164l2.138,2.138,2.138-2.138a.559.559,0,1,1,.791.791l-2.138,2.138,2.138,2.138a.559.559,0,0,1-.791.791l-2.138-2.138L69.7,21.771a.559.559,0,1,1-.791-.791l2.138-2.138L68.914,16.7a.559.559,0,0,1,.4-.954Zm2.533,2.987-2.481-2.481a.074.074,0,0,0-.1.1l2.481,2.481-2.481,2.481a.074.074,0,0,0,.1.1l2.481-2.481,2.481,2.481a.074.074,0,0,0,.1-.1l-2.481-2.481,2.481-2.481a.074.074,0,1,0-.1-.1Z" transform="translate(-10.934 -10.934)" fill="#fff"/>
    <path id="Path_18737" data-name="Path 18737" d="M60.758.633a7.124,7.124,0,1,0,7.124,7.124A7.124,7.124,0,0,0,60.758.633ZM53,7.758a7.758,7.758,0,1,1,7.758,7.758A7.758,7.758,0,0,1,53,7.758Z" transform="translate(-0.008 -0.008)" fill="#fff" fill-rule="evenodd"/>
    <path id="Path_18737_-_Outline" data-name="Path 18737 - Outline" d="M60.75-.25a8,8,0,1,1-8,8A8.009,8.009,0,0,1,60.75-.25Zm0,15.515A7.515,7.515,0,1,0,53.235,7.75,7.524,7.524,0,0,0,60.75,15.265Zm0-14.882A7.367,7.367,0,1,1,53.383,7.75,7.375,7.375,0,0,1,60.75.383Zm0,14.249A6.882,6.882,0,1,0,53.868,7.75,6.89,6.89,0,0,0,60.75,14.632Z" fill="#fff"/>
  </g>
</svg>
