<svg xmlns="http://www.w3.org/2000/svg" width="17.768" height="17.767" viewBox="0 0 17.768 17.767">
  <path id="Path_18775" data-name="Path 18775" d="M10.061,10.061q-2.227,2.3-3.45,2.311L4.778,11a1.115,1.115,0,0,0-1.441.083L.351,13.9A1.124,1.124,0,0,0,.3,15.483l1.847,1.979a.327.327,0,0,0,.156.1q4.438,1.259,10.24-5.012,6.271-5.8,5.012-10.24a.327.327,0,0,0-.1-.156L15.483.3A1.124,1.124,0,0,0,13.9.352L11.086,3.338A1.115,1.115,0,0,0,11,4.778l1.368,1.832Q12.359,7.834,10.061,10.061Z" transform="translate(0)" fill="#2196f3" fill-rule="evenodd"/>
</svg>
