<svg xmlns="http://www.w3.org/2000/svg" width="60" height="60" viewBox="0 0 60 60">
  <g id="_100_" data-name="100+" transform="translate(-2 -2)">
    <path id="Path_10215" data-name="Path 10215" d="M55.92,20.8a7,7,0,1,0-7.84,0A10,10,0,0,0,42,30v5a1,1,0,0,0,1,1h4V34H44V30a8,8,0,0,1,16,0v4H57v2h4a1,1,0,0,0,1-1V30a10,10,0,0,0-6.08-9.2ZM47,15a5,5,0,1,1,5,5,5,5,0,0,1-5-5ZM3,36H7V34H4V30a8,8,0,0,1,16,0v4H17v2h4a1,1,0,0,0,1-1V30a10,10,0,0,0-6.08-9.2,7,7,0,1,0-7.84,0A10,10,0,0,0,2,30v5A1,1,0,0,0,3,36ZM7,15a5,5,0,1,1,5,5A5,5,0,0,1,7,15ZM22,52a1,1,0,0,0,1,1h4V51H24V47a8,8,0,0,1,16,0v4H37v2h4a1,1,0,0,0,1-1V47a10,10,0,0,0-6.08-9.2,7,7,0,1,0-7.84,0A10,10,0,0,0,22,47Zm5-20a5,5,0,1,1,5,5A5,5,0,0,1,27,32Zm-5-8h2a8,8,0,0,1,16,0h2a10,10,0,0,0-6.08-9.2,7,7,0,1,0-7.84,0A10,10,0,0,0,22,24ZM27,9a5,5,0,1,1,5,5,5,5,0,0,1-5-5Z" fill="#3c414b"/>
    <path id="Path_10216" data-name="Path 10216" d="M53,42.86a4,4,0,1,0-2,0V55H40v2H62V55H53ZM50,39a2,2,0,1,1,2,2A2,2,0,0,1,50,39ZM24,55H13V42.86a4,4,0,1,0-2,0V55H2v2H24ZM10,39a2,2,0,1,1,2,2A2,2,0,0,1,10,39ZM33,62V59.86A4,4,0,0,0,35.86,57H38V55H35.86A4,4,0,0,0,33,52.14V50H31v2.14A4,4,0,0,0,28.14,55H26v2h2.14A4,4,0,0,0,31,59.86V62Zm-3-6a2,2,0,1,1,2,2A2,2,0,0,1,30,56Z" fill="#3c414b"/>
  </g>
</svg>
