<svg xmlns="http://www.w3.org/2000/svg" width="57" height="57" viewBox="0 0 57 57">
  <g id="_200_" data-name="200+" transform="translate(-1 -1)">
    <g id="Group_5492" data-name="Group 5492" transform="translate(1 1)">
      <path id="Path_10213" data-name="Path 10213" d="M50.645,41.456V37.774a4.6,4.6,0,0,0-4.6-4.6H38.309a25.907,25.907,0,0,0,2.046-4.934l3.494-2.8A3.4,3.4,0,0,0,41.838,19.4l2.048-5.632A9.514,9.514,0,0,0,34.945,1h-7.8A31.139,31.139,0,0,0,10.625,5.736a.919.919,0,0,0,.2,1.655l2.217.735a2.362,2.362,0,0,1,1.445,3.117,4.2,4.2,0,0,0,.143,3.437L17,19.415a3.392,3.392,0,0,0-1.846,6.033l3.494,2.8a25.914,25.914,0,0,0,2.046,4.934H12.952a4.6,4.6,0,0,0-4.6,4.6v3.682A11.969,11.969,0,0,0,1,52.484v4.6A.919.919,0,0,0,1.919,58H57.081A.919.919,0,0,0,58,57.081v-4.6a11.969,11.969,0,0,0-7.355-11.028ZM36.855,19.387H31.339a.919.919,0,0,0-.919.919v.919H28.581v-.919a.919.919,0,0,0-.919-.919H19.387V18.04l5.739-3.826A7.5,7.5,0,0,1,29.3,12.952,9.393,9.393,0,0,0,35.144,10.9l1.5-1.2,1.578,2.366a8.245,8.245,0,0,1,1.39,4.589v2.733Zm-.919,1.839v2.758a.919.919,0,0,1-.919.919H33.177a.919.919,0,0,1-.919-.919V21.226Zm-9.194,0v2.758a.919.919,0,0,1-.919.919H23.984a.919.919,0,0,1-.919-.919V21.226ZM43.29,22.789a1.556,1.556,0,0,1-.587,1.222l-1.667,1.333a25.881,25.881,0,0,0,.4-4.118h.291A1.563,1.563,0,0,1,43.29,22.789Zm-27.1-10.864a4.2,4.2,0,0,0-2.574-5.543L13.34,6.29a29.293,29.293,0,0,1,13.8-3.451h7.8a7.676,7.676,0,0,1,7.215,10.3l-.8,2.2a10.084,10.084,0,0,0-1.608-4.292l-2.134-3.2a.919.919,0,0,0-1.339-.208L34,9.464a7.553,7.553,0,0,1-4.7,1.648,9.331,9.331,0,0,0-5.192,1.571l-6.148,4.1a.883.883,0,0,0-.156.135L16.27,13.857a2.366,2.366,0,0,1-.08-1.932ZM16.3,24.011a1.563,1.563,0,0,1,.976-2.786h.289a26.1,26.1,0,0,0,.4,4.119Zm3.1-2.786h1.825v2.758a2.758,2.758,0,0,0,2.758,2.758h1.839a2.758,2.758,0,0,0,2.758-2.758v-.919h1.839v.919a2.758,2.758,0,0,0,2.758,2.758h1.839a2.758,2.758,0,0,0,2.758-2.758V21.226H39.6a24.087,24.087,0,0,1-3.411,11.952H22.813A24.087,24.087,0,0,1,19.4,21.226Zm-6.449,13.79h33.1a2.758,2.758,0,0,1,2.758,2.758V56.161H10.194V37.774a2.758,2.758,0,0,1,2.758-2.758ZM2.839,52.484a10.13,10.13,0,0,1,5.516-9V56.161H2.839Zm53.323,3.677H50.645V43.48a10.131,10.131,0,0,1,5.516,9Z" transform="translate(-1 -1)" fill="#3c414b"/>
      <path id="Path_10214" data-name="Path 10214" d="M31.113,56.491a3.677,3.677,0,1,0-3.677-3.677A3.677,3.677,0,0,0,31.113,56.491Zm0-5.516a1.839,1.839,0,1,1-1.839,1.839A1.839,1.839,0,0,1,31.113,50.975Zm-6.167-3.027,1.3-1.3L23.219,43.62l3.027-3.027-1.3-1.3-3.677,3.677a.919.919,0,0,0,0,1.3Zm12.333,0,3.677-3.677a.919.919,0,0,0,0-1.3l-3.677-3.677-1.3,1.3,3.027,3.027-3.027,3.027Zm-9.661-1.2L33.134,39.4l1.471,1.1-5.516,7.355Z" transform="translate(-2.613 -4.088)" fill="#3c414b"/>
    </g>
  </g>
</svg>
