<svg xmlns="http://www.w3.org/2000/svg" width="66.5" height="66.497" viewBox="0 0 66.5 66.497">
  <g id="_500_" data-name="500+" transform="translate(0.007 -0.01)">
    <g id="Group_5491" data-name="Group 5491" transform="translate(-0.007 0.01)">
      <path id="Path_10211" data-name="Path 10211" d="M64.129,57.082a1.373,1.373,0,0,1-1.152.58h-14.5a15.4,15.4,0,0,0-1.491-4.477,9.752,9.752,0,0,1,17.352,2.629A1.367,1.367,0,0,1,64.129,57.082ZM46.537,61.614a2.817,2.817,0,0,1-2.813,2.814H22.761a2.818,2.818,0,0,1-2.815-2.814V58.757A13.344,13.344,0,0,1,33.239,46.873h.006A13.343,13.343,0,0,1,46.537,58.757v2.857ZM18,57.661H3.506a1.362,1.362,0,0,1-1.15-.58,1.361,1.361,0,0,1-.214-1.268,9.752,9.752,0,0,1,17.352-2.629A15.339,15.339,0,0,0,18,57.661ZM11.455,38.045A4.415,4.415,0,1,1,7.04,42.46a4.42,4.42,0,0,1,4.415-4.415Zm15.536.5a6.251,6.251,0,1,1,6.254,6.25h-.006A6.258,6.258,0,0,1,26.991,38.544Zm28.037-.5a4.415,4.415,0,1,1-4.415,4.415A4.418,4.418,0,0,1,55.028,38.045ZM66.328,55.2a11.848,11.848,0,0,0-7.3-7.63,6.494,6.494,0,1,0-8.008,0,11.708,11.708,0,0,0-5.2,3.709,15.458,15.458,0,0,0-7.991-5.783,8.329,8.329,0,1,0-9.179,0,15.486,15.486,0,0,0-7.992,5.782,11.7,11.7,0,0,0-5.2-3.709,6.493,6.493,0,1,0-8.007,0,11.773,11.773,0,0,0-3.082,1.661A11.932,11.932,0,0,0,.157,55.2a3.43,3.43,0,0,0,.528,3.117,3.427,3.427,0,0,0,2.821,1.425H17.869v1.876a4.9,4.9,0,0,0,4.893,4.892H43.724a4.9,4.9,0,0,0,4.891-4.892V59.739H62.977A3.5,3.5,0,0,0,66.328,55.2ZM7.391,16.395a1.477,1.477,0,0,0,1.308-.95l1.53-4.031,1.53,4.031a1.477,1.477,0,0,0,1.308.95l4.3.21-3.36,2.7a1.473,1.473,0,0,0-.5,1.537L14.644,25l-3.607-2.362a1.476,1.476,0,0,0-1.616,0L5.814,25l1.131-4.16a1.475,1.475,0,0,0-.5-1.537L3.085,16.6Zm-6.846.834,4.292,3.448L3.392,25.99a1.475,1.475,0,0,0,2.232,1.621L10.229,24.6l4.606,3.015a1.475,1.475,0,0,0,2.231-1.621l-1.444-5.312,4.29-3.448a1.475,1.475,0,0,0-.852-2.623l-5.5-.268L11.608,9.192a1.475,1.475,0,0,0-2.759,0L6.9,14.338l-5.5.268a1.475,1.475,0,0,0-.853,2.623Zm52.872-.834a1.476,1.476,0,0,0,1.308-.95l1.53-4.031,1.531,4.031a1.473,1.473,0,0,0,1.306.95l4.307.21-3.358,2.7a1.474,1.474,0,0,0-.5,1.537L60.673,25l-3.611-2.361a1.474,1.474,0,0,0-1.615,0L51.84,25l1.132-4.16a1.477,1.477,0,0,0-.5-1.537l-3.359-2.7Zm-6.846.834,4.291,3.448L49.418,25.99a1.475,1.475,0,0,0,2.232,1.621L56.255,24.6l4.608,3.015a1.475,1.475,0,0,0,2.23-1.621l-1.446-5.312,4.289-3.448a1.472,1.472,0,0,0-.852-2.623l-5.5-.268L57.634,9.192a1.475,1.475,0,0,0-2.759,0l-1.953,5.146-5.5.268a1.475,1.475,0,0,0-.854,2.623ZM22.161,5.8a1.038,1.038,0,0,1,1.467-.077l4.249,3.826a1.039,1.039,0,1,1-1.391,1.544L22.237,7.269A1.038,1.038,0,0,1,22.161,5.8Zm16.37,5.217a1.039,1.039,0,0,1,.077-1.467l4.25-3.826a1.039,1.039,0,1,1,1.39,1.544L40,11.095a1.04,1.04,0,0,1-1.468-.077ZM32.2,4.862V1.049a1.039,1.039,0,1,1,2.078,0V4.862a1.039,1.039,0,0,1-2.078,0ZM30.4,16.395a1.476,1.476,0,0,0,1.308-.95l1.53-4.031,1.531,4.031a1.474,1.474,0,0,0,1.307.95l4.306.21-3.361,2.7a1.473,1.473,0,0,0-.5,1.537L37.658,25,34.05,22.641a1.478,1.478,0,0,0-1.615,0L28.827,25l1.13-4.16a1.474,1.474,0,0,0-.5-1.537L26.1,16.6Zm-7.324-.771a1.463,1.463,0,0,0,.478,1.605l4.291,3.448L26.4,25.99a1.475,1.475,0,0,0,2.232,1.621L33.242,24.6l4.606,3.015a1.475,1.475,0,0,0,2.231-1.621l-1.444-5.312,4.291-3.448a1.475,1.475,0,0,0-.852-2.623l-5.5-.268L34.621,9.192a1.475,1.475,0,0,0-2.759,0l-1.953,5.146-5.5.268a1.463,1.463,0,0,0-1.331,1.017Z" transform="translate(0.007 -0.01)" fill="#3c414b" fill-rule="evenodd"/>
    </g>
  </g>
</svg>
