<svg id="_6_" data-name="6+" xmlns="http://www.w3.org/2000/svg" xmlns:xlink="http://www.w3.org/1999/xlink" width="58.715" height="47.409" viewBox="0 0 58.715 47.409">
  <defs>
    <clipPath id="clip-path">
      <rect id="Rectangle_3653" data-name="Rectangle 3653" width="58.715" height="47.409" fill="#3c414b"/>
    </clipPath>
  </defs>
  <g id="Group_5495" data-name="Group 5495" clip-path="url(#clip-path)">
    <path id="Path_10217" data-name="Path 10217" d="M55.486,2.028H44.11V.448a.448.448,0,0,0-.9,0V2.028H35.9V.448a.448.448,0,0,0-.9,0V2.028H27.681V.448a.448.448,0,0,0-.9,0V2.028H19.467V.448a.448.448,0,0,0-.9,0V2.028H9.681A3.232,3.232,0,0,0,6.452,5.256V35.132H.538A.539.539,0,0,0,0,35.669a6.993,6.993,0,0,0,6.452,6.97v1.54a3.233,3.233,0,0,0,3.229,3.229h45.8v0a3.233,3.233,0,0,0,3.229-3.229V5.256a3.232,3.232,0,0,0-3.229-3.228m0,1.076a2.175,2.175,0,0,1,.639.1c.034.011.068.022.1.034a2.176,2.176,0,0,1,.782.5,2.144,2.144,0,0,1,.419.589c.023.047.045.1.063.143s.037.1.053.15.03.1.041.154a2.184,2.184,0,0,1,.055.485v8.1H51.831v-8.1A3.208,3.208,0,0,0,51.005,3.1ZM50.758,35.445a.529.529,0,0,0-.05.225,5.921,5.921,0,0,1-5.914,5.914h0a5.92,5.92,0,0,1-5.912-5.914.539.539,0,0,0-.538-.538H36.274a8.546,8.546,0,0,0,.5-3.052v-.016a7.151,7.151,0,0,0-1.5-4.849A5.326,5.326,0,0,0,31.041,25.5a4.423,4.423,0,0,0-.8.069l4.342-8.994H29.892l-4.463,9.47a17.548,17.548,0,0,0-1.119,3.094,11.983,11.983,0,0,0-.408,3v.016a8.422,8.422,0,0,0,.483,2.976H14.409v-20.7H50.758Zm-49.036.763v0H37.344a.535.535,0,0,1,.531.459,7.014,7.014,0,0,0,3.195,4.917H6.988q-.272,0-.537-.024a5.922,5.922,0,0,1-5.261-4.72.535.535,0,0,1,.531-.63m26.324-3.855v-.015a3.28,3.28,0,0,1,.6-2.1,2.032,2.032,0,0,1,1.687-.749,2.056,2.056,0,0,1,1.71.741,3.278,3.278,0,0,1,.589,2.088v.015a2.6,2.6,0,0,1-.589,1.822,2.576,2.576,0,0,1-3.4.008,2.551,2.551,0,0,1-.6-1.815M18.571,3.1V5.988c0,.006,0,.011,0,.017a1.522,1.522,0,0,0-.835.581,1.374,1.374,0,0,0-.115.19,0,0,0,0,0,0,0,0,0,0,0,0,0,0,1.412,1.412,0,0,0-.092.232,1.522,1.522,0,0,0-.062.414,1.536,1.536,0,0,0,1.118,1.479,1.51,1.51,0,1,0,.879-2.888c0-.01,0-.02,0-.03V3.1h7.318V5.988c0,.006,0,.012,0,.018a1.526,1.526,0,0,0-.811.547,1.461,1.461,0,0,0-.233.46,1.389,1.389,0,0,0-.061.37A1.552,1.552,0,0,0,26.8,8.906a1.51,1.51,0,1,0,.879-2.888c0-.01,0-.02,0-.03V3.1H35V5.988c0,.006,0,.011,0,.017a1.527,1.527,0,0,0-.815.553,1.445,1.445,0,0,0-.228.454,1.489,1.489,0,0,0-.061.377,1.551,1.551,0,0,0,1.117,1.516,1.51,1.51,0,1,0,.879-2.888c0-.01,0-.02,0-.03V3.1h7.318V5.988c0,.006,0,.012,0,.018a1.523,1.523,0,0,0-.835.581,1.449,1.449,0,0,0-.209.427,1.522,1.522,0,0,0-.062.414,1.553,1.553,0,0,0,1.118,1.479,1.51,1.51,0,1,0,.879-2.889c0-.01,0-.019,0-.03V3.1h4.5a2.159,2.159,0,0,1,.636.1c.055.017.109.037.162.057a2.16,2.16,0,0,1,1.352,2v8.1H14.409v-8.1a2.123,2.123,0,0,1,.1-.636l.01-.032a0,0,0,0,1,0,0,0,0,0,0,1,0,0,1.709,1.709,0,0,1,.081-.209h0a.33.33,0,0,1,.021-.046A2.151,2.151,0,0,1,16.562,3.1h2.009Zm.644,3.7a.681.681,0,1,1-.391,1.305.709.709,0,0,1-.42-.338.663.663,0,0,1,.172-.85.708.708,0,0,1,.639-.117m8.214,0a.682.682,0,1,1-.392,1.305.7.7,0,0,1-.43-.361.665.665,0,0,1-.046-.493.672.672,0,0,1,.25-.35.711.711,0,0,1,.618-.1m8.214,0a.681.681,0,1,1-.391,1.305.714.714,0,0,1-.43-.357.663.663,0,0,1,.2-.844.708.708,0,0,1,.622-.1m8.215,0a.681.681,0,1,1-.391,1.305.709.709,0,0,1-.42-.338.663.663,0,0,1,.172-.85.708.708,0,0,1,.639-.117M7.529,5.256a2.142,2.142,0,0,1,.631-1.519,2.105,2.105,0,0,1,.5-.372A2.133,2.133,0,0,1,9.681,3.1h4.478a3.1,3.1,0,0,0-.4.552,3.154,3.154,0,0,0-.347.893,3.2,3.2,0,0,0-.079.708v8.1h-5.8Zm0,9.173h5.8v20.7h-5.8Zm2.153,31.9a2.154,2.154,0,0,1-2.153-2.153V42.66h5.8V44.18a3.212,3.212,0,0,0,.822,2.15Zm6.881,0a2.155,2.155,0,0,1-2.153-2.153V42.66H44.793a6.991,6.991,0,0,0,5.964-3.347v2.375a4.648,4.648,0,0,1-4.642,4.642Zm41.077-2.153a2.154,2.154,0,0,1-2.153,2.153H49.453a5.714,5.714,0,0,0,2.378-4.639V14.429h5.807Z" fill="#3c414b"/>
  </g>
</svg>
