<svg xmlns="http://www.w3.org/2000/svg" width="172.738" height="266.612" viewBox="0 0 172.738 266.612">
  <g id="First" transform="translate(1261.165 7425.981)">
    <path id="Path_9479" data-name="Path 9479" d="M2198.829,3.524a1.758,1.758,0,0,0,1.741-1.743,2,2,0,0,0-.132-.686,1.589,1.589,0,0,0-.37-.554,1.8,1.8,0,0,0-2.481,0,1.756,1.756,0,0,0-.5,1.24,1.737,1.737,0,0,0,.5,1.215,1.711,1.711,0,0,0,1.241.528" transform="translate(-3288.998 -7426.027)" fill="#fff"/>
    <path id="Path_9480" data-name="Path 9480" d="M2000.192,266.722h0a1.745,1.745,0,1,1,.237-3.483,1.743,1.743,0,0,1,1.612,1.874,1.722,1.722,0,0,1-1.848,1.609m-9.214-1h0a.76.76,0,0,1-.237-.025,1.734,1.734,0,1,1,1.98-1.451,1.761,1.761,0,0,1-1.743,1.477m-9.239-1.662h0a1.9,1.9,0,0,1-.369-.054,1.686,1.686,0,1,1,.369.054m-9.081-2.323h0a1.749,1.749,0,0,1-.5-.08,1.726,1.726,0,0,1-1.162-2.165,1.75,1.75,0,0,1,2.164-1.186,1.756,1.756,0,0,1-.5,3.431m-8.895-2.983h0a1.857,1.857,0,0,1-.635-.132h.026a1.734,1.734,0,1,1,2.244-1.005,1.792,1.792,0,0,1-1.635,1.137m-8.659-3.617h0a1.857,1.857,0,0,1-.739-.16,1.737,1.737,0,0,1-.846-2.323,1.706,1.706,0,0,1,2.3-.843,1.737,1.737,0,0,1-.713,3.326m-8.4-4.225h0a1.588,1.588,0,0,1-.817-.209,1.777,1.777,0,0,1-.713-2.377,1.748,1.748,0,0,1,3.061,1.688,1.707,1.707,0,0,1-1.531.9m-8.051-4.8h0a1.844,1.844,0,0,1-.95-.265,1.768,1.768,0,0,1-.5-2.429,1.747,1.747,0,0,1,2.93,1.9,1.733,1.733,0,0,1-1.479.792m-7.682-5.359h0a1.931,1.931,0,0,1-1.056-.343,1.76,1.76,0,0,1-.343-2.454,1.745,1.745,0,1,1,1.4,2.8m-7.312-5.914h0a1.683,1.683,0,0,1-1.134-.422,1.726,1.726,0,0,1-.186-2.454,1.741,1.741,0,1,1,2.64,2.271,1.734,1.734,0,0,1-1.32.606m-6.863-6.388h0a1.648,1.648,0,0,1-1.214-.528,1.735,1.735,0,1,1,2.454,0,1.752,1.752,0,0,1-1.24.528m-6.389-6.888h0a1.773,1.773,0,0,1-1.32-.608,1.741,1.741,0,0,1,2.64-2.271,1.729,1.729,0,0,1-1.32,2.879m-5.886-7.313h0a1.742,1.742,0,1,1,1.4-2.8,1.739,1.739,0,0,1-1.4,2.8m-5.333-7.708h0a1.764,1.764,0,1,1,.924-.291,1.726,1.726,0,0,1-.924.291m-4.8-8.1h0a1.715,1.715,0,0,1-1.531-.9,1.743,1.743,0,0,1,.687-2.374,1.773,1.773,0,0,1,2.375.712,1.727,1.727,0,0,1-.687,2.348,1.652,1.652,0,0,1-.844.211m-4.2-8.394h0a1.8,1.8,0,0,1-1.611-1,1.755,1.755,0,0,1,3.2-1.451,1.746,1.746,0,0,1-1.584,2.454m-3.591-8.685h0a1.744,1.744,0,0,1-.607-3.38,1.746,1.746,0,0,1,1.216,3.274,1.634,1.634,0,0,1-.608.106m-2.955-8.9h0a1.755,1.755,0,0,1-.5-3.431,1.75,1.75,0,0,1,2.164,1.188,1.708,1.708,0,0,1-1.188,2.163,1.451,1.451,0,0,1-.474.08m-2.324-9.107h0a1.7,1.7,0,1,1,.37-.026,1.659,1.659,0,0,1-.37.026m-1.635-9.239h0a1.73,1.73,0,0,1-1.716-1.5,1.745,1.745,0,1,1,3.457-.477,1.727,1.727,0,0,1-1.477,1.954,1.012,1.012,0,0,1-.264.026m-.977-9.345h0a1.715,1.715,0,0,1-1.742-1.609,1.747,1.747,0,1,1,3.485-.237,1.738,1.738,0,0,1-1.611,1.846Zm-.317-9.371h0a1.739,1.739,0,0,1-1.741-1.743,1.721,1.721,0,0,1,1.741-1.74,1.739,1.739,0,0,1,1.742,1.74,1.758,1.758,0,0,1-1.742,1.743m.343-9.371h-.132a1.761,1.761,0,0,1-1.609-1.874,1.705,1.705,0,0,1,1.847-1.611,1.743,1.743,0,0,1,1.637,1.848,1.773,1.773,0,0,1-1.743,1.637m1-9.345h-.264A1.768,1.768,0,0,1,1878,114.7a1.714,1.714,0,0,1,1.98-1.477,1.737,1.737,0,0,1-.237,3.457m1.663-9.239h0a2.039,2.039,0,0,1-.4-.026,1.826,1.826,0,1,1,.4.026m2.323-9.082h0a1.568,1.568,0,0,1-.5-.077,1.715,1.715,0,1,1,.5.077m2.957-8.922h0a1.62,1.62,0,0,1-.607-.106,1.745,1.745,0,1,1,2.244-1.029,1.727,1.727,0,0,1-1.637,1.134m3.59-8.657h0a1.415,1.415,0,0,1-.713-.16,1.74,1.74,0,0,1-.871-2.3,1.772,1.772,0,0,1,2.324-.871,1.745,1.745,0,0,1-.74,3.328m4.224-8.368h0a1.908,1.908,0,0,1-.844-.211,1.746,1.746,0,0,1-.687-2.377,1.706,1.706,0,0,1,2.35-.686,1.761,1.761,0,0,1,.712,2.374,1.8,1.8,0,0,1-1.531.9m4.778-8.079h0a1.863,1.863,0,0,1-.95-.263,1.771,1.771,0,0,1-.5-2.428,1.738,1.738,0,0,1,2.4-.5,1.731,1.731,0,0,1-.95,3.194m5.358-7.682h0a1.754,1.754,0,0,1-1.028-.368,1.734,1.734,0,1,1,2.085-2.771,1.7,1.7,0,0,1,.343,2.428,1.75,1.75,0,0,1-1.4.712m5.914-7.311h0a1.728,1.728,0,0,1-1.32-2.877,1.74,1.74,0,1,1,2.64,2.268,1.77,1.77,0,0,1-1.32.608m6.388-6.865h0a1.75,1.75,0,1,1,1.241-2.982,1.725,1.725,0,0,1,0,2.457,1.765,1.765,0,0,1-1.241.526m6.889-6.414h0a1.712,1.712,0,0,1-1.32-.58,1.781,1.781,0,0,1,.159-2.482,1.755,1.755,0,0,1,2.481.186,1.774,1.774,0,0,1-.184,2.454,1.734,1.734,0,0,1-1.136.422m7.312-5.885h0a1.735,1.735,0,0,1-1.056-3.143,1.731,1.731,0,0,1,2.429.343,1.757,1.757,0,0,1-.343,2.454,1.713,1.713,0,0,1-1.03.345m7.708-5.359h0a1.8,1.8,0,0,1-1.477-.792,1.751,1.751,0,0,1,.527-2.428,1.738,1.738,0,1,1,1.874,2.928,1.529,1.529,0,0,1-.924.292m8.052-4.805h0a1.743,1.743,0,0,1-1.531-.9,1.772,1.772,0,0,1,.713-2.377,1.709,1.709,0,0,1,2.35.689,1.744,1.744,0,0,1-.687,2.374,1.6,1.6,0,0,1-.844.211m8.421-4.2h0a1.755,1.755,0,1,1,.713-.157,1.743,1.743,0,0,1-.713.157m8.658-3.617h0a1.728,1.728,0,0,1-1.636-1.134,1.745,1.745,0,1,1,3.272-1.214,1.727,1.727,0,0,1-1.03,2.243,1.53,1.53,0,0,1-.607.106m8.923-2.957h0a1.719,1.719,0,0,1-1.664-1.265,1.69,1.69,0,0,1,1.161-2.14,1.738,1.738,0,1,1,1,3.328,1.851,1.851,0,0,1-.5.077M1982,6.916h0a1.749,1.749,0,0,1-1.715-1.371,1.742,1.742,0,0,1,3.405-.74,1.752,1.752,0,0,1-1.32,2.085,1.906,1.906,0,0,1-.37.026m9.239-1.637h0a1.751,1.751,0,0,1-.265-3.483,1.747,1.747,0,1,1,.5,3.457.748.748,0,0,1-.238.026m9.45-1h0a1.78,1.78,0,0,1-1.874-1.611,1.766,1.766,0,0,1,1.609-1.874A1.732,1.732,0,0,1,2002.3,2.4a1.729,1.729,0,0,1-1.61,1.874" transform="translate(-3100.129 -7426.462)" fill="#fff"/>
    <path id="Path_9481" data-name="Path 9481" d="M2198.829,644.367a1.834,1.834,0,0,0,.66-.134,2.9,2.9,0,0,0,.58-.395,1.588,1.588,0,0,0,.37-.554,1.792,1.792,0,0,0,0-1.348,1.613,1.613,0,0,0-.37-.554,1.8,1.8,0,0,0-1.9-.395,1.882,1.882,0,0,0-.582.395,1.62,1.62,0,0,0-.37.554,1.48,1.48,0,0,0-.132.66,1.516,1.516,0,0,0,.132.688,1.6,1.6,0,0,0,.37.554,1.721,1.721,0,0,0,1.241.528" transform="translate(-3288.998 -7803.736)" fill="#fff"/>
    <path id="Path_9482" data-name="Path 9482" d="M2030.928,272.985a1.745,1.745,0,1,0,0-3.49,115.2,115.2,0,1,1,0-230.4,1.745,1.745,0,1,0,0-3.49,118.692,118.692,0,1,0,0,237.383" transform="translate(-3121.103 -7446.984)" fill="#fff"/>
    <path id="Path_9483" data-name="Path 9483" d="M1791.576,323.922h50.257a1.745,1.745,0,0,0,0-3.49h-50.257a1.745,1.745,0,0,0,0,3.49" transform="translate(-3048.956 -7614.867)" fill="#fff"/>
    <path id="Path_9484" data-name="Path 9484" d="M1800.214,318.468l2.381-2.557-12.609-11.718,12.609-11.721-2.381-2.557-15.354,14.278Z" transform="translate(-3046.025 -7596.88)" fill="#fff"/>
  </g>
</svg>
