<svg xmlns="http://www.w3.org/2000/svg" width="124.959" height="99.533" viewBox="0 0 124.959 99.533">
  <g id="Circles-Small" transform="translate(916.868 2773.847) rotate(167)">
    <path id="Path_9364" data-name="Path 9364" d="M26.265,0C51.156,1.028,52.529,11.759,52.529,26.265A26.265,26.265,0,0,1,0,26.265C0,11.759,1.374-1.028,26.265,0Z" transform="translate(239.314 2902.012) rotate(-131)" fill="#65c7ee"/>
    <path id="Path_9365" data-name="Path 9365" d="M9.348,0C13.113-1.608,18.7,4.185,18.7,9.348a9.348,9.348,0,0,1-18.7,0C0,4.185,5.582,1.608,9.348,0Z" transform="translate(229.149 2824.363) rotate(-131)" fill="#29abe2"/>
    <path id="Path_9366" data-name="Path 9366" d="M20,0c11.048,0,18.459,1.091,20,20s-8.956,20-20,20A20,20,0,1,1,20,0Z" transform="translate(181.747 2877.557) rotate(-131)" fill="#2b94d9"/>
  </g>
</svg>
