<svg xmlns="http://www.w3.org/2000/svg" width="170.011" height="174.974" viewBox="0 0 170.011 174.974">
  <g id="Circles-Large" transform="translate(-155.488 -2727.111)">
    <path id="Path_9367" data-name="Path 9367" d="M35.574,0C55.221,0,70.21,5.488,71.148,35.574S55.221,71.148,35.574,71.148A35.574,35.574,0,1,1,35.574,0Z" transform="translate(247.617 2840.7) rotate(-131)" fill="#65c7ee"/>
    <path id="Path_9368" data-name="Path 9368" d="M26.265,0a26.265,26.265,0,1,1,0,52.529C11.759,52.529-1.35,49.894,0,26.265S11.759,0,26.265,0Z" transform="translate(239.314 2902.012) rotate(-131)" fill="#65c7ee"/>
    <path id="Path_9370" data-name="Path 9370" d="M9.348,0C18.782.005,18.7,4.185,18.7,9.348a9.348,9.348,0,0,1-18.7,0C0,4.185-.087-.005,9.348,0Z" transform="translate(311.389 2753.486) rotate(-131)" fill="#29abe2"/>
    <path id="Path_9369" data-name="Path 9369" d="M20,0c19.077-.444,20,8.956,20,20A20,20,0,0,1,0,20C0,8.956.926.444,20,0Z" transform="translate(181.747 2877.557) rotate(-131)" fill="#2b94d9"/>
  </g>
</svg>
