<svg xmlns="http://www.w3.org/2000/svg" width="135.051" height="266.624" viewBox="0 0 135.051 266.624">
  <g id="Last" transform="translate(1994 7425.994)">
    <path id="Path_9497" data-name="Path 9497" d="M322.178,3.5a1.653,1.653,0,0,0,1.214-.528,1.658,1.658,0,0,0,.528-1.215,1.756,1.756,0,0,0-.5-1.24,1.788,1.788,0,0,0-1.927-.369,1.574,1.574,0,0,0-.555.369,1.76,1.76,0,0,0-.5,1.24,1.634,1.634,0,0,0,.5,1.215,1.713,1.713,0,0,0,1.242.528" transform="translate(-2182.87 -7426.008)" fill="#fff"/>
    <path id="Path_9498" data-name="Path 9498" d="M123.541,266.722h0a1.745,1.745,0,1,1,.239-3.483,1.743,1.743,0,0,1,1.61,1.874,1.721,1.721,0,0,1-1.848,1.609m-9.212-1h0a.759.759,0,0,1-.238-.025,1.732,1.732,0,0,1,.475-3.431,1.726,1.726,0,0,1,1.5,1.952,1.759,1.759,0,0,1-1.741,1.505m-9.239-1.662h0a1.914,1.914,0,0,1-.37-.054,1.686,1.686,0,1,1,.37.054m-9.08-2.349h0a1.591,1.591,0,0,1-.5-.054,1.745,1.745,0,1,1,.977-3.351,1.736,1.736,0,0,1-.475,3.405m-8.923-2.957h0a1.845,1.845,0,0,1-.607-.132,1.681,1.681,0,1,1,.607.132m-8.632-3.617h0a1.856,1.856,0,0,1-.739-.16,1.769,1.769,0,0,1-.871-2.323,1.754,1.754,0,0,1,3.194,1.451,1.719,1.719,0,0,1-1.584,1.031m-8.394-4.225h0a1.623,1.623,0,0,1-.846-.209,1.77,1.77,0,0,1-.686-2.377,1.749,1.749,0,0,1,3.063,1.688,1.709,1.709,0,0,1-1.531.9m-8.052-4.8h0a1.782,1.782,0,0,1-.95-.265,1.8,1.8,0,0,1-.528-2.429,1.758,1.758,0,1,1,1.479,2.694M54.3,240.747h0a1.918,1.918,0,0,1-1.03-.343,1.763,1.763,0,0,1-.343-2.454,1.735,1.735,0,1,1,2.773,2.086,1.685,1.685,0,0,1-1.4.712m-7.285-5.914h0a1.686,1.686,0,0,1-1.136-.422,1.726,1.726,0,0,1-.184-2.454,1.741,1.741,0,1,1,2.64,2.271,1.778,1.778,0,0,1-1.32.606m-6.864-6.414h0a1.73,1.73,0,0,1-1.241-2.957,1.754,1.754,0,0,1,2.481,0,1.73,1.73,0,0,1-1.24,2.957m-6.388-6.862h0a1.769,1.769,0,0,1-1.32-.608,1.741,1.741,0,0,1,2.64-2.271,1.729,1.729,0,0,1-1.32,2.879m-5.887-7.313h0a1.743,1.743,0,1,1,1.4-2.8,1.739,1.739,0,0,1-1.4,2.8m-5.359-7.708h0a1.762,1.762,0,1,1,.951-.291,1.747,1.747,0,0,1-.951.291m-4.778-8.1h0a1.711,1.711,0,0,1-1.53-.9,1.742,1.742,0,0,1,.686-2.374,1.774,1.774,0,0,1,2.376.712,1.737,1.737,0,0,1-.713,2.348,1.564,1.564,0,0,1-.818.211m-4.223-8.394h0a1.734,1.734,0,0,1-1.584-1,1.754,1.754,0,1,1,3.194-1.451,1.74,1.74,0,0,1-.871,2.3,1.763,1.763,0,0,1-.739.157m-3.564-8.685h0a1.744,1.744,0,0,1-.607-3.38A1.752,1.752,0,0,1,11.589,179a1.773,1.773,0,0,1-1.03,2.243,1.726,1.726,0,0,1-.607.106M7,172.456H7a1.773,1.773,0,0,1-1.69-1.265,1.746,1.746,0,1,1,3.352-.977,1.727,1.727,0,0,1-1.187,2.163,1.459,1.459,0,0,1-.475.08m-2.323-9.107h0a1.72,1.72,0,0,1-1.69-1.372,1.742,1.742,0,1,1,2.059,1.346,1.657,1.657,0,0,1-.37.026m-1.637-9.239h0a1.732,1.732,0,0,1-1.715-1.5,1.766,1.766,0,0,1,1.478-1.98,1.766,1.766,0,0,1,1.98,1.5,1.73,1.73,0,0,1-1.506,1.954.741.741,0,0,1-.237.026m-.977-9.345h0a1.714,1.714,0,0,1-1.741-1.609,1.744,1.744,0,0,1,1.61-1.874A1.765,1.765,0,0,1,3.8,142.918a1.742,1.742,0,0,1-1.637,1.846Zm-.316-9.371h0A1.74,1.74,0,0,1,0,133.651a1.722,1.722,0,0,1,1.743-1.74,1.738,1.738,0,0,1,1.741,1.74,1.757,1.757,0,0,1-1.741,1.743m.343-9.371H1.953a1.744,1.744,0,0,1-1.61-1.874,1.707,1.707,0,0,1,1.848-1.611,1.743,1.743,0,0,1,1.636,1.848,1.773,1.773,0,0,1-1.741,1.637m.977-9.345h0a.75.75,0,0,1-.238-.026,1.734,1.734,0,1,1,.5-3.431A1.726,1.726,0,0,1,4.8,115.173a1.76,1.76,0,0,1-1.742,1.505m1.689-9.239h0a2.033,2.033,0,0,1-.4-.026,1.826,1.826,0,1,1,.4.026m2.323-9.082h0a1.567,1.567,0,0,1-.5-.077,1.717,1.717,0,1,1,.5.077m2.957-8.922h0a1.536,1.536,0,0,1-.607-.106,1.728,1.728,0,0,1-1.03-2.243A1.746,1.746,0,0,1,11.668,88.3a1.727,1.727,0,0,1-1.637,1.134m3.591-8.657h0a1.348,1.348,0,0,1-.713-.16,1.718,1.718,0,0,1-.872-2.3,1.763,1.763,0,0,1,2.323-.871,1.745,1.745,0,0,1-.739,3.328m4.222-8.368h0A1.913,1.913,0,0,1,17,72.2a1.748,1.748,0,0,1-.687-2.377,1.707,1.707,0,0,1,2.35-.686,1.76,1.76,0,0,1,.713,2.374,1.8,1.8,0,0,1-1.531.9m4.778-8.079h0a1.865,1.865,0,0,1-.95-.263,1.77,1.77,0,0,1-.5-2.428,1.746,1.746,0,0,1,2.93,1.9,1.728,1.728,0,0,1-1.478.792m5.359-7.682h0a1.76,1.76,0,0,1-1.03-.368,1.708,1.708,0,0,1-.343-2.429,1.734,1.734,0,1,1,2.771,2.085,1.787,1.787,0,0,1-1.4.712m5.912-7.311h0a1.745,1.745,0,0,1-1.161-.423,1.781,1.781,0,0,1-.159-2.482v.029a1.74,1.74,0,1,1,2.64,2.268,1.769,1.769,0,0,1-1.32.608m6.388-6.865h0a1.759,1.759,0,0,1-1.24-.526,1.722,1.722,0,0,1,0-2.457,1.754,1.754,0,0,1,2.481,0,1.724,1.724,0,0,1,0,2.457,1.761,1.761,0,0,1-1.241.526m6.891-6.414h0A1.733,1.733,0,0,1,46.01,33a1.725,1.725,0,0,1,2.456.186,1.728,1.728,0,0,1-1.293,2.877m7.285-5.885h0a1.763,1.763,0,0,1-1.4-.688,1.787,1.787,0,0,1,.369-2.454,1.733,1.733,0,0,1,2.43.343,1.759,1.759,0,0,1-.344,2.454,1.726,1.726,0,0,1-1.056.345m7.735-5.359h0a1.8,1.8,0,0,1-1.478-.792,1.752,1.752,0,0,1,.527-2.428,1.739,1.739,0,1,1,1.875,2.928,1.535,1.535,0,0,1-.924.292m8.051-4.805h0a1.737,1.737,0,0,1-.818-3.274,1.708,1.708,0,0,1,2.35.689,1.742,1.742,0,0,1-.687,2.374,1.592,1.592,0,0,1-.844.211m8.4-4.2h0a1.754,1.754,0,1,1,1.61-2.482,1.755,1.755,0,0,1-1.61,2.482M87.323,12.2h0a1.731,1.731,0,0,1-1.637-1.134,1.752,1.752,0,0,1,1.03-2.245,1.774,1.774,0,0,1,2.243,1.031,1.725,1.725,0,0,1-1.029,2.243,1.536,1.536,0,0,1-.607.106m8.922-2.957h0a1.718,1.718,0,0,1-1.663-1.265,1.688,1.688,0,0,1,1.162-2.14A1.715,1.715,0,0,1,97.908,7a1.732,1.732,0,0,1-1.187,2.165,1.536,1.536,0,0,1-.475.077m9.108-2.323h0a1.751,1.751,0,0,1-1.717-1.371,1.725,1.725,0,0,1,1.347-2.06h-.027a1.745,1.745,0,1,1,.766,3.405,1.9,1.9,0,0,1-.369.026m9.212-1.637h0a1.8,1.8,0,1,1,.264-.026.836.836,0,0,1-.264.026m9.476-1h0a1.765,1.765,0,0,1-1.874-1.611A1.767,1.767,0,0,1,123.779.791,1.733,1.733,0,0,1,125.653,2.4a1.73,1.73,0,0,1-1.611,1.874" transform="translate(-1994 -7426.462)" fill="#fff"/>
    <path id="Path_9499" data-name="Path 9499" d="M322.178,644.359a1.764,1.764,0,0,0,1.24-.528,1.577,1.577,0,0,0,.37-.554,1.779,1.779,0,0,0,0-1.348,2.1,2.1,0,0,0-.37-.554,2.823,2.823,0,0,0-.58-.395,1.753,1.753,0,0,0-1.9.395,1.6,1.6,0,0,0-.368.554,1.487,1.487,0,0,0-.133.66,1.523,1.523,0,0,0,.133.688,1.572,1.572,0,0,0,.368.554,2.17,2.17,0,0,0,.555.395,1.977,1.977,0,0,0,.687.134" transform="translate(-2182.87 -7803.729)" fill="#fff"/>
    <path id="Path_9500" data-name="Path 9500" d="M154.271,272.985a1.745,1.745,0,1,0,0-3.49,115.2,115.2,0,1,1,0-230.4,1.745,1.745,0,1,0,0-3.49,118.692,118.692,0,1,0,0,237.383" transform="translate(-2014.97 -7446.984)" fill="#fff"/>
  </g>
</svg>
