<svg xmlns="http://www.w3.org/2000/svg" xmlns:xlink="http://www.w3.org/1999/xlink" width="78" height="78" viewBox="0 0 78 78">
  <defs>
    <filter id="Rectangle_2521" x="0" y="0" width="78" height="78" filterUnits="userSpaceOnUse">
      <feOffset dy="3" input="SourceAlpha"/>
      <feGaussianBlur stdDeviation="3" result="blur"/>
      <feFlood flood-opacity="0.161"/>
      <feComposite operator="in" in2="blur"/>
      <feComposite in="SourceGraphic"/>
    </filter>
  </defs>
  <g id="Call" transform="translate(-9068 -4877)">
    <g transform="matrix(1, 0, 0, 1, 9068, 4877)" filter="url(#Rectangle_2521)">
      <rect id="Rectangle_2521-2" data-name="Rectangle 2521" width="42.426" height="42.426" rx="9" transform="translate(39 6) rotate(45)" fill="rgba(252,252,252,0.95)"/>
    </g>
    <path id="ic_call_24px" d="M7.979,13.714a20.834,20.834,0,0,0,9.063,9.063l3.026-3.026a1.367,1.367,0,0,1,1.4-.33,15.688,15.688,0,0,0,4.91.784,1.379,1.379,0,0,1,1.375,1.375v4.8a1.379,1.379,0,0,1-1.375,1.375A23.378,23.378,0,0,1,3,4.375,1.379,1.379,0,0,1,4.375,3H9.189a1.379,1.379,0,0,1,1.375,1.375,15.624,15.624,0,0,0,.784,4.91,1.38,1.38,0,0,1-.344,1.4Z" transform="translate(9091.501 4897.501)" fill="#0071bc"/>
  </g>
</svg>
