<svg xmlns="http://www.w3.org/2000/svg" xmlns:xlink="http://www.w3.org/1999/xlink" width="78" height="78" viewBox="0 0 78 78">
  <defs>
    <filter id="Rectangle_2522" x="0" y="0" width="78" height="78" filterUnits="userSpaceOnUse">
      <feOffset dy="3" input="SourceAlpha"/>
      <feGaussianBlur stdDeviation="3" result="blur"/>
      <feFlood flood-opacity="0.161"/>
      <feComposite operator="in" in2="blur"/>
      <feComposite in="SourceGraphic"/>
    </filter>
  </defs>
  <g id="email" transform="translate(-9068 -4960)">
    <g transform="matrix(1, 0, 0, 1, 9068, 4960)" filter="url(#Rectangle_2522)">
      <rect id="Rectangle_2522-2" data-name="Rectangle 2522" width="42.426" height="42.426" rx="9" transform="translate(39 6) rotate(45)" fill="rgba(252,252,252,0.95)"/>
    </g>
    <path id="ic_mail_outline_24px" d="M23.951,4H4.439A2.493,2.493,0,0,0,2.012,6.548L2,21.836a2.5,2.5,0,0,0,2.439,2.548H23.951a2.5,2.5,0,0,0,2.439-2.548V6.548A2.5,2.5,0,0,0,23.951,4Zm0,17.836H4.439V9.1l9.756,6.37L23.951,9.1Zm-9.756-8.918L4.439,6.548H23.951Z" transform="translate(9092.502 4981.932)" fill="#0071bc"/>
  </g>
</svg>
