<svg xmlns="http://www.w3.org/2000/svg" xmlns:xlink="http://www.w3.org/1999/xlink" width="78" height="78" viewBox="0 0 78 78">
  <defs>
    <filter id="Rectangle_2520" x="0" y="0" width="78" height="78" filterUnits="userSpaceOnUse">
      <feOffset dy="3" input="SourceAlpha"/>
      <feGaussianBlur stdDeviation="3" result="blur"/>
      <feFlood flood-opacity="0.161"/>
      <feComposite operator="in" in2="blur"/>
      <feComposite in="SourceGraphic"/>
    </filter>
  </defs>
  <g id="Whattsapp" transform="translate(-9068 -4801)">
    <g transform="matrix(1, 0, 0, 1, 9068, 4801)" filter="url(#Rectangle_2520)">
      <rect id="Rectangle_2520-2" data-name="Rectangle 2520" width="42.426" height="42.426" rx="9" transform="translate(39 6) rotate(45)" fill="rgba(252,252,252,0.95)"/>
    </g>
    <g id="Group_5187" data-name="Group 5187" transform="translate(9092.938 4821.063)">
      <g id="whatsApp" transform="translate(0 0)">
        <path id="Path_5740" data-name="Path 5740" d="M1.1,27.53l1.936-7.071a13.65,13.65,0,1,1,11.829,6.834H14.86a13.643,13.643,0,0,1-6.522-1.661Zm7.571-4.366.414.247a11.329,11.329,0,0,0,5.775,1.581h.005A11.333,11.333,0,1,0,5.256,19.68l.269.43L4.38,24.293Z" transform="translate(-1.1 0)" fill="#2fb943"/>
        <path id="Path_5743" data-name="Path 5743" d="M131.173,137.135c-.232-.628-.474-.64-.692-.652-.179-.012-.382-.006-.59-.006a1.052,1.052,0,0,0-.818.468A4.661,4.661,0,0,0,128,140.081a8.219,8.219,0,0,0,1.253,3.889c.155.249,2.124,4.168,5.239,5.674,2.593,1.251,3.12,1,3.681.943a3.176,3.176,0,0,0,2.07-1.785,3.776,3.776,0,0,0,.179-1.785c-.077-.154-.281-.249-.59-.439s-1.814-1.1-2.095-1.221-.484-.19-.692.19-.793,1.221-.972,1.47-.358.285-.663.095a8.291,8.291,0,0,1-2.467-1.868,11.292,11.292,0,0,1-1.708-2.6.617.617,0,0,1,.135-.765c.135-.166.3-.439.46-.658a2.577,2.577,0,0,0,.3-.628.83.83,0,0,0-.024-.658c-.068-.2-.663-2.051-.938-2.8Z" transform="translate(-120.476 -129.796)" fill="#2fb943" fill-rule="evenodd"/>
      </g>
    </g>
  </g>
</svg>
