<svg xmlns="http://www.w3.org/2000/svg" width="64.704" height="64.757" viewBox="0 0 64.704 64.757">
  <g id="Avatar">
    <path d="M 32.3773307800293 64.25687408447266 C 29.1326904296875 64.25687408447266 25.91906929016113 63.76031875610352 22.82575035095215 62.78100204467773 C 19.73242950439453 61.80168914794922 16.81855964660645 60.35834121704102 14.16508007049561 58.49106216430664 L 13.62938976287842 58.11408615112305 C 12.96354675292969 57.62701797485352 12.30324649810791 57.10004043579102 11.61851024627686 56.50946044921875 C 11.55210018157959 56.45233154296875 11.48573970794678 56.39604187011719 11.41928005218506 56.33966064453125 C 11.26704025268555 56.21052932739258 11.12324047088623 56.08855056762695 10.98157978057861 55.95922088623047 C 10.34125995635986 55.37826919555664 9.693570137023926 54.73049926757812 9.000340461730957 53.97785186767578 C 8.921899795532227 53.89350128173828 8.843950271606445 53.81177139282227 8.765950202941895 53.73001098632812 C 8.62382984161377 53.58103942871094 8.489589691162109 53.44034194946289 8.361579895019531 53.29384231567383 C 8.306374549865723 53.23019409179688 8.250260353088379 53.1700439453125 8.194601058959961 53.11192321777344 L 8.22029972076416 53.09008026123047 L 7.900990009307861 52.70948028564453 C 3.130110025405884 47.02280044555664 0.5017200708389282 39.80302047729492 0.5000000596046448 32.38008880615234 C 0.4955400824546814 27.28609085083008 1.733150124549866 22.20387077331543 4.079040050506592 17.68253135681152 C 6.424920082092285 13.16121101379395 9.86752986907959 9.223050117492676 14.03468990325928 6.293800354003906 C 18.20183944702148 3.364560604095459 23.07299995422363 1.45866060256958 28.1215705871582 0.7821605801582336 C 29.51885986328125 0.5949205756187439 30.94211959838867 0.4999905824661255 32.35181045532227 0.4999905824661255 C 36.04825973510742 0.4999905824661255 39.68552017211914 1.136120557785034 43.16254043579102 2.390700578689575 C 47.9538688659668 4.119520664215088 52.31182098388672 7.012410640716553 55.76528167724609 10.75663089752197 C 59.2187385559082 14.50085067749023 61.75069046020508 19.07795143127441 63.08740997314453 23.99312019348145 C 64.42411804199219 28.90829086303711 64.55901336669922 34.13729095458984 63.47748947143555 39.11483001708984 C 62.39596939086914 44.09236907958984 60.10337066650391 48.79392242431641 56.84754943847656 52.71123123168945 L 56.50666046142578 53.12136077880859 L 56.53228378295898 53.1400032043457 C 56.48567962646484 53.18930816650391 56.43885040283203 53.24042510986328 56.39250946044922 53.29444885253906 C 56.26329040527344 53.44058227539062 56.13035583496094 53.58042144775391 55.98968124389648 53.72838973999023 C 55.91143035888672 53.81069946289062 55.833251953125 53.89295959472656 55.75593185424805 53.97608947753906 C 55.07315826416016 54.71739196777344 54.42525100708008 55.36534881591797 53.7735595703125 55.95878219604492 C 53.62998962402344 56.08829879760742 53.4764289855957 56.21908950805664 53.32793045043945 56.3455696105957 C 53.26396179199219 56.40005111694336 53.20008850097656 56.45444869995117 53.13663101196289 56.50904083251953 C 52.47180557250977 57.08245086669922 51.78453826904297 57.62973403930664 51.09014511108398 58.1388053894043 L 50.58958053588867 58.49106216430664 C 47.93611145019531 60.35834121704102 45.02223968505859 61.80168914794922 41.92890930175781 62.78100204467773 C 38.83559036254883 63.76031875610352 35.62197113037109 64.25687408447266 32.3773307800293 64.25687408447266 Z M 25.43752098083496 41.13021087646484 C 22.24892044067383 41.13185119628906 19.24356079101562 42.36645126342773 16.97480010986328 44.60659027099609 C 14.70602989196777 46.84674072265625 13.43336963653564 49.836181640625 13.39124965667725 53.02424240112305 L 13.38825988769531 53.25067901611328 L 13.55648040771484 53.40227890014648 C 18.72898101806641 58.06340026855469 25.41220092773438 60.63039016723633 32.37501907348633 60.63039016723633 C 39.33782958984375 60.63039016723633 46.02104949951172 58.06340026855469 51.19355010986328 53.40227890014648 L 51.36177825927734 53.25067901611328 L 51.35879135131836 53.02423095703125 C 51.3166618347168 49.83615875244141 50.04399871826172 46.84672164916992 47.77524185180664 44.60659027099609 C 45.5064811706543 42.36645126342773 42.50112152099609 41.13185119628906 39.31277847290039 41.13021087646484 L 25.43752098083496 41.13021087646484 Z M 32.37501907348633 13.38022041320801 C 29.46184921264648 13.38022041320801 26.72306060791016 14.51467037200928 24.66313934326172 16.5745906829834 C 22.60321998596191 18.6345100402832 21.46877098083496 21.37330055236816 21.46877098083496 24.28647041320801 C 21.46877098083496 26.45082092285156 22.10434913635254 28.54605102539062 23.30680084228516 30.34564971923828 C 24.50925064086914 32.14524078369141 26.20175933837891 33.53425216674805 28.20137977600098 34.36252975463867 C 29.53125 34.91337966918945 30.93548965454102 35.19269943237305 32.37509918212891 35.19272994995117 C 32.37514495849609 35.19272994995117 32.37520980834961 35.19272994995117 32.37525177001953 35.19272994995117 C 33.08783721923828 35.19272994995117 33.80361175537109 35.12222290039062 34.50273132324219 34.98316192626953 C 36.6254997253418 34.56090927124023 38.55646896362305 33.52878189086914 40.08689880371094 31.99835014343262 C 41.61734008789062 30.46792030334473 42.64947128295898 28.53694152832031 43.07170867919922 26.41418075561523 C 43.49396133422852 24.29140090942383 43.27935028076172 22.11243057250977 42.45108032226562 20.11283111572266 C 41.62282180786133 18.11322021484375 40.23381042480469 16.42071151733398 38.43420028686523 15.2182502746582 C 36.63460159301758 14.01580047607422 34.53937149047852 13.38022041320801 32.37501907348633 13.38022041320801 Z" stroke="none"/>
    <path d="M 32.3773307800293 63.75687026977539 C 35.57070922851562 63.75687026977539 38.73355102539062 63.26816177368164 41.77799987792969 62.3043212890625 C 44.82244873046875 61.34048080444336 47.69028091430664 59.91994094848633 50.30183029174805 58.08216094970703 L 50.7982292175293 57.73283767700195 C 51.480712890625 57.23233795166016 52.15644836425781 56.69415664672852 52.8105583190918 56.12998962402344 C 52.87464904785156 56.07485961914062 52.93912887573242 56.01993942260742 53.00371932983398 55.96492004394531 C 53.15626907348633 55.83499908447266 53.30035018920898 55.7122802734375 53.43692016601562 55.58908081054688 C 54.07767868041992 55.00561141967773 54.71540069580078 54.36777114868164 55.38978958129883 53.63560104370117 C 55.46834945678711 53.55112075805664 55.54779052734375 53.467529296875 55.62730026245117 53.38389205932617 C 55.68155288696289 53.32682418823242 55.73461532592773 53.27100372314453 55.78656387329102 53.21575927734375 L 55.7812614440918 53.21189880371094 L 56.46302032470703 52.39163208007812 C 59.66773986816406 48.53582000732422 61.92435073852539 43.9080696105957 62.9888916015625 39.00865936279297 C 64.05342864990234 34.10926055908203 63.92066192626953 28.96234130859375 62.60493850708008 24.12434005737305 C 61.28919982910156 19.28631973266602 58.79698944091797 14.78107070922852 55.39775085449219 11.09563064575195 C 51.99850082397461 7.410180568695068 47.70895004272461 4.562700748443604 42.99283981323242 2.861020565032959 C 39.57040023803711 1.6261305809021 35.99023818969727 0.9999905824661255 32.35181045532227 0.9999905824661255 C 30.9642505645752 0.9999905824661255 29.56332969665527 1.093440532684326 28.18796920776367 1.277730584144592 C 23.21866035461426 1.943610548973083 18.42395973205566 3.81959056854248 14.32221984863281 6.702850818634033 C 10.22047996520996 9.58612060546875 6.831920146942139 13.4624605178833 4.522850036621094 17.91281127929688 C 2.21379017829895 22.3631706237793 0.9956100583076477 27.36561965942383 1.00000011920929 32.37998199462891 C 1.001690030097961 39.68561172485352 3.588550090789795 46.79130172729492 8.284040451049805 52.38811874389648 L 8.922650337219238 53.14931869506836 L 8.912732124328613 53.15774917602539 C 8.981986999511719 53.23212051391602 9.053756713867188 53.30734252929688 9.127719879150391 53.38487243652344 C 9.20719051361084 53.46817016601562 9.286600112915039 53.55144119262695 9.368120193481445 53.63911056518555 C 10.05111980438232 54.38066101074219 10.68840980529785 55.01810073852539 11.31869983673096 55.58996963500977 C 11.45361995697021 55.71315002441406 11.59403991699219 55.83226013183594 11.74271011352539 55.95835876464844 C 11.81006050109863 56.0154914855957 11.87730026245117 56.07252883911133 11.94507026672363 56.13084030151367 C 12.61839962005615 56.71157455444336 13.26730251312256 57.22956466674805 13.92113399505615 57.70800018310547 L 14.45283031463623 58.08216094970703 C 17.06438064575195 59.91994094848633 19.93221092224121 61.34048080444336 22.97665977478027 62.3043212890625 C 26.02111053466797 63.26816177368164 29.18395042419434 63.75687026977539 32.3773307800293 63.75687026977539 M 25.43752098083496 40.63021087646484 L 39.31303024291992 40.63021087646484 C 42.63364028930664 40.63191986083984 45.763671875 41.91773223876953 48.12654113769531 44.25080108642578 C 50.48942184448242 46.5838508605957 51.81486892700195 49.69731140136719 51.85874176025391 53.01763153076172 L 51.86473083496094 53.47051239013672 L 51.52825927734375 53.77371215820312 C 46.26375961303711 58.51774215698242 39.4616813659668 61.13039016723633 32.37501907348633 61.13039016723633 C 25.28836059570312 61.13039016723633 18.48627090454102 58.51774215698242 13.22177028656006 53.77371215820312 L 12.88531017303467 53.47051239013672 L 12.89130020141602 53.01763153076172 C 12.93515968322754 49.69733047485352 14.26060962677002 46.58386993408203 16.62350082397461 44.25080108642578 C 18.98637008666992 41.91773223876953 22.11639976501465 40.63191986083984 25.43752098083496 40.63021087646484 M 32.37501907348633 12.88022041320801 C 34.63859176635742 12.88022041320801 36.82987976074219 13.54494094848633 38.71199035644531 14.80252075195312 C 40.59408950805664 16.06010055541992 42.04679107666016 17.83020973205566 42.91302108764648 19.92148017883301 C 43.77925872802734 22.01276016235352 44.00371170043945 24.29162979125977 43.56211090087891 26.51172065734863 C 43.12049865722656 28.7318115234375 42.04104995727539 30.75131034851074 40.44046020507812 32.35190963745117 C 38.83985900878906 33.95249938964844 36.82035827636719 35.03195190429688 34.60026931762695 35.47356033325195 C 33.8691291809082 35.61899185180664 33.12052917480469 35.69272994995117 32.37509155273438 35.69272994995117 C 30.86949920654297 35.69269943237305 29.40088081359863 35.40056991577148 28.01003074645996 34.82447052001953 C 25.91875076293945 33.95822143554688 24.14863967895508 32.50553131103516 22.89106941223145 30.62343978881836 C 21.63348960876465 28.74133110046387 20.96877098083496 26.55004119873047 20.96877098083496 24.28647041320801 C 20.96877098083496 21.23974990844727 22.15522956848145 18.37539100646973 24.30957984924316 16.22103118896484 C 26.46393966674805 14.06668090820312 29.32830047607422 12.88022041320801 32.37501907348633 12.88022041320801 M 32.3773307800293 64.75687408447266 C 25.75457000732422 64.75687408447266 19.2934398651123 62.71134185791016 13.87732982635498 58.89995956420898 L 13.87732982635498 58.92770004272461 C 13.77558040618896 58.85601043701172 13.68307971954346 58.76581954956055 13.58133029937744 58.69644927978516 C 12.79277038574219 58.1322021484375 12.03194999694824 57.52632904052734 11.29195022583008 56.88809204101562 C 11.07688999176025 56.70307922363281 10.85719966888428 56.52270889282227 10.64445018768311 56.32847213745117 C 9.946069717407227 55.69483947753906 9.280070304870605 55.01959228515625 8.632570266723633 54.31658935546875 C 8.417510032653809 54.08534240722656 8.19320011138916 53.86103057861328 7.98507022857666 53.62284088134766 C 7.818570137023926 53.43090057373047 7.633570194244385 53.26440048217773 7.47169017791748 53.07015228271484 L 7.517940044403076 53.03084182739258 C 2.663410186767578 47.24446105957031 0.001750076888129115 39.93326950073242 7.6904292711788e-08 32.38021087646484 C -0.00454992288723588 27.18451118469238 1.242350101470947 22.06414985656738 3.635220050811768 17.45226097106934 C 6.028090000152588 12.84038066864014 9.496540069580078 8.872660636901855 13.74715042114258 5.884750366210938 C 17.99776077270508 2.896840572357178 22.90549087524414 0.9766405820846558 28.05516052246094 0.2865906059741974 C 33.20483016967773 -0.4034600257873535 38.44495391845703 0.1569411307573318 43.33224105834961 1.920380592346191 C 48.21952819824219 3.683820486068726 52.61019897460938 6.598430633544922 56.13282012939453 10.41764068603516 C 59.65544891357422 14.23685073852539 62.20640182495117 18.84831047058105 63.56988906860352 23.86190986633301 C 64.93337249755859 28.87551116943359 65.06926727294922 34.14376068115234 63.96609115600586 39.22098922729492 C 62.86291122436523 44.29822158813477 60.5531005859375 49.03507232666016 57.23207092285156 53.03081893920898 L 57.28295135498047 53.06784057617188 C 57.12107086181641 53.26440048217773 56.93376159667969 53.43091201782227 56.76956939697266 53.62284088134766 C 56.55913162231445 53.86103057861328 56.33713150024414 54.08534240722656 56.1220817565918 54.31658935546875 C 55.47457885742188 55.01959228515625 54.80857849121094 55.69253158569336 54.11019897460938 56.32847213745117 C 53.8974494934082 56.52041244506836 53.67776107788086 56.70309066772461 53.46269989013672 56.88809204101562 C 52.72269821166992 57.52634048461914 51.95957946777344 58.12990188598633 51.1733283996582 58.69646072387695 C 51.06927108764648 58.76583099365234 50.97908020019531 58.85602188110352 50.8773307800293 58.92771148681641 L 50.8773307800293 58.89995956420898 C 45.46121978759766 62.71134948730469 39.00009155273438 64.75687408447266 32.3773307800293 64.75687408447266 Z M 13.89120006561279 53.03084182739258 C 18.9628791809082 57.60111236572266 25.54792022705078 60.13039016723633 32.37501907348633 60.13039016723633 C 39.20212173461914 60.13039016723633 45.78715133666992 57.60111236572266 50.85882949829102 53.03084182739258 C 50.81871032714844 49.99446105957031 49.58477020263672 47.09593963623047 47.4239387512207 44.96237945556641 C 45.26311874389648 42.82881927490234 42.34917068481445 41.63177108764648 39.31251907348633 41.63021087646484 L 25.43752098083496 41.63021087646484 C 22.40086936950684 41.63177108764648 19.48691940307617 42.82881927490234 17.32609939575195 44.96237945556641 C 15.16528034210205 47.09593963623047 13.93132019042969 49.99444961547852 13.89120960235596 53.03084182739258 L 13.89120006561279 53.03084182739258 Z M 32.37501907348633 13.88022041320801 C 29.61511039733887 13.88022041320801 26.96824073791504 14.97659015655518 25.01668930053711 16.92814064025879 C 23.06513977050781 18.87969017028809 21.96877098083496 21.52655982971191 21.96877098083496 24.28647041320801 C 21.96877098083496 26.34463119506836 22.5790901184082 28.35657119750977 23.7225399017334 30.06787109375 C 24.86598968505859 31.77917098999023 26.49123001098633 33.11296081542969 28.39271926879883 33.90058898925781 C 30.2942066192627 34.68820953369141 32.38655471801758 34.89430618286133 34.40518188476562 34.49277114868164 C 36.42378997802734 34.09123992919922 38.27801132202148 33.10013961791992 39.73334884643555 31.64480018615723 C 41.18869018554688 30.18946075439453 42.17979049682617 28.33525085449219 42.58132171630859 26.31663131713867 C 42.98284912109375 24.29802131652832 42.77677154541016 22.20565986633301 41.98913955688477 20.30417060852051 C 41.20151901245117 18.40268135070801 39.86772155761719 16.77744102478027 38.15642166137695 15.63399028778076 C 36.44512176513672 14.49054050445557 34.43318176269531 13.88022041320801 32.37501907348633 13.88022041320801 Z" stroke="none" fill="#f5f5f8"/>
  </g>
</svg>
