<svg xmlns="http://www.w3.org/2000/svg" width="40" height="40" viewBox="0 0 40 40">
  <g id="Face" transform="translate(-1346 -2302)">
    <rect id="akar-icons:facebook-fill" width="40" height="40" transform="translate(1346 2302)" fill="none"/>
    <g id="Group" transform="translate(1334 2299.832)">
      <path id="Vector" d="M12,0a12.091,12.091,0,0,1,2,24V15.333h2.667L17.2,12H14V9.667C14,8.733,14.333,8,15.8,8h1.533V4.933a18.1,18.1,0,0,0-2.666-.266A4.34,4.34,0,0,0,10,9.333V12H7v3.333h3V24A12.091,12.091,0,0,1,12,0Z" transform="translate(20 10.168)" fill="rgba(0,0,0,0.5)" fill-rule="evenodd"/>
    </g>
  </g>
</svg>
