<svg xmlns="http://www.w3.org/2000/svg" width="40" height="40" viewBox="0 0 40 40">
  <g id="insta" transform="translate(-1406 -2302)">
    <rect id="akar-icons:instagram-fill" width="40" height="40" transform="translate(1406 2302)" fill="none"/>
    <g id="Group" transform="translate(1392.333 2298.165)">
      <path id="Vector" d="M7.053.072C8.332.013,8.74,0,12,0s3.668.014,4.946.072a8.831,8.831,0,0,1,2.915.557,6.143,6.143,0,0,1,3.508,3.509,8.826,8.826,0,0,1,.559,2.913C23.987,8.333,24,8.741,24,12s-.014,3.668-.072,4.947a8.8,8.8,0,0,1-.559,2.913,6.126,6.126,0,0,1-3.508,3.509,8.826,8.826,0,0,1-2.913.559C15.668,23.987,15.26,24,12,24s-3.668-.014-4.947-.072a8.8,8.8,0,0,1-2.913-.559,5.888,5.888,0,0,1-2.126-1.383A5.882,5.882,0,0,1,.629,19.861a8.857,8.857,0,0,1-.557-2.913C.013,15.667,0,15.259,0,12S.014,8.332.072,7.054A8.831,8.831,0,0,1,.629,4.139,5.887,5.887,0,0,1,2.015,2.014,5.882,5.882,0,0,1,4.139.629,8.857,8.857,0,0,1,7.052.072Zm9.8,2.16c-1.265-.058-1.645-.07-4.849-.07s-3.584.012-4.849.07a6.633,6.633,0,0,0-2.229.413,3.726,3.726,0,0,0-1.38.9,3.722,3.722,0,0,0-.9,1.38,6.633,6.633,0,0,0-.413,2.229C2.174,8.416,2.162,8.8,2.162,12s.012,3.584.07,4.849a6.633,6.633,0,0,0,.413,2.229,3.725,3.725,0,0,0,.9,1.38,3.725,3.725,0,0,0,1.38.9,6.633,6.633,0,0,0,2.229.413c1.265.058,1.644.07,4.849.07s3.584-.012,4.849-.07a6.633,6.633,0,0,0,2.229-.413,3.963,3.963,0,0,0,2.277-2.277,6.633,6.633,0,0,0,.413-2.229c.058-1.265.07-1.645.07-4.849s-.012-3.584-.07-4.849a6.633,6.633,0,0,0-.413-2.229,3.726,3.726,0,0,0-.9-1.38,3.723,3.723,0,0,0-1.38-.9,6.633,6.633,0,0,0-2.229-.413ZM10.467,15.7a4,4,0,1,0-1.434-1.01,4,4,0,0,0,1.434,1.01ZM7.639,7.639A6.168,6.168,0,1,1,5.832,12,6.168,6.168,0,0,1,7.639,7.639Zm11.9-.888a1.459,1.459,0,1,1,.334-.473,1.459,1.459,0,0,1-.334.473Z" transform="translate(21.667 11.835)" fill="rgba(0,0,0,0.5)" fill-rule="evenodd"/>
    </g>
  </g>
</svg>
