<svg xmlns="http://www.w3.org/2000/svg" width="40" height="40" viewBox="0 0 40 40">
  <g id="Twitter" transform="translate(-1357 -2300)">
    <rect id="ant-design:twitter-circle-filled" width="40" height="40" transform="translate(1357 2300)" fill="none"/>
    <path id="Vector" d="M24,12A12,12,0,1,1,12,0,12,12,0,0,1,24,12ZM17.767,9.046A6.235,6.235,0,0,0,19.259,7.5a5.884,5.884,0,0,1-1.714.463,2.961,2.961,0,0,0,1.307-1.637,5.877,5.877,0,0,1-1.888.715,2.984,2.984,0,0,0-5.079,2.721,8.445,8.445,0,0,1-6.134-3.11,2.916,2.916,0,0,0-.4,1.5,2.977,2.977,0,0,0,1.326,2.475,2.977,2.977,0,0,1-1.342-.378v.037a2.973,2.973,0,0,0,2.381,2.92,3.253,3.253,0,0,1-1.342.054,2.976,2.976,0,0,0,2.78,2.063A5.968,5.968,0,0,1,5.456,16.6a6.378,6.378,0,0,1-.718-.037A8.473,8.473,0,0,0,17.775,9.431c0-.129,0-.26-.008-.386Z" transform="translate(1365 2308)" fill="rgba(0,0,0,0.5)"/>
  </g>
</svg>
