<svg xmlns="http://www.w3.org/2000/svg" width="22.764" height="30.315" viewBox="0 0 22.764 30.315">
  <g id="استشارات_وتكنولوجيا_المعلومات" data-name="استشارات وتكنولوجيا المعلومات" transform="translate(-7.874 0.15)">
    <path id="Path_13652" data-name="Path 13652" d="M234.439,94.218a.328.328,0,0,0,.01-.363l-1.015-1.625a4.194,4.194,0,0,0,.524-2.031,4.279,4.279,0,0,0-.68-2.293,5.767,5.767,0,0,0,.2-1.515c0-3.8-3.724-6.888-8.3-6.888s-8.3,3.091-8.3,6.89a5.866,5.866,0,0,0,.772,2.905l-1.494,2.393h0a.328.328,0,0,0,.349.491l3.105-.683h0a8.94,8.94,0,0,0,3.666,1.6,6.366,6.366,0,0,0,4.774,2.02,6.61,6.61,0,0,0,3.922-1.238l2.129.469a.328.328,0,0,0,.337-.128Zm-14.753-3.4h0a.332.332,0,0,0-.07.007l-2.491.549,1.185-1.9a.327.327,0,0,0,0-.344,5.242,5.242,0,0,1-.776-2.741c0-3.439,3.43-6.231,7.645-6.231s7.644,2.8,7.644,6.231a5.12,5.12,0,0,1-.215,1.469v.006h0a5.427,5.427,0,0,1-.183.513c-.028.066-.057.132-.088.2a7.4,7.4,0,0,1-5.434,3.886l-.182.033-.19.03-.129.018-.177.021-.107.011c-.082.008-.157.015-.237.02l-.075.006q-.136.009-.274.014h-.057c-.1,0-.2,0-.3,0s-.2,0-.3-.006h0a9.561,9.561,0,0,1-1.381-.152.234.234,0,0,0-.053-.006,8.253,8.253,0,0,1-3.558-1.572.326.326,0,0,0-.2-.067Zm12.277,2.387a.327.327,0,0,0-.273.061,6.149,6.149,0,0,1-7.307-.02c.056,0,.115.007.172.011l.118.006c.059,0,.118.006.177.007.111,0,.219.006.328.006s.195,0,.292,0h.071c.094,0,.188-.008.282-.014l.052,0c.076,0,.152-.011.228-.018l.1-.01c.082-.008.164-.017.246-.028l.129-.017.124-.019a8.026,8.026,0,0,0,6.286-4.421h0a3.52,3.52,0,0,1-.214,3.322.328.328,0,0,0,0,.344l.706,1.13Z" transform="translate(-207.088 -79.504)"/>
    <path id="Path_13652_-_Outline" data-name="Path 13652 - Outline" d="M228.052,95.266a6.55,6.55,0,0,1-4.853-2.032,9.146,9.146,0,0,1-3.622-1.573l-3.039.668a.477.477,0,0,1-.487-.185l-.044.07v-.143a.478.478,0,0,1,.022-.459l.278-.455v.01l1.17-1.873a6.026,6.026,0,0,1-.748-2.9,6.464,6.464,0,0,1,2.487-4.985,9.314,9.314,0,0,1,5.961-2.055h0c4.661,0,8.453,3.157,8.453,7.038a5.919,5.919,0,0,1-.191,1.49,4.423,4.423,0,0,1,.669,2.316,4.357,4.357,0,0,1-.5,2.026l.969,1.551a.476.476,0,0,1-.506.718l-2.063-.454A6.791,6.791,0,0,1,228.052,95.266Zm-8.457-3.917h.066l.04.029a8.841,8.841,0,0,0,3.6,1.57l.051.01.034.039a6.234,6.234,0,0,0,4.661,1.969,6.475,6.475,0,0,0,3.833-1.209l.055-.041,2.2.484a.175.175,0,0,0,.187-.265l-1.062-1.7.043-.077a4.055,4.055,0,0,0,.505-1.958,4.123,4.123,0,0,0-.657-2.211l-.036-.056.018-.064a5.618,5.618,0,0,0,.2-1.475c0-3.715-3.657-6.738-8.153-6.738h0a9.013,9.013,0,0,0-5.77,1.986,6.169,6.169,0,0,0-2.379,4.754,5.725,5.725,0,0,0,.752,2.831l.044.078-1.544,2.472a.178.178,0,0,0,.192.261Zm8.454,3.262a6.052,6.052,0,0,1-3.758-1.245l-.392-.311.5.044.1.007.07,0,.112.006c.035,0,.07,0,.105,0l.071,0c.117,0,.222.006.324.006s.191,0,.285,0h.079c.069,0,.138,0,.211-.01l.112-.008c.077-.005.152-.011.226-.018l.1-.01c.089-.009.168-.018.242-.027l.1-.013.152-.023a7.9,7.9,0,0,0,6.171-4.333l.126-.289.149.288a3.662,3.662,0,0,1-.223,3.463.177.177,0,0,0,0,.186l.895,1.432-1.863-.41a.178.178,0,0,0-.148.033A6.061,6.061,0,0,1,228.049,94.611Zm-3.159-1.186a5.87,5.87,0,0,0,3.159.886A5.76,5.76,0,0,0,231.6,93.15a.483.483,0,0,1,.4-.09l1.166.256-.517-.827a.476.476,0,0,1,0-.5,3.363,3.363,0,0,0,.33-2.866,8.309,8.309,0,0,1-6.253,4.192l-.155.023-.1.014c-.075.01-.157.019-.248.028l-.1.01c-.078.007-.156.014-.233.019l-.113.008c-.075.005-.152.01-.231.01h-.068c-.1,0-.187,0-.3,0C225.086,93.43,224.991,93.429,224.89,93.425Zm.291-.652c-.1,0-.2,0-.308-.006h-.013a9.744,9.744,0,0,1-1.386-.154h-.007l-.019,0-.027,0a8.44,8.44,0,0,1-3.623-1.6.177.177,0,0,0-.107-.036h0v0a.182.182,0,0,0-.039,0l-2.839.625,1.374-2.2a.176.176,0,0,0,0-.185,5.39,5.39,0,0,1-.8-2.82c0-3.518,3.5-6.381,7.8-6.381s7.794,2.862,7.794,6.381a5.265,5.265,0,0,1-.215,1.491v.007l-.006.021c-.054.18-.117.357-.188.527-.026.061-.054.125-.09.2a7.511,7.511,0,0,1-5.542,3.97l-.184.033-.2.03-.129.018-.289.033c-.084.008-.161.015-.241.021l-.074.006q-.14.009-.28.014h-.063l-.143,0Zm-.153-.3c.1,0,.2,0,.3,0l.151,0h.054c.09,0,.18-.008.267-.014l.072-.006c.079-.006.153-.012.233-.02l.106-.011.175-.021.126-.018.186-.029.181-.032a7.211,7.211,0,0,0,5.324-3.8c.034-.074.062-.135.085-.192.064-.154.121-.314.171-.477V87.84l.006-.021a4.966,4.966,0,0,0,.209-1.426c0-3.353-3.362-6.081-7.494-6.081s-7.5,2.728-7.5,6.081a5.09,5.09,0,0,0,.754,2.663.474.474,0,0,1,0,.5l-1,1.6,2.142-.472a.486.486,0,0,1,.1-.011h.008a.479.479,0,0,1,.289.1,8.139,8.139,0,0,0,3.482,1.542.381.381,0,0,1,.068.009,9.441,9.441,0,0,0,1.356.149Z" transform="translate(-207.088 -79.504)"/>
    <path id="Path_13653" data-name="Path 13653" d="M159.168,276.053a3.984,3.984,0,1,0-3.357-.05,5.107,5.107,0,0,0-3.493,4.839v3.133a.327.327,0,1,0,.655,0v-3.133a4.441,4.441,0,1,1,8.882,0v3.133a.328.328,0,0,0,.655,0v-3.133a5.107,5.107,0,0,0-3.341-4.789Zm-4.951-3.637a3.331,3.331,0,1,1,.976,2.352,3.327,3.327,0,0,1-.976-2.352Z" transform="translate(-144.293 -254.288)"/>
    <path id="Path_13653_-_Outline" data-name="Path 13653 - Outline" d="M157.543,268.281h.062a4.134,4.134,0,0,1,1.928,7.758,5.258,5.258,0,0,1,3.126,4.8v3.134a.478.478,0,0,1-.955,0v-3.133a4.291,4.291,0,1,0-8.582,0v3.133a.478.478,0,1,1-.955,0v-3.133a5.258,5.258,0,0,1,3.278-4.864,4.134,4.134,0,0,1,2.1-7.7Zm4.638,15.872a.178.178,0,0,0,.178-.178v-3.133a4.957,4.957,0,0,0-3.243-4.648l-.346-.127.336-.15a3.834,3.834,0,1,0-3.231-.048l.333.161-.351.117a4.957,4.957,0,0,0-3.391,4.7v3.133a.177.177,0,1,0,.355,0v-3.133a4.591,4.591,0,1,1,9.182,0v3.133A.178.178,0,0,0,162.181,284.153Zm-4.637-15.214a3.477,3.477,0,1,1,0,6.955h0a3.481,3.481,0,0,1-3.477-3.415h0v-.062a3.478,3.478,0,0,1,3.477-3.477Zm0,6.655a3.177,3.177,0,1,0-3.177-3.2v.017a3.181,3.181,0,0,0,3.177,3.178Z" transform="translate(-144.293 -254.288)"/>
    <path id="Path_13654" data-name="Path 13654" d="M439.007,309.357a3.363,3.363,0,1,0-3.07-.048,4.293,4.293,0,0,0-2.813,4.026v2.6a.328.328,0,1,0,.655,0v-2.6a3.63,3.63,0,1,1,7.261,0v2.6a.328.328,0,1,0,.655,0v-2.6a4.292,4.292,0,0,0-2.688-3.978Zm-4.194-3.015a2.71,2.71,0,1,1,.794,1.912A2.7,2.7,0,0,1,434.813,306.343Z" transform="translate(-411.208 -286.251)"/>
    <path id="Path_13654_-_Outline" data-name="Path 13654 - Outline" d="M437.518,302.829h.055a3.513,3.513,0,0,1,1.772,6.513,4.443,4.443,0,0,1,2.5,3.992v2.6a.478.478,0,1,1-.955,0v-2.6a3.48,3.48,0,0,0-6.961,0v2.6a.478.478,0,1,1-.955,0v-2.6a4.444,4.444,0,0,1,2.626-4.051,3.513,3.513,0,0,1,1.918-6.456Zm3.849,13.285a.178.178,0,0,0,.178-.178v-2.6a4.142,4.142,0,0,0-2.594-3.839l-.311-.125.3-.148a3.213,3.213,0,1,0-2.933-.046l.3.158-.315.116a4.144,4.144,0,0,0-2.715,3.885v2.6a.178.178,0,1,0,.355,0v-2.6a3.78,3.78,0,1,1,7.561,0v2.6A.178.178,0,0,0,441.368,316.115Zm-3.852-12.62a2.852,2.852,0,0,1,0,5.7h0a2.852,2.852,0,1,1,0-5.7Zm0,5.4a2.56,2.56,0,1,0-1.806-.75A2.536,2.536,0,0,0,437.519,308.9Z" transform="translate(-411.208 -286.251)"/>
  </g>
</svg>
