<svg id="الهويات_البصرية" data-name="الهويات البصرية" xmlns="http://www.w3.org/2000/svg" width="19.672" height="22" viewBox="0 0 19.672 22">
  <path id="Path_13598" data-name="Path 13598" d="M571.809,81.616l-.732-1.1a.274.274,0,0,0-.457,0l-.732,1.1a.274.274,0,0,0-.046.152V93.477a.274.274,0,0,0,.274.274h1.464a.274.274,0,0,0,.274-.274V81.768A.275.275,0,0,0,571.809,81.616Zm-.96-.451.457.686v9.522h-.915V81.851ZM570.392,93.2V91.922h.915V93.2Z" transform="translate(-552.183 -79.95)"/>
  <path id="Path_13599" data-name="Path 13599" d="M88.095,14.475H86.913V3.325a.321.321,0,0,0-.095-.228L83.811.089a.321.321,0,0,0-.228-.095H73.7a.753.753,0,0,0-.752.752V3.153H70.757a.753.753,0,0,0-.752.752V8.2a.753.753,0,0,0,.752.752h2.191v10.7a.753.753,0,0,0,.752.752H77.89v.838a.753.753,0,0,0,.752.752h9.453a.753.753,0,0,0,.752-.752V15.228a.753.753,0,0,0-.752-.752ZM83.906,1.1,85.813,3h-1.8a.107.107,0,0,1-.107-.107ZM70.65,8.2V3.9a.107.107,0,0,1,.107-.107h7.3a.107.107,0,0,1,.107.107V8.2a.107.107,0,0,1-.107.107h-7.3A.107.107,0,0,1,70.65,8.2ZM73.7,19.761a.107.107,0,0,1-.107-.107V8.954h4.469a.753.753,0,0,0,.752-.752v-4.3a.753.753,0,0,0-.752-.752H73.593V.747A.107.107,0,0,1,73.7.639h9.561V2.9a.753.753,0,0,0,.752.752h2.256V14.475H78.642a.753.753,0,0,0-.752.752V19.76Zm14.5,1.482a.107.107,0,0,1-.107.107H78.642a.107.107,0,0,1-.107-.107V15.228a.107.107,0,0,1,.107-.107H88.1a.107.107,0,0,1,.107.107Z" transform="translate(-70.005 0.005)"/>
  <path id="Path_13605" data-name="Path 13605" d="M152.925,124.14h-2.3a.226.226,0,0,0,0,.452h2.3a.226.226,0,0,0,0-.452Z" transform="translate(-148.089 -117.242)"/>
  <path id="Path_13606" data-name="Path 13606" d="M113.973,124.6h.206a.226.226,0,1,0,0-.452h-.206a.226.226,0,1,0,0,.452Z" transform="translate(-111.441 -118.931)"/>
  <path id="Path_13608" data-name="Path 13608" d="M319.117,423.321l-2.162,1.622-2.162-1.622a.215.215,0,0,0-.258.344l2.291,1.718a.215.215,0,0,0,.258,0l2.291-1.718a.215.215,0,0,0-.258-.344Z" transform="translate(-303.592 -406.112)"/>
</svg>
