<svg xmlns="http://www.w3.org/2000/svg" width="22.587" height="18.238" viewBox="0 0 22.587 18.238">
  <g id="تصميم_متجر_الكتروني" data-name="تصميم متجر الكتروني" transform="translate(-2.096)">
    <path id="Path_13542" data-name="Path 13542" d="M111.184,35.728V18.745a1.259,1.259,0,0,0-1.255-1.255H89.851A1.259,1.259,0,0,0,88.6,18.745V35.728Zm-.742-1.506H89.433V18.745a.42.42,0,0,1,.418-.418h20.078a.42.42,0,0,1,.418.418V34.222Z" transform="translate(-86.501 -17.49)"/>
    <path id="Path_13544" data-name="Path 13544" d="M199.12,64.35h-.831V59.515a2.119,2.119,0,0,0,1.246-1.936v-.286a1.326,1.326,0,0,0-.062-.4l-.769-2.343V53.77a1.262,1.262,0,0,0-1.246-1.27H185.826a1.262,1.262,0,0,0-1.246,1.27v.778l-.769,2.343a1.3,1.3,0,0,0-.062.4v.286A2.108,2.108,0,0,0,185,59.515V64.35h-.831V65.2H199.12Zm-.576-7.618h-2.861l-.556-1.693h2.861ZM185.411,53.77a.421.421,0,0,1,.415-.423h11.632a.421.421,0,0,1,.415.423v.423H185.411Zm9.394,2.962h-2.747V55.039h2.191Zm-3.578-1.693v1.693H188.48l.556-1.693Zm-5.931,0h2.861l-.556,1.693h-2.861Zm-.717,2.539h2.908a1.262,1.262,0,0,1-1.246,1.27h-.415A1.262,1.262,0,0,1,184.58,57.579Zm4.57,6.771h-3.324V59.695h.415a2.056,2.056,0,0,0,1.662-.846,2.07,2.07,0,0,0,1.246.8Zm-.831-6.771h2.908a1.262,1.262,0,0,1-1.246,1.27h-.415A1.262,1.262,0,0,1,188.319,57.579ZM193.3,64.35H189.98V59.695a2.056,2.056,0,0,0,1.662-.846,2.056,2.056,0,0,0,1.662.846Zm0-5.5a1.262,1.262,0,0,1-1.246-1.27h2.908a1.262,1.262,0,0,1-1.246,1.27Zm4.154,5.5h-3.324v-4.7a2.094,2.094,0,0,0,1.246-.8,2.056,2.056,0,0,0,1.662.846h.415Zm-.415-5.5a1.262,1.262,0,0,1-1.246-1.27H198.7a1.262,1.262,0,0,1-1.246,1.27Z" transform="translate(-178.254 -49.729)"/>
  </g>
</svg>
