<svg xmlns="http://www.w3.org/2000/svg" width="22" height="20.442" viewBox="0 0 22 20.442">
  <g id="تصميم_تجربة_المستخدم" data-name="تصميم تجربة المستخدم" transform="translate(-78.084 -36.749)">
    <path id="Path_13589" data-name="Path 13589" d="M204.4,119.269H187.033a2.319,2.319,0,0,1-2.316-2.317V103.835a.582.582,0,0,1,.582-.582h20.834a.582.582,0,0,1,.582.582v13.116a2.319,2.319,0,0,1-2.316,2.317Zm-18.519-14.849v12.533a1.153,1.153,0,0,0,1.151,1.152H204.4a1.153,1.153,0,0,0,1.151-1.152V104.418Z" transform="translate(-106.633 -62.078)"/>
    <path id="Path_13590" data-name="Path 13590" d="M206.141,42.339a.582.582,0,0,1-.582-.582V39.064a1.153,1.153,0,0,0-1.151-1.15H187.039a1.153,1.153,0,0,0-1.151,1.152v2.693a.582.582,0,1,1-1.165,0V39.066a2.319,2.319,0,0,1,2.316-2.317h17.368a2.319,2.319,0,0,1,2.316,2.317v2.693a.582.582,0,0,1-.582.58Z" transform="translate(-106.639)"/>
    <path id="Path_13595" data-name="Path 13595" d="M273.051,146.076a3.8,3.8,0,0,1-3.789-3.792v-3.4a.815.815,0,0,1,1.629,0v3.4a2.16,2.16,0,1,0,4.319,0v-3.4a.815.815,0,0,1,1.629,0v3.4a3.8,3.8,0,0,1-3.79,3.792Z" transform="translate(-187.696 -92.889)"/>
    <path id="Path_13596" data-name="Path 13596" d="M367.735,146.786l-4.656-6.055a.815.815,0,1,1,1.291-.988l4.657,6.055h0a.815.815,0,0,1-1.293.993Z" transform="translate(-272.594 -94.08)"/>
    <path id="Path_13597" data-name="Path 13597" d="M363.552,147.372a.814.814,0,0,1-.149-1.142l4.656-6.05a.815.815,0,0,1,1.293.993l-4.657,6.055h0a.814.814,0,0,1-1.143.144Z" transform="translate(-272.917 -94.516)"/>
  </g>
</svg>
