<svg xmlns="http://www.w3.org/2000/svg" xmlns:xlink="http://www.w3.org/1999/xlink" width="908" height="500" viewBox="0 0 908 500">
  <defs>
    <clipPath id="clip-path">
      <rect id="Rectangle_4765" data-name="Rectangle 4765" width="908" height="500" fill="#fff" stroke="#707070" stroke-width="1"/>
    </clipPath>
  </defs>
  <g id="Infographic" clip-path="url(#clip-path)">
    <g id="Group_7400" data-name="Group 7400" transform="translate(-77 10.253)">
      <g id="Infograph" transform="translate(0 0)">
        <g id="Group_7399" data-name="Group 7399">
          <g id="Rectangle_4764" data-name="Rectangle 4764" transform="translate(0 10.747)" fill="none" stroke="#51c8ed" stroke-linecap="round" stroke-width="2" stroke-dasharray="5">
            <path d="M0,0H840A131,131,0,0,1,971,131V331A131,131,0,0,1,840,462H0a0,0,0,0,1,0,0V0A0,0,0,0,1,0,0Z" stroke="none"/>
            <path d="M1,1H840A130,130,0,0,1,970,131V331A130,130,0,0,1,840,461H1a0,0,0,0,1,0,0V1A0,0,0,0,1,1,1Z" fill="none"/>
          </g>
          <path id="Polygon_15" data-name="Polygon 15" d="M11.882,0,23.765,21.124H0Z" transform="translate(299.643) rotate(90)" fill="#51c8ed"/>
          <path id="Polygon_16" data-name="Polygon 16" d="M11.882,0,23.765,21.124H0Z" transform="translate(588.693 483.994) rotate(-90)" fill="#51c8ed"/>
          <path id="Polygon_17" data-name="Polygon 17" d="M11.882,0,23.765,21.124H0Z" transform="translate(589.103) rotate(90)" fill="#51c8ed"/>
          <path id="Polygon_18" data-name="Polygon 18" d="M11.882,0,23.765,21.124H0Z" transform="translate(299.233 483.629) rotate(-90)" fill="#51c8ed"/>
          <path id="Polygon_19" data-name="Polygon 19" d="M11.882,0,23.765,21.124H0Z" transform="translate(944.663 45.623) rotate(135)" fill="#51c8ed"/>
          <path id="Polygon_20" data-name="Polygon 20" d="M11.882,0,23.765,21.124H0Z" transform="translate(937.127 444.974) rotate(-135)" fill="#51c8ed"/>
        </g>
      </g>
    </g>
  </g>
</svg>
