<svg xmlns="http://www.w3.org/2000/svg" xmlns:xlink="http://www.w3.org/1999/xlink" width="90" height="90" viewBox="0 0 90 90">
  <defs>
    <clipPath id="clip-path">
      <path id="Path_10357" data-name="Path 10357" d="M113.992,13.141a.788.788,0,1,0,0,1.576h8.319a.788.788,0,0,0,0-1.576Z" transform="translate(-113.203 -13.141)" fill="#29abe2"/>
    </clipPath>
    <clipPath id="clip-path-2">
      <path id="Path_10358" data-name="Path 10358" d="M114.777,25.506v-2.86a.265.265,0,0,1,.264-.263h9.453a.263.263,0,0,1,.263.263v2.86a.262.262,0,0,1-.263.261h-9.453a.263.263,0,0,1-.264-.261m.264-4.7a1.84,1.84,0,0,0-1.839,1.839v2.86a1.841,1.841,0,0,0,1.839,1.839h9.453a1.841,1.841,0,0,0,1.839-1.839v-2.86a1.84,1.84,0,0,0-1.839-1.839Z" transform="translate(-113.203 -20.807)" fill="#29abe2"/>
    </clipPath>
    <clipPath id="clip-path-3">
      <path id="Path_10359" data-name="Path 10359" d="M113.992,10.651a.788.788,0,1,0,0,1.576h5.527a.788.788,0,0,0,0-1.576Z" transform="translate(-113.203 -10.651)" fill="#29abe2"/>
    </clipPath>
    <clipPath id="clip-path-4">
      <path id="Path_10360" data-name="Path 10360" d="M120.6,2.582a3.242,3.242,0,0,0,.605,6.425h.078a2.7,2.7,0,0,0,2.085-.976.788.788,0,1,0-1.209-1.01,1.141,1.141,0,0,1-.916.411h-.025a1.668,1.668,0,1,1,.932-3.051.788.788,0,1,0,.882-1.305,3.226,3.226,0,0,0-1.809-.555,3.194,3.194,0,0,0-.623.061" transform="translate(-117.971 -2.521)" fill="#29abe2"/>
    </clipPath>
    <clipPath id="clip-path-5">
      <path id="Path_10361" data-name="Path 10361" d="M123.613,3.26l-.862,4.78a.789.789,0,0,0,1.552.281l.354-1.97.594,2.016.01.027a.9.9,0,0,0,.851.614.926.926,0,0,0,.288-.047.9.9,0,0,0,.567-.573l.009-.03.573-2.013.38,1.983a.788.788,0,0,0,1.548-.294l-.917-4.794a.9.9,0,0,0-1.734-.1l-.009.027L126.1,5.678l-.743-2.515-.007-.028a.9.9,0,0,0-.684-.6.941.941,0,0,0-.168-.016.906.906,0,0,0-.886.738" transform="translate(-122.739 -2.522)" fill="#29abe2"/>
    </clipPath>
    <clipPath id="clip-path-6">
      <path id="Path_10362" data-name="Path 10362" d="M129.707,2.632a1.9,1.9,0,0,0-1.375,1.536,1.731,1.731,0,0,0,.774,1.715.791.791,0,0,0,.109.061c.03.013.709.316,1.477.6.267.1.567.282.533.474a.668.668,0,0,1-.694.415,1.534,1.534,0,0,1-1.13-.481.788.788,0,0,0-1.147,1.081,3.111,3.111,0,0,0,2.254.975h.031a2.2,2.2,0,0,0,2.237-1.713,2.011,2.011,0,0,0-1.537-2.23c-.573-.21-1.108-.44-1.3-.526a.16.16,0,0,1-.043-.146.338.338,0,0,1,.269-.251,1.46,1.46,0,0,1,1.19.281.788.788,0,0,0,1.007-1.211,3.128,3.128,0,0,0-1.906-.687,2.57,2.57,0,0,0-.746.109" transform="translate(-128.04 -2.523)" fill="#29abe2"/>
    </clipPath>
    <clipPath id="clip-path-7">
      <path id="Path_10363" data-name="Path 10363" d="M143.981,26.008A8.169,8.169,0,0,1,146.412,25a1.1,1.1,0,0,0,.842-1.074V22.494h2.1v1.429A1.1,1.1,0,0,0,150.2,25a8.206,8.206,0,0,1,2.429,1.01,1.1,1.1,0,0,0,1.353-.161L155,24.831l1.486,1.486-1.013,1.013a1.1,1.1,0,0,0-.162,1.362,8.16,8.16,0,0,1,1.009,2.431,1.1,1.1,0,0,0,1.066.84h1.44v2.1h-1.435a1.1,1.1,0,0,0-1.072.846,8.209,8.209,0,0,1-1.01,2.431,1.094,1.094,0,0,0,.162,1.351l1.016,1.016L155,41.194l-1.013-1.013a1.1,1.1,0,0,0-1.36-.162,8.176,8.176,0,0,1-2.431,1.009,1.1,1.1,0,0,0-.84,1.072v1.432h-2.1V42.1a1.1,1.1,0,0,0-.846-1.078,8.192,8.192,0,0,1-2.431-1.01,1.1,1.1,0,0,0-1.353.162l-1.015,1.016-1.486-1.486,1.012-1.013a1.1,1.1,0,0,0,.162-1.36,8.228,8.228,0,0,1-1.007-2.431,1.1,1.1,0,0,0-1.068-.84h-1.437v-2.1h1.434a1.1,1.1,0,0,0,1.072-.848,8.208,8.208,0,0,1,1.01-2.431,1.1,1.1,0,0,0-.164-1.351l-1.015-1.016,1.486-1.486,1.013,1.015a1.1,1.1,0,0,0,.78.326,1.118,1.118,0,0,0,.579-.164M117,2.931a1.1,1.1,0,0,1,1.1-1.1H148.3a1.105,1.105,0,0,1,1.1,1.1v8.936H117Zm1.1-2.68a2.683,2.683,0,0,0-2.679,2.68V4.24H109.3a2.681,2.681,0,0,0-2.677,2.68V7.966a.787.787,0,0,0,1.574,0V6.92a1.105,1.105,0,0,1,1.1-1.1h6.131v6.05h-.09a2.681,2.681,0,0,0-2.68,2.677V36.961a2.259,2.259,0,0,1-2.227,2.285h0a2.241,2.241,0,0,1-2.236-2.237V11.641a.787.787,0,0,0-1.574,0V37.009a3.813,3.813,0,0,0,3.811,3.811h28.578l1.822,1.822a1.1,1.1,0,0,0,1.559,0l1.09-1.091a9.73,9.73,0,0,0,2.2.913v1.542a1.1,1.1,0,0,0,1.1,1.1h3.047a1.1,1.1,0,0,0,1.1-1.1V42.464a9.734,9.734,0,0,0,2.2-.913l1.09,1.091a1.106,1.106,0,0,0,1.561,0l2.153-2.155a1.106,1.106,0,0,0,0-1.561l-1.09-1.088a9.809,9.809,0,0,0,.913-2.2H159.3a1.1,1.1,0,0,0,1.1-1.1V31.49a1.1,1.1,0,0,0-1.1-1.1h-1.54a9.719,9.719,0,0,0-.911-2.2l1.09-1.09a1.107,1.107,0,0,0,0-1.561l-2.153-2.153a1.1,1.1,0,0,0-1.561,0l-.476.474V20.521a.788.788,0,1,0-1.576,0V24a9.781,9.781,0,0,0-1.239-.437v-1.54a1.1,1.1,0,0,0-1.1-1.1h-3.047a1.1,1.1,0,0,0-1.1,1.1v1.54a9.792,9.792,0,0,0-2.2.913l-1.091-1.09a1.1,1.1,0,0,0-1.558,0l-2.155,2.153a1.1,1.1,0,0,0,0,1.561l1.09,1.09a9.7,9.7,0,0,0-.913,2.2h-1.54a1.1,1.1,0,0,0-1.1,1.1v3.047a1.1,1.1,0,0,0,1.1,1.1h1.54a9.708,9.708,0,0,0,.913,2.2l-1.09,1.088a1.126,1.126,0,0,0-.222.319h-24.96a3.888,3.888,0,0,0,.74-2.285V14.544a1.1,1.1,0,0,1,1.1-1.1h35.728a1.1,1.1,0,0,1,1.1,1.1v2.3a.788.788,0,0,0,1.576,0v-2.3a2.681,2.681,0,0,0-2.679-2.677h-.092V2.931A2.681,2.681,0,0,0,148.3.251Z" transform="translate(-106.618 -0.251)" fill="#29abe2"/>
    </clipPath>
    <clipPath id="clip-path-8">
      <path id="Path_10364" data-name="Path 10364" d="M133.261,23.945a3.093,3.093,0,1,1,3.092,3.092,3.1,3.1,0,0,1-3.092-3.092m-1.577,0a4.669,4.669,0,1,0,4.669-4.671,4.674,4.674,0,0,0-4.669,4.671" transform="translate(-131.684 -19.274)" fill="#29abe2"/>
    </clipPath>
  </defs>
  <g id="نظام_ادارة_المحتوى" data-name="نظام ادارة المحتوى" transform="translate(-255 -1810)">
    <g id="Ellipse_166" data-name="Ellipse 166" transform="translate(255 1810)" fill="#fff" stroke="#29abe2" stroke-width="1" stroke-dasharray="3">
      <circle cx="45" cy="45" r="45" stroke="none"/>
      <circle cx="45" cy="45" r="44.5" fill="none"/>
    </g>
    <g id="Group_5568" data-name="Group 5568" transform="translate(273 1833)">
      <g id="Group_5529" data-name="Group 5529" transform="translate(9.725 19.035)">
        <g id="Group_5528" data-name="Group 5528" clip-path="url(#clip-path)">
          <rect id="Rectangle_3658" data-name="Rectangle 3658" width="6.76" height="9.129" transform="translate(-0.724 1.098) rotate(-56.619)" fill="#29abe2"/>
        </g>
      </g>
      <g id="Group_5531" data-name="Group 5531" transform="translate(9.725 30.356)">
        <g id="Group_5530" data-name="Group 5530" clip-path="url(#clip-path-2)">
          <rect id="Rectangle_3659" data-name="Rectangle 3659" width="12.683" height="14.561" transform="translate(-3.004 4.558) rotate(-56.618)" fill="#29abe2"/>
        </g>
      </g>
      <g id="Group_5533" data-name="Group 5533" transform="translate(9.725 15.358)">
        <g id="Group_5532" data-name="Group 5532" clip-path="url(#clip-path-3)">
          <rect id="Rectangle_3660" data-name="Rectangle 3660" width="5.224" height="6.798" transform="translate(-0.724 1.098) rotate(-56.618)" fill="#29abe2"/>
        </g>
      </g>
      <g id="Group_5535" data-name="Group 5535" transform="translate(16.765 3.352)">
        <g id="Group_5534" data-name="Group 5534" clip-path="url(#clip-path-4)">
          <rect id="Rectangle_3661" data-name="Rectangle 3661" width="8.596" height="8.395" transform="translate(-3.085 4.523) rotate(-56.619)" fill="#29abe2"/>
        </g>
      </g>
      <g id="Group_5537" data-name="Group 5537" transform="translate(23.806 3.354)">
        <g id="Group_5536" data-name="Group 5536" clip-path="url(#clip-path-5)">
          <rect id="Rectangle_3662" data-name="Rectangle 3662" width="9.318" height="9.392" transform="matrix(0.55, -0.835, 0.835, 0.55, -3.107, 4.508)" fill="#29abe2"/>
        </g>
      </g>
      <g id="Group_5539" data-name="Group 5539" transform="translate(31.635 3.355)">
        <g id="Group_5538" data-name="Group 5538" clip-path="url(#clip-path-6)">
          <rect id="Rectangle_3663" data-name="Rectangle 3663" width="8.139" height="7.704" transform="matrix(0.55, -0.835, 0.835, 0.55, -3.062, 4.52)" fill="#29abe2"/>
        </g>
      </g>
      <g id="Group_5541" data-name="Group 5541">
        <g id="Group_5540" data-name="Group 5540" clip-path="url(#clip-path-7)">
          <rect id="Rectangle_3664" data-name="Rectangle 3664" width="67.047" height="69.589" transform="translate(-20.61 31.276) rotate(-56.619)" fill="#29abe2"/>
        </g>
      </g>
      <g id="Group_5543" data-name="Group 5543" transform="translate(37.016 28.092)">
        <g id="Group_5542" data-name="Group 5542" clip-path="url(#clip-path-8)">
          <rect id="Rectangle_3665" data-name="Rectangle 3665" width="12.937" height="12.937" transform="translate(-4.291 6.511) rotate(-56.618)" fill="#29abe2"/>
        </g>
      </g>
    </g>
  </g>
</svg>
