<svg xmlns="http://www.w3.org/2000/svg" width="90" height="90" viewBox="0 0 90 90">
  <g id="تطوير_تطبيقات_الويب_المخصصة" data-name="تطوير تطبيقات الويب المخصصة" transform="translate(-255 -1356)">
    <g id="Ellipse_163" data-name="Ellipse 163" transform="translate(255 1356)" fill="#fff" stroke="#29abe2" stroke-width="1" stroke-dasharray="3">
      <circle cx="45" cy="45" r="45" stroke="none"/>
      <circle cx="45" cy="45" r="44.5" fill="none"/>
    </g>
    <g id="responsive" transform="translate(275 1382)">
      <path id="Path_10346" data-name="Path 10346" d="M43.282,59.858H2.5a2.5,2.5,0,0,0-2.5,2.5V89.545a2.5,2.5,0,0,0,2.5,2.5H16.888l-.651,5.2h-1a.8.8,0,1,0,0,1.593H19.49a.8.8,0,1,0,0-1.593H17.844l.651-5.2h1a.8.8,0,1,0,0-1.593H2.5a.9.9,0,0,1-.9-.9v-2.6h17.9a.8.8,0,1,0,0-1.593H1.593v-23a.9.9,0,0,1,.9-.9H43.282a.9.9,0,0,1,.9.9V79.348a.8.8,0,1,0,1.593,0V62.354A2.5,2.5,0,0,0,43.282,59.858Z" transform="translate(0 -59.858)" fill="#29abe2"/>
      <path id="Path_10347" data-name="Path 10347" d="M236.722,213.779h-11.9a2.5,2.5,0,0,0-2.5,2.5v18.694a2.5,2.5,0,0,0,2.5,2.5h11.9a2.5,2.5,0,0,0,2.5-2.5V216.275A2.5,2.5,0,0,0,236.722,213.779Zm.9,21.19a.9.9,0,0,1-.9.9h-11.9a.9.9,0,0,1-.9-.9v-.9h13.7v.9Zm0-2.5h-13.7v-13.7h13.7v13.7Zm0-15.295h-13.7v-.9a.9.9,0,0,1,.9-.9h11.9a.9.9,0,0,1,.9.9Zm10.993,3.4h-5.1a2.5,2.5,0,0,0-2.5,2.5v11.9a2.5,2.5,0,0,0,2.5,2.5h5.1a2.5,2.5,0,0,0,2.5-2.5v-11.9A2.5,2.5,0,0,0,248.618,220.577Zm.9,14.392a.9.9,0,0,1-.9.9h-5.1a.9.9,0,0,1-.9-.9v-.9h6.9v.9Zm0-2.5h-6.9v-6.9h6.9Zm0-8.5h-6.9v-.9a.9.9,0,0,1,.9-.9h5.1a.9.9,0,0,1,.9.9v.9Z" transform="translate(-200.237 -198.484)" fill="#29abe2"/>
    </g>
  </g>
</svg>
