<svg xmlns="http://www.w3.org/2000/svg" width="86" height="86" viewBox="0 0 86 86">
  <g id="التصميم_المبدائى" data-name="التصميم المبدائى" transform="translate(-709 -2589)">
    <circle id="Ellipse_171" data-name="Ellipse 171" cx="43" cy="43" r="43" transform="translate(709 2589)" fill="#fff"/>
    <g id="design-4213699" transform="translate(725 2605)">
      <path id="Path_10428" data-name="Path 10428" d="M164.952,49.884a.555.555,0,0,1-.555-.555V21.58l-8.383-.056a.555.555,0,0,1-.555-.555l.052-8.377H119.438V49.332h0a.555.555,0,0,1-1.11,0v-37.3a.555.555,0,0,1,.555-.555h37.183a.555.555,0,0,1,.555.555l-.046,8.38,8.38.052a.555.555,0,0,1,.555.555v28.3a.555.555,0,0,1-.558.558Z" transform="translate(-114.671 -11.459)" fill="#29abe2"/>
      <path id="Path_10429" data-name="Path 10429" d="M101.5,471.747a.555.555,0,0,1-.547-.469,2.95,2.95,0,0,1,.731-2.234c1-1.173,2.867-1.768,5.539-1.768,1.483,0,3.4-.265,4.133-1.526a2.424,2.424,0,0,0,.247-1.479c0-.163-.012-.333-.012-.515h0a.555.555,0,1,1,1.11,0c0,.162.006.32.012.473a3.462,3.462,0,0,1-.4,2.078c-.788,1.361-2.553,2.08-5.093,2.08-2.906,0-4.157.75-4.7,1.38a1.848,1.848,0,0,0-.477,1.34h0a.555.555,0,0,1-.462.635.6.6,0,0,1-.089.007Z" transform="translate(-99.05 -417.339)" fill="#29abe2"/>
      <path id="Path_10430" data-name="Path 10430" d="M132.8,120.346H86.184a3.884,3.884,0,0,1-3.885-3.885V84.273a3.884,3.884,0,0,1,3.885-3.885h.333a.555.555,0,0,1,0,1.11h-.333a2.775,2.775,0,0,0-2.775,2.775v32.189a2.775,2.775,0,0,0,2.775,2.775H132.8a2.775,2.775,0,0,0,2.775-2.775V84.273A2.775,2.775,0,0,0,132.8,81.5h-2.087a.555.555,0,0,1,0-1.11H132.8a3.884,3.884,0,0,1,3.885,3.885v32.189a3.884,3.884,0,0,1-3.885,3.885Z" transform="translate(-82.299 -73.374)" fill="#29abe2"/>
      <path id="Path_10431" data-name="Path 10431" d="M389.106,468.859a.555.555,0,0,1-.555-.555v-4.551a.555.555,0,0,1,1.11,0V468.3a.555.555,0,0,1-.555.555Z" transform="translate(-357.473 -417.337)" fill="#29abe2"/>
      <path id="Path_10432" data-name="Path 10432" d="M301.606,468.859a.555.555,0,0,1-.555-.555v-4.551a.555.555,0,0,1,1.11,0V468.3a.555.555,0,0,1-.555.555Z" transform="translate(-278.852 -417.337)" fill="#29abe2"/>
      <path id="Path_10433" data-name="Path 10433" d="M248.686,513.641a.555.555,0,0,1-.555-.555v-1.427a.635.635,0,0,0-.635-.634H225.111a.634.634,0,0,0-.633.634v1.427h0a.555.555,0,1,1-1.11,0v-1.427a1.746,1.746,0,0,1,1.743-1.744H247.5a1.746,1.746,0,0,1,1.745,1.744v1.427h0a.555.555,0,0,1-.555.555Z" transform="translate(-209.052 -459.313)" fill="#29abe2"/>
      <path id="Path_10434" data-name="Path 10434" d="M136.133,380.092H82.856a.555.555,0,1,1,0-1.11h53.277a.555.555,0,1,1,0,1.11Z" transform="translate(-82.301 -341.667)" fill="#29abe2"/>
      <path id="Path_10435" data-name="Path 10435" d="M206.854,537.592H171.446a.555.555,0,0,1,0-1.11h35.408a.555.555,0,1,1,0,1.11Z" transform="translate(-161.901 -483.184)" fill="#29abe2"/>
      <path id="Path_10436" data-name="Path 10436" d="M328.679,406.348a2.442,2.442,0,1,1,1.727-.715A2.442,2.442,0,0,1,328.679,406.348Zm0-3.766a1.332,1.332,0,1,0,1.332,1.332,1.331,1.331,0,0,0-1.332-1.332Z" transform="translate(-301.482 -361.867)" fill="#29abe2"/>
      <path id="Path_10437" data-name="Path 10437" d="M494,21.337a.555.555,0,0,1-.4-.165l-8.824-8.936a.555.555,0,1,1,.79-.777l8.824,8.935a.555.555,0,0,1-.4.945Z" transform="translate(-443.771 -11.271)" fill="#29abe2"/>
      <path id="Path_10438" data-name="Path 10438" d="M183.03,70.371h-.555a.555.555,0,0,1,0-1.11h.555a.555.555,0,1,1,0,1.11Zm-2.775,0H179.7a.555.555,0,0,1,0-1.11h.555a.555.555,0,0,1,0,1.11Zm-2.775,0h-.555a.555.555,0,0,1,0-1.11h.555a.555.555,0,0,1,0,1.11Zm-2.775,0h-.555a.555.555,0,1,1,0-1.11h.555a.555.555,0,0,1,0,1.11Zm-2.775,0h-.555a.555.555,0,1,1,0-1.11h.555a.555.555,0,1,1,0,1.11Zm-2.775,0H168.6a.555.555,0,0,1,0-1.11h.555a.555.555,0,0,1,0,1.11Zm-2.775,0h-.555a.555.555,0,0,1,0-1.11h.555a.555.555,0,0,1,0,1.11Zm-2.775,0h-.555a.555.555,0,1,1,0-1.11h.555a.555.555,0,0,1,0,1.11Zm-2.775,0h-.555a.555.555,0,1,1,0-1.11h.555a.555.555,0,0,1,0,1.11Zm-2.775,0H157.5a.555.555,0,1,1,0-1.11h.555a.555.555,0,0,1,0,1.11Zm-2.775,0h-.555a.555.555,0,0,1,0-1.11h.555a.555.555,0,0,1,0,1.11Zm-2.775,0h-.555a.555.555,0,0,1,0-1.11h.555a.555.555,0,0,1,0,1.11Zm-2.775,0h-.555a.555.555,0,1,1,0-1.11h.555a.555.555,0,0,1,0,1.11Zm-2.775,0H146.4a.555.555,0,1,1,0-1.11h.555a.555.555,0,0,1,0,1.11Zm-2.775,0h-.071a.555.555,0,0,1-.555-.555v-.484a.555.555,0,1,1,1.11,0v.212a.549.549,0,0,1,.071.272A.555.555,0,0,1,144.181,70.371Zm40.885-.182a.555.555,0,0,1-.555-.555V69.08a.555.555,0,1,1,1.11,0v.555a.555.555,0,0,1-.555.555ZM144.11,67.667a.555.555,0,0,1-.555-.555v-.555a.555.555,0,1,1,1.11,0v.555a.555.555,0,0,1-.555.555Zm40.956-.253a.555.555,0,0,1-.555-.555V66.3a.555.555,0,1,1,1.11,0v.555a.555.555,0,0,1-.555.555ZM144.11,64.893a.555.555,0,0,1-.555-.555v-.555a.555.555,0,1,1,1.11,0v.555a.555.555,0,0,1-.555.555Zm40.956-.253a.555.555,0,0,1-.555-.555V63.53a.555.555,0,1,1,1.11,0v.555a.555.555,0,0,1-.555.555ZM144.11,62.118a.555.555,0,0,1-.555-.555v-.555a.555.555,0,1,1,1.11,0v.555a.555.555,0,0,1-.555.555Zm40.956-.253a.555.555,0,0,1-.555-.555v-.555a.555.555,0,1,1,1.11,0v.555a.555.555,0,0,1-.555.555ZM144.11,59.343a.555.555,0,0,1-.555-.555v-.555a.555.555,0,0,1,1.11,0v.555A.555.555,0,0,1,144.11,59.343Zm40.956-.253a.555.555,0,0,1-.555-.555V57.98a.555.555,0,1,1,1.11,0v.555a.555.555,0,0,1-.555.555ZM144.11,56.568a.555.555,0,0,1-.555-.555v-.555a.555.555,0,0,1,1.11,0v.555A.555.555,0,0,1,144.11,56.568Zm40.956-.253a.555.555,0,0,1-.555-.555v-.555a.555.555,0,1,1,1.11,0v.555a.555.555,0,0,1-.555.555ZM144.11,53.793a.555.555,0,0,1-.555-.555v-.555a.555.555,0,0,1,1.11,0v.555A.555.555,0,0,1,144.11,53.793Zm40.956-.253a.555.555,0,0,1-.555-.555V52.43a.555.555,0,1,1,1.11,0v.555a.555.555,0,0,1-.555.555ZM144.11,51.018a.555.555,0,0,1-.555-.555v-.555a.555.555,0,1,1,1.11,0v.555A.555.555,0,0,1,144.11,51.018Zm40.956-.253a.555.555,0,0,1-.555-.555v-.555a.555.555,0,1,1,1.11,0v.555a.555.555,0,0,1-.555.555ZM144.11,48.243a.555.555,0,0,1-.555-.555v-.555a.555.555,0,0,1,1.11,0v.555A.555.555,0,0,1,144.11,48.243Zm40.956-.253a.555.555,0,0,1-.555-.555V46.88a.555.555,0,1,1,1.11,0v.555a.555.555,0,0,1-.555.555ZM144.11,45.468a.555.555,0,0,1-.555-.555v-.555a.555.555,0,0,1,1.11,0v.555A.555.555,0,0,1,144.11,45.468Zm40.956-.253a.555.555,0,0,1-.555-.555v-.555a.555.555,0,1,1,1.11,0v.555A.555.555,0,0,1,185.067,45.215ZM144.11,42.693a.555.555,0,0,1-.555-.555v-.555a.555.555,0,0,1,1.11,0v.555A.555.555,0,0,1,144.11,42.693Zm0-2.775a.555.555,0,0,1-.555-.555v-.555a.555.555,0,1,1,1.11,0v.555A.555.555,0,0,1,144.11,39.918ZM178.6,38.294h-.043a.555.555,0,1,1,0-1.11h.043a.555.555,0,1,1,0,1.11Zm-2.263,0h-.555a.555.555,0,1,1,0-1.11h.555a.555.555,0,1,1,0,1.11Zm-2.775,0h-.555a.555.555,0,1,1,0-1.11h.555a.555.555,0,1,1,0,1.11Zm-2.775,0h-.555a.555.555,0,1,1,0-1.11h.555a.555.555,0,1,1,0,1.11Zm-2.775,0h-.555a.555.555,0,1,1,0-1.11h.555a.555.555,0,1,1,0,1.11Zm-2.775,0h-.555a.555.555,0,1,1,0-1.11h.555a.555.555,0,1,1,0,1.11Zm-2.775,0h-.555a.555.555,0,1,1,0-1.11h.555a.555.555,0,1,1,0,1.11Zm-2.775,0h-.555a.555.555,0,1,1,0-1.11h.555a.555.555,0,1,1,0,1.11Zm-2.775,0h-.555a.555.555,0,1,1,0-1.11h.555a.555.555,0,1,1,0,1.11Zm-2.775,0h-.555a.555.555,0,1,1,0-1.11h.555a.555.555,0,1,1,0,1.11Zm-2.775,0h-.555a.555.555,0,1,1,0-1.11h.555a.555.555,0,1,1,0,1.11Zm-2.775,0h-.555a.555.555,0,1,1,0-1.11h.555a.555.555,0,1,1,0,1.11Zm-2.775,0h-.555a.555.555,0,1,1,0-1.11h.555a.555.555,0,1,1,0,1.11Z" transform="translate(-137.339 -34.554)" fill="#29abe2"/>
      <path id="Path_10439" data-name="Path 10439" d="M320.486,131.42a.554.554,0,0,1-.277-.074l-9.777-5.645a.554.554,0,0,1-.277-.48V113.93a.555.555,0,0,1,.277-.481l9.777-5.645h0a.555.555,0,0,1,.555,0l9.777,5.642a.555.555,0,0,1,.277.48V125.22a.555.555,0,0,1-.277.48l-9.777,5.645a.554.554,0,0,1-.277.074Zm-9.222-6.52,9.222,5.328,9.222-5.328V114.252l-9.222-5.328-9.222,5.328Z" transform="translate(-287.03 -97.942)" fill="#29abe2"/>
      <path id="Path_10440" data-name="Path 10440" d="M407.056,230.645a.555.555,0,0,1-.555-.555V218.717a.555.555,0,0,1,1.11,0V230.09a.555.555,0,0,1-.555.555Z" transform="translate(-373.601 -197.167)" fill="#29abe2"/>
      <path id="Path_10441" data-name="Path 10441" d="M320.7,169.952a.568.568,0,0,1-.274-.072l-9.777-5.562a.555.555,0,0,1,.544-.966l9.5,5.405,9.507-5.405a.555.555,0,1,1,.549.964l-9.777,5.562h0a.558.558,0,0,1-.274.073Z" transform="translate(-287.243 -147.847)" fill="#29abe2"/>
      <path id="Path_10442" data-name="Path 10442" d="M189.413,76.219h-9.761a.555.555,0,0,1,0-1.11h9.761a.555.555,0,0,1,0,1.11Z" transform="translate(-169.274 -68.631)" fill="#29abe2"/>
      <path id="Path_10443" data-name="Path 10443" d="M189.413,104.472h-9.761a.555.555,0,0,1,0-1.11h9.761a.555.555,0,0,1,0,1.11Z" transform="translate(-169.274 -94.017)" fill="#29abe2"/>
      <path id="Path_10444" data-name="Path 10444" d="M184.5,132.722h-4.884a.555.555,0,0,1,0-1.11H184.5a.555.555,0,0,1,0,1.11Z" transform="translate(-169.246 -119.4)" fill="#29abe2"/>
      <path id="Path_10445" data-name="Path 10445" d="M187.486,275.312h-.555a.555.555,0,1,1,0-1.11h.555a.555.555,0,1,1,0,1.11Zm-2.775,0h-.555a.555.555,0,1,1,0-1.11h.555a.555.555,0,1,1,0,1.11Zm-2.775,0h-.555a.555.555,0,1,1,0-1.11h.555a.555.555,0,0,1,0,1.11Zm-2.775,0h-.555a.555.555,0,1,1,0-1.11h.555a.555.555,0,1,1,0,1.11Zm-2.775,0h-.555a.555.555,0,1,1,0-1.11h.555a.555.555,0,1,1,0,1.11Z" transform="translate(-165.841 -247.52)" fill="#29abe2"/>
      <path id="Path_10446" data-name="Path 10446" d="M407.056,75.14a.555.555,0,0,1-.555-.555V74.03a.555.555,0,1,1,1.11,0v.555a.555.555,0,0,1-.555.555Zm0-2.775a.555.555,0,0,1-.555-.555v-.555a.555.555,0,1,1,1.11,0v.555a.555.555,0,0,1-.555.555Zm0-2.775a.555.555,0,0,1-.555-.555V68.48a.555.555,0,1,1,1.11,0v.555a.555.555,0,0,1-.555.555Zm0-2.775a.555.555,0,0,1-.555-.555V65.7a.555.555,0,1,1,1.11,0v.555a.555.555,0,0,1-.555.555Zm0-2.775a.555.555,0,0,1-.555-.555V62.93a.555.555,0,1,1,1.11,0v.555a.555.555,0,0,1-.555.555Zm0-2.775a.555.555,0,0,1-.555-.555v-.271a.555.555,0,1,1,1.11,0v.271a.555.555,0,0,1-.555.555Z" transform="translate(-373.601 -54.951)" fill="#29abe2"/>
      <path id="Path_10447" data-name="Path 10447" d="M183.27,173.191a4.189,4.189,0,1,1,2.958-1.227,4.184,4.184,0,0,1-2.958,1.227Zm0-7.258a3.076,3.076,0,1,0,2.173.9,3.073,3.073,0,0,0-2.173-.9Z" transform="translate(-169.264 -149.24)" fill="#29abe2"/>
    </g>
  </g>
</svg>
