<svg xmlns="http://www.w3.org/2000/svg" width="86" height="86" viewBox="0 0 86 86">
  <g id="التطوير" transform="translate(-440 -2589)">
    <circle id="Ellipse_172" data-name="Ellipse 172" cx="43" cy="43" r="43" transform="translate(440 2589)" fill="#fff"/>
    <g id="development-5085243" transform="translate(458 2605)">
      <path id="Path_10479" data-name="Path 10479" d="M170.3,88.02h-39.85a4.856,4.856,0,0,1-4.85-4.85.618.618,0,0,1,.618-.618h3.206V53.7a.619.619,0,0,1,.618-.618h4.516a.618.618,0,0,1,0,1.237h-3.9V82.552h39.428V54.319h-4.251a.618.618,0,0,1,0-1.237h4.87a.618.618,0,0,1,.618.618V82.552h3.207a.618.618,0,0,1,.618.618,4.857,4.857,0,0,1-4.852,4.85Zm-43.411-4.231a3.619,3.619,0,0,0,3.561,2.995H170.3a3.619,3.619,0,0,0,3.561-2.995Zm23.993,1.99h-1.031a.618.618,0,1,1,0-1.237h1.031a.618.618,0,1,1,0,1.237Zm9.677-4.792H140.155a.618.618,0,1,1,0-1.237h20.409a.618.618,0,1,1,0,1.237Zm-13.119-3.4a.619.619,0,0,1-.618-.584l-.093-1.679a2.142,2.142,0,0,0-3.548-1.469l-1.253,1.122a.618.618,0,0,1-.85-.023L136.929,70.8a.618.618,0,0,1-.023-.85l1.122-1.253a2.143,2.143,0,0,0-1.47-3.548l-1.679-.093a.618.618,0,0,1-.584-.617V58.566a.619.619,0,0,1,.584-.618l1.675-.093a2.121,2.121,0,0,0,1.832-1.3,2.143,2.143,0,0,0-.365-2.257L136.9,53.053a.619.619,0,0,1,.023-.85l4.152-4.154a.619.619,0,0,1,.85-.023l1.246,1.115a2.142,2.142,0,0,0,3.555-1.469L146.823,46a.619.619,0,0,1,.618-.584h5.874a.619.619,0,0,1,.617.584l.093,1.679a2.116,2.116,0,0,0,1.294,1.826,2.144,2.144,0,0,0,2.262-.364l1.246-1.115a.618.618,0,0,1,.85.023L163.83,52.2a.618.618,0,0,1,.023.85L162.731,54.3a2.114,2.114,0,0,0-.374,2.21,2.139,2.139,0,0,0,1.848,1.338l1.676.093a.619.619,0,0,1,.584.618v5.873a.618.618,0,0,1-.584.617l-1.68.093a2.142,2.142,0,0,0-1.469,3.548l1.122,1.253a.619.619,0,0,1-.023.85l-4.152,4.154a.617.617,0,0,1-.85.023l-1.253-1.121a2.142,2.142,0,0,0-3.548,1.47L153.936,77a.618.618,0,0,1-.617.584Zm-2.85-5.5a3.388,3.388,0,0,1,3.374,3.17l.061,1.1h4.7l.061-1.1a3.379,3.379,0,0,1,5.607-2.322l.817.731,3.325-3.327-.732-.817a3.378,3.378,0,0,1,2.322-5.607l1.1-.062v-4.7l-1.091-.06a3.378,3.378,0,0,1-2.327-5.607l.732-.818-3.327-3.325-.81.725a3.379,3.379,0,0,1-5.615-2.315l-.06-1.1h-4.7l-.06,1.091a3.379,3.379,0,0,1-5.614,2.322l-.81-.725-3.325,3.327.725.81a3.379,3.379,0,0,1-2.32,5.615l-1.091.06v4.7l1.1.061a3.379,3.379,0,0,1,2.323,5.607l-.732.817,3.327,3.325.817-.732a3.355,3.355,0,0,1,2.234-.847Zm5.784-1.347a9.238,9.238,0,1,1,9.237-9.237A9.248,9.248,0,0,1,150.379,70.737Zm0-17.238a8,8,0,1,0,8,8A8.01,8.01,0,0,0,150.379,53.5Zm-1.269,12.287a.61.61,0,0,1-.2-.033.619.619,0,0,1-.386-.785l2.5-7.336a.618.618,0,1,1,1.171.4l-2.5,7.335a.62.62,0,0,1-.585.419Zm4.468-.855a.618.618,0,0,1-.416-1.076l2.353-2.137-2.137-2.353a.618.618,0,1,1,.915-.832l2.552,2.81a.619.619,0,0,1-.042.874l-2.81,2.552a.613.613,0,0,1-.415.161Zm-6.655,0a.617.617,0,0,1-.458-.2l-2.552-2.81a.618.618,0,0,1,.042-.873l2.81-2.552a.619.619,0,0,1,.832.916l-2.353,2.137L147.38,63.9a.617.617,0,0,1-.458,1.032Zm-9.408-15.848a.617.617,0,0,1-.437-.181l-1.817-1.817a.618.618,0,1,1,.874-.874l1.817,1.817a.618.618,0,0,1-.437,1.055Zm25.728,0a.618.618,0,0,1-.437-1.055l1.817-1.817a.618.618,0,0,1,.874.874L163.679,48.9a.613.613,0,0,1-.437.181Zm4.679-2.948a2.348,2.348,0,1,1,1.661-.687A2.343,2.343,0,0,1,167.922,46.135Zm0-3.462a1.112,1.112,0,1,0,.788.325,1.109,1.109,0,0,0-.788-.325Zm-35.087,3.462a2.348,2.348,0,1,1,1.661-.687A2.342,2.342,0,0,1,132.835,46.135Zm0-3.462a1.112,1.112,0,1,0,.787.325,1.109,1.109,0,0,0-.787-.325Zm17.544,1.69a.619.619,0,0,1-.618-.618v-.157a.618.618,0,1,1,1.237,0v.157A.619.619,0,0,1,150.379,44.363Zm0-2.176a.619.619,0,0,1-.618-.618v-.157a.618.618,0,1,1,1.237,0v.157A.619.619,0,0,1,150.379,42.187Zm0-2.046a.619.619,0,0,1-.618-.618v-1.3a2.35,2.35,0,1,1,1.236,0v1.3a.618.618,0,0,1-.618.618Zm0-5.294a1.113,1.113,0,1,0,1.114,1.113A1.114,1.114,0,0,0,150.379,34.847Z" transform="translate(-125.604 -33.611)" fill="#29abe2"/>
    </g>
  </g>
</svg>
