<svg xmlns="http://www.w3.org/2000/svg" xmlns:xlink="http://www.w3.org/1999/xlink" width="90" height="90" viewBox="0 0 90 90">
  <defs>
    <clipPath id="clip-path">
      <path id="Path_10365" data-name="Path 10365" d="M5.907,4.039a.72.72,0,1,1,.72.72.719.719,0,0,1-.72-.72m-1.441,0A2.16,2.16,0,1,0,6.627,1.878,2.161,2.161,0,0,0,4.466,4.039" transform="translate(-4.466 -1.878)" fill="#29abe2"/>
    </clipPath>
    <clipPath id="clip-path-2">
      <path id="Path_10366" data-name="Path 10366" d="M18.1,4.055a.718.718,0,0,1,.72-.72H31.6a.719.719,0,0,1,.721.718v0a.721.721,0,0,1-.721.72H18.823a.719.719,0,0,1-.72-.72m.72-2.161a2.162,2.162,0,0,0-2.161,2.16v0a2.165,2.165,0,0,0,2.161,2.161H31.6a2.161,2.161,0,1,0,0-4.322Z" transform="translate(-16.662 -1.894)" fill="#29abe2"/>
    </clipPath>
    <clipPath id="clip-path-3">
      <path id="Path_10367" data-name="Path 10367" d="M13.369,4.055a.721.721,0,0,1,1.441,0v0a.721.721,0,0,1-1.441,0m-1.44,0v0A2.16,2.16,0,1,0,14.09,1.894a2.161,2.161,0,0,0-2.161,2.161" transform="translate(-11.929 -1.894)" fill="#29abe2"/>
    </clipPath>
    <clipPath id="clip-path-4">
      <path id="Path_10368" data-name="Path 10368" d="M9.645,4.055a.721.721,0,0,1,1.441,0v0a.721.721,0,0,1-1.441,0m-1.44,0v0a2.161,2.161,0,1,0,2.161-2.161A2.162,2.162,0,0,0,8.2,4.055" transform="translate(-8.205 -1.894)" fill="#29abe2"/>
    </clipPath>
    <clipPath id="clip-path-5">
      <path id="Path_10369" data-name="Path 10369" d="M20.747,17.338V10.086h7.876v7.252a3.893,3.893,0,0,1-3.89,3.89h-.1a3.9,3.9,0,0,1-3.89-3.89m9.317,0V10.086h6.929l.769,5.806a13.113,13.113,0,0,1,.082,1.446,3.89,3.89,0,0,1-7.78,0m13.112,3.89a3.9,3.9,0,0,1-3.89-3.89,14.3,14.3,0,0,0-.093-1.615l0-.012-.744-5.625h5.739l3.3,6.112a2.753,2.753,0,0,1,.251,1.14,3.9,3.9,0,0,1-3.114,3.811,7.36,7.36,0,0,1-1.128.085c-.108,0-.215,0-.321-.006M35.828,0a.721.721,0,0,0,0,1.441h4.946A3.125,3.125,0,0,1,43.9,4.563V8.645H5.283V4.563A3.126,3.126,0,0,1,8.4,1.441H32.466a.721.721,0,0,0,0-1.441H8.4A4.568,4.568,0,0,0,3.843,4.563V9.183L2.319,12.007a.719.719,0,1,0,1.266.683l1.408-2.6h5.823L10,15.7l0,.012a12.846,12.846,0,0,0-.1,1.622A3.9,3.9,0,0,1,6,21.228a4,4,0,0,1-4.563-3.89,3.192,3.192,0,0,1,.543-1.682.72.72,0,0,0-1.268-.685A4.584,4.584,0,0,0,0,17.212v.126a5.34,5.34,0,0,0,3.843,5.117V40.87A4.568,4.568,0,0,0,8.4,45.433h32.37a4.568,4.568,0,0,0,4.563-4.563V37.845a.721.721,0,0,0-1.441,0V40.87a3.126,3.126,0,0,1-3.122,3.122H8.4A3.126,3.126,0,0,1,5.283,40.87v-18.2H6a5.33,5.33,0,0,0,4.611-2.659,5.333,5.333,0,0,0,2.776,2.336.72.72,0,1,0,.5-1.351,3.908,3.908,0,0,1-2.554-3.656,11.915,11.915,0,0,1,.091-1.435l.848-5.817h7.034v7.252a3.905,3.905,0,0,1-2.552,3.654.72.72,0,0,0,.495,1.353,5.331,5.331,0,0,0,2.778-2.336,5.326,5.326,0,0,0,4.61,2.659h.1a5.328,5.328,0,0,0,4.611-2.659,5.326,5.326,0,0,0,9.221,0,5.328,5.328,0,0,0,4.61,2.659h.72V34.483a.721.721,0,0,0,1.441,0V22.456a5.343,5.343,0,0,0,3.843-5.118,4.177,4.177,0,0,0-.4-1.77l-.017-.035-3.429-6.35V4.563A4.568,4.568,0,0,0,40.774,0Z" fill="#29abe2"/>
    </clipPath>
    <clipPath id="clip-path-6">
      <path id="Path_10370" data-name="Path 10370" d="M16.562,31.477a.72.72,0,1,1,.72.72.722.722,0,0,1-.72-.72m7.3,0a.721.721,0,1,1,.721.72.722.722,0,0,1-.721-.72M13.88,23.649h3.342l.3,2.4H14.389Zm4.794,0h3.937l-.3,2.4H18.974Zm5.391,0h3.28l-.486,2.4h-3.1Zm-11-3.841h3.675l.3,2.4H13.576Zm5.127,0h4.9l-.3,2.4h-4.3Zm6.351,0H28.12l-.484,2.4H24.245ZM8.925,16.156a.721.721,0,0,0,0,1.441h1.23a1.206,1.206,0,0,1,1.173.953l2.141,10.113a2.654,2.654,0,0,0,1.82,1.979,2.161,2.161,0,1,0,4.03.116h3.225a2.161,2.161,0,1,0,4.074,0h.172a.721.721,0,1,0,0-1.441H16.052a1.2,1.2,0,0,1-1.173-.951l-.184-.874H27.45a.72.72,0,0,0,.706-.578l1.551-7.684a.725.725,0,0,0-.574-.849A.976.976,0,0,0,29,18.366H12.763a2.664,2.664,0,0,0-2.61-2.21Z" transform="translate(-8.205 -16.156)" fill="#29abe2"/>
    </clipPath>
  </defs>
  <g id="تطوير_مواقع_التجارة_الالكترونية" data-name="تطوير مواقع التجارة الالكترونية" transform="translate(-1021 -1810)">
    <g id="Ellipse_164" data-name="Ellipse 164" transform="translate(1021 1810)" fill="#fff" stroke="#29abe2" stroke-width="1" stroke-dasharray="3">
      <circle cx="45" cy="45" r="45" stroke="none"/>
      <circle cx="45" cy="45" r="44.5" fill="none"/>
    </g>
    <g id="Group_5569" data-name="Group 5569" transform="translate(-15667 -4487)">
      <g id="Group_5545" data-name="Group 5545" transform="translate(16714.797 6321.858)">
        <g id="Group_5544" data-name="Group 5544" clip-path="url(#clip-path)">
          <rect id="Rectangle_3666" data-name="Rectangle 3666" width="6.102" height="6.102" transform="translate(-2.148 1.919) rotate(-41.791)" fill="#29abe2"/>
        </g>
      </g>
      <g id="Group_5547" data-name="Group 5547" transform="translate(16733.359 6321.883)">
        <g id="Group_5546" data-name="Group 5546" clip-path="url(#clip-path-2)">
          <rect id="Rectangle_3667" data-name="Rectangle 3667" width="15.628" height="14.617" transform="translate(-2.148 1.919) rotate(-41.79)" fill="#29abe2"/>
        </g>
      </g>
      <g id="Group_5549" data-name="Group 5549" transform="translate(16726.156 6321.883)">
        <g id="Group_5548" data-name="Group 5548" clip-path="url(#clip-path-3)">
          <rect id="Rectangle_3668" data-name="Rectangle 3668" width="6.102" height="6.102" transform="matrix(0.746, -0.666, 0.666, 0.746, -2.148, 1.919)" fill="#29abe2"/>
        </g>
      </g>
      <g id="Group_5551" data-name="Group 5551" transform="translate(16720.488 6321.883)">
        <g id="Group_5550" data-name="Group 5550" clip-path="url(#clip-path-4)">
          <rect id="Rectangle_3669" data-name="Rectangle 3669" width="6.103" height="6.103" transform="translate(-2.148 1.919) rotate(-41.791)" fill="#29abe2"/>
        </g>
      </g>
      <g id="Group_5553" data-name="Group 5553" transform="translate(16708 6319)">
        <g id="Group_5552" data-name="Group 5552" clip-path="url(#clip-path-5)">
          <rect id="Rectangle_3670" data-name="Rectangle 3670" width="66.945" height="66.648" transform="translate(-22.574 20.176) rotate(-41.791)" fill="#29abe2"/>
        </g>
      </g>
      <g id="Group_5555" data-name="Group 5555" transform="translate(16720.488 6343.588)">
        <g id="Group_5554" data-name="Group 5554" clip-path="url(#clip-path-6)">
          <rect id="Rectangle_3671" data-name="Rectangle 3671" width="27.936" height="27.635" transform="translate(-8.833 7.895) rotate(-41.791)" fill="#29abe2"/>
        </g>
      </g>
    </g>
  </g>
</svg>
