<svg xmlns="http://www.w3.org/2000/svg" width="90" height="90" viewBox="0 0 90 90">
  <g id="Full_Stack" data-name="Full Stack" transform="translate(-1021 -1356)">
    <g id="Ellipse_161" data-name="Ellipse 161" transform="translate(1021 1356)" fill="#fff" stroke="#29abe2" stroke-width="1" stroke-dasharray="3">
      <circle cx="45" cy="45" r="45" stroke="none"/>
      <circle cx="45" cy="45" r="44.5" fill="none"/>
    </g>
    <g id="Group_5527" data-name="Group 5527" transform="translate(10.438 10.444)">
      <g id="Full_Stack-2" data-name="Full Stack" transform="translate(1030.25 1366.25)">
        <path id="Path_10337" data-name="Path 10337" d="M58.431,180.5a.516.516,0,0,0-.652-.3.51.51,0,0,0-.3.654,4.15,4.15,0,0,0,7.77,0,.5.5,0,0,0-.3-.652.518.518,0,0,0-.654.3,3.135,3.135,0,0,1-5.87,0Zm-3.021-7.366v.688a.508.508,0,1,0,1.015,0v-.688a.508.508,0,0,0-1.015,0Zm10.9,0v.688a.508.508,0,1,0,1.015,0v-.688a.508.508,0,0,0-1.015,0Zm-4.434,3.831v-3.147a.508.508,0,1,0-1.015,0v3.147a.508.508,0,0,0,1.015,0Z" transform="translate(-44.42 -137.826)" fill="#29abe2"/>
        <path id="Path_10337_-_Outline" data-name="Path 10337 - Outline" d="M61.294,183.654a4.328,4.328,0,0,1-4.052-2.806.689.689,0,0,1,.4-.883h0a.693.693,0,0,1,.876.4h0a2.957,2.957,0,0,0,5.537,0v0a.685.685,0,1,1,1.282.484,4.328,4.328,0,0,1-4.051,2.806ZM57.768,180.3a.333.333,0,0,0-.192.425,3.972,3.972,0,0,0,7.437,0,.326.326,0,0,0-.191-.422.34.34,0,0,0-.427.194,3.313,3.313,0,0,1-6.2,0h0a.337.337,0,0,0-.425-.2Zm3.525-2.716a.686.686,0,0,1-.685-.685V173.75a.685.685,0,0,1,1.371,0V176.9A.686.686,0,0,1,61.293,177.582Zm0-4.162a.33.33,0,0,0-.33.33V176.9a.33.33,0,0,0,.66,0V173.75A.33.33,0,0,0,61.293,173.42Zm5.45,1.019a.686.686,0,0,1-.685-.685v-.688a.685.685,0,1,1,1.371,0v.688A.686.686,0,0,1,66.743,174.439Zm0-1.7a.33.33,0,0,0-.33.33v.688a.33.33,0,0,0,.66,0v-.688A.33.33,0,0,0,66.743,172.736Zm-10.9,1.7a.686.686,0,0,1-.685-.685v-.688a.685.685,0,0,1,1.371,0v.688A.686.686,0,0,1,55.845,174.439Zm0-1.7a.33.33,0,0,0-.33.33v.688a.33.33,0,0,0,.66,0v-.688A.33.33,0,0,0,55.845,172.736Z" transform="translate(-44.348 -137.753)" fill="#29abe2"/>
        <ellipse id="Ellipse_160" data-name="Ellipse 160" cx="0.508" cy="0.508" rx="0.508" ry="0.508" transform="translate(11.309 20.11)" fill="#29abe2"/>
        <path id="Ellipse_160_-_Outline" data-name="Ellipse 160 - Outline" d="M.435-.25A.685.685,0,1,1-.25.435.686.686,0,0,1,.435-.25Zm0,1.015a.33.33,0,1,0-.33-.33A.33.33,0,0,0,.435.765Z" transform="translate(11.381 20.183)" fill="#29abe2"/>
        <path id="Path_10338" data-name="Path 10338" d="M80.76,74.274a.508.508,0,0,0-.069-.715.524.524,0,0,0-.715.069.508.508,0,0,0,.784.646ZM99.342,63.935c-.757-.248-1.348-.406-1.744-2.116a.54.54,0,0,0-1.052,0c-.388,1.669-.928,1.846-1.746,2.116a.542.542,0,0,0,0,1.027c1.358.447,1.513,1.111,1.744,2.116a.542.542,0,0,0,1.054,0c.386-1.669.956-1.856,1.744-2.116a.542.542,0,0,0,0-1.027Zm-2.26,1.421a2.8,2.8,0,0,0-.847-.893,2.672,2.672,0,0,0,.839-.942,2.757,2.757,0,0,0,.812.934,2.7,2.7,0,0,0-.8.9ZM71.172,38.691a.54.54,0,0,0-1.052,0c-.388,1.667-.928,1.846-1.746,2.116a.54.54,0,0,0,0,1.015c1.358.449,1.513,1.111,1.746,2.116a.54.54,0,0,0,1.052,0c.386-1.667.956-1.856,1.744-2.116a.54.54,0,0,0,0-1.015C72.159,40.557,71.568,40.395,71.172,38.691Zm-.518,3.535a2.816,2.816,0,0,0-.845-.9,2.7,2.7,0,0,0,.845-.94,2.757,2.757,0,0,0,.812.934A2.658,2.658,0,0,0,70.654,42.226Zm15,.171,1.507.751-1.5.755a1.123,1.123,0,0,0,0,2.012l5.685,2.82a1.109,1.109,0,0,0,1,0l5.685-2.82a1.123,1.123,0,0,0,0-2.012l-1.5-.747,1.5-.749a1.125,1.125,0,0,0,0-2.014L96.5,39.639l1.5-.747a1.125,1.125,0,0,0,0-2.014L92.321,34.06a1.127,1.127,0,0,0-1,0l-5.685,2.818a1.125,1.125,0,0,0,0,2.014l1.525.747-1.5.747a1.125,1.125,0,0,0,0,2.01Zm11.9,2.408a.108.108,0,0,1,0,.2L91.87,47.83a.106.106,0,0,1-.1,0L86.09,45.01a.108.108,0,0,1,0-.2l2.193-1.09,3.031,1.507a1.117,1.117,0,0,0,1,0l3.033-1.5ZM86.106,37.981a.108.108,0,0,1,0-.2l5.685-2.82a.112.112,0,0,1,.1,0l5.675,2.82a.108.108,0,0,1,0,.2L91.878,40.8a.112.112,0,0,1-.1,0Zm0,3.314L88.3,40.2,91.33,41.71a1.141,1.141,0,0,0,1,0L95.36,40.2l2.195,1.09a.108.108,0,0,1,0,.2c-2.52,1.257-1.127.564-5.685,2.822a.112.112,0,0,1-.1,0L86.09,41.5a.108.108,0,0,1,.016-.2Z" transform="translate(-54.469 -27.297)" fill="#29abe2"/>
        <path id="Path_10338_-_Outline" data-name="Path 10338 - Outline" d="M80.3,74.565h0a.686.686,0,0,1-.529-1.121l0,0a.7.7,0,0,1,.957-.092l0,0a.686.686,0,0,1-.436,1.215Zm-.256-.893a.33.33,0,0,0,.256.537h0a.33.33,0,0,0,.212-.583.343.343,0,0,0-.21-.071A.346.346,0,0,0,80.039,73.671ZM97,67.6a.718.718,0,0,1-.7-.551c-.226-.981-.362-1.573-1.627-1.989a.72.72,0,0,1,0-1.365h0c.787-.26,1.261-.416,1.626-1.986a.718.718,0,0,1,1.4,0c.365,1.576.874,1.742,1.578,1.971l.048.016a.72.72,0,0,1,0,1.365c-.763.252-1.265.417-1.628,1.987A.719.719,0,0,1,97,67.6Zm0-6.09a.361.361,0,0,0-.353.28c-.41,1.764-1.019,1.965-1.861,2.243a.364.364,0,0,0,0,.691,2.428,2.428,0,0,1,1.861,2.244.364.364,0,0,0,.708,0c.408-1.763,1.048-1.974,1.859-2.242a.364.364,0,0,0,0-.691l-.046-.015c-.753-.246-1.4-.458-1.814-2.229A.361.361,0,0,0,97,61.508Zm.188,4.421-.331-.554a2.636,2.636,0,0,0-.793-.837l-.217-.145.215-.149a2.5,2.5,0,0,0,.783-.879L97,63.07l.157.295a2.594,2.594,0,0,0,.76.874l.2.146-.2.143a2.534,2.534,0,0,0-.729.8Zm-.727-1.54a3.007,3.007,0,0,1,.544.566,2.9,2.9,0,0,1,.521-.573A2.962,2.962,0,0,1,97,63.793,2.87,2.87,0,0,1,96.461,64.389ZM91.768,48.96h0a1.293,1.293,0,0,1-.58-.138L85.5,46a1.3,1.3,0,0,1,0-2.331l1.186-.6L85.5,42.484a1.3,1.3,0,0,1,0-2.328l1.182-.587-1.2-.589a1.3,1.3,0,0,1,0-2.333l5.685-2.818a1.3,1.3,0,0,1,1.159,0l5.685,2.818a1.3,1.3,0,0,1,0,2.333l-1.183.588,1.2.594a1.3,1.3,0,0,1,0,2.333l-1.184.59,1.184.588a1.3,1.3,0,0,1,0,2.331l-5.685,2.82A1.291,1.291,0,0,1,91.768,48.96Zm-.019-14.912a.954.954,0,0,0-.422.1l-5.685,2.818a.947.947,0,0,0,0,1.7l1.848.905-1.827.908a.947.947,0,0,0,0,1.692l1.824.91-1.822.915a.945.945,0,0,0,0,1.694l5.685,2.82a.937.937,0,0,0,.42.1h0a.935.935,0,0,0,.419-.1l5.686-2.821a.945.945,0,0,0,0-1.693l-1.825-.906,1.825-.909a.947.947,0,0,0,0-1.7l-1.844-.912,1.826-.907a.947.947,0,0,0,0-1.7L92.17,34.147A.954.954,0,0,0,91.748,34.048Zm0,13.9a.285.285,0,0,1-.128-.031L85.946,45.1a.285.285,0,0,1,0-.529l2.265-1.126,3.111,1.546a.939.939,0,0,0,.84,0l3.113-1.544,2.281,1.121a.285.285,0,0,1,0,.529l-5.678,2.819A.283.283,0,0,1,91.75,47.947Zm-5.537-3.111,5.537,2.747,5.537-2.749-2.013-.99L92.32,45.31a1.295,1.295,0,0,1-1.158,0L88.21,43.843ZM70.574,44.46a.715.715,0,0,1-.7-.554c-.227-.979-.365-1.57-1.629-1.987l0,0a.718.718,0,0,1,0-1.349l.005,0c.788-.26,1.263-.417,1.629-1.987a.718.718,0,0,1,1.4,0c.365,1.572.876,1.74,1.582,1.972l.05.017a.718.718,0,0,1,0,1.349l-.005,0c-.761.251-1.263.417-1.627,1.987A.715.715,0,0,1,70.574,44.46Zm-2.213-2.878a2.436,2.436,0,0,1,1.861,2.243.362.362,0,0,0,.705,0c.408-1.762,1.048-1.976,1.859-2.243a.362.362,0,0,0,0-.679l-.042-.014c-.755-.248-1.406-.462-1.817-2.23a.362.362,0,0,0-.705,0c-.41,1.763-1.019,1.965-1.861,2.243a.362.362,0,0,0,0,.679Zm23.39,2.854a.291.291,0,0,1-.124-.028l-3.78-1.878-1.907-.947a.285.285,0,0,1,.026-.526l2.263-1.124,3.109,1.546a.963.963,0,0,0,.844,0l3.107-1.545,2.267,1.126a.285.285,0,0,1,0,.529L96.726,42c-1.044.521-1.044.521-2.551,1.267l-2.3,1.138A.3.3,0,0,1,91.75,44.436Zm-5.527-3.109L88,42.212l3.746,1.861,2.267-1.123c1.507-.746,1.507-.746,2.55-1.267l.72-.359-2-.993L92.338,41.8a1.319,1.319,0,0,1-1.158,0L88.228,40.33ZM70.588,42.512l-.159-.267a2.655,2.655,0,0,0-.791-.839l-.216-.146.215-.148a2.53,2.53,0,0,0,.789-.878l.158-.292.156.293a2.594,2.594,0,0,0,.76.874l.2.147L71.5,41.4a2.493,2.493,0,0,0-.758.841Zm-.553-1.255a3.026,3.026,0,0,1,.542.567,2.861,2.861,0,0,1,.527-.575,2.963,2.963,0,0,1-.523-.589A2.9,2.9,0,0,1,70.035,41.257Zm21.724-.34a.291.291,0,0,1-.124-.028l-5.673-2.818a.285.285,0,0,1,0-.529l5.678-2.817a.291.291,0,0,1,.25,0l5.671,2.818a.285.285,0,0,1,0,.529l-5.676,2.817A.3.3,0,0,1,91.758,40.917Zm-5.529-3.11,5.529,2.747,5.535-2.747L91.766,35.06Z" transform="translate(-54.397 -27.225)" fill="#29abe2"/>
        <path id="Path_10339" data-name="Path 10339" d="M39.329,2.09A13.825,13.825,0,0,0,27.889,8.114a.51.51,0,0,0,.13.707.52.52,0,0,0,.707-.13,12.727,12.727,0,0,1,10.6-5.586A12.9,12.9,0,0,1,42.25,28.579a2.548,2.548,0,0,0-1.994,2.473v1.07a2.954,2.954,0,0,1-2.944,2.944h-1.5a.944.944,0,0,1-.954-.792.918.918,0,0,1,.906-1.036h1.549a1.119,1.119,0,0,0,1.117-1.117V31.05a2.546,2.546,0,0,0-1.988-2.471,12.45,12.45,0,0,1-3.249-1.241,8.192,8.192,0,0,0-3.783-8.5.51.51,0,0,0-.786.323,3.527,3.527,0,0,1-1.117,1.963,12.765,12.765,0,0,1-.485-8.934.508.508,0,0,0-.331-.636.516.516,0,0,0-.638.333,13.748,13.748,0,0,0,.609,9.809,3.521,3.521,0,0,1-1.478.327h-9.34a.508.508,0,0,0,0,1.015h9.34a4.526,4.526,0,0,0,4.235-2.932,7.05,7.05,0,0,1,2.713,7.378,7.387,7.387,0,0,1-1.7,3.249H7.727V27.856a4.834,4.834,0,0,1,4.116-4.769.5.5,0,0,0,.437-.575.512.512,0,0,0-.575-.428,5.827,5.827,0,0,0-4.987,5.762V35.8H6.036a3.876,3.876,0,1,0,0,7.752h.948a12.266,12.266,0,0,0,19.8,6.849.51.51,0,0,0,.059-.717.522.522,0,0,0-.715-.059A11.242,11.242,0,0,1,7.9,42.956a25.933,25.933,0,0,1-.171-4.926l4.453-6.278h13.5l4.467,6.28v2.983a11.125,11.125,0,0,1-1.533,5.638.508.508,0,1,0,.863.493,12.335,12.335,0,0,0,1.4-3.6h.944a3.876,3.876,0,1,0,0-7.752h-.674V31.429a8.27,8.27,0,0,0,1.777-3.078,13.662,13.662,0,0,0,3.293,1.218,1.521,1.521,0,0,1,1.2,1.48v1.072a.1.1,0,0,1-.1.1H35.763A1.933,1.933,0,0,0,33.851,34.4a1.965,1.965,0,0,0,1.961,1.677h1.5a3.967,3.967,0,0,0,3.959-3.959v-1.07a1.531,1.531,0,0,1,1.206-1.484A13.918,13.918,0,0,0,39.329,2.09ZM6.036,42.538a2.861,2.861,0,1,1,0-5.722h.676a46.356,46.356,0,0,0,.1,5.722ZM7.727,36.27V31.746h3.208Zm22.4,0-3.214-4.526h3.214Zm1.689.544a2.861,2.861,0,1,1,0,5.722h-.77a11.916,11.916,0,0,0,.1-1.531V36.816Z" transform="translate(-1.982 -1.912)" fill="#29abe2"/>
        <path id="Path_10339_-_Outline" data-name="Path 10339 - Outline" d="M39.231,1.84h.032a14.1,14.1,0,0,1,3.182,27.829,1.346,1.346,0,0,0-1.068,1.312v1.069a4.154,4.154,0,0,1-4.137,4.137H35.722a2.143,2.143,0,0,1-2.12-1.829,2.111,2.111,0,0,1,2.088-2.385h1.473v-1a1.335,1.335,0,0,0-1.058-1.306,13.853,13.853,0,0,1-3.152-1.139,8.514,8.514,0,0,1-1.7,2.893v4.117h.5a4.054,4.054,0,0,1,0,8.108h-.8a12.491,12.491,0,0,1-1.379,3.5.685.685,0,1,1-1.171-.671,10.955,10.955,0,0,0,1.5-5.535V38.017l-4.381-6.159H12.2L7.837,38.015c0,.5,0,.934,0,1.318A17.051,17.051,0,0,0,8,42.85a10.948,10.948,0,0,0,10.945,9.107,10.7,10.7,0,0,0,7-2.54l0,0a.7.7,0,0,1,.958.079l0,0a.689.689,0,0,1-.079.967,12.008,12.008,0,0,1-3.761,2.159,12.315,12.315,0,0,1-4.115.7,12.744,12.744,0,0,1-7.664-2.563,12.116,12.116,0,0,1-4.523-7.1H5.964a4.054,4.054,0,1,1,0-8.108h.5V27.773a6.005,6.005,0,0,1,5.139-5.938.7.7,0,0,1,.1-.007.684.684,0,0,1,.092,1.362,4.63,4.63,0,0,0-3.962,4.594v2.7H30.285a7.23,7.23,0,0,0,1.6-3.111,6.868,6.868,0,0,0-2.465-7.048,4.7,4.7,0,0,1-4.31,2.82h-9.34a.685.685,0,0,1,0-1.371h9.34a3.368,3.368,0,0,0,1.242-.241,13.9,13.9,0,0,1-.543-9.77.685.685,0,1,1,1.308.409A12.587,12.587,0,0,0,27.5,20.75a3.37,3.37,0,0,0,.879-1.69.687.687,0,0,1,1.06-.436,9.382,9.382,0,0,1,3.283,3.749,7.922,7.922,0,0,1,.6,4.8,12.269,12.269,0,0,0,3.09,1.162,2.711,2.711,0,0,1,2.126,2.643v1.073a1.3,1.3,0,0,1-1.294,1.295h-1.55a.74.74,0,0,0-.73.832.763.763,0,0,0,.774.64h1.5a2.783,2.783,0,0,0,2.766-2.767V30.979a2.726,2.726,0,0,1,2.133-2.647A12.725,12.725,0,0,0,39.267,3.211h-.079A12.536,12.536,0,0,0,28.8,8.718l0,0a.7.7,0,0,1-.948.174l0,0a.689.689,0,0,1-.175-.953A14,14,0,0,1,39.231,1.84ZM35.722,35.831H37.24a3.8,3.8,0,0,0,3.781-3.782v-1.07a1.7,1.7,0,0,1,1.346-1.658A13.741,13.741,0,0,0,39.263,2.2h-.032A13.639,13.639,0,0,0,27.964,8.142a.333.333,0,0,0,.083.459.342.342,0,0,0,.462-.085A12.892,12.892,0,0,1,39.257,2.855h.009A13.081,13.081,0,0,1,42.218,28.68a2.359,2.359,0,0,0-1.856,2.3v1.069a3.14,3.14,0,0,1-3.121,3.122h-1.5a1.117,1.117,0,0,1-1.132-.941v-.006a1.1,1.1,0,0,1,1.081-1.236h1.55a.943.943,0,0,0,.939-.939V30.977a2.357,2.357,0,0,0-1.849-2.3,12.626,12.626,0,0,1-3.3-1.258l-.113-.062.024-.127a8,8,0,0,0-3.708-8.315.335.335,0,0,0-.312-.032.331.331,0,0,0-.2.242,3.725,3.725,0,0,1-1.173,2.062l-.183.163-.1-.225a12.943,12.943,0,0,1-.492-9.058.33.33,0,0,0-.215-.413.337.337,0,0,0-.415.219,13.55,13.55,0,0,0,.6,9.68l.073.161-.16.074a3.724,3.724,0,0,1-1.553.343h-9.34a.33.33,0,0,0,0,.66h9.34a4.369,4.369,0,0,0,4.069-2.816l.086-.228.191.151a7.244,7.244,0,0,1,2.775,7.559A7.585,7.585,0,0,1,30.5,30.786l-.053.059H7.477V27.784a5.012,5.012,0,0,1,4.267-4.945h.005a.324.324,0,0,0,.282-.371.336.336,0,0,0-.329-.282.339.339,0,0,0-.046,0,5.681,5.681,0,0,0-4.833,5.586v8.133h-.86a3.7,3.7,0,1,0,0,7.4H7.056l.03.141a12.009,12.009,0,0,0,11.87,9.525A11.691,11.691,0,0,0,26.6,50.193a.332.332,0,0,0,.04-.464.345.345,0,0,0-.255-.112.34.34,0,0,0-.213.074,11.009,11.009,0,0,1-3.449,1.98,11.3,11.3,0,0,1-3.776.642,11.694,11.694,0,0,1-7.188-2.465,11.1,11.1,0,0,1-4.107-6.934,17.246,17.246,0,0,1-.176-3.583c0-.4,0-.852,0-1.374V37.9l4.539-6.4H25.7l4.553,6.4v3.039A11.312,11.312,0,0,1,28.7,46.671l-.009.015-.011.013a.329.329,0,0,0-.049.365.332.332,0,0,0,.319.183.328.328,0,0,0,.29-.227L29.242,47l.01-.016a12.138,12.138,0,0,0,1.379-3.55l.03-.14h1.088a3.7,3.7,0,0,0,0-7.4H30.9v-4.61l.047-.051a8.147,8.147,0,0,0,1.738-3.012l.064-.2.188.1a13.491,13.491,0,0,0,3.25,1.2,1.688,1.688,0,0,1,1.336,1.653v1.073a.281.281,0,0,1-.276.279H35.691a1.755,1.755,0,0,0-1.736,1.98A1.8,1.8,0,0,0,35.722,35.831ZM26.5,31.494h3.736v5.261Zm3.381.356H27.189l2.692,3.79ZM7.477,31.5h3.73l-3.73,5.26Zm3.042.356H7.833v3.788Zm21.228,4.712a3.039,3.039,0,1,1,0,6.077h-.971l.026-.2a11.783,11.783,0,0,0,.094-1.508V36.566Zm0,5.722a2.683,2.683,0,0,0,0-5.366l-.5,0v4.011a12.142,12.142,0,0,1-.073,1.353ZM5.964,36.566h.854v.178c0,.711,0,1.317,0,1.836a27.64,27.64,0,0,0,.1,3.863l.026.2H5.964a3.039,3.039,0,1,1,0-6.077Zm.5.356h-.5a2.683,2.683,0,1,0,0,5.366h.573a32.977,32.977,0,0,1-.075-3.708C6.462,38.1,6.462,37.556,6.462,36.922Z" transform="translate(-1.91 -1.84)" fill="#29abe2"/>
        <path id="Path_10340" data-name="Path 10340" d="M123.44,39.586a.508.508,0,1,0,.292-.259A.508.508,0,0,0,123.44,39.586Z" transform="translate(-98.597 -31.567)" fill="#29abe2"/>
        <path id="Path_10340_-_Outline" data-name="Path 10340 - Outline" d="M123.825,39.05a.685.685,0,0,1,.615.988.685.685,0,0,1-1.232-.6.685.685,0,0,1,.617-.387Zm0,1.015a.33.33,0,0,0,.147-.625.33.33,0,1,0-.291.592A.326.326,0,0,0,123.825,40.065Z" transform="translate(-98.525 -31.495)" fill="#29abe2"/>
      </g>
    </g>
  </g>
</svg>
