<svg xmlns="http://www.w3.org/2000/svg" xmlns:xlink="http://www.w3.org/1999/xlink" width="345" height="307" viewBox="0 0 345 307">
  <defs>
    <clipPath id="clip-path">
      <rect id="Rectangle_29" data-name="Rectangle 29" width="345" height="307" transform="translate(201 281)" fill="#e5f7ff" stroke="#707070" stroke-width="1"/>
    </clipPath>
    <clipPath id="clip-path-2">
      <path id="Path_9076" data-name="Path 9076" d="M278.186,292.705c-4.692,7.623-28.5,11.234-41.491,10.894s-50.383-18.019-52.919-21.789c-2.349-3.465-8.122-14.949.776-21.886a17.242,17.242,0,0,1,2.4-1.552c6.092-3.3,46.606,7.1,46.606,7.1s2.509-1.587,3.43-1.469c2.828.36,4.851,2.647,10.562,4.276,4,1.143,14.914-3.25,21.886.527a9.618,9.618,0,0,1,2.121,1.539C278.069,276.572,282.871,285.061,278.186,292.705Z" fill="#407bff" stroke="#263238" stroke-linecap="round" stroke-linejoin="round" stroke-width="0.693"/>
    </clipPath>
    <clipPath id="clip-path-3">
      <path id="Path_9081" data-name="Path 9081" d="M230.195,299.331l12.142,9.529a139.1,139.1,0,0,0,17.409-2.606h0c5.752-1.331,10.777-3.236,11.047-5.856.423-3.978-3.832-5.066-8.885-4.914-.943,0-1.913.1-2.89.194-8.088.866-18.372-3.6-18.372-3.6Z" fill="#263238" stroke="#263238" stroke-linecap="round" stroke-linejoin="round" stroke-width="0.693"/>
    </clipPath>
    <clipPath id="clip-path-4">
      <path id="Path_9085" data-name="Path 9085" d="M241.512,303.087c-2.19.353.215,4.851,3.181,3.465S243.7,302.726,241.512,303.087Z" fill="#fff" stroke="#263238" stroke-linecap="round" stroke-linejoin="round" stroke-width="0.693"/>
    </clipPath>
    <clipPath id="clip-path-5">
      <path id="Path_9089" data-name="Path 9089" d="M259.745,306.247c5.752-1.331,10.777-3.236,11.047-5.856.423-3.978-3.832-5.066-8.885-4.914C261.686,295.692,256.786,300.426,259.745,306.247Z" fill="#fff" stroke="#263238" stroke-linecap="round" stroke-linejoin="round" stroke-width="0.693"/>
    </clipPath>
    <clipPath id="clip-path-6">
      <path id="Path_9099" data-name="Path 9099" d="M222.731,299.7l-13.07,8.2a139.44,139.44,0,0,1-17.041-4.415h0c-5.579-1.927-10.4-4.352-10.4-6.986,0-4.006,4.345-4.636,9.356-3.957.936.125,1.892.3,2.855.5,7.949,1.712,18.642-1.649,18.642-1.649Z" fill="#263238" stroke="#263238" stroke-linecap="round" stroke-linejoin="round" stroke-width="0.693"/>
    </clipPath>
  </defs>
  <g id="Mask_Group_2" data-name="Mask Group 2" transform="translate(-201 -281)" clip-path="url(#clip-path)">
    <g id="Website_Creator-bro" data-name="Website Creator-bro" transform="translate(197.594 260.822)">
      <g id="freepik--background-simple--inject-13">
        <path id="Path_9041" data-name="Path 9041" d="M47.077,115.8s-19.321,49.9,7.831,100.142,83.08,76.787,127.842,99.484,91.243,11.643,113.33-25.531-8.205-63.71-8.247-116.719,7.935-67.043-20.791-111.826-99.144-54.7-152.4-21.484S47.077,115.8,47.077,115.8Z" fill="#fff" opacity="0.7"/>
        <path id="Path_9042" data-name="Path 9042" d="M47.819,299.15h146.36c.589-.942,1.185-1.885,1.795-2.807,15.745-23.965,40.958-41.055,68.491-49.073,12.336-3.59,25.7-5.724,35.608-13.9,10.2-8.406,14.886-21.823,16.91-34.887,2.46-15.815,1.13-33.549-9.605-45.421-12.606-13.937-33.729-15.5-50.154-24.637C228.954,112.693,218,76.87,192.279,57.244c-16.251-12.4-38.179-17.2-57.833-14.484-27.853,3.86-54.056,22.523-61.922,49.9A69.053,69.053,0,0,0,70.141,117.2c1.254,16.321,4.768,32.849,1.455,48.879-3.652,17.665-15.143,32.572-22.01,49.267-8.552,20.791-9.7,44.076-6.078,66.239a114.121,114.121,0,0,0,4.311,17.561Z" fill="#e5f6ff"/>
      </g>
      <g id="freepik--Graphics--inject-13">
        <path id="Path_9043" data-name="Path 9043" d="M310.26,184.926v-5.212l-3.909-.34a11.031,11.031,0,0,0-.963-2.342l2.523-3-3.673-3.687-2.994,2.523a10.681,10.681,0,0,0-2.342-.963l-.34-3.909h-5.218l-.333,3.909a10.541,10.541,0,0,0-2.342.963l-3-2.523-3.687,3.687,2.523,3a10.7,10.7,0,0,0-.97,2.342l-3.909.34v5.212l3.909.34a10.7,10.7,0,0,0,.97,2.342l-2.543,2.973,3.687,3.687,3-2.523a10.542,10.542,0,0,0,2.342.963l.333,3.909h5.218l.34-3.909a10.678,10.678,0,0,0,2.342-.963l2.994,2.523,3.694-3.687-2.523-3a11.033,11.033,0,0,0,.963-2.342Zm-14.325,3.465a4.519,4.519,0,1,0-.014-.007Z" fill="none" stroke="#263238" stroke-linecap="round" stroke-linejoin="round" stroke-width="0.693"/>
        <path id="Path_9044" data-name="Path 9044" d="M306.316,89.954a14.228,14.228,0,0,0-17.575-16.937,13.653,13.653,0,0,0-25.517,5.842,11.144,11.144,0,0,0-13.167,9.7,6.237,6.237,0,0,0,.139,12.419h52.171a6.237,6.237,0,0,0,3.95-11.026Z" fill="none" stroke="#407bff" stroke-linecap="round" stroke-linejoin="round" stroke-width="0.693"/>
        <line id="Line_41" data-name="Line 41" y2="14.38" transform="translate(277.646 96.212)" fill="none" stroke="#407bff" stroke-linecap="round" stroke-linejoin="round" stroke-width="0.693"/>
        <line id="Line_42" data-name="Line 42" y2="5.745" transform="translate(277.646 87.591)" fill="none" stroke="#407bff" stroke-linecap="round" stroke-linejoin="round" stroke-width="0.693"/>
        <line id="Line_43" data-name="Line 43" y2="3.077" transform="translate(277.646 82.213)" fill="none" stroke="#407bff" stroke-linecap="round" stroke-linejoin="round" stroke-width="0.693"/>
        <path id="Path_9045" data-name="Path 9045" d="M274.929,108.916l2.717,3.361,2.717-3.361" fill="none" stroke="#407bff" stroke-linecap="round" stroke-linejoin="round" stroke-width="0.693"/>
        <path id="Path_9046" data-name="Path 9046" d="M147.364,258.6a14.235,14.235,0,0,0-17.582-16.938,13.646,13.646,0,0,0-25.51,5.849,11.276,11.276,0,0,0-2.079-.2,11.151,11.151,0,0,0-11.088,9.9,6.237,6.237,0,0,0,.132,12.419h52.219a6.237,6.237,0,0,0,3.929-11.026Z" fill="none" stroke="#263238" stroke-linecap="round" stroke-linejoin="round" stroke-width="0.693"/>
        <line id="Line_44" data-name="Line 44" y1="14.373" transform="translate(118.673 252.545)" fill="none" stroke="#263238" stroke-linecap="round" stroke-linejoin="round" stroke-width="0.693"/>
        <line id="Line_45" data-name="Line 45" y1="5.752" transform="translate(118.673 269.794)" fill="none" stroke="#263238" stroke-linecap="round" stroke-linejoin="round" stroke-width="0.693"/>
        <line id="Line_46" data-name="Line 46" y1="3.077" transform="translate(118.673 277.847)" fill="none" stroke="#263238" stroke-linecap="round" stroke-linejoin="round" stroke-width="0.693"/>
        <path id="Path_9047" data-name="Path 9047" d="M121.39,254.222l-2.717-3.361-2.717,3.361" fill="none" stroke="#263238" stroke-linecap="round" stroke-linejoin="round" stroke-width="0.693"/>
      </g>
      <g id="freepik--Window--inject-13">
        <path id="Path_9048" data-name="Path 9048" d="M37.063,76.163H211.324a2.938,2.938,0,0,1,2.938,2.938v8.219H34.124V79.1A2.938,2.938,0,0,1,37.063,76.163Z" transform="translate(10.25)" fill="#407bff" stroke="#263238" stroke-linecap="round" stroke-linejoin="round" stroke-width="0.693"/>
        <rect id="Rectangle_14" data-name="Rectangle 14" width="182.064" height="128.119" transform="translate(42.011 89.379)" fill="#fff" stroke="#263238" stroke-linecap="round" stroke-linejoin="round" stroke-width="0.693"/>
        <path id="Path_9049" data-name="Path 9049" d="M226.861,81.735a2.772,2.772,0,1,1-2.772-2.772A2.772,2.772,0,0,1,226.861,81.735Z" transform="translate(-8.303)" fill="#fff" stroke="#263238" stroke-linecap="round" stroke-linejoin="round" stroke-width="0.693"/>
        <path id="Path_9050" data-name="Path 9050" d="M217.048,81.735a2.772,2.772,0,1,1-2.772-2.772A2.772,2.772,0,0,1,217.048,81.735Z" transform="translate(-8.303)" fill="#fff" stroke="#263238" stroke-linecap="round" stroke-linejoin="round" stroke-width="0.693"/>
        <path id="Path_9051" data-name="Path 9051" d="M207.214,81.735a2.772,2.772,0,1,1-2.772-2.772A2.772,2.772,0,0,1,207.214,81.735Z" transform="translate(-8.303)" fill="#fff" stroke="#263238" stroke-linecap="round" stroke-linejoin="round" stroke-width="0.693"/>
        <line id="Line_47" data-name="Line 47" x1="7.207" transform="translate(211.351 94.875)" fill="none" stroke="#263238" stroke-linecap="round" stroke-linejoin="round" stroke-width="1.386"/>
        <line id="Line_48" data-name="Line 48" x1="7.207" transform="translate(211.351 97.799)" fill="none" stroke="#263238" stroke-linecap="round" stroke-linejoin="round" stroke-width="1.386"/>
        <line id="Line_49" data-name="Line 49" x1="7.207" transform="translate(211.351 100.724)" fill="none" stroke="#263238" stroke-linecap="round" stroke-linejoin="round" stroke-width="1.386"/>
        <line id="Line_50" data-name="Line 50" x2="54.562" transform="translate(54.617 170.47)" fill="none" stroke="#263238" stroke-linecap="round" stroke-linejoin="round" stroke-width="1.386"/>
        <line id="Line_51" data-name="Line 51" x2="54.562" transform="translate(54.617 174.773)" fill="none" stroke="#263238" stroke-linecap="round" stroke-linejoin="round" stroke-width="1.386"/>
        <line id="Line_52" data-name="Line 52" x2="43.023" transform="translate(54.617 179.153)" fill="none" stroke="#263238" stroke-linecap="round" stroke-linejoin="round" stroke-width="1.386"/>
        <line id="Line_53" data-name="Line 53" y2="0.347" transform="translate(170.317 90.821)" fill="none" stroke="#263238" stroke-linecap="round" stroke-linejoin="round" stroke-width="0.693"/>
        <line id="Line_54" data-name="Line 54" y2="120.745" transform="translate(170.317 93.246)" fill="none" stroke="#263238" stroke-linecap="round" stroke-linejoin="round" stroke-width="0.693" stroke-dasharray="0.998 2.995"/>
        <line id="Line_55" data-name="Line 55" y2="0.347" transform="translate(170.317 215.031)" fill="none" stroke="#263238" stroke-linecap="round" stroke-linejoin="round" stroke-width="0.693"/>
        <line id="Line_56" data-name="Line 56" x2="0.347" transform="translate(44.201 188.766)" fill="none" stroke="#263238" stroke-linecap="round" stroke-linejoin="round" stroke-width="0.693"/>
        <line id="Line_57" data-name="Line 57" x2="173.283" transform="translate(46.62 188.766)" fill="none" stroke="#263238" stroke-linecap="round" stroke-linejoin="round" stroke-width="0.693" stroke-dasharray="0.998 2.994"/>
        <line id="Line_58" data-name="Line 58" x2="0.347" transform="translate(220.943 188.766)" fill="none" stroke="#263238" stroke-linecap="round" stroke-linejoin="round" stroke-width="0.693"/>
        <rect id="Rectangle_15" data-name="Rectangle 15" width="2.391" height="2.391" transform="translate(169.125 187.567)" fill="#fff" stroke="#263238" stroke-linecap="round" stroke-linejoin="round" stroke-width="0.693"/>
        <line id="Line_59" data-name="Line 59" x1="31.921" transform="translate(128.854 165.799)" fill="none" stroke="#263238" stroke-linecap="round" stroke-linejoin="round" stroke-width="0.693"/>
        <path id="Path_9052" data-name="Path 9052" d="M161.391,180.56s0-14.838-16.577-14.838-16.6,14.838-16.6,14.838" fill="none" stroke="#263238" stroke-linecap="round" stroke-linejoin="round" stroke-width="0.693"/>
        <circle id="Ellipse_3" data-name="Ellipse 3" cx="1.4" cy="1.4" r="1.4" transform="translate(159.991 179.16)" fill="#407bff" stroke="#263238" stroke-linecap="round" stroke-linejoin="round" stroke-width="0.693"/>
        <path id="Path_9053" data-name="Path 9053" d="M126.823,180.56a1.386,1.386,0,1,1,1.386,1.386A1.386,1.386,0,0,1,126.823,180.56Z" fill="#407bff" stroke="#263238" stroke-linecap="round" stroke-linejoin="round" stroke-width="0.693"/>
        <rect id="Rectangle_16" data-name="Rectangle 16" width="2.453" height="2.453" transform="translate(162.618 166.949) rotate(180)" fill="#407bff" stroke="#263238" stroke-linecap="round" stroke-linejoin="round" stroke-width="0.693"/>
        <rect id="Rectangle_17" data-name="Rectangle 17" width="2.453" height="2.453" transform="translate(146.041 166.949) rotate(180)" fill="#407bff" stroke="#263238" stroke-linecap="round" stroke-linejoin="round" stroke-width="0.693"/>
        <rect id="Rectangle_18" data-name="Rectangle 18" width="2.453" height="2.453" transform="translate(129.464 166.949) rotate(180)" fill="#407bff" stroke="#263238" stroke-linecap="round" stroke-linejoin="round" stroke-width="0.693"/>
        <path id="Path_9054" data-name="Path 9054" d="M74.451,121.189v-4.907l-3.666-.312a10.457,10.457,0,0,0-.908-2.2l2.37-2.814-3.465-3.465-2.821,2.37a9.855,9.855,0,0,0-2.2-.908l-.319-3.673H58.547l-.319,3.673a9.7,9.7,0,0,0-2.2.908l-2.821-2.37-3.465,3.465,2.37,2.814a10.1,10.1,0,0,0-.908,2.2l-3.673.312v4.907l3.673.312a10.243,10.243,0,0,0,.908,2.2l-2.37,2.814,3.465,3.465,2.821-2.37a9.7,9.7,0,0,0,2.183.908l.319,3.673h4.9l.319-3.673a9.853,9.853,0,0,0,2.2-.908l2.821,2.37,3.465-3.465-2.37-2.814a10.611,10.611,0,0,0,.908-2.2Zm-13.465,3.243a5.7,5.7,0,1,1,5.7-5.7A5.7,5.7,0,0,1,60.986,124.432Z" fill="#407bff" stroke="#263238" stroke-linecap="round" stroke-linejoin="round" stroke-width="0.693"/>
        <path id="Path_9055" data-name="Path 9055" d="M91.112,132.18v-3.354L88.6,128.6a6.8,6.8,0,0,0-.617-1.5l1.622-1.927-2.377-2.37L85.3,124.425a7.166,7.166,0,0,0-1.5-.624l-.215-2.523H80.224L80,123.795a7.166,7.166,0,0,0-1.5.624L76.572,122.8l-2.377,2.37,1.629,1.927a6.5,6.5,0,0,0-.624,1.5l-2.516.222v3.354l2.516.215a6.377,6.377,0,0,0,.624,1.5l-1.629,1.94,2.377,2.37,1.927-1.622a7.166,7.166,0,0,0,1.5.624l.222,2.509h3.354l.215-2.509a7.165,7.165,0,0,0,1.5-.624l1.927,1.622,2.377-2.37L88.014,133.9a6.66,6.66,0,0,0,.617-1.5ZM81.9,134.4A3.9,3.9,0,1,1,85.8,130.5,3.9,3.9,0,0,1,81.9,134.4Z" fill="#407bff" stroke="#263238" stroke-linecap="round" stroke-linejoin="round" stroke-width="0.693"/>
        <line id="Line_60" data-name="Line 60" x2="26.841" transform="translate(177.164 196.916)" fill="none" stroke="#263238" stroke-linecap="round" stroke-linejoin="round" stroke-width="1.386"/>
        <line id="Line_61" data-name="Line 61" x2="26.841" transform="translate(177.164 201.219)" fill="none" stroke="#263238" stroke-linecap="round" stroke-linejoin="round" stroke-width="1.386"/>
        <line id="Line_62" data-name="Line 62" x2="15.302" transform="translate(177.164 205.599)" fill="none" stroke="#263238" stroke-linecap="round" stroke-linejoin="round" stroke-width="1.386"/>
        <path id="Path_9056" data-name="Path 9056" d="M141.8,207.387H127.669a3.465,3.465,0,0,1-3.465-3.465h0a3.465,3.465,0,0,1,3.465-3.465H141.8a3.465,3.465,0,0,1,3.465,3.465h0A3.465,3.465,0,0,1,141.8,207.387Z" fill="#407bff" stroke="#263238" stroke-linecap="round" stroke-linejoin="round" stroke-width="0.693"/>
        <path id="Path_9057" data-name="Path 9057" d="M168.134,207.387H154a3.465,3.465,0,0,1-3.465-3.465h0A3.465,3.465,0,0,1,154,200.457h14.131a3.465,3.465,0,0,1,3.465,3.465h0A3.465,3.465,0,0,1,168.134,207.387Z" fill="#407bff" stroke="#263238" stroke-linecap="round" stroke-linejoin="round" stroke-width="0.693"/>
        <rect id="Rectangle_19" data-name="Rectangle 19" width="29.966" height="29.966" transform="translate(179.126 133.04)" fill="#fff" stroke="#263238" stroke-linecap="round" stroke-linejoin="round" stroke-width="0.693"/>
        <line id="Line_63" data-name="Line 63" x2="29.966" y2="29.966" transform="translate(179.126 133.04)" fill="#fff" stroke="#263238" stroke-linecap="round" stroke-linejoin="round" stroke-width="0.693"/>
        <line id="Line_64" data-name="Line 64" x1="29.966" y2="29.966" transform="translate(179.126 133.04)" fill="#fff" stroke="#263238" stroke-linecap="round" stroke-linejoin="round" stroke-width="0.693"/>
        <path id="Path_9058" data-name="Path 9058" d="M190.879,99.019v6.993L187.8,109.1H180.8V99.019Z" fill="#fff" stroke="#263238" stroke-linecap="round" stroke-linejoin="round" stroke-width="0.693"/>
        <path id="Path_9059" data-name="Path 9059" d="M190.879,106.012,187.8,109.1v-3.084Z" fill="#fff" stroke="#263238" stroke-linecap="round" stroke-linejoin="round" stroke-width="0.693"/>
        <path id="Path_9060" data-name="Path 9060" d="M83.717,153.1v6.993l-3.084,3.091H73.641V153.1Z" fill="#fff" stroke="#263238" stroke-linecap="round" stroke-linejoin="round" stroke-width="0.693"/>
        <path id="Path_9061" data-name="Path 9061" d="M83.717,160.088l-3.084,3.091v-3.091Z" fill="#fff" stroke="#263238" stroke-linecap="round" stroke-linejoin="round" stroke-width="0.693"/>
        <path id="Path_9062" data-name="Path 9062" d="M45.643,196.181v6.993l-3.084,3.084h-7V196.181Z" fill="#fff" stroke="#263238" stroke-linecap="round" stroke-linejoin="round" stroke-width="0.693"/>
        <path id="Path_9063" data-name="Path 9063" d="M45.643,203.174l-3.084,3.084v-3.084Z" fill="#fff" stroke="#263238" stroke-linecap="round" stroke-linejoin="round" stroke-width="0.693"/>
      </g>
      <g id="freepik--Screens--inject-13">
        <rect id="Rectangle_20" data-name="Rectangle 20" width="37.188" height="23.306" transform="translate(204.449 115.236)" fill="#263238" stroke="#263238" stroke-linecap="round" stroke-linejoin="round" stroke-width="0.693"/>
        <rect id="Rectangle_21" data-name="Rectangle 21" width="37.188" height="3.541" transform="translate(204.449 115.236)" fill="#407bff" stroke="#263238" stroke-linecap="round" stroke-linejoin="round" stroke-width="0.693"/>
        <line id="Line_65" data-name="Line 65" x2="9.508" transform="translate(208.24 121.764)" fill="none" stroke="#fff" stroke-linecap="round" stroke-linejoin="round" stroke-width="0.693"/>
        <line id="Line_66" data-name="Line 66" x2="16.452" transform="translate(212.994 124.418)" fill="none" stroke="#fff" stroke-linecap="round" stroke-linejoin="round" stroke-width="0.693"/>
        <line id="Line_67" data-name="Line 67" x2="4.844" transform="translate(210.894 126.893)" fill="none" stroke="#fff" stroke-linecap="round" stroke-linejoin="round" stroke-width="0.693"/>
        <line id="Line_68" data-name="Line 68" x2="11.081" transform="translate(212.994 129.81)" fill="none" stroke="#fff" stroke-linecap="round" stroke-linejoin="round" stroke-width="0.693"/>
        <line id="Line_69" data-name="Line 69" x2="9.508" transform="translate(208.24 132.458)" fill="none" stroke="#fff" stroke-linecap="round" stroke-linejoin="round" stroke-width="0.693"/>
        <rect id="Rectangle_22" data-name="Rectangle 22" width="37.188" height="23.306" transform="translate(64.59 209.009)" fill="#263238" stroke="#263238" stroke-linecap="round" stroke-linejoin="round" stroke-width="0.693"/>
        <rect id="Rectangle_23" data-name="Rectangle 23" width="37.188" height="3.541" transform="translate(64.59 209.009)" fill="#407bff" stroke="#263238" stroke-linecap="round" stroke-linejoin="round" stroke-width="0.693"/>
        <line id="Line_70" data-name="Line 70" x2="9.501" transform="translate(68.388 215.544)" fill="none" stroke="#fff" stroke-linecap="round" stroke-linejoin="round" stroke-width="0.693"/>
        <line id="Line_71" data-name="Line 71" x2="16.452" transform="translate(73.135 218.191)" fill="none" stroke="#fff" stroke-linecap="round" stroke-linejoin="round" stroke-width="0.693"/>
        <line id="Line_72" data-name="Line 72" x2="4.844" transform="translate(71.035 220.665)" fill="none" stroke="#fff" stroke-linecap="round" stroke-linejoin="round" stroke-width="0.693"/>
        <line id="Line_73" data-name="Line 73" x2="11.081" transform="translate(73.135 223.583)" fill="none" stroke="#fff" stroke-linecap="round" stroke-linejoin="round" stroke-width="0.693"/>
        <line id="Line_74" data-name="Line 74" x2="9.501" transform="translate(68.388 226.237)" fill="none" stroke="#fff" stroke-linecap="round" stroke-linejoin="round" stroke-width="0.693"/>
      </g>
      <g id="freepik--speech-bubble--inject-13">
        <path id="Path_9064" data-name="Path 9064" d="M115.735,40.2H81.569a1.518,1.518,0,0,0-1.511,1.511v15.94a1.511,1.511,0,0,0,1.511,1.5H96.885l1.746,6.237,1.753-6.237h15.35a1.511,1.511,0,0,0,1.511-1.5V41.706a1.518,1.518,0,0,0-1.511-1.511Z" fill="#407bff" stroke="#263238" stroke-linecap="round" stroke-linejoin="round" stroke-width="0.693"/>
        <line id="Line_75" data-name="Line 75" x2="25.815" transform="translate(85.727 44.755)" fill="none" stroke="#fff" stroke-linecap="round" stroke-linejoin="round" stroke-width="1.386"/>
        <line id="Line_76" data-name="Line 76" x2="25.815" transform="translate(85.727 48.027)" fill="none" stroke="#fff" stroke-linecap="round" stroke-linejoin="round" stroke-width="1.386"/>
        <line id="Line_77" data-name="Line 77" x2="25.815" transform="translate(85.727 51.298)" fill="none" stroke="#fff" stroke-linecap="round" stroke-linejoin="round" stroke-width="1.386"/>
        <line id="Line_78" data-name="Line 78" x2="19.453" transform="translate(85.727 54.569)" fill="none" stroke="#fff" stroke-linecap="round" stroke-linejoin="round" stroke-width="1.386"/>
      </g>
      <g id="freepik--Character--inject-13">
        <path id="Path_9065" data-name="Path 9065" d="M171.78,153.56c-3.666.312-8.316-4.068-8.316-4.068a.825.825,0,0,1-1.31-.166c-.6-.859-3.181-2.848-3.327-4.567s2.9-4.5,2.9-4.5c-2.349.638-2.6-.742-2.6-.742s3.957-3.264,5.343-3.354c.541-.035,2.9,1.324,5.177,3.153,2.384,1.92,6.861,8.677,6.861,8.677s15.143,11,18.968,13.812a94.092,94.092,0,0,1,11.04,10.305s20.1,9.065,25.642,14.048l-7.5,17.755s-18.275-12.246-20.1-15.35-3.652-1.241-5.482-3.271-3.583-4.352-3.583-4.352a30.9,30.9,0,0,1-8.725-6.293c-4.269-4.387-8.032-11.088-10.4-15.122A24.949,24.949,0,0,0,171.78,153.56Z" fill="#fff" stroke="#263238" stroke-linecap="round" stroke-linejoin="round" stroke-width="0.693"/>
        <path id="Path_9066" data-name="Path 9066" d="M172.9,150.968s-5.454-1.324-5.925-4.92a6.618,6.618,0,0,0-1.171-2.516s-5.087-.249-4.768-2.322l6.792-.6a11.823,11.823,0,0,1,5.911,4.976" fill="#fff" stroke="#263238" stroke-linecap="round" stroke-linejoin="round" stroke-width="0.693"/>
        <path id="Path_9067" data-name="Path 9067" d="M163.456,149.492a2.232,2.232,0,0,0,.229-1.469s1.5-.277,1.331-1.6c0,0,2.218-.27.783-2.89" fill="none" stroke="#263238" stroke-linecap="round" stroke-linejoin="round" stroke-width="0.693"/>
        <path id="Path_9068" data-name="Path 9068" d="M165.016,146.422s-2.987-2.211-3.32-3.223" fill="none" stroke="#263238" stroke-linecap="round" stroke-linejoin="round" stroke-width="0.693"/>
        <path id="Path_9069" data-name="Path 9069" d="M163.685,148.023s-3.181-1.94-3.236-3.07" fill="none" stroke="#263238" stroke-linecap="round" stroke-linejoin="round" stroke-width="0.693"/>
        <path id="Path_9070" data-name="Path 9070" d="M164.413,138.057a4.845,4.845,0,0,1-2.689,2.2" fill="none" stroke="#263238" stroke-linecap="round" stroke-linejoin="round" stroke-width="0.693"/>
        <path id="Path_9071" data-name="Path 9071" d="M163.907,138.764a8.7,8.7,0,0,1,1.5.991" fill="none" stroke="#263238" stroke-linecap="round" stroke-linejoin="round" stroke-width="0.693"/>
        <path id="Path_9072" data-name="Path 9072" d="M280.065,200.145a163.681,163.681,0,0,0-24.193-8.081c-12.169-2.848-31.879-5.392-31.879-5.392s5.419,55.3,3.992,58.63-9.993,14.5-9.993,14.5,46.356,18.074,54.437,19.613,3.867-26.508,3.867-26.508S284.833,217.256,280.065,200.145Z" fill="#263238"/>
        <path id="Path_9073" data-name="Path 9073" d="M263.425,194.206s1.1,2.079-1.795,3.167c-7.505,2.772-15.5.326-14.65-2.613.326-1.123,2.183,0,2.079-4.158a5.108,5.108,0,0,0-.506-1.843,19.037,19.037,0,0,0-1.906-3.195,39.691,39.691,0,0,0-2.571-3.209s11.913-7.623,20.749,0C264.811,182.321,261.526,183.984,263.425,194.206Z" fill="#fff" stroke="#263238" stroke-linecap="round" stroke-linejoin="round" stroke-width="0.693"/>
        <path id="Path_9074" data-name="Path 9074" d="M278.186,292.705c-4.692,7.623-28.5,11.234-41.491,10.894s-50.383-18.019-52.919-21.789c-2.349-3.465-8.122-14.949.776-21.886a17.242,17.242,0,0,1,2.4-1.552c6.092-3.3,46.606,7.1,46.606,7.1s2.509-1.587,3.43-1.469c2.828.36,4.851,2.647,10.562,4.276,4,1.143,14.914-3.25,21.886.527a9.618,9.618,0,0,1,2.121,1.539C278.069,276.572,282.871,285.061,278.186,292.705Z" fill="#407bff"/>
        <g id="Group_10" data-name="Group 10" clip-path="url(#clip-path-2)">
          <path id="Path_9075" data-name="Path 9075" d="M269.434,268.81c-7.145-.478-13.514,1.019-17.963,3.645-5.274,3.119-30.181,15.115-30.181,15.115a13.836,13.836,0,0,1,1.441-3.888c-2.342-2.079-8.469-3.708-8.469-3.708-4.747-4.054-23.563-16.147-29.71-20.049a17.239,17.239,0,0,1,2.4-1.552c6.092-3.3,46.606,7.1,46.606,7.1s2.509-1.587,3.43-1.469c2.828.36,4.851,2.647,10.562,4.276C251.567,269.427,262.462,265.033,269.434,268.81Z" fill="rgba(0,0,0,0.7)" opacity="0.3"/>
        </g>
        <path id="Path_9077" data-name="Path 9077" d="M278.186,292.705c-4.692,7.623-28.5,11.234-41.491,10.894s-50.383-18.019-52.919-21.789c-2.349-3.465-8.122-14.949.776-21.886a17.242,17.242,0,0,1,2.4-1.552c6.092-3.3,46.606,7.1,46.606,7.1s2.509-1.587,3.43-1.469c2.828.36,4.851,2.647,10.562,4.276,4,1.143,14.914-3.25,21.886.527a9.618,9.618,0,0,1,2.121,1.539C278.069,276.572,282.871,285.061,278.186,292.705Z" fill="none" stroke="#263238" stroke-linecap="round" stroke-linejoin="round" stroke-width="0.693"/>
        <path id="Path_9078" data-name="Path 9078" d="M270.882,299.608l.6,2.613s-1.594,4.518-8.6,5.26-11.158,2.287-14.553,2.488a28.289,28.289,0,0,1-5.329-.083l-.693-1.026Z" fill="#fff" stroke="#263238" stroke-linecap="round" stroke-linejoin="round" stroke-width="0.693"/>
        <path id="Path_9079" data-name="Path 9079" d="M230.195,299.331l12.142,9.529a139.1,139.1,0,0,0,17.409-2.606h0c5.752-1.331,10.777-3.236,11.047-5.856.423-3.978-3.832-5.066-8.885-4.914-.943,0-1.913.1-2.89.194-8.088.866-18.372-3.6-18.372-3.6Z" fill="#263238"/>
        <g id="Group_11" data-name="Group 11" clip-path="url(#clip-path-3)">
          <path id="Path_9080" data-name="Path 9080" d="M270.8,300.3a37.052,37.052,0,0,0-6.75,3.327s-11.275,5.8-28.608-.173l-5.246-4.124,10.451-7.256s10.278,4.47,18.372,3.6c.977-.1,1.947-.173,2.89-.194C266.925,295.325,271.145,296.392,270.8,300.3Z" fill="rgba(0,0,0,0.7)" opacity="0.3"/>
        </g>
        <path id="Path_9082" data-name="Path 9082" d="M230.195,299.331l12.142,9.529a139.1,139.1,0,0,0,17.409-2.606h0c5.752-1.331,10.777-3.236,11.047-5.856.423-3.978-3.832-5.066-8.885-4.914-.943,0-1.913.1-2.89.194-8.088.866-18.372-3.6-18.372-3.6Z" fill="none" stroke="#263238" stroke-linecap="round" stroke-linejoin="round" stroke-width="0.693"/>
        <path id="Path_9083" data-name="Path 9083" d="M241.512,303.087c-2.19.353.215,4.851,3.181,3.465S243.7,302.726,241.512,303.087Z" fill="#fff"/>
        <g id="Group_12" data-name="Group 12" clip-path="url(#clip-path-4)">
          <path id="Path_9084" data-name="Path 9084" d="M245.621,305.838a46.384,46.384,0,0,1-4.719-.825c-.416-.88-.319-1.781.61-1.927C243.348,302.782,246.439,304.48,245.621,305.838Z" fill="rgba(0,0,0,0.7)" opacity="0.2"/>
        </g>
        <path id="Path_9086" data-name="Path 9086" d="M241.512,303.087c-2.19.353.215,4.851,3.181,3.465S243.7,302.726,241.512,303.087Z" fill="none" stroke="#263238" stroke-linecap="round" stroke-linejoin="round" stroke-width="0.693"/>
        <path id="Path_9087" data-name="Path 9087" d="M259.745,306.247c5.752-1.331,10.777-3.236,11.047-5.856.423-3.978-3.832-5.066-8.885-4.914C261.686,295.692,256.786,300.426,259.745,306.247Z" fill="#fff"/>
        <g id="Group_13" data-name="Group 13" clip-path="url(#clip-path-5)">
          <path id="Path_9088" data-name="Path 9088" d="M270.8,300.3a37.052,37.052,0,0,0-6.75,3.327,22.716,22.716,0,0,1-4.747,1.587c-1.94-5.336,2.4-9.536,2.606-9.737C266.925,295.325,271.145,296.392,270.8,300.3Z" fill="rgba(0,0,0,0.7)" opacity="0.3"/>
        </g>
        <path id="Path_9090" data-name="Path 9090" d="M259.745,306.247c5.752-1.331,10.777-3.236,11.047-5.856.423-3.978-3.832-5.066-8.885-4.914C261.686,295.692,256.786,300.426,259.745,306.247Z" fill="none" stroke="#263238" stroke-linecap="round" stroke-linejoin="round" stroke-width="0.693"/>
        <path id="Path_9091" data-name="Path 9091" d="M255.642,301.306h.035a.6.6,0,0,0,.624-.575,8.164,8.164,0,0,1,2.079-4.567.6.6,0,0,0,0-.845.6.6,0,0,0-.845,0,9.259,9.259,0,0,0-2.4,5.343A.6.6,0,0,0,255.642,301.306Z" fill="#fff" stroke="#263238" stroke-linecap="round" stroke-linejoin="round" stroke-width="0.693"/>
        <path id="Path_9092" data-name="Path 9092" d="M253.238,301.465h.049a.6.6,0,0,0,.61-.589,8.9,8.9,0,0,1,1.843-4.754.6.6,0,1,0-.929-.762,10.035,10.035,0,0,0-2.114,5.489.6.6,0,0,0,.541.617Z" fill="#fff" stroke="#263238" stroke-linecap="round" stroke-linejoin="round" stroke-width="0.693"/>
        <path id="Path_9093" data-name="Path 9093" d="M250.362,301.146h0a.6.6,0,0,0,.651-.541,13.817,13.817,0,0,1,2-4.851.61.61,0,0,0-.166-.839.6.6,0,0,0-.832.166,14.115,14.115,0,0,0-2.2,5.385.6.6,0,0,0,.547.679Z" fill="#fff" stroke="#263238" stroke-linecap="round" stroke-linejoin="round" stroke-width="0.693"/>
        <path id="Path_9094" data-name="Path 9094" d="M247.645,300.862a.63.63,0,0,0,.159,0,.6.6,0,0,0,.492-.693c-.423-2.55,1.947-4.733,1.968-4.754a.6.6,0,0,0-.776-.88c-.118.1-2.883,2.64-2.349,5.849A.61.61,0,0,0,247.645,300.862Z" fill="#fff" stroke="#263238" stroke-linecap="round" stroke-linejoin="round" stroke-width="0.693"/>
        <path id="Path_9095" data-name="Path 9095" d="M244.693,300.148a.61.61,0,0,0,.194,0,.6.6,0,0,0,.45-.693c-.52-2.273,1.719-4.851,1.746-4.851a.6.6,0,0,0-.055-.845.6.6,0,0,0-.845.048c-.111.125-2.675,3.056-2.017,5.939a.6.6,0,0,0,.527.4Z" fill="#fff" stroke="#263238" stroke-linecap="round" stroke-linejoin="round" stroke-width="0.693"/>
        <path id="Path_9096" data-name="Path 9096" d="M182.265,295.7l-.866,2.536s1.109,4.664,8,6.133,10.853,3.465,14.179,4.006a28.546,28.546,0,0,0,5.309.471l.8-.949Z" fill="#fff" stroke="#263238" stroke-linecap="round" stroke-linejoin="round" stroke-width="0.693"/>
        <path id="Path_9097" data-name="Path 9097" d="M222.731,299.7l-13.07,8.2a139.44,139.44,0,0,1-17.041-4.415h0c-5.579-1.927-10.4-4.352-10.4-6.986,0-4.006,4.345-4.636,9.356-3.957.936.125,1.892.3,2.855.5,7.949,1.712,18.642-1.649,18.642-1.649Z" fill="#263238"/>
        <g id="Group_14" data-name="Group 14" clip-path="url(#clip-path-6)">
          <path id="Path_9098" data-name="Path 9098" d="M222.731,299.7l-7.686,4.851a31.089,31.089,0,0,1-15.621-11,52.041,52.041,0,0,0,13.673-2.141Z" fill="rgba(0,0,0,0.7)" opacity="0.3"/>
        </g>
        <path id="Path_9100" data-name="Path 9100" d="M222.731,299.7l-13.07,8.2a139.44,139.44,0,0,1-17.041-4.415h0c-5.579-1.927-10.4-4.352-10.4-6.986,0-4.006,4.345-4.636,9.356-3.957.936.125,1.892.3,2.855.5,7.949,1.712,18.642-1.649,18.642-1.649Z" fill="none" stroke="#263238" stroke-linecap="round" stroke-linejoin="round" stroke-width="0.693"/>
        <path id="Path_9101" data-name="Path 9101" d="M192.619,303.475c-5.579-1.927-10.4-4.352-10.4-6.986,0-4.006,4.345-4.636,9.356-3.957C191.8,292.768,196.174,298,192.619,303.475Z" fill="#fff" stroke="#263238" stroke-linecap="round" stroke-linejoin="round" stroke-width="0.693"/>
        <path id="Path_9102" data-name="Path 9102" d="M197.221,298.991h-.035a.61.61,0,0,1-.568-.638,8.129,8.129,0,0,0-1.573-4.754.6.6,0,1,1,.943-.742,9.2,9.2,0,0,1,1.83,5.544A.6.6,0,0,1,197.221,298.991Z" fill="#fff" stroke="#263238" stroke-linecap="round" stroke-linejoin="round" stroke-width="0.693"/>
        <path id="Path_9103" data-name="Path 9103" d="M199.591,299.386h-.055a.6.6,0,0,1-.547-.651,8.85,8.85,0,0,0-1.324-4.914.608.608,0,0,1,1-.693,9.931,9.931,0,0,1,1.525,5.683.6.6,0,0,1-.6.575Z" fill="#fff" stroke="#263238" stroke-linecap="round" stroke-linejoin="round" stroke-width="0.693"/>
        <path id="Path_9104" data-name="Path 9104" d="M202.488,299.386h0a.61.61,0,0,1-.6-.61,12.964,12.964,0,0,0-1.476-5,.61.61,0,0,1,.256-.818.6.6,0,0,1,.811.256A14.085,14.085,0,0,1,203.1,298.8a.6.6,0,0,1-.61.589Z" fill="#fff" stroke="#263238" stroke-linecap="round" stroke-linejoin="round" stroke-width="0.693"/>
        <path id="Path_9105" data-name="Path 9105" d="M205.218,299.386h-.159a.6.6,0,0,1-.416-.742c.693-2.488-1.435-4.914-1.455-4.934a.6.6,0,1,1,.894-.8c.1.118,2.592,2.932,1.719,6.064a.61.61,0,0,1-.582.416Z" fill="#fff" stroke="#263238" stroke-linecap="round" stroke-linejoin="round" stroke-width="0.693"/>
        <path id="Path_9106" data-name="Path 9106" d="M208.233,298.991a.457.457,0,0,1-.194-.035.589.589,0,0,1-.374-.762c.755-2.2-1.206-5-1.22-5.024a.6.6,0,1,1,.977-.693c.1.132,2.335,3.32,1.386,6.119A.61.61,0,0,1,208.233,298.991Z" fill="#fff" stroke="#263238" stroke-linecap="round" stroke-linejoin="round" stroke-width="0.693"/>
        <path id="Path_9107" data-name="Path 9107" d="M211.081,302.241c2.141.589-.693,4.782-3.527,3.119S208.946,301.659,211.081,302.241Z" fill="#fff" stroke="#263238" stroke-linecap="round" stroke-linejoin="round" stroke-width="0.693"/>
        <path id="Path_9108" data-name="Path 9108" d="M186.368,279.981c3.209,4.5,12.724,9.467,22.177,13.562a44.512,44.512,0,0,0,5.946,7.769c5.835,6,8.212,2.64,8.212,2.64s3.687-.416,9.127-1.157a2.6,2.6,0,0,0,2.772,1.545,11.2,11.2,0,0,0,3.611-2.46c13.743-2.079,32.392-5.544,37.423-9.578" fill="#407bff" stroke="#263238" stroke-linecap="round" stroke-linejoin="round" stroke-width="0.693"/>
        <path id="Path_9109" data-name="Path 9109" d="M270.279,271.416c-2.377-2.613-4.754-2.73-9.744-2.377,0,0-13.022,4.158-22.107,9.626a237.867,237.867,0,0,1-22.336,11.269s-4.04-1.171-6.854,0c0,0-1.975.152-.651,3.6" fill="none" stroke="#263238" stroke-linecap="round" stroke-linejoin="round" stroke-width="0.693"/>
        <path id="Path_9110" data-name="Path 9110" d="M276.322,287.029s.069,4.026-5.641,6.812" fill="none" stroke="#263238" stroke-linecap="round" stroke-linejoin="round" stroke-width="0.693"/>
        <path id="Path_9111" data-name="Path 9111" d="M213.34,270.23s9.009,6.514,10.818,10.811a37.1,37.1,0,0,1,5.115,2.64" fill="none" stroke="#263238" stroke-linecap="round" stroke-linejoin="round" stroke-width="0.693"/>
        <path id="Path_9112" data-name="Path 9112" d="M224.81,275.643a10.4,10.4,0,0,1,.319,5.828" fill="none" stroke="#263238" stroke-linecap="round" stroke-linejoin="round" stroke-width="0.693"/>
        <path id="Path_9113" data-name="Path 9113" d="M222.731,271.416a15.76,15.76,0,0,1,1.289,2.252" fill="none" stroke="#263238" stroke-linecap="round" stroke-linejoin="round" stroke-width="0.693"/>
        <path id="Path_9114" data-name="Path 9114" d="M235.566,270.82s3.015,4.033,3.763,7.3" fill="none" stroke="#263238" stroke-linecap="round" stroke-linejoin="round" stroke-width="0.693"/>
        <path id="Path_9115" data-name="Path 9115" d="M252.357,295.186a25.883,25.883,0,0,0,3.34-.416" fill="none" stroke="#263238" stroke-linecap="round" stroke-linejoin="round" stroke-width="0.693"/>
        <path id="Path_9116" data-name="Path 9116" d="M224.075,292.3a160.555,160.555,0,0,0,25.912,2.973" fill="none" stroke="#263238" stroke-linecap="round" stroke-linejoin="round" stroke-width="0.693"/>
        <path id="Path_9117" data-name="Path 9117" d="M285.054,231.186s-1.629,28.414-3.548,30.043-4.948,2.134-10.68,2.613-31.082,2.031-31.082,2.031l-2.731-8.143s13.479-1.386,19.46-3.569a100.3,100.3,0,0,1,13.805-3.645,98.6,98.6,0,0,1-1.137-10.222v-14.47" fill="#fff" stroke="#263238" stroke-linecap="round" stroke-linejoin="round" stroke-width="0.693"/>
        <path id="Path_9118" data-name="Path 9118" d="M280.065,200.145c6.175,3.8,8,12.6,5.863,31.373,0,0,1.823,2.218-.873,3.327,0,0-10.1-3.777-14.789-1.171s-3.465-3.6-3.465-3.6-1.934-17.27,2.342-20.4" fill="#263238"/>
        <path id="Path_9119" data-name="Path 9119" d="M268.574,207.041s-5.939,6.175-.693,21.782a25.463,25.463,0,0,0-.693,3.881c0,1.046,1.435,1.587,1.435,1.587" fill="none" stroke="#fff" stroke-linecap="round" stroke-linejoin="round" stroke-width="0.693"/>
        <path id="Path_9120" data-name="Path 9120" d="M261.63,217.5s.43,7.623,5.156,10.929" fill="none" stroke="#fff" stroke-linecap="round" stroke-linejoin="round" stroke-width="0.693"/>
        <path id="Path_9121" data-name="Path 9121" d="M263.155,199.8s-9.21,3.527-16.536-.381c-4.345-2.315-2.557-6.036-2.557-6.036" fill="none" stroke="#fff" stroke-linecap="round" stroke-linejoin="round" stroke-width="0.693"/>
        <path id="Path_9122" data-name="Path 9122" d="M196.923,271.429h50.133a13.063,13.063,0,0,0,3.354-.437L260.3,268.4a.638.638,0,0,0,.478-.617h0a.644.644,0,0,0-.644-.645H194.85a.645.645,0,0,0-.638.645v.936A2.71,2.71,0,0,0,196.923,271.429Z" fill="#757575" stroke="#263238" stroke-linecap="round" stroke-linejoin="round" stroke-width="0.693"/>
        <path id="Path_9123" data-name="Path 9123" d="M191.967,268.935h50.272a1.192,1.192,0,0,0,1.171-1.608l-9.321-36.266a2.218,2.218,0,0,0-2.01-1.615H181.794a1.2,1.2,0,0,0-1.171,1.615l9.328,36.266a2.2,2.2,0,0,0,2.017,1.608Z" fill="#999" stroke="#263238" stroke-linecap="round" stroke-linejoin="round" stroke-width="0.693"/>
        <line id="Line_79" data-name="Line 79" x1="0.949" transform="translate(182.619 230.735)" fill="none" stroke="#263238" stroke-linecap="round" stroke-linejoin="round" stroke-width="0.693"/>
        <line id="Line_80" data-name="Line 80" x1="4.907" transform="translate(186.028 230.735)" fill="none" stroke="#263238" stroke-linecap="round" stroke-linejoin="round" stroke-width="0.693"/>
        <path id="Path_9124" data-name="Path 9124" d="M241.02,264.354l-8.233-32a2.211,2.211,0,0,0-2-1.615h-38.74" fill="none" stroke="#263238" stroke-linecap="round" stroke-linejoin="round" stroke-width="0.693"/>
        <line id="Line_81" data-name="Line 81" x1="0.208" y1="0.797" transform="translate(241.525 266.343)" fill="none" stroke="#263238" stroke-linecap="round" stroke-linejoin="round" stroke-width="0.693"/>
        <path id="Path_9125" data-name="Path 9125" d="M207.082,250.105a4.948,4.948,0,0,0,.18.866,3.587,3.587,0,1,0,2.232-4.955,3.2,3.2,0,0,0-.631.27A3.874,3.874,0,0,1,207.082,250.105Z" fill="#fff" stroke="#263238" stroke-linecap="round" stroke-linejoin="round" stroke-width="0.693"/>
        <path id="Path_9126" data-name="Path 9126" d="M229.273,182.14c-4.352-.471-6.722-4.609-9.342-5.253a28.868,28.868,0,0,1-4.283-1.386s-.9-3.146-2.252-2.079-3.126,24.6-1.386,23.861,1.746,2.037,1.746,2.037l16.154,14.235,13.542-23.979S233.625,182.619,229.273,182.14Z" fill="#263238"/>
        <path id="Path_9127" data-name="Path 9127" d="M97.633,98.333v-.347h.347" fill="none" stroke="#263238" stroke-linecap="round" stroke-linejoin="round" stroke-width="0.693"/>
        <line id="Line_82" data-name="Line 82" x2="58.63" transform="translate(100.017 97.987)" fill="none" stroke="#263238" stroke-linecap="round" stroke-linejoin="round" stroke-width="0.693" stroke-dasharray="0.978 2.934"/>
        <path id="Path_9128" data-name="Path 9128" d="M159.659,97.987h.347v.347" fill="none" stroke="#263238" stroke-linecap="round" stroke-linejoin="round" stroke-width="0.693"/>
        <line id="Line_83" data-name="Line 83" y2="37.77" transform="translate(160.012 100.412)" fill="none" stroke="#263238" stroke-linecap="round" stroke-linejoin="round" stroke-width="0.693" stroke-dasharray="1 3"/>
        <path id="Path_9129" data-name="Path 9129" d="M160.005,139.221v.347h-.347" fill="none" stroke="#263238" stroke-linecap="round" stroke-linejoin="round" stroke-width="0.693"/>
        <line id="Line_84" data-name="Line 84" x1="58.63" transform="translate(98.998 139.568)" fill="none" stroke="#263238" stroke-linecap="round" stroke-linejoin="round" stroke-width="0.693" stroke-dasharray="0.978 2.934"/>
        <path id="Path_9130" data-name="Path 9130" d="M97.98,139.568h-.347v-.347" fill="none" stroke="#263238" stroke-linecap="round" stroke-linejoin="round" stroke-width="0.693"/>
        <line id="Line_85" data-name="Line 85" y1="37.77" transform="translate(97.64 99.373)" fill="none" stroke="#263238" stroke-linecap="round" stroke-linejoin="round" stroke-width="0.693" stroke-dasharray="1 3"/>
        <circle id="Ellipse_4" data-name="Ellipse 4" cx="1.026" cy="1.026" r="1.026" transform="translate(127.8 96.961)" fill="#407bff" stroke="#263238" stroke-linecap="round" stroke-linejoin="round" stroke-width="0.693"/>
        <circle id="Ellipse_5" data-name="Ellipse 5" cx="1.026" cy="1.026" r="1.026" transform="translate(96.614 117.752)" fill="#407bff" stroke="#263238" stroke-linecap="round" stroke-linejoin="round" stroke-width="0.693"/>
        <circle id="Ellipse_6" data-name="Ellipse 6" cx="1.026" cy="1.026" r="1.026" transform="translate(127.8 138.542)" fill="#407bff" stroke="#263238" stroke-linecap="round" stroke-linejoin="round" stroke-width="0.693"/>
        <circle id="Ellipse_7" data-name="Ellipse 7" cx="1.026" cy="1.026" r="1.026" transform="translate(158.986 117.752)" fill="#407bff" stroke="#263238" stroke-linecap="round" stroke-linejoin="round" stroke-width="0.693"/>
        <rect id="Rectangle_24" data-name="Rectangle 24" width="2.391" height="2.391" transform="translate(158.813 138.376)" fill="#407bff" stroke="#263238" stroke-linecap="round" stroke-linejoin="round" stroke-width="0.693"/>
        <rect id="Rectangle_25" data-name="Rectangle 25" width="2.391" height="2.391" transform="translate(158.813 96.795)" fill="#407bff" stroke="#263238" stroke-linecap="round" stroke-linejoin="round" stroke-width="0.693"/>
        <rect id="Rectangle_26" data-name="Rectangle 26" width="2.391" height="2.391" transform="translate(96.441 138.376)" fill="#407bff" stroke="#263238" stroke-linecap="round" stroke-linejoin="round" stroke-width="0.693"/>
        <rect id="Rectangle_27" data-name="Rectangle 27" width="2.391" height="2.391" transform="translate(96.441 96.795)" fill="#407bff" stroke="#263238" stroke-linecap="round" stroke-linejoin="round" stroke-width="0.693"/>
        <rect id="Rectangle_28" data-name="Rectangle 28" width="54.285" height="34.492" transform="translate(101.777 101.666)" fill="#fff" stroke="#263238" stroke-linecap="round" stroke-linejoin="round" stroke-width="0.693"/>
        <path id="Path_9131" data-name="Path 9131" d="M156.062,125.971l-6.036,6.036L133.7,115.679l-6.868,6.868L115.88,111.6l-14.1,14.1v10.465h54.285Z" fill="#407bff" stroke="#263238" stroke-linecap="round" stroke-linejoin="round" stroke-width="0.693"/>
        <circle id="Ellipse_8" data-name="Ellipse 8" cx="3.832" cy="3.832" r="3.832" transform="translate(140.982 107.626)" fill="#407bff" stroke="#263238" stroke-linecap="round" stroke-linejoin="round" stroke-width="0.693"/>
        <path id="Path_9132" data-name="Path 9132" d="M232.163,188.5a49.2,49.2,0,0,0-4.65,19.585" fill="none" stroke="#fff" stroke-linecap="round" stroke-linejoin="round" stroke-width="0.693"/>
        <path id="Path_9133" data-name="Path 9133" d="M219.938,193.859s1.241,6.584,4.851,11.352" fill="none" stroke="#fff" stroke-linecap="round" stroke-linejoin="round" stroke-width="0.693"/>
        <path id="Path_9134" data-name="Path 9134" d="M237.014,221.026s6.237,20.486,19.786,26.515" fill="none" stroke="#fff" stroke-linecap="round" stroke-linejoin="round" stroke-width="0.693"/>
        <path id="Path_9135" data-name="Path 9135" d="M253.425,183.942s-.589,4.47-4.886,4.782a19.037,19.037,0,0,0-1.906-3.195,60,60,0,0,1,6.792-1.587Z" fill="#263238"/>
        <path id="Path_9136" data-name="Path 9136" d="M262.58,184.254s7.187.88,10.194-8.767.645-16.917-11.248-20.416c-6.6-1.94-13.167-.381-15.572,4.616-2.037,4.276-1.074,7.831-1.538,9.266-.527,1.608-5.392,2.973-5.392,4.075,0,.908,2.7,2.46,2.7,2.46l-.79,2.4.742.4s-1.386,5.4-.742,7.3c.457,1.386,12.634,1.968,13.583-1.483" fill="#fff" stroke="#263238" stroke-linecap="round" stroke-linejoin="round" stroke-width="0.693"/>
        <path id="Path_9137" data-name="Path 9137" d="M246.023,163.186s2.377.6,3.029,1.843" fill="none" stroke="#263238" stroke-linecap="round" stroke-linejoin="round" stroke-width="0.693"/>
        <path id="Path_9138" data-name="Path 9138" d="M246.439,168.668c-.1.693.055,1.3.36,1.338s.624-.485.728-1.185-.062-1.3-.36-1.338S246.543,167.968,246.439,168.668Z" fill="#263238"/>
        <path id="Path_9139" data-name="Path 9139" d="M241.671,178.28s3.867,1.483,5.309.589" fill="none" stroke="#263238" stroke-linecap="round" stroke-linejoin="round" stroke-width="0.693"/>
        <path id="Path_9140" data-name="Path 9140" d="M243.029,168.114c-.284,1.552.062,2.911.776,3.042s1.532-1.012,1.816-2.557-.055-2.918-.776-3.049S243.32,166.568,243.029,168.114Z" fill="none" stroke="#263238" stroke-linecap="round" stroke-linejoin="round" stroke-width="0.693"/>
        <path id="Path_9141" data-name="Path 9141" d="M273.093,160.22a11.435,11.435,0,0,0-4.519-6.972,21.144,21.144,0,0,0-8.69-3.555,8.744,8.744,0,0,1,3.167,2.329s-5.939-4.463-12.994-1.532-6.175,10.548-6.175,10.548l1.026-2s-.118,2.377,1.13,3.25a15.608,15.608,0,0,1,1.518-3.327s1.871,5.62,7.02,7.526a4.089,4.089,0,0,1-.083-2.772s2.855,6.175,2.024,9.189l.908,1.58s3.278-3.32,5.946-.554c1.532,1.594-2.931,7.623-3.569,7.623l2.7,3.957s6.736.963,10.617-6.334,2.931-10.4,2.931-10.4a8.971,8.971,0,0,1,1.386,2.772C277.445,171.544,278.6,163.706,273.093,160.22Z" fill="#263238"/>
        <path id="Path_9142" data-name="Path 9142" d="M257.243,175.189s2.079-6.986,6.5-4.525,1.268,6.189-.319,7.623-2.772,4.04-3.8,4.04-1.261-1.268-1.261-1.268" fill="#fff" stroke="#263238" stroke-linecap="round" stroke-linejoin="round" stroke-width="0.693"/>
        <line id="Line_86" data-name="Line 86" x2="12.336" y2="2.557" transform="translate(245.621 168.599)" fill="none" stroke="#263238" stroke-linecap="round" stroke-linejoin="round" stroke-width="0.693"/>
      </g>
    </g>
  </g>
</svg>
