<svg xmlns="http://www.w3.org/2000/svg" width="86" height="86" viewBox="0 0 86 86">
  <g id="النشر" transform="translate(-1014 -3085)">
    <circle id="Ellipse_176" data-name="Ellipse 176" cx="43" cy="43" r="43" transform="translate(1014 3085)" fill="#fff"/>
    <g id="maintenance-5137127" transform="translate(1030 3103)">
      <path id="Path_10571" data-name="Path 10571" d="M157.6,55.381H109.929a3.209,3.209,0,0,0-3.205,3.205V91.539a3.209,3.209,0,0,0,3.205,3.205h18.716a6.246,6.246,0,0,1-6.174,5.375h-3.866a1.087,1.087,0,0,0-1.086,1.086v3.024a1.087,1.087,0,0,0,1.086,1.086h30.54a1.087,1.087,0,0,0,1.086-1.086v-3.024a1.087,1.087,0,0,0-1.086-1.086h-3.866a6.246,6.246,0,0,1-6.174-5.375h18.5a3.209,3.209,0,0,0,3.205-3.205V58.586a3.208,3.208,0,0,0-3.2-3.205Zm-9.116,46.481v1.708H119.263v-1.708Zm-8.176-1.744H127.44a7.976,7.976,0,0,0,2.969-5.375h6.934a7.973,7.973,0,0,0,2.969,5.375ZM157.6,93H109.93a1.463,1.463,0,0,1-1.461-1.461v-.95h50.593v.95A1.461,1.461,0,0,1,157.6,93ZM146.439,77.3a1.274,1.274,0,0,0,.65-1.109l.023-3.526a1.269,1.269,0,0,0-.635-1.117l-3.814-2.236a6.169,6.169,0,0,1,5.379.393,6.289,6.289,0,0,1,3.02,5.962,1.277,1.277,0,0,0,.632,1.2l7.368,4.319v5.535l-9.783-5.735a1.277,1.277,0,0,0-1.357.036,6.289,6.289,0,0,1-6.677.277,6.175,6.175,0,0,1-2.971-4.5l3.814,2.236a1.273,1.273,0,0,0,1.284.008Zm6.38-1.795a7.9,7.9,0,0,0-11.757-7.373,1.285,1.285,0,0,0-.04,2.24l4.344,2.547-.02,3-2.6,1.481L138.4,74.852a1.285,1.285,0,0,0-1.936,1.13,7.9,7.9,0,0,0,12.177,6.656l10.423,6.11v.1H108.47V58.586a1.463,1.463,0,0,1,1.461-1.461H157.6a1.463,1.463,0,0,1,1.461,1.461V79.17Zm-19.1-3.721-.786-.345a9.084,9.084,0,0,0-.228-1.452l.641-.571a1.294,1.294,0,0,0,.244-1.645l-1.456-2.38a1.3,1.3,0,0,0-1.577-.531l-.8.312a9.15,9.15,0,0,0-1.189-.864l.051-.857a1.3,1.3,0,0,0-.99-1.337l-2.713-.653a1.3,1.3,0,0,0-1.489.739l-.345.786a9.085,9.085,0,0,0-1.452.228l-.57-.641a1.3,1.3,0,0,0-1.646-.245l-2.38,1.456a1.3,1.3,0,0,0-.531,1.577l.312.8a9.064,9.064,0,0,0-.864,1.189l-.858-.051a1.305,1.305,0,0,0-1.336.991l-.653,2.713a1.3,1.3,0,0,0,.74,1.49l.786.345a9.108,9.108,0,0,0,.228,1.452l-.641.57a1.3,1.3,0,0,0-.245,1.646l1.456,2.38a1.3,1.3,0,0,0,1.577.531l.8-.312a9.15,9.15,0,0,0,1.189.864l-.051.858a1.3,1.3,0,0,0,.99,1.336l2.713.653a1.294,1.294,0,0,0,1.489-.74l.345-.786a9.084,9.084,0,0,0,1.452-.228l.57.641a1.3,1.3,0,0,0,1.646.244l2.379-1.456a1.294,1.294,0,0,0,.531-1.577l-.312-.8a9.063,9.063,0,0,0,.864-1.189l.858.051a1.291,1.291,0,0,0,1.336-.99l.653-2.713a1.3,1.3,0,0,0-.739-1.49Zm-1.522,3.43-1.024-.06a.879.879,0,0,0-.823.464,7.381,7.381,0,0,1-1.237,1.7.873.873,0,0,0-.188.925l.372.954-1.74,1.065-.68-.766a.871.871,0,0,0-.91-.254,7.389,7.389,0,0,1-2.08.327.871.871,0,0,0-.787.522l-.412.939-1.983-.478.06-1.024a.873.873,0,0,0-.464-.823,7.37,7.37,0,0,1-1.7-1.238.873.873,0,0,0-.925-.188l-.954.372-1.065-1.74.766-.68a.871.871,0,0,0,.254-.91,7.389,7.389,0,0,1-.327-2.079.871.871,0,0,0-.522-.787l-.939-.412.478-1.983,1.023.06a.865.865,0,0,0,.823-.464,7.382,7.382,0,0,1,1.237-1.7.873.873,0,0,0,.188-.925l-.372-.955L120,64.015l.68.766a.872.872,0,0,0,.91.254,7.386,7.386,0,0,1,2.079-.327.873.873,0,0,0,.788-.521l.412-.94,1.983.477-.06,1.024a.87.87,0,0,0,.463.822,7.392,7.392,0,0,1,1.7,1.238.872.872,0,0,0,.925.188l.954-.372,1.065,1.74-.765.68a.871.871,0,0,0-.254.91,7.39,7.39,0,0,1,.327,2.08.871.871,0,0,0,.522.787l.939.414Zm-7.121-8.452a5.53,5.53,0,1,0-2.589,10.754,5.573,5.573,0,0,0,1.3.155,5.531,5.531,0,0,0,1.284-10.909Zm2.386,6.263a3.785,3.785,0,1,1-3.688-4.675,3.82,3.82,0,0,1,.893.107,3.786,3.786,0,0,1,2.8,4.568Z" transform="translate(-106.724 -55.381)" fill="#29abe2"/>
    </g>
  </g>
</svg>
