<svg xmlns="http://www.w3.org/2000/svg" width="86" height="86" viewBox="0 0 86 86">
  <g id="النشر" transform="translate(-376 -3085)">
    <circle id="Ellipse_174" data-name="Ellipse 174" cx="43" cy="43" r="43" transform="translate(376 3085)" fill="#fff"/>
    <g id="deployment-4557675" transform="translate(394 3101)">
      <path id="Path_10377" data-name="Path 10377" d="M152.982,97.631h-3.5c-2.467,0-5.337-2.017-5.337-4.619v-24.4h45.426v24.4c0,2.6-2.869,4.619-5.337,4.619h-3.5v2.524h3.5c3.711,0,7.86-3.055,7.86-7.142v-29.8c0-3.78-3.736-7.222-7.838-7.222H149.486c-3.711,0-7.861,3.089-7.861,7.222v29.8c0,4.088,4.15,7.142,7.861,7.142h3.5a1.262,1.262,0,0,0,0-2.524ZM144.15,63.213c0-2.371,2.644-4.7,5.337-4.7h34.774c2.732,0,5.315,2.284,5.315,4.7v2.872H144.15Z" transform="translate(-141.626 -55.99)" fill="#29abe2"/>
      <path id="Path_10378" data-name="Path 10378" d="M373.375,97.676h-1.261a1.261,1.261,0,1,0,0,2.523h1.261a1.261,1.261,0,1,0,0-2.523Z" transform="translate(-343.09 -92.627)" fill="#29abe2"/>
      <path id="Path_10379" data-name="Path 10379" d="M425.465,97.676H424.2a1.261,1.261,0,0,0,0,2.523h1.261a1.261,1.261,0,1,0,0-2.523Z" transform="translate(-388.871 -92.627)" fill="#29abe2"/>
      <path id="Path_10380" data-name="Path 10380" d="M477.555,97.676h-1.261a1.261,1.261,0,1,0,0,2.523h1.261a1.261,1.261,0,0,0,0-2.523Z" transform="translate(-434.652 -92.627)" fill="#29abe2"/>
      <path id="Path_10381" data-name="Path 10381" d="M267.941,206.309l-.446,2.2a1.7,1.7,0,0,0,1.664,2.035h9.376a1.7,1.7,0,0,0,1.662-2.039l-.452-2.2,2.223,1.667a1.7,1.7,0,0,0,2.715-1.36v-7.116a1.706,1.706,0,0,0-.679-1.358l-2.612-1.96a1.647,1.647,0,0,0-.19-.1v-5.3a10.786,10.786,0,0,0-1.958-6.213l-3.648-5.212a2.214,2.214,0,0,0-3.494,0l-3.648,5.212a10.779,10.779,0,0,0-1.958,6.213v5.3a1.7,1.7,0,0,0-.192.106l-2.612,1.96a1.706,1.706,0,0,0-.677,1.356v7.116a1.7,1.7,0,0,0,2.716,1.359Zm2.228,1.712.37-1.827h6.607l.375,1.827Zm11.988-8.114v5.051l-.958-.718v-5.051Zm-8.31-18.658,1.816,2.594h-3.632Zm-4.829,9.519a8.256,8.256,0,0,1,1.285-4.4s7.081-.017,7.105.023a8.244,8.244,0,0,1,1.267,4.379v12.9h-9.658Zm-3.481,9.139.958-.718v5.051l-.958.718Z" transform="translate(-248.312 -163.653)" fill="#29abe2"/>
      <path id="Path_10382" data-name="Path 10382" d="M339.59,463.6v2.524a1.261,1.261,0,0,0,2.523,0V463.6a1.261,1.261,0,1,0-2.523,0Z" transform="translate(-315.614 -413.122)" fill="#29abe2"/>
      <path id="Path_10383" data-name="Path 10383" d="M308.32,463.6v1.261a1.261,1.261,0,1,0,2.523,0V463.6a1.261,1.261,0,1,0-2.523,0Z" transform="translate(-288.131 -413.122)" fill="#29abe2"/>
      <path id="Path_10384" data-name="Path 10384" d="M372.1,462.32a1.261,1.261,0,0,0-1.261,1.261v1.261a1.261,1.261,0,1,0,2.523,0v-1.261A1.26,1.26,0,0,0,372.1,462.32Z" transform="translate(-343.075 -413.108)" fill="#29abe2"/>
      <path id="Path_10385" data-name="Path 10385" d="M322.791,272.972a3.961,3.961,0,1,0-3.962-3.962A3.966,3.966,0,0,0,322.791,272.972Zm0-5.4a1.437,1.437,0,1,1-1.438,1.436A1.438,1.438,0,0,1,322.791,267.573Z" transform="translate(-297.367 -239.73)" fill="#29abe2"/>
    </g>
  </g>
</svg>
