<svg xmlns="http://www.w3.org/2000/svg" width="86" height="86" viewBox="0 0 86 86">
  <g id="النشر" transform="translate(-709 -3085)">
    <circle id="Ellipse_175" data-name="Ellipse 175" cx="43" cy="43" r="43" transform="translate(709 3085)" fill="#fff"/>
    <g id="evaluation_-4833881" data-name="evaluation -4833881" transform="translate(729 3101)">
      <path id="Path_10518" data-name="Path 10518" d="M160.292,114.158H121.04a3.5,3.5,0,0,1-3.5-3.5V80.531a3.5,3.5,0,0,1,3.5-3.5h3.338a.618.618,0,0,1,0,1.236H121.04a2.263,2.263,0,0,0-2.262,2.262v30.128a2.263,2.263,0,0,0,2.262,2.262h39.252a2.263,2.263,0,0,0,2.262-2.262V80.531a2.263,2.263,0,0,0-2.262-2.262h-3.338a.618.618,0,0,1,0-1.236h3.338a3.5,3.5,0,0,1,3.5,3.5v30.128a3.5,3.5,0,0,1-3.5,3.5Z" transform="translate(-117.541 -70.084)" fill="#29abe2"/>
      <path id="Path_10519" data-name="Path 10519" d="M163.168,370.461H118.155a.618.618,0,1,1,0-1.236h45.013a.618.618,0,1,1,0,1.236Z" transform="translate(-117.537 -333.249)" fill="#29abe2"/>
      <path id="Path_10520" data-name="Path 10520" d="M286.759,446.417a.951.951,0,0,1-.186-.025.618.618,0,0,1-.408-.766l2.04-6.663a.614.614,0,1,1,1.174.359l-2.04,6.663A.608.608,0,0,1,286.759,446.417Z" transform="translate(-269.389 -395.667)" fill="#29abe2"/>
      <path id="Path_10521" data-name="Path 10521" d="M384.124,446.417a.635.635,0,0,1-.593-.433l-2.04-6.663a.614.614,0,0,1,1.174-.359l2.04,6.663a.618.618,0,0,1-.408.766.725.725,0,0,1-.173.025Z" transform="translate(-355.244 -395.667)" fill="#29abe2"/>
      <path id="Path_10522" data-name="Path 10522" d="M269.649,510.384H251.043a.624.624,0,0,1-.519-.284.63.63,0,0,1-.049-.593l1.657-3.659a.614.614,0,0,1,.569-.359h15.28a.626.626,0,0,1,.569.359l1.657,3.659a.6.6,0,0,1-.049.593.59.59,0,0,1-.507.284Zm-17.642-1.236H268.7l-1.1-2.423H253.108Z" transform="translate(-237.221 -455.976)" fill="#29abe2"/>
      <path id="Path_10523" data-name="Path 10523" d="M505.652,404.931h-2.337a.618.618,0,0,1,0-1.236h2.337a.618.618,0,1,1,0,1.236Z" transform="translate(-464.434 -364.294)" fill="#29abe2"/>
      <path id="Path_10524" data-name="Path 10524" d="M454.252,404.931h-2.337a.618.618,0,0,1,0-1.236h2.337a.618.618,0,0,1,0,1.236Z" transform="translate(-418.14 -364.294)" fill="#29abe2"/>
      <path id="Path_10525" data-name="Path 10525" d="M402.852,404.931h-2.337a.618.618,0,0,1,0-1.236h2.337a.612.612,0,0,1,.618.618A.62.62,0,0,1,402.852,404.931Z" transform="translate(-371.846 -364.294)" fill="#29abe2"/>
      <path id="Path_10526" data-name="Path 10526" d="M210.507,40.744H183.569a3.445,3.445,0,0,1-3.437-3.437V10.529a3.445,3.445,0,0,1,3.437-3.437h26.938a3.445,3.445,0,0,1,3.437,3.437V37.307a3.437,3.437,0,0,1-3.436,3.437ZM183.569,8.329a2.206,2.206,0,0,0-2.2,2.2V37.308a2.206,2.206,0,0,0,2.2,2.2h26.938a2.206,2.206,0,0,0,2.2-2.2V10.529a2.206,2.206,0,0,0-2.2-2.2H183.569Z" transform="translate(-173.914 -7.092)" fill="#29abe2"/>
      <path id="Path_10527" data-name="Path 10527" d="M213.331,65.822H180.756a.618.618,0,1,1,0-1.236h32.576a.618.618,0,0,1,0,1.236Z" transform="translate(-173.918 -58.874)" fill="#29abe2"/>
      <path id="Path_10528" data-name="Path 10528" d="M221.893,28.274a1.694,1.694,0,1,1,1.694-1.694A1.7,1.7,0,0,1,221.893,28.274Zm0-2.139a.457.457,0,0,0-.458.458.458.458,0,1,0,.915,0A.457.457,0,0,0,221.893,26.135Z" transform="translate(-210 -23.118)" fill="#29abe2"/>
      <path id="Path_10529" data-name="Path 10529" d="M261.593,28.274a1.694,1.694,0,1,1,1.694-1.681A1.7,1.7,0,0,1,261.593,28.274Zm0-2.139a.457.457,0,0,0-.458.458.458.458,0,0,0,.915,0A.456.456,0,0,0,261.593,26.135Z" transform="translate(-245.756 -23.118)" fill="#29abe2"/>
      <path id="Path_10530" data-name="Path 10530" d="M301.413,28.274a1.694,1.694,0,1,1,1.694-1.694A1.7,1.7,0,0,1,301.413,28.274Zm0-2.139a.457.457,0,0,0-.458.458.458.458,0,0,0,.915,0A.457.457,0,0,0,301.413,26.135Z" transform="translate(-281.62 -23.118)" fill="#29abe2"/>
      <path id="Path_10531" data-name="Path 10531" d="M307.889,109.144a8.018,8.018,0,1,1,5.675-2.349,7.944,7.944,0,0,1-5.675,2.349Zm0-14.786a6.769,6.769,0,1,0,4.784,1.978A6.766,6.766,0,0,0,307.889,94.358Z" transform="translate(-281.766 -84.566)" fill="#29abe2"/>
      <path id="Path_10532" data-name="Path 10532" d="M241.477,217.505a1.933,1.933,0,0,1-1.385-.556,2.329,2.329,0,0,1,.235-3.239l6.478-6.775a.621.621,0,0,1,.9.853l-6.478,6.775c-.47.494-.581,1.187-.26,1.508s1.026.21,1.508-.26l6.775-6.478a.621.621,0,1,1,.853.9l-6.775,6.478a2.74,2.74,0,0,1-1.855.791Z" transform="translate(-227.42 -186.907)" fill="#29abe2"/>
      <path id="Path_10533" data-name="Path 10533" d="M339.581,137.388a4.518,4.518,0,1,1,3.178-1.335,4.379,4.379,0,0,1-3.177,1.335Zm0-7.764a3.287,3.287,0,0,0-2.312.952,3.234,3.234,0,0,0-.952,2.312,3.27,3.27,0,1,0,3.264-3.264Z" transform="translate(-313.458 -116.322)" fill="#29abe2"/>
    </g>
  </g>
</svg>
