<svg xmlns="http://www.w3.org/2000/svg" width="86" height="86" viewBox="0 0 86 86">
  <g id="البحث_والإستشارات" data-name="البحث والإستشارات" transform="translate(-1065 -2589)">
    <circle id="Ellipse_159" data-name="Ellipse 159" cx="43" cy="43" r="43" transform="translate(1065 2589)" fill="#fff"/>
    <g id="research-3023347" transform="translate(1003.374 2526.922)">
      <path id="Path_10677" data-name="Path 10677" d="M92.4,80.078v40.3h27.686v8.348h-5.411a.7.7,0,1,0,0,1.4h19.941a.7.7,0,0,0,0-1.4H129.2v-8.348h6.379a.7.7,0,0,0,0-1.4H93.8v-2.1h38.753a.7.7,0,0,0,0-1.4H93.8V84.986h61.681v30.483h-7.269a.7.7,0,1,0,0,1.4h7.268v2.1h-5.432a.7.7,0,0,0,0,1.4h6.834v-40.3Zm29.088,40.3h6.308v8.348h-6.308ZM93.8,83.583v-2.1h61.681v2.1Z" transform="translate(-19.772)" fill="#29abe2"/>
      <path id="Path_10678" data-name="Path 10678" d="M276.418,166.009a3.547,3.547,0,0,0-2.425-1.037l-3.4-3.4a12.836,12.836,0,1,0-3.687,3.694l3.4,3.4a3.563,3.563,0,0,0,1.038,2.425l5.776,5.776a3.588,3.588,0,1,0,5.075-5.075Zm1.689,9.862-5.776-5.776a2.146,2.146,0,0,1-.624-1.682,2.171,2.171,0,0,1,.624-1.416,2.137,2.137,0,0,1,1.416-.624c.049,0,.1-.007.147-.007a2.118,2.118,0,0,1,1.535.631l5.776,5.776a2.191,2.191,0,1,1-3.1,3.1ZM267.95,146.579a11.286,11.286,0,0,1,1.171,14.671,11.324,11.324,0,0,1-2.544,2.544,11.338,11.338,0,1,1,1.373-17.214Zm.1,17.846a.466.466,0,0,1,.063-.056c.287-.238.568-.491.827-.75s.512-.54.75-.827a.464.464,0,0,0,.056-.063l2.586,2.586a3.26,3.26,0,0,0-.336.2c-.056.035-.119.063-.175.105a3,3,0,0,0-.484.406,3.763,3.763,0,0,0-.4.484,1.576,1.576,0,0,0-.105.182,3.165,3.165,0,0,0-.2.336Z" transform="translate(-155.197 -54.052)" fill="#29abe2"/>
      <path id="Path_10679" data-name="Path 10679" d="M294.6,197.136a7.763,7.763,0,1,0-7.766-7.759A7.769,7.769,0,0,0,294.6,197.136Zm.7-1.619v-5.446h2.222C297.375,192.839,296.38,194.879,295.3,195.517Zm0-6.848v-5.446c1.072.638,2.074,2.671,2.222,5.446Zm-1.4-5.439v5.446h-2.222C291.823,185.9,292.826,183.868,293.9,183.23Zm0,6.841v5.446c-1.072-.638-2.074-2.67-2.222-5.446Zm3.743,4.885a10.974,10.974,0,0,0,1.282-4.885h2A6.374,6.374,0,0,1,297.641,194.956Zm3.28-6.287h-2a10.98,10.98,0,0,0-1.282-4.885A6.374,6.374,0,0,1,300.921,188.669Zm-9.364-4.885a10.974,10.974,0,0,0-1.282,4.885h-2A6.392,6.392,0,0,1,291.557,183.784Zm-1.282,6.287a10.981,10.981,0,0,0,1.282,4.885,6.375,6.375,0,0,1-3.28-4.885Z" transform="translate(-189.871 -88.825)" fill="#29abe2"/>
    </g>
  </g>
</svg>
