<svg xmlns="http://www.w3.org/2000/svg" width="90" height="90" viewBox="0 0 90 90">
  <g id="تطبيقات_ويب_تقديمية" data-name="تطبيقات ويب تقديمية" transform="translate(-638 -1356)">
    <g id="Ellipse_162" data-name="Ellipse 162" transform="translate(638 1356)" fill="#fff" stroke="#29abe2" stroke-width="1" stroke-dasharray="3">
      <circle cx="45" cy="45" r="45" stroke="none"/>
      <circle cx="45" cy="45" r="44.5" fill="none"/>
    </g>
    <g id="Presentation_web_applications" data-name="Presentation web applications" transform="translate(657 1376)">
      <path id="Path_10341" data-name="Path 10341" d="M48.071,8.533H3.435A3.439,3.439,0,0,0,0,11.968V40.295a.859.859,0,0,0,.858.858H50.647a.859.859,0,0,0,.858-.858V11.968A3.439,3.439,0,0,0,48.071,8.533Zm1.718,30.9H1.717V11.968A1.719,1.719,0,0,1,3.435,10.25H48.071a1.719,1.719,0,0,1,1.718,1.718Z" transform="translate(0 -8.533)" fill="#29abe2"/>
      <path id="Path_10342" data-name="Path 10342" d="M50.648,315.733H.858a.859.859,0,0,0-.858.858v4.291a3.439,3.439,0,0,0,3.435,3.435H48.071a3.439,3.439,0,0,0,3.435-3.435v-4.291A.859.859,0,0,0,50.648,315.733Zm-.859,5.15a1.719,1.719,0,0,1-1.718,1.718H3.435a1.719,1.719,0,0,1-1.718-1.718V317.45H49.789v3.433Z" transform="translate(0 -284.829)" fill="#29abe2"/>
      <path id="Path_10343" data-name="Path 10343" d="M63.008,87.9H57.858a.858.858,0,1,0,0,1.717h5.151a.858.858,0,1,0,0-1.717Zm8.584,10.3H49.274a2.575,2.575,0,1,0,0,5.151H71.593a2.575,2.575,0,1,0,0-5.151Zm0,3.434H49.274a.858.858,0,1,1,0-1.717H71.593a.858.858,0,1,1,0,1.717Z" transform="translate(-34.68 -53.561)" fill="#29abe2"/>
      <path id="Path_10344" data-name="Path 10344" d="M134.97,114.571c-2.848,0-4.292-2.022-4.292-6.009a.859.859,0,0,0-.858-.858h-8.584a.859.859,0,0,0-.858.858c0,3.987-1.444,6.009-4.292,6.009a.858.858,0,0,0,0,1.717H134.97a.858.858,0,0,0,0-1.717Zm-14.7,0a8.224,8.224,0,0,0,1.8-5.151h6.915a8.214,8.214,0,0,0,1.8,5.151Zm20.528-19.346-2.072-2.072L139.874,92a.858.858,0,0,0-.36-1.429L130.93,88a.859.859,0,0,0-1.069,1.069l2.575,8.584a.858.858,0,0,0,1.429.361l1.214-1.215,2.072,2.073a.858.858,0,0,0,1.214,0l2.428-2.429a.857.857,0,0,0,0-1.214Zm-3.035,1.822-1.887-1.888a1.122,1.122,0,0,0-1.585,0l-.62.62-1.7-5.68,5.68,1.7-.664.664a.973.973,0,0,0,0,1.374l1.992,1.992ZM135.828,76.8H111.792a.859.859,0,0,0-.858.858v4.292a.859.859,0,0,0,.858.858h24.036a.859.859,0,0,0,.858-.858V77.658A.859.859,0,0,0,135.828,76.8Zm-.858,4.292H112.651V78.517H134.97Zm-12.876,5.151h-6.867a.859.859,0,0,0-.858.858v3.434a.859.859,0,0,0,.858.858h6.867a.859.859,0,0,0,.858-.858V87.1A.859.859,0,0,0,122.094,86.243Zm-.858,3.434h-5.151V87.96h5.151Z" transform="translate(-99.774 -69.933)" fill="#29abe2"/>
      <path id="Path_10345" data-name="Path 10345" d="M135.828,76.8H111.792a.859.859,0,0,0-.858.858v16.31a.859.859,0,0,0,.858.858h20.436a.859.859,0,0,0,.822-1.106L131.964,90.1l3.618,1.086a.859.859,0,0,0,1.1-.822v-12.7A.859.859,0,0,0,135.828,76.8Zm-.858,12.408L130.929,88a.859.859,0,0,0-1.069,1.07l1.214,4.045H112.651V78.517H134.97Z" transform="translate(-99.774 -69.933)" fill="#29abe2"/>
    </g>
  </g>
</svg>
