<svg xmlns="http://www.w3.org/2000/svg" xmlns:xlink="http://www.w3.org/1999/xlink" width="436" height="415" viewBox="0 0 436 415">
  <defs>
    <filter id="Ellipse_266" x="21" y="0" width="415" height="415" filterUnits="userSpaceOnUse">
      <feOffset dy="3" input="SourceAlpha"/>
      <feGaussianBlur stdDeviation="3" result="blur"/>
      <feFlood flood-color="#737373" flood-opacity="0.161"/>
      <feComposite operator="in" in2="blur"/>
      <feComposite in="SourceGraphic"/>
    </filter>
  </defs>
  <g id="Premium_One" data-name="Premium One" transform="translate(-149 -267)">
    <g id="Ellipse_267" data-name="Ellipse 267" transform="translate(149 273)" fill="none" stroke="#29abe2" stroke-width="1" stroke-dasharray="10">
      <circle cx="203.5" cy="203.5" r="203.5" stroke="none"/>
      <circle cx="203.5" cy="203.5" r="203" fill="none"/>
    </g>
    <g transform="matrix(1, 0, 0, 1, 149, 267)" filter="url(#Ellipse_266)">
      <circle id="Ellipse_266-2" data-name="Ellipse 266" cx="198.5" cy="198.5" r="198.5" transform="translate(30 6)" fill="#fcfcfc"/>
    </g>
    <g id="Group_6095" data-name="Group 6095" transform="translate(-300.349 -262)">
      <g id="Group_6073" data-name="Group 6073" transform="translate(621.307 642)">
        <path id="Path_13932" data-name="Path 13932" d="M693.579,229.634v-3.549c0-18.356-.039-36.712.048-55.068.011-2.231-.575-3-3.03-2.949-7.469.144-14.943.067-22.416.031-1.431-.007-2.457.146-3.068,1.691-4.578,11.576-14.026,16.663-26.481,17.394-4.784.28-9.6.045-14.573.045V144.021h2.6c21.088,0,42.177-.061,63.266.026a59.744,59.744,0,0,1,25.746,5.4c12.79,6.087,19.573,16.2,21.046,29.5a58.614,58.614,0,0,1-1.513,22.277c-4.143,14.944-14.622,23.494-30.234,26.724C701.343,228.7,697.628,229.047,693.579,229.634Z" transform="translate(-624.037 -144)" fill="#ff2a0c"/>
        <path id="Path_13933" data-name="Path 13933" d="M624.036,213.073h34.413v62.042H624.036Z" transform="translate(-624.036 -146.826)"/>
      </g>
      <g id="Group_6078" data-name="Group 6078" transform="translate(557.349 786.162)">
        <g id="Group_6076" data-name="Group 6076" transform="translate(0 0)">
          <g id="Group_6074" data-name="Group 6074">
            <path id="Path_13934" data-name="Path 13934" d="M581.255,306.7a4.585,4.585,0,0,1-1.672,2.65,4.724,4.724,0,0,1-2.988,1l-9.427-.034-1.637,7.292h-8.182l5.194-23.292h17.645a3.18,3.18,0,0,1,2.579,1,2.885,2.885,0,0,1,.445,2.65Zm-11.17-9.485-2.277,10.194h5.123l2.277-10.194Z" transform="translate(-557.349 -294.313)"/>
            <path id="Path_13935" data-name="Path 13935" d="M602.033,301.736h-7.365L591.04,317.8h-7.578l3.522-15.731a3.542,3.542,0,0,1,1.334-2.093,3.823,3.823,0,0,1,2.4-.81H602.6Z" transform="translate(-558.418 -294.512)"/>
            <path id="Path_13936" data-name="Path 13936" d="M604.633,302.073a3.532,3.532,0,0,1,1.334-2.093,3.821,3.821,0,0,1,2.4-.81H621.46a2.436,2.436,0,0,1,2.009.81,2.352,2.352,0,0,1,.374,2.093l-2.348,10.6H609.862l-.6,2.566h11.633l-.569,2.566H604.953a3.18,3.18,0,0,1-2.579-1,2.884,2.884,0,0,1-.444-2.65Zm7.684-.338-1.885,8.3h4.09l1.886-8.3Z" transform="translate(-559.168 -294.512)"/>
            <path id="Path_13937" data-name="Path 13937" d="M655.775,317.8H648.2l3.628-16.068h-4.091L644.105,317.8h-7.542l3.629-16.068H636.1L632.473,317.8H624.9l4.2-18.634h27.82a2.436,2.436,0,0,1,2.009.81,2.349,2.349,0,0,1,.374,2.093Z" transform="translate(-560.113 -294.512)"/>
            <path id="Path_13938" data-name="Path 13938" d="M667.34,317.605h-7.578l4.162-18.634H671.5Zm4.625-20.727h-7.578l.57-2.565h7.578Z" transform="translate(-561.539 -294.313)"/>
            <path id="Path_13939" data-name="Path 13939" d="M682.583,299.17l-3.628,16.068h4.091l3.628-16.068h7.542l-3.344,14.989a4.585,4.585,0,0,1-1.672,2.65,4.729,4.729,0,0,1-2.988,1H674.651a3.181,3.181,0,0,1-2.58-1,2.887,2.887,0,0,1-.444-2.65l3.38-14.989Z" transform="translate(-562.02 -294.512)"/>
            <path id="Path_13940" data-name="Path 13940" d="M725.471,317.8h-7.578l3.629-16.068h-4.092L713.8,317.8h-7.542l3.628-16.068H705.8L702.17,317.8h-7.578l4.2-18.634h27.82a2.439,2.439,0,0,1,2.01.81,2.352,2.352,0,0,1,.373,2.093Z" transform="translate(-562.965 -294.512)"/>
          </g>
          <g id="Group_6075" data-name="Group 6075" transform="translate(174.319 4.658)">
            <path id="Path_13941" data-name="Path 13941" d="M741.933,302.073a3.534,3.534,0,0,1,1.334-2.093,3.824,3.824,0,0,1,2.4-.81H758.76a2.436,2.436,0,0,1,2.009.81,2.352,2.352,0,0,1,.374,2.093l-2.668,12.085a4.579,4.579,0,0,1-1.672,2.649,4.726,4.726,0,0,1-2.989,1H742.254a3.178,3.178,0,0,1-2.58-1,2.882,2.882,0,0,1-.444-2.649Zm7.684-.338-3.059,13.5h4.091l3.058-13.5Z" transform="translate(-739.105 -299.17)" fill="#ff2a0c"/>
            <path id="Path_13942" data-name="Path 13942" d="M781.442,317.8H773.9l3.63-16.068h-4.091L769.81,317.8h-7.578l4.2-18.634h16.151a2.44,2.44,0,0,1,2.011.81,2.352,2.352,0,0,1,.373,2.093Z" transform="translate(-740.051 -299.17)" fill="#ff2a0c"/>
            <path id="Path_13943" data-name="Path 13943" d="M788.41,302.073a3.542,3.542,0,0,1,1.334-2.093,3.824,3.824,0,0,1,2.4-.81h13.091a2.438,2.438,0,0,1,2.01.81,2.355,2.355,0,0,1,.374,2.093l-2.349,10.6H793.64l-.605,2.566h11.634l-.57,2.566H788.731a3.175,3.175,0,0,1-2.579-1,2.882,2.882,0,0,1-.445-2.649Zm7.684-.338-1.886,8.3H798.3l1.885-8.3Z" transform="translate(-741.006 -299.17)" fill="#ff2a0c"/>
          </g>
        </g>
        <g id="Group_6077" data-name="Group 6077" transform="translate(39.208 28.524)">
          <path id="Path_13944" data-name="Path 13944" d="M598.23,333.469l1.719-9.28H602c1.651,0,2.374,1.043,2.067,2.815-.334,1.91-1.4,2.816-3.109,2.816h-1.044l-.675,3.649Zm2.571-8.439-.73,3.948h1.044c1.166,0,1.692-.75,1.93-1.974.219-1.209-.034-1.974-1.2-1.974Z" transform="translate(-598.23 -324.059)"/>
          <path id="Path_13945" data-name="Path 13945" d="M604.572,333.469h-1.03l4.106-9.28h1.132l.669,9.28h-.989l-.191-2.841h-2.455Zm1.609-3.7h2.026l-.259-4.025Z" transform="translate(-598.447 -324.059)"/>
          <path id="Path_13946" data-name="Path 13946" d="M614.8,331.949l.989.169a2.5,2.5,0,0,1-2.442,1.475c-2.427,0-2.475-2.162-1.984-4.77s1.133-4.77,3.567-4.77a1.8,1.8,0,0,1,2.019,1.483l-.954.154a.992.992,0,0,0-1.126-.8c-1.6,0-2.066,1.772-2.469,3.927s-.579,3.928,1.009,3.928A1.59,1.59,0,0,0,614.8,331.949Z" transform="translate(-598.757 -324.054)"/>
          <path id="Path_13947" data-name="Path 13947" d="M622.359,324.189h1.221l-3.321,3.915,1.671,5.365h-1.084l-1.385-4.433-.743.874-.655,3.559h-1.009l1.719-9.28h1.009l-.715,3.883Z" transform="translate(-599 -324.059)"/>
          <path id="Path_13948" data-name="Path 13948" d="M623.821,333.469h-1.03l4.106-9.28h1.133l.669,9.28h-.99l-.191-2.841h-2.455Zm1.609-3.7h2.026l-.259-4.025Z" transform="translate(-599.235 -324.059)"/>
          <path id="Path_13949" data-name="Path 13949" d="M630.61,328.823c.491-2.6,1.132-4.77,3.567-4.77a1.8,1.8,0,0,1,2.018,1.483l-.954.154a.991.991,0,0,0-1.125-.8c-1.6,0-2.067,1.772-2.47,3.927s-.579,3.928,1.01,3.928a2.161,2.161,0,0,0,1.3-.363l.594-3.184h-1.385l.151-.841h2.325l-.825,4.472a3.345,3.345,0,0,1-2.223.757C630.166,333.593,630.119,331.431,630.61,328.823Z" transform="translate(-599.545 -324.054)"/>
          <path id="Path_13950" data-name="Path 13950" d="M638.448,324.189h1.009l-1.719,9.28h-1.009Z" transform="translate(-599.805 -324.059)"/>
          <path id="Path_13951" data-name="Path 13951" d="M641.221,324.189h1.48l1.065,7.695,1.425-7.695H646.2l-1.719,9.28H643l-1.064-7.695-1.425,7.695H639.5Z" transform="translate(-599.919 -324.059)"/>
          <path id="Path_13952" data-name="Path 13952" d="M647.086,328.823c.491-2.6,1.132-4.77,3.567-4.77a1.8,1.8,0,0,1,2.019,1.483l-.955.154a.991.991,0,0,0-1.125-.8c-1.6,0-2.067,1.772-2.469,3.927s-.58,3.928,1.009,3.928a2.161,2.161,0,0,0,1.3-.363l.594-3.184h-1.385l.151-.841h2.326l-.826,4.472a3.344,3.344,0,0,1-2.223.757C646.642,333.593,646.6,331.431,647.086,328.823Z" transform="translate(-600.219 -324.054)"/>
          <path id="Path_13953" data-name="Path 13953" d="M657.15,333.469h-1.029l4.1-9.28h1.133l.668,9.28h-.989l-.192-2.841h-2.455Zm1.609-3.7h2.026l-.259-4.025Z" transform="translate(-600.599 -324.059)"/>
          <path id="Path_13954" data-name="Path 13954" d="M665.206,324.189h1.481l1.064,7.695,1.425-7.695h1.009l-1.718,9.28h-1.481l-1.064-7.695-1.425,7.695h-1.01Z" transform="translate(-600.9 -324.059)"/>
          <path id="Path_13955" data-name="Path 13955" d="M672.118,324.189h1.733c2.407,0,2.9,1.968,2.441,4.64-.491,2.873-1.705,4.64-4.16,4.64H670.4Zm.853.841-1.412,7.6h.723c1.807,0,2.571-1.677,2.973-3.8s.239-3.8-1.562-3.8Z" transform="translate(-601.183 -324.059)"/>
          <path id="Path_13956" data-name="Path 13956" d="M685.464,328.305l-.157.841h-2.953l-.8,4.323h-1.009l1.719-9.28h4.289l-.156.841h-3.28l-.607,3.275Z" transform="translate(-601.598 -324.059)"/>
          <path id="Path_13957" data-name="Path 13957" d="M690.759,324.054c2.421,0,2.475,2.169,1.984,4.77s-1.133,4.77-3.567,4.77-2.475-2.162-1.984-4.77S688.324,324.054,690.759,324.054Zm-.061.842c-1.6,0-2.067,1.772-2.469,3.927s-.579,3.928,1.01,3.928,2.066-1.773,2.469-3.928S692.286,324.9,690.7,324.9Z" transform="translate(-601.86 -324.054)"/>
          <path id="Path_13958" data-name="Path 13958" d="M697.912,324.054c2.422,0,2.476,2.169,1.985,4.77s-1.133,4.77-3.567,4.77-2.476-2.162-1.985-4.77S695.478,324.054,697.912,324.054Zm-.061.842c-1.6,0-2.066,1.772-2.469,3.927s-.579,3.928,1.01,3.928,2.066-1.773,2.469-3.928S699.44,324.9,697.851,324.9Z" transform="translate(-602.153 -324.054)"/>
          <path id="Path_13959" data-name="Path 13959" d="M702.546,324.189h1.732c2.408,0,2.9,1.968,2.442,4.64-.491,2.873-1.705,4.64-4.161,4.64h-1.732Zm.853.841-1.412,7.6h.723c1.807,0,2.571-1.677,2.973-3.8s.239-3.8-1.561-3.8Z" transform="translate(-602.428 -324.059)"/>
          <path id="Path_13960" data-name="Path 13960" d="M712.694,324.189H713.7l-1.719,9.28h-1.009Z" transform="translate(-602.843 -324.059)"/>
          <path id="Path_13961" data-name="Path 13961" d="M715.467,324.189h1.48l1.064,7.695,1.425-7.695h1.01l-1.719,9.28h-1.48l-1.065-7.695-1.425,7.695h-1.009Z" transform="translate(-602.957 -324.059)"/>
          <path id="Path_13962" data-name="Path 13962" d="M722.379,324.189h1.732c2.407,0,2.9,1.968,2.442,4.64-.491,2.873-1.705,4.64-4.16,4.64H720.66Zm.853.841-1.412,7.6h.722c1.808,0,2.571-1.677,2.974-3.8s.239-3.8-1.562-3.8Z" transform="translate(-603.24 -324.059)"/>
          <path id="Path_13963" data-name="Path 13963" d="M728.174,329.5l.982-5.313h1.01l-.982,5.313c-.4,2.148-.355,3.255.906,3.255s1.719-1.107,2.121-3.255l.982-5.313H734.2l-.982,5.313c-.491,2.647-1.18,4.1-3.192,4.1S727.683,332.149,728.174,329.5Z" transform="translate(-603.539 -324.059)"/>
          <path id="Path_13964" data-name="Path 13964" d="M739.139,325.459a1.278,1.278,0,0,0-1.159-.563c-.818,0-1.309.53-1.493,1.534a1.686,1.686,0,0,0,1.043,1.786c1.1.653,1.937,1.411,1.664,2.847a2.7,2.7,0,0,1-2.734,2.53,2.256,2.256,0,0,1-2.2-1.114l.778-.459a1.6,1.6,0,0,0,1.487.732c.9,0,1.445-.667,1.651-1.689a1.774,1.774,0,0,0-1.126-1.929,2.65,2.65,0,0,1,1-5.08,1.877,1.877,0,0,1,1.876.946Z" transform="translate(-603.796 -324.054)"/>
          <path id="Path_13965" data-name="Path 13965" d="M746.775,324.189l-.157.841H744.5l-1.562,8.439h-1.009l1.561-8.439h-2.12l.156-.841Z" transform="translate(-604.087 -324.059)"/>
          <path id="Path_13966" data-name="Path 13966" d="M746.579,333.469l1.719-9.28h2.012c1.712,0,2.394,1.146,2.142,2.66a2.9,2.9,0,0,1-2.169,2.479l.778,4.141h-1.037l-.743-3.96h-.962l-.729,3.96Zm2.571-8.439-.675,3.638h1a1.958,1.958,0,0,0,1.951-1.819c.184-1-.109-1.818-1.276-1.818Z" transform="translate(-604.3 -324.059)"/>
          <path id="Path_13967" data-name="Path 13967" d="M754.762,324.189h1.009l-1.719,9.28h-1.009Z" transform="translate(-604.565 -324.059)"/>
          <path id="Path_13968" data-name="Path 13968" d="M760.733,328.305l-.156.841h-2.953l-.648,3.481h3.349l-.151.841h-4.358l1.719-9.28h4.29l-.156.841h-3.281l-.607,3.275Z" transform="translate(-604.678 -324.059)"/>
          <path id="Path_13969" data-name="Path 13969" d="M766.751,325.459a1.278,1.278,0,0,0-1.159-.563c-.818,0-1.309.53-1.493,1.534a1.686,1.686,0,0,0,1.043,1.786c1.1.653,1.937,1.411,1.664,2.847a2.7,2.7,0,0,1-2.734,2.53,2.255,2.255,0,0,1-2.2-1.114l.777-.459a1.6,1.6,0,0,0,1.488.732c.9,0,1.445-.667,1.65-1.689a1.772,1.772,0,0,0-1.125-1.929,2.65,2.65,0,0,1,1-5.08,1.877,1.877,0,0,1,1.876.946Z" transform="translate(-604.926 -324.054)"/>
        </g>
      </g>
    </g>
  </g>
</svg>
