<svg xmlns="http://www.w3.org/2000/svg" xmlns:xlink="http://www.w3.org/1999/xlink" width="436" height="415" viewBox="0 0 436 415">
  <defs>
    <filter id="Ellipse_266" x="21" y="0" width="415" height="415" filterUnits="userSpaceOnUse">
      <feOffset dy="3" input="SourceAlpha"/>
      <feGaussianBlur stdDeviation="3" result="blur"/>
      <feFlood flood-color="#737373" flood-opacity="0.161"/>
      <feComposite operator="in" in2="blur"/>
      <feComposite in="SourceGraphic"/>
    </filter>
  </defs>
  <g id="_3abkary" data-name="3abkary" transform="translate(-149 -267)">
    <g id="Ellipse_267" data-name="Ellipse 267" transform="translate(149 273)" fill="none" stroke="#29abe2" stroke-width="1" stroke-dasharray="10">
      <circle cx="203.5" cy="203.5" r="203.5" stroke="none"/>
      <circle cx="203.5" cy="203.5" r="203" fill="none"/>
    </g>
    <g transform="matrix(1, 0, 0, 1, 149, 267)" filter="url(#Ellipse_266)">
      <circle id="Ellipse_266-2" data-name="Ellipse 266" cx="198.5" cy="198.5" r="198.5" transform="translate(30 6)" fill="#fcfcfc"/>
    </g>
    <g id="Group_6143" data-name="Group 6143" transform="translate(-468.721 -35.259)">
      <g id="Group_270" data-name="Group 270" transform="translate(821.711 525.99)">
        <g id="Group_269" data-name="Group 269">
          <path id="Path_336" data-name="Path 336" d="M910.229,596.063a3.211,3.211,0,0,1-.091.4V596A.785.785,0,0,1,910.229,596.063Z" transform="translate(-910.139 -595.997)" fill="#35a8e0"/>
        </g>
      </g>
      <g id="Group_271" data-name="Group 271" transform="translate(732.72 464.246)">
        <path id="Path_337" data-name="Path 337" d="M762.678,629.223a4.9,4.9,0,0,0-3.654,1.594,5.655,5.655,0,0,0,0,7.667,5.109,5.109,0,0,0,7.348,0,5.653,5.653,0,0,0,0-7.667A4.922,4.922,0,0,0,762.678,629.223Z" transform="translate(-745.086 -550.098)" fill="#e9515a"/>
        <path id="Path_338" data-name="Path 338" d="M789.128,629.223a4.857,4.857,0,0,0-3.664,1.594,5.571,5.571,0,0,0,0,7.667,4.808,4.808,0,0,0,3.664,1.559,4.887,4.887,0,0,0,3.694-1.559,5.653,5.653,0,0,0,0-7.667A4.937,4.937,0,0,0,789.128,629.223Z" transform="translate(-758.248 -550.098)" fill="#e9515a"/>
        <path id="Path_339" data-name="Path 339" d="M1057.727,614.806a4.89,4.89,0,0,0-3.664,1.559,5.347,5.347,0,0,0-1.527,3.856,5.265,5.265,0,0,0,1.527,3.82,5.052,5.052,0,0,0,7.348,0,5.236,5.236,0,0,0,1.5-3.82,5.318,5.318,0,0,0-1.5-3.856A4.9,4.9,0,0,0,1057.727,614.806Z" transform="translate(-892.128 -543.223)" fill="#e9515a"/>
        <path id="Path_340" data-name="Path 340" d="M767.068,554a34.2,34.2,0,0,0,28-15.216,36.543,36.543,0,0,0,5.738-14.639,10.706,10.706,0,0,0-2.606-8.026c-3.4-3.942-8.83-4.7-13.572-5.541-2.449-.445-5.389-.309-7.039-2.626-1.513-2.141-1.827-5.091-1.756-7.687a15.68,15.68,0,0,1,2.414-7.894,15.333,15.333,0,0,1,5.6-5.232,14.1,14.1,0,0,1,6.685-1.69,14.26,14.26,0,0,1,7.444,2.125,15.111,15.111,0,0,1,3.167,2.586A15.91,15.91,0,0,1,803.233,493a3.38,3.38,0,0,0,1.412,1.442,2.7,2.7,0,0,0,.982.258l5.338-2.146-.764-1.832a21.407,21.407,0,0,0-34.992-6.275,22.83,22.83,0,0,0-2,2.343,23.613,23.613,0,0,0-4.326,17.609c.713,4.6,2.717,10.167,7,12.317,3.532,1.766,7.742,1.554,11.4,2.651a11.072,11.072,0,0,1,3.33,1.564,5.3,5.3,0,0,1,2.267,5.541c-3.158,10.92-12.752,18.991-23.657,19.9a25.991,25.991,0,0,1-5.43-.116,27.388,27.388,0,0,1-18.4-11.143,28.767,28.767,0,0,1-5.253-20.2,32.892,32.892,0,0,1,3.274-10.45c-.187.243-2.455-1.032-2.692-1.148-1.052-.521-2.333-1.534-3.537-1.058a2.887,2.887,0,0,0-1.589,1.67,36.6,36.6,0,0,0-2.631,10.1,38.018,38.018,0,0,0-.223,5.46,36.366,36.366,0,0,0,7.317,20.874,35.3,35.3,0,0,0,3.82,4.3,33.406,33.406,0,0,0,19.052,9.078A31.755,31.755,0,0,0,767.068,554Z" transform="translate(-732.721 -477.917)" fill="#e9515a"/>
        <path id="Path_341" data-name="Path 341" d="M1099.229,529.973c-.021,0-.021.005-.04.005a33.2,33.2,0,0,0-1.417-3.067,22.191,22.191,0,0,0-19.047-11.5,21.592,21.592,0,0,0-17.326,8.871,23.584,23.584,0,0,0,.647,28.839h-8a19.715,19.715,0,0,1-8.583-1.66c-.414-.2-2.408-1.144-2.408-1.705v-20.8h-5.182a2.663,2.663,0,0,0-2.075.891,2.929,2.929,0,0,0-.829,2.166v13.222a8.674,8.674,0,0,1-1.781,5.667c-1.185,1.468-3.188,2.217-6.1,2.217h-14.2l1.346,8.086h15.454a16.261,16.261,0,0,0,7.51-1.559,10.005,10.005,0,0,0,4.3-3.724,8.958,8.958,0,0,0,2.813,2.484,17.966,17.966,0,0,0,8.582,2.743l24.411-.035c.1,0,.172.01.364.015a22.783,22.783,0,0,0,3.714-.137,25.4,25.4,0,0,0,6.71-1.943l1.781-.729-2.115-4.964a1.85,1.85,0,0,0-1.559-1.128,6.018,6.018,0,0,0-1.761.273l-1.943.618a14.262,14.262,0,0,1-3.774.5,14.067,14.067,0,0,1-3.734-.5,14.915,14.915,0,0,1-9.736-8.724,15.7,15.7,0,0,1-1.234-6.113c0-8.451,6.608-15.338,14.705-15.338a14.633,14.633,0,0,1,11.193,5.369,16.954,16.954,0,0,1,1.953,3.406c.506,1.047,1.042,2.3,2.125,2.823,1.225.587,2.187-.146,3.319-.572,1.022-.379,2.024-.779,3.047-1.159C1100.362,532.812,1099.269,530.166,1099.229,529.973Z" transform="translate(-872.362 -495.802)" fill="#e9515a"/>
        <path id="Path_342" data-name="Path 342" d="M883.426,565.36c-4.059.01-8.31-.223-11.9-2.429-.3-.187-1.083-.481-1.083-.936V541.071h-5.191a2.739,2.739,0,0,0-2.024.921,3.217,3.217,0,0,0-.881,2.231V565.75a25.073,25.073,0,0,1-25.595,24.725,26.54,26.54,0,0,0-3.278-.177h-.021a3.119,3.119,0,0,0-1.711.865c-.647.653-.6,2.014-.738,2.879-.162,1.134-.334,2.267-.506,3.4l1.882.238c1.569.106,3.138.309,4.727.309a32.6,32.6,0,0,0,11.254-2c.081-.03.152-.051.233-.076l.587-.232a35.52,35.52,0,0,0,20.909-23.971c.07-.258.546-1.751.354-1.913a.637.637,0,0,0,.081.071,14.72,14.72,0,0,0,5.4,2.717,22.709,22.709,0,0,0,4.24.81v.056h19.948l1.315-8.086h-9.8C888.891,565.36,886.158,565.355,883.426,565.36Z" transform="translate(-781.456 -508.049)" fill="#e9515a"/>
      </g>
      <g id="Group_272" data-name="Group 272" transform="translate(841.166 449.259)">
        <path id="Path_343" data-name="Path 343" d="M1002.53,460.078a4.958,4.958,0,0,0,3.674-1.559,5.422,5.422,0,0,0,1.518-3.851,5.363,5.363,0,0,0-1.518-3.851,5.122,5.122,0,0,0-7.358,0,5.3,5.3,0,0,0-1.5,3.851,5.359,5.359,0,0,0,1.5,3.851A5,5,0,0,0,1002.53,460.078Z" transform="translate(-973.066 -449.259)" fill="#e9515a"/>
        <path id="Path_344" data-name="Path 344" d="M972.15,460.078a5,5,0,0,0,3.694-1.559,5.48,5.48,0,0,0,1.487-3.851,5.42,5.42,0,0,0-1.487-3.851,5,5,0,0,0-3.694-1.559,4.95,4.95,0,0,0-3.663,1.559,5.324,5.324,0,0,0-1.528,3.851,5.382,5.382,0,0,0,1.528,3.851A4.95,4.95,0,0,0,972.15,460.078Z" transform="translate(-957.921 -449.259)" fill="#e9515a"/>
        <path id="Path_345" data-name="Path 345" d="M970.816,479.229c-12.063,0-21.88,10.232-21.88,22.807a23.029,23.029,0,0,0,9.888,19.052l5.394-5.617a15.448,15.448,0,0,1-3.633-24.112,14.067,14.067,0,0,1,10.231-4.422c7.985,0,14.482,6.771,14.482,15.1a15.317,15.317,0,0,1-4.24,10.677,14.737,14.737,0,0,1-3.7,2.8c1.791,1.873,3.583,3.755,5.4,5.612a22.121,22.121,0,0,0,3.522-2.97,23.145,23.145,0,0,0,6.416-16.122C992.7,489.461,982.881,479.229,970.816,479.229Z" transform="translate(-948.937 -463.556)" fill="#e9515a"/>
      </g>
      <path id="Path_346" data-name="Path 346" d="M985.371,559.75l2.8-2.919-4.878-5.085-4.878,5.085,2.813,2.935-7.206,43.847,9.271,9.665,9.311-9.706Z" transform="translate(-120.274 -48.893)" fill="#75bf8e"/>
    </g>
  </g>
</svg>
