<svg xmlns="http://www.w3.org/2000/svg" xmlns:xlink="http://www.w3.org/1999/xlink" width="120" height="229" viewBox="0 0 120 229">
  <defs>
    <clipPath id="clip-path">
      <rect id="Rectangle_4674" data-name="Rectangle 4674" width="120" height="229" transform="translate(1246 917)" fill="#fff" stroke="#707070" stroke-width="1"/>
    </clipPath>
  </defs>
  <g id="Logo-side" transform="translate(-1246 -917)" clip-path="url(#clip-path)">
    <g id="Group_71" data-name="Group 71" transform="translate(-2201.047 -16.432)">
      <path id="Path_84" data-name="Path 84" d="M3586.487,1162.2c-.353.661-.755,1.321-1.156,1.981-.8,1.273-1.6,2.5-2.452,3.726-1.793,2.665-3.68,5.236-5.685,7.689q-4.351,5.413-8.373,9.623c-2.688,2.806-4.646,4.882-5.849,6.226-.472.519-.873.967-1.2,1.274l-.048.047v.024c-.33.307-.613.613-.9.9-.236.236-.5.5-.778.826a1.512,1.512,0,0,1-.189.212c-.377.378-.825.9-1.368,1.533a70.9,70.9,0,0,1-6.062,4.646,33.424,33.424,0,0,1-5.095,2.76,5.64,5.64,0,0,1-4.363.4c.5-2.029,1.462-5.284,2.924-9.765,1.486-4.481,3.09-9.41,4.883-14.859q2.653-8.137,5.307-16.581,2.265-7.146,3.773-12.949c.189-.708.354-1.391.519-2.052.094-.377.188-.755.26-1.132,1.462-6.793.636-11.274-2.429-13.42-3.255-2.264-7.406-2.972-12.524-2.1a50.577,50.577,0,0,0-14.293,4.93c-.5.236-1.014.5-1.533.778-.991.542-1.958,1.062-2.854,1.627a39.888,39.888,0,0,0-9.34,7.218q-6.155,6.545-7.759,11.6c-1.062,3.373-1.18,6.227-.331,8.562a9.944,9.944,0,0,0,4.646,5.4,16.356,16.356,0,0,0,7.076,2.052,25.557,25.557,0,0,0,3.113.094c1.156-.048,2.312-.118,3.4-.26.283-.024.589-.071.9-.118a23.761,23.761,0,0,0,2.713-.5,26.026,26.026,0,0,0,4.67-1.627,17.617,17.617,0,0,0,3.962-2.477,11.864,11.864,0,0,0,2.783-3.3,8.9,8.9,0,0,0,1.156-4.08,5.28,5.28,0,0,0-.849-2.854,4.968,4.968,0,0,0-2.24-1.84.459.459,0,0,1-.189-.024c-.023-.047-.071-.047-.118-.071a4.544,4.544,0,0,0-3.114-.094,3.025,3.025,0,0,0-2.076,2.052,4.689,4.689,0,0,0-.165,2.5,3.436,3.436,0,0,0,.92,1.651,3.753,3.753,0,0,0,1.486.92,4.455,4.455,0,0,0,1.58.307,10.78,10.78,0,0,1-3.161,4.882,11,11,0,0,1-5.9,2.547,7.239,7.239,0,0,0-1.274.33,3.611,3.611,0,0,1-1.533.118,13.271,13.271,0,0,1-6.179-1.793,14.276,14.276,0,0,1-4.765-4.34,12.832,12.832,0,0,1-2.217-6.038,11.806,11.806,0,0,1,1.556-6.911,22.554,22.554,0,0,1,4.623-6.51,39.588,39.588,0,0,1,6.746-5.307c.613-.377,1.2-.731,1.839-1.085a44.773,44.773,0,0,1,4.646-2.288c.472-.212.967-.425,1.463-.613a53.268,53.268,0,0,1,8.161-2.477,10.646,10.646,0,0,1,2.264-.212,18.918,18.918,0,0,1,3.4.236,15.59,15.59,0,0,1,3.279.944,2.973,2.973,0,0,1,1.887,1.792q.849,2.937-.071,8.42c-.188,1.037-.4,2.17-.684,3.349-.354,1.58-.8,3.278-1.345,5.118q-3.538,11.993-7.712,24.553-4.14,12.559-6.77,22.335-2.583,9.8.59,10.378a13.512,13.512,0,0,0,7.311-.849,36.9,36.9,0,0,0,7.666-4.269,70.717,70.717,0,0,0,7.831-6.557c.189-.189.4-.377.59-.59.613-.566,1.227-1.156,1.816-1.792,1.816-1.769,3.585-3.585,5.377-5.472,2.123-2.264,4.411-4.788,6.864-7.524a112.123,112.123,0,0,0,7.17-9.057c.991-1.368,1.934-2.783,2.854-4.269,1.18-1.887,2.335-3.892,3.42-5.967Z" transform="translate(-14.466 -92.127)" fill="#ffcb66"/>
      <path id="Path_85" data-name="Path 85" d="M3560.133,1033.752a49.727,49.727,0,0,0-8.444-12.548c-.377-.425-.755-.849-1.156-1.274-.779-.825-1.557-1.627-2.311-2.359a39.9,39.9,0,0,0-9.387-7.122c-5.284-2.854-9.67-4.364-13.208-4.505s-6.321.5-8.373,1.91a9.9,9.9,0,0,0-3.986,5.873,15.857,15.857,0,0,0-.165,7.359,24.86,24.86,0,0,0,.708,3.042c.354,1.132.708,2.194,1.132,3.232.094.259.212.518.33.825.425.991.825,1.816,1.2,2.5a24.44,24.44,0,0,0,2.783,4.08,17.342,17.342,0,0,0,3.42,3.184,11.776,11.776,0,0,0,3.892,1.84,9.2,9.2,0,0,0,4.246.071,5.121,5.121,0,0,0,2.524-1.557,5.069,5.069,0,0,0,1.226-2.665.149.149,0,0,1-.023-.165.205.205,0,0,0,0-.165,4.377,4.377,0,0,0-.708-3.019,2.94,2.94,0,0,0-2.524-1.462,4.66,4.66,0,0,0-2.429.472,3.518,3.518,0,0,0-1.368,1.321,3.861,3.861,0,0,0-.519,1.674,4.381,4.381,0,0,0,.142,1.6,10.814,10.814,0,0,1-5.566-1.793,11.012,11.012,0,0,1-3.962-5.047,9.429,9.429,0,0,0-.637-1.132,3.269,3.269,0,0,1-.519-1.439,13.243,13.243,0,0,1,.118-6.439,14.436,14.436,0,0,1,2.948-5.731,12.758,12.758,0,0,1,5.283-3.679,11.708,11.708,0,0,1,7.075-.307,22.384,22.384,0,0,1,7.477,2.783,38.31,38.31,0,0,1,6.863,5.142c.519.5,1.038.991,1.533,1.486a45.474,45.474,0,0,1,3.42,3.939c.33.4.636.8.943,1.227a50.7,50.7,0,0,1,4.529,7.24,11.324,11.324,0,0,1,.8,2.123,18.7,18.7,0,0,1,.637,3.349,15.014,15.014,0,0,1-.047,3.42,3.1,3.1,0,0,1-1.25,2.288c-1.769,1.038-4.481,1.745-8.161,2.076-1.062.117-2.194.165-3.42.212-1.627.071-3.4.071-5.283.024q-12.524-.283-25.708-1.062t-23.326-.755c-6.769,0-10.047,1.085-9.883,3.231a13.523,13.523,0,0,0,2.736,6.84,36.145,36.145,0,0,0,6.086,6.3,69.63,69.63,0,0,0,8.373,5.873q4.67,2.83,9.576,5.5c1.509.8,3.089,1.627,4.764,2.476.637.33,1.3.661,1.958,1.014.754.378,1.532.779,2.335,1.18a104.667,104.667,0,0,0,10.614,4.576,89.221,89.221,0,0,0,11.392,3.4,5.772,5.772,0,0,0,.684.165c1.911.425,3.868.778,5.873,1.038.189-.708.354-1.391.519-2.052.094-.377.189-.755.26-1.132a43.363,43.363,0,0,1-6.651-1.368c-.33-.094-.637-.189-.967-.283a121.168,121.168,0,0,1-13.137-4.882c-2.193-.99-4.292-1.958-6.273-2.924-.755-.377-1.486-.755-2.217-1.132-1.014-.519-2-1.038-2.948-1.557-3.42-1.863-5.92-3.208-7.547-4.057-.637-.307-1.156-.589-1.557-.826-.4-.212-.778-.448-1.132-.636-.377-.212-.8-.448-1.274-.684q-.708-.389-1.84-.92a76.13,76.13,0,0,1-6.062-4.646,31.988,31.988,0,0,1-3.986-4.222,5.617,5.617,0,0,1-1.51-4.1c2.1-.047,5.5.047,10.189.306s9.906.543,15.614.849q8.526.5,17.406.849c5,.212,9.482.33,13.468.307.731,0,1.439,0,2.123-.024.425,0,.825-.024,1.2-.047,6.91-.377,10.991-2.335,12.289-5.849C3562.7,1042.667,3562.3,1038.446,3560.133,1033.752Z" transform="translate(0 -27.622)" fill="#ffcb66"/>
      <path id="Path_86" data-name="Path 86" d="M3685.867,985c-.755-3.467-2.1-5.991-4.009-7.594a9.772,9.772,0,0,0-6.7-2.335,15.556,15.556,0,0,0-7.146,1.769,21.419,21.419,0,0,0-2.759,1.463c-.991.613-1.934,1.25-2.807,1.91-.236.165-.472.354-.731.542a22.787,22.787,0,0,0-2.1,1.816,24.243,24.243,0,0,0-3.231,3.726,18.4,18.4,0,0,0-2.193,4.128,11.7,11.7,0,0,0-.755,4.245,8.931,8.931,0,0,0,1.038,4.128,5.2,5.2,0,0,0,2.146,2.028,5.368,5.368,0,0,0,2.877.5c.071-.047.118-.094.165-.071a.458.458,0,0,0,.165-.024,4.437,4.437,0,0,0,2.712-1.463,3.043,3.043,0,0,0,.778-2.83,4.663,4.663,0,0,0-1.108-2.241,3.384,3.384,0,0,0-1.6-.967,4.357,4.357,0,0,0-1.745-.071,4.711,4.711,0,0,0-1.533.566,10.933,10.933,0,0,1,.307-5.849,11.288,11.288,0,0,1,3.821-5.141,8.39,8.39,0,0,0,.943-.9,3.519,3.519,0,0,1,1.274-.9,13.66,13.66,0,0,1,6.227-1.533,14.277,14.277,0,0,1,6.3,1.368,12.777,12.777,0,0,1,4.93,4.127,11.755,11.755,0,0,1,2.123,6.793,21.886,21.886,0,0,1-.755,7.925,38.015,38.015,0,0,1-3.184,7.972c-.331.614-.684,1.25-1.038,1.864a50.621,50.621,0,0,1-2.9,4.293,15.594,15.594,0,0,1-.943,1.25,51.285,51.285,0,0,1-5.826,6.227,10.085,10.085,0,0,1-1.863,1.345,16.77,16.77,0,0,1-3.066,1.462,14.493,14.493,0,0,1-3.3.849,3.076,3.076,0,0,1-2.547-.613c-1.462-1.415-2.83-3.868-4.127-7.335-.377-.99-.731-2.052-1.085-3.231-.5-1.557-.943-3.255-1.392-5.118q-2.936-12.17-5.613-25.1c-1.769-8.632-3.538-16.227-5.307-22.737-1.746-6.533-3.656-9.434-5.685-8.7a13.434,13.434,0,0,0-5.9,4.386,35.126,35.126,0,0,0-4.505,7.547,66.936,66.936,0,0,0-3.514,9.6c-1.014,3.491-1.958,7.052-2.831,10.661-.377,1.651-.754,3.4-1.155,5.212-.142.708-.307,1.439-.472,2.17-.165.849-.33,1.7-.519,2.571a103.284,103.284,0,0,0-1.7,11.439,93.322,93.322,0,0,0-.33,11.864c0,.236,0,.5.023.731a57.228,57.228,0,0,0,.519,5.944c.731,0,1.439,0,2.123-.024.425,0,.826-.024,1.2-.047a41.681,41.681,0,0,1-.448-6.816c0-.33,0-.661.023-.991a118.287,118.287,0,0,1,1.321-13.939q.565-3.573,1.2-6.792c.165-.849.331-1.675.519-2.477.235-1.108.472-2.193.73-3.255.92-3.774,1.581-6.533,1.958-8.326.142-.684.283-1.25.4-1.7s.236-.872.33-1.3c.118-.4.212-.873.331-1.391s.259-1.2.4-2.005a68.588,68.588,0,0,1,2.948-7.052,32.63,32.63,0,0,1,3.019-4.953,5.663,5.663,0,0,1,3.585-2.524c.589,2,1.368,5.307,2.335,9.929q1.451,6.9,3.208,15.284t3.7,17.029q1.627,7.324,3.207,13.09.283,1.061.566,2.052.177.566.354,1.132c2.146,6.6,5.095,10.047,8.821,10.378q5.908.53,11.887-4.434a51.673,51.673,0,0,0,9.929-11.416c.307-.472.613-.943.92-1.439.613-.967,1.156-1.934,1.675-2.854a40.651,40.651,0,0,0,4.458-10.92Q3687.034,990.174,3685.867,985Z" transform="translate(-68.491)" fill="#ffcb66"/>
      <path id="Path_87" data-name="Path 87" d="M3756.185,1078.409a13.436,13.436,0,0,0-5.778-4.576,35.5,35.5,0,0,0-8.444-2.406,71.172,71.172,0,0,0-10.188-.9c-3.632-.071-7.312-.071-11.039.047-1.7.047-3.467.117-5.33.212-.708.024-1.462.071-2.217.118q-1.274.071-2.618.142a102.929,102.929,0,0,0-11.486,1.344,84.426,84.426,0,0,0-11.558,2.76c-.235.047-.448.118-.684.189-1.864.59-3.727,1.25-5.59,2.028q.283,1.061.566,2.052l.354,1.132a41.985,41.985,0,0,1,6.439-2.17c.307-.071.637-.165.967-.236a118.346,118.346,0,0,1,13.822-2.335c2.405-.259,4.693-.448,6.887-.613.873-.047,1.7-.094,2.523-.118q1.7-.106,3.326-.141c3.868-.071,6.722-.165,8.538-.26.708-.024,1.3-.047,1.769-.047.448,0,.9-.024,1.321-.024s.9-.024,1.438-.047c.519-.023,1.2-.047,2.029-.118,3.137.283,5.66.613,7.595.99a30.776,30.776,0,0,1,5.543,1.675,5.664,5.664,0,0,1,3.372,2.783c-1.792,1.108-4.788,2.712-8.986,4.835s-8.845,4.481-13.939,7.052c-5.095,2.595-10.26,5.236-15.5,7.972q-6.651,3.467-11.816,6.51c-.614.354-1.227.708-1.817,1.062q-.53.318-.99.637c-5.826,3.8-8.4,7.524-7.76,11.2q1.026,5.838,7.359,10.33a50.061,50.061,0,0,0,13.609,6.628c.542.212,1.085.378,1.627.543,1.108.33,2.17.613,3.184.873a40.172,40.172,0,0,0,11.7,1.462q8.986-.212,13.68-2.689c3.137-1.627,5.236-3.585,6.3-5.849a9.875,9.875,0,0,0,.519-7.076,15.948,15.948,0,0,0-3.538-6.439,23.2,23.2,0,0,0-2.146-2.288c-.849-.8-1.721-1.533-2.571-2.217a8.141,8.141,0,0,0-.731-.543,20.454,20.454,0,0,0-2.264-1.581,24.976,24.976,0,0,0-4.458-2.146,18.143,18.143,0,0,0-4.552-1.062,11.741,11.741,0,0,0-4.293.354,9.284,9.284,0,0,0-3.726,2.075,5.156,5.156,0,0,0-1.132,5.519c.071.047.118.094.118.142a.2.2,0,0,0,.071.141,4.313,4.313,0,0,0,2.122,2.264,2.9,2.9,0,0,0,2.9,0,4.527,4.527,0,0,0,1.887-1.627,3.387,3.387,0,0,0,.519-1.816,3.9,3.9,0,0,0-.377-1.722,4.608,4.608,0,0,0-.943-1.321,10.828,10.828,0,0,1,5.731-1.226,11.008,11.008,0,0,1,5.944,2.382,8.38,8.38,0,0,0,1.132.661,3.782,3.782,0,0,1,1.179.99,13.472,13.472,0,0,1,3.09,5.637,13.885,13.885,0,0,1,.307,6.439,12.377,12.377,0,0,1-2.712,5.825,11.62,11.62,0,0,1-5.991,3.8,21.477,21.477,0,0,1-7.854,1.344,37.852,37.852,0,0,1-8.514-1.038c-.685-.165-1.392-.33-2.076-.519a46.73,46.73,0,0,1-4.93-1.674c-.471-.189-.966-.378-1.438-.59a52.44,52.44,0,0,1-7.524-4.009,13.032,13.032,0,0,1-1.769-1.462,20.01,20.01,0,0,1-2.217-2.571,14.3,14.3,0,0,1-1.651-2.971,3.012,3.012,0,0,1-.07-2.618c.99-1.769,3-3.75,6.014-5.873.849-.637,1.816-1.25,2.854-1.91,1.368-.849,2.9-1.745,4.576-2.665q10.967-5.979,22.784-11.911t20.59-11.015Q3758.025,1081.051,3756.185,1078.409Z" transform="translate(-103.407 -60.958)" fill="#ffcb66"/>
      <path id="Path_88" data-name="Path 88" d="M3682.962,1201.569a70.183,70.183,0,0,0-1.769-10.071c-.872-3.538-1.84-7.1-2.9-10.661-.5-1.627-1.014-3.325-1.581-5.094-.236-.684-.471-1.392-.684-2.123-.283-.8-.543-1.627-.826-2.476a102.829,102.829,0,0,0-4.269-10.755,92.657,92.657,0,0,0-5.637-10.448c-.118-.212-.259-.4-.377-.613a58.769,58.769,0,0,0-3.42-4.859c-.613.354-1.227.708-1.817,1.062q-.53.318-.99.637a42.367,42.367,0,0,1,3.75,5.684c.142.283.307.566.472.872a114.134,114.134,0,0,1,5.825,12.736c.873,2.241,1.651,4.411,2.358,6.486.284.8.543,1.6.8,2.382.33,1.085.661,2.146.967,3.184,1.085,3.726,1.91,6.463,2.477,8.184.212.684.4,1.25.519,1.7s.236.873.354,1.274c.094.4.236.872.4,1.368.165.519.377,1.156.661,1.958a68.729,68.729,0,0,1,.991,7.571,31.748,31.748,0,0,1-.165,5.8,5.621,5.621,0,0,1-1.84,3.962q-2.264-2.158-6.981-7.43c-3.137-3.491-6.6-7.383-10.425-11.628s-7.712-8.562-11.722-12.9q-2.725-3.008-5.236-5.59l-2.477-2.547c-1.061-1.085-2.1-2.123-3.114-3.089q-8.314-7.89-13.7-5.378t-8.066,9.788a52.3,52.3,0,0,0-2.972,16.557,45.714,45.714,0,0,0,1.416,14.435c.047.188.117.377.165.542.4,1.344.8,2.594,1.25,3.774a26.531,26.531,0,0,0,4.882,8.75c2.406,2.618,4.835,4.127,7.288,4.576a9.934,9.934,0,0,0,6.958-1.321,16.048,16.048,0,0,0,5.331-5.118,22.662,22.662,0,0,0,1.627-2.642,33.181,33.181,0,0,0,1.486-3.066c.118-.259.236-.542.354-.826a17.61,17.61,0,0,0,.919-2.618,26.358,26.358,0,0,0,.943-4.859,19.088,19.088,0,0,0-.165-4.67,12.263,12.263,0,0,0-1.462-4.057,9.156,9.156,0,0,0-2.972-3.042,5.139,5.139,0,0,0-2.877-.684,5.264,5.264,0,0,0-2.737,1.014.241.241,0,0,1-.117.142.406.406,0,0,0-.118.094,4.376,4.376,0,0,0-1.627,2.641,2.881,2.881,0,0,0,.754,2.807,4.421,4.421,0,0,0,2.052,1.391,3.435,3.435,0,0,0,1.887.047,3.817,3.817,0,0,0,1.557-.825,4.5,4.5,0,0,0,1.038-1.227,10.854,10.854,0,0,1,2.665,5.189,11.133,11.133,0,0,1-.754,6.368,8.213,8.213,0,0,0-.354,1.273,3.548,3.548,0,0,1-.66,1.392,13.438,13.438,0,0,1-4.623,4.434,13.922,13.922,0,0,1-6.156,1.981,12.852,12.852,0,0,1-6.321-1.109,11.835,11.835,0,0,1-5.236-4.811,20.1,20.1,0,0,1-1.745-3.019,22.139,22.139,0,0,1-1.557-4.246v-.024a38.181,38.181,0,0,1-1.226-8.444,49.056,49.056,0,0,1,.519-8.892,50.969,50.969,0,0,1,1.934-8.3,11.821,11.821,0,0,1,.944-2.076,18.521,18.521,0,0,1,1.91-2.806,14.587,14.587,0,0,1,2.453-2.382,2.972,2.972,0,0,1,2.5-.731q4.529,1.132,12.124,8.773c.448.472.943.99,1.438,1.51l1.227,1.3c5.354,5.613,10.755,11.51,16.18,17.619,5.873,6.6,11.179,12.264,15.967,17.053q7.182,7.146,9.293,4.67a13.308,13.308,0,0,0,2.9-6.746A35.974,35.974,0,0,0,3682.962,1201.569Z" transform="translate(-67.402 -99.161)" fill="#ffcb66"/>
    </g>
  </g>
</svg>
