<svg xmlns="http://www.w3.org/2000/svg" xmlns:xlink="http://www.w3.org/1999/xlink" width="436" height="415" viewBox="0 0 436 415">
  <defs>
    <filter id="Ellipse_266" x="21" y="0" width="415" height="415" filterUnits="userSpaceOnUse">
      <feOffset dy="3" input="SourceAlpha"/>
      <feGaussianBlur stdDeviation="3" result="blur"/>
      <feFlood flood-color="#737373" flood-opacity="0.161"/>
      <feComposite operator="in" in2="blur"/>
      <feComposite in="SourceGraphic"/>
    </filter>
  </defs>
  <g id="Vivid" transform="translate(-149 -267)">
    <g id="Ellipse_267" data-name="Ellipse 267" transform="translate(149 273)" fill="none" stroke="#29abe2" stroke-width="1" stroke-dasharray="10">
      <circle cx="203.5" cy="203.5" r="203.5" stroke="none"/>
      <circle cx="203.5" cy="203.5" r="203" fill="none"/>
    </g>
    <g transform="matrix(1, 0, 0, 1, 149, 267)" filter="url(#Ellipse_266)">
      <circle id="Ellipse_266-2" data-name="Ellipse 266" cx="198.5" cy="198.5" r="198.5" transform="translate(30 6)" fill="#fcfcfc"/>
    </g>
    <g id="Group_68" data-name="Group 68" transform="translate(263.572 382.834)">
      <g id="Group_29" data-name="Group 29" transform="translate(69.763 0)">
        <path id="Path_89" data-name="Path 89" d="M1390.357,374.677c-.182.34-.389.681-.6,1.021-.413.656-.826,1.288-1.264,1.92-.924,1.374-1.9,2.7-2.929,3.962q-2.242,2.789-4.314,4.959c-1.386,1.446-2.394,2.516-3.014,3.209-.243.267-.45.5-.62.656l-.025.024v.012c-.17.158-.316.316-.462.462-.121.122-.255.255-.4.425a.778.778,0,0,1-.1.11c-.194.195-.425.462-.705.79a36.475,36.475,0,0,1-3.124,2.394,17.284,17.284,0,0,1-2.625,1.422,2.907,2.907,0,0,1-2.249.207c.255-1.045.753-2.723,1.507-5.032s1.592-4.85,2.516-7.657,1.823-5.639,2.735-8.544q1.167-3.683,1.945-6.672c.1-.365.182-.717.268-1.057.048-.195.1-.389.134-.584.753-3.5.328-5.809-1.252-6.915a8.427,8.427,0,0,0-6.454-1.082,26.06,26.06,0,0,0-7.365,2.54c-.256.122-.522.255-.79.4-.51.28-1.009.547-1.471.839a20.54,20.54,0,0,0-4.813,3.719,16.809,16.809,0,0,0-4,5.98,6.865,6.865,0,0,0-.17,4.412,5.122,5.122,0,0,0,2.395,2.783,8.418,8.418,0,0,0,3.646,1.058,13.214,13.214,0,0,0,1.6.048c.6-.024,1.191-.061,1.75-.134.146-.012.3-.036.462-.06a12.35,12.35,0,0,0,1.4-.255,13.419,13.419,0,0,0,2.407-.839,9.067,9.067,0,0,0,2.041-1.276,6.1,6.1,0,0,0,1.434-1.7,4.586,4.586,0,0,0,.6-2.1,2.721,2.721,0,0,0-.437-1.471,2.563,2.563,0,0,0-1.155-.948.228.228,0,0,1-.1-.012c-.012-.024-.037-.024-.061-.036a2.342,2.342,0,0,0-1.6-.049,1.559,1.559,0,0,0-1.07,1.057,2.413,2.413,0,0,0-.085,1.289,1.767,1.767,0,0,0,.474.851,1.935,1.935,0,0,0,.766.474,2.3,2.3,0,0,0,.814.158,5.557,5.557,0,0,1-1.629,2.516,5.67,5.67,0,0,1-3.038,1.313,3.75,3.75,0,0,0-.656.17,1.854,1.854,0,0,1-.79.061,6.837,6.837,0,0,1-3.184-.924,7.359,7.359,0,0,1-2.454-2.236,6.609,6.609,0,0,1-1.143-3.112,6.085,6.085,0,0,1,.8-3.561,11.619,11.619,0,0,1,2.382-3.355,20.426,20.426,0,0,1,3.477-2.735c.316-.194.62-.377.948-.559a23.1,23.1,0,0,1,2.394-1.179c.243-.11.5-.219.754-.316a27.46,27.46,0,0,1,4.205-1.276,5.449,5.449,0,0,1,1.167-.11,9.736,9.736,0,0,1,1.75.122,8.031,8.031,0,0,1,1.689.486,1.531,1.531,0,0,1,.972.924,10.324,10.324,0,0,1-.036,4.339c-.1.535-.207,1.118-.353,1.726-.182.815-.413,1.689-.693,2.638q-1.824,6.18-3.974,12.652-2.133,6.472-3.488,11.51-1.331,5.05.3,5.348a6.964,6.964,0,0,0,3.768-.437,19.034,19.034,0,0,0,3.95-2.2,36.463,36.463,0,0,0,4.035-3.379c.1-.1.207-.194.3-.3.316-.292.632-.6.936-.924.936-.912,1.847-1.848,2.771-2.82,1.094-1.167,2.273-2.468,3.536-3.877a57.741,57.741,0,0,0,3.7-4.667c.51-.7,1-1.434,1.471-2.2.608-.972,1.2-2.006,1.762-3.075Z" transform="translate(-1343.451 -314.057)" fill="#ffc666"/>
        <path id="Path_90" data-name="Path 90" d="M1374.454,298.132a25.608,25.608,0,0,0-4.351-6.466c-.195-.219-.389-.437-.6-.656-.4-.425-.8-.839-1.191-1.216a20.548,20.548,0,0,0-4.838-3.67,16.589,16.589,0,0,0-6.806-2.321,6.972,6.972,0,0,0-4.314.984,5.1,5.1,0,0,0-2.054,3.026,8.177,8.177,0,0,0-.085,3.792,12.879,12.879,0,0,0,.365,1.568c.183.583.364,1.13.583,1.665.048.134.11.267.17.425.219.511.426.936.62,1.289a12.581,12.581,0,0,0,1.434,2.1,8.91,8.91,0,0,0,1.763,1.641,6.052,6.052,0,0,0,2.005.948,4.744,4.744,0,0,0,2.188.036,2.629,2.629,0,0,0,1.933-2.176.079.079,0,0,1-.013-.085.1.1,0,0,0,0-.085,2.253,2.253,0,0,0-.364-1.556,1.515,1.515,0,0,0-1.3-.754,2.406,2.406,0,0,0-1.252.243,1.818,1.818,0,0,0-.705.681,2,2,0,0,0-.267.863,2.272,2.272,0,0,0,.073.827,5.571,5.571,0,0,1-2.868-.924,5.676,5.676,0,0,1-2.042-2.6,4.849,4.849,0,0,0-.328-.584,1.675,1.675,0,0,1-.267-.741,6.817,6.817,0,0,1,.061-3.318,7.443,7.443,0,0,1,1.519-2.954,6.579,6.579,0,0,1,2.723-1.9,6.027,6.027,0,0,1,3.646-.158,11.515,11.515,0,0,1,3.852,1.434,19.745,19.745,0,0,1,3.538,2.649c.267.255.534.511.79.766a23.546,23.546,0,0,1,1.762,2.03c.17.207.328.413.486.632a26.05,26.05,0,0,1,2.334,3.732,5.823,5.823,0,0,1,.413,1.094,9.649,9.649,0,0,1,.328,1.726,7.747,7.747,0,0,1-.024,1.762,1.6,1.6,0,0,1-.645,1.179,10.4,10.4,0,0,1-4.205,1.07c-.547.061-1.13.085-1.762.11-.839.036-1.75.036-2.723.012q-6.453-.146-13.247-.547t-12.021-.389c-3.488,0-5.178.559-5.092,1.665a6.962,6.962,0,0,0,1.41,3.525,18.6,18.6,0,0,0,3.136,3.245,35.869,35.869,0,0,0,4.314,3.026q2.406,1.459,4.935,2.832c.778.413,1.592.839,2.455,1.276.328.17.668.34,1.009.522.389.195.79.4,1.2.608a53.985,53.985,0,0,0,5.469,2.358,45.98,45.98,0,0,0,5.87,1.75,3.049,3.049,0,0,0,.353.085c.984.219,1.993.4,3.027.535.1-.365.182-.717.267-1.057.049-.195.1-.389.134-.584a22.337,22.337,0,0,1-3.427-.7c-.17-.048-.329-.1-.5-.146a62.344,62.344,0,0,1-6.77-2.516c-1.131-.51-2.212-1.009-3.234-1.507-.388-.195-.765-.389-1.142-.584-.522-.267-1.033-.535-1.519-.8-1.762-.96-3.05-1.653-3.889-2.091-.328-.158-.6-.3-.8-.425s-.4-.231-.583-.328-.413-.231-.656-.352-.559-.292-.948-.474a39.155,39.155,0,0,1-3.123-2.395,16.473,16.473,0,0,1-2.054-2.176,2.894,2.894,0,0,1-.778-2.115c1.082-.024,2.832.024,5.25.158s5.1.28,8.046.437,5.919.316,8.97.438c2.576.109,4.885.17,6.94.158.376,0,.741,0,1.094-.012.219,0,.425-.012.62-.024,3.562-.194,5.664-1.2,6.332-3.014A8.4,8.4,0,0,0,1374.454,298.132Z" transform="translate(-1333.674 -270.462)" fill="#ffc666"/>
        <path id="Path_91" data-name="Path 91" d="M1450.241,268.574a6.817,6.817,0,0,0-2.066-3.914,5.035,5.035,0,0,0-3.451-1.2,8.013,8.013,0,0,0-3.683.912,11.042,11.042,0,0,0-1.422.753c-.51.316-1,.644-1.446.984-.121.085-.243.183-.377.28a11.818,11.818,0,0,0-1.081.936,12.509,12.509,0,0,0-1.665,1.92,9.482,9.482,0,0,0-1.131,2.127,6.047,6.047,0,0,0-.389,2.188,4.6,4.6,0,0,0,.535,2.127,2.673,2.673,0,0,0,1.106,1.045,2.761,2.761,0,0,0,1.483.255c.036-.024.061-.049.085-.036a.234.234,0,0,0,.085-.012,2.282,2.282,0,0,0,1.4-.753,1.569,1.569,0,0,0,.4-1.458,2.4,2.4,0,0,0-.571-1.155,1.749,1.749,0,0,0-.826-.5,2.254,2.254,0,0,0-.9-.037,2.426,2.426,0,0,0-.79.292,5.634,5.634,0,0,1,.158-3.014,5.818,5.818,0,0,1,1.969-2.65,4.266,4.266,0,0,0,.486-.462,1.807,1.807,0,0,1,.656-.462,7.032,7.032,0,0,1,3.209-.79,7.358,7.358,0,0,1,3.246.7,6.581,6.581,0,0,1,2.54,2.127,6.049,6.049,0,0,1,1.094,3.5,11.273,11.273,0,0,1-.39,4.084,19.557,19.557,0,0,1-1.64,4.108c-.17.316-.353.644-.535.96a26.2,26.2,0,0,1-1.495,2.212c-.146.219-.316.438-.486.644a26.446,26.446,0,0,1-3,3.209,5.173,5.173,0,0,1-.961.693,8.633,8.633,0,0,1-1.58.754,7.459,7.459,0,0,1-1.7.437,1.586,1.586,0,0,1-1.313-.316,10.463,10.463,0,0,1-2.126-3.78c-.195-.511-.376-1.057-.559-1.665-.256-.8-.487-1.677-.717-2.638q-1.513-6.272-2.893-12.932c-.912-4.448-1.823-8.362-2.735-11.716s-1.884-4.862-2.929-4.485a6.925,6.925,0,0,0-3.038,2.261,18.118,18.118,0,0,0-2.321,3.889,34.382,34.382,0,0,0-1.811,4.947c-.522,1.8-1.008,3.634-1.459,5.494-.195.851-.389,1.75-.595,2.686-.073.365-.159.742-.244,1.118-.085.438-.17.875-.268,1.325a53.324,53.324,0,0,0-.875,5.895,48.029,48.029,0,0,0-.17,6.114c0,.122,0,.255.012.377a29.476,29.476,0,0,0,.267,3.063c.377,0,.741,0,1.094-.012.219,0,.425-.012.62-.025a21.5,21.5,0,0,1-.231-3.513c0-.17,0-.34.012-.51a60.933,60.933,0,0,1,.681-7.183q.291-1.841.62-3.5c.086-.437.171-.863.267-1.276.122-.571.243-1.13.377-1.677.474-1.945.814-3.367,1.008-4.29.073-.353.146-.644.207-.875s.122-.45.171-.668.11-.45.17-.717.134-.619.207-1.033a35.429,35.429,0,0,1,1.519-3.634,16.8,16.8,0,0,1,1.556-2.552,2.917,2.917,0,0,1,1.847-1.3c.3,1.033.7,2.735,1.2,5.117s1.045,5,1.653,7.876,1.24,5.81,1.909,8.775q.838,3.774,1.653,6.745.146.547.292,1.057.091.292.182.584c1.106,3.4,2.625,5.178,4.545,5.348a8.394,8.394,0,0,0,6.126-2.285,26.647,26.647,0,0,0,5.117-5.883c.158-.243.315-.486.474-.741.316-.5.6-1,.862-1.471a20.943,20.943,0,0,0,2.3-5.628A16.521,16.521,0,0,0,1450.241,268.574Z" transform="translate(-1379.964 -251.793)" fill="#ffc666"/>
        <path id="Path_92" data-name="Path 92" d="M1492.083,326.5a6.927,6.927,0,0,0-2.978-2.358,18.3,18.3,0,0,0-4.351-1.24,36.687,36.687,0,0,0-5.25-.462c-1.872-.037-3.768-.037-5.688.024-.876.025-1.787.061-2.748.11-.364.012-.753.036-1.142.061l-1.349.073a52.952,52.952,0,0,0-5.919.693,43.408,43.408,0,0,0-5.955,1.422c-.121.024-.23.061-.352.1-.961.3-1.921.644-2.881,1.045q.145.547.291,1.057l.183.584a21.59,21.59,0,0,1,3.318-1.118c.157-.037.329-.085.5-.122a60.9,60.9,0,0,1,7.122-1.2c1.24-.134,2.418-.231,3.55-.316.449-.024.874-.049,1.3-.061q.875-.054,1.714-.073c1.993-.036,3.464-.085,4.4-.134.365-.012.668-.024.911-.024s.461-.012.68-.012.462-.012.742-.025.62-.024,1.045-.06c1.617.146,2.916.316,3.914.51a15.871,15.871,0,0,1,2.856.863,2.915,2.915,0,0,1,1.737,1.434q-1.385.857-4.63,2.491t-7.183,3.634c-2.626,1.337-5.287,2.7-7.985,4.108q-3.428,1.787-6.089,3.355c-.316.182-.632.365-.936.547q-.274.164-.51.328c-3,1.957-4.327,3.877-4,5.773a8.406,8.406,0,0,0,3.792,5.324,25.808,25.808,0,0,0,7.013,3.415c.28.109.559.195.839.28.571.17,1.118.316,1.64.449a20.707,20.707,0,0,0,6.029.754,16.336,16.336,0,0,0,7.049-1.386,6.878,6.878,0,0,0,3.246-3.014,5.091,5.091,0,0,0,.267-3.646,8.216,8.216,0,0,0-1.823-3.318,11.955,11.955,0,0,0-1.106-1.179c-.438-.413-.887-.79-1.325-1.143a4.4,4.4,0,0,0-.378-.279,10.438,10.438,0,0,0-1.167-.814,12.879,12.879,0,0,0-2.3-1.106,9.36,9.36,0,0,0-2.346-.547,6.052,6.052,0,0,0-2.212.182,4.788,4.788,0,0,0-1.92,1.07,2.658,2.658,0,0,0-.583,2.844c.037.024.061.048.061.073a.1.1,0,0,0,.036.073,2.221,2.221,0,0,0,1.094,1.166,1.494,1.494,0,0,0,1.5,0,2.331,2.331,0,0,0,.972-.839,1.749,1.749,0,0,0,.267-.936,2.014,2.014,0,0,0-.195-.887,2.362,2.362,0,0,0-.486-.68,5.581,5.581,0,0,1,2.954-.632,5.669,5.669,0,0,1,3.063,1.227,4.391,4.391,0,0,0,.583.34,1.95,1.95,0,0,1,.608.51,6.941,6.941,0,0,1,1.593,2.905,7.157,7.157,0,0,1,.158,3.318,6.37,6.37,0,0,1-1.4,3,5.988,5.988,0,0,1-3.088,1.957,11.067,11.067,0,0,1-4.048.693,19.5,19.5,0,0,1-4.387-.535c-.352-.085-.718-.17-1.07-.267a24.022,24.022,0,0,1-2.54-.863c-.243-.1-.5-.195-.742-.3a27.107,27.107,0,0,1-3.877-2.066,6.662,6.662,0,0,1-.912-.753,10.324,10.324,0,0,1-1.142-1.325,7.367,7.367,0,0,1-.851-1.531,1.546,1.546,0,0,1-.037-1.349,10.3,10.3,0,0,1,3.1-3.027c.438-.328.937-.644,1.471-.985.705-.437,1.495-.9,2.358-1.373q5.652-3.081,11.741-6.138t10.61-5.676Q1493.03,327.858,1492.083,326.5Z" transform="translate(-1403.561 -292.991)" fill="#ffc666"/>
        <path id="Path_93" data-name="Path 93" d="M1448.57,396.095a36.211,36.211,0,0,0-.912-5.19c-.45-1.823-.948-3.658-1.495-5.493-.255-.839-.523-1.714-.814-2.626-.121-.353-.243-.717-.352-1.094-.146-.413-.28-.839-.426-1.277a53.065,53.065,0,0,0-2.2-5.542,47.755,47.755,0,0,0-2.905-5.384c-.06-.109-.133-.207-.194-.316a30.144,30.144,0,0,0-1.762-2.5c-.316.182-.632.365-.936.547q-.274.164-.51.328a21.811,21.811,0,0,1,1.932,2.929c.073.146.159.292.244.45a58.829,58.829,0,0,1,3,6.563c.45,1.155.851,2.273,1.215,3.342.146.413.28.827.414,1.228.17.559.341,1.106.5,1.641.559,1.921.984,3.33,1.276,4.217.11.353.207.645.268.875s.122.449.182.656.121.45.207.7.194.6.34,1.009a35.3,35.3,0,0,1,.511,3.9,16.418,16.418,0,0,1-.085,2.99,2.9,2.9,0,0,1-.948,2.042q-1.168-1.112-3.6-3.829c-1.616-1.8-3.4-3.8-5.372-5.992s-3.975-4.412-6.041-6.648q-1.4-1.55-2.7-2.88l-1.276-1.313c-.547-.559-1.081-1.094-1.6-1.592q-4.285-4.066-7.062-2.771a8.392,8.392,0,0,0-4.157,5.044,26.937,26.937,0,0,0-1.531,8.532,23.555,23.555,0,0,0,.729,7.438c.025.1.061.194.086.279.206.693.413,1.337.644,1.945a13.668,13.668,0,0,0,2.516,4.509,6.944,6.944,0,0,0,3.755,2.358,5.12,5.12,0,0,0,3.585-.681,8.272,8.272,0,0,0,2.747-2.637,11.728,11.728,0,0,0,.839-1.362,16.94,16.94,0,0,0,.766-1.58c.061-.134.121-.28.182-.425a9.187,9.187,0,0,0,.474-1.349,13.63,13.63,0,0,0,.486-2.5,9.863,9.863,0,0,0-.085-2.407,6.336,6.336,0,0,0-.754-2.091,4.715,4.715,0,0,0-1.532-1.568,2.647,2.647,0,0,0-1.483-.352,2.71,2.71,0,0,0-1.41.522.126.126,0,0,1-.061.073.208.208,0,0,0-.061.049,2.257,2.257,0,0,0-.839,1.361,1.484,1.484,0,0,0,.389,1.446,2.279,2.279,0,0,0,1.057.717,1.773,1.773,0,0,0,.972.025,1.966,1.966,0,0,0,.8-.425,2.317,2.317,0,0,0,.535-.632,5.589,5.589,0,0,1,1.373,2.674,5.738,5.738,0,0,1-.389,3.282,4.276,4.276,0,0,0-.183.656,1.828,1.828,0,0,1-.34.717,6.926,6.926,0,0,1-2.382,2.285,7.184,7.184,0,0,1-3.172,1.021,6.629,6.629,0,0,1-3.258-.572,6.1,6.1,0,0,1-2.7-2.479,10.368,10.368,0,0,1-.9-1.556,11.4,11.4,0,0,1-.8-2.188v-.012a19.7,19.7,0,0,1-.632-4.351,25.253,25.253,0,0,1,.267-4.582,26.271,26.271,0,0,1,1-4.279,6.041,6.041,0,0,1,.486-1.069,9.509,9.509,0,0,1,.984-1.446,7.485,7.485,0,0,1,1.264-1.228,1.53,1.53,0,0,1,1.288-.377q2.333.583,6.247,4.521c.231.243.486.511.742.778l.632.669c2.759,2.892,5.542,5.931,8.338,9.079,3.027,3.4,5.761,6.32,8.229,8.787s4.059,3.257,4.789,2.407a6.858,6.858,0,0,0,1.495-3.476A18.555,18.555,0,0,0,1448.57,396.095Z" transform="translate(-1379.228 -318.811)" fill="#ffc666"/>
      </g>
      <path id="Path_154" data-name="Path 154" d="M.781,2.716v-9.2H2.466v9.2ZM9.458-2.207Q10.448-.8,11.067.3h.041q-.083-1.795-.083-2.613V-6.483H12.71v9.2H10.943l-3-4.235q-.791-1.1-1.636-2.551H6.268q.083,1.691.083,2.62V2.716H4.666v-9.2H6.433Zm9.213,4.923H16.987v-7.79h-2.97V-6.483h7.618v1.409H18.671Zm5.954-1.409H29.15V2.716H22.941v-9.2H28.9v1.409H24.626v2.379H28.3v1.409H24.626ZM37.744-3.719a2.542,2.542,0,0,1-.533,1.633,3.15,3.15,0,0,1-1.647.994v.028L38.3,2.716H36.28l-2.5-3.562H32.622V2.716H30.937v-9.2h2.8a9.887,9.887,0,0,1,1.293.079,4.765,4.765,0,0,1,1.024.237,2.667,2.667,0,0,1,1.251.918A2.544,2.544,0,0,1,37.744-3.719Zm-4.29,1.464a7.874,7.874,0,0,0,.98-.052,3.06,3.06,0,0,0,.677-.155,1.315,1.315,0,0,0,.7-.526,1.485,1.485,0,0,0,.2-.767,1.356,1.356,0,0,0-.155-.657,1.057,1.057,0,0,0-.526-.45,2.214,2.214,0,0,0-.605-.162,6.588,6.588,0,0,0-.9-.052h-1.2v2.819Zm6.326,4.971v-9.2h1.685v9.2Zm10.7-4.6a4.719,4.719,0,0,0-.206-1.468A3,3,0,0,0,49.7-4.4a2.286,2.286,0,0,0-.866-.626,2.867,2.867,0,0,0-1.1-.206,2.867,2.867,0,0,0-1.1.206,2.286,2.286,0,0,0-.866.626A3,3,0,0,0,45.2-3.352a4.719,4.719,0,0,0-.206,1.468A4.719,4.719,0,0,0,45.2-.416,2.966,2.966,0,0,0,45.768.629a2.336,2.336,0,0,0,.866.626,2.826,2.826,0,0,0,1.1.21,2.826,2.826,0,0,0,1.1-.21A2.336,2.336,0,0,0,49.7.629a2.966,2.966,0,0,0,.571-1.045A4.719,4.719,0,0,0,50.478-1.884Zm1.74,0a5.941,5.941,0,0,1-.3,1.929,4.262,4.262,0,0,1-.873,1.509,3.926,3.926,0,0,1-1.409.983,4.873,4.873,0,0,1-1.9.351,4.873,4.873,0,0,1-1.9-.351,3.926,3.926,0,0,1-1.409-.983A4.262,4.262,0,0,1,43.551.045a5.941,5.941,0,0,1-.3-1.929,5.941,5.941,0,0,1,.3-1.929,4.262,4.262,0,0,1,.873-1.509A3.926,3.926,0,0,1,45.833-6.3a4.873,4.873,0,0,1,1.9-.351,4.873,4.873,0,0,1,1.9.351,3.926,3.926,0,0,1,1.409.983,4.262,4.262,0,0,1,.873,1.509A5.941,5.941,0,0,1,52.217-1.884Zm8.594-1.836a2.542,2.542,0,0,1-.533,1.633,3.15,3.15,0,0,1-1.647.994v.028l2.736,3.782H59.347l-2.5-3.562H55.69V2.716H54.005v-9.2h2.8A9.887,9.887,0,0,1,58.1-6.4a4.765,4.765,0,0,1,1.024.237,2.667,2.667,0,0,1,1.251.918A2.543,2.543,0,0,1,60.812-3.719Zm-4.29,1.464a7.875,7.875,0,0,0,.98-.052,3.06,3.06,0,0,0,.677-.155,1.315,1.315,0,0,0,.7-.526,1.485,1.485,0,0,0,.2-.767,1.356,1.356,0,0,0-.155-.657,1.057,1.057,0,0,0-.526-.45,2.214,2.214,0,0,0-.605-.162,6.588,6.588,0,0,0-.9-.052h-1.2v2.819Zm9.227,4.971v-9.2h2.434q.323,0,.657.021t.65.062q.316.041.612.1a4.449,4.449,0,0,1,.543.141,4.7,4.7,0,0,1,1.3.633,3.886,3.886,0,0,1,.945.942,4.09,4.09,0,0,1,.578,1.214,5.164,5.164,0,0,1,.2,1.454A5.641,5.641,0,0,1,73.5-.526,4.12,4.12,0,0,1,73,.66a3.775,3.775,0,0,1-.849.945,4.375,4.375,0,0,1-1.214.67,6.456,6.456,0,0,1-1.327.33,11.476,11.476,0,0,1-1.671.11Zm2.379-1.409A5.367,5.367,0,0,0,70.438.9,2.493,2.493,0,0,0,71.551-.158a3.687,3.687,0,0,0,.378-1.774,3.868,3.868,0,0,0-.124-1.018,2.784,2.784,0,0,0-.358-.808,2.473,2.473,0,0,0-.567-.608,3.111,3.111,0,0,0-.753-.419,3.988,3.988,0,0,0-.873-.22,7.681,7.681,0,0,0-1.079-.069h-.743V1.307Zm9.007,0h4.524V2.716H75.45v-9.2h5.961v1.409H77.134v2.379h3.672v1.409H77.134ZM87.97.076A.885.885,0,0,0,87.8-.491a1.264,1.264,0,0,0-.468-.354,3.412,3.412,0,0,0-.663-.223q-.368-.086-.773-.168a10.115,10.115,0,0,1-1.024-.278,2.885,2.885,0,0,1-.859-.447,2.064,2.064,0,0,1-.591-.725,2.449,2.449,0,0,1-.22-1.1,2.948,2.948,0,0,1,.254-1.269,2.508,2.508,0,0,1,.691-.894,2.94,2.94,0,0,1,1.024-.529,4.627,4.627,0,0,1,1.324-.175,7.729,7.729,0,0,1,1.478.144,6.473,6.473,0,0,1,1.279.371V-4.7A7.794,7.794,0,0,0,87.877-5.1a6.505,6.505,0,0,0-1.234-.127,2.291,2.291,0,0,0-1.282.3,1.02,1.02,0,0,0-.45.908,1.039,1.039,0,0,0,.148.578,1.174,1.174,0,0,0,.4.375,2.415,2.415,0,0,0,.584.237q.33.089.7.165.584.124,1.117.285a3.31,3.31,0,0,1,.945.45,2.06,2.06,0,0,1,.653.753A2.569,2.569,0,0,1,89.7.007a2.814,2.814,0,0,1-.275,1.286,2.411,2.411,0,0,1-.78.9,3.55,3.55,0,0,1-1.227.526,6.825,6.825,0,0,1-1.581.172,7.367,7.367,0,0,1-1.475-.148,4.215,4.215,0,0,1-1.207-.416V.9a6.809,6.809,0,0,0,1.327.43,6.55,6.55,0,0,0,1.334.134A4.678,4.678,0,0,0,86.6,1.4a2.352,2.352,0,0,0,.691-.223,1.315,1.315,0,0,0,.492-.43A1.16,1.16,0,0,0,87.97.076Zm3.6,2.64v-9.2h1.685v9.2ZM101.178-.8H99.116V-2.207h3.747V2.434q-.206.076-.526.158t-.715.148q-.4.065-.815.107t-.832.041a6.37,6.37,0,0,1-2.162-.333,4.184,4.184,0,0,1-1.54-.939,3.847,3.847,0,0,1-.921-1.44,5.333,5.333,0,0,1-.306-1.846,5.637,5.637,0,0,1,.162-1.365,4.773,4.773,0,0,1,.474-1.2,4.629,4.629,0,0,1,.76-1A4.516,4.516,0,0,1,97.462-6a5.142,5.142,0,0,1,1.258-.485,6.126,6.126,0,0,1,1.468-.168,8.387,8.387,0,0,1,1.32.1,5.728,5.728,0,0,1,1.024.244v1.43a7.519,7.519,0,0,0-1.083-.261,6.827,6.827,0,0,0-1.1-.089,4.3,4.3,0,0,0-1.4.223,3.18,3.18,0,0,0-1.131.66,3.087,3.087,0,0,0-.753,1.076,3.714,3.714,0,0,0-.275,1.478A3.266,3.266,0,0,0,97.637.65a3.319,3.319,0,0,0,2.4.815q.289,0,.6-.031a5.379,5.379,0,0,0,.543-.079Zm8.539-1.409q.99,1.409,1.609,2.5h.041q-.083-1.795-.083-2.613V-6.483h1.685v9.2H111.2l-3-4.235q-.791-1.1-1.636-2.551h-.041q.083,1.691.083,2.62V2.716h-1.685v-9.2h1.767Z" transform="translate(58.56 173.329)" fill="#24222d"/>
      <g id="Group_30" data-name="Group 30" transform="translate(0 69.516)">
        <path id="Path_94" data-name="Path 94" d="M1216.685,535.42a6.669,6.669,0,0,0,.733-.892q.468-.677.813-1.142.459-.619.838-1.1t.8-1q.42-.519,1.019-1.358,1.558-2.117,4.993-6.551t7.07-10.046a111.094,111.094,0,0,0,6.631-11.764,37.194,37.194,0,0,0,3.675-11.664q.32-2.8.359-4.953a15.419,15.419,0,0,0-.4-3.955,11.847,11.847,0,0,0-1.418-3.4,18.625,18.625,0,0,0-2.736-3.355,4.424,4.424,0,0,0-.939-.659q-.5-.26-1.058-.539a5.111,5.111,0,0,1-.44,1.518,3.883,3.883,0,0,1-1.039,1.378,3.446,3.446,0,0,1-1.637.759,4.026,4.026,0,0,1-2.237-.34,3.12,3.12,0,0,1-1.957-2.157,3.7,3.7,0,0,1,.36-2.956c.052-.159.066-.226.039-.2a4.374,4.374,0,0,1,1.938-2.1,5.85,5.85,0,0,1,2.816-.7,10.778,10.778,0,0,1,6.311,1.718,12.421,12.421,0,0,1,4.094,4.633,18.386,18.386,0,0,1,1.9,6.571,26.6,26.6,0,0,1-.279,7.53,66.353,66.353,0,0,1-3.575,12.522,90.479,90.479,0,0,1-5.213,10.945,103,103,0,0,1-5.972,9.407q-3.1,4.314-5.812,7.909-3.277,4.274-6.671,8.288a68.207,68.207,0,0,1-6.85,7.07,34.4,34.4,0,0,1-6.931,4.853,12.915,12.915,0,0,1-6.911,1.558q-3.115-.24-1.6-9.886t4.254-22.09q2.737-12.443,4.914-24.287t.339-16.4a2.946,2.946,0,0,0-2-1.538,13.926,13.926,0,0,0-3.236-.559,17.652,17.652,0,0,0-3.275.1,10.1,10.1,0,0,0-2.157.439,49.584,49.584,0,0,0-7.569,3.2,46.452,46.452,0,0,0-7.211,4.614,37.45,37.45,0,0,0-5.932,5.752,21.147,21.147,0,0,0-3.774,6.691,11.389,11.389,0,0,0-.8,6.791,12.355,12.355,0,0,0,2.716,5.572,13.73,13.73,0,0,0,5.013,3.675,12.962,12.962,0,0,0,6.092,1.1,3.518,3.518,0,0,0,1.458-.28,8.7,8.7,0,0,1,1.179-.44,10.688,10.688,0,0,0,5.393-3.016,10.437,10.437,0,0,0,2.556-5.013,4.543,4.543,0,0,1-1.557-.12,3.847,3.847,0,0,1-1.518-.739,3.367,3.367,0,0,1-1.039-1.5,4.437,4.437,0,0,1-.08-2.4,2.841,2.841,0,0,1,1.777-2.177,4.206,4.206,0,0,1,2.976-.22.247.247,0,0,1,.14.04.208.208,0,0,0,.18,0,4.888,4.888,0,0,1,3.435,4.195,8.734,8.734,0,0,1-.7,4.034,11.479,11.479,0,0,1-2.337,3.435,17.369,17.369,0,0,1-3.555,2.776,23.61,23.61,0,0,1-4.314,2.017,20.214,20.214,0,0,1-2.557.759q-.439.12-.838.2-1.558.36-3.236.579a23.372,23.372,0,0,1-3,.22,15.343,15.343,0,0,1-6.991-1.258,9.521,9.521,0,0,1-4.973-4.694q-1.578-3.236-.56-8.249t6.292-11.883q3.4-4.674,10.785-9.707a50.056,50.056,0,0,1,14.6-7.05q7.211-2.017,12.2.759t3.555,13.721q-.919,6.432-2.616,14.8T1208,519.665q-1.737,8.068-3.176,14.72t-1.838,9.646a5.4,5.4,0,0,0,4.135-.819,30.125,30.125,0,0,0,4.613-3.156Q1213.793,538.358,1216.685,535.42Z" transform="translate(-1166.223 -447.59)" fill="#24222d"/>
        <path id="Path_95" data-name="Path 95" d="M1372.409,529.891q-.661,1.7-2.406,6.535t-3.114,10.074a49.979,49.979,0,0,0-1.631,9.367q-.259,4.129,2.008,4.365a1.707,1.707,0,0,0,1.531-.472,11.8,11.8,0,0,0,1.179-1.321,14.989,14.989,0,0,1,1.038-1.227.956.956,0,0,1,1.159-.236q.519,2.549-2.055,4.577a5.84,5.84,0,0,1-5.285,1.321q-2.713-.707-4.127-5.4t1.322-15.737q1.274-5.1,2.029-8.069a33.6,33.6,0,0,1,1.389-4.482,3.639,3.639,0,0,1,1.369-1.887,4.09,4.09,0,0,1,2.008-.33,4.848,4.848,0,0,1,2.475.755A2.776,2.776,0,0,1,1372.409,529.891Zm2.5-13.826a5.027,5.027,0,0,1,.917,2.524,3.333,3.333,0,0,1-1.154,2.666,4.909,4.909,0,0,1-2.595,1.581,2.907,2.907,0,0,1-2.029-.377,3.641,3.641,0,0,1-1.321-1.51,3.1,3.1,0,0,1-.33-1.864,3.347,3.347,0,0,1,.87-1.888,5.563,5.563,0,0,1,1.819-1.392,4.822,4.822,0,0,1,2.1-.5A2.186,2.186,0,0,1,1374.91,516.065Z" transform="translate(-1279.401 -475.042)" fill="#24222d"/>
        <path id="Path_96" data-name="Path 96" d="M1439.909,539.956q4.2-1.132,2.905,3.562a51,51,0,0,1-4.955,11.136,136.4,136.4,0,0,1-8.1,12.575q-4.436,6.134-6.559,7.88-4.86,3.492-6.3-1.18a34.04,34.04,0,0,1-.97-11.985,81.554,81.554,0,0,1,2.244-14.439q1.769-7.126,3.418-8.446.331-.567,1.51-.59a8.5,8.5,0,0,1,2.454.331,8.185,8.185,0,0,1,2.291,1.015q1.014.66,1.012,1.369,0,.188-2.1,7.031t-3.612,13.354q-1.511,6.512-1.085,9.3t5.427-5.143a38.59,38.59,0,0,0,3.423-6.229q1.675-3.727,3.229-7.527t3-7.078A22.767,22.767,0,0,1,1439.909,539.956Z" transform="translate(-1311.836 -488.552)" fill="#24222d"/>
        <path id="Path_97" data-name="Path 97" d="M1504.739,529.891q-.661,1.7-2.407,6.535t-3.114,10.074a49.887,49.887,0,0,0-1.628,9.367q-.259,4.129,2.005,4.365a1.712,1.712,0,0,0,1.534-.472,11.772,11.772,0,0,0,1.179-1.321,15.086,15.086,0,0,1,1.039-1.227.952.952,0,0,1,1.156-.236q.519,2.549-2.053,4.577a5.84,5.84,0,0,1-5.285,1.321q-2.714-.707-4.13-5.4t1.322-15.737q1.273-5.1,2.029-8.069a33.571,33.571,0,0,1,1.392-4.482,3.64,3.64,0,0,1,1.369-1.887,4.079,4.079,0,0,1,2.005-.33,4.859,4.859,0,0,1,2.477.755A2.774,2.774,0,0,1,1504.739,529.891Zm2.5-13.826a5.031,5.031,0,0,1,.92,2.524,3.337,3.337,0,0,1-1.156,2.666,4.91,4.91,0,0,1-2.6,1.581,2.908,2.908,0,0,1-2.029-.377,3.637,3.637,0,0,1-1.321-1.51,3.1,3.1,0,0,1-.331-1.864,3.351,3.351,0,0,1,.874-1.888,5.553,5.553,0,0,1,1.817-1.392,4.828,4.828,0,0,1,2.1-.5A2.182,2.182,0,0,1,1507.24,516.065Z" transform="translate(-1356.6 -475.042)" fill="#24222d"/>
        <path id="Path_98" data-name="Path 98" d="M1585.129,458.119q-.283,1.132-1.887,8.564t-3.444,15.879q-1.841,8.446-4.766,22.083a2.923,2.923,0,0,1-2.029,1.793,3.548,3.548,0,0,1-2.454-.307,4.041,4.041,0,0,1-1.772-1.935,3.952,3.952,0,0,1,.026-3.138,33.155,33.155,0,0,1-8.237,5.5,16.7,16.7,0,0,1-8.352,1.959,5.741,5.741,0,0,1-5.143-3.822q-1.486-3.539,1.253-11.985a28.265,28.265,0,0,1,5.636-9.579,44.608,44.608,0,0,1,8.379-7.739,18.263,18.263,0,0,1,7.692-3.421q3.4-.448,3.633,3.374a10.713,10.713,0,0,1-1.442,5.073,17.275,17.275,0,0,1-2.689,3.917c-.834.833-1.311.92-1.437.259s.614-2.611,2.218-5.851q1.84-3.256.425-3.02a10.812,10.812,0,0,0-4.105,2.36,51.933,51.933,0,0,0-5.757,5.426,26.262,26.262,0,0,0-4.482,6.229,38.086,38.086,0,0,0-2.952,7.739,12.651,12.651,0,0,0-.377,5.875,2.791,2.791,0,0,0,2.669,2.359q2.123.166,6.182-2.76a26.861,26.861,0,0,0,5.305-4.153,19.445,19.445,0,0,0,3.047-4.152q1.227-4.671,2.643-10.5t2.689-11.254q1.557-7.361,3.115-14.062t3.114-12.269q1.558-5.568,3.162-9.815a30.852,30.852,0,0,1,3.4-6.795,35.341,35.341,0,0,1,5.447-6.087,22.34,22.34,0,0,1,6.444-4.058,15.392,15.392,0,0,1,6.957-1.109,13.821,13.821,0,0,1,7.057,2.76,4.411,4.411,0,0,1,1.463,1.888,7.72,7.72,0,0,1,.519,2.076,13.216,13.216,0,0,1-.047,2.454,4.69,4.69,0,0,1-2.008,2.808,3.544,3.544,0,0,1-3.23.448,5.3,5.3,0,0,1-2.433-1.51,3.913,3.913,0,0,1-.917-1.935,4.581,4.581,0,0,1,.142-1.958,4.784,4.784,0,0,1,.8-1.628,11.071,11.071,0,0,0-7.5-.024,12.939,12.939,0,0,0-6.559,5.214,33.817,33.817,0,0,0-3.234,7.149q-1.675,4.79-3.041,9.6T1585.129,458.119Z" transform="translate(-1388.1 -418.653)" fill="#24222d"/>
      </g>
    </g>
  </g>
</svg>
